<svg xmlns="http://www.w3.org/2000/svg" viewBox="0 0 720 430" font-family="-apple-system,Segoe UI,Roboto,Helvetica,Arial,sans-serif">
  <rect x="0" y="0" width="720" height="430" rx="10" fill="#ffffff"/>
  <text x="26" y="32" font-size="19" font-weight="700" fill="#1b1f24">mikasa-inbound — the climb (single-stream tok/s, A10G)</text>
  <text x="26" y="51" font-size="12" fill="#57606a">google/gemma-4-E4B-it · valid = token-level PPL ≤ 2.42 · all bars below are VALID</text>

  <!-- gridlines y(v)=370-0.62v -->
  <g stroke="#e7eaef" stroke-width="1">
    <line x1="70" y1="370" x2="690" y2="370"/><line x1="70" y1="308" x2="690" y2="308"/>
    <line x1="70" y1="246" x2="690" y2="246"/><line x1="70" y1="184" x2="690" y2="184"/>
    <line x1="70" y1="122" x2="690" y2="122"/><line x1="70" y1="60" x2="690" y2="60"/>
  </g>
  <g font-size="10.5" fill="#8b949e" text-anchor="end">
    <text x="62" y="374">0</text><text x="62" y="312">100</text><text x="62" y="250">200</text>
    <text x="62" y="188">300</text><text x="62" y="126">400</text><text x="62" y="64">500</text>
  </g>

  <!-- board-top reference (gemma-slayer 512.59) -->
  <line x1="70" y1="52" x2="690" y2="52" stroke="#8957e5" stroke-width="1.5" stroke-dasharray="6 4"/>
  <text x="686" y="47" font-size="11" fill="#8957e5" text-anchor="end" font-weight="600">board top 512.6 (gemma-slayer)</text>

  <!-- bars (all valid → green; #2 highlighted) -->
  <g>
    <rect x="102" y="231" width="92" height="139" fill="#2e9e5b"/>
    <text x="148" y="225" font-size="13" font-weight="700" fill="#1b1f24" text-anchor="middle">224.0</text>
    <rect x="257" y="192" width="92" height="178" fill="#2e9e5b"/>
    <text x="303" y="186" font-size="13" font-weight="700" fill="#1b1f24" text-anchor="middle">287.6</text>
    <rect x="412" y="189" width="92" height="181" fill="#2e9e5b"/>
    <text x="458" y="183" font-size="13" font-weight="700" fill="#1b1f24" text-anchor="middle">292.5</text>
    <rect x="567" y="53" width="92" height="317" fill="#1f8f4e" stroke="#0f5e30" stroke-width="2"/>
    <text x="613" y="48" font-size="14" font-weight="700" fill="#0f5e30" text-anchor="middle">511.69</text>
  </g>

  <!-- x labels -->
  <g font-size="11" fill="#1b1f24" text-anchor="middle">
    <text x="148" y="388" font-weight="600">224</text><text x="148" y="403" font-size="10" fill="#57606a">start (W4A16)</text>
    <text x="303" y="388" font-weight="600">dixie16k</text><text x="303" y="403" font-size="10" fill="#57606a">posted #59</text>
    <text x="458" y="388" font-weight="600">osoi5-pck04</text><text x="458" y="403" font-size="10" fill="#57606a">pruned-head fix</text>
    <text x="613" y="388" font-weight="700" fill="#0f5e30">w160 #2 ★</text><text x="613" y="403" font-size="10" fill="#57606a">w160 + ctk44</text>
  </g>
  <text x="613" y="74" font-size="10.5" fill="#ffffff" text-anchor="middle" font-weight="700">we are here</text>
</svg>
