<svg viewBox="0 0 1200 440" xmlns="http://www.w3.org/2000/svg" font-family="ui-sans-serif,system-ui,-apple-system,sans-serif"><rect x="0" y="0" width="1200" height="440" fill="#ffffff"/><rect x="60" y="46" width="972" height="350" fill="#f3f4fb"/><line x1="60" y1="396.0" x2="1032" y2="396.0" stroke="#e3e5ef" stroke-width="1"/><text x="52" y="400.0" text-anchor="end" font-size="11" fill="#8a8fa3">0</text><line x1="60" y1="332.4" x2="1032" y2="332.4" stroke="#e3e5ef" stroke-width="1"/><text x="52" y="336.4" text-anchor="end" font-size="11" fill="#8a8fa3">100</text><line x1="60" y1="268.7" x2="1032" y2="268.7" stroke="#e3e5ef" stroke-width="1"/><text x="52" y="272.7" text-anchor="end" font-size="11" fill="#8a8fa3">200</text><line x1="60" y1="205.1" x2="1032" y2="205.1" stroke="#e3e5ef" stroke-width="1"/><text x="52" y="209.1" text-anchor="end" font-size="11" fill="#8a8fa3">300</text><line x1="60" y1="141.5" x2="1032" y2="141.5" stroke="#e3e5ef" stroke-width="1"/><text x="52" y="145.5" text-anchor="end" font-size="11" fill="#8a8fa3">400</text><line x1="60" y1="77.8" x2="1032" y2="77.8" stroke="#e3e5ef" stroke-width="1"/><text x="52" y="81.8" text-anchor="end" font-size="11" fill="#8a8fa3">500</text><line x1="118.2" y1="46" x2="118.2" y2="396" stroke="#e3e5ef" stroke-width="1"/><text x="118.2" y="414.0" text-anchor="middle" font-size="11" fill="#8a8fa3">Jun 10</text><line x1="201.2" y1="46" x2="201.2" y2="396" stroke="#e3e5ef" stroke-width="1"/><text x="201.2" y="414.0" text-anchor="middle" font-size="11" fill="#8a8fa3">Jun 12</text><line x1="284.2" y1="46" x2="284.2" y2="396" stroke="#e3e5ef" stroke-width="1"/><text x="284.2" y="414.0" text-anchor="middle" font-size="11" fill="#8a8fa3">Jun 14</text><line x1="367.1" y1="46" x2="367.1" y2="396" stroke="#e3e5ef" stroke-width="1"/><text x="367.1" y="414.0" text-anchor="middle" font-size="11" fill="#8a8fa3">Jun 16</text><line x1="450.1" y1="46" x2="450.1" y2="396" stroke="#e3e5ef" stroke-width="1"/><text x="450.1" y="414.0" text-anchor="middle" font-size="11" fill="#8a8fa3">Jun 18</text><line x1="533.1" y1="46" x2="533.1" y2="396" stroke="#e3e5ef" stroke-width="1"/><text x="533.1" y="414.0" text-anchor="middle" font-size="11" fill="#8a8fa3">Jun 20</text><line x1="616.1" y1="46" x2="616.1" y2="396" stroke="#e3e5ef" stroke-width="1"/><text x="616.1" y="414.0" text-anchor="middle" font-size="11" fill="#8a8fa3">Jun 22</text><line x1="699.1" y1="46" x2="699.1" y2="396" stroke="#e3e5ef" stroke-width="1"/><text x="699.1" y="414.0" text-anchor="middle" font-size="11" fill="#8a8fa3">Jun 24</text><line x1="782.1" y1="46" x2="782.1" y2="396" stroke="#e3e5ef" stroke-width="1"/><text x="782.1" y="414.0" text-anchor="middle" font-size="11" fill="#8a8fa3">Jun 26</text><line x1="865.1" y1="46" x2="865.1" y2="396" stroke="#e3e5ef" stroke-width="1"/><text x="865.1" y="414.0" text-anchor="middle" font-size="11" fill="#8a8fa3">Jun 28</text><line x1="948.1" y1="46" x2="948.1" y2="396" stroke="#e3e5ef" stroke-width="1"/><text x="948.1" y="414.0" text-anchor="middle" font-size="11" fill="#8a8fa3">Jun 30</text><line x1="1031.0" y1="46" x2="1031.0" y2="396" stroke="#e3e5ef" stroke-width="1"/><text x="1031.0" y="414.0" text-anchor="middle" font-size="11" fill="#8a8fa3">Jul 2</text><circle cx="60.0" cy="335.3" r="2.3" fill="#b9bdca" opacity="0.5"/><circle cx="62.0" cy="335.1" r="2.3" fill="#b9bdca" opacity="0.5"/><circle cx="64.0" cy="368.0" r="2.3" fill="#b9bdca" opacity="0.5"/><circle cx="64.8" cy="320.7" r="2.3" fill="#b9bdca" opacity="0.5"/><circle cx="70.3" cy="319.9" r="2.3" fill="#b9bdca" opacity="0.5"/><circle cx="70.6" cy="320.6" r="2.3" fill="#b9bdca" opacity="0.5"/><circle cx="72.4" cy="315.3" r="2.3" fill="#b9bdca" opacity="0.5"/><circle cx="72.8" cy="319.7" r="2.3" fill="#b9bdca" opacity="0.5"/><circle cx="72.9" cy="314.9" r="2.3" fill="#b9bdca" opacity="0.5"/><circle cx="73.6" cy="315.5" r="2.3" fill="#b9bdca" opacity="0.5"/><circle cx="73.8" cy="314.9" r="2.3" fill="#b9bdca" opacity="0.5"/><circle cx="74.4" cy="315.4" r="2.3" fill="#b9bdca" opacity="0.5"/><circle cx="75.4" cy="315.0" r="2.3" fill="#b9bdca" opacity="0.5"/><circle cx="106.9" cy="238.7" r="2.3" fill="#b9bdca" opacity="0.5"/><circle cx="107.1" cy="315.0" r="2.3" fill="#b9bdca" opacity="0.5"/><circle cx="107.4" cy="229.0" r="2.3" fill="#b9bdca" opacity="0.5"/><circle cx="107.9" cy="222.3" r="2.3" fill="#b9bdca" opacity="0.5"/><circle cx="108.4" cy="228.0" r="2.3" fill="#b9bdca" opacity="0.5"/><circle cx="108.5" cy="223.3" r="2.3" fill="#b9bdca" opacity="0.5"/><circle cx="108.6" cy="220.6" r="2.3" fill="#b9bdca" opacity="0.5"/><circle cx="108.7" cy="220.5" r="2.3" fill="#b9bdca" opacity="0.5"/><circle cx="108.8" cy="223.2" r="2.3" fill="#b9bdca" opacity="0.5"/><circle cx="109.1" cy="214.2" r="2.3" fill="#b9bdca" opacity="0.5"/><circle cx="109.1" cy="222.1" r="2.3" fill="#b9bdca" opacity="0.5"/><circle cx="109.4" cy="220.7" r="2.3" fill="#b9bdca" opacity="0.5"/><circle cx="109.7" cy="218.5" r="2.3" fill="#b9bdca" opacity="0.5"/><circle cx="109.8" cy="215.2" r="2.3" fill="#b9bdca" opacity="0.5"/><circle cx="110.1" cy="214.3" r="2.3" fill="#b9bdca" opacity="0.5"/><circle cx="110.1" cy="219.2" r="2.3" fill="#b9bdca" opacity="0.5"/><circle cx="110.3" cy="214.1" r="2.3" fill="#b9bdca" opacity="0.5"/><circle cx="110.5" cy="215.2" r="2.3" fill="#b9bdca" opacity="0.5"/><circle cx="110.7" cy="213.7" r="2.3" fill="#b9bdca" opacity="0.5"/><circle cx="110.9" cy="213.5" r="2.3" fill="#b9bdca" opacity="0.5"/><circle cx="111.2" cy="214.8" r="2.3" fill="#b9bdca" opacity="0.5"/><circle cx="111.2" cy="217.7" r="2.3" fill="#b9bdca" opacity="0.5"/><circle cx="111.3" cy="212.7" r="2.3" fill="#b9bdca" opacity="0.5"/><circle cx="111.8" cy="213.3" r="2.3" fill="#b9bdca" opacity="0.5"/><circle cx="112.4" cy="212.7" r="2.3" fill="#b9bdca" opacity="0.5"/><circle cx="112.4" cy="213.6" r="2.3" fill="#b9bdca" opacity="0.5"/><circle cx="112.6" cy="213.0" r="2.3" fill="#b9bdca" opacity="0.5"/><circle cx="112.9" cy="212.1" r="2.3" fill="#b9bdca" opacity="0.5"/><circle cx="113.0" cy="213.3" r="2.3" fill="#b9bdca" opacity="0.5"/><circle cx="113.4" cy="212.0" r="2.3" fill="#b9bdca" opacity="0.5"/><circle cx="114.0" cy="212.1" r="2.3" fill="#b9bdca" opacity="0.5"/><circle cx="114.0" cy="212.8" r="2.3" fill="#b9bdca" opacity="0.5"/><circle cx="117.8" cy="206.7" r="2.3" fill="#b9bdca" opacity="0.5"/><circle cx="118.3" cy="206.8" r="2.3" fill="#b9bdca" opacity="0.5"/><circle cx="118.3" cy="212.5" r="2.3" fill="#b9bdca" opacity="0.5"/><circle cx="118.6" cy="207.2" r="2.3" fill="#b9bdca" opacity="0.5"/><circle cx="119.8" cy="207.0" r="2.3" fill="#b9bdca" opacity="0.5"/><circle cx="122.7" cy="204.9" r="2.3" fill="#b9bdca" opacity="0.5"/><circle cx="124.5" cy="204.6" r="2.3" fill="#b9bdca" opacity="0.5"/><circle cx="124.7" cy="212.3" r="2.3" fill="#b9bdca" opacity="0.5"/><circle cx="125.0" cy="204.6" r="2.3" fill="#b9bdca" opacity="0.5"/><circle cx="125.0" cy="204.6" r="2.3" fill="#b9bdca" opacity="0.5"/><circle cx="125.0" cy="204.9" r="2.3" fill="#b9bdca" opacity="0.5"/><circle cx="125.0" cy="204.9" r="2.3" fill="#b9bdca" opacity="0.5"/><circle cx="125.8" cy="201.9" r="2.3" fill="#b9bdca" opacity="0.5"/><circle cx="126.9" cy="206.5" r="2.3" fill="#b9bdca" opacity="0.5"/><circle cx="127.4" cy="205.8" r="2.3" fill="#b9bdca" opacity="0.5"/><circle cx="127.4" cy="335.1" r="2.3" fill="#b9bdca" opacity="0.5"/><circle cx="128.0" cy="201.8" r="2.3" fill="#b9bdca" opacity="0.5"/><circle cx="128.0" cy="202.2" r="2.3" fill="#b9bdca" opacity="0.5"/><circle cx="129.1" cy="201.0" r="2.3" fill="#b9bdca" opacity="0.5"/><circle cx="129.5" cy="203.1" r="2.3" fill="#b9bdca" opacity="0.5"/><circle cx="129.7" cy="200.0" r="2.3" fill="#b9bdca" opacity="0.5"/><circle cx="129.8" cy="204.6" r="2.3" fill="#b9bdca" opacity="0.5"/><circle cx="130.4" cy="202.3" r="2.3" fill="#b9bdca" opacity="0.5"/><circle cx="131.8" cy="200.4" r="2.3" fill="#b9bdca" opacity="0.5"/><circle cx="132.4" cy="200.7" r="2.3" fill="#b9bdca" opacity="0.5"/><circle cx="132.9" cy="200.0" r="2.3" fill="#b9bdca" opacity="0.5"/><circle cx="134.2" cy="199.7" r="2.3" fill="#b9bdca" opacity="0.5"/><circle cx="142.2" cy="200.6" r="2.3" fill="#b9bdca" opacity="0.5"/><circle cx="142.8" cy="201.8" r="2.3" fill="#b9bdca" opacity="0.5"/><circle cx="143.9" cy="208.4" r="2.3" fill="#b9bdca" opacity="0.5"/><circle cx="144.0" cy="200.8" r="2.3" fill="#b9bdca" opacity="0.5"/><circle cx="144.7" cy="200.7" r="2.3" fill="#b9bdca" opacity="0.5"/><circle cx="144.7" cy="201.9" r="2.3" fill="#b9bdca" opacity="0.5"/><circle cx="145.0" cy="195.5" r="2.3" fill="#b9bdca" opacity="0.5"/><circle cx="145.8" cy="196.9" r="2.3" fill="#b9bdca" opacity="0.5"/><circle cx="146.1" cy="197.9" r="2.3" fill="#b9bdca" opacity="0.5"/><circle cx="146.8" cy="196.1" r="2.3" fill="#b9bdca" opacity="0.5"/><circle cx="149.3" cy="197.3" r="2.3" fill="#b9bdca" opacity="0.5"/><circle cx="149.9" cy="195.9" r="2.3" fill="#b9bdca" opacity="0.5"/><circle cx="150.2" cy="201.0" r="2.3" fill="#b9bdca" opacity="0.5"/><circle cx="150.4" cy="197.5" r="2.3" fill="#b9bdca" opacity="0.5"/><circle cx="150.9" cy="196.9" r="2.3" fill="#b9bdca" opacity="0.5"/><circle cx="150.9" cy="197.1" r="2.3" fill="#b9bdca" opacity="0.5"/><circle cx="151.0" cy="197.0" r="2.3" fill="#b9bdca" opacity="0.5"/><circle cx="151.5" cy="196.0" r="2.3" fill="#b9bdca" opacity="0.5"/><circle cx="151.5" cy="196.0" r="2.3" fill="#b9bdca" opacity="0.5"/><circle cx="151.6" cy="197.9" r="2.3" fill="#b9bdca" opacity="0.5"/><circle cx="152.0" cy="197.8" r="2.3" fill="#b9bdca" opacity="0.5"/><circle cx="152.4" cy="196.2" r="2.3" fill="#b9bdca" opacity="0.5"/><circle cx="152.4" cy="197.5" r="2.3" fill="#b9bdca" opacity="0.5"/><circle cx="152.5" cy="196.9" r="2.3" fill="#b9bdca" opacity="0.5"/><circle cx="152.6" cy="195.5" r="2.3" fill="#b9bdca" opacity="0.5"/><circle cx="153.0" cy="198.1" r="2.3" fill="#b9bdca" opacity="0.5"/><circle cx="153.1" cy="187.4" r="2.3" fill="#b9bdca" opacity="0.5"/><circle cx="153.3" cy="186.2" r="2.3" fill="#b9bdca" opacity="0.5"/><circle cx="153.3" cy="196.3" r="2.3" fill="#b9bdca" opacity="0.5"/><circle cx="153.3" cy="197.2" r="2.3" fill="#b9bdca" opacity="0.5"/><circle cx="153.3" cy="197.8" r="2.3" fill="#b9bdca" opacity="0.5"/><circle cx="153.3" cy="368.0" r="2.3" fill="#b9bdca" opacity="0.5"/><circle cx="153.9" cy="184.5" r="2.3" fill="#b9bdca" opacity="0.5"/><circle cx="156.0" cy="184.6" r="2.3" fill="#b9bdca" opacity="0.5"/><circle cx="156.9" cy="185.6" r="2.3" fill="#b9bdca" opacity="0.5"/><circle cx="160.0" cy="188.7" r="2.3" fill="#b9bdca" opacity="0.5"/><circle cx="164.3" cy="185.4" r="2.3" fill="#b9bdca" opacity="0.5"/><circle cx="165.2" cy="185.2" r="2.3" fill="#b9bdca" opacity="0.5"/><circle cx="165.5" cy="186.6" r="2.3" fill="#b9bdca" opacity="0.5"/><circle cx="165.6" cy="185.3" r="2.3" fill="#b9bdca" opacity="0.5"/><circle cx="166.3" cy="185.3" r="2.3" fill="#b9bdca" opacity="0.5"/><circle cx="166.7" cy="185.0" r="2.3" fill="#b9bdca" opacity="0.5"/><circle cx="167.4" cy="184.9" r="2.3" fill="#b9bdca" opacity="0.5"/><circle cx="167.9" cy="185.1" r="2.3" fill="#b9bdca" opacity="0.5"/><circle cx="167.9" cy="185.2" r="2.3" fill="#b9bdca" opacity="0.5"/><circle cx="167.9" cy="186.4" r="2.3" fill="#b9bdca" opacity="0.5"/><circle cx="168.0" cy="183.9" r="2.3" fill="#b9bdca" opacity="0.5"/><circle cx="171.8" cy="184.4" r="2.3" fill="#b9bdca" opacity="0.5"/><circle cx="172.5" cy="184.2" r="2.3" fill="#b9bdca" opacity="0.5"/><circle cx="174.9" cy="169.3" r="2.3" fill="#b9bdca" opacity="0.5"/><circle cx="177.3" cy="168.8" r="2.3" fill="#b9bdca" opacity="0.5"/><circle cx="177.5" cy="167.7" r="2.3" fill="#b9bdca" opacity="0.5"/><circle cx="178.5" cy="201.4" r="2.3" fill="#b9bdca" opacity="0.5"/><circle cx="178.8" cy="165.0" r="2.3" fill="#b9bdca" opacity="0.5"/><circle cx="178.9" cy="198.2" r="2.3" fill="#b9bdca" opacity="0.5"/><circle cx="179.3" cy="163.7" r="2.3" fill="#b9bdca" opacity="0.5"/><circle cx="179.4" cy="163.6" r="2.3" fill="#b9bdca" opacity="0.5"/><circle cx="179.8" cy="165.9" r="2.3" fill="#b9bdca" opacity="0.5"/><circle cx="181.9" cy="165.1" r="2.3" fill="#b9bdca" opacity="0.5"/><circle cx="182.4" cy="155.9" r="2.3" fill="#b9bdca" opacity="0.5"/><circle cx="184.5" cy="196.5" r="2.3" fill="#b9bdca" opacity="0.5"/><circle cx="185.3" cy="157.4" r="2.3" fill="#b9bdca" opacity="0.5"/><circle cx="186.1" cy="155.8" r="2.3" fill="#b9bdca" opacity="0.5"/><circle cx="187.4" cy="141.9" r="2.3" fill="#b9bdca" opacity="0.5"/><circle cx="190.2" cy="156.1" r="2.3" fill="#b9bdca" opacity="0.5"/><circle cx="190.2" cy="156.4" r="2.3" fill="#b9bdca" opacity="0.5"/><circle cx="190.3" cy="141.8" r="2.3" fill="#b9bdca" opacity="0.5"/><circle cx="190.4" cy="196.0" r="2.3" fill="#b9bdca" opacity="0.5"/><circle cx="191.4" cy="131.7" r="2.3" fill="#b9bdca" opacity="0.5"/><circle cx="191.5" cy="134.1" r="2.3" fill="#b9bdca" opacity="0.5"/><circle cx="191.8" cy="141.1" r="2.3" fill="#b9bdca" opacity="0.5"/><circle cx="192.3" cy="134.0" r="2.3" fill="#b9bdca" opacity="0.5"/><circle cx="192.4" cy="130.9" r="2.3" fill="#b9bdca" opacity="0.5"/><circle cx="192.4" cy="154.2" r="2.3" fill="#b9bdca" opacity="0.5"/><circle cx="192.6" cy="133.6" r="2.3" fill="#b9bdca" opacity="0.5"/><circle cx="192.8" cy="129.5" r="2.3" fill="#b9bdca" opacity="0.5"/><circle cx="192.8" cy="130.9" r="2.3" fill="#b9bdca" opacity="0.5"/><circle cx="192.8" cy="133.4" r="2.3" fill="#b9bdca" opacity="0.5"/><circle cx="193.0" cy="131.2" r="2.3" fill="#b9bdca" opacity="0.5"/><circle cx="194.7" cy="189.8" r="2.3" fill="#b9bdca" opacity="0.5"/><circle cx="194.8" cy="133.2" r="2.3" fill="#b9bdca" opacity="0.5"/><circle cx="195.1" cy="133.5" r="2.3" fill="#b9bdca" opacity="0.5"/><circle cx="195.7" cy="130.1" r="2.3" fill="#b9bdca" opacity="0.5"/><circle cx="197.4" cy="130.3" r="2.3" fill="#b9bdca" opacity="0.5"/><circle cx="198.2" cy="303.1" r="2.3" fill="#b9bdca" opacity="0.5"/><circle cx="199.6" cy="133.2" r="2.3" fill="#b9bdca" opacity="0.5"/><circle cx="201.4" cy="144.2" r="2.3" fill="#b9bdca" opacity="0.5"/><circle cx="201.8" cy="135.3" r="2.3" fill="#b9bdca" opacity="0.5"/><circle cx="203.0" cy="133.4" r="2.3" fill="#b9bdca" opacity="0.5"/><circle cx="203.1" cy="159.9" r="2.3" fill="#b9bdca" opacity="0.5"/><circle cx="203.4" cy="130.8" r="2.3" fill="#b9bdca" opacity="0.5"/><circle cx="203.8" cy="133.2" r="2.3" fill="#b9bdca" opacity="0.5"/><circle cx="208.1" cy="130.9" r="2.3" fill="#b9bdca" opacity="0.5"/><circle cx="208.5" cy="130.9" r="2.3" fill="#b9bdca" opacity="0.5"/><circle cx="208.5" cy="133.8" r="2.3" fill="#b9bdca" opacity="0.5"/><circle cx="209.2" cy="130.4" r="2.3" fill="#b9bdca" opacity="0.5"/><circle cx="209.7" cy="153.7" r="2.3" fill="#b9bdca" opacity="0.5"/><circle cx="210.5" cy="133.3" r="2.3" fill="#b9bdca" opacity="0.5"/><circle cx="211.8" cy="156.5" r="2.3" fill="#b9bdca" opacity="0.5"/><circle cx="212.0" cy="132.3" r="2.3" fill="#b9bdca" opacity="0.5"/><circle cx="213.6" cy="147.2" r="2.3" fill="#b9bdca" opacity="0.5"/><circle cx="213.8" cy="133.6" r="2.3" fill="#b9bdca" opacity="0.5"/><circle cx="214.4" cy="129.5" r="2.3" fill="#b9bdca" opacity="0.5"/><circle cx="214.4" cy="133.3" r="2.3" fill="#b9bdca" opacity="0.5"/><circle cx="216.3" cy="133.3" r="2.3" fill="#b9bdca" opacity="0.5"/><circle cx="217.5" cy="129.5" r="2.3" fill="#b9bdca" opacity="0.5"/><circle cx="219.6" cy="130.6" r="2.3" fill="#b9bdca" opacity="0.5"/><circle cx="221.2" cy="128.9" r="2.3" fill="#b9bdca" opacity="0.5"/><circle cx="221.5" cy="132.7" r="2.3" fill="#b9bdca" opacity="0.5"/><circle cx="221.5" cy="133.1" r="2.3" fill="#b9bdca" opacity="0.5"/><circle cx="223.9" cy="129.8" r="2.3" fill="#b9bdca" opacity="0.5"/><circle cx="224.6" cy="333.8" r="2.3" fill="#b9bdca" opacity="0.5"/><circle cx="224.8" cy="128.4" r="2.3" fill="#b9bdca" opacity="0.5"/><circle cx="225.9" cy="129.8" r="2.3" fill="#b9bdca" opacity="0.5"/><circle cx="226.3" cy="128.9" r="2.3" fill="#b9bdca" opacity="0.5"/><circle cx="226.4" cy="128.9" r="2.3" fill="#b9bdca" opacity="0.5"/><circle cx="227.2" cy="128.2" r="2.3" fill="#b9bdca" opacity="0.5"/><circle cx="227.8" cy="129.7" r="2.3" fill="#b9bdca" opacity="0.5"/><circle cx="228.0" cy="142.3" r="2.3" fill="#b9bdca" opacity="0.5"/><circle cx="230.3" cy="128.8" r="2.3" fill="#b9bdca" opacity="0.5"/><circle cx="231.6" cy="161.1" r="2.3" fill="#b9bdca" opacity="0.5"/><circle cx="234.1" cy="164.4" r="2.3" fill="#b9bdca" opacity="0.5"/><circle cx="234.4" cy="248.3" r="2.3" fill="#b9bdca" opacity="0.5"/><circle cx="238.1" cy="135.4" r="2.3" fill="#b9bdca" opacity="0.5"/><circle cx="238.4" cy="128.0" r="2.3" fill="#b9bdca" opacity="0.5"/><circle cx="239.5" cy="229.0" r="2.3" fill="#b9bdca" opacity="0.5"/><circle cx="242.0" cy="128.1" r="2.3" fill="#b9bdca" opacity="0.5"/><circle cx="242.7" cy="128.6" r="2.3" fill="#b9bdca" opacity="0.5"/><circle cx="245.1" cy="128.8" r="2.3" fill="#b9bdca" opacity="0.5"/><circle cx="245.1" cy="129.6" r="2.3" fill="#b9bdca" opacity="0.5"/><circle cx="245.1" cy="130.9" r="2.3" fill="#b9bdca" opacity="0.5"/><circle cx="250.0" cy="112.8" r="2.3" fill="#b9bdca" opacity="0.5"/><circle cx="252.6" cy="110.2" r="2.3" fill="#b9bdca" opacity="0.5"/><circle cx="252.7" cy="111.6" r="2.3" fill="#b9bdca" opacity="0.5"/><circle cx="254.3" cy="111.0" r="2.3" fill="#b9bdca" opacity="0.5"/><circle cx="255.1" cy="335.1" r="2.3" fill="#b9bdca" opacity="0.5"/><circle cx="255.5" cy="111.6" r="2.3" fill="#b9bdca" opacity="0.5"/><circle cx="257.2" cy="105.5" r="2.3" fill="#b9bdca" opacity="0.5"/><circle cx="257.4" cy="108.5" r="2.3" fill="#b9bdca" opacity="0.5"/><circle cx="258.1" cy="105.1" r="2.3" fill="#b9bdca" opacity="0.5"/><circle cx="258.9" cy="103.8" r="2.3" fill="#b9bdca" opacity="0.5"/><circle cx="259.7" cy="125.8" r="2.3" fill="#b9bdca" opacity="0.5"/><circle cx="266.9" cy="103.5" r="2.3" fill="#b9bdca" opacity="0.5"/><circle cx="268.8" cy="127.8" r="2.3" fill="#b9bdca" opacity="0.5"/><circle cx="269.6" cy="334.3" r="2.3" fill="#b9bdca" opacity="0.5"/><circle cx="270.7" cy="128.6" r="2.3" fill="#b9bdca" opacity="0.5"/><circle cx="271.2" cy="128.6" r="2.3" fill="#b9bdca" opacity="0.5"/><circle cx="271.3" cy="128.6" r="2.3" fill="#b9bdca" opacity="0.5"/><circle cx="272.0" cy="256.6" r="2.3" fill="#b9bdca" opacity="0.5"/><circle cx="272.8" cy="254.6" r="2.3" fill="#b9bdca" opacity="0.5"/><circle cx="274.1" cy="128.6" r="2.3" fill="#b9bdca" opacity="0.5"/><circle cx="277.4" cy="250.1" r="2.3" fill="#b9bdca" opacity="0.5"/><circle cx="277.7" cy="161.4" r="2.3" fill="#b9bdca" opacity="0.5"/><circle cx="278.0" cy="206.6" r="2.3" fill="#b9bdca" opacity="0.5"/><circle cx="281.1" cy="113.5" r="2.3" fill="#b9bdca" opacity="0.5"/><circle cx="282.1" cy="89.6" r="2.3" fill="#b9bdca" opacity="0.5"/><circle cx="282.9" cy="90.2" r="2.3" fill="#b9bdca" opacity="0.5"/><circle cx="284.8" cy="89.3" r="2.3" fill="#b9bdca" opacity="0.5"/><circle cx="285.3" cy="87.6" r="2.3" fill="#b9bdca" opacity="0.5"/><circle cx="285.9" cy="185.0" r="2.3" fill="#b9bdca" opacity="0.5"/><circle cx="286.6" cy="131.6" r="2.3" fill="#b9bdca" opacity="0.5"/><circle cx="287.1" cy="87.8" r="2.3" fill="#b9bdca" opacity="0.5"/><circle cx="288.0" cy="85.4" r="2.3" fill="#b9bdca" opacity="0.5"/><circle cx="289.3" cy="86.8" r="2.3" fill="#b9bdca" opacity="0.5"/><circle cx="290.7" cy="88.4" r="2.3" fill="#b9bdca" opacity="0.5"/><circle cx="296.4" cy="89.5" r="2.3" fill="#b9bdca" opacity="0.5"/><circle cx="296.4" cy="155.6" r="2.3" fill="#b9bdca" opacity="0.5"/><circle cx="296.5" cy="84.4" r="2.3" fill="#b9bdca" opacity="0.5"/><circle cx="303.3" cy="89.2" r="2.3" fill="#b9bdca" opacity="0.5"/><circle cx="303.4" cy="90.5" r="2.3" fill="#b9bdca" opacity="0.5"/><circle cx="305.3" cy="87.7" r="2.3" fill="#b9bdca" opacity="0.5"/><circle cx="305.9" cy="367.9" r="2.3" fill="#b9bdca" opacity="0.5"/><circle cx="308.7" cy="164.3" r="2.3" fill="#b9bdca" opacity="0.5"/><circle cx="310.1" cy="94.6" r="2.3" fill="#b9bdca" opacity="0.5"/><circle cx="310.6" cy="89.6" r="2.3" fill="#b9bdca" opacity="0.5"/><circle cx="316.5" cy="124.6" r="2.3" fill="#b9bdca" opacity="0.5"/><circle cx="322.7" cy="146.2" r="2.3" fill="#b9bdca" opacity="0.5"/><circle cx="322.9" cy="90.5" r="2.3" fill="#b9bdca" opacity="0.5"/><circle cx="323.5" cy="87.7" r="2.3" fill="#b9bdca" opacity="0.5"/><circle cx="323.8" cy="87.7" r="2.3" fill="#b9bdca" opacity="0.5"/><circle cx="323.8" cy="89.6" r="2.3" fill="#b9bdca" opacity="0.5"/><circle cx="328.2" cy="93.0" r="2.3" fill="#b9bdca" opacity="0.5"/><circle cx="329.8" cy="85.5" r="2.3" fill="#b9bdca" opacity="0.5"/><circle cx="343.0" cy="334.8" r="2.3" fill="#b9bdca" opacity="0.5"/><circle cx="344.5" cy="86.3" r="2.3" fill="#b9bdca" opacity="0.5"/><circle cx="348.9" cy="85.5" r="2.3" fill="#b9bdca" opacity="0.5"/><circle cx="349.7" cy="84.6" r="2.3" fill="#b9bdca" opacity="0.5"/><circle cx="351.5" cy="87.8" r="2.3" fill="#b9bdca" opacity="0.5"/><circle cx="352.3" cy="84.4" r="2.3" fill="#b9bdca" opacity="0.5"/><circle cx="352.7" cy="84.8" r="2.3" fill="#b9bdca" opacity="0.5"/><circle cx="354.0" cy="87.4" r="2.3" fill="#b9bdca" opacity="0.5"/><circle cx="361.1" cy="84.4" r="2.3" fill="#b9bdca" opacity="0.5"/><circle cx="392.0" cy="89.3" r="2.3" fill="#b9bdca" opacity="0.5"/><circle cx="397.6" cy="88.6" r="2.3" fill="#b9bdca" opacity="0.5"/><circle cx="397.6" cy="92.1" r="2.3" fill="#b9bdca" opacity="0.5"/><circle cx="398.8" cy="156.8" r="2.3" fill="#b9bdca" opacity="0.5"/><circle cx="416.7" cy="201.6" r="2.3" fill="#b9bdca" opacity="0.5"/><circle cx="429.7" cy="315.6" r="2.3" fill="#b9bdca" opacity="0.5"/><circle cx="465.4" cy="87.7" r="2.3" fill="#b9bdca" opacity="0.5"/><circle cx="476.2" cy="87.6" r="2.3" fill="#b9bdca" opacity="0.5"/><circle cx="485.8" cy="87.2" r="2.3" fill="#b9bdca" opacity="0.5"/><circle cx="488.0" cy="88.8" r="2.3" fill="#b9bdca" opacity="0.5"/><circle cx="488.9" cy="89.2" r="2.3" fill="#b9bdca" opacity="0.5"/><circle cx="489.3" cy="90.9" r="2.3" fill="#b9bdca" opacity="0.5"/><circle cx="492.1" cy="87.7" r="2.3" fill="#b9bdca" opacity="0.5"/><circle cx="501.7" cy="88.6" r="2.3" fill="#b9bdca" opacity="0.5"/><circle cx="503.0" cy="89.7" r="2.3" fill="#b9bdca" opacity="0.5"/><circle cx="503.8" cy="88.2" r="2.3" fill="#b9bdca" opacity="0.5"/><circle cx="521.9" cy="75.8" r="2.3" fill="#b9bdca" opacity="0.5"/><circle cx="523.3" cy="75.7" r="2.3" fill="#b9bdca" opacity="0.5"/><circle cx="524.4" cy="76.7" r="2.3" fill="#b9bdca" opacity="0.5"/><circle cx="524.4" cy="75.8" r="2.3" fill="#b9bdca" opacity="0.5"/><circle cx="525.0" cy="75.3" r="2.3" fill="#b9bdca" opacity="0.5"/><circle cx="525.3" cy="74.7" r="2.3" fill="#b9bdca" opacity="0.5"/><circle cx="525.5" cy="83.4" r="2.3" fill="#b9bdca" opacity="0.5"/><circle cx="525.9" cy="76.2" r="2.3" fill="#b9bdca" opacity="0.5"/><circle cx="526.3" cy="78.1" r="2.3" fill="#b9bdca" opacity="0.5"/><circle cx="526.8" cy="74.7" r="2.3" fill="#b9bdca" opacity="0.5"/><circle cx="529.7" cy="89.3" r="2.3" fill="#b9bdca" opacity="0.5"/><circle cx="535.8" cy="74.4" r="2.3" fill="#b9bdca" opacity="0.5"/><circle cx="545.4" cy="74.4" r="2.3" fill="#b9bdca" opacity="0.5"/><circle cx="547.0" cy="335.1" r="2.3" fill="#b9bdca" opacity="0.5"/><circle cx="547.0" cy="81.7" r="2.3" fill="#b9bdca" opacity="0.5"/><circle cx="548.1" cy="74.6" r="2.3" fill="#b9bdca" opacity="0.5"/><circle cx="548.1" cy="82.1" r="2.3" fill="#b9bdca" opacity="0.5"/><circle cx="548.2" cy="73.9" r="2.3" fill="#b9bdca" opacity="0.5"/><circle cx="550.9" cy="76.2" r="2.3" fill="#b9bdca" opacity="0.5"/><circle cx="551.3" cy="82.1" r="2.3" fill="#b9bdca" opacity="0.5"/><circle cx="551.7" cy="74.2" r="2.3" fill="#b9bdca" opacity="0.5"/><circle cx="551.8" cy="75.0" r="2.3" fill="#b9bdca" opacity="0.5"/><circle cx="552.3" cy="73.6" r="2.3" fill="#b9bdca" opacity="0.5"/><circle cx="552.4" cy="83.3" r="2.3" fill="#b9bdca" opacity="0.5"/><circle cx="552.4" cy="83.8" r="2.3" fill="#b9bdca" opacity="0.5"/><circle cx="552.4" cy="78.1" r="2.3" fill="#b9bdca" opacity="0.5"/><circle cx="552.4" cy="81.5" r="2.3" fill="#b9bdca" opacity="0.5"/><circle cx="552.4" cy="83.0" r="2.3" fill="#b9bdca" opacity="0.5"/><circle cx="552.4" cy="83.7" r="2.3" fill="#b9bdca" opacity="0.5"/><circle cx="556.2" cy="82.7" r="2.3" fill="#b9bdca" opacity="0.5"/><circle cx="557.0" cy="77.8" r="2.3" fill="#b9bdca" opacity="0.5"/><circle cx="559.0" cy="69.8" r="2.3" fill="#b9bdca" opacity="0.5"/><circle cx="559.7" cy="75.9" r="2.3" fill="#b9bdca" opacity="0.5"/><circle cx="559.9" cy="74.3" r="2.3" fill="#b9bdca" opacity="0.5"/><circle cx="559.9" cy="77.4" r="2.3" fill="#b9bdca" opacity="0.5"/><circle cx="559.9" cy="80.6" r="2.3" fill="#b9bdca" opacity="0.5"/><circle cx="559.9" cy="81.8" r="2.3" fill="#b9bdca" opacity="0.5"/><circle cx="561.3" cy="76.9" r="2.3" fill="#b9bdca" opacity="0.5"/><circle cx="561.3" cy="82.8" r="2.3" fill="#b9bdca" opacity="0.5"/><circle cx="561.3" cy="83.0" r="2.3" fill="#b9bdca" opacity="0.5"/><circle cx="561.3" cy="83.1" r="2.3" fill="#b9bdca" opacity="0.5"/><circle cx="561.9" cy="69.1" r="2.3" fill="#b9bdca" opacity="0.5"/><circle cx="563.5" cy="75.5" r="2.3" fill="#b9bdca" opacity="0.5"/><circle cx="564.4" cy="74.3" r="2.3" fill="#b9bdca" opacity="0.5"/><circle cx="588.7" cy="74.0" r="2.3" fill="#b9bdca" opacity="0.5"/><circle cx="617.5" cy="73.4" r="2.3" fill="#b9bdca" opacity="0.5"/><circle cx="617.8" cy="75.9" r="2.3" fill="#b9bdca" opacity="0.5"/><circle cx="617.8" cy="76.3" r="2.3" fill="#b9bdca" opacity="0.5"/><circle cx="618.0" cy="76.0" r="2.3" fill="#b9bdca" opacity="0.5"/><circle cx="618.0" cy="76.8" r="2.3" fill="#b9bdca" opacity="0.5"/><circle cx="618.0" cy="81.2" r="2.3" fill="#b9bdca" opacity="0.5"/><circle cx="618.0" cy="83.4" r="2.3" fill="#b9bdca" opacity="0.5"/><circle cx="638.4" cy="76.6" r="2.3" fill="#b9bdca" opacity="0.5"/><circle cx="639.8" cy="76.7" r="2.3" fill="#b9bdca" opacity="0.5"/><circle cx="639.8" cy="82.8" r="2.3" fill="#b9bdca" opacity="0.5"/><circle cx="639.8" cy="82.8" r="2.3" fill="#b9bdca" opacity="0.5"/><circle cx="639.8" cy="83.3" r="2.3" fill="#b9bdca" opacity="0.5"/><circle cx="644.1" cy="233.4" r="2.3" fill="#b9bdca" opacity="0.5"/><circle cx="645.4" cy="228.9" r="2.3" fill="#b9bdca" opacity="0.5"/><circle cx="646.6" cy="198.3" r="2.3" fill="#b9bdca" opacity="0.5"/><circle cx="673.2" cy="73.4" r="2.3" fill="#b9bdca" opacity="0.5"/><circle cx="680.6" cy="192.4" r="2.3" fill="#b9bdca" opacity="0.5"/><circle cx="683.2" cy="75.3" r="2.3" fill="#b9bdca" opacity="0.5"/><circle cx="683.9" cy="74.0" r="2.3" fill="#b9bdca" opacity="0.5"/><circle cx="685.5" cy="194.4" r="2.3" fill="#b9bdca" opacity="0.5"/><circle cx="688.1" cy="168.6" r="2.3" fill="#b9bdca" opacity="0.5"/><circle cx="689.7" cy="77.1" r="2.3" fill="#b9bdca" opacity="0.5"/><circle cx="689.7" cy="99.5" r="2.3" fill="#b9bdca" opacity="0.5"/><circle cx="710.2" cy="71.4" r="2.3" fill="#b9bdca" opacity="0.5"/><circle cx="710.2" cy="73.5" r="2.3" fill="#b9bdca" opacity="0.5"/><circle cx="717.5" cy="72.4" r="2.3" fill="#b9bdca" opacity="0.5"/><circle cx="747.4" cy="83.0" r="2.3" fill="#b9bdca" opacity="0.5"/><circle cx="747.8" cy="72.1" r="2.3" fill="#b9bdca" opacity="0.5"/><circle cx="748.3" cy="71.6" r="2.3" fill="#b9bdca" opacity="0.5"/><circle cx="749.1" cy="75.5" r="2.3" fill="#b9bdca" opacity="0.5"/><circle cx="749.7" cy="73.7" r="2.3" fill="#b9bdca" opacity="0.5"/><circle cx="750.9" cy="72.9" r="2.3" fill="#b9bdca" opacity="0.5"/><circle cx="751.5" cy="73.4" r="2.3" fill="#b9bdca" opacity="0.5"/><circle cx="809.9" cy="85.2" r="2.3" fill="#b9bdca" opacity="0.5"/><circle cx="809.9" cy="256.6" r="2.3" fill="#b9bdca" opacity="0.5"/><circle cx="809.9" cy="335.3" r="2.3" fill="#b9bdca" opacity="0.5"/><circle cx="810.3" cy="86.8" r="2.3" fill="#b9bdca" opacity="0.5"/><circle cx="810.8" cy="71.5" r="2.3" fill="#b9bdca" opacity="0.5"/><circle cx="812.4" cy="71.0" r="2.3" fill="#b9bdca" opacity="0.5"/><circle cx="813.3" cy="71.5" r="2.3" fill="#b9bdca" opacity="0.5"/><circle cx="813.4" cy="55.0" r="2.3" fill="#b9bdca" opacity="0.5"/><circle cx="821.6" cy="83.1" r="2.3" fill="#b9bdca" opacity="0.5"/><circle cx="823.6" cy="74.7" r="2.3" fill="#b9bdca" opacity="0.5"/><circle cx="823.7" cy="59.3" r="2.3" fill="#b9bdca" opacity="0.5"/><circle cx="823.7" cy="79.9" r="2.3" fill="#b9bdca" opacity="0.5"/><circle cx="823.9" cy="74.1" r="2.3" fill="#b9bdca" opacity="0.5"/><circle cx="824.3" cy="72.7" r="2.3" fill="#b9bdca" opacity="0.5"/><circle cx="824.4" cy="73.8" r="2.3" fill="#b9bdca" opacity="0.5"/><circle cx="824.4" cy="75.9" r="2.3" fill="#b9bdca" opacity="0.5"/><circle cx="824.8" cy="74.1" r="2.3" fill="#b9bdca" opacity="0.5"/><circle cx="825.2" cy="73.5" r="2.3" fill="#b9bdca" opacity="0.5"/><circle cx="825.7" cy="74.2" r="2.3" fill="#b9bdca" opacity="0.5"/><circle cx="826.1" cy="71.5" r="2.3" fill="#b9bdca" opacity="0.5"/><circle cx="827.3" cy="74.3" r="2.3" fill="#b9bdca" opacity="0.5"/><circle cx="833.9" cy="73.2" r="2.3" fill="#b9bdca" opacity="0.5"/><circle cx="833.9" cy="73.6" r="2.3" fill="#b9bdca" opacity="0.5"/><circle cx="833.9" cy="73.8" r="2.3" fill="#b9bdca" opacity="0.5"/><circle cx="846.5" cy="73.3" r="2.3" fill="#b9bdca" opacity="0.5"/><circle cx="846.5" cy="73.4" r="2.3" fill="#b9bdca" opacity="0.5"/><circle cx="875.3" cy="96.1" r="2.3" fill="#b9bdca" opacity="0.5"/><circle cx="993.1" cy="95.6" r="2.3" fill="#b9bdca" opacity="0.5"/><circle cx="1032.0" cy="74.8" r="2.3" fill="#b9bdca" opacity="0.5"/><path d="M182.4 152.3L186.0 155.9L182.4 159.5L178.8 155.9Z" fill="#2b3a7a" opacity="0.8" stroke="none" stroke-width="0"/><path d="M190.3 138.2L193.9 141.8L190.3 145.4L186.7 141.8Z" fill="#2b3a7a" opacity="0.8" stroke="none" stroke-width="0"/><path d="M191.4 128.1L195.0 131.7L191.4 135.3L187.8 131.7Z" fill="#2b3a7a" opacity="0.8" stroke="none" stroke-width="0"/><path d="M191.5 130.5L195.1 134.1L191.5 137.7L187.9 134.1Z" fill="#2b3a7a" opacity="0.8" stroke="none" stroke-width="0"/><path d="M192.4 127.3L196.0 130.9L192.4 134.5L188.8 130.9Z" fill="#2b3a7a" opacity="0.8" stroke="none" stroke-width="0"/><path d="M192.8 125.9L196.4 129.5L192.8 133.1L189.2 129.5Z" fill="#2b3a7a" opacity="0.8" stroke="none" stroke-width="0"/><path d="M192.8 127.3L196.4 130.9L192.8 134.5L189.2 130.9Z" fill="#2b3a7a" opacity="0.8" stroke="none" stroke-width="0"/><path d="M217.5 125.9L221.1 129.5L217.5 133.1L213.9 129.5Z" fill="#2b3a7a" opacity="0.8" stroke="none" stroke-width="0"/><path d="M221.2 125.3L224.8 128.9L221.2 132.5L217.6 128.9Z" fill="#2b3a7a" opacity="0.8" stroke="none" stroke-width="0"/><path d="M224.8 124.8L228.4 128.4L224.8 132.0L221.2 128.4Z" fill="#2b3a7a" opacity="0.8" stroke="none" stroke-width="0"/><path d="M227.2 124.6L230.8 128.2L227.2 131.8L223.6 128.2Z" fill="#2b3a7a" opacity="0.8" stroke="none" stroke-width="0"/><path d="M238.4 124.4L242.0 128.0L238.4 131.6L234.8 128.0Z" fill="#2b3a7a" opacity="0.8" stroke="none" stroke-width="0"/><path d="M250.0 109.2L253.6 112.8L250.0 116.4L246.4 112.8Z" fill="#2b3a7a" opacity="0.8" stroke="none" stroke-width="0"/><path d="M255.5 108.0L259.1 111.6L255.5 115.2L251.9 111.6Z" fill="#2b3a7a" opacity="0.8" stroke="none" stroke-width="0"/><path d="M257.2 101.9L260.8 105.5L257.2 109.1L253.6 105.5Z" fill="#2b3a7a" opacity="0.8" stroke="none" stroke-width="0"/><path d="M257.4 104.9L261.0 108.5L257.4 112.1L253.8 108.5Z" fill="#2b3a7a" opacity="0.8" stroke="none" stroke-width="0"/><path d="M258.1 101.5L261.7 105.1L258.1 108.7L254.5 105.1Z" fill="#2b3a7a" opacity="0.8" stroke="none" stroke-width="0"/><path d="M258.9 100.2L262.5 103.8L258.9 107.4L255.3 103.8Z" fill="#2b3a7a" opacity="0.8" stroke="none" stroke-width="0"/><path d="M266.9 99.9L270.5 103.5L266.9 107.1L263.3 103.5Z" fill="#2b3a7a" opacity="0.8" stroke="none" stroke-width="0"/><path d="M282.1 86.0L285.7 89.6L282.1 93.2L278.5 89.6Z" fill="#2b3a7a" opacity="0.8" stroke="none" stroke-width="0"/><path d="M284.8 85.7L288.4 89.3L284.8 92.9L281.2 89.3Z" fill="#2b3a7a" opacity="0.8" stroke="none" stroke-width="0"/><path d="M285.3 84.0L288.9 87.6L285.3 91.2L281.7 87.6Z" fill="#2b3a7a" opacity="0.8" stroke="none" stroke-width="0"/><path d="M288.0 81.8L291.6 85.4L288.0 89.0L284.4 85.4Z" fill="#2b3a7a" opacity="0.8" stroke="none" stroke-width="0"/><path d="M296.5 80.8L300.1 84.4L296.5 88.0L292.9 84.4Z" fill="#2b3a7a" opacity="0.8" stroke="none" stroke-width="0"/><path d="M361.1 80.8L364.7 84.4L361.1 88.0L357.5 84.4Z" fill="#2b3a7a" opacity="0.8" stroke="none" stroke-width="0"/><path d="M521.9 72.2L525.5 75.8L521.9 79.4L518.3 75.8Z" fill="#2b3a7a" opacity="0.8" stroke="none" stroke-width="0"/><path d="M523.3 72.1L526.9 75.7L523.3 79.3L519.7 75.7Z" fill="#2b3a7a" opacity="0.8" stroke="none" stroke-width="0"/><path d="M525.0 71.7L528.6 75.3L525.0 78.9L521.4 75.3Z" fill="#2b3a7a" opacity="0.8" stroke="none" stroke-width="0"/><path d="M525.3 71.1L528.9 74.7L525.3 78.3L521.7 74.7Z" fill="#2b3a7a" opacity="0.8" stroke="none" stroke-width="0"/><path d="M526.8 71.1L530.4 74.7L526.8 78.3L523.2 74.7Z" fill="#2b3a7a" opacity="0.8" stroke="none" stroke-width="0"/><path d="M535.8 70.8L539.4 74.4L535.8 78.0L532.2 74.4Z" fill="#2b3a7a" opacity="0.8" stroke="none" stroke-width="0"/><path d="M548.2 70.3L551.8 73.9L548.2 77.5L544.6 73.9Z" fill="#2b3a7a" opacity="0.8" stroke="none" stroke-width="0"/><path d="M552.3 70.0L555.9 73.6L552.3 77.2L548.7 73.6Z" fill="#2b3a7a" opacity="0.8" stroke="none" stroke-width="0"/><path d="M617.5 69.8L621.1 73.4L617.5 77.0L613.9 73.4Z" fill="#2b3a7a" opacity="0.8" stroke="none" stroke-width="0"/><path d="M673.2 69.8L676.8 73.4L673.2 77.0L669.6 73.4Z" fill="#2b3a7a" opacity="0.8" stroke="none" stroke-width="0"/><path d="M710.2 67.8L713.8 71.4L710.2 75.0L706.6 71.4Z" fill="#2b3a7a" opacity="0.8" stroke="none" stroke-width="0"/><path d="M60.0 335.3L62.0 335.3L62.0 335.1L64.8 335.1L64.8 320.7L70.3 320.7L70.3 319.9L72.4 319.9L72.4 315.3L72.9 315.3L72.9 314.9L73.8 314.9L73.8 314.9L106.9 314.9L106.9 238.7L107.4 238.7L107.4 229.0L107.9 229.0L107.9 222.3L108.6 222.3L108.6 220.6L108.7 220.6L108.7 220.5L109.1 220.5L109.1 214.2L110.3 214.2L110.3 214.1L110.7 214.1L110.7 213.7L110.9 213.7L110.9 213.5L111.3 213.5L111.3 212.7L112.9 212.7L112.9 212.1L113.4 212.1L113.4 212.0L117.8 212.0L117.8 206.7L122.7 206.7L122.7 204.9L124.5 204.9L124.5 204.6L125.8 204.6L125.8 201.9L128.0 201.9L128.0 201.8L129.1 201.8L129.1 201.0L129.7 201.0L129.7 200.0L132.9 200.0L132.9 200.0L134.2 200.0L134.2 199.7L145.0 199.7L145.0 195.5L153.1 195.5L153.1 187.4L153.3 187.4L153.3 186.2L153.9 186.2L153.9 184.5L168.0 184.5L168.0 183.9L174.9 183.9L174.9 169.3L177.3 169.3L177.3 168.8L177.5 168.8L177.5 167.7L178.8 167.7L178.8 165.0L179.3 165.0L179.3 163.7L179.4 163.7L179.4 163.6L182.4 163.6L182.4 155.9L186.1 155.9L186.1 155.8L187.4 155.8L187.4 141.9L190.3 141.9L190.3 141.8L191.4 141.8L191.4 131.7L192.4 131.7L192.4 130.9L192.8 130.9L192.8 129.5L217.5 129.5L217.5 129.5L221.2 129.5L221.2 128.9L224.8 128.9L224.8 128.4L227.2 128.4L227.2 128.2L238.4 128.2L238.4 128.0L250.0 128.0L250.0 112.8L252.6 112.8L252.6 110.2L257.2 110.2L257.2 105.5L258.1 105.5L258.1 105.1L258.9 105.1L258.9 103.8L266.9 103.8L266.9 103.5L282.1 103.5L282.1 89.6L284.8 89.6L284.8 89.3L285.3 89.3L285.3 87.6L288.0 87.6L288.0 85.4L296.5 85.4L296.5 84.4L361.1 84.4L361.1 84.4L521.9 84.4L521.9 75.8L523.3 75.8L523.3 75.7L525.0 75.7L525.0 75.3L525.3 75.3L525.3 74.7L526.8 74.7L526.8 74.7L535.8 74.7L535.8 74.4L548.2 74.4L548.2 73.9L552.3 73.9L552.3 73.6L559.0 73.6L559.0 69.8L561.9 69.8L561.9 69.1L813.4 69.1L813.4 55.0L1032.0 55.0" fill="none" stroke="#6675b0" stroke-width="1.6" stroke-dasharray="5 3" opacity="0.75"/><path d="M182.4 155.9L190.3 155.9L190.3 141.8L191.4 141.8L191.4 131.7L192.4 131.7L192.4 130.9L192.8 130.9L192.8 129.5L217.5 129.5L217.5 129.5L221.2 129.5L221.2 128.9L224.8 128.9L224.8 128.4L227.2 128.4L227.2 128.2L238.4 128.2L238.4 128.0L250.0 128.0L250.0 112.8L255.5 112.8L255.5 111.6L257.2 111.6L257.2 105.5L258.1 105.5L258.1 105.1L258.9 105.1L258.9 103.8L266.9 103.8L266.9 103.5L282.1 103.5L282.1 89.6L284.8 89.6L284.8 89.3L285.3 89.3L285.3 87.6L288.0 87.6L288.0 85.4L296.5 85.4L296.5 84.4L361.1 84.4L361.1 84.4L521.9 84.4L521.9 75.8L523.3 75.8L523.3 75.7L525.0 75.7L525.0 75.3L525.3 75.3L525.3 74.7L526.8 74.7L526.8 74.7L535.8 74.7L535.8 74.4L548.2 74.4L548.2 73.9L552.3 73.9L552.3 73.6L559.1 73.6L559.1 73.5L617.5 73.5L617.5 73.4L673.2 73.4L673.2 73.4L710.2 73.4L710.2 71.4L1032.0 71.4" fill="none" stroke="#2b3a7a" stroke-width="2.6"/><path d="M469.8 246.9L476.3 253.4L469.8 259.9L463.3 253.4Z" fill="#c5961a" opacity="1.0" stroke="#ffffff" stroke-width="1.4"/><path d="M549.8 206.5L556.3 213.0L549.8 219.5L543.3 213.0Z" fill="#c5961a" opacity="1.0" stroke="#ffffff" stroke-width="1.4"/><path d="M559.1 67.0L565.6 73.5L559.1 80.0L552.6 73.5Z" fill="#c5961a" opacity="1.0" stroke="#ffffff" stroke-width="1.4"/><path d="M627.6 240.8L634.1 247.3L627.6 253.8L621.1 247.3Z" fill="#c5961a" opacity="1.0" stroke="#ffffff" stroke-width="1.4"/><path d="M628.1 238.0L634.6 244.5L628.1 251.0L621.6 244.5Z" fill="#c5961a" opacity="1.0" stroke="#ffffff" stroke-width="1.4"/><text x="1042" y="53.0" font-size="11.5" fill="#6675b0">– – raw best 535.9</text><text x="1042" y="67.0" font-size="10" fill="#8a8fa3">unverified (pending)</text><path d="M710.2 64.9L716.7 71.4L710.2 77.9L703.7 71.4Z" fill="#2b3a7a" opacity="1.0" stroke="#ffffff" stroke-width="1.4"/><text x="1042" y="99.4" font-size="12.5" fill="#2b3a7a" font-weight="bold">◆ verified 510.1</text><text x="1042" y="115.4" font-size="10.5" fill="#3a3f55">top verified</text><text x="60" y="24" font-size="13" font-weight="bold" fill="#3a3f55" letter-spacing="1.2">SCORE EVOLUTION — gemma-challenge (tok/s)</text><circle cx="452" cy="20" r="3" fill="#b9bdca"/><text x="460" y="24" font-size="10.5" fill="#8a8fa3">all results</text><path d="M544.0 16.4L547.6 20.0L544.0 23.6L540.4 20.0Z" fill="#2b3a7a" opacity="1.0" stroke="none" stroke-width="0"/><text x="552" y="24" font-size="10.5" fill="#8a8fa3">verified</text><path d="M620.0 15.5L624.5 20.0L620.0 24.5L615.5 20.0Z" fill="#c5961a" opacity="1.0" stroke="#fff" stroke-width="1"/><text x="629" y="24" font-size="10.5" fill="#8a8fa3">mikasa-inbound (us)</text></svg>