<svg viewBox="0 0 1200 440" xmlns="http://www.w3.org/2000/svg" font-family="ui-sans-serif,system-ui,-apple-system,sans-serif"><rect x="0" y="0" width="1200" height="440" fill="#ffffff"/><rect x="60" y="46" width="972" height="350" fill="#f3f4fb"/><line x1="60" y1="396.0" x2="1032" y2="396.0" stroke="#e3e5ef" stroke-width="1"/><text x="52" y="400.0" text-anchor="end" font-size="11" fill="#8a8fa3">0</text><line x1="60" y1="332.4" x2="1032" y2="332.4" stroke="#e3e5ef" stroke-width="1"/><text x="52" y="336.4" text-anchor="end" font-size="11" fill="#8a8fa3">100</text><line x1="60" y1="268.7" x2="1032" y2="268.7" stroke="#e3e5ef" stroke-width="1"/><text x="52" y="272.7" text-anchor="end" font-size="11" fill="#8a8fa3">200</text><line x1="60" y1="205.1" x2="1032" y2="205.1" stroke="#e3e5ef" stroke-width="1"/><text x="52" y="209.1" text-anchor="end" font-size="11" fill="#8a8fa3">300</text><line x1="60" y1="141.5" x2="1032" y2="141.5" stroke="#e3e5ef" stroke-width="1"/><text x="52" y="145.5" text-anchor="end" font-size="11" fill="#8a8fa3">400</text><line x1="60" y1="77.8" x2="1032" y2="77.8" stroke="#e3e5ef" stroke-width="1"/><text x="52" y="81.8" text-anchor="end" font-size="11" fill="#8a8fa3">500</text><line x1="133.7" y1="46" x2="133.7" y2="396" stroke="#e3e5ef" stroke-width="1"/><text x="133.7" y="414.0" text-anchor="middle" font-size="11" fill="#8a8fa3">Jun 10</text><line x1="238.8" y1="46" x2="238.8" y2="396" stroke="#e3e5ef" stroke-width="1"/><text x="238.8" y="414.0" text-anchor="middle" font-size="11" fill="#8a8fa3">Jun 12</text><line x1="343.9" y1="46" x2="343.9" y2="396" stroke="#e3e5ef" stroke-width="1"/><text x="343.9" y="414.0" text-anchor="middle" font-size="11" fill="#8a8fa3">Jun 14</text><line x1="449.1" y1="46" x2="449.1" y2="396" stroke="#e3e5ef" stroke-width="1"/><text x="449.1" y="414.0" text-anchor="middle" font-size="11" fill="#8a8fa3">Jun 16</text><line x1="554.2" y1="46" x2="554.2" y2="396" stroke="#e3e5ef" stroke-width="1"/><text x="554.2" y="414.0" text-anchor="middle" font-size="11" fill="#8a8fa3">Jun 18</text><line x1="659.3" y1="46" x2="659.3" y2="396" stroke="#e3e5ef" stroke-width="1"/><text x="659.3" y="414.0" text-anchor="middle" font-size="11" fill="#8a8fa3">Jun 20</text><line x1="764.4" y1="46" x2="764.4" y2="396" stroke="#e3e5ef" stroke-width="1"/><text x="764.4" y="414.0" text-anchor="middle" font-size="11" fill="#8a8fa3">Jun 22</text><line x1="869.6" y1="46" x2="869.6" y2="396" stroke="#e3e5ef" stroke-width="1"/><text x="869.6" y="414.0" text-anchor="middle" font-size="11" fill="#8a8fa3">Jun 24</text><line x1="974.7" y1="46" x2="974.7" y2="396" stroke="#e3e5ef" stroke-width="1"/><text x="974.7" y="414.0" text-anchor="middle" font-size="11" fill="#8a8fa3">Jun 26</text><circle cx="60.0" cy="335.3" r="2.3" fill="#b9bdca" opacity="0.5"/><circle cx="62.5" cy="335.1" r="2.3" fill="#b9bdca" opacity="0.5"/><circle cx="65.1" cy="368.0" r="2.3" fill="#b9bdca" opacity="0.5"/><circle cx="66.1" cy="320.7" r="2.3" fill="#b9bdca" opacity="0.5"/><circle cx="73.1" cy="319.9" r="2.3" fill="#b9bdca" opacity="0.5"/><circle cx="73.5" cy="320.6" r="2.3" fill="#b9bdca" opacity="0.5"/><circle cx="75.7" cy="315.3" r="2.3" fill="#b9bdca" opacity="0.5"/><circle cx="76.2" cy="319.7" r="2.3" fill="#b9bdca" opacity="0.5"/><circle cx="76.4" cy="314.9" r="2.3" fill="#b9bdca" opacity="0.5"/><circle cx="77.2" cy="315.5" r="2.3" fill="#b9bdca" opacity="0.5"/><circle cx="77.5" cy="314.9" r="2.3" fill="#b9bdca" opacity="0.5"/><circle cx="78.2" cy="315.4" r="2.3" fill="#b9bdca" opacity="0.5"/><circle cx="79.5" cy="315.0" r="2.3" fill="#b9bdca" opacity="0.5"/><circle cx="119.4" cy="238.7" r="2.3" fill="#b9bdca" opacity="0.5"/><circle cx="119.7" cy="315.0" r="2.3" fill="#b9bdca" opacity="0.5"/><circle cx="120.0" cy="229.0" r="2.3" fill="#b9bdca" opacity="0.5"/><circle cx="120.7" cy="222.3" r="2.3" fill="#b9bdca" opacity="0.5"/><circle cx="121.3" cy="228.0" r="2.3" fill="#b9bdca" opacity="0.5"/><circle cx="121.4" cy="223.3" r="2.3" fill="#b9bdca" opacity="0.5"/><circle cx="121.5" cy="220.6" r="2.3" fill="#b9bdca" opacity="0.5"/><circle cx="121.7" cy="220.5" r="2.3" fill="#b9bdca" opacity="0.5"/><circle cx="121.8" cy="223.2" r="2.3" fill="#b9bdca" opacity="0.5"/><circle cx="122.2" cy="214.2" r="2.3" fill="#b9bdca" opacity="0.5"/><circle cx="122.2" cy="222.1" r="2.3" fill="#b9bdca" opacity="0.5"/><circle cx="122.5" cy="220.7" r="2.3" fill="#b9bdca" opacity="0.5"/><circle cx="123.0" cy="218.5" r="2.3" fill="#b9bdca" opacity="0.5"/><circle cx="123.1" cy="215.2" r="2.3" fill="#b9bdca" opacity="0.5"/><circle cx="123.4" cy="214.3" r="2.3" fill="#b9bdca" opacity="0.5"/><circle cx="123.4" cy="219.2" r="2.3" fill="#b9bdca" opacity="0.5"/><circle cx="123.7" cy="214.1" r="2.3" fill="#b9bdca" opacity="0.5"/><circle cx="124.0" cy="215.2" r="2.3" fill="#b9bdca" opacity="0.5"/><circle cx="124.2" cy="213.7" r="2.3" fill="#b9bdca" opacity="0.5"/><circle cx="124.5" cy="213.5" r="2.3" fill="#b9bdca" opacity="0.5"/><circle cx="124.8" cy="214.8" r="2.3" fill="#b9bdca" opacity="0.5"/><circle cx="124.8" cy="217.7" r="2.3" fill="#b9bdca" opacity="0.5"/><circle cx="125.0" cy="212.7" r="2.3" fill="#b9bdca" opacity="0.5"/><circle cx="125.6" cy="213.3" r="2.3" fill="#b9bdca" opacity="0.5"/><circle cx="126.4" cy="212.7" r="2.3" fill="#b9bdca" opacity="0.5"/><circle cx="126.4" cy="213.6" r="2.3" fill="#b9bdca" opacity="0.5"/><circle cx="126.6" cy="213.0" r="2.3" fill="#b9bdca" opacity="0.5"/><circle cx="127.1" cy="212.1" r="2.3" fill="#b9bdca" opacity="0.5"/><circle cx="127.2" cy="213.3" r="2.3" fill="#b9bdca" opacity="0.5"/><circle cx="127.6" cy="212.0" r="2.3" fill="#b9bdca" opacity="0.5"/><circle cx="128.4" cy="212.1" r="2.3" fill="#b9bdca" opacity="0.5"/><circle cx="128.4" cy="212.8" r="2.3" fill="#b9bdca" opacity="0.5"/><circle cx="133.2" cy="206.7" r="2.3" fill="#b9bdca" opacity="0.5"/><circle cx="133.8" cy="206.8" r="2.3" fill="#b9bdca" opacity="0.5"/><circle cx="133.8" cy="212.5" r="2.3" fill="#b9bdca" opacity="0.5"/><circle cx="134.2" cy="207.2" r="2.3" fill="#b9bdca" opacity="0.5"/><circle cx="135.8" cy="207.0" r="2.3" fill="#b9bdca" opacity="0.5"/><circle cx="139.4" cy="204.9" r="2.3" fill="#b9bdca" opacity="0.5"/><circle cx="141.8" cy="204.6" r="2.3" fill="#b9bdca" opacity="0.5"/><circle cx="142.0" cy="212.3" r="2.3" fill="#b9bdca" opacity="0.5"/><circle cx="142.4" cy="204.6" r="2.3" fill="#b9bdca" opacity="0.5"/><circle cx="142.4" cy="204.6" r="2.3" fill="#b9bdca" opacity="0.5"/><circle cx="142.4" cy="204.9" r="2.3" fill="#b9bdca" opacity="0.5"/><circle cx="142.4" cy="204.9" r="2.3" fill="#b9bdca" opacity="0.5"/><circle cx="143.3" cy="201.9" r="2.3" fill="#b9bdca" opacity="0.5"/><circle cx="144.8" cy="206.5" r="2.3" fill="#b9bdca" opacity="0.5"/><circle cx="145.3" cy="205.8" r="2.3" fill="#b9bdca" opacity="0.5"/><circle cx="145.3" cy="335.1" r="2.3" fill="#b9bdca" opacity="0.5"/><circle cx="146.1" cy="201.8" r="2.3" fill="#b9bdca" opacity="0.5"/><circle cx="146.1" cy="202.2" r="2.3" fill="#b9bdca" opacity="0.5"/><circle cx="147.5" cy="201.0" r="2.3" fill="#b9bdca" opacity="0.5"/><circle cx="148.0" cy="203.1" r="2.3" fill="#b9bdca" opacity="0.5"/><circle cx="148.3" cy="200.0" r="2.3" fill="#b9bdca" opacity="0.5"/><circle cx="148.4" cy="204.6" r="2.3" fill="#b9bdca" opacity="0.5"/><circle cx="149.2" cy="202.3" r="2.3" fill="#b9bdca" opacity="0.5"/><circle cx="151.0" cy="200.4" r="2.3" fill="#b9bdca" opacity="0.5"/><circle cx="151.7" cy="200.7" r="2.3" fill="#b9bdca" opacity="0.5"/><circle cx="152.4" cy="200.0" r="2.3" fill="#b9bdca" opacity="0.5"/><circle cx="154.0" cy="199.7" r="2.3" fill="#b9bdca" opacity="0.5"/><circle cx="164.1" cy="200.6" r="2.3" fill="#b9bdca" opacity="0.5"/><circle cx="164.9" cy="201.8" r="2.3" fill="#b9bdca" opacity="0.5"/><circle cx="166.3" cy="208.4" r="2.3" fill="#b9bdca" opacity="0.5"/><circle cx="166.4" cy="200.8" r="2.3" fill="#b9bdca" opacity="0.5"/><circle cx="167.4" cy="200.7" r="2.3" fill="#b9bdca" opacity="0.5"/><circle cx="167.4" cy="201.9" r="2.3" fill="#b9bdca" opacity="0.5"/><circle cx="167.7" cy="195.5" r="2.3" fill="#b9bdca" opacity="0.5"/><circle cx="168.6" cy="196.9" r="2.3" fill="#b9bdca" opacity="0.5"/><circle cx="169.1" cy="197.9" r="2.3" fill="#b9bdca" opacity="0.5"/><circle cx="170.0" cy="196.1" r="2.3" fill="#b9bdca" opacity="0.5"/><circle cx="173.1" cy="197.3" r="2.3" fill="#b9bdca" opacity="0.5"/><circle cx="173.9" cy="195.9" r="2.3" fill="#b9bdca" opacity="0.5"/><circle cx="174.2" cy="201.0" r="2.3" fill="#b9bdca" opacity="0.5"/><circle cx="174.5" cy="197.5" r="2.3" fill="#b9bdca" opacity="0.5"/><circle cx="175.2" cy="196.9" r="2.3" fill="#b9bdca" opacity="0.5"/><circle cx="175.2" cy="197.1" r="2.3" fill="#b9bdca" opacity="0.5"/><circle cx="175.3" cy="197.0" r="2.3" fill="#b9bdca" opacity="0.5"/><circle cx="176.0" cy="196.0" r="2.3" fill="#b9bdca" opacity="0.5"/><circle cx="176.0" cy="196.0" r="2.3" fill="#b9bdca" opacity="0.5"/><circle cx="176.0" cy="197.9" r="2.3" fill="#b9bdca" opacity="0.5"/><circle cx="176.5" cy="197.8" r="2.3" fill="#b9bdca" opacity="0.5"/><circle cx="177.0" cy="196.2" r="2.3" fill="#b9bdca" opacity="0.5"/><circle cx="177.0" cy="197.5" r="2.3" fill="#b9bdca" opacity="0.5"/><circle cx="177.2" cy="196.9" r="2.3" fill="#b9bdca" opacity="0.5"/><circle cx="177.2" cy="195.5" r="2.3" fill="#b9bdca" opacity="0.5"/><circle cx="177.9" cy="198.1" r="2.3" fill="#b9bdca" opacity="0.5"/><circle cx="177.9" cy="187.4" r="2.3" fill="#b9bdca" opacity="0.5"/><circle cx="178.2" cy="186.2" r="2.3" fill="#b9bdca" opacity="0.5"/><circle cx="178.2" cy="196.3" r="2.3" fill="#b9bdca" opacity="0.5"/><circle cx="178.2" cy="197.2" r="2.3" fill="#b9bdca" opacity="0.5"/><circle cx="178.2" cy="197.8" r="2.3" fill="#b9bdca" opacity="0.5"/><circle cx="178.2" cy="368.0" r="2.3" fill="#b9bdca" opacity="0.5"/><circle cx="178.9" cy="184.5" r="2.3" fill="#b9bdca" opacity="0.5"/><circle cx="181.6" cy="184.6" r="2.3" fill="#b9bdca" opacity="0.5"/><circle cx="182.8" cy="185.6" r="2.3" fill="#b9bdca" opacity="0.5"/><circle cx="186.7" cy="188.7" r="2.3" fill="#b9bdca" opacity="0.5"/><circle cx="192.1" cy="185.4" r="2.3" fill="#b9bdca" opacity="0.5"/><circle cx="193.2" cy="185.2" r="2.3" fill="#b9bdca" opacity="0.5"/><circle cx="193.6" cy="186.6" r="2.3" fill="#b9bdca" opacity="0.5"/><circle cx="193.8" cy="185.3" r="2.3" fill="#b9bdca" opacity="0.5"/><circle cx="194.7" cy="185.3" r="2.3" fill="#b9bdca" opacity="0.5"/><circle cx="195.1" cy="185.0" r="2.3" fill="#b9bdca" opacity="0.5"/><circle cx="196.0" cy="184.9" r="2.3" fill="#b9bdca" opacity="0.5"/><circle cx="196.7" cy="185.1" r="2.3" fill="#b9bdca" opacity="0.5"/><circle cx="196.7" cy="185.2" r="2.3" fill="#b9bdca" opacity="0.5"/><circle cx="196.7" cy="186.4" r="2.3" fill="#b9bdca" opacity="0.5"/><circle cx="196.8" cy="183.9" r="2.3" fill="#b9bdca" opacity="0.5"/><circle cx="201.7" cy="184.4" r="2.3" fill="#b9bdca" opacity="0.5"/><circle cx="202.5" cy="184.2" r="2.3" fill="#b9bdca" opacity="0.5"/><circle cx="205.6" cy="169.3" r="2.3" fill="#b9bdca" opacity="0.5"/><circle cx="208.6" cy="168.8" r="2.3" fill="#b9bdca" opacity="0.5"/><circle cx="208.8" cy="167.7" r="2.3" fill="#b9bdca" opacity="0.5"/><circle cx="210.1" cy="201.4" r="2.3" fill="#b9bdca" opacity="0.5"/><circle cx="210.5" cy="165.0" r="2.3" fill="#b9bdca" opacity="0.5"/><circle cx="210.7" cy="198.2" r="2.3" fill="#b9bdca" opacity="0.5"/><circle cx="211.1" cy="163.7" r="2.3" fill="#b9bdca" opacity="0.5"/><circle cx="211.3" cy="163.6" r="2.3" fill="#b9bdca" opacity="0.5"/><circle cx="211.8" cy="165.9" r="2.3" fill="#b9bdca" opacity="0.5"/><circle cx="214.5" cy="165.1" r="2.3" fill="#b9bdca" opacity="0.5"/><circle cx="215.1" cy="155.9" r="2.3" fill="#b9bdca" opacity="0.5"/><circle cx="217.7" cy="196.5" r="2.3" fill="#b9bdca" opacity="0.5"/><circle cx="218.7" cy="157.4" r="2.3" fill="#b9bdca" opacity="0.5"/><circle cx="219.7" cy="155.8" r="2.3" fill="#b9bdca" opacity="0.5"/><circle cx="221.4" cy="141.9" r="2.3" fill="#b9bdca" opacity="0.5"/><circle cx="224.9" cy="156.1" r="2.3" fill="#b9bdca" opacity="0.5"/><circle cx="224.9" cy="156.4" r="2.3" fill="#b9bdca" opacity="0.5"/><circle cx="225.1" cy="141.8" r="2.3" fill="#b9bdca" opacity="0.5"/><circle cx="225.2" cy="196.0" r="2.3" fill="#b9bdca" opacity="0.5"/><circle cx="226.4" cy="131.7" r="2.3" fill="#b9bdca" opacity="0.5"/><circle cx="226.6" cy="134.1" r="2.3" fill="#b9bdca" opacity="0.5"/><circle cx="227.0" cy="141.1" r="2.3" fill="#b9bdca" opacity="0.5"/><circle cx="227.6" cy="134.0" r="2.3" fill="#b9bdca" opacity="0.5"/><circle cx="227.7" cy="130.9" r="2.3" fill="#b9bdca" opacity="0.5"/><circle cx="227.7" cy="154.2" r="2.3" fill="#b9bdca" opacity="0.5"/><circle cx="227.9" cy="133.6" r="2.3" fill="#b9bdca" opacity="0.5"/><circle cx="228.2" cy="129.5" r="2.3" fill="#b9bdca" opacity="0.5"/><circle cx="228.2" cy="130.9" r="2.3" fill="#b9bdca" opacity="0.5"/><circle cx="228.2" cy="133.4" r="2.3" fill="#b9bdca" opacity="0.5"/><circle cx="228.5" cy="131.2" r="2.3" fill="#b9bdca" opacity="0.5"/><circle cx="230.7" cy="189.8" r="2.3" fill="#b9bdca" opacity="0.5"/><circle cx="230.8" cy="133.2" r="2.3" fill="#b9bdca" opacity="0.5"/><circle cx="231.1" cy="133.5" r="2.3" fill="#b9bdca" opacity="0.5"/><circle cx="231.9" cy="130.1" r="2.3" fill="#b9bdca" opacity="0.5"/><circle cx="234.1" cy="130.3" r="2.3" fill="#b9bdca" opacity="0.5"/><circle cx="235.1" cy="303.1" r="2.3" fill="#b9bdca" opacity="0.5"/><circle cx="236.8" cy="133.2" r="2.3" fill="#b9bdca" opacity="0.5"/><circle cx="239.1" cy="144.2" r="2.3" fill="#b9bdca" opacity="0.5"/><circle cx="239.7" cy="135.3" r="2.3" fill="#b9bdca" opacity="0.5"/><circle cx="241.2" cy="133.4" r="2.3" fill="#b9bdca" opacity="0.5"/><circle cx="241.3" cy="159.9" r="2.3" fill="#b9bdca" opacity="0.5"/><circle cx="241.7" cy="130.8" r="2.3" fill="#b9bdca" opacity="0.5"/><circle cx="242.2" cy="133.2" r="2.3" fill="#b9bdca" opacity="0.5"/><circle cx="247.5" cy="130.9" r="2.3" fill="#b9bdca" opacity="0.5"/><circle cx="248.2" cy="130.9" r="2.3" fill="#b9bdca" opacity="0.5"/><circle cx="248.2" cy="133.8" r="2.3" fill="#b9bdca" opacity="0.5"/><circle cx="249.0" cy="130.4" r="2.3" fill="#b9bdca" opacity="0.5"/><circle cx="249.6" cy="153.7" r="2.3" fill="#b9bdca" opacity="0.5"/><circle cx="250.6" cy="133.3" r="2.3" fill="#b9bdca" opacity="0.5"/><circle cx="252.3" cy="156.5" r="2.3" fill="#b9bdca" opacity="0.5"/><circle cx="252.6" cy="132.3" r="2.3" fill="#b9bdca" opacity="0.5"/><circle cx="254.5" cy="147.2" r="2.3" fill="#b9bdca" opacity="0.5"/><circle cx="254.9" cy="133.6" r="2.3" fill="#b9bdca" opacity="0.5"/><circle cx="255.6" cy="129.5" r="2.3" fill="#b9bdca" opacity="0.5"/><circle cx="255.6" cy="133.3" r="2.3" fill="#b9bdca" opacity="0.5"/><circle cx="257.9" cy="133.3" r="2.3" fill="#b9bdca" opacity="0.5"/><circle cx="259.5" cy="129.5" r="2.3" fill="#b9bdca" opacity="0.5"/><circle cx="262.2" cy="130.6" r="2.3" fill="#b9bdca" opacity="0.5"/><circle cx="264.2" cy="128.9" r="2.3" fill="#b9bdca" opacity="0.5"/><circle cx="264.6" cy="132.7" r="2.3" fill="#b9bdca" opacity="0.5"/><circle cx="264.6" cy="133.1" r="2.3" fill="#b9bdca" opacity="0.5"/><circle cx="267.7" cy="129.8" r="2.3" fill="#b9bdca" opacity="0.5"/><circle cx="268.5" cy="333.8" r="2.3" fill="#b9bdca" opacity="0.5"/><circle cx="268.7" cy="128.4" r="2.3" fill="#b9bdca" opacity="0.5"/><circle cx="270.1" cy="129.8" r="2.3" fill="#b9bdca" opacity="0.5"/><circle cx="270.7" cy="128.9" r="2.3" fill="#b9bdca" opacity="0.5"/><circle cx="270.8" cy="128.9" r="2.3" fill="#b9bdca" opacity="0.5"/><circle cx="271.8" cy="128.2" r="2.3" fill="#b9bdca" opacity="0.5"/><circle cx="272.6" cy="129.7" r="2.3" fill="#b9bdca" opacity="0.5"/><circle cx="272.8" cy="142.3" r="2.3" fill="#b9bdca" opacity="0.5"/><circle cx="275.7" cy="128.8" r="2.3" fill="#b9bdca" opacity="0.5"/><circle cx="277.4" cy="161.1" r="2.3" fill="#b9bdca" opacity="0.5"/><circle cx="280.6" cy="164.4" r="2.3" fill="#b9bdca" opacity="0.5"/><circle cx="280.9" cy="248.3" r="2.3" fill="#b9bdca" opacity="0.5"/><circle cx="285.5" cy="135.4" r="2.3" fill="#b9bdca" opacity="0.5"/><circle cx="285.9" cy="128.0" r="2.3" fill="#b9bdca" opacity="0.5"/><circle cx="287.4" cy="229.0" r="2.3" fill="#b9bdca" opacity="0.5"/><circle cx="290.6" cy="128.1" r="2.3" fill="#b9bdca" opacity="0.5"/><circle cx="291.4" cy="128.6" r="2.3" fill="#b9bdca" opacity="0.5"/><circle cx="294.4" cy="128.8" r="2.3" fill="#b9bdca" opacity="0.5"/><circle cx="294.4" cy="129.6" r="2.3" fill="#b9bdca" opacity="0.5"/><circle cx="294.4" cy="130.9" r="2.3" fill="#b9bdca" opacity="0.5"/><circle cx="300.7" cy="112.8" r="2.3" fill="#b9bdca" opacity="0.5"/><circle cx="304.0" cy="110.2" r="2.3" fill="#b9bdca" opacity="0.5"/><circle cx="304.1" cy="111.6" r="2.3" fill="#b9bdca" opacity="0.5"/><circle cx="306.2" cy="111.0" r="2.3" fill="#b9bdca" opacity="0.5"/><circle cx="307.2" cy="335.1" r="2.3" fill="#b9bdca" opacity="0.5"/><circle cx="307.7" cy="111.6" r="2.3" fill="#b9bdca" opacity="0.5"/><circle cx="309.8" cy="105.5" r="2.3" fill="#b9bdca" opacity="0.5"/><circle cx="310.1" cy="108.5" r="2.3" fill="#b9bdca" opacity="0.5"/><circle cx="311.0" cy="105.1" r="2.3" fill="#b9bdca" opacity="0.5"/><circle cx="311.9" cy="103.8" r="2.3" fill="#b9bdca" opacity="0.5"/><circle cx="313.0" cy="125.8" r="2.3" fill="#b9bdca" opacity="0.5"/><circle cx="322.1" cy="103.5" r="2.3" fill="#b9bdca" opacity="0.5"/><circle cx="324.5" cy="127.8" r="2.3" fill="#b9bdca" opacity="0.5"/><circle cx="325.5" cy="334.3" r="2.3" fill="#b9bdca" opacity="0.5"/><circle cx="326.9" cy="128.6" r="2.3" fill="#b9bdca" opacity="0.5"/><circle cx="327.6" cy="128.6" r="2.3" fill="#b9bdca" opacity="0.5"/><circle cx="327.7" cy="128.6" r="2.3" fill="#b9bdca" opacity="0.5"/><circle cx="328.5" cy="256.6" r="2.3" fill="#b9bdca" opacity="0.5"/><circle cx="329.6" cy="254.6" r="2.3" fill="#b9bdca" opacity="0.5"/><circle cx="331.2" cy="128.6" r="2.3" fill="#b9bdca" opacity="0.5"/><circle cx="335.4" cy="250.1" r="2.3" fill="#b9bdca" opacity="0.5"/><circle cx="335.8" cy="161.4" r="2.3" fill="#b9bdca" opacity="0.5"/><circle cx="336.2" cy="206.6" r="2.3" fill="#b9bdca" opacity="0.5"/><circle cx="340.1" cy="113.5" r="2.3" fill="#b9bdca" opacity="0.5"/><circle cx="341.4" cy="89.6" r="2.3" fill="#b9bdca" opacity="0.5"/><circle cx="342.3" cy="90.2" r="2.3" fill="#b9bdca" opacity="0.5"/><circle cx="344.7" cy="89.3" r="2.3" fill="#b9bdca" opacity="0.5"/><circle cx="345.4" cy="87.6" r="2.3" fill="#b9bdca" opacity="0.5"/><circle cx="346.2" cy="185.0" r="2.3" fill="#b9bdca" opacity="0.5"/><circle cx="347.0" cy="131.6" r="2.3" fill="#b9bdca" opacity="0.5"/><circle cx="347.7" cy="87.8" r="2.3" fill="#b9bdca" opacity="0.5"/><circle cx="348.8" cy="85.4" r="2.3" fill="#b9bdca" opacity="0.5"/><circle cx="350.5" cy="86.8" r="2.3" fill="#b9bdca" opacity="0.5"/><circle cx="352.3" cy="88.4" r="2.3" fill="#b9bdca" opacity="0.5"/><circle cx="359.5" cy="89.5" r="2.3" fill="#b9bdca" opacity="0.5"/><circle cx="359.5" cy="155.6" r="2.3" fill="#b9bdca" opacity="0.5"/><circle cx="359.6" cy="84.4" r="2.3" fill="#b9bdca" opacity="0.5"/><circle cx="368.1" cy="89.2" r="2.3" fill="#b9bdca" opacity="0.5"/><circle cx="368.3" cy="90.5" r="2.3" fill="#b9bdca" opacity="0.5"/><circle cx="370.7" cy="87.7" r="2.3" fill="#b9bdca" opacity="0.5"/><circle cx="371.5" cy="367.9" r="2.3" fill="#b9bdca" opacity="0.5"/><circle cx="375.0" cy="164.3" r="2.3" fill="#b9bdca" opacity="0.5"/><circle cx="376.8" cy="94.6" r="2.3" fill="#b9bdca" opacity="0.5"/><circle cx="377.5" cy="89.6" r="2.3" fill="#b9bdca" opacity="0.5"/><circle cx="384.9" cy="124.6" r="2.3" fill="#b9bdca" opacity="0.5"/><circle cx="392.8" cy="146.2" r="2.3" fill="#b9bdca" opacity="0.5"/><circle cx="393.0" cy="90.5" r="2.3" fill="#b9bdca" opacity="0.5"/><circle cx="393.7" cy="87.7" r="2.3" fill="#b9bdca" opacity="0.5"/><circle cx="394.1" cy="87.7" r="2.3" fill="#b9bdca" opacity="0.5"/><circle cx="394.2" cy="89.6" r="2.3" fill="#b9bdca" opacity="0.5"/><circle cx="399.8" cy="93.0" r="2.3" fill="#b9bdca" opacity="0.5"/><circle cx="401.8" cy="85.5" r="2.3" fill="#b9bdca" opacity="0.5"/><circle cx="418.4" cy="334.8" r="2.3" fill="#b9bdca" opacity="0.5"/><circle cx="420.3" cy="86.3" r="2.3" fill="#b9bdca" opacity="0.5"/><circle cx="426.0" cy="85.5" r="2.3" fill="#b9bdca" opacity="0.5"/><circle cx="427.0" cy="84.6" r="2.3" fill="#b9bdca" opacity="0.5"/><circle cx="429.3" cy="87.8" r="2.3" fill="#b9bdca" opacity="0.5"/><circle cx="430.2" cy="84.4" r="2.3" fill="#b9bdca" opacity="0.5"/><circle cx="430.8" cy="84.8" r="2.3" fill="#b9bdca" opacity="0.5"/><circle cx="432.4" cy="87.4" r="2.3" fill="#b9bdca" opacity="0.5"/><circle cx="441.4" cy="84.4" r="2.3" fill="#b9bdca" opacity="0.5"/><circle cx="480.6" cy="89.3" r="2.3" fill="#b9bdca" opacity="0.5"/><circle cx="487.7" cy="88.6" r="2.3" fill="#b9bdca" opacity="0.5"/><circle cx="487.7" cy="92.1" r="2.3" fill="#b9bdca" opacity="0.5"/><circle cx="489.2" cy="156.8" r="2.3" fill="#b9bdca" opacity="0.5"/><circle cx="511.9" cy="201.6" r="2.3" fill="#b9bdca" opacity="0.5"/><circle cx="528.4" cy="315.6" r="2.3" fill="#b9bdca" opacity="0.5"/><circle cx="573.6" cy="87.7" r="2.3" fill="#b9bdca" opacity="0.5"/><circle cx="587.3" cy="87.6" r="2.3" fill="#b9bdca" opacity="0.5"/><circle cx="599.4" cy="87.2" r="2.3" fill="#b9bdca" opacity="0.5"/><circle cx="602.2" cy="88.8" r="2.3" fill="#b9bdca" opacity="0.5"/><circle cx="603.3" cy="89.2" r="2.3" fill="#b9bdca" opacity="0.5"/><circle cx="603.9" cy="90.9" r="2.3" fill="#b9bdca" opacity="0.5"/><circle cx="607.3" cy="87.7" r="2.3" fill="#b9bdca" opacity="0.5"/><circle cx="619.6" cy="88.6" r="2.3" fill="#b9bdca" opacity="0.5"/><circle cx="621.1" cy="89.7" r="2.3" fill="#b9bdca" opacity="0.5"/><circle cx="622.2" cy="88.2" r="2.3" fill="#b9bdca" opacity="0.5"/><circle cx="645.1" cy="75.8" r="2.3" fill="#b9bdca" opacity="0.5"/><circle cx="646.9" cy="75.7" r="2.3" fill="#b9bdca" opacity="0.5"/><circle cx="648.2" cy="76.7" r="2.3" fill="#b9bdca" opacity="0.5"/><circle cx="648.3" cy="75.8" r="2.3" fill="#b9bdca" opacity="0.5"/><circle cx="649.0" cy="75.3" r="2.3" fill="#b9bdca" opacity="0.5"/><circle cx="649.4" cy="74.7" r="2.3" fill="#b9bdca" opacity="0.5"/><circle cx="649.6" cy="83.4" r="2.3" fill="#b9bdca" opacity="0.5"/><circle cx="650.2" cy="76.2" r="2.3" fill="#b9bdca" opacity="0.5"/><circle cx="650.7" cy="78.1" r="2.3" fill="#b9bdca" opacity="0.5"/><circle cx="651.3" cy="74.7" r="2.3" fill="#b9bdca" opacity="0.5"/><circle cx="655.0" cy="89.3" r="2.3" fill="#b9bdca" opacity="0.5"/><circle cx="662.7" cy="74.4" r="2.3" fill="#b9bdca" opacity="0.5"/><circle cx="674.9" cy="74.4" r="2.3" fill="#b9bdca" opacity="0.5"/><circle cx="676.8" cy="335.1" r="2.3" fill="#b9bdca" opacity="0.5"/><circle cx="676.9" cy="81.7" r="2.3" fill="#b9bdca" opacity="0.5"/><circle cx="678.3" cy="74.6" r="2.3" fill="#b9bdca" opacity="0.5"/><circle cx="678.3" cy="82.1" r="2.3" fill="#b9bdca" opacity="0.5"/><circle cx="678.4" cy="73.9" r="2.3" fill="#b9bdca" opacity="0.5"/><circle cx="681.8" cy="76.2" r="2.3" fill="#b9bdca" opacity="0.5"/><circle cx="682.4" cy="82.1" r="2.3" fill="#b9bdca" opacity="0.5"/><circle cx="682.9" cy="74.2" r="2.3" fill="#b9bdca" opacity="0.5"/><circle cx="682.9" cy="75.0" r="2.3" fill="#b9bdca" opacity="0.5"/><circle cx="683.7" cy="73.6" r="2.3" fill="#b9bdca" opacity="0.5"/><circle cx="683.7" cy="83.3" r="2.3" fill="#b9bdca" opacity="0.5"/><circle cx="683.7" cy="83.8" r="2.3" fill="#b9bdca" opacity="0.5"/><circle cx="683.7" cy="78.1" r="2.3" fill="#b9bdca" opacity="0.5"/><circle cx="683.7" cy="81.5" r="2.3" fill="#b9bdca" opacity="0.5"/><circle cx="683.7" cy="83.0" r="2.3" fill="#b9bdca" opacity="0.5"/><circle cx="683.7" cy="83.7" r="2.3" fill="#b9bdca" opacity="0.5"/><circle cx="688.6" cy="82.7" r="2.3" fill="#b9bdca" opacity="0.5"/><circle cx="689.6" cy="77.8" r="2.3" fill="#b9bdca" opacity="0.5"/><circle cx="692.1" cy="69.8" r="2.3" fill="#b9bdca" opacity="0.5"/><circle cx="693.0" cy="75.9" r="2.3" fill="#b9bdca" opacity="0.5"/><circle cx="693.3" cy="74.3" r="2.3" fill="#b9bdca" opacity="0.5"/><circle cx="693.3" cy="77.4" r="2.3" fill="#b9bdca" opacity="0.5"/><circle cx="693.3" cy="80.6" r="2.3" fill="#b9bdca" opacity="0.5"/><circle cx="693.3" cy="81.8" r="2.3" fill="#b9bdca" opacity="0.5"/><circle cx="695.1" cy="76.9" r="2.3" fill="#b9bdca" opacity="0.5"/><circle cx="695.1" cy="82.8" r="2.3" fill="#b9bdca" opacity="0.5"/><circle cx="695.1" cy="83.0" r="2.3" fill="#b9bdca" opacity="0.5"/><circle cx="695.1" cy="83.1" r="2.3" fill="#b9bdca" opacity="0.5"/><circle cx="695.8" cy="69.1" r="2.3" fill="#b9bdca" opacity="0.5"/><circle cx="697.8" cy="75.5" r="2.3" fill="#b9bdca" opacity="0.5"/><circle cx="698.9" cy="74.3" r="2.3" fill="#b9bdca" opacity="0.5"/><circle cx="729.7" cy="74.0" r="2.3" fill="#b9bdca" opacity="0.5"/><circle cx="766.3" cy="73.4" r="2.3" fill="#b9bdca" opacity="0.5"/><circle cx="766.6" cy="75.9" r="2.3" fill="#b9bdca" opacity="0.5"/><circle cx="766.6" cy="76.3" r="2.3" fill="#b9bdca" opacity="0.5"/><circle cx="766.9" cy="76.0" r="2.3" fill="#b9bdca" opacity="0.5"/><circle cx="766.9" cy="76.8" r="2.3" fill="#b9bdca" opacity="0.5"/><circle cx="766.9" cy="81.2" r="2.3" fill="#b9bdca" opacity="0.5"/><circle cx="766.9" cy="83.4" r="2.3" fill="#b9bdca" opacity="0.5"/><circle cx="792.7" cy="76.6" r="2.3" fill="#b9bdca" opacity="0.5"/><circle cx="794.5" cy="76.7" r="2.3" fill="#b9bdca" opacity="0.5"/><circle cx="794.5" cy="82.8" r="2.3" fill="#b9bdca" opacity="0.5"/><circle cx="794.5" cy="82.8" r="2.3" fill="#b9bdca" opacity="0.5"/><circle cx="794.5" cy="83.3" r="2.3" fill="#b9bdca" opacity="0.5"/><circle cx="799.9" cy="233.4" r="2.3" fill="#b9bdca" opacity="0.5"/><circle cx="801.5" cy="228.9" r="2.3" fill="#b9bdca" opacity="0.5"/><circle cx="803.1" cy="198.3" r="2.3" fill="#b9bdca" opacity="0.5"/><circle cx="836.7" cy="73.4" r="2.3" fill="#b9bdca" opacity="0.5"/><circle cx="846.1" cy="192.4" r="2.3" fill="#b9bdca" opacity="0.5"/><circle cx="849.5" cy="75.3" r="2.3" fill="#b9bdca" opacity="0.5"/><circle cx="850.3" cy="74.0" r="2.3" fill="#b9bdca" opacity="0.5"/><circle cx="852.4" cy="194.4" r="2.3" fill="#b9bdca" opacity="0.5"/><circle cx="855.7" cy="168.6" r="2.3" fill="#b9bdca" opacity="0.5"/><circle cx="857.7" cy="77.1" r="2.3" fill="#b9bdca" opacity="0.5"/><circle cx="857.7" cy="99.5" r="2.3" fill="#b9bdca" opacity="0.5"/><circle cx="883.7" cy="71.4" r="2.3" fill="#b9bdca" opacity="0.5"/><circle cx="883.7" cy="73.5" r="2.3" fill="#b9bdca" opacity="0.5"/><circle cx="892.9" cy="72.4" r="2.3" fill="#b9bdca" opacity="0.5"/><circle cx="930.8" cy="83.0" r="2.3" fill="#b9bdca" opacity="0.5"/><circle cx="931.3" cy="72.1" r="2.3" fill="#b9bdca" opacity="0.5"/><circle cx="931.8" cy="71.6" r="2.3" fill="#b9bdca" opacity="0.5"/><circle cx="933.0" cy="75.5" r="2.3" fill="#b9bdca" opacity="0.5"/><circle cx="933.7" cy="73.7" r="2.3" fill="#b9bdca" opacity="0.5"/><circle cx="935.2" cy="72.9" r="2.3" fill="#b9bdca" opacity="0.5"/><circle cx="935.9" cy="73.4" r="2.3" fill="#b9bdca" opacity="0.5"/><circle cx="1010.0" cy="85.2" r="2.3" fill="#b9bdca" opacity="0.5"/><circle cx="1010.0" cy="256.6" r="2.3" fill="#b9bdca" opacity="0.5"/><circle cx="1010.0" cy="335.3" r="2.3" fill="#b9bdca" opacity="0.5"/><circle cx="1010.5" cy="86.8" r="2.3" fill="#b9bdca" opacity="0.5"/><circle cx="1011.1" cy="71.5" r="2.3" fill="#b9bdca" opacity="0.5"/><circle cx="1013.1" cy="71.0" r="2.3" fill="#b9bdca" opacity="0.5"/><circle cx="1014.2" cy="71.5" r="2.3" fill="#b9bdca" opacity="0.5"/><circle cx="1014.4" cy="55.0" r="2.3" fill="#b9bdca" opacity="0.5"/><circle cx="1024.7" cy="83.1" r="2.3" fill="#b9bdca" opacity="0.5"/><circle cx="1027.3" cy="74.7" r="2.3" fill="#b9bdca" opacity="0.5"/><circle cx="1027.4" cy="59.3" r="2.3" fill="#b9bdca" opacity="0.5"/><circle cx="1027.4" cy="79.9" r="2.3" fill="#b9bdca" opacity="0.5"/><circle cx="1027.7" cy="74.1" r="2.3" fill="#b9bdca" opacity="0.5"/><circle cx="1028.2" cy="72.7" r="2.3" fill="#b9bdca" opacity="0.5"/><circle cx="1028.2" cy="73.8" r="2.3" fill="#b9bdca" opacity="0.5"/><circle cx="1028.2" cy="75.9" r="2.3" fill="#b9bdca" opacity="0.5"/><circle cx="1028.8" cy="74.1" r="2.3" fill="#b9bdca" opacity="0.5"/><circle cx="1029.3" cy="73.5" r="2.3" fill="#b9bdca" opacity="0.5"/><circle cx="1029.9" cy="74.2" r="2.3" fill="#b9bdca" opacity="0.5"/><circle cx="1030.5" cy="71.5" r="2.3" fill="#b9bdca" opacity="0.5"/><circle cx="1032.0" cy="74.3" r="2.3" fill="#b9bdca" opacity="0.5"/><path d="M215.1 152.3L218.7 155.9L215.1 159.5L211.5 155.9Z" fill="#2b3a7a" opacity="0.8" stroke="none" stroke-width="0"/><path d="M225.1 138.2L228.7 141.8L225.1 145.4L221.5 141.8Z" fill="#2b3a7a" opacity="0.8" stroke="none" stroke-width="0"/><path d="M226.4 128.1L230.0 131.7L226.4 135.3L222.8 131.7Z" fill="#2b3a7a" opacity="0.8" stroke="none" stroke-width="0"/><path d="M226.6 130.5L230.2 134.1L226.6 137.7L223.0 134.1Z" fill="#2b3a7a" opacity="0.8" stroke="none" stroke-width="0"/><path d="M227.7 127.3L231.3 130.9L227.7 134.5L224.1 130.9Z" fill="#2b3a7a" opacity="0.8" stroke="none" stroke-width="0"/><path d="M228.2 125.9L231.8 129.5L228.2 133.1L224.6 129.5Z" fill="#2b3a7a" opacity="0.8" stroke="none" stroke-width="0"/><path d="M228.2 127.3L231.8 130.9L228.2 134.5L224.6 130.9Z" fill="#2b3a7a" opacity="0.8" stroke="none" stroke-width="0"/><path d="M259.5 125.9L263.1 129.5L259.5 133.1L255.9 129.5Z" fill="#2b3a7a" opacity="0.8" stroke="none" stroke-width="0"/><path d="M264.2 125.3L267.8 128.9L264.2 132.5L260.6 128.9Z" fill="#2b3a7a" opacity="0.8" stroke="none" stroke-width="0"/><path d="M268.7 124.8L272.3 128.4L268.7 132.0L265.1 128.4Z" fill="#2b3a7a" opacity="0.8" stroke="none" stroke-width="0"/><path d="M271.8 124.6L275.4 128.2L271.8 131.8L268.2 128.2Z" fill="#2b3a7a" opacity="0.8" stroke="none" stroke-width="0"/><path d="M285.9 124.4L289.5 128.0L285.9 131.6L282.3 128.0Z" fill="#2b3a7a" opacity="0.8" stroke="none" stroke-width="0"/><path d="M300.7 109.2L304.3 112.8L300.7 116.4L297.1 112.8Z" fill="#2b3a7a" opacity="0.8" stroke="none" stroke-width="0"/><path d="M307.7 108.0L311.3 111.6L307.7 115.2L304.1 111.6Z" fill="#2b3a7a" opacity="0.8" stroke="none" stroke-width="0"/><path d="M309.8 101.9L313.4 105.5L309.8 109.1L306.2 105.5Z" fill="#2b3a7a" opacity="0.8" stroke="none" stroke-width="0"/><path d="M310.1 104.9L313.7 108.5L310.1 112.1L306.5 108.5Z" fill="#2b3a7a" opacity="0.8" stroke="none" stroke-width="0"/><path d="M311.0 101.5L314.6 105.1L311.0 108.7L307.4 105.1Z" fill="#2b3a7a" opacity="0.8" stroke="none" stroke-width="0"/><path d="M311.9 100.2L315.5 103.8L311.9 107.4L308.3 103.8Z" fill="#2b3a7a" opacity="0.8" stroke="none" stroke-width="0"/><path d="M322.1 99.9L325.7 103.5L322.1 107.1L318.5 103.5Z" fill="#2b3a7a" opacity="0.8" stroke="none" stroke-width="0"/><path d="M341.4 86.0L345.0 89.6L341.4 93.2L337.8 89.6Z" fill="#2b3a7a" opacity="0.8" stroke="none" stroke-width="0"/><path d="M344.7 85.7L348.3 89.3L344.7 92.9L341.1 89.3Z" fill="#2b3a7a" opacity="0.8" stroke="none" stroke-width="0"/><path d="M345.4 84.0L349.0 87.6L345.4 91.2L341.8 87.6Z" fill="#2b3a7a" opacity="0.8" stroke="none" stroke-width="0"/><path d="M348.8 81.8L352.4 85.4L348.8 89.0L345.2 85.4Z" fill="#2b3a7a" opacity="0.8" stroke="none" stroke-width="0"/><path d="M359.6 80.8L363.2 84.4L359.6 88.0L356.0 84.4Z" fill="#2b3a7a" opacity="0.8" stroke="none" stroke-width="0"/><path d="M441.4 80.8L445.0 84.4L441.4 88.0L437.8 84.4Z" fill="#2b3a7a" opacity="0.8" stroke="none" stroke-width="0"/><path d="M645.1 72.2L648.7 75.8L645.1 79.4L641.5 75.8Z" fill="#2b3a7a" opacity="0.8" stroke="none" stroke-width="0"/><path d="M646.9 72.1L650.5 75.7L646.9 79.3L643.3 75.7Z" fill="#2b3a7a" opacity="0.8" stroke="none" stroke-width="0"/><path d="M649.0 71.7L652.6 75.3L649.0 78.9L645.4 75.3Z" fill="#2b3a7a" opacity="0.8" stroke="none" stroke-width="0"/><path d="M649.4 71.1L653.0 74.7L649.4 78.3L645.8 74.7Z" fill="#2b3a7a" opacity="0.8" stroke="none" stroke-width="0"/><path d="M651.3 71.1L654.9 74.7L651.3 78.3L647.7 74.7Z" fill="#2b3a7a" opacity="0.8" stroke="none" stroke-width="0"/><path d="M662.7 70.8L666.3 74.4L662.7 78.0L659.1 74.4Z" fill="#2b3a7a" opacity="0.8" stroke="none" stroke-width="0"/><path d="M678.4 70.3L682.0 73.9L678.4 77.5L674.8 73.9Z" fill="#2b3a7a" opacity="0.8" stroke="none" stroke-width="0"/><path d="M683.7 70.0L687.3 73.6L683.7 77.2L680.1 73.6Z" fill="#2b3a7a" opacity="0.8" stroke="none" stroke-width="0"/><path d="M766.3 69.8L769.9 73.4L766.3 77.0L762.7 73.4Z" fill="#2b3a7a" opacity="0.8" stroke="none" stroke-width="0"/><path d="M836.7 69.8L840.3 73.4L836.7 77.0L833.1 73.4Z" fill="#2b3a7a" opacity="0.8" stroke="none" stroke-width="0"/><path d="M883.7 67.8L887.3 71.4L883.7 75.0L880.1 71.4Z" fill="#2b3a7a" opacity="0.8" stroke="none" stroke-width="0"/><path d="M60.0 335.3L62.5 335.3L62.5 335.1L66.1 335.1L66.1 320.7L73.1 320.7L73.1 319.9L75.7 319.9L75.7 315.3L76.4 315.3L76.4 314.9L77.5 314.9L77.5 314.9L119.4 314.9L119.4 238.7L120.0 238.7L120.0 229.0L120.7 229.0L120.7 222.3L121.5 222.3L121.5 220.6L121.7 220.6L121.7 220.5L122.2 220.5L122.2 214.2L123.7 214.2L123.7 214.1L124.2 214.1L124.2 213.7L124.5 213.7L124.5 213.5L125.0 213.5L125.0 212.7L127.1 212.7L127.1 212.1L127.6 212.1L127.6 212.0L133.2 212.0L133.2 206.7L139.4 206.7L139.4 204.9L141.8 204.9L141.8 204.6L143.3 204.6L143.3 201.9L146.1 201.9L146.1 201.8L147.5 201.8L147.5 201.0L148.3 201.0L148.3 200.0L152.4 200.0L152.4 200.0L154.0 200.0L154.0 199.7L167.7 199.7L167.7 195.5L177.9 195.5L177.9 187.4L178.2 187.4L178.2 186.2L178.9 186.2L178.9 184.5L196.8 184.5L196.8 183.9L205.6 183.9L205.6 169.3L208.6 169.3L208.6 168.8L208.8 168.8L208.8 167.7L210.5 167.7L210.5 165.0L211.1 165.0L211.1 163.7L211.3 163.7L211.3 163.6L215.1 163.6L215.1 155.9L219.7 155.9L219.7 155.8L221.4 155.8L221.4 141.9L225.1 141.9L225.1 141.8L226.4 141.8L226.4 131.7L227.7 131.7L227.7 130.9L228.2 130.9L228.2 129.5L259.5 129.5L259.5 129.5L264.2 129.5L264.2 128.9L268.7 128.9L268.7 128.4L271.8 128.4L271.8 128.2L285.9 128.2L285.9 128.0L300.7 128.0L300.7 112.8L304.0 112.8L304.0 110.2L309.8 110.2L309.8 105.5L311.0 105.5L311.0 105.1L311.9 105.1L311.9 103.8L322.1 103.8L322.1 103.5L341.4 103.5L341.4 89.6L344.7 89.6L344.7 89.3L345.4 89.3L345.4 87.6L348.8 87.6L348.8 85.4L359.6 85.4L359.6 84.4L441.4 84.4L441.4 84.4L645.1 84.4L645.1 75.8L646.9 75.8L646.9 75.7L649.0 75.7L649.0 75.3L649.4 75.3L649.4 74.7L651.3 74.7L651.3 74.7L662.7 74.7L662.7 74.4L678.4 74.4L678.4 73.9L683.7 73.9L683.7 73.6L692.1 73.6L692.1 69.8L695.8 69.8L695.8 69.1L1014.4 69.1L1014.4 55.0L1032.0 55.0" fill="none" stroke="#6675b0" stroke-width="1.6" stroke-dasharray="5 3" opacity="0.75"/><path d="M215.1 155.9L225.1 155.9L225.1 141.8L226.4 141.8L226.4 131.7L227.7 131.7L227.7 130.9L228.2 130.9L228.2 129.5L259.5 129.5L259.5 129.5L264.2 129.5L264.2 128.9L268.7 128.9L268.7 128.4L271.8 128.4L271.8 128.2L285.9 128.2L285.9 128.0L300.7 128.0L300.7 112.8L307.7 112.8L307.7 111.6L309.8 111.6L309.8 105.5L311.0 105.5L311.0 105.1L311.9 105.1L311.9 103.8L322.1 103.8L322.1 103.5L341.4 103.5L341.4 89.6L344.7 89.6L344.7 89.3L345.4 89.3L345.4 87.6L348.8 87.6L348.8 85.4L359.6 85.4L359.6 84.4L441.4 84.4L441.4 84.4L645.1 84.4L645.1 75.8L646.9 75.8L646.9 75.7L649.0 75.7L649.0 75.3L649.4 75.3L649.4 74.7L651.3 74.7L651.3 74.7L662.7 74.7L662.7 74.4L678.4 74.4L678.4 73.9L683.7 73.9L683.7 73.6L692.2 73.6L692.2 73.5L766.3 73.5L766.3 73.4L836.7 73.4L836.7 73.4L883.7 73.4L883.7 71.4L1032.0 71.4" fill="none" stroke="#2b3a7a" stroke-width="2.6"/><path d="M579.1 246.9L585.6 253.4L579.1 259.9L572.6 253.4Z" fill="#c5961a" opacity="1.0" stroke="#ffffff" stroke-width="1.4"/><path d="M680.5 206.5L687.0 213.0L680.5 219.5L674.0 213.0Z" fill="#c5961a" opacity="1.0" stroke="#ffffff" stroke-width="1.4"/><path d="M692.2 67.0L698.7 73.5L692.2 80.0L685.7 73.5Z" fill="#c5961a" opacity="1.0" stroke="#ffffff" stroke-width="1.4"/><path d="M779.0 240.8L785.5 247.3L779.0 253.8L772.5 247.3Z" fill="#c5961a" opacity="1.0" stroke="#ffffff" stroke-width="1.4"/><path d="M779.7 238.0L786.2 244.5L779.7 251.0L773.2 244.5Z" fill="#c5961a" opacity="1.0" stroke="#ffffff" stroke-width="1.4"/><text x="1042" y="53.0" font-size="11.5" fill="#6675b0">– – raw best 535.9</text><text x="1042" y="67.0" font-size="10" fill="#8a8fa3">unverified (pending)</text><path d="M883.7 64.9L890.2 71.4L883.7 77.9L877.2 71.4Z" fill="#2b3a7a" opacity="1.0" stroke="#ffffff" stroke-width="1.4"/><text x="1042" y="99.4" font-size="12.5" fill="#2b3a7a" font-weight="bold">◆ verified 510.1</text><text x="1042" y="115.4" font-size="10.5" fill="#3a3f55">top verified</text><text x="60" y="24" font-size="13" font-weight="bold" fill="#3a3f55" letter-spacing="1.2">SCORE EVOLUTION — gemma-challenge (tok/s)</text><circle cx="452" cy="20" r="3" fill="#b9bdca"/><text x="460" y="24" font-size="10.5" fill="#8a8fa3">all results</text><path d="M544.0 16.4L547.6 20.0L544.0 23.6L540.4 20.0Z" fill="#2b3a7a" opacity="1.0" stroke="none" stroke-width="0"/><text x="552" y="24" font-size="10.5" fill="#8a8fa3">verified</text><path d="M620.0 15.5L624.5 20.0L620.0 24.5L615.5 20.0Z" fill="#c5961a" opacity="1.0" stroke="#fff" stroke-width="1"/><text x="629" y="24" font-size="10.5" fill="#8a8fa3">mikasa-inbound (us)</text></svg>