<svg viewBox="0 0 1200 440" xmlns="http://www.w3.org/2000/svg" font-family="ui-sans-serif,system-ui,-apple-system,sans-serif"><rect x="0" y="0" width="1200" height="440" fill="#ffffff"/><rect x="60" y="46" width="972" height="350" fill="#f3f4fb"/><line x1="60" y1="396.0" x2="1032" y2="396.0" stroke="#e3e5ef" stroke-width="1"/><text x="52" y="400.0" text-anchor="end" font-size="11" fill="#8a8fa3">0</text><line x1="60" y1="332.4" x2="1032" y2="332.4" stroke="#e3e5ef" stroke-width="1"/><text x="52" y="336.4" text-anchor="end" font-size="11" fill="#8a8fa3">100</text><line x1="60" y1="268.7" x2="1032" y2="268.7" stroke="#e3e5ef" stroke-width="1"/><text x="52" y="272.7" text-anchor="end" font-size="11" fill="#8a8fa3">200</text><line x1="60" y1="205.1" x2="1032" y2="205.1" stroke="#e3e5ef" stroke-width="1"/><text x="52" y="209.1" text-anchor="end" font-size="11" fill="#8a8fa3">300</text><line x1="60" y1="141.5" x2="1032" y2="141.5" stroke="#e3e5ef" stroke-width="1"/><text x="52" y="145.5" text-anchor="end" font-size="11" fill="#8a8fa3">400</text><line x1="60" y1="77.8" x2="1032" y2="77.8" stroke="#e3e5ef" stroke-width="1"/><text x="52" y="81.8" text-anchor="end" font-size="11" fill="#8a8fa3">500</text><line x1="108.3" y1="46" x2="108.3" y2="396" stroke="#e3e5ef" stroke-width="1"/><text x="108.3" y="414.0" text-anchor="middle" font-size="11" fill="#8a8fa3">Jun 10</text><line x1="177.2" y1="46" x2="177.2" y2="396" stroke="#e3e5ef" stroke-width="1"/><text x="177.2" y="414.0" text-anchor="middle" font-size="11" fill="#8a8fa3">Jun 12</text><line x1="246.1" y1="46" x2="246.1" y2="396" stroke="#e3e5ef" stroke-width="1"/><text x="246.1" y="414.0" text-anchor="middle" font-size="11" fill="#8a8fa3">Jun 14</text><line x1="314.9" y1="46" x2="314.9" y2="396" stroke="#e3e5ef" stroke-width="1"/><text x="314.9" y="414.0" text-anchor="middle" font-size="11" fill="#8a8fa3">Jun 16</text><line x1="383.8" y1="46" x2="383.8" y2="396" stroke="#e3e5ef" stroke-width="1"/><text x="383.8" y="414.0" text-anchor="middle" font-size="11" fill="#8a8fa3">Jun 18</text><line x1="452.7" y1="46" x2="452.7" y2="396" stroke="#e3e5ef" stroke-width="1"/><text x="452.7" y="414.0" text-anchor="middle" font-size="11" fill="#8a8fa3">Jun 20</text><line x1="521.6" y1="46" x2="521.6" y2="396" stroke="#e3e5ef" stroke-width="1"/><text x="521.6" y="414.0" text-anchor="middle" font-size="11" fill="#8a8fa3">Jun 22</text><line x1="590.5" y1="46" x2="590.5" y2="396" stroke="#e3e5ef" stroke-width="1"/><text x="590.5" y="414.0" text-anchor="middle" font-size="11" fill="#8a8fa3">Jun 24</text><line x1="659.4" y1="46" x2="659.4" y2="396" stroke="#e3e5ef" stroke-width="1"/><text x="659.4" y="414.0" text-anchor="middle" font-size="11" fill="#8a8fa3">Jun 26</text><line x1="728.2" y1="46" x2="728.2" y2="396" stroke="#e3e5ef" stroke-width="1"/><text x="728.2" y="414.0" text-anchor="middle" font-size="11" fill="#8a8fa3">Jun 28</text><line x1="797.1" y1="46" x2="797.1" y2="396" stroke="#e3e5ef" stroke-width="1"/><text x="797.1" y="414.0" text-anchor="middle" font-size="11" fill="#8a8fa3">Jun 30</text><line x1="866.0" y1="46" x2="866.0" y2="396" stroke="#e3e5ef" stroke-width="1"/><text x="866.0" y="414.0" text-anchor="middle" font-size="11" fill="#8a8fa3">Jul 2</text><line x1="934.9" y1="46" x2="934.9" y2="396" stroke="#e3e5ef" stroke-width="1"/><text x="934.9" y="414.0" text-anchor="middle" font-size="11" fill="#8a8fa3">Jul 4</text><line x1="1003.8" y1="46" x2="1003.8" y2="396" stroke="#e3e5ef" stroke-width="1"/><text x="1003.8" y="414.0" text-anchor="middle" font-size="11" fill="#8a8fa3">Jul 6</text><circle cx="60.0" cy="335.3" r="2.3" fill="#b9bdca" opacity="0.5"/><circle cx="61.7" cy="335.1" r="2.3" fill="#b9bdca" opacity="0.5"/><circle cx="63.3" cy="368.0" r="2.3" fill="#b9bdca" opacity="0.5"/><circle cx="64.0" cy="320.7" r="2.3" fill="#b9bdca" opacity="0.5"/><circle cx="68.6" cy="319.9" r="2.3" fill="#b9bdca" opacity="0.5"/><circle cx="68.8" cy="320.6" r="2.3" fill="#b9bdca" opacity="0.5"/><circle cx="70.3" cy="315.3" r="2.3" fill="#b9bdca" opacity="0.5"/><circle cx="70.6" cy="319.7" r="2.3" fill="#b9bdca" opacity="0.5"/><circle cx="70.7" cy="314.9" r="2.3" fill="#b9bdca" opacity="0.5"/><circle cx="71.3" cy="315.5" r="2.3" fill="#b9bdca" opacity="0.5"/><circle cx="71.5" cy="314.9" r="2.3" fill="#b9bdca" opacity="0.5"/><circle cx="71.9" cy="315.4" r="2.3" fill="#b9bdca" opacity="0.5"/><circle cx="72.8" cy="315.0" r="2.3" fill="#b9bdca" opacity="0.5"/><circle cx="98.9" cy="238.7" r="2.3" fill="#b9bdca" opacity="0.5"/><circle cx="99.1" cy="315.0" r="2.3" fill="#b9bdca" opacity="0.5"/><circle cx="99.3" cy="229.0" r="2.3" fill="#b9bdca" opacity="0.5"/><circle cx="99.8" cy="222.3" r="2.3" fill="#b9bdca" opacity="0.5"/><circle cx="100.2" cy="228.0" r="2.3" fill="#b9bdca" opacity="0.5"/><circle cx="100.3" cy="223.3" r="2.3" fill="#b9bdca" opacity="0.5"/><circle cx="100.3" cy="220.6" r="2.3" fill="#b9bdca" opacity="0.5"/><circle cx="100.4" cy="220.5" r="2.3" fill="#b9bdca" opacity="0.5"/><circle cx="100.5" cy="223.2" r="2.3" fill="#b9bdca" opacity="0.5"/><circle cx="100.7" cy="214.2" r="2.3" fill="#b9bdca" opacity="0.5"/><circle cx="100.8" cy="222.1" r="2.3" fill="#b9bdca" opacity="0.5"/><circle cx="101.0" cy="220.7" r="2.3" fill="#b9bdca" opacity="0.5"/><circle cx="101.3" cy="218.5" r="2.3" fill="#b9bdca" opacity="0.5"/><circle cx="101.4" cy="215.2" r="2.3" fill="#b9bdca" opacity="0.5"/><circle cx="101.5" cy="214.3" r="2.3" fill="#b9bdca" opacity="0.5"/><circle cx="101.6" cy="219.2" r="2.3" fill="#b9bdca" opacity="0.5"/><circle cx="101.8" cy="214.1" r="2.3" fill="#b9bdca" opacity="0.5"/><circle cx="101.9" cy="215.2" r="2.3" fill="#b9bdca" opacity="0.5"/><circle cx="102.1" cy="213.7" r="2.3" fill="#b9bdca" opacity="0.5"/><circle cx="102.3" cy="213.5" r="2.3" fill="#b9bdca" opacity="0.5"/><circle cx="102.5" cy="214.8" r="2.3" fill="#b9bdca" opacity="0.5"/><circle cx="102.5" cy="217.7" r="2.3" fill="#b9bdca" opacity="0.5"/><circle cx="102.6" cy="212.7" r="2.3" fill="#b9bdca" opacity="0.5"/><circle cx="103.0" cy="213.3" r="2.3" fill="#b9bdca" opacity="0.5"/><circle cx="103.5" cy="212.7" r="2.3" fill="#b9bdca" opacity="0.5"/><circle cx="103.5" cy="213.6" r="2.3" fill="#b9bdca" opacity="0.5"/><circle cx="103.7" cy="213.0" r="2.3" fill="#b9bdca" opacity="0.5"/><circle cx="103.9" cy="212.1" r="2.3" fill="#b9bdca" opacity="0.5"/><circle cx="104.0" cy="213.3" r="2.3" fill="#b9bdca" opacity="0.5"/><circle cx="104.3" cy="212.0" r="2.3" fill="#b9bdca" opacity="0.5"/><circle cx="104.8" cy="212.1" r="2.3" fill="#b9bdca" opacity="0.5"/><circle cx="104.8" cy="212.8" r="2.3" fill="#b9bdca" opacity="0.5"/><circle cx="108.0" cy="206.7" r="2.3" fill="#b9bdca" opacity="0.5"/><circle cx="108.4" cy="206.8" r="2.3" fill="#b9bdca" opacity="0.5"/><circle cx="108.4" cy="212.5" r="2.3" fill="#b9bdca" opacity="0.5"/><circle cx="108.6" cy="207.2" r="2.3" fill="#b9bdca" opacity="0.5"/><circle cx="109.7" cy="207.0" r="2.3" fill="#b9bdca" opacity="0.5"/><circle cx="112.0" cy="204.9" r="2.3" fill="#b9bdca" opacity="0.5"/><circle cx="113.6" cy="204.6" r="2.3" fill="#b9bdca" opacity="0.5"/><circle cx="113.7" cy="212.3" r="2.3" fill="#b9bdca" opacity="0.5"/><circle cx="114.0" cy="204.6" r="2.3" fill="#b9bdca" opacity="0.5"/><circle cx="114.0" cy="204.6" r="2.3" fill="#b9bdca" opacity="0.5"/><circle cx="114.0" cy="204.9" r="2.3" fill="#b9bdca" opacity="0.5"/><circle cx="114.0" cy="204.9" r="2.3" fill="#b9bdca" opacity="0.5"/><circle cx="114.6" cy="201.9" r="2.3" fill="#b9bdca" opacity="0.5"/><circle cx="115.5" cy="206.5" r="2.3" fill="#b9bdca" opacity="0.5"/><circle cx="115.9" cy="205.8" r="2.3" fill="#b9bdca" opacity="0.5"/><circle cx="115.9" cy="335.1" r="2.3" fill="#b9bdca" opacity="0.5"/><circle cx="116.4" cy="201.8" r="2.3" fill="#b9bdca" opacity="0.5"/><circle cx="116.4" cy="202.2" r="2.3" fill="#b9bdca" opacity="0.5"/><circle cx="117.3" cy="201.0" r="2.3" fill="#b9bdca" opacity="0.5"/><circle cx="117.7" cy="203.1" r="2.3" fill="#b9bdca" opacity="0.5"/><circle cx="117.9" cy="200.0" r="2.3" fill="#b9bdca" opacity="0.5"/><circle cx="117.9" cy="204.6" r="2.3" fill="#b9bdca" opacity="0.5"/><circle cx="118.5" cy="202.3" r="2.3" fill="#b9bdca" opacity="0.5"/><circle cx="119.6" cy="200.4" r="2.3" fill="#b9bdca" opacity="0.5"/><circle cx="120.1" cy="200.7" r="2.3" fill="#b9bdca" opacity="0.5"/><circle cx="120.5" cy="200.0" r="2.3" fill="#b9bdca" opacity="0.5"/><circle cx="121.6" cy="199.7" r="2.3" fill="#b9bdca" opacity="0.5"/><circle cx="128.2" cy="200.6" r="2.3" fill="#b9bdca" opacity="0.5"/><circle cx="128.8" cy="201.8" r="2.3" fill="#b9bdca" opacity="0.5"/><circle cx="129.6" cy="208.4" r="2.3" fill="#b9bdca" opacity="0.5"/><circle cx="129.7" cy="200.8" r="2.3" fill="#b9bdca" opacity="0.5"/><circle cx="130.3" cy="200.7" r="2.3" fill="#b9bdca" opacity="0.5"/><circle cx="130.3" cy="201.9" r="2.3" fill="#b9bdca" opacity="0.5"/><circle cx="130.6" cy="195.5" r="2.3" fill="#b9bdca" opacity="0.5"/><circle cx="131.2" cy="196.9" r="2.3" fill="#b9bdca" opacity="0.5"/><circle cx="131.5" cy="197.9" r="2.3" fill="#b9bdca" opacity="0.5"/><circle cx="132.1" cy="196.1" r="2.3" fill="#b9bdca" opacity="0.5"/><circle cx="134.1" cy="197.3" r="2.3" fill="#b9bdca" opacity="0.5"/><circle cx="134.6" cy="195.9" r="2.3" fill="#b9bdca" opacity="0.5"/><circle cx="134.8" cy="201.0" r="2.3" fill="#b9bdca" opacity="0.5"/><circle cx="135.0" cy="197.5" r="2.3" fill="#b9bdca" opacity="0.5"/><circle cx="135.5" cy="196.9" r="2.3" fill="#b9bdca" opacity="0.5"/><circle cx="135.5" cy="197.1" r="2.3" fill="#b9bdca" opacity="0.5"/><circle cx="135.5" cy="197.0" r="2.3" fill="#b9bdca" opacity="0.5"/><circle cx="136.0" cy="196.0" r="2.3" fill="#b9bdca" opacity="0.5"/><circle cx="136.0" cy="196.0" r="2.3" fill="#b9bdca" opacity="0.5"/><circle cx="136.0" cy="197.9" r="2.3" fill="#b9bdca" opacity="0.5"/><circle cx="136.4" cy="197.8" r="2.3" fill="#b9bdca" opacity="0.5"/><circle cx="136.7" cy="196.2" r="2.3" fill="#b9bdca" opacity="0.5"/><circle cx="136.7" cy="197.5" r="2.3" fill="#b9bdca" opacity="0.5"/><circle cx="136.8" cy="196.9" r="2.3" fill="#b9bdca" opacity="0.5"/><circle cx="136.8" cy="195.5" r="2.3" fill="#b9bdca" opacity="0.5"/><circle cx="137.2" cy="198.1" r="2.3" fill="#b9bdca" opacity="0.5"/><circle cx="137.3" cy="187.4" r="2.3" fill="#b9bdca" opacity="0.5"/><circle cx="137.5" cy="186.2" r="2.3" fill="#b9bdca" opacity="0.5"/><circle cx="137.5" cy="196.3" r="2.3" fill="#b9bdca" opacity="0.5"/><circle cx="137.5" cy="197.2" r="2.3" fill="#b9bdca" opacity="0.5"/><circle cx="137.5" cy="197.8" r="2.3" fill="#b9bdca" opacity="0.5"/><circle cx="137.5" cy="368.0" r="2.3" fill="#b9bdca" opacity="0.5"/><circle cx="137.9" cy="184.5" r="2.3" fill="#b9bdca" opacity="0.5"/><circle cx="139.7" cy="184.6" r="2.3" fill="#b9bdca" opacity="0.5"/><circle cx="140.5" cy="185.6" r="2.3" fill="#b9bdca" opacity="0.5"/><circle cx="143.0" cy="188.7" r="2.3" fill="#b9bdca" opacity="0.5"/><circle cx="146.5" cy="185.4" r="2.3" fill="#b9bdca" opacity="0.5"/><circle cx="147.3" cy="185.2" r="2.3" fill="#b9bdca" opacity="0.5"/><circle cx="147.6" cy="186.6" r="2.3" fill="#b9bdca" opacity="0.5"/><circle cx="147.7" cy="185.3" r="2.3" fill="#b9bdca" opacity="0.5"/><circle cx="148.3" cy="185.3" r="2.3" fill="#b9bdca" opacity="0.5"/><circle cx="148.5" cy="185.0" r="2.3" fill="#b9bdca" opacity="0.5"/><circle cx="149.1" cy="184.9" r="2.3" fill="#b9bdca" opacity="0.5"/><circle cx="149.5" cy="185.1" r="2.3" fill="#b9bdca" opacity="0.5"/><circle cx="149.5" cy="185.2" r="2.3" fill="#b9bdca" opacity="0.5"/><circle cx="149.5" cy="186.4" r="2.3" fill="#b9bdca" opacity="0.5"/><circle cx="149.6" cy="183.9" r="2.3" fill="#b9bdca" opacity="0.5"/><circle cx="152.8" cy="184.4" r="2.3" fill="#b9bdca" opacity="0.5"/><circle cx="153.4" cy="184.2" r="2.3" fill="#b9bdca" opacity="0.5"/><circle cx="155.4" cy="169.3" r="2.3" fill="#b9bdca" opacity="0.5"/><circle cx="157.3" cy="168.8" r="2.3" fill="#b9bdca" opacity="0.5"/><circle cx="157.5" cy="167.7" r="2.3" fill="#b9bdca" opacity="0.5"/><circle cx="158.3" cy="201.4" r="2.3" fill="#b9bdca" opacity="0.5"/><circle cx="158.6" cy="165.0" r="2.3" fill="#b9bdca" opacity="0.5"/><circle cx="158.7" cy="198.2" r="2.3" fill="#b9bdca" opacity="0.5"/><circle cx="159.0" cy="163.7" r="2.3" fill="#b9bdca" opacity="0.5"/><circle cx="159.1" cy="163.6" r="2.3" fill="#b9bdca" opacity="0.5"/><circle cx="159.5" cy="165.9" r="2.3" fill="#b9bdca" opacity="0.5"/><circle cx="161.2" cy="165.1" r="2.3" fill="#b9bdca" opacity="0.5"/><circle cx="161.6" cy="155.9" r="2.3" fill="#b9bdca" opacity="0.5"/><circle cx="163.3" cy="196.5" r="2.3" fill="#b9bdca" opacity="0.5"/><circle cx="164.0" cy="157.4" r="2.3" fill="#b9bdca" opacity="0.5"/><circle cx="164.6" cy="155.8" r="2.3" fill="#b9bdca" opacity="0.5"/><circle cx="165.8" cy="141.9" r="2.3" fill="#b9bdca" opacity="0.5"/><circle cx="168.1" cy="156.1" r="2.3" fill="#b9bdca" opacity="0.5"/><circle cx="168.1" cy="156.4" r="2.3" fill="#b9bdca" opacity="0.5"/><circle cx="168.2" cy="141.8" r="2.3" fill="#b9bdca" opacity="0.5"/><circle cx="168.3" cy="196.0" r="2.3" fill="#b9bdca" opacity="0.5"/><circle cx="169.1" cy="131.7" r="2.3" fill="#b9bdca" opacity="0.5"/><circle cx="169.2" cy="134.1" r="2.3" fill="#b9bdca" opacity="0.5"/><circle cx="169.4" cy="141.1" r="2.3" fill="#b9bdca" opacity="0.5"/><circle cx="169.8" cy="134.0" r="2.3" fill="#b9bdca" opacity="0.5"/><circle cx="169.9" cy="130.9" r="2.3" fill="#b9bdca" opacity="0.5"/><circle cx="169.9" cy="154.2" r="2.3" fill="#b9bdca" opacity="0.5"/><circle cx="170.0" cy="133.6" r="2.3" fill="#b9bdca" opacity="0.5"/><circle cx="170.2" cy="129.5" r="2.3" fill="#b9bdca" opacity="0.5"/><circle cx="170.2" cy="130.9" r="2.3" fill="#b9bdca" opacity="0.5"/><circle cx="170.2" cy="133.4" r="2.3" fill="#b9bdca" opacity="0.5"/><circle cx="170.4" cy="131.2" r="2.3" fill="#b9bdca" opacity="0.5"/><circle cx="171.8" cy="189.8" r="2.3" fill="#b9bdca" opacity="0.5"/><circle cx="171.9" cy="133.2" r="2.3" fill="#b9bdca" opacity="0.5"/><circle cx="172.1" cy="133.5" r="2.3" fill="#b9bdca" opacity="0.5"/><circle cx="172.7" cy="130.1" r="2.3" fill="#b9bdca" opacity="0.5"/><circle cx="174.1" cy="130.3" r="2.3" fill="#b9bdca" opacity="0.5"/><circle cx="174.7" cy="303.1" r="2.3" fill="#b9bdca" opacity="0.5"/><circle cx="175.9" cy="133.2" r="2.3" fill="#b9bdca" opacity="0.5"/><circle cx="177.4" cy="144.2" r="2.3" fill="#b9bdca" opacity="0.5"/><circle cx="177.7" cy="135.3" r="2.3" fill="#b9bdca" opacity="0.5"/><circle cx="178.7" cy="133.4" r="2.3" fill="#b9bdca" opacity="0.5"/><circle cx="178.8" cy="159.9" r="2.3" fill="#b9bdca" opacity="0.5"/><circle cx="179.0" cy="130.8" r="2.3" fill="#b9bdca" opacity="0.5"/><circle cx="179.4" cy="133.2" r="2.3" fill="#b9bdca" opacity="0.5"/><circle cx="182.9" cy="130.9" r="2.3" fill="#b9bdca" opacity="0.5"/><circle cx="183.3" cy="130.9" r="2.3" fill="#b9bdca" opacity="0.5"/><circle cx="183.3" cy="133.8" r="2.3" fill="#b9bdca" opacity="0.5"/><circle cx="183.9" cy="130.4" r="2.3" fill="#b9bdca" opacity="0.5"/><circle cx="184.3" cy="153.7" r="2.3" fill="#b9bdca" opacity="0.5"/><circle cx="184.9" cy="133.3" r="2.3" fill="#b9bdca" opacity="0.5"/><circle cx="186.0" cy="156.5" r="2.3" fill="#b9bdca" opacity="0.5"/><circle cx="186.2" cy="132.3" r="2.3" fill="#b9bdca" opacity="0.5"/><circle cx="187.5" cy="147.2" r="2.3" fill="#b9bdca" opacity="0.5"/><circle cx="187.7" cy="133.6" r="2.3" fill="#b9bdca" opacity="0.5"/><circle cx="188.2" cy="129.5" r="2.3" fill="#b9bdca" opacity="0.5"/><circle cx="188.2" cy="133.3" r="2.3" fill="#b9bdca" opacity="0.5"/><circle cx="189.7" cy="133.3" r="2.3" fill="#b9bdca" opacity="0.5"/><circle cx="190.7" cy="129.5" r="2.3" fill="#b9bdca" opacity="0.5"/><circle cx="192.5" cy="130.6" r="2.3" fill="#b9bdca" opacity="0.5"/><circle cx="193.8" cy="128.9" r="2.3" fill="#b9bdca" opacity="0.5"/><circle cx="194.1" cy="132.7" r="2.3" fill="#b9bdca" opacity="0.5"/><circle cx="194.1" cy="133.1" r="2.3" fill="#b9bdca" opacity="0.5"/><circle cx="196.1" cy="129.8" r="2.3" fill="#b9bdca" opacity="0.5"/><circle cx="196.6" cy="333.8" r="2.3" fill="#b9bdca" opacity="0.5"/><circle cx="196.8" cy="128.4" r="2.3" fill="#b9bdca" opacity="0.5"/><circle cx="197.7" cy="129.8" r="2.3" fill="#b9bdca" opacity="0.5"/><circle cx="198.0" cy="128.9" r="2.3" fill="#b9bdca" opacity="0.5"/><circle cx="198.1" cy="128.9" r="2.3" fill="#b9bdca" opacity="0.5"/><circle cx="198.8" cy="128.2" r="2.3" fill="#b9bdca" opacity="0.5"/><circle cx="199.3" cy="129.7" r="2.3" fill="#b9bdca" opacity="0.5"/><circle cx="199.5" cy="142.3" r="2.3" fill="#b9bdca" opacity="0.5"/><circle cx="201.3" cy="128.8" r="2.3" fill="#b9bdca" opacity="0.5"/><circle cx="202.4" cy="161.1" r="2.3" fill="#b9bdca" opacity="0.5"/><circle cx="204.5" cy="164.4" r="2.3" fill="#b9bdca" opacity="0.5"/><circle cx="204.8" cy="248.3" r="2.3" fill="#b9bdca" opacity="0.5"/><circle cx="207.8" cy="135.4" r="2.3" fill="#b9bdca" opacity="0.5"/><circle cx="208.1" cy="128.0" r="2.3" fill="#b9bdca" opacity="0.5"/><circle cx="209.0" cy="229.0" r="2.3" fill="#b9bdca" opacity="0.5"/><circle cx="211.1" cy="128.1" r="2.3" fill="#b9bdca" opacity="0.5"/><circle cx="211.6" cy="128.6" r="2.3" fill="#b9bdca" opacity="0.5"/><circle cx="213.6" cy="128.8" r="2.3" fill="#b9bdca" opacity="0.5"/><circle cx="213.6" cy="129.6" r="2.3" fill="#b9bdca" opacity="0.5"/><circle cx="213.6" cy="130.9" r="2.3" fill="#b9bdca" opacity="0.5"/><circle cx="217.7" cy="112.8" r="2.3" fill="#b9bdca" opacity="0.5"/><circle cx="219.9" cy="110.2" r="2.3" fill="#b9bdca" opacity="0.5"/><circle cx="220.0" cy="111.6" r="2.3" fill="#b9bdca" opacity="0.5"/><circle cx="221.3" cy="111.0" r="2.3" fill="#b9bdca" opacity="0.5"/><circle cx="222.0" cy="335.1" r="2.3" fill="#b9bdca" opacity="0.5"/><circle cx="222.3" cy="111.6" r="2.3" fill="#b9bdca" opacity="0.5"/><circle cx="223.7" cy="105.5" r="2.3" fill="#b9bdca" opacity="0.5"/><circle cx="223.9" cy="108.5" r="2.3" fill="#b9bdca" opacity="0.5"/><circle cx="224.5" cy="105.1" r="2.3" fill="#b9bdca" opacity="0.5"/><circle cx="225.1" cy="103.8" r="2.3" fill="#b9bdca" opacity="0.5"/><circle cx="225.8" cy="125.8" r="2.3" fill="#b9bdca" opacity="0.5"/><circle cx="231.8" cy="103.5" r="2.3" fill="#b9bdca" opacity="0.5"/><circle cx="233.3" cy="127.8" r="2.3" fill="#b9bdca" opacity="0.5"/><circle cx="234.0" cy="334.3" r="2.3" fill="#b9bdca" opacity="0.5"/><circle cx="234.9" cy="128.6" r="2.3" fill="#b9bdca" opacity="0.5"/><circle cx="235.3" cy="128.6" r="2.3" fill="#b9bdca" opacity="0.5"/><circle cx="235.4" cy="128.6" r="2.3" fill="#b9bdca" opacity="0.5"/><circle cx="235.9" cy="256.6" r="2.3" fill="#b9bdca" opacity="0.5"/><circle cx="236.6" cy="254.6" r="2.3" fill="#b9bdca" opacity="0.5"/><circle cx="237.7" cy="128.6" r="2.3" fill="#b9bdca" opacity="0.5"/><circle cx="240.5" cy="250.1" r="2.3" fill="#b9bdca" opacity="0.5"/><circle cx="240.7" cy="161.4" r="2.3" fill="#b9bdca" opacity="0.5"/><circle cx="241.0" cy="206.6" r="2.3" fill="#b9bdca" opacity="0.5"/><circle cx="243.5" cy="113.5" r="2.3" fill="#b9bdca" opacity="0.5"/><circle cx="244.4" cy="89.6" r="2.3" fill="#b9bdca" opacity="0.5"/><circle cx="245.0" cy="90.2" r="2.3" fill="#b9bdca" opacity="0.5"/><circle cx="246.6" cy="89.3" r="2.3" fill="#b9bdca" opacity="0.5"/><circle cx="247.0" cy="87.6" r="2.3" fill="#b9bdca" opacity="0.5"/><circle cx="247.5" cy="185.0" r="2.3" fill="#b9bdca" opacity="0.5"/><circle cx="248.1" cy="131.6" r="2.3" fill="#b9bdca" opacity="0.5"/><circle cx="248.5" cy="87.8" r="2.3" fill="#b9bdca" opacity="0.5"/><circle cx="249.2" cy="85.4" r="2.3" fill="#b9bdca" opacity="0.5"/><circle cx="250.4" cy="86.8" r="2.3" fill="#b9bdca" opacity="0.5"/><circle cx="251.5" cy="88.4" r="2.3" fill="#b9bdca" opacity="0.5"/><circle cx="256.2" cy="89.5" r="2.3" fill="#b9bdca" opacity="0.5"/><circle cx="256.2" cy="155.6" r="2.3" fill="#b9bdca" opacity="0.5"/><circle cx="256.3" cy="84.4" r="2.3" fill="#b9bdca" opacity="0.5"/><circle cx="261.9" cy="89.2" r="2.3" fill="#b9bdca" opacity="0.5"/><circle cx="262.0" cy="90.5" r="2.3" fill="#b9bdca" opacity="0.5"/><circle cx="263.6" cy="87.7" r="2.3" fill="#b9bdca" opacity="0.5"/><circle cx="264.1" cy="367.9" r="2.3" fill="#b9bdca" opacity="0.5"/><circle cx="266.4" cy="164.3" r="2.3" fill="#b9bdca" opacity="0.5"/><circle cx="267.6" cy="94.6" r="2.3" fill="#b9bdca" opacity="0.5"/><circle cx="268.0" cy="89.6" r="2.3" fill="#b9bdca" opacity="0.5"/><circle cx="272.9" cy="124.6" r="2.3" fill="#b9bdca" opacity="0.5"/><circle cx="278.1" cy="146.2" r="2.3" fill="#b9bdca" opacity="0.5"/><circle cx="278.2" cy="90.5" r="2.3" fill="#b9bdca" opacity="0.5"/><circle cx="278.7" cy="87.7" r="2.3" fill="#b9bdca" opacity="0.5"/><circle cx="278.9" cy="87.7" r="2.3" fill="#b9bdca" opacity="0.5"/><circle cx="279.0" cy="89.6" r="2.3" fill="#b9bdca" opacity="0.5"/><circle cx="282.7" cy="93.0" r="2.3" fill="#b9bdca" opacity="0.5"/><circle cx="284.0" cy="85.5" r="2.3" fill="#b9bdca" opacity="0.5"/><circle cx="294.9" cy="334.8" r="2.3" fill="#b9bdca" opacity="0.5"/><circle cx="296.1" cy="86.3" r="2.3" fill="#b9bdca" opacity="0.5"/><circle cx="299.8" cy="85.5" r="2.3" fill="#b9bdca" opacity="0.5"/><circle cx="300.4" cy="84.6" r="2.3" fill="#b9bdca" opacity="0.5"/><circle cx="302.0" cy="87.8" r="2.3" fill="#b9bdca" opacity="0.5"/><circle cx="302.6" cy="84.4" r="2.3" fill="#b9bdca" opacity="0.5"/><circle cx="303.0" cy="84.8" r="2.3" fill="#b9bdca" opacity="0.5"/><circle cx="304.0" cy="87.4" r="2.3" fill="#b9bdca" opacity="0.5"/><circle cx="309.9" cy="84.4" r="2.3" fill="#b9bdca" opacity="0.5"/><circle cx="335.6" cy="89.3" r="2.3" fill="#b9bdca" opacity="0.5"/><circle cx="340.2" cy="88.6" r="2.3" fill="#b9bdca" opacity="0.5"/><circle cx="340.2" cy="92.1" r="2.3" fill="#b9bdca" opacity="0.5"/><circle cx="341.3" cy="156.8" r="2.3" fill="#b9bdca" opacity="0.5"/><circle cx="356.1" cy="201.6" r="2.3" fill="#b9bdca" opacity="0.5"/><circle cx="366.9" cy="315.6" r="2.3" fill="#b9bdca" opacity="0.5"/><circle cx="396.5" cy="87.7" r="2.3" fill="#b9bdca" opacity="0.5"/><circle cx="405.5" cy="87.6" r="2.3" fill="#b9bdca" opacity="0.5"/><circle cx="413.5" cy="87.2" r="2.3" fill="#b9bdca" opacity="0.5"/><circle cx="415.3" cy="88.8" r="2.3" fill="#b9bdca" opacity="0.5"/><circle cx="416.0" cy="89.2" r="2.3" fill="#b9bdca" opacity="0.5"/><circle cx="416.4" cy="90.9" r="2.3" fill="#b9bdca" opacity="0.5"/><circle cx="418.6" cy="87.7" r="2.3" fill="#b9bdca" opacity="0.5"/><circle cx="426.7" cy="88.6" r="2.3" fill="#b9bdca" opacity="0.5"/><circle cx="427.7" cy="89.7" r="2.3" fill="#b9bdca" opacity="0.5"/><circle cx="428.4" cy="88.2" r="2.3" fill="#b9bdca" opacity="0.5"/><circle cx="443.4" cy="75.8" r="2.3" fill="#b9bdca" opacity="0.5"/><circle cx="444.6" cy="75.7" r="2.3" fill="#b9bdca" opacity="0.5"/><circle cx="445.4" cy="76.7" r="2.3" fill="#b9bdca" opacity="0.5"/><circle cx="445.5" cy="75.8" r="2.3" fill="#b9bdca" opacity="0.5"/><circle cx="446.0" cy="75.3" r="2.3" fill="#b9bdca" opacity="0.5"/><circle cx="446.2" cy="74.7" r="2.3" fill="#b9bdca" opacity="0.5"/><circle cx="446.3" cy="83.4" r="2.3" fill="#b9bdca" opacity="0.5"/><circle cx="446.7" cy="76.2" r="2.3" fill="#b9bdca" opacity="0.5"/><circle cx="447.1" cy="78.1" r="2.3" fill="#b9bdca" opacity="0.5"/><circle cx="447.4" cy="74.7" r="2.3" fill="#b9bdca" opacity="0.5"/><circle cx="449.9" cy="89.3" r="2.3" fill="#b9bdca" opacity="0.5"/><circle cx="454.9" cy="74.4" r="2.3" fill="#b9bdca" opacity="0.5"/><circle cx="462.9" cy="74.4" r="2.3" fill="#b9bdca" opacity="0.5"/><circle cx="464.2" cy="335.1" r="2.3" fill="#b9bdca" opacity="0.5"/><circle cx="464.2" cy="81.7" r="2.3" fill="#b9bdca" opacity="0.5"/><circle cx="465.2" cy="74.6" r="2.3" fill="#b9bdca" opacity="0.5"/><circle cx="465.2" cy="82.1" r="2.3" fill="#b9bdca" opacity="0.5"/><circle cx="465.2" cy="73.9" r="2.3" fill="#b9bdca" opacity="0.5"/><circle cx="467.5" cy="76.2" r="2.3" fill="#b9bdca" opacity="0.5"/><circle cx="467.8" cy="82.1" r="2.3" fill="#b9bdca" opacity="0.5"/><circle cx="468.2" cy="74.2" r="2.3" fill="#b9bdca" opacity="0.5"/><circle cx="468.2" cy="75.0" r="2.3" fill="#b9bdca" opacity="0.5"/><circle cx="468.7" cy="73.6" r="2.3" fill="#b9bdca" opacity="0.5"/><circle cx="468.7" cy="83.3" r="2.3" fill="#b9bdca" opacity="0.5"/><circle cx="468.7" cy="83.8" r="2.3" fill="#b9bdca" opacity="0.5"/><circle cx="468.7" cy="78.1" r="2.3" fill="#b9bdca" opacity="0.5"/><circle cx="468.7" cy="81.5" r="2.3" fill="#b9bdca" opacity="0.5"/><circle cx="468.7" cy="83.0" r="2.3" fill="#b9bdca" opacity="0.5"/><circle cx="468.7" cy="83.7" r="2.3" fill="#b9bdca" opacity="0.5"/><circle cx="471.9" cy="82.7" r="2.3" fill="#b9bdca" opacity="0.5"/><circle cx="472.6" cy="77.8" r="2.3" fill="#b9bdca" opacity="0.5"/><circle cx="474.2" cy="69.8" r="2.3" fill="#b9bdca" opacity="0.5"/><circle cx="474.8" cy="75.9" r="2.3" fill="#b9bdca" opacity="0.5"/><circle cx="475.0" cy="74.3" r="2.3" fill="#b9bdca" opacity="0.5"/><circle cx="475.0" cy="77.4" r="2.3" fill="#b9bdca" opacity="0.5"/><circle cx="475.0" cy="80.6" r="2.3" fill="#b9bdca" opacity="0.5"/><circle cx="475.0" cy="81.8" r="2.3" fill="#b9bdca" opacity="0.5"/><circle cx="476.1" cy="76.9" r="2.3" fill="#b9bdca" opacity="0.5"/><circle cx="476.1" cy="82.8" r="2.3" fill="#b9bdca" opacity="0.5"/><circle cx="476.1" cy="83.0" r="2.3" fill="#b9bdca" opacity="0.5"/><circle cx="476.1" cy="83.1" r="2.3" fill="#b9bdca" opacity="0.5"/><circle cx="476.6" cy="69.1" r="2.3" fill="#b9bdca" opacity="0.5"/><circle cx="477.9" cy="75.5" r="2.3" fill="#b9bdca" opacity="0.5"/><circle cx="478.7" cy="74.3" r="2.3" fill="#b9bdca" opacity="0.5"/><circle cx="498.8" cy="74.0" r="2.3" fill="#b9bdca" opacity="0.5"/><circle cx="522.8" cy="73.4" r="2.3" fill="#b9bdca" opacity="0.5"/><circle cx="523.0" cy="75.9" r="2.3" fill="#b9bdca" opacity="0.5"/><circle cx="523.0" cy="76.3" r="2.3" fill="#b9bdca" opacity="0.5"/><circle cx="523.2" cy="76.0" r="2.3" fill="#b9bdca" opacity="0.5"/><circle cx="523.2" cy="76.8" r="2.3" fill="#b9bdca" opacity="0.5"/><circle cx="523.2" cy="81.2" r="2.3" fill="#b9bdca" opacity="0.5"/><circle cx="523.2" cy="83.4" r="2.3" fill="#b9bdca" opacity="0.5"/><circle cx="540.1" cy="76.6" r="2.3" fill="#b9bdca" opacity="0.5"/><circle cx="541.3" cy="76.7" r="2.3" fill="#b9bdca" opacity="0.5"/><circle cx="541.3" cy="82.8" r="2.3" fill="#b9bdca" opacity="0.5"/><circle cx="541.3" cy="82.8" r="2.3" fill="#b9bdca" opacity="0.5"/><circle cx="541.3" cy="83.3" r="2.3" fill="#b9bdca" opacity="0.5"/><circle cx="544.8" cy="233.4" r="2.3" fill="#b9bdca" opacity="0.5"/><circle cx="545.9" cy="228.9" r="2.3" fill="#b9bdca" opacity="0.5"/><circle cx="546.9" cy="198.3" r="2.3" fill="#b9bdca" opacity="0.5"/><circle cx="568.9" cy="73.4" r="2.3" fill="#b9bdca" opacity="0.5"/><circle cx="575.1" cy="192.4" r="2.3" fill="#b9bdca" opacity="0.5"/><circle cx="577.3" cy="75.3" r="2.3" fill="#b9bdca" opacity="0.5"/><circle cx="577.8" cy="74.0" r="2.3" fill="#b9bdca" opacity="0.5"/><circle cx="579.2" cy="194.4" r="2.3" fill="#b9bdca" opacity="0.5"/><circle cx="581.4" cy="168.6" r="2.3" fill="#b9bdca" opacity="0.5"/><circle cx="582.7" cy="77.1" r="2.3" fill="#b9bdca" opacity="0.5"/><circle cx="582.7" cy="99.5" r="2.3" fill="#b9bdca" opacity="0.5"/><circle cx="599.7" cy="71.4" r="2.3" fill="#b9bdca" opacity="0.5"/><circle cx="599.7" cy="73.5" r="2.3" fill="#b9bdca" opacity="0.5"/><circle cx="605.8" cy="72.4" r="2.3" fill="#b9bdca" opacity="0.5"/><circle cx="630.6" cy="83.0" r="2.3" fill="#b9bdca" opacity="0.5"/><circle cx="630.9" cy="72.1" r="2.3" fill="#b9bdca" opacity="0.5"/><circle cx="631.3" cy="71.6" r="2.3" fill="#b9bdca" opacity="0.5"/><circle cx="632.0" cy="75.5" r="2.3" fill="#b9bdca" opacity="0.5"/><circle cx="632.5" cy="73.7" r="2.3" fill="#b9bdca" opacity="0.5"/><circle cx="633.5" cy="72.9" r="2.3" fill="#b9bdca" opacity="0.5"/><circle cx="634.0" cy="73.4" r="2.3" fill="#b9bdca" opacity="0.5"/><circle cx="682.5" cy="85.2" r="2.3" fill="#b9bdca" opacity="0.5"/><circle cx="682.5" cy="256.6" r="2.3" fill="#b9bdca" opacity="0.5"/><circle cx="682.5" cy="335.3" r="2.3" fill="#b9bdca" opacity="0.5"/><circle cx="682.8" cy="86.8" r="2.3" fill="#b9bdca" opacity="0.5"/><circle cx="683.2" cy="71.5" r="2.3" fill="#b9bdca" opacity="0.5"/><circle cx="684.5" cy="71.0" r="2.3" fill="#b9bdca" opacity="0.5"/><circle cx="685.2" cy="71.5" r="2.3" fill="#b9bdca" opacity="0.5"/><circle cx="685.4" cy="55.0" r="2.3" fill="#b9bdca" opacity="0.5"/><circle cx="692.1" cy="83.1" r="2.3" fill="#b9bdca" opacity="0.5"/><circle cx="693.8" cy="74.7" r="2.3" fill="#b9bdca" opacity="0.5"/><circle cx="693.9" cy="59.3" r="2.3" fill="#b9bdca" opacity="0.5"/><circle cx="693.9" cy="79.9" r="2.3" fill="#b9bdca" opacity="0.5"/><circle cx="694.1" cy="74.1" r="2.3" fill="#b9bdca" opacity="0.5"/><circle cx="694.4" cy="72.7" r="2.3" fill="#b9bdca" opacity="0.5"/><circle cx="694.4" cy="73.8" r="2.3" fill="#b9bdca" opacity="0.5"/><circle cx="694.4" cy="75.9" r="2.3" fill="#b9bdca" opacity="0.5"/><circle cx="694.8" cy="74.1" r="2.3" fill="#b9bdca" opacity="0.5"/><circle cx="695.2" cy="73.5" r="2.3" fill="#b9bdca" opacity="0.5"/><circle cx="695.5" cy="74.2" r="2.3" fill="#b9bdca" opacity="0.5"/><circle cx="695.9" cy="71.5" r="2.3" fill="#b9bdca" opacity="0.5"/><circle cx="696.9" cy="74.3" r="2.3" fill="#b9bdca" opacity="0.5"/><circle cx="702.3" cy="73.2" r="2.3" fill="#b9bdca" opacity="0.5"/><circle cx="702.3" cy="73.6" r="2.3" fill="#b9bdca" opacity="0.5"/><circle cx="702.3" cy="73.8" r="2.3" fill="#b9bdca" opacity="0.5"/><circle cx="712.8" cy="73.3" r="2.3" fill="#b9bdca" opacity="0.5"/><circle cx="712.8" cy="73.4" r="2.3" fill="#b9bdca" opacity="0.5"/><circle cx="736.7" cy="96.1" r="2.3" fill="#b9bdca" opacity="0.5"/><circle cx="834.5" cy="95.6" r="2.3" fill="#b9bdca" opacity="0.5"/><circle cx="866.8" cy="74.8" r="2.3" fill="#b9bdca" opacity="0.5"/><circle cx="868.4" cy="72.3" r="2.3" fill="#b9bdca" opacity="0.5"/><circle cx="877.7" cy="79.9" r="2.3" fill="#b9bdca" opacity="0.5"/><circle cx="877.7" cy="80.6" r="2.3" fill="#b9bdca" opacity="0.5"/><circle cx="896.1" cy="73.3" r="2.3" fill="#b9bdca" opacity="0.5"/><circle cx="896.2" cy="72.8" r="2.3" fill="#b9bdca" opacity="0.5"/><circle cx="896.2" cy="73.0" r="2.3" fill="#b9bdca" opacity="0.5"/><circle cx="896.2" cy="73.2" r="2.3" fill="#b9bdca" opacity="0.5"/><circle cx="896.2" cy="73.5" r="2.3" fill="#b9bdca" opacity="0.5"/><circle cx="896.2" cy="73.6" r="2.3" fill="#b9bdca" opacity="0.5"/><circle cx="896.2" cy="73.7" r="2.3" fill="#b9bdca" opacity="0.5"/><circle cx="896.7" cy="73.1" r="2.3" fill="#b9bdca" opacity="0.5"/><circle cx="896.7" cy="73.2" r="2.3" fill="#b9bdca" opacity="0.5"/><circle cx="896.7" cy="74.3" r="2.3" fill="#b9bdca" opacity="0.5"/><circle cx="896.7" cy="74.5" r="2.3" fill="#b9bdca" opacity="0.5"/><circle cx="896.7" cy="72.8" r="2.3" fill="#b9bdca" opacity="0.5"/><circle cx="897.1" cy="74.7" r="2.3" fill="#b9bdca" opacity="0.5"/><circle cx="941.8" cy="332.5" r="2.3" fill="#b9bdca" opacity="0.5"/><circle cx="995.4" cy="117.5" r="2.3" fill="#b9bdca" opacity="0.5"/><circle cx="995.4" cy="211.0" r="2.3" fill="#b9bdca" opacity="0.5"/><circle cx="1008.9" cy="93.9" r="2.3" fill="#b9bdca" opacity="0.5"/><circle cx="1029.8" cy="74.9" r="2.3" fill="#b9bdca" opacity="0.5"/><circle cx="1030.2" cy="73.4" r="2.3" fill="#b9bdca" opacity="0.5"/><circle cx="1030.5" cy="72.9" r="2.3" fill="#b9bdca" opacity="0.5"/><circle cx="1030.9" cy="74.2" r="2.3" fill="#b9bdca" opacity="0.5"/><circle cx="1031.0" cy="74.9" r="2.3" fill="#b9bdca" opacity="0.5"/><circle cx="1031.3" cy="74.9" r="2.3" fill="#b9bdca" opacity="0.5"/><circle cx="1031.6" cy="73.6" r="2.3" fill="#b9bdca" opacity="0.5"/><circle cx="1031.8" cy="74.5" r="2.3" fill="#b9bdca" opacity="0.5"/><circle cx="1032.0" cy="73.6" r="2.3" fill="#b9bdca" opacity="0.5"/><path d="M161.6 152.3L165.2 155.9L161.6 159.5L158.0 155.9Z" fill="#2b3a7a" opacity="0.8" stroke="none" stroke-width="0"/><path d="M168.2 138.2L171.8 141.8L168.2 145.4L164.6 141.8Z" fill="#2b3a7a" opacity="0.8" stroke="none" stroke-width="0"/><path d="M169.1 128.1L172.7 131.7L169.1 135.3L165.5 131.7Z" fill="#2b3a7a" opacity="0.8" stroke="none" stroke-width="0"/><path d="M169.2 130.5L172.8 134.1L169.2 137.7L165.6 134.1Z" fill="#2b3a7a" opacity="0.8" stroke="none" stroke-width="0"/><path d="M169.9 127.3L173.5 130.9L169.9 134.5L166.3 130.9Z" fill="#2b3a7a" opacity="0.8" stroke="none" stroke-width="0"/><path d="M170.2 125.9L173.8 129.5L170.2 133.1L166.6 129.5Z" fill="#2b3a7a" opacity="0.8" stroke="none" stroke-width="0"/><path d="M170.2 127.3L173.8 130.9L170.2 134.5L166.6 130.9Z" fill="#2b3a7a" opacity="0.8" stroke="none" stroke-width="0"/><path d="M190.7 125.9L194.3 129.5L190.7 133.1L187.1 129.5Z" fill="#2b3a7a" opacity="0.8" stroke="none" stroke-width="0"/><path d="M193.8 125.3L197.4 128.9L193.8 132.5L190.2 128.9Z" fill="#2b3a7a" opacity="0.8" stroke="none" stroke-width="0"/><path d="M196.8 124.8L200.4 128.4L196.8 132.0L193.2 128.4Z" fill="#2b3a7a" opacity="0.8" stroke="none" stroke-width="0"/><path d="M198.8 124.6L202.4 128.2L198.8 131.8L195.2 128.2Z" fill="#2b3a7a" opacity="0.8" stroke="none" stroke-width="0"/><path d="M208.1 124.4L211.7 128.0L208.1 131.6L204.5 128.0Z" fill="#2b3a7a" opacity="0.8" stroke="none" stroke-width="0"/><path d="M217.7 109.2L221.3 112.8L217.7 116.4L214.1 112.8Z" fill="#2b3a7a" opacity="0.8" stroke="none" stroke-width="0"/><path d="M222.3 108.0L225.9 111.6L222.3 115.2L218.7 111.6Z" fill="#2b3a7a" opacity="0.8" stroke="none" stroke-width="0"/><path d="M223.7 101.9L227.3 105.5L223.7 109.1L220.1 105.5Z" fill="#2b3a7a" opacity="0.8" stroke="none" stroke-width="0"/><path d="M223.9 104.9L227.5 108.5L223.9 112.1L220.3 108.5Z" fill="#2b3a7a" opacity="0.8" stroke="none" stroke-width="0"/><path d="M224.5 101.5L228.1 105.1L224.5 108.7L220.9 105.1Z" fill="#2b3a7a" opacity="0.8" stroke="none" stroke-width="0"/><path d="M225.1 100.2L228.7 103.8L225.1 107.4L221.5 103.8Z" fill="#2b3a7a" opacity="0.8" stroke="none" stroke-width="0"/><path d="M231.8 99.9L235.4 103.5L231.8 107.1L228.2 103.5Z" fill="#2b3a7a" opacity="0.8" stroke="none" stroke-width="0"/><path d="M244.4 86.0L248.0 89.6L244.4 93.2L240.8 89.6Z" fill="#2b3a7a" opacity="0.8" stroke="none" stroke-width="0"/><path d="M246.6 85.7L250.2 89.3L246.6 92.9L243.0 89.3Z" fill="#2b3a7a" opacity="0.8" stroke="none" stroke-width="0"/><path d="M247.0 84.0L250.6 87.6L247.0 91.2L243.4 87.6Z" fill="#2b3a7a" opacity="0.8" stroke="none" stroke-width="0"/><path d="M249.2 81.8L252.8 85.4L249.2 89.0L245.6 85.4Z" fill="#2b3a7a" opacity="0.8" stroke="none" stroke-width="0"/><path d="M256.3 80.8L259.9 84.4L256.3 88.0L252.7 84.4Z" fill="#2b3a7a" opacity="0.8" stroke="none" stroke-width="0"/><path d="M309.9 80.8L313.5 84.4L309.9 88.0L306.3 84.4Z" fill="#2b3a7a" opacity="0.8" stroke="none" stroke-width="0"/><path d="M443.4 72.2L447.0 75.8L443.4 79.4L439.8 75.8Z" fill="#2b3a7a" opacity="0.8" stroke="none" stroke-width="0"/><path d="M444.6 72.1L448.2 75.7L444.6 79.3L441.0 75.7Z" fill="#2b3a7a" opacity="0.8" stroke="none" stroke-width="0"/><path d="M446.0 71.7L449.6 75.3L446.0 78.9L442.4 75.3Z" fill="#2b3a7a" opacity="0.8" stroke="none" stroke-width="0"/><path d="M446.2 71.1L449.8 74.7L446.2 78.3L442.6 74.7Z" fill="#2b3a7a" opacity="0.8" stroke="none" stroke-width="0"/><path d="M447.4 71.1L451.0 74.7L447.4 78.3L443.8 74.7Z" fill="#2b3a7a" opacity="0.8" stroke="none" stroke-width="0"/><path d="M454.9 70.8L458.5 74.4L454.9 78.0L451.3 74.4Z" fill="#2b3a7a" opacity="0.8" stroke="none" stroke-width="0"/><path d="M465.2 70.3L468.8 73.9L465.2 77.5L461.6 73.9Z" fill="#2b3a7a" opacity="0.8" stroke="none" stroke-width="0"/><path d="M468.7 70.0L472.3 73.6L468.7 77.2L465.1 73.6Z" fill="#2b3a7a" opacity="0.8" stroke="none" stroke-width="0"/><path d="M522.8 69.8L526.4 73.4L522.8 77.0L519.2 73.4Z" fill="#2b3a7a" opacity="0.8" stroke="none" stroke-width="0"/><path d="M568.9 69.8L572.5 73.4L568.9 77.0L565.3 73.4Z" fill="#2b3a7a" opacity="0.8" stroke="none" stroke-width="0"/><path d="M599.7 67.8L603.3 71.4L599.7 75.0L596.1 71.4Z" fill="#2b3a7a" opacity="0.8" stroke="none" stroke-width="0"/><path d="M60.0 335.3L61.7 335.3L61.7 335.1L64.0 335.1L64.0 320.7L68.6 320.7L68.6 319.9L70.3 319.9L70.3 315.3L70.7 315.3L70.7 314.9L71.5 314.9L71.5 314.9L98.9 314.9L98.9 238.7L99.3 238.7L99.3 229.0L99.8 229.0L99.8 222.3L100.3 222.3L100.3 220.6L100.4 220.6L100.4 220.5L100.7 220.5L100.7 214.2L101.8 214.2L101.8 214.1L102.1 214.1L102.1 213.7L102.3 213.7L102.3 213.5L102.6 213.5L102.6 212.7L103.9 212.7L103.9 212.1L104.3 212.1L104.3 212.0L108.0 212.0L108.0 206.7L112.0 206.7L112.0 204.9L113.6 204.9L113.6 204.6L114.6 204.6L114.6 201.9L116.4 201.9L116.4 201.8L117.3 201.8L117.3 201.0L117.9 201.0L117.9 200.0L120.5 200.0L120.5 200.0L121.6 200.0L121.6 199.7L130.6 199.7L130.6 195.5L137.3 195.5L137.3 187.4L137.5 187.4L137.5 186.2L137.9 186.2L137.9 184.5L149.6 184.5L149.6 183.9L155.4 183.9L155.4 169.3L157.3 169.3L157.3 168.8L157.5 168.8L157.5 167.7L158.6 167.7L158.6 165.0L159.0 165.0L159.0 163.7L159.1 163.7L159.1 163.6L161.6 163.6L161.6 155.9L164.6 155.9L164.6 155.8L165.8 155.8L165.8 141.9L168.2 141.9L168.2 141.8L169.1 141.8L169.1 131.7L169.9 131.7L169.9 130.9L170.2 130.9L170.2 129.5L190.7 129.5L190.7 129.5L193.8 129.5L193.8 128.9L196.8 128.9L196.8 128.4L198.8 128.4L198.8 128.2L208.1 128.2L208.1 128.0L217.7 128.0L217.7 112.8L219.9 112.8L219.9 110.2L223.7 110.2L223.7 105.5L224.5 105.5L224.5 105.1L225.1 105.1L225.1 103.8L231.8 103.8L231.8 103.5L244.4 103.5L244.4 89.6L246.6 89.6L246.6 89.3L247.0 89.3L247.0 87.6L249.2 87.6L249.2 85.4L256.3 85.4L256.3 84.4L309.9 84.4L309.9 84.4L443.4 84.4L443.4 75.8L444.6 75.8L444.6 75.7L446.0 75.7L446.0 75.3L446.2 75.3L446.2 74.7L447.4 74.7L447.4 74.7L454.9 74.7L454.9 74.4L465.2 74.4L465.2 73.9L468.7 73.9L468.7 73.6L474.2 73.6L474.2 69.8L476.6 69.8L476.6 69.1L685.4 69.1L685.4 55.0L1032.0 55.0" fill="none" stroke="#6675b0" stroke-width="1.6" stroke-dasharray="5 3" opacity="0.75"/><path d="M161.6 155.9L168.2 155.9L168.2 141.8L169.1 141.8L169.1 131.7L169.9 131.7L169.9 130.9L170.2 130.9L170.2 129.5L190.7 129.5L190.7 129.5L193.8 129.5L193.8 128.9L196.8 128.9L196.8 128.4L198.8 128.4L198.8 128.2L208.1 128.2L208.1 128.0L217.7 128.0L217.7 112.8L222.3 112.8L222.3 111.6L223.7 111.6L223.7 105.5L224.5 105.5L224.5 105.1L225.1 105.1L225.1 103.8L231.8 103.8L231.8 103.5L244.4 103.5L244.4 89.6L246.6 89.6L246.6 89.3L247.0 89.3L247.0 87.6L249.2 87.6L249.2 85.4L256.3 85.4L256.3 84.4L309.9 84.4L309.9 84.4L443.4 84.4L443.4 75.8L444.6 75.8L444.6 75.7L446.0 75.7L446.0 75.3L446.2 75.3L446.2 74.7L447.4 74.7L447.4 74.7L454.9 74.7L454.9 74.4L465.2 74.4L465.2 73.9L468.7 73.9L468.7 73.6L474.2 73.6L474.2 73.5L522.8 73.5L522.8 73.4L568.9 73.4L568.9 73.4L599.7 73.4L599.7 71.4L1032.0 71.4" fill="none" stroke="#2b3a7a" stroke-width="2.6"/><path d="M400.1 246.9L406.6 253.4L400.1 259.9L393.6 253.4Z" fill="#c5961a" opacity="1.0" stroke="#ffffff" stroke-width="1.4"/><path d="M466.6 206.5L473.1 213.0L466.6 219.5L460.1 213.0Z" fill="#c5961a" opacity="1.0" stroke="#ffffff" stroke-width="1.4"/><path d="M474.2 67.0L480.7 73.5L474.2 80.0L467.7 73.5Z" fill="#c5961a" opacity="1.0" stroke="#ffffff" stroke-width="1.4"/><path d="M531.2 240.8L537.7 247.3L531.2 253.8L524.7 247.3Z" fill="#c5961a" opacity="1.0" stroke="#ffffff" stroke-width="1.4"/><path d="M531.6 238.0L538.1 244.5L531.6 251.0L525.1 244.5Z" fill="#c5961a" opacity="1.0" stroke="#ffffff" stroke-width="1.4"/><text x="1042" y="53.0" font-size="11.5" fill="#6675b0">– – raw best 535.9</text><text x="1042" y="67.0" font-size="10" fill="#8a8fa3">unverified (pending)</text><path d="M599.7 64.9L606.2 71.4L599.7 77.9L593.2 71.4Z" fill="#2b3a7a" opacity="1.0" stroke="#ffffff" stroke-width="1.4"/><text x="1042" y="99.4" font-size="12.5" fill="#2b3a7a" font-weight="bold">◆ verified 510.1</text><text x="1042" y="115.4" font-size="10.5" fill="#3a3f55">top verified</text><text x="60" y="24" font-size="13" font-weight="bold" fill="#3a3f55" letter-spacing="1.2">SCORE EVOLUTION — gemma-challenge (tok/s)</text><circle cx="452" cy="20" r="3" fill="#b9bdca"/><text x="460" y="24" font-size="10.5" fill="#8a8fa3">all results</text><path d="M544.0 16.4L547.6 20.0L544.0 23.6L540.4 20.0Z" fill="#2b3a7a" opacity="1.0" stroke="none" stroke-width="0"/><text x="552" y="24" font-size="10.5" fill="#8a8fa3">verified</text><path d="M620.0 15.5L624.5 20.0L620.0 24.5L615.5 20.0Z" fill="#c5961a" opacity="1.0" stroke="#fff" stroke-width="1"/><text x="629" y="24" font-size="10.5" fill="#8a8fa3">mikasa-inbound (us)</text></svg>