<svg viewBox="0 0 1200 440" xmlns="http://www.w3.org/2000/svg" font-family="ui-sans-serif,system-ui,-apple-system,sans-serif"><rect x="0" y="0" width="1200" height="440" fill="#ffffff"/><rect x="60" y="46" width="972" height="350" fill="#f3f4fb"/><line x1="60" y1="396.0" x2="1032" y2="396.0" stroke="#e3e5ef" stroke-width="1"/><text x="52" y="400.0" text-anchor="end" font-size="11" fill="#8a8fa3">0</text><line x1="60" y1="332.4" x2="1032" y2="332.4" stroke="#e3e5ef" stroke-width="1"/><text x="52" y="336.4" text-anchor="end" font-size="11" fill="#8a8fa3">100</text><line x1="60" y1="268.7" x2="1032" y2="268.7" stroke="#e3e5ef" stroke-width="1"/><text x="52" y="272.7" text-anchor="end" font-size="11" fill="#8a8fa3">200</text><line x1="60" y1="205.1" x2="1032" y2="205.1" stroke="#e3e5ef" stroke-width="1"/><text x="52" y="209.1" text-anchor="end" font-size="11" fill="#8a8fa3">300</text><line x1="60" y1="141.5" x2="1032" y2="141.5" stroke="#e3e5ef" stroke-width="1"/><text x="52" y="145.5" text-anchor="end" font-size="11" fill="#8a8fa3">400</text><line x1="60" y1="77.8" x2="1032" y2="77.8" stroke="#e3e5ef" stroke-width="1"/><text x="52" y="81.8" text-anchor="end" font-size="11" fill="#8a8fa3">500</text><line x1="108.4" y1="46" x2="108.4" y2="396" stroke="#e3e5ef" stroke-width="1"/><text x="108.4" y="414.0" text-anchor="middle" font-size="11" fill="#8a8fa3">Jun 10</text><line x1="177.4" y1="46" x2="177.4" y2="396" stroke="#e3e5ef" stroke-width="1"/><text x="177.4" y="414.0" text-anchor="middle" font-size="11" fill="#8a8fa3">Jun 12</text><line x1="246.3" y1="46" x2="246.3" y2="396" stroke="#e3e5ef" stroke-width="1"/><text x="246.3" y="414.0" text-anchor="middle" font-size="11" fill="#8a8fa3">Jun 14</text><line x1="315.3" y1="46" x2="315.3" y2="396" stroke="#e3e5ef" stroke-width="1"/><text x="315.3" y="414.0" text-anchor="middle" font-size="11" fill="#8a8fa3">Jun 16</text><line x1="384.3" y1="46" x2="384.3" y2="396" stroke="#e3e5ef" stroke-width="1"/><text x="384.3" y="414.0" text-anchor="middle" font-size="11" fill="#8a8fa3">Jun 18</text><line x1="453.3" y1="46" x2="453.3" y2="396" stroke="#e3e5ef" stroke-width="1"/><text x="453.3" y="414.0" text-anchor="middle" font-size="11" fill="#8a8fa3">Jun 20</text><line x1="522.3" y1="46" x2="522.3" y2="396" stroke="#e3e5ef" stroke-width="1"/><text x="522.3" y="414.0" text-anchor="middle" font-size="11" fill="#8a8fa3">Jun 22</text><line x1="591.3" y1="46" x2="591.3" y2="396" stroke="#e3e5ef" stroke-width="1"/><text x="591.3" y="414.0" text-anchor="middle" font-size="11" fill="#8a8fa3">Jun 24</text><line x1="660.3" y1="46" x2="660.3" y2="396" stroke="#e3e5ef" stroke-width="1"/><text x="660.3" y="414.0" text-anchor="middle" font-size="11" fill="#8a8fa3">Jun 26</text><line x1="729.3" y1="46" x2="729.3" y2="396" stroke="#e3e5ef" stroke-width="1"/><text x="729.3" y="414.0" text-anchor="middle" font-size="11" fill="#8a8fa3">Jun 28</text><line x1="798.3" y1="46" x2="798.3" y2="396" stroke="#e3e5ef" stroke-width="1"/><text x="798.3" y="414.0" text-anchor="middle" font-size="11" fill="#8a8fa3">Jun 30</text><line x1="867.2" y1="46" x2="867.2" y2="396" stroke="#e3e5ef" stroke-width="1"/><text x="867.2" y="414.0" text-anchor="middle" font-size="11" fill="#8a8fa3">Jul 2</text><line x1="936.2" y1="46" x2="936.2" y2="396" stroke="#e3e5ef" stroke-width="1"/><text x="936.2" y="414.0" text-anchor="middle" font-size="11" fill="#8a8fa3">Jul 4</text><line x1="1005.2" y1="46" x2="1005.2" y2="396" stroke="#e3e5ef" stroke-width="1"/><text x="1005.2" y="414.0" text-anchor="middle" font-size="11" fill="#8a8fa3">Jul 6</text><circle cx="60.0" cy="335.3" r="2.3" fill="#b9bdca" opacity="0.5"/><circle cx="61.7" cy="335.1" r="2.3" fill="#b9bdca" opacity="0.5"/><circle cx="63.3" cy="368.0" r="2.3" fill="#b9bdca" opacity="0.5"/><circle cx="64.0" cy="320.7" r="2.3" fill="#b9bdca" opacity="0.5"/><circle cx="68.6" cy="319.9" r="2.3" fill="#b9bdca" opacity="0.5"/><circle cx="68.8" cy="320.6" r="2.3" fill="#b9bdca" opacity="0.5"/><circle cx="70.3" cy="315.3" r="2.3" fill="#b9bdca" opacity="0.5"/><circle cx="70.6" cy="319.7" r="2.3" fill="#b9bdca" opacity="0.5"/><circle cx="70.8" cy="314.9" r="2.3" fill="#b9bdca" opacity="0.5"/><circle cx="71.3" cy="315.5" r="2.3" fill="#b9bdca" opacity="0.5"/><circle cx="71.5" cy="314.9" r="2.3" fill="#b9bdca" opacity="0.5"/><circle cx="72.0" cy="315.4" r="2.3" fill="#b9bdca" opacity="0.5"/><circle cx="72.8" cy="315.0" r="2.3" fill="#b9bdca" opacity="0.5"/><circle cx="98.9" cy="238.7" r="2.3" fill="#b9bdca" opacity="0.5"/><circle cx="99.2" cy="315.0" r="2.3" fill="#b9bdca" opacity="0.5"/><circle cx="99.4" cy="229.0" r="2.3" fill="#b9bdca" opacity="0.5"/><circle cx="99.8" cy="222.3" r="2.3" fill="#b9bdca" opacity="0.5"/><circle cx="100.2" cy="228.0" r="2.3" fill="#b9bdca" opacity="0.5"/><circle cx="100.3" cy="223.3" r="2.3" fill="#b9bdca" opacity="0.5"/><circle cx="100.4" cy="220.6" r="2.3" fill="#b9bdca" opacity="0.5"/><circle cx="100.5" cy="220.5" r="2.3" fill="#b9bdca" opacity="0.5"/><circle cx="100.6" cy="223.2" r="2.3" fill="#b9bdca" opacity="0.5"/><circle cx="100.8" cy="214.2" r="2.3" fill="#b9bdca" opacity="0.5"/><circle cx="100.8" cy="222.1" r="2.3" fill="#b9bdca" opacity="0.5"/><circle cx="101.0" cy="220.7" r="2.3" fill="#b9bdca" opacity="0.5"/><circle cx="101.3" cy="218.5" r="2.3" fill="#b9bdca" opacity="0.5"/><circle cx="101.4" cy="215.2" r="2.3" fill="#b9bdca" opacity="0.5"/><circle cx="101.6" cy="214.3" r="2.3" fill="#b9bdca" opacity="0.5"/><circle cx="101.6" cy="219.2" r="2.3" fill="#b9bdca" opacity="0.5"/><circle cx="101.8" cy="214.1" r="2.3" fill="#b9bdca" opacity="0.5"/><circle cx="102.0" cy="215.2" r="2.3" fill="#b9bdca" opacity="0.5"/><circle cx="102.1" cy="213.7" r="2.3" fill="#b9bdca" opacity="0.5"/><circle cx="102.4" cy="213.5" r="2.3" fill="#b9bdca" opacity="0.5"/><circle cx="102.5" cy="214.8" r="2.3" fill="#b9bdca" opacity="0.5"/><circle cx="102.5" cy="217.7" r="2.3" fill="#b9bdca" opacity="0.5"/><circle cx="102.7" cy="212.7" r="2.3" fill="#b9bdca" opacity="0.5"/><circle cx="103.1" cy="213.3" r="2.3" fill="#b9bdca" opacity="0.5"/><circle cx="103.5" cy="212.7" r="2.3" fill="#b9bdca" opacity="0.5"/><circle cx="103.5" cy="213.6" r="2.3" fill="#b9bdca" opacity="0.5"/><circle cx="103.7" cy="213.0" r="2.3" fill="#b9bdca" opacity="0.5"/><circle cx="104.0" cy="212.1" r="2.3" fill="#b9bdca" opacity="0.5"/><circle cx="104.1" cy="213.3" r="2.3" fill="#b9bdca" opacity="0.5"/><circle cx="104.4" cy="212.0" r="2.3" fill="#b9bdca" opacity="0.5"/><circle cx="104.9" cy="212.1" r="2.3" fill="#b9bdca" opacity="0.5"/><circle cx="104.9" cy="212.8" r="2.3" fill="#b9bdca" opacity="0.5"/><circle cx="108.0" cy="206.7" r="2.3" fill="#b9bdca" opacity="0.5"/><circle cx="108.5" cy="206.8" r="2.3" fill="#b9bdca" opacity="0.5"/><circle cx="108.5" cy="212.5" r="2.3" fill="#b9bdca" opacity="0.5"/><circle cx="108.7" cy="207.2" r="2.3" fill="#b9bdca" opacity="0.5"/><circle cx="109.7" cy="207.0" r="2.3" fill="#b9bdca" opacity="0.5"/><circle cx="112.1" cy="204.9" r="2.3" fill="#b9bdca" opacity="0.5"/><circle cx="113.7" cy="204.6" r="2.3" fill="#b9bdca" opacity="0.5"/><circle cx="113.8" cy="212.3" r="2.3" fill="#b9bdca" opacity="0.5"/><circle cx="114.1" cy="204.6" r="2.3" fill="#b9bdca" opacity="0.5"/><circle cx="114.1" cy="204.6" r="2.3" fill="#b9bdca" opacity="0.5"/><circle cx="114.1" cy="204.9" r="2.3" fill="#b9bdca" opacity="0.5"/><circle cx="114.1" cy="204.9" r="2.3" fill="#b9bdca" opacity="0.5"/><circle cx="114.7" cy="201.9" r="2.3" fill="#b9bdca" opacity="0.5"/><circle cx="115.6" cy="206.5" r="2.3" fill="#b9bdca" opacity="0.5"/><circle cx="116.0" cy="205.8" r="2.3" fill="#b9bdca" opacity="0.5"/><circle cx="116.0" cy="335.1" r="2.3" fill="#b9bdca" opacity="0.5"/><circle cx="116.5" cy="201.8" r="2.3" fill="#b9bdca" opacity="0.5"/><circle cx="116.5" cy="202.2" r="2.3" fill="#b9bdca" opacity="0.5"/><circle cx="117.4" cy="201.0" r="2.3" fill="#b9bdca" opacity="0.5"/><circle cx="117.8" cy="203.1" r="2.3" fill="#b9bdca" opacity="0.5"/><circle cx="118.0" cy="200.0" r="2.3" fill="#b9bdca" opacity="0.5"/><circle cx="118.0" cy="204.6" r="2.3" fill="#b9bdca" opacity="0.5"/><circle cx="118.5" cy="202.3" r="2.3" fill="#b9bdca" opacity="0.5"/><circle cx="119.7" cy="200.4" r="2.3" fill="#b9bdca" opacity="0.5"/><circle cx="120.1" cy="200.7" r="2.3" fill="#b9bdca" opacity="0.5"/><circle cx="120.6" cy="200.0" r="2.3" fill="#b9bdca" opacity="0.5"/><circle cx="121.7" cy="199.7" r="2.3" fill="#b9bdca" opacity="0.5"/><circle cx="128.3" cy="200.6" r="2.3" fill="#b9bdca" opacity="0.5"/><circle cx="128.9" cy="201.8" r="2.3" fill="#b9bdca" opacity="0.5"/><circle cx="129.8" cy="208.4" r="2.3" fill="#b9bdca" opacity="0.5"/><circle cx="129.8" cy="200.8" r="2.3" fill="#b9bdca" opacity="0.5"/><circle cx="130.5" cy="200.7" r="2.3" fill="#b9bdca" opacity="0.5"/><circle cx="130.5" cy="201.9" r="2.3" fill="#b9bdca" opacity="0.5"/><circle cx="130.7" cy="195.5" r="2.3" fill="#b9bdca" opacity="0.5"/><circle cx="131.3" cy="196.9" r="2.3" fill="#b9bdca" opacity="0.5"/><circle cx="131.6" cy="197.9" r="2.3" fill="#b9bdca" opacity="0.5"/><circle cx="132.2" cy="196.1" r="2.3" fill="#b9bdca" opacity="0.5"/><circle cx="134.2" cy="197.3" r="2.3" fill="#b9bdca" opacity="0.5"/><circle cx="134.8" cy="195.9" r="2.3" fill="#b9bdca" opacity="0.5"/><circle cx="135.0" cy="201.0" r="2.3" fill="#b9bdca" opacity="0.5"/><circle cx="135.1" cy="197.5" r="2.3" fill="#b9bdca" opacity="0.5"/><circle cx="135.6" cy="196.9" r="2.3" fill="#b9bdca" opacity="0.5"/><circle cx="135.6" cy="197.1" r="2.3" fill="#b9bdca" opacity="0.5"/><circle cx="135.6" cy="197.0" r="2.3" fill="#b9bdca" opacity="0.5"/><circle cx="136.1" cy="196.0" r="2.3" fill="#b9bdca" opacity="0.5"/><circle cx="136.1" cy="196.0" r="2.3" fill="#b9bdca" opacity="0.5"/><circle cx="136.2" cy="197.9" r="2.3" fill="#b9bdca" opacity="0.5"/><circle cx="136.5" cy="197.8" r="2.3" fill="#b9bdca" opacity="0.5"/><circle cx="136.8" cy="196.2" r="2.3" fill="#b9bdca" opacity="0.5"/><circle cx="136.8" cy="197.5" r="2.3" fill="#b9bdca" opacity="0.5"/><circle cx="136.9" cy="196.9" r="2.3" fill="#b9bdca" opacity="0.5"/><circle cx="136.9" cy="195.5" r="2.3" fill="#b9bdca" opacity="0.5"/><circle cx="137.3" cy="198.1" r="2.3" fill="#b9bdca" opacity="0.5"/><circle cx="137.4" cy="187.4" r="2.3" fill="#b9bdca" opacity="0.5"/><circle cx="137.6" cy="186.2" r="2.3" fill="#b9bdca" opacity="0.5"/><circle cx="137.6" cy="196.3" r="2.3" fill="#b9bdca" opacity="0.5"/><circle cx="137.6" cy="197.2" r="2.3" fill="#b9bdca" opacity="0.5"/><circle cx="137.6" cy="197.8" r="2.3" fill="#b9bdca" opacity="0.5"/><circle cx="137.6" cy="368.0" r="2.3" fill="#b9bdca" opacity="0.5"/><circle cx="138.0" cy="184.5" r="2.3" fill="#b9bdca" opacity="0.5"/><circle cx="139.8" cy="184.6" r="2.3" fill="#b9bdca" opacity="0.5"/><circle cx="140.6" cy="185.6" r="2.3" fill="#b9bdca" opacity="0.5"/><circle cx="143.2" cy="188.7" r="2.3" fill="#b9bdca" opacity="0.5"/><circle cx="146.7" cy="185.4" r="2.3" fill="#b9bdca" opacity="0.5"/><circle cx="147.4" cy="185.2" r="2.3" fill="#b9bdca" opacity="0.5"/><circle cx="147.7" cy="186.6" r="2.3" fill="#b9bdca" opacity="0.5"/><circle cx="147.8" cy="185.3" r="2.3" fill="#b9bdca" opacity="0.5"/><circle cx="148.4" cy="185.3" r="2.3" fill="#b9bdca" opacity="0.5"/><circle cx="148.7" cy="185.0" r="2.3" fill="#b9bdca" opacity="0.5"/><circle cx="149.3" cy="184.9" r="2.3" fill="#b9bdca" opacity="0.5"/><circle cx="149.7" cy="185.1" r="2.3" fill="#b9bdca" opacity="0.5"/><circle cx="149.7" cy="185.2" r="2.3" fill="#b9bdca" opacity="0.5"/><circle cx="149.7" cy="186.4" r="2.3" fill="#b9bdca" opacity="0.5"/><circle cx="149.8" cy="183.9" r="2.3" fill="#b9bdca" opacity="0.5"/><circle cx="153.0" cy="184.4" r="2.3" fill="#b9bdca" opacity="0.5"/><circle cx="153.5" cy="184.2" r="2.3" fill="#b9bdca" opacity="0.5"/><circle cx="155.6" cy="169.3" r="2.3" fill="#b9bdca" opacity="0.5"/><circle cx="157.5" cy="168.8" r="2.3" fill="#b9bdca" opacity="0.5"/><circle cx="157.6" cy="167.7" r="2.3" fill="#b9bdca" opacity="0.5"/><circle cx="158.5" cy="201.4" r="2.3" fill="#b9bdca" opacity="0.5"/><circle cx="158.7" cy="165.0" r="2.3" fill="#b9bdca" opacity="0.5"/><circle cx="158.9" cy="198.2" r="2.3" fill="#b9bdca" opacity="0.5"/><circle cx="159.2" cy="163.7" r="2.3" fill="#b9bdca" opacity="0.5"/><circle cx="159.3" cy="163.6" r="2.3" fill="#b9bdca" opacity="0.5"/><circle cx="159.6" cy="165.9" r="2.3" fill="#b9bdca" opacity="0.5"/><circle cx="161.4" cy="165.1" r="2.3" fill="#b9bdca" opacity="0.5"/><circle cx="161.8" cy="155.9" r="2.3" fill="#b9bdca" opacity="0.5"/><circle cx="163.5" cy="196.5" r="2.3" fill="#b9bdca" opacity="0.5"/><circle cx="164.2" cy="157.4" r="2.3" fill="#b9bdca" opacity="0.5"/><circle cx="164.8" cy="155.8" r="2.3" fill="#b9bdca" opacity="0.5"/><circle cx="165.9" cy="141.9" r="2.3" fill="#b9bdca" opacity="0.5"/><circle cx="168.2" cy="156.1" r="2.3" fill="#b9bdca" opacity="0.5"/><circle cx="168.2" cy="156.4" r="2.3" fill="#b9bdca" opacity="0.5"/><circle cx="168.3" cy="141.8" r="2.3" fill="#b9bdca" opacity="0.5"/><circle cx="168.4" cy="196.0" r="2.3" fill="#b9bdca" opacity="0.5"/><circle cx="169.2" cy="131.7" r="2.3" fill="#b9bdca" opacity="0.5"/><circle cx="169.3" cy="134.1" r="2.3" fill="#b9bdca" opacity="0.5"/><circle cx="169.6" cy="141.1" r="2.3" fill="#b9bdca" opacity="0.5"/><circle cx="170.0" cy="134.0" r="2.3" fill="#b9bdca" opacity="0.5"/><circle cx="170.0" cy="130.9" r="2.3" fill="#b9bdca" opacity="0.5"/><circle cx="170.0" cy="154.2" r="2.3" fill="#b9bdca" opacity="0.5"/><circle cx="170.2" cy="133.6" r="2.3" fill="#b9bdca" opacity="0.5"/><circle cx="170.4" cy="129.5" r="2.3" fill="#b9bdca" opacity="0.5"/><circle cx="170.4" cy="130.9" r="2.3" fill="#b9bdca" opacity="0.5"/><circle cx="170.4" cy="133.4" r="2.3" fill="#b9bdca" opacity="0.5"/><circle cx="170.6" cy="131.2" r="2.3" fill="#b9bdca" opacity="0.5"/><circle cx="172.0" cy="189.8" r="2.3" fill="#b9bdca" opacity="0.5"/><circle cx="172.1" cy="133.2" r="2.3" fill="#b9bdca" opacity="0.5"/><circle cx="172.3" cy="133.5" r="2.3" fill="#b9bdca" opacity="0.5"/><circle cx="172.8" cy="130.1" r="2.3" fill="#b9bdca" opacity="0.5"/><circle cx="174.2" cy="130.3" r="2.3" fill="#b9bdca" opacity="0.5"/><circle cx="174.9" cy="303.1" r="2.3" fill="#b9bdca" opacity="0.5"/><circle cx="176.0" cy="133.2" r="2.3" fill="#b9bdca" opacity="0.5"/><circle cx="177.6" cy="144.2" r="2.3" fill="#b9bdca" opacity="0.5"/><circle cx="177.9" cy="135.3" r="2.3" fill="#b9bdca" opacity="0.5"/><circle cx="178.9" cy="133.4" r="2.3" fill="#b9bdca" opacity="0.5"/><circle cx="179.0" cy="159.9" r="2.3" fill="#b9bdca" opacity="0.5"/><circle cx="179.2" cy="130.8" r="2.3" fill="#b9bdca" opacity="0.5"/><circle cx="179.6" cy="133.2" r="2.3" fill="#b9bdca" opacity="0.5"/><circle cx="183.1" cy="130.9" r="2.3" fill="#b9bdca" opacity="0.5"/><circle cx="183.5" cy="130.9" r="2.3" fill="#b9bdca" opacity="0.5"/><circle cx="183.5" cy="133.8" r="2.3" fill="#b9bdca" opacity="0.5"/><circle cx="184.1" cy="130.4" r="2.3" fill="#b9bdca" opacity="0.5"/><circle cx="184.4" cy="153.7" r="2.3" fill="#b9bdca" opacity="0.5"/><circle cx="185.1" cy="133.3" r="2.3" fill="#b9bdca" opacity="0.5"/><circle cx="186.2" cy="156.5" r="2.3" fill="#b9bdca" opacity="0.5"/><circle cx="186.4" cy="132.3" r="2.3" fill="#b9bdca" opacity="0.5"/><circle cx="187.7" cy="147.2" r="2.3" fill="#b9bdca" opacity="0.5"/><circle cx="187.9" cy="133.6" r="2.3" fill="#b9bdca" opacity="0.5"/><circle cx="188.3" cy="129.5" r="2.3" fill="#b9bdca" opacity="0.5"/><circle cx="188.3" cy="133.3" r="2.3" fill="#b9bdca" opacity="0.5"/><circle cx="189.9" cy="133.3" r="2.3" fill="#b9bdca" opacity="0.5"/><circle cx="190.9" cy="129.5" r="2.3" fill="#b9bdca" opacity="0.5"/><circle cx="192.7" cy="130.6" r="2.3" fill="#b9bdca" opacity="0.5"/><circle cx="194.0" cy="128.9" r="2.3" fill="#b9bdca" opacity="0.5"/><circle cx="194.3" cy="132.7" r="2.3" fill="#b9bdca" opacity="0.5"/><circle cx="194.3" cy="133.1" r="2.3" fill="#b9bdca" opacity="0.5"/><circle cx="196.3" cy="129.8" r="2.3" fill="#b9bdca" opacity="0.5"/><circle cx="196.8" cy="333.8" r="2.3" fill="#b9bdca" opacity="0.5"/><circle cx="197.0" cy="128.4" r="2.3" fill="#b9bdca" opacity="0.5"/><circle cx="197.9" cy="129.8" r="2.3" fill="#b9bdca" opacity="0.5"/><circle cx="198.2" cy="128.9" r="2.3" fill="#b9bdca" opacity="0.5"/><circle cx="198.3" cy="128.9" r="2.3" fill="#b9bdca" opacity="0.5"/><circle cx="199.0" cy="128.2" r="2.3" fill="#b9bdca" opacity="0.5"/><circle cx="199.5" cy="129.7" r="2.3" fill="#b9bdca" opacity="0.5"/><circle cx="199.7" cy="142.3" r="2.3" fill="#b9bdca" opacity="0.5"/><circle cx="201.5" cy="128.8" r="2.3" fill="#b9bdca" opacity="0.5"/><circle cx="202.6" cy="161.1" r="2.3" fill="#b9bdca" opacity="0.5"/><circle cx="204.8" cy="164.4" r="2.3" fill="#b9bdca" opacity="0.5"/><circle cx="205.0" cy="248.3" r="2.3" fill="#b9bdca" opacity="0.5"/><circle cx="208.0" cy="135.4" r="2.3" fill="#b9bdca" opacity="0.5"/><circle cx="208.3" cy="128.0" r="2.3" fill="#b9bdca" opacity="0.5"/><circle cx="209.2" cy="229.0" r="2.3" fill="#b9bdca" opacity="0.5"/><circle cx="211.3" cy="128.1" r="2.3" fill="#b9bdca" opacity="0.5"/><circle cx="211.9" cy="128.6" r="2.3" fill="#b9bdca" opacity="0.5"/><circle cx="213.8" cy="128.8" r="2.3" fill="#b9bdca" opacity="0.5"/><circle cx="213.8" cy="129.6" r="2.3" fill="#b9bdca" opacity="0.5"/><circle cx="213.8" cy="130.9" r="2.3" fill="#b9bdca" opacity="0.5"/><circle cx="218.0" cy="112.8" r="2.3" fill="#b9bdca" opacity="0.5"/><circle cx="220.1" cy="110.2" r="2.3" fill="#b9bdca" opacity="0.5"/><circle cx="220.2" cy="111.6" r="2.3" fill="#b9bdca" opacity="0.5"/><circle cx="221.5" cy="111.0" r="2.3" fill="#b9bdca" opacity="0.5"/><circle cx="222.2" cy="335.1" r="2.3" fill="#b9bdca" opacity="0.5"/><circle cx="222.6" cy="111.6" r="2.3" fill="#b9bdca" opacity="0.5"/><circle cx="223.9" cy="105.5" r="2.3" fill="#b9bdca" opacity="0.5"/><circle cx="224.1" cy="108.5" r="2.3" fill="#b9bdca" opacity="0.5"/><circle cx="224.7" cy="105.1" r="2.3" fill="#b9bdca" opacity="0.5"/><circle cx="225.3" cy="103.8" r="2.3" fill="#b9bdca" opacity="0.5"/><circle cx="226.1" cy="125.8" r="2.3" fill="#b9bdca" opacity="0.5"/><circle cx="232.0" cy="103.5" r="2.3" fill="#b9bdca" opacity="0.5"/><circle cx="233.6" cy="127.8" r="2.3" fill="#b9bdca" opacity="0.5"/><circle cx="234.2" cy="334.3" r="2.3" fill="#b9bdca" opacity="0.5"/><circle cx="235.2" cy="128.6" r="2.3" fill="#b9bdca" opacity="0.5"/><circle cx="235.6" cy="128.6" r="2.3" fill="#b9bdca" opacity="0.5"/><circle cx="235.7" cy="128.6" r="2.3" fill="#b9bdca" opacity="0.5"/><circle cx="236.2" cy="256.6" r="2.3" fill="#b9bdca" opacity="0.5"/><circle cx="236.9" cy="254.6" r="2.3" fill="#b9bdca" opacity="0.5"/><circle cx="238.0" cy="128.6" r="2.3" fill="#b9bdca" opacity="0.5"/><circle cx="240.7" cy="250.1" r="2.3" fill="#b9bdca" opacity="0.5"/><circle cx="241.0" cy="161.4" r="2.3" fill="#b9bdca" opacity="0.5"/><circle cx="241.3" cy="206.6" r="2.3" fill="#b9bdca" opacity="0.5"/><circle cx="243.8" cy="113.5" r="2.3" fill="#b9bdca" opacity="0.5"/><circle cx="244.6" cy="89.6" r="2.3" fill="#b9bdca" opacity="0.5"/><circle cx="245.3" cy="90.2" r="2.3" fill="#b9bdca" opacity="0.5"/><circle cx="246.8" cy="89.3" r="2.3" fill="#b9bdca" opacity="0.5"/><circle cx="247.3" cy="87.6" r="2.3" fill="#b9bdca" opacity="0.5"/><circle cx="247.8" cy="185.0" r="2.3" fill="#b9bdca" opacity="0.5"/><circle cx="248.4" cy="131.6" r="2.3" fill="#b9bdca" opacity="0.5"/><circle cx="248.8" cy="87.8" r="2.3" fill="#b9bdca" opacity="0.5"/><circle cx="249.5" cy="85.4" r="2.3" fill="#b9bdca" opacity="0.5"/><circle cx="250.7" cy="86.8" r="2.3" fill="#b9bdca" opacity="0.5"/><circle cx="251.8" cy="88.4" r="2.3" fill="#b9bdca" opacity="0.5"/><circle cx="256.5" cy="89.5" r="2.3" fill="#b9bdca" opacity="0.5"/><circle cx="256.5" cy="155.6" r="2.3" fill="#b9bdca" opacity="0.5"/><circle cx="256.6" cy="84.4" r="2.3" fill="#b9bdca" opacity="0.5"/><circle cx="262.2" cy="89.2" r="2.3" fill="#b9bdca" opacity="0.5"/><circle cx="262.3" cy="90.5" r="2.3" fill="#b9bdca" opacity="0.5"/><circle cx="263.9" cy="87.7" r="2.3" fill="#b9bdca" opacity="0.5"/><circle cx="264.5" cy="367.9" r="2.3" fill="#b9bdca" opacity="0.5"/><circle cx="266.8" cy="164.3" r="2.3" fill="#b9bdca" opacity="0.5"/><circle cx="267.9" cy="94.6" r="2.3" fill="#b9bdca" opacity="0.5"/><circle cx="268.3" cy="89.6" r="2.3" fill="#b9bdca" opacity="0.5"/><circle cx="273.2" cy="124.6" r="2.3" fill="#b9bdca" opacity="0.5"/><circle cx="278.4" cy="146.2" r="2.3" fill="#b9bdca" opacity="0.5"/><circle cx="278.5" cy="90.5" r="2.3" fill="#b9bdca" opacity="0.5"/><circle cx="279.0" cy="87.7" r="2.3" fill="#b9bdca" opacity="0.5"/><circle cx="279.3" cy="87.7" r="2.3" fill="#b9bdca" opacity="0.5"/><circle cx="279.3" cy="89.6" r="2.3" fill="#b9bdca" opacity="0.5"/><circle cx="283.0" cy="93.0" r="2.3" fill="#b9bdca" opacity="0.5"/><circle cx="284.3" cy="85.5" r="2.3" fill="#b9bdca" opacity="0.5"/><circle cx="295.2" cy="334.8" r="2.3" fill="#b9bdca" opacity="0.5"/><circle cx="296.5" cy="86.3" r="2.3" fill="#b9bdca" opacity="0.5"/><circle cx="300.2" cy="85.5" r="2.3" fill="#b9bdca" opacity="0.5"/><circle cx="300.8" cy="84.6" r="2.3" fill="#b9bdca" opacity="0.5"/><circle cx="302.3" cy="87.8" r="2.3" fill="#b9bdca" opacity="0.5"/><circle cx="303.0" cy="84.4" r="2.3" fill="#b9bdca" opacity="0.5"/><circle cx="303.3" cy="84.8" r="2.3" fill="#b9bdca" opacity="0.5"/><circle cx="304.4" cy="87.4" r="2.3" fill="#b9bdca" opacity="0.5"/><circle cx="310.3" cy="84.4" r="2.3" fill="#b9bdca" opacity="0.5"/><circle cx="336.0" cy="89.3" r="2.3" fill="#b9bdca" opacity="0.5"/><circle cx="340.7" cy="88.6" r="2.3" fill="#b9bdca" opacity="0.5"/><circle cx="340.7" cy="92.1" r="2.3" fill="#b9bdca" opacity="0.5"/><circle cx="341.7" cy="156.8" r="2.3" fill="#b9bdca" opacity="0.5"/><circle cx="356.5" cy="201.6" r="2.3" fill="#b9bdca" opacity="0.5"/><circle cx="367.4" cy="315.6" r="2.3" fill="#b9bdca" opacity="0.5"/><circle cx="397.0" cy="87.7" r="2.3" fill="#b9bdca" opacity="0.5"/><circle cx="406.0" cy="87.6" r="2.3" fill="#b9bdca" opacity="0.5"/><circle cx="414.0" cy="87.2" r="2.3" fill="#b9bdca" opacity="0.5"/><circle cx="415.8" cy="88.8" r="2.3" fill="#b9bdca" opacity="0.5"/><circle cx="416.5" cy="89.2" r="2.3" fill="#b9bdca" opacity="0.5"/><circle cx="416.9" cy="90.9" r="2.3" fill="#b9bdca" opacity="0.5"/><circle cx="419.2" cy="87.7" r="2.3" fill="#b9bdca" opacity="0.5"/><circle cx="427.2" cy="88.6" r="2.3" fill="#b9bdca" opacity="0.5"/><circle cx="428.3" cy="89.7" r="2.3" fill="#b9bdca" opacity="0.5"/><circle cx="428.9" cy="88.2" r="2.3" fill="#b9bdca" opacity="0.5"/><circle cx="444.0" cy="75.8" r="2.3" fill="#b9bdca" opacity="0.5"/><circle cx="445.2" cy="75.7" r="2.3" fill="#b9bdca" opacity="0.5"/><circle cx="446.0" cy="76.7" r="2.3" fill="#b9bdca" opacity="0.5"/><circle cx="446.1" cy="75.8" r="2.3" fill="#b9bdca" opacity="0.5"/><circle cx="446.6" cy="75.3" r="2.3" fill="#b9bdca" opacity="0.5"/><circle cx="446.8" cy="74.7" r="2.3" fill="#b9bdca" opacity="0.5"/><circle cx="446.9" cy="83.4" r="2.3" fill="#b9bdca" opacity="0.5"/><circle cx="447.3" cy="76.2" r="2.3" fill="#b9bdca" opacity="0.5"/><circle cx="447.7" cy="78.1" r="2.3" fill="#b9bdca" opacity="0.5"/><circle cx="448.0" cy="74.7" r="2.3" fill="#b9bdca" opacity="0.5"/><circle cx="450.5" cy="89.3" r="2.3" fill="#b9bdca" opacity="0.5"/><circle cx="455.5" cy="74.4" r="2.3" fill="#b9bdca" opacity="0.5"/><circle cx="463.5" cy="74.4" r="2.3" fill="#b9bdca" opacity="0.5"/><circle cx="464.8" cy="335.1" r="2.3" fill="#b9bdca" opacity="0.5"/><circle cx="464.8" cy="81.7" r="2.3" fill="#b9bdca" opacity="0.5"/><circle cx="465.8" cy="74.6" r="2.3" fill="#b9bdca" opacity="0.5"/><circle cx="465.8" cy="82.1" r="2.3" fill="#b9bdca" opacity="0.5"/><circle cx="465.8" cy="73.9" r="2.3" fill="#b9bdca" opacity="0.5"/><circle cx="468.1" cy="76.2" r="2.3" fill="#b9bdca" opacity="0.5"/><circle cx="468.4" cy="82.1" r="2.3" fill="#b9bdca" opacity="0.5"/><circle cx="468.8" cy="74.2" r="2.3" fill="#b9bdca" opacity="0.5"/><circle cx="468.8" cy="75.0" r="2.3" fill="#b9bdca" opacity="0.5"/><circle cx="469.3" cy="73.6" r="2.3" fill="#b9bdca" opacity="0.5"/><circle cx="469.3" cy="83.3" r="2.3" fill="#b9bdca" opacity="0.5"/><circle cx="469.3" cy="83.8" r="2.3" fill="#b9bdca" opacity="0.5"/><circle cx="469.3" cy="78.1" r="2.3" fill="#b9bdca" opacity="0.5"/><circle cx="469.3" cy="81.5" r="2.3" fill="#b9bdca" opacity="0.5"/><circle cx="469.3" cy="83.0" r="2.3" fill="#b9bdca" opacity="0.5"/><circle cx="469.3" cy="83.7" r="2.3" fill="#b9bdca" opacity="0.5"/><circle cx="472.5" cy="82.7" r="2.3" fill="#b9bdca" opacity="0.5"/><circle cx="473.2" cy="77.8" r="2.3" fill="#b9bdca" opacity="0.5"/><circle cx="474.8" cy="69.8" r="2.3" fill="#b9bdca" opacity="0.5"/><circle cx="475.4" cy="75.9" r="2.3" fill="#b9bdca" opacity="0.5"/><circle cx="475.6" cy="74.3" r="2.3" fill="#b9bdca" opacity="0.5"/><circle cx="475.6" cy="77.4" r="2.3" fill="#b9bdca" opacity="0.5"/><circle cx="475.6" cy="80.6" r="2.3" fill="#b9bdca" opacity="0.5"/><circle cx="475.6" cy="81.8" r="2.3" fill="#b9bdca" opacity="0.5"/><circle cx="476.8" cy="76.9" r="2.3" fill="#b9bdca" opacity="0.5"/><circle cx="476.8" cy="82.8" r="2.3" fill="#b9bdca" opacity="0.5"/><circle cx="476.8" cy="83.0" r="2.3" fill="#b9bdca" opacity="0.5"/><circle cx="476.8" cy="83.1" r="2.3" fill="#b9bdca" opacity="0.5"/><circle cx="477.3" cy="69.1" r="2.3" fill="#b9bdca" opacity="0.5"/><circle cx="478.6" cy="75.5" r="2.3" fill="#b9bdca" opacity="0.5"/><circle cx="479.3" cy="74.3" r="2.3" fill="#b9bdca" opacity="0.5"/><circle cx="499.5" cy="74.0" r="2.3" fill="#b9bdca" opacity="0.5"/><circle cx="523.5" cy="73.4" r="2.3" fill="#b9bdca" opacity="0.5"/><circle cx="523.7" cy="75.9" r="2.3" fill="#b9bdca" opacity="0.5"/><circle cx="523.7" cy="76.3" r="2.3" fill="#b9bdca" opacity="0.5"/><circle cx="523.9" cy="76.0" r="2.3" fill="#b9bdca" opacity="0.5"/><circle cx="523.9" cy="76.8" r="2.3" fill="#b9bdca" opacity="0.5"/><circle cx="523.9" cy="81.2" r="2.3" fill="#b9bdca" opacity="0.5"/><circle cx="523.9" cy="83.4" r="2.3" fill="#b9bdca" opacity="0.5"/><circle cx="540.9" cy="76.6" r="2.3" fill="#b9bdca" opacity="0.5"/><circle cx="542.0" cy="76.7" r="2.3" fill="#b9bdca" opacity="0.5"/><circle cx="542.0" cy="82.8" r="2.3" fill="#b9bdca" opacity="0.5"/><circle cx="542.0" cy="82.8" r="2.3" fill="#b9bdca" opacity="0.5"/><circle cx="542.0" cy="83.3" r="2.3" fill="#b9bdca" opacity="0.5"/><circle cx="545.6" cy="233.4" r="2.3" fill="#b9bdca" opacity="0.5"/><circle cx="546.6" cy="228.9" r="2.3" fill="#b9bdca" opacity="0.5"/><circle cx="547.7" cy="198.3" r="2.3" fill="#b9bdca" opacity="0.5"/><circle cx="569.7" cy="73.4" r="2.3" fill="#b9bdca" opacity="0.5"/><circle cx="575.9" cy="192.4" r="2.3" fill="#b9bdca" opacity="0.5"/><circle cx="578.1" cy="75.3" r="2.3" fill="#b9bdca" opacity="0.5"/><circle cx="578.6" cy="74.0" r="2.3" fill="#b9bdca" opacity="0.5"/><circle cx="580.0" cy="194.4" r="2.3" fill="#b9bdca" opacity="0.5"/><circle cx="582.2" cy="168.6" r="2.3" fill="#b9bdca" opacity="0.5"/><circle cx="583.5" cy="77.1" r="2.3" fill="#b9bdca" opacity="0.5"/><circle cx="583.5" cy="99.5" r="2.3" fill="#b9bdca" opacity="0.5"/><circle cx="600.5" cy="71.4" r="2.3" fill="#b9bdca" opacity="0.5"/><circle cx="600.5" cy="73.5" r="2.3" fill="#b9bdca" opacity="0.5"/><circle cx="606.6" cy="72.4" r="2.3" fill="#b9bdca" opacity="0.5"/><circle cx="631.5" cy="83.0" r="2.3" fill="#b9bdca" opacity="0.5"/><circle cx="631.8" cy="72.1" r="2.3" fill="#b9bdca" opacity="0.5"/><circle cx="632.2" cy="71.6" r="2.3" fill="#b9bdca" opacity="0.5"/><circle cx="632.9" cy="75.5" r="2.3" fill="#b9bdca" opacity="0.5"/><circle cx="633.3" cy="73.7" r="2.3" fill="#b9bdca" opacity="0.5"/><circle cx="634.4" cy="72.9" r="2.3" fill="#b9bdca" opacity="0.5"/><circle cx="634.8" cy="73.4" r="2.3" fill="#b9bdca" opacity="0.5"/><circle cx="683.4" cy="85.2" r="2.3" fill="#b9bdca" opacity="0.5"/><circle cx="683.4" cy="256.6" r="2.3" fill="#b9bdca" opacity="0.5"/><circle cx="683.4" cy="335.3" r="2.3" fill="#b9bdca" opacity="0.5"/><circle cx="683.8" cy="86.8" r="2.3" fill="#b9bdca" opacity="0.5"/><circle cx="684.2" cy="71.5" r="2.3" fill="#b9bdca" opacity="0.5"/><circle cx="685.5" cy="71.0" r="2.3" fill="#b9bdca" opacity="0.5"/><circle cx="686.2" cy="71.5" r="2.3" fill="#b9bdca" opacity="0.5"/><circle cx="686.3" cy="55.0" r="2.3" fill="#b9bdca" opacity="0.5"/><circle cx="693.1" cy="83.1" r="2.3" fill="#b9bdca" opacity="0.5"/><circle cx="694.8" cy="74.7" r="2.3" fill="#b9bdca" opacity="0.5"/><circle cx="694.9" cy="59.3" r="2.3" fill="#b9bdca" opacity="0.5"/><circle cx="694.9" cy="79.9" r="2.3" fill="#b9bdca" opacity="0.5"/><circle cx="695.1" cy="74.1" r="2.3" fill="#b9bdca" opacity="0.5"/><circle cx="695.4" cy="72.7" r="2.3" fill="#b9bdca" opacity="0.5"/><circle cx="695.4" cy="73.8" r="2.3" fill="#b9bdca" opacity="0.5"/><circle cx="695.4" cy="75.9" r="2.3" fill="#b9bdca" opacity="0.5"/><circle cx="695.8" cy="74.1" r="2.3" fill="#b9bdca" opacity="0.5"/><circle cx="696.1" cy="73.5" r="2.3" fill="#b9bdca" opacity="0.5"/><circle cx="696.5" cy="74.2" r="2.3" fill="#b9bdca" opacity="0.5"/><circle cx="696.9" cy="71.5" r="2.3" fill="#b9bdca" opacity="0.5"/><circle cx="697.9" cy="74.3" r="2.3" fill="#b9bdca" opacity="0.5"/><circle cx="703.3" cy="73.2" r="2.3" fill="#b9bdca" opacity="0.5"/><circle cx="703.3" cy="73.6" r="2.3" fill="#b9bdca" opacity="0.5"/><circle cx="703.3" cy="73.8" r="2.3" fill="#b9bdca" opacity="0.5"/><circle cx="713.8" cy="73.3" r="2.3" fill="#b9bdca" opacity="0.5"/><circle cx="713.8" cy="73.4" r="2.3" fill="#b9bdca" opacity="0.5"/><circle cx="737.7" cy="96.1" r="2.3" fill="#b9bdca" opacity="0.5"/><circle cx="835.7" cy="95.6" r="2.3" fill="#b9bdca" opacity="0.5"/><circle cx="868.0" cy="74.8" r="2.3" fill="#b9bdca" opacity="0.5"/><circle cx="869.6" cy="72.3" r="2.3" fill="#b9bdca" opacity="0.5"/><circle cx="878.9" cy="79.9" r="2.3" fill="#b9bdca" opacity="0.5"/><circle cx="878.9" cy="80.6" r="2.3" fill="#b9bdca" opacity="0.5"/><circle cx="897.4" cy="73.3" r="2.3" fill="#b9bdca" opacity="0.5"/><circle cx="897.4" cy="72.8" r="2.3" fill="#b9bdca" opacity="0.5"/><circle cx="897.4" cy="73.0" r="2.3" fill="#b9bdca" opacity="0.5"/><circle cx="897.4" cy="73.2" r="2.3" fill="#b9bdca" opacity="0.5"/><circle cx="897.4" cy="73.5" r="2.3" fill="#b9bdca" opacity="0.5"/><circle cx="897.4" cy="73.6" r="2.3" fill="#b9bdca" opacity="0.5"/><circle cx="897.4" cy="73.7" r="2.3" fill="#b9bdca" opacity="0.5"/><circle cx="898.0" cy="73.1" r="2.3" fill="#b9bdca" opacity="0.5"/><circle cx="898.0" cy="73.2" r="2.3" fill="#b9bdca" opacity="0.5"/><circle cx="898.0" cy="74.3" r="2.3" fill="#b9bdca" opacity="0.5"/><circle cx="898.0" cy="74.5" r="2.3" fill="#b9bdca" opacity="0.5"/><circle cx="898.0" cy="72.8" r="2.3" fill="#b9bdca" opacity="0.5"/><circle cx="898.4" cy="74.7" r="2.3" fill="#b9bdca" opacity="0.5"/><circle cx="943.2" cy="332.5" r="2.3" fill="#b9bdca" opacity="0.5"/><circle cx="996.8" cy="117.5" r="2.3" fill="#b9bdca" opacity="0.5"/><circle cx="996.8" cy="211.0" r="2.3" fill="#b9bdca" opacity="0.5"/><circle cx="1010.3" cy="93.9" r="2.3" fill="#b9bdca" opacity="0.5"/><circle cx="1031.3" cy="74.9" r="2.3" fill="#b9bdca" opacity="0.5"/><circle cx="1031.6" cy="73.4" r="2.3" fill="#b9bdca" opacity="0.5"/><circle cx="1032.0" cy="72.9" r="2.3" fill="#b9bdca" opacity="0.5"/><path d="M161.8 152.3L165.4 155.9L161.8 159.5L158.2 155.9Z" fill="#2b3a7a" opacity="0.8" stroke="none" stroke-width="0"/><path d="M168.3 138.2L171.9 141.8L168.3 145.4L164.7 141.8Z" fill="#2b3a7a" opacity="0.8" stroke="none" stroke-width="0"/><path d="M169.2 128.1L172.8 131.7L169.2 135.3L165.6 131.7Z" fill="#2b3a7a" opacity="0.8" stroke="none" stroke-width="0"/><path d="M169.3 130.5L172.9 134.1L169.3 137.7L165.7 134.1Z" fill="#2b3a7a" opacity="0.8" stroke="none" stroke-width="0"/><path d="M170.0 127.3L173.6 130.9L170.0 134.5L166.4 130.9Z" fill="#2b3a7a" opacity="0.8" stroke="none" stroke-width="0"/><path d="M170.4 125.9L174.0 129.5L170.4 133.1L166.8 129.5Z" fill="#2b3a7a" opacity="0.8" stroke="none" stroke-width="0"/><path d="M170.4 127.3L174.0 130.9L170.4 134.5L166.8 130.9Z" fill="#2b3a7a" opacity="0.8" stroke="none" stroke-width="0"/><path d="M190.9 125.9L194.5 129.5L190.9 133.1L187.3 129.5Z" fill="#2b3a7a" opacity="0.8" stroke="none" stroke-width="0"/><path d="M194.0 125.3L197.6 128.9L194.0 132.5L190.4 128.9Z" fill="#2b3a7a" opacity="0.8" stroke="none" stroke-width="0"/><path d="M197.0 124.8L200.6 128.4L197.0 132.0L193.4 128.4Z" fill="#2b3a7a" opacity="0.8" stroke="none" stroke-width="0"/><path d="M199.0 124.6L202.6 128.2L199.0 131.8L195.4 128.2Z" fill="#2b3a7a" opacity="0.8" stroke="none" stroke-width="0"/><path d="M208.3 124.4L211.9 128.0L208.3 131.6L204.7 128.0Z" fill="#2b3a7a" opacity="0.8" stroke="none" stroke-width="0"/><path d="M218.0 109.2L221.6 112.8L218.0 116.4L214.4 112.8Z" fill="#2b3a7a" opacity="0.8" stroke="none" stroke-width="0"/><path d="M222.6 108.0L226.2 111.6L222.6 115.2L219.0 111.6Z" fill="#2b3a7a" opacity="0.8" stroke="none" stroke-width="0"/><path d="M223.9 101.9L227.5 105.5L223.9 109.1L220.3 105.5Z" fill="#2b3a7a" opacity="0.8" stroke="none" stroke-width="0"/><path d="M224.1 104.9L227.7 108.5L224.1 112.1L220.5 108.5Z" fill="#2b3a7a" opacity="0.8" stroke="none" stroke-width="0"/><path d="M224.7 101.5L228.3 105.1L224.7 108.7L221.1 105.1Z" fill="#2b3a7a" opacity="0.8" stroke="none" stroke-width="0"/><path d="M225.3 100.2L228.9 103.8L225.3 107.4L221.7 103.8Z" fill="#2b3a7a" opacity="0.8" stroke="none" stroke-width="0"/><path d="M232.0 99.9L235.6 103.5L232.0 107.1L228.4 103.5Z" fill="#2b3a7a" opacity="0.8" stroke="none" stroke-width="0"/><path d="M244.6 86.0L248.2 89.6L244.6 93.2L241.0 89.6Z" fill="#2b3a7a" opacity="0.8" stroke="none" stroke-width="0"/><path d="M246.8 85.7L250.4 89.3L246.8 92.9L243.2 89.3Z" fill="#2b3a7a" opacity="0.8" stroke="none" stroke-width="0"/><path d="M247.3 84.0L250.9 87.6L247.3 91.2L243.7 87.6Z" fill="#2b3a7a" opacity="0.8" stroke="none" stroke-width="0"/><path d="M249.5 81.8L253.1 85.4L249.5 89.0L245.9 85.4Z" fill="#2b3a7a" opacity="0.8" stroke="none" stroke-width="0"/><path d="M256.6 80.8L260.2 84.4L256.6 88.0L253.0 84.4Z" fill="#2b3a7a" opacity="0.8" stroke="none" stroke-width="0"/><path d="M310.3 80.8L313.9 84.4L310.3 88.0L306.7 84.4Z" fill="#2b3a7a" opacity="0.8" stroke="none" stroke-width="0"/><path d="M444.0 72.2L447.6 75.8L444.0 79.4L440.4 75.8Z" fill="#2b3a7a" opacity="0.8" stroke="none" stroke-width="0"/><path d="M445.2 72.1L448.8 75.7L445.2 79.3L441.6 75.7Z" fill="#2b3a7a" opacity="0.8" stroke="none" stroke-width="0"/><path d="M446.6 71.7L450.2 75.3L446.6 78.9L443.0 75.3Z" fill="#2b3a7a" opacity="0.8" stroke="none" stroke-width="0"/><path d="M446.8 71.1L450.4 74.7L446.8 78.3L443.2 74.7Z" fill="#2b3a7a" opacity="0.8" stroke="none" stroke-width="0"/><path d="M448.0 71.1L451.6 74.7L448.0 78.3L444.4 74.7Z" fill="#2b3a7a" opacity="0.8" stroke="none" stroke-width="0"/><path d="M455.5 70.8L459.1 74.4L455.5 78.0L451.9 74.4Z" fill="#2b3a7a" opacity="0.8" stroke="none" stroke-width="0"/><path d="M465.8 70.3L469.4 73.9L465.8 77.5L462.2 73.9Z" fill="#2b3a7a" opacity="0.8" stroke="none" stroke-width="0"/><path d="M469.3 70.0L472.9 73.6L469.3 77.2L465.7 73.6Z" fill="#2b3a7a" opacity="0.8" stroke="none" stroke-width="0"/><path d="M523.5 69.8L527.1 73.4L523.5 77.0L519.9 73.4Z" fill="#2b3a7a" opacity="0.8" stroke="none" stroke-width="0"/><path d="M569.7 69.8L573.3 73.4L569.7 77.0L566.1 73.4Z" fill="#2b3a7a" opacity="0.8" stroke="none" stroke-width="0"/><path d="M600.5 67.8L604.1 71.4L600.5 75.0L596.9 71.4Z" fill="#2b3a7a" opacity="0.8" stroke="none" stroke-width="0"/><path d="M60.0 335.3L61.7 335.3L61.7 335.1L64.0 335.1L64.0 320.7L68.6 320.7L68.6 319.9L70.3 319.9L70.3 315.3L70.8 315.3L70.8 314.9L71.5 314.9L71.5 314.9L98.9 314.9L98.9 238.7L99.4 238.7L99.4 229.0L99.8 229.0L99.8 222.3L100.4 222.3L100.4 220.6L100.5 220.6L100.5 220.5L100.8 220.5L100.8 214.2L101.8 214.2L101.8 214.1L102.1 214.1L102.1 213.7L102.4 213.7L102.4 213.5L102.7 213.5L102.7 212.7L104.0 212.7L104.0 212.1L104.4 212.1L104.4 212.0L108.0 212.0L108.0 206.7L112.1 206.7L112.1 204.9L113.7 204.9L113.7 204.6L114.7 204.6L114.7 201.9L116.5 201.9L116.5 201.8L117.4 201.8L117.4 201.0L118.0 201.0L118.0 200.0L120.6 200.0L120.6 200.0L121.7 200.0L121.7 199.7L130.7 199.7L130.7 195.5L137.4 195.5L137.4 187.4L137.6 187.4L137.6 186.2L138.0 186.2L138.0 184.5L149.8 184.5L149.8 183.9L155.6 183.9L155.6 169.3L157.5 169.3L157.5 168.8L157.6 168.8L157.6 167.7L158.7 167.7L158.7 165.0L159.2 165.0L159.2 163.7L159.3 163.7L159.3 163.6L161.8 163.6L161.8 155.9L164.8 155.9L164.8 155.8L165.9 155.8L165.9 141.9L168.3 141.9L168.3 141.8L169.2 141.8L169.2 131.7L170.0 131.7L170.0 130.9L170.4 130.9L170.4 129.5L190.9 129.5L190.9 129.5L194.0 129.5L194.0 128.9L197.0 128.9L197.0 128.4L199.0 128.4L199.0 128.2L208.3 128.2L208.3 128.0L218.0 128.0L218.0 112.8L220.1 112.8L220.1 110.2L223.9 110.2L223.9 105.5L224.7 105.5L224.7 105.1L225.3 105.1L225.3 103.8L232.0 103.8L232.0 103.5L244.6 103.5L244.6 89.6L246.8 89.6L246.8 89.3L247.3 89.3L247.3 87.6L249.5 87.6L249.5 85.4L256.6 85.4L256.6 84.4L310.3 84.4L310.3 84.4L444.0 84.4L444.0 75.8L445.2 75.8L445.2 75.7L446.6 75.7L446.6 75.3L446.8 75.3L446.8 74.7L448.0 74.7L448.0 74.7L455.5 74.7L455.5 74.4L465.8 74.4L465.8 73.9L469.3 73.9L469.3 73.6L474.8 73.6L474.8 69.8L477.3 69.8L477.3 69.1L686.3 69.1L686.3 55.0L1032.0 55.0" fill="none" stroke="#6675b0" stroke-width="1.6" stroke-dasharray="5 3" opacity="0.75"/><path d="M161.8 155.9L168.3 155.9L168.3 141.8L169.2 141.8L169.2 131.7L170.0 131.7L170.0 130.9L170.4 130.9L170.4 129.5L190.9 129.5L190.9 129.5L194.0 129.5L194.0 128.9L197.0 128.9L197.0 128.4L199.0 128.4L199.0 128.2L208.3 128.2L208.3 128.0L218.0 128.0L218.0 112.8L222.6 112.8L222.6 111.6L223.9 111.6L223.9 105.5L224.7 105.5L224.7 105.1L225.3 105.1L225.3 103.8L232.0 103.8L232.0 103.5L244.6 103.5L244.6 89.6L246.8 89.6L246.8 89.3L247.3 89.3L247.3 87.6L249.5 87.6L249.5 85.4L256.6 85.4L256.6 84.4L310.3 84.4L310.3 84.4L444.0 84.4L444.0 75.8L445.2 75.8L445.2 75.7L446.6 75.7L446.6 75.3L446.8 75.3L446.8 74.7L448.0 74.7L448.0 74.7L455.5 74.7L455.5 74.4L465.8 74.4L465.8 73.9L469.3 73.9L469.3 73.6L474.9 73.6L474.9 73.5L523.5 73.5L523.5 73.4L569.7 73.4L569.7 73.4L600.5 73.4L600.5 71.4L1032.0 71.4" fill="none" stroke="#2b3a7a" stroke-width="2.6"/><path d="M400.6 246.9L407.1 253.4L400.6 259.9L394.1 253.4Z" fill="#c5961a" opacity="1.0" stroke="#ffffff" stroke-width="1.4"/><path d="M467.2 206.5L473.7 213.0L467.2 219.5L460.7 213.0Z" fill="#c5961a" opacity="1.0" stroke="#ffffff" stroke-width="1.4"/><path d="M474.9 67.0L481.4 73.5L474.9 80.0L468.4 73.5Z" fill="#c5961a" opacity="1.0" stroke="#ffffff" stroke-width="1.4"/><path d="M531.9 240.8L538.4 247.3L531.9 253.8L525.4 247.3Z" fill="#c5961a" opacity="1.0" stroke="#ffffff" stroke-width="1.4"/><path d="M532.3 238.0L538.8 244.5L532.3 251.0L525.8 244.5Z" fill="#c5961a" opacity="1.0" stroke="#ffffff" stroke-width="1.4"/><text x="1042" y="53.0" font-size="11.5" fill="#6675b0">– – raw best 535.9</text><text x="1042" y="67.0" font-size="10" fill="#8a8fa3">unverified (pending)</text><path d="M600.5 64.9L607.0 71.4L600.5 77.9L594.0 71.4Z" fill="#2b3a7a" opacity="1.0" stroke="#ffffff" stroke-width="1.4"/><text x="1042" y="99.4" font-size="12.5" fill="#2b3a7a" font-weight="bold">◆ verified 510.1</text><text x="1042" y="115.4" font-size="10.5" fill="#3a3f55">top verified</text><text x="60" y="24" font-size="13" font-weight="bold" fill="#3a3f55" letter-spacing="1.2">SCORE EVOLUTION — gemma-challenge (tok/s)</text><circle cx="452" cy="20" r="3" fill="#b9bdca"/><text x="460" y="24" font-size="10.5" fill="#8a8fa3">all results</text><path d="M544.0 16.4L547.6 20.0L544.0 23.6L540.4 20.0Z" fill="#2b3a7a" opacity="1.0" stroke="none" stroke-width="0"/><text x="552" y="24" font-size="10.5" fill="#8a8fa3">verified</text><path d="M620.0 15.5L624.5 20.0L620.0 24.5L615.5 20.0Z" fill="#c5961a" opacity="1.0" stroke="#fff" stroke-width="1"/><text x="629" y="24" font-size="10.5" fill="#8a8fa3">mikasa-inbound (us)</text></svg>