<svg viewBox="0 0 1200 440" xmlns="http://www.w3.org/2000/svg" font-family="ui-sans-serif,system-ui,-apple-system,sans-serif"><rect x="0" y="0" width="1200" height="440" fill="#ffffff"/><rect x="60" y="46" width="972" height="350" fill="#f3f4fb"/><line x1="60" y1="396.0" x2="1032" y2="396.0" stroke="#e3e5ef" stroke-width="1"/><text x="52" y="400.0" text-anchor="end" font-size="11" fill="#8a8fa3">0</text><line x1="60" y1="332.4" x2="1032" y2="332.4" stroke="#e3e5ef" stroke-width="1"/><text x="52" y="336.4" text-anchor="end" font-size="11" fill="#8a8fa3">100</text><line x1="60" y1="268.7" x2="1032" y2="268.7" stroke="#e3e5ef" stroke-width="1"/><text x="52" y="272.7" text-anchor="end" font-size="11" fill="#8a8fa3">200</text><line x1="60" y1="205.1" x2="1032" y2="205.1" stroke="#e3e5ef" stroke-width="1"/><text x="52" y="209.1" text-anchor="end" font-size="11" fill="#8a8fa3">300</text><line x1="60" y1="141.5" x2="1032" y2="141.5" stroke="#e3e5ef" stroke-width="1"/><text x="52" y="145.5" text-anchor="end" font-size="11" fill="#8a8fa3">400</text><line x1="60" y1="77.8" x2="1032" y2="77.8" stroke="#e3e5ef" stroke-width="1"/><text x="52" y="81.8" text-anchor="end" font-size="11" fill="#8a8fa3">500</text><line x1="89.7" y1="46" x2="89.7" y2="396" stroke="#e3e5ef" stroke-width="1"/><text x="89.7" y="414.0" text-anchor="middle" font-size="11" fill="#8a8fa3">Jun 10</text><line x1="132.0" y1="46" x2="132.0" y2="396" stroke="#e3e5ef" stroke-width="1"/><text x="132.0" y="414.0" text-anchor="middle" font-size="11" fill="#8a8fa3">Jun 12</text><line x1="174.4" y1="46" x2="174.4" y2="396" stroke="#e3e5ef" stroke-width="1"/><text x="174.4" y="414.0" text-anchor="middle" font-size="11" fill="#8a8fa3">Jun 14</text><line x1="216.8" y1="46" x2="216.8" y2="396" stroke="#e3e5ef" stroke-width="1"/><text x="216.8" y="414.0" text-anchor="middle" font-size="11" fill="#8a8fa3">Jun 16</text><line x1="259.1" y1="46" x2="259.1" y2="396" stroke="#e3e5ef" stroke-width="1"/><text x="259.1" y="414.0" text-anchor="middle" font-size="11" fill="#8a8fa3">Jun 18</text><line x1="301.5" y1="46" x2="301.5" y2="396" stroke="#e3e5ef" stroke-width="1"/><text x="301.5" y="414.0" text-anchor="middle" font-size="11" fill="#8a8fa3">Jun 20</text><line x1="343.8" y1="46" x2="343.8" y2="396" stroke="#e3e5ef" stroke-width="1"/><text x="343.8" y="414.0" text-anchor="middle" font-size="11" fill="#8a8fa3">Jun 22</text><line x1="386.2" y1="46" x2="386.2" y2="396" stroke="#e3e5ef" stroke-width="1"/><text x="386.2" y="414.0" text-anchor="middle" font-size="11" fill="#8a8fa3">Jun 24</text><line x1="428.5" y1="46" x2="428.5" y2="396" stroke="#e3e5ef" stroke-width="1"/><text x="428.5" y="414.0" text-anchor="middle" font-size="11" fill="#8a8fa3">Jun 26</text><line x1="470.9" y1="46" x2="470.9" y2="396" stroke="#e3e5ef" stroke-width="1"/><text x="470.9" y="414.0" text-anchor="middle" font-size="11" fill="#8a8fa3">Jun 28</text><line x1="513.2" y1="46" x2="513.2" y2="396" stroke="#e3e5ef" stroke-width="1"/><text x="513.2" y="414.0" text-anchor="middle" font-size="11" fill="#8a8fa3">Jun 30</text><line x1="555.6" y1="46" x2="555.6" y2="396" stroke="#e3e5ef" stroke-width="1"/><text x="555.6" y="414.0" text-anchor="middle" font-size="11" fill="#8a8fa3">Jul 2</text><line x1="597.9" y1="46" x2="597.9" y2="396" stroke="#e3e5ef" stroke-width="1"/><text x="597.9" y="414.0" text-anchor="middle" font-size="11" fill="#8a8fa3">Jul 4</text><line x1="640.3" y1="46" x2="640.3" y2="396" stroke="#e3e5ef" stroke-width="1"/><text x="640.3" y="414.0" text-anchor="middle" font-size="11" fill="#8a8fa3">Jul 6</text><line x1="682.6" y1="46" x2="682.6" y2="396" stroke="#e3e5ef" stroke-width="1"/><text x="682.6" y="414.0" text-anchor="middle" font-size="11" fill="#8a8fa3">Jul 8</text><line x1="725.0" y1="46" x2="725.0" y2="396" stroke="#e3e5ef" stroke-width="1"/><text x="725.0" y="414.0" text-anchor="middle" font-size="11" fill="#8a8fa3">Jul 10</text><line x1="767.3" y1="46" x2="767.3" y2="396" stroke="#e3e5ef" stroke-width="1"/><text x="767.3" y="414.0" text-anchor="middle" font-size="11" fill="#8a8fa3">Jul 12</text><line x1="809.7" y1="46" x2="809.7" y2="396" stroke="#e3e5ef" stroke-width="1"/><text x="809.7" y="414.0" text-anchor="middle" font-size="11" fill="#8a8fa3">Jul 14</text><line x1="852.0" y1="46" x2="852.0" y2="396" stroke="#e3e5ef" stroke-width="1"/><text x="852.0" y="414.0" text-anchor="middle" font-size="11" fill="#8a8fa3">Jul 16</text><line x1="894.4" y1="46" x2="894.4" y2="396" stroke="#e3e5ef" stroke-width="1"/><text x="894.4" y="414.0" text-anchor="middle" font-size="11" fill="#8a8fa3">Jul 18</text><line x1="936.8" y1="46" x2="936.8" y2="396" stroke="#e3e5ef" stroke-width="1"/><text x="936.8" y="414.0" text-anchor="middle" font-size="11" fill="#8a8fa3">Jul 20</text><line x1="979.1" y1="46" x2="979.1" y2="396" stroke="#e3e5ef" stroke-width="1"/><text x="979.1" y="414.0" text-anchor="middle" font-size="11" fill="#8a8fa3">Jul 22</text><line x1="1021.5" y1="46" x2="1021.5" y2="396" stroke="#e3e5ef" stroke-width="1"/><text x="1021.5" y="414.0" text-anchor="middle" font-size="11" fill="#8a8fa3">Jul 24</text><circle cx="60.0" cy="335.3" r="2.3" fill="#b9bdca" opacity="0.5"/><circle cx="61.0" cy="335.1" r="2.3" fill="#b9bdca" opacity="0.5"/><circle cx="62.0" cy="368.0" r="2.3" fill="#b9bdca" opacity="0.5"/><circle cx="62.4" cy="320.7" r="2.3" fill="#b9bdca" opacity="0.5"/><circle cx="65.3" cy="319.9" r="2.3" fill="#b9bdca" opacity="0.5"/><circle cx="65.4" cy="320.6" r="2.3" fill="#b9bdca" opacity="0.5"/><circle cx="66.3" cy="315.3" r="2.3" fill="#b9bdca" opacity="0.5"/><circle cx="66.5" cy="319.7" r="2.3" fill="#b9bdca" opacity="0.5"/><circle cx="66.6" cy="314.9" r="2.3" fill="#b9bdca" opacity="0.5"/><circle cx="66.9" cy="315.5" r="2.3" fill="#b9bdca" opacity="0.5"/><circle cx="67.1" cy="314.9" r="2.3" fill="#b9bdca" opacity="0.5"/><circle cx="67.3" cy="315.4" r="2.3" fill="#b9bdca" opacity="0.5"/><circle cx="67.9" cy="315.0" r="2.3" fill="#b9bdca" opacity="0.5"/><circle cx="83.9" cy="238.7" r="2.3" fill="#b9bdca" opacity="0.5"/><circle cx="84.0" cy="315.0" r="2.3" fill="#b9bdca" opacity="0.5"/><circle cx="84.2" cy="229.0" r="2.3" fill="#b9bdca" opacity="0.5"/><circle cx="84.5" cy="222.3" r="2.3" fill="#b9bdca" opacity="0.5"/><circle cx="84.7" cy="228.0" r="2.3" fill="#b9bdca" opacity="0.5"/><circle cx="84.8" cy="223.3" r="2.3" fill="#b9bdca" opacity="0.5"/><circle cx="84.8" cy="220.6" r="2.3" fill="#b9bdca" opacity="0.5"/><circle cx="84.9" cy="220.5" r="2.3" fill="#b9bdca" opacity="0.5"/><circle cx="84.9" cy="223.2" r="2.3" fill="#b9bdca" opacity="0.5"/><circle cx="85.0" cy="214.2" r="2.3" fill="#b9bdca" opacity="0.5"/><circle cx="85.1" cy="222.1" r="2.3" fill="#b9bdca" opacity="0.5"/><circle cx="85.2" cy="220.7" r="2.3" fill="#b9bdca" opacity="0.5"/><circle cx="85.4" cy="218.5" r="2.3" fill="#b9bdca" opacity="0.5"/><circle cx="85.4" cy="215.2" r="2.3" fill="#b9bdca" opacity="0.5"/><circle cx="85.5" cy="214.3" r="2.3" fill="#b9bdca" opacity="0.5"/><circle cx="85.6" cy="219.2" r="2.3" fill="#b9bdca" opacity="0.5"/><circle cx="85.7" cy="214.1" r="2.3" fill="#b9bdca" opacity="0.5"/><circle cx="85.8" cy="215.2" r="2.3" fill="#b9bdca" opacity="0.5"/><circle cx="85.9" cy="213.7" r="2.3" fill="#b9bdca" opacity="0.5"/><circle cx="86.0" cy="213.5" r="2.3" fill="#b9bdca" opacity="0.5"/><circle cx="86.1" cy="214.8" r="2.3" fill="#b9bdca" opacity="0.5"/><circle cx="86.1" cy="217.7" r="2.3" fill="#b9bdca" opacity="0.5"/><circle cx="86.2" cy="212.7" r="2.3" fill="#b9bdca" opacity="0.5"/><circle cx="86.4" cy="213.3" r="2.3" fill="#b9bdca" opacity="0.5"/><circle cx="86.7" cy="212.7" r="2.3" fill="#b9bdca" opacity="0.5"/><circle cx="86.7" cy="213.6" r="2.3" fill="#b9bdca" opacity="0.5"/><circle cx="86.8" cy="213.0" r="2.3" fill="#b9bdca" opacity="0.5"/><circle cx="87.0" cy="212.1" r="2.3" fill="#b9bdca" opacity="0.5"/><circle cx="87.1" cy="213.3" r="2.3" fill="#b9bdca" opacity="0.5"/><circle cx="87.2" cy="212.0" r="2.3" fill="#b9bdca" opacity="0.5"/><circle cx="87.5" cy="212.1" r="2.3" fill="#b9bdca" opacity="0.5"/><circle cx="87.5" cy="212.8" r="2.3" fill="#b9bdca" opacity="0.5"/><circle cx="89.5" cy="206.7" r="2.3" fill="#b9bdca" opacity="0.5"/><circle cx="89.8" cy="206.8" r="2.3" fill="#b9bdca" opacity="0.5"/><circle cx="89.8" cy="212.5" r="2.3" fill="#b9bdca" opacity="0.5"/><circle cx="89.9" cy="207.2" r="2.3" fill="#b9bdca" opacity="0.5"/><circle cx="90.5" cy="207.0" r="2.3" fill="#b9bdca" opacity="0.5"/><circle cx="92.0" cy="204.9" r="2.3" fill="#b9bdca" opacity="0.5"/><circle cx="92.9" cy="204.6" r="2.3" fill="#b9bdca" opacity="0.5"/><circle cx="93.0" cy="212.3" r="2.3" fill="#b9bdca" opacity="0.5"/><circle cx="93.2" cy="204.6" r="2.3" fill="#b9bdca" opacity="0.5"/><circle cx="93.2" cy="204.6" r="2.3" fill="#b9bdca" opacity="0.5"/><circle cx="93.2" cy="204.9" r="2.3" fill="#b9bdca" opacity="0.5"/><circle cx="93.2" cy="204.9" r="2.3" fill="#b9bdca" opacity="0.5"/><circle cx="93.6" cy="201.9" r="2.3" fill="#b9bdca" opacity="0.5"/><circle cx="94.1" cy="206.5" r="2.3" fill="#b9bdca" opacity="0.5"/><circle cx="94.4" cy="205.8" r="2.3" fill="#b9bdca" opacity="0.5"/><circle cx="94.4" cy="335.1" r="2.3" fill="#b9bdca" opacity="0.5"/><circle cx="94.7" cy="201.8" r="2.3" fill="#b9bdca" opacity="0.5"/><circle cx="94.7" cy="202.2" r="2.3" fill="#b9bdca" opacity="0.5"/><circle cx="95.2" cy="201.0" r="2.3" fill="#b9bdca" opacity="0.5"/><circle cx="95.5" cy="203.1" r="2.3" fill="#b9bdca" opacity="0.5"/><circle cx="95.6" cy="200.0" r="2.3" fill="#b9bdca" opacity="0.5"/><circle cx="95.6" cy="204.6" r="2.3" fill="#b9bdca" opacity="0.5"/><circle cx="95.9" cy="202.3" r="2.3" fill="#b9bdca" opacity="0.5"/><circle cx="96.7" cy="200.4" r="2.3" fill="#b9bdca" opacity="0.5"/><circle cx="96.9" cy="200.7" r="2.3" fill="#b9bdca" opacity="0.5"/><circle cx="97.2" cy="200.0" r="2.3" fill="#b9bdca" opacity="0.5"/><circle cx="97.9" cy="199.7" r="2.3" fill="#b9bdca" opacity="0.5"/><circle cx="101.9" cy="200.6" r="2.3" fill="#b9bdca" opacity="0.5"/><circle cx="102.3" cy="201.8" r="2.3" fill="#b9bdca" opacity="0.5"/><circle cx="102.8" cy="208.4" r="2.3" fill="#b9bdca" opacity="0.5"/><circle cx="102.9" cy="200.8" r="2.3" fill="#b9bdca" opacity="0.5"/><circle cx="103.2" cy="200.7" r="2.3" fill="#b9bdca" opacity="0.5"/><circle cx="103.2" cy="201.9" r="2.3" fill="#b9bdca" opacity="0.5"/><circle cx="103.4" cy="195.5" r="2.3" fill="#b9bdca" opacity="0.5"/><circle cx="103.8" cy="196.9" r="2.3" fill="#b9bdca" opacity="0.5"/><circle cx="104.0" cy="197.9" r="2.3" fill="#b9bdca" opacity="0.5"/><circle cx="104.3" cy="196.1" r="2.3" fill="#b9bdca" opacity="0.5"/><circle cx="105.6" cy="197.3" r="2.3" fill="#b9bdca" opacity="0.5"/><circle cx="105.9" cy="195.9" r="2.3" fill="#b9bdca" opacity="0.5"/><circle cx="106.0" cy="201.0" r="2.3" fill="#b9bdca" opacity="0.5"/><circle cx="106.1" cy="197.5" r="2.3" fill="#b9bdca" opacity="0.5"/><circle cx="106.4" cy="196.9" r="2.3" fill="#b9bdca" opacity="0.5"/><circle cx="106.4" cy="197.1" r="2.3" fill="#b9bdca" opacity="0.5"/><circle cx="106.4" cy="197.0" r="2.3" fill="#b9bdca" opacity="0.5"/><circle cx="106.7" cy="196.0" r="2.3" fill="#b9bdca" opacity="0.5"/><circle cx="106.7" cy="196.0" r="2.3" fill="#b9bdca" opacity="0.5"/><circle cx="106.8" cy="197.9" r="2.3" fill="#b9bdca" opacity="0.5"/><circle cx="107.0" cy="197.8" r="2.3" fill="#b9bdca" opacity="0.5"/><circle cx="107.1" cy="196.2" r="2.3" fill="#b9bdca" opacity="0.5"/><circle cx="107.1" cy="197.5" r="2.3" fill="#b9bdca" opacity="0.5"/><circle cx="107.2" cy="196.9" r="2.3" fill="#b9bdca" opacity="0.5"/><circle cx="107.2" cy="195.5" r="2.3" fill="#b9bdca" opacity="0.5"/><circle cx="107.5" cy="198.1" r="2.3" fill="#b9bdca" opacity="0.5"/><circle cx="107.5" cy="187.4" r="2.3" fill="#b9bdca" opacity="0.5"/><circle cx="107.6" cy="186.2" r="2.3" fill="#b9bdca" opacity="0.5"/><circle cx="107.6" cy="196.3" r="2.3" fill="#b9bdca" opacity="0.5"/><circle cx="107.6" cy="197.2" r="2.3" fill="#b9bdca" opacity="0.5"/><circle cx="107.6" cy="197.8" r="2.3" fill="#b9bdca" opacity="0.5"/><circle cx="107.6" cy="368.0" r="2.3" fill="#b9bdca" opacity="0.5"/><circle cx="107.9" cy="184.5" r="2.3" fill="#b9bdca" opacity="0.5"/><circle cx="109.0" cy="184.6" r="2.3" fill="#b9bdca" opacity="0.5"/><circle cx="109.5" cy="185.6" r="2.3" fill="#b9bdca" opacity="0.5"/><circle cx="111.1" cy="188.7" r="2.3" fill="#b9bdca" opacity="0.5"/><circle cx="113.2" cy="185.4" r="2.3" fill="#b9bdca" opacity="0.5"/><circle cx="113.7" cy="185.2" r="2.3" fill="#b9bdca" opacity="0.5"/><circle cx="113.8" cy="186.6" r="2.3" fill="#b9bdca" opacity="0.5"/><circle cx="113.9" cy="185.3" r="2.3" fill="#b9bdca" opacity="0.5"/><circle cx="114.3" cy="185.3" r="2.3" fill="#b9bdca" opacity="0.5"/><circle cx="114.4" cy="185.0" r="2.3" fill="#b9bdca" opacity="0.5"/><circle cx="114.8" cy="184.9" r="2.3" fill="#b9bdca" opacity="0.5"/><circle cx="115.1" cy="185.1" r="2.3" fill="#b9bdca" opacity="0.5"/><circle cx="115.1" cy="185.2" r="2.3" fill="#b9bdca" opacity="0.5"/><circle cx="115.1" cy="186.4" r="2.3" fill="#b9bdca" opacity="0.5"/><circle cx="115.1" cy="183.9" r="2.3" fill="#b9bdca" opacity="0.5"/><circle cx="117.1" cy="184.4" r="2.3" fill="#b9bdca" opacity="0.5"/><circle cx="117.4" cy="184.2" r="2.3" fill="#b9bdca" opacity="0.5"/><circle cx="118.7" cy="169.3" r="2.3" fill="#b9bdca" opacity="0.5"/><circle cx="119.9" cy="168.8" r="2.3" fill="#b9bdca" opacity="0.5"/><circle cx="119.9" cy="167.7" r="2.3" fill="#b9bdca" opacity="0.5"/><circle cx="120.5" cy="201.4" r="2.3" fill="#b9bdca" opacity="0.5"/><circle cx="120.6" cy="165.0" r="2.3" fill="#b9bdca" opacity="0.5"/><circle cx="120.7" cy="198.2" r="2.3" fill="#b9bdca" opacity="0.5"/><circle cx="120.9" cy="163.7" r="2.3" fill="#b9bdca" opacity="0.5"/><circle cx="121.0" cy="163.6" r="2.3" fill="#b9bdca" opacity="0.5"/><circle cx="121.2" cy="165.9" r="2.3" fill="#b9bdca" opacity="0.5"/><circle cx="122.2" cy="165.1" r="2.3" fill="#b9bdca" opacity="0.5"/><circle cx="122.5" cy="155.9" r="2.3" fill="#b9bdca" opacity="0.5"/><circle cx="123.5" cy="196.5" r="2.3" fill="#b9bdca" opacity="0.5"/><circle cx="123.9" cy="157.4" r="2.3" fill="#b9bdca" opacity="0.5"/><circle cx="124.3" cy="155.8" r="2.3" fill="#b9bdca" opacity="0.5"/><circle cx="125.0" cy="141.9" r="2.3" fill="#b9bdca" opacity="0.5"/><circle cx="126.4" cy="156.1" r="2.3" fill="#b9bdca" opacity="0.5"/><circle cx="126.4" cy="156.4" r="2.3" fill="#b9bdca" opacity="0.5"/><circle cx="126.5" cy="141.8" r="2.3" fill="#b9bdca" opacity="0.5"/><circle cx="126.6" cy="196.0" r="2.3" fill="#b9bdca" opacity="0.5"/><circle cx="127.1" cy="131.7" r="2.3" fill="#b9bdca" opacity="0.5"/><circle cx="127.1" cy="134.1" r="2.3" fill="#b9bdca" opacity="0.5"/><circle cx="127.3" cy="141.1" r="2.3" fill="#b9bdca" opacity="0.5"/><circle cx="127.5" cy="134.0" r="2.3" fill="#b9bdca" opacity="0.5"/><circle cx="127.6" cy="130.9" r="2.3" fill="#b9bdca" opacity="0.5"/><circle cx="127.6" cy="154.2" r="2.3" fill="#b9bdca" opacity="0.5"/><circle cx="127.7" cy="133.6" r="2.3" fill="#b9bdca" opacity="0.5"/><circle cx="127.8" cy="129.5" r="2.3" fill="#b9bdca" opacity="0.5"/><circle cx="127.8" cy="130.9" r="2.3" fill="#b9bdca" opacity="0.5"/><circle cx="127.8" cy="133.4" r="2.3" fill="#b9bdca" opacity="0.5"/><circle cx="127.9" cy="131.2" r="2.3" fill="#b9bdca" opacity="0.5"/><circle cx="128.8" cy="189.8" r="2.3" fill="#b9bdca" opacity="0.5"/><circle cx="128.8" cy="133.2" r="2.3" fill="#b9bdca" opacity="0.5"/><circle cx="128.9" cy="133.5" r="2.3" fill="#b9bdca" opacity="0.5"/><circle cx="129.3" cy="130.1" r="2.3" fill="#b9bdca" opacity="0.5"/><circle cx="130.1" cy="130.3" r="2.3" fill="#b9bdca" opacity="0.5"/><circle cx="130.5" cy="303.1" r="2.3" fill="#b9bdca" opacity="0.5"/><circle cx="131.2" cy="133.2" r="2.3" fill="#b9bdca" opacity="0.5"/><circle cx="132.2" cy="144.2" r="2.3" fill="#b9bdca" opacity="0.5"/><circle cx="132.4" cy="135.3" r="2.3" fill="#b9bdca" opacity="0.5"/><circle cx="133.0" cy="133.4" r="2.3" fill="#b9bdca" opacity="0.5"/><circle cx="133.0" cy="159.9" r="2.3" fill="#b9bdca" opacity="0.5"/><circle cx="133.2" cy="130.8" r="2.3" fill="#b9bdca" opacity="0.5"/><circle cx="133.4" cy="133.2" r="2.3" fill="#b9bdca" opacity="0.5"/><circle cx="135.6" cy="130.9" r="2.3" fill="#b9bdca" opacity="0.5"/><circle cx="135.8" cy="130.9" r="2.3" fill="#b9bdca" opacity="0.5"/><circle cx="135.8" cy="133.8" r="2.3" fill="#b9bdca" opacity="0.5"/><circle cx="136.2" cy="130.4" r="2.3" fill="#b9bdca" opacity="0.5"/><circle cx="136.4" cy="153.7" r="2.3" fill="#b9bdca" opacity="0.5"/><circle cx="136.8" cy="133.3" r="2.3" fill="#b9bdca" opacity="0.5"/><circle cx="137.5" cy="156.5" r="2.3" fill="#b9bdca" opacity="0.5"/><circle cx="137.6" cy="132.3" r="2.3" fill="#b9bdca" opacity="0.5"/><circle cx="138.4" cy="147.2" r="2.3" fill="#b9bdca" opacity="0.5"/><circle cx="138.5" cy="133.6" r="2.3" fill="#b9bdca" opacity="0.5"/><circle cx="138.8" cy="129.5" r="2.3" fill="#b9bdca" opacity="0.5"/><circle cx="138.8" cy="133.3" r="2.3" fill="#b9bdca" opacity="0.5"/><circle cx="139.8" cy="133.3" r="2.3" fill="#b9bdca" opacity="0.5"/><circle cx="140.4" cy="129.5" r="2.3" fill="#b9bdca" opacity="0.5"/><circle cx="141.5" cy="130.6" r="2.3" fill="#b9bdca" opacity="0.5"/><circle cx="142.3" cy="128.9" r="2.3" fill="#b9bdca" opacity="0.5"/><circle cx="142.4" cy="132.7" r="2.3" fill="#b9bdca" opacity="0.5"/><circle cx="142.4" cy="133.1" r="2.3" fill="#b9bdca" opacity="0.5"/><circle cx="143.7" cy="129.8" r="2.3" fill="#b9bdca" opacity="0.5"/><circle cx="144.0" cy="333.8" r="2.3" fill="#b9bdca" opacity="0.5"/><circle cx="144.1" cy="128.4" r="2.3" fill="#b9bdca" opacity="0.5"/><circle cx="144.6" cy="129.8" r="2.3" fill="#b9bdca" opacity="0.5"/><circle cx="144.9" cy="128.9" r="2.3" fill="#b9bdca" opacity="0.5"/><circle cx="144.9" cy="128.9" r="2.3" fill="#b9bdca" opacity="0.5"/><circle cx="145.3" cy="128.2" r="2.3" fill="#b9bdca" opacity="0.5"/><circle cx="145.6" cy="129.7" r="2.3" fill="#b9bdca" opacity="0.5"/><circle cx="145.8" cy="142.3" r="2.3" fill="#b9bdca" opacity="0.5"/><circle cx="146.9" cy="128.8" r="2.3" fill="#b9bdca" opacity="0.5"/><circle cx="147.6" cy="161.1" r="2.3" fill="#b9bdca" opacity="0.5"/><circle cx="148.9" cy="164.4" r="2.3" fill="#b9bdca" opacity="0.5"/><circle cx="149.0" cy="248.3" r="2.3" fill="#b9bdca" opacity="0.5"/><circle cx="150.9" cy="135.4" r="2.3" fill="#b9bdca" opacity="0.5"/><circle cx="151.0" cy="128.0" r="2.3" fill="#b9bdca" opacity="0.5"/><circle cx="151.6" cy="229.0" r="2.3" fill="#b9bdca" opacity="0.5"/><circle cx="152.9" cy="128.1" r="2.3" fill="#b9bdca" opacity="0.5"/><circle cx="153.2" cy="128.6" r="2.3" fill="#b9bdca" opacity="0.5"/><circle cx="154.4" cy="128.8" r="2.3" fill="#b9bdca" opacity="0.5"/><circle cx="154.4" cy="129.6" r="2.3" fill="#b9bdca" opacity="0.5"/><circle cx="154.4" cy="130.9" r="2.3" fill="#b9bdca" opacity="0.5"/><circle cx="157.0" cy="112.8" r="2.3" fill="#b9bdca" opacity="0.5"/><circle cx="158.3" cy="110.2" r="2.3" fill="#b9bdca" opacity="0.5"/><circle cx="158.4" cy="111.6" r="2.3" fill="#b9bdca" opacity="0.5"/><circle cx="159.2" cy="111.0" r="2.3" fill="#b9bdca" opacity="0.5"/><circle cx="159.6" cy="335.1" r="2.3" fill="#b9bdca" opacity="0.5"/><circle cx="159.8" cy="111.6" r="2.3" fill="#b9bdca" opacity="0.5"/><circle cx="160.6" cy="105.5" r="2.3" fill="#b9bdca" opacity="0.5"/><circle cx="160.8" cy="108.5" r="2.3" fill="#b9bdca" opacity="0.5"/><circle cx="161.1" cy="105.1" r="2.3" fill="#b9bdca" opacity="0.5"/><circle cx="161.5" cy="103.8" r="2.3" fill="#b9bdca" opacity="0.5"/><circle cx="161.9" cy="125.8" r="2.3" fill="#b9bdca" opacity="0.5"/><circle cx="165.6" cy="103.5" r="2.3" fill="#b9bdca" opacity="0.5"/><circle cx="166.5" cy="127.8" r="2.3" fill="#b9bdca" opacity="0.5"/><circle cx="167.0" cy="334.3" r="2.3" fill="#b9bdca" opacity="0.5"/><circle cx="167.5" cy="128.6" r="2.3" fill="#b9bdca" opacity="0.5"/><circle cx="167.8" cy="128.6" r="2.3" fill="#b9bdca" opacity="0.5"/><circle cx="167.9" cy="128.6" r="2.3" fill="#b9bdca" opacity="0.5"/><circle cx="168.2" cy="256.6" r="2.3" fill="#b9bdca" opacity="0.5"/><circle cx="168.6" cy="254.6" r="2.3" fill="#b9bdca" opacity="0.5"/><circle cx="169.3" cy="128.6" r="2.3" fill="#b9bdca" opacity="0.5"/><circle cx="171.0" cy="250.1" r="2.3" fill="#b9bdca" opacity="0.5"/><circle cx="171.1" cy="161.4" r="2.3" fill="#b9bdca" opacity="0.5"/><circle cx="171.3" cy="206.6" r="2.3" fill="#b9bdca" opacity="0.5"/><circle cx="172.8" cy="113.5" r="2.3" fill="#b9bdca" opacity="0.5"/><circle cx="173.4" cy="89.6" r="2.3" fill="#b9bdca" opacity="0.5"/><circle cx="173.7" cy="90.2" r="2.3" fill="#b9bdca" opacity="0.5"/><circle cx="174.7" cy="89.3" r="2.3" fill="#b9bdca" opacity="0.5"/><circle cx="175.0" cy="87.6" r="2.3" fill="#b9bdca" opacity="0.5"/><circle cx="175.3" cy="185.0" r="2.3" fill="#b9bdca" opacity="0.5"/><circle cx="175.6" cy="131.6" r="2.3" fill="#b9bdca" opacity="0.5"/><circle cx="175.9" cy="87.8" r="2.3" fill="#b9bdca" opacity="0.5"/><circle cx="176.4" cy="85.4" r="2.3" fill="#b9bdca" opacity="0.5"/><circle cx="177.0" cy="86.8" r="2.3" fill="#b9bdca" opacity="0.5"/><circle cx="177.8" cy="88.4" r="2.3" fill="#b9bdca" opacity="0.5"/><circle cx="180.7" cy="89.5" r="2.3" fill="#b9bdca" opacity="0.5"/><circle cx="180.7" cy="155.6" r="2.3" fill="#b9bdca" opacity="0.5"/><circle cx="180.7" cy="84.4" r="2.3" fill="#b9bdca" opacity="0.5"/><circle cx="184.1" cy="89.2" r="2.3" fill="#b9bdca" opacity="0.5"/><circle cx="184.2" cy="90.5" r="2.3" fill="#b9bdca" opacity="0.5"/><circle cx="185.2" cy="87.7" r="2.3" fill="#b9bdca" opacity="0.5"/><circle cx="185.5" cy="367.9" r="2.3" fill="#b9bdca" opacity="0.5"/><circle cx="186.9" cy="164.3" r="2.3" fill="#b9bdca" opacity="0.5"/><circle cx="187.6" cy="94.6" r="2.3" fill="#b9bdca" opacity="0.5"/><circle cx="187.9" cy="89.6" r="2.3" fill="#b9bdca" opacity="0.5"/><circle cx="190.9" cy="124.6" r="2.3" fill="#b9bdca" opacity="0.5"/><circle cx="194.1" cy="146.2" r="2.3" fill="#b9bdca" opacity="0.5"/><circle cx="194.2" cy="90.5" r="2.3" fill="#b9bdca" opacity="0.5"/><circle cx="194.5" cy="87.7" r="2.3" fill="#b9bdca" opacity="0.5"/><circle cx="194.6" cy="87.7" r="2.3" fill="#b9bdca" opacity="0.5"/><circle cx="194.6" cy="89.6" r="2.3" fill="#b9bdca" opacity="0.5"/><circle cx="196.9" cy="93.0" r="2.3" fill="#b9bdca" opacity="0.5"/><circle cx="197.7" cy="85.5" r="2.3" fill="#b9bdca" opacity="0.5"/><circle cx="204.4" cy="334.8" r="2.3" fill="#b9bdca" opacity="0.5"/><circle cx="205.2" cy="86.3" r="2.3" fill="#b9bdca" opacity="0.5"/><circle cx="207.4" cy="85.5" r="2.3" fill="#b9bdca" opacity="0.5"/><circle cx="207.8" cy="84.6" r="2.3" fill="#b9bdca" opacity="0.5"/><circle cx="208.8" cy="87.8" r="2.3" fill="#b9bdca" opacity="0.5"/><circle cx="209.2" cy="84.4" r="2.3" fill="#b9bdca" opacity="0.5"/><circle cx="209.4" cy="84.8" r="2.3" fill="#b9bdca" opacity="0.5"/><circle cx="210.0" cy="87.4" r="2.3" fill="#b9bdca" opacity="0.5"/><circle cx="213.6" cy="84.4" r="2.3" fill="#b9bdca" opacity="0.5"/><circle cx="229.5" cy="89.3" r="2.3" fill="#b9bdca" opacity="0.5"/><circle cx="232.3" cy="88.6" r="2.3" fill="#b9bdca" opacity="0.5"/><circle cx="232.3" cy="92.1" r="2.3" fill="#b9bdca" opacity="0.5"/><circle cx="232.9" cy="156.8" r="2.3" fill="#b9bdca" opacity="0.5"/><circle cx="242.0" cy="201.6" r="2.3" fill="#b9bdca" opacity="0.5"/><circle cx="248.7" cy="315.6" r="2.3" fill="#b9bdca" opacity="0.5"/><circle cx="266.9" cy="87.7" r="2.3" fill="#b9bdca" opacity="0.5"/><circle cx="272.4" cy="87.6" r="2.3" fill="#b9bdca" opacity="0.5"/><circle cx="277.3" cy="87.2" r="2.3" fill="#b9bdca" opacity="0.5"/><circle cx="278.4" cy="88.8" r="2.3" fill="#b9bdca" opacity="0.5"/><circle cx="278.9" cy="89.2" r="2.3" fill="#b9bdca" opacity="0.5"/><circle cx="279.1" cy="90.9" r="2.3" fill="#b9bdca" opacity="0.5"/><circle cx="280.5" cy="87.7" r="2.3" fill="#b9bdca" opacity="0.5"/><circle cx="285.4" cy="88.6" r="2.3" fill="#b9bdca" opacity="0.5"/><circle cx="286.1" cy="89.7" r="2.3" fill="#b9bdca" opacity="0.5"/><circle cx="286.5" cy="88.2" r="2.3" fill="#b9bdca" opacity="0.5"/><circle cx="295.7" cy="75.8" r="2.3" fill="#b9bdca" opacity="0.5"/><circle cx="296.5" cy="75.7" r="2.3" fill="#b9bdca" opacity="0.5"/><circle cx="297.0" cy="76.7" r="2.3" fill="#b9bdca" opacity="0.5"/><circle cx="297.0" cy="75.8" r="2.3" fill="#b9bdca" opacity="0.5"/><circle cx="297.3" cy="75.3" r="2.3" fill="#b9bdca" opacity="0.5"/><circle cx="297.5" cy="74.7" r="2.3" fill="#b9bdca" opacity="0.5"/><circle cx="297.5" cy="83.4" r="2.3" fill="#b9bdca" opacity="0.5"/><circle cx="297.8" cy="76.2" r="2.3" fill="#b9bdca" opacity="0.5"/><circle cx="298.0" cy="78.1" r="2.3" fill="#b9bdca" opacity="0.5"/><circle cx="298.2" cy="74.7" r="2.3" fill="#b9bdca" opacity="0.5"/><circle cx="299.7" cy="89.3" r="2.3" fill="#b9bdca" opacity="0.5"/><circle cx="302.8" cy="74.4" r="2.3" fill="#b9bdca" opacity="0.5"/><circle cx="307.7" cy="74.4" r="2.3" fill="#b9bdca" opacity="0.5"/><circle cx="308.5" cy="335.1" r="2.3" fill="#b9bdca" opacity="0.5"/><circle cx="308.5" cy="81.7" r="2.3" fill="#b9bdca" opacity="0.5"/><circle cx="309.1" cy="74.6" r="2.3" fill="#b9bdca" opacity="0.5"/><circle cx="309.1" cy="82.1" r="2.3" fill="#b9bdca" opacity="0.5"/><circle cx="309.1" cy="73.9" r="2.3" fill="#b9bdca" opacity="0.5"/><circle cx="310.5" cy="76.2" r="2.3" fill="#b9bdca" opacity="0.5"/><circle cx="310.8" cy="82.1" r="2.3" fill="#b9bdca" opacity="0.5"/><circle cx="311.0" cy="74.2" r="2.3" fill="#b9bdca" opacity="0.5"/><circle cx="311.0" cy="75.0" r="2.3" fill="#b9bdca" opacity="0.5"/><circle cx="311.3" cy="73.6" r="2.3" fill="#b9bdca" opacity="0.5"/><circle cx="311.3" cy="83.3" r="2.3" fill="#b9bdca" opacity="0.5"/><circle cx="311.3" cy="83.8" r="2.3" fill="#b9bdca" opacity="0.5"/><circle cx="311.3" cy="78.1" r="2.3" fill="#b9bdca" opacity="0.5"/><circle cx="311.3" cy="81.5" r="2.3" fill="#b9bdca" opacity="0.5"/><circle cx="311.3" cy="83.0" r="2.3" fill="#b9bdca" opacity="0.5"/><circle cx="311.3" cy="83.7" r="2.3" fill="#b9bdca" opacity="0.5"/><circle cx="313.2" cy="82.7" r="2.3" fill="#b9bdca" opacity="0.5"/><circle cx="313.7" cy="77.8" r="2.3" fill="#b9bdca" opacity="0.5"/><circle cx="314.7" cy="69.8" r="2.3" fill="#b9bdca" opacity="0.5"/><circle cx="315.0" cy="75.9" r="2.3" fill="#b9bdca" opacity="0.5"/><circle cx="315.1" cy="74.3" r="2.3" fill="#b9bdca" opacity="0.5"/><circle cx="315.1" cy="77.4" r="2.3" fill="#b9bdca" opacity="0.5"/><circle cx="315.1" cy="80.6" r="2.3" fill="#b9bdca" opacity="0.5"/><circle cx="315.1" cy="81.8" r="2.3" fill="#b9bdca" opacity="0.5"/><circle cx="315.9" cy="76.9" r="2.3" fill="#b9bdca" opacity="0.5"/><circle cx="315.9" cy="82.8" r="2.3" fill="#b9bdca" opacity="0.5"/><circle cx="315.9" cy="83.0" r="2.3" fill="#b9bdca" opacity="0.5"/><circle cx="315.9" cy="83.1" r="2.3" fill="#b9bdca" opacity="0.5"/><circle cx="316.2" cy="69.1" r="2.3" fill="#b9bdca" opacity="0.5"/><circle cx="317.0" cy="75.5" r="2.3" fill="#b9bdca" opacity="0.5"/><circle cx="317.4" cy="74.3" r="2.3" fill="#b9bdca" opacity="0.5"/><circle cx="329.8" cy="74.0" r="2.3" fill="#b9bdca" opacity="0.5"/><circle cx="344.5" cy="73.4" r="2.3" fill="#b9bdca" opacity="0.5"/><circle cx="344.7" cy="75.9" r="2.3" fill="#b9bdca" opacity="0.5"/><circle cx="344.7" cy="76.3" r="2.3" fill="#b9bdca" opacity="0.5"/><circle cx="344.8" cy="76.0" r="2.3" fill="#b9bdca" opacity="0.5"/><circle cx="344.8" cy="76.8" r="2.3" fill="#b9bdca" opacity="0.5"/><circle cx="344.8" cy="81.2" r="2.3" fill="#b9bdca" opacity="0.5"/><circle cx="344.8" cy="83.4" r="2.3" fill="#b9bdca" opacity="0.5"/><circle cx="355.2" cy="76.6" r="2.3" fill="#b9bdca" opacity="0.5"/><circle cx="355.9" cy="76.7" r="2.3" fill="#b9bdca" opacity="0.5"/><circle cx="355.9" cy="82.8" r="2.3" fill="#b9bdca" opacity="0.5"/><circle cx="355.9" cy="82.8" r="2.3" fill="#b9bdca" opacity="0.5"/><circle cx="355.9" cy="83.3" r="2.3" fill="#b9bdca" opacity="0.5"/><circle cx="358.1" cy="233.4" r="2.3" fill="#b9bdca" opacity="0.5"/><circle cx="358.7" cy="228.9" r="2.3" fill="#b9bdca" opacity="0.5"/><circle cx="359.4" cy="198.3" r="2.3" fill="#b9bdca" opacity="0.5"/><circle cx="372.9" cy="73.4" r="2.3" fill="#b9bdca" opacity="0.5"/><circle cx="376.7" cy="192.4" r="2.3" fill="#b9bdca" opacity="0.5"/><circle cx="378.1" cy="75.3" r="2.3" fill="#b9bdca" opacity="0.5"/><circle cx="378.4" cy="74.0" r="2.3" fill="#b9bdca" opacity="0.5"/><circle cx="379.2" cy="194.4" r="2.3" fill="#b9bdca" opacity="0.5"/><circle cx="380.6" cy="168.6" r="2.3" fill="#b9bdca" opacity="0.5"/><circle cx="381.4" cy="77.1" r="2.3" fill="#b9bdca" opacity="0.5"/><circle cx="381.4" cy="99.5" r="2.3" fill="#b9bdca" opacity="0.5"/><circle cx="391.8" cy="71.4" r="2.3" fill="#b9bdca" opacity="0.5"/><circle cx="391.8" cy="73.5" r="2.3" fill="#b9bdca" opacity="0.5"/><circle cx="395.6" cy="72.4" r="2.3" fill="#b9bdca" opacity="0.5"/><circle cx="410.8" cy="83.0" r="2.3" fill="#b9bdca" opacity="0.5"/><circle cx="411.0" cy="72.1" r="2.3" fill="#b9bdca" opacity="0.5"/><circle cx="411.2" cy="71.6" r="2.3" fill="#b9bdca" opacity="0.5"/><circle cx="411.7" cy="75.5" r="2.3" fill="#b9bdca" opacity="0.5"/><circle cx="412.0" cy="73.7" r="2.3" fill="#b9bdca" opacity="0.5"/><circle cx="412.6" cy="72.9" r="2.3" fill="#b9bdca" opacity="0.5"/><circle cx="412.9" cy="73.4" r="2.3" fill="#b9bdca" opacity="0.5"/><circle cx="442.7" cy="85.2" r="2.3" fill="#b9bdca" opacity="0.5"/><circle cx="442.7" cy="256.6" r="2.3" fill="#b9bdca" opacity="0.5"/><circle cx="442.7" cy="335.3" r="2.3" fill="#b9bdca" opacity="0.5"/><circle cx="442.9" cy="86.8" r="2.3" fill="#b9bdca" opacity="0.5"/><circle cx="443.2" cy="71.5" r="2.3" fill="#b9bdca" opacity="0.5"/><circle cx="444.0" cy="71.0" r="2.3" fill="#b9bdca" opacity="0.5"/><circle cx="444.4" cy="71.5" r="2.3" fill="#b9bdca" opacity="0.5"/><circle cx="444.5" cy="55.0" r="2.3" fill="#b9bdca" opacity="0.5"/><circle cx="448.7" cy="83.1" r="2.3" fill="#b9bdca" opacity="0.5"/><circle cx="449.7" cy="74.7" r="2.3" fill="#b9bdca" opacity="0.5"/><circle cx="449.8" cy="59.3" r="2.3" fill="#b9bdca" opacity="0.5"/><circle cx="449.8" cy="79.9" r="2.3" fill="#b9bdca" opacity="0.5"/><circle cx="449.9" cy="74.1" r="2.3" fill="#b9bdca" opacity="0.5"/><circle cx="450.1" cy="72.7" r="2.3" fill="#b9bdca" opacity="0.5"/><circle cx="450.1" cy="73.8" r="2.3" fill="#b9bdca" opacity="0.5"/><circle cx="450.1" cy="75.9" r="2.3" fill="#b9bdca" opacity="0.5"/><circle cx="450.3" cy="74.1" r="2.3" fill="#b9bdca" opacity="0.5"/><circle cx="450.5" cy="73.5" r="2.3" fill="#b9bdca" opacity="0.5"/><circle cx="450.8" cy="74.2" r="2.3" fill="#b9bdca" opacity="0.5"/><circle cx="451.0" cy="71.5" r="2.3" fill="#b9bdca" opacity="0.5"/><circle cx="451.6" cy="74.3" r="2.3" fill="#b9bdca" opacity="0.5"/><circle cx="454.9" cy="73.2" r="2.3" fill="#b9bdca" opacity="0.5"/><circle cx="454.9" cy="73.6" r="2.3" fill="#b9bdca" opacity="0.5"/><circle cx="454.9" cy="73.8" r="2.3" fill="#b9bdca" opacity="0.5"/><circle cx="461.4" cy="73.3" r="2.3" fill="#b9bdca" opacity="0.5"/><circle cx="461.4" cy="73.4" r="2.3" fill="#b9bdca" opacity="0.5"/><circle cx="476.1" cy="96.1" r="2.3" fill="#b9bdca" opacity="0.5"/><circle cx="536.2" cy="95.6" r="2.3" fill="#b9bdca" opacity="0.5"/><circle cx="556.1" cy="74.8" r="2.3" fill="#b9bdca" opacity="0.5"/><circle cx="557.0" cy="72.3" r="2.3" fill="#b9bdca" opacity="0.5"/><circle cx="562.7" cy="79.9" r="2.3" fill="#b9bdca" opacity="0.5"/><circle cx="562.7" cy="80.6" r="2.3" fill="#b9bdca" opacity="0.5"/><circle cx="574.1" cy="73.3" r="2.3" fill="#b9bdca" opacity="0.5"/><circle cx="574.1" cy="72.8" r="2.3" fill="#b9bdca" opacity="0.5"/><circle cx="574.1" cy="73.0" r="2.3" fill="#b9bdca" opacity="0.5"/><circle cx="574.1" cy="73.2" r="2.3" fill="#b9bdca" opacity="0.5"/><circle cx="574.1" cy="73.5" r="2.3" fill="#b9bdca" opacity="0.5"/><circle cx="574.1" cy="73.6" r="2.3" fill="#b9bdca" opacity="0.5"/><circle cx="574.1" cy="73.7" r="2.3" fill="#b9bdca" opacity="0.5"/><circle cx="574.4" cy="73.1" r="2.3" fill="#b9bdca" opacity="0.5"/><circle cx="574.4" cy="73.2" r="2.3" fill="#b9bdca" opacity="0.5"/><circle cx="574.4" cy="74.3" r="2.3" fill="#b9bdca" opacity="0.5"/><circle cx="574.4" cy="74.5" r="2.3" fill="#b9bdca" opacity="0.5"/><circle cx="574.5" cy="72.8" r="2.3" fill="#b9bdca" opacity="0.5"/><circle cx="574.7" cy="74.7" r="2.3" fill="#b9bdca" opacity="0.5"/><circle cx="602.2" cy="332.5" r="2.3" fill="#b9bdca" opacity="0.5"/><circle cx="635.1" cy="117.5" r="2.3" fill="#b9bdca" opacity="0.5"/><circle cx="635.1" cy="211.0" r="2.3" fill="#b9bdca" opacity="0.5"/><circle cx="643.4" cy="93.9" r="2.3" fill="#b9bdca" opacity="0.5"/><circle cx="656.3" cy="74.9" r="2.3" fill="#b9bdca" opacity="0.5"/><circle cx="656.5" cy="73.4" r="2.3" fill="#b9bdca" opacity="0.5"/><circle cx="656.7" cy="72.9" r="2.3" fill="#b9bdca" opacity="0.5"/><circle cx="657.0" cy="74.2" r="2.3" fill="#b9bdca" opacity="0.5"/><circle cx="657.0" cy="74.9" r="2.3" fill="#b9bdca" opacity="0.5"/><circle cx="657.2" cy="74.9" r="2.3" fill="#b9bdca" opacity="0.5"/><circle cx="657.4" cy="73.6" r="2.3" fill="#b9bdca" opacity="0.5"/><circle cx="657.5" cy="74.5" r="2.3" fill="#b9bdca" opacity="0.5"/><circle cx="657.6" cy="73.6" r="2.3" fill="#b9bdca" opacity="0.5"/><circle cx="657.9" cy="74.2" r="2.3" fill="#b9bdca" opacity="0.5"/><circle cx="658.4" cy="72.3" r="2.3" fill="#b9bdca" opacity="0.5"/><circle cx="658.7" cy="70.5" r="2.3" fill="#b9bdca" opacity="0.5"/><circle cx="658.9" cy="73.5" r="2.3" fill="#b9bdca" opacity="0.5"/><circle cx="659.0" cy="72.7" r="2.3" fill="#b9bdca" opacity="0.5"/><circle cx="659.1" cy="74.4" r="2.3" fill="#b9bdca" opacity="0.5"/><circle cx="673.3" cy="172.8" r="2.3" fill="#b9bdca" opacity="0.5"/><circle cx="673.4" cy="172.8" r="2.3" fill="#b9bdca" opacity="0.5"/><circle cx="674.0" cy="94.2" r="2.3" fill="#b9bdca" opacity="0.5"/><circle cx="970.0" cy="335.0" r="2.3" fill="#b9bdca" opacity="0.5"/><circle cx="1008.8" cy="75.0" r="2.3" fill="#b9bdca" opacity="0.5"/><circle cx="1009.5" cy="73.4" r="2.3" fill="#b9bdca" opacity="0.5"/><circle cx="1032.0" cy="253.7" r="2.3" fill="#b9bdca" opacity="0.5"/><path d="M122.5 152.3L126.1 155.9L122.5 159.5L118.9 155.9Z" fill="#2b3a7a" opacity="0.8" stroke="none" stroke-width="0"/><path d="M126.5 138.2L130.1 141.8L126.5 145.4L122.9 141.8Z" fill="#2b3a7a" opacity="0.8" stroke="none" stroke-width="0"/><path d="M127.1 128.1L130.7 131.7L127.1 135.3L123.5 131.7Z" fill="#2b3a7a" opacity="0.8" stroke="none" stroke-width="0"/><path d="M127.1 130.5L130.7 134.1L127.1 137.7L123.5 134.1Z" fill="#2b3a7a" opacity="0.8" stroke="none" stroke-width="0"/><path d="M127.6 127.3L131.2 130.9L127.6 134.5L124.0 130.9Z" fill="#2b3a7a" opacity="0.8" stroke="none" stroke-width="0"/><path d="M127.8 125.9L131.4 129.5L127.8 133.1L124.2 129.5Z" fill="#2b3a7a" opacity="0.8" stroke="none" stroke-width="0"/><path d="M127.8 127.3L131.4 130.9L127.8 134.5L124.2 130.9Z" fill="#2b3a7a" opacity="0.8" stroke="none" stroke-width="0"/><path d="M140.4 125.9L144.0 129.5L140.4 133.1L136.8 129.5Z" fill="#2b3a7a" opacity="0.8" stroke="none" stroke-width="0"/><path d="M142.3 125.3L145.9 128.9L142.3 132.5L138.7 128.9Z" fill="#2b3a7a" opacity="0.8" stroke="none" stroke-width="0"/><path d="M144.1 124.8L147.7 128.4L144.1 132.0L140.5 128.4Z" fill="#2b3a7a" opacity="0.8" stroke="none" stroke-width="0"/><path d="M145.3 124.6L148.9 128.2L145.3 131.8L141.7 128.2Z" fill="#2b3a7a" opacity="0.8" stroke="none" stroke-width="0"/><path d="M151.0 124.4L154.6 128.0L151.0 131.6L147.4 128.0Z" fill="#2b3a7a" opacity="0.8" stroke="none" stroke-width="0"/><path d="M157.0 109.2L160.6 112.8L157.0 116.4L153.4 112.8Z" fill="#2b3a7a" opacity="0.8" stroke="none" stroke-width="0"/><path d="M159.8 108.0L163.4 111.6L159.8 115.2L156.2 111.6Z" fill="#2b3a7a" opacity="0.8" stroke="none" stroke-width="0"/><path d="M160.6 101.9L164.2 105.5L160.6 109.1L157.0 105.5Z" fill="#2b3a7a" opacity="0.8" stroke="none" stroke-width="0"/><path d="M160.8 104.9L164.4 108.5L160.8 112.1L157.2 108.5Z" fill="#2b3a7a" opacity="0.8" stroke="none" stroke-width="0"/><path d="M161.1 101.5L164.7 105.1L161.1 108.7L157.5 105.1Z" fill="#2b3a7a" opacity="0.8" stroke="none" stroke-width="0"/><path d="M161.5 100.2L165.1 103.8L161.5 107.4L157.9 103.8Z" fill="#2b3a7a" opacity="0.8" stroke="none" stroke-width="0"/><path d="M165.6 99.9L169.2 103.5L165.6 107.1L162.0 103.5Z" fill="#2b3a7a" opacity="0.8" stroke="none" stroke-width="0"/><path d="M173.4 86.0L177.0 89.6L173.4 93.2L169.8 89.6Z" fill="#2b3a7a" opacity="0.8" stroke="none" stroke-width="0"/><path d="M174.7 85.7L178.3 89.3L174.7 92.9L171.1 89.3Z" fill="#2b3a7a" opacity="0.8" stroke="none" stroke-width="0"/><path d="M175.0 84.0L178.6 87.6L175.0 91.2L171.4 87.6Z" fill="#2b3a7a" opacity="0.8" stroke="none" stroke-width="0"/><path d="M176.4 81.8L180.0 85.4L176.4 89.0L172.8 85.4Z" fill="#2b3a7a" opacity="0.8" stroke="none" stroke-width="0"/><path d="M180.7 80.8L184.3 84.4L180.7 88.0L177.1 84.4Z" fill="#2b3a7a" opacity="0.8" stroke="none" stroke-width="0"/><path d="M213.6 80.8L217.2 84.4L213.6 88.0L210.0 84.4Z" fill="#2b3a7a" opacity="0.8" stroke="none" stroke-width="0"/><path d="M295.7 72.2L299.3 75.8L295.7 79.4L292.1 75.8Z" fill="#2b3a7a" opacity="0.8" stroke="none" stroke-width="0"/><path d="M296.5 72.1L300.1 75.7L296.5 79.3L292.9 75.7Z" fill="#2b3a7a" opacity="0.8" stroke="none" stroke-width="0"/><path d="M297.3 71.7L300.9 75.3L297.3 78.9L293.7 75.3Z" fill="#2b3a7a" opacity="0.8" stroke="none" stroke-width="0"/><path d="M297.5 71.1L301.1 74.7L297.5 78.3L293.9 74.7Z" fill="#2b3a7a" opacity="0.8" stroke="none" stroke-width="0"/><path d="M298.2 71.1L301.8 74.7L298.2 78.3L294.6 74.7Z" fill="#2b3a7a" opacity="0.8" stroke="none" stroke-width="0"/><path d="M302.8 70.8L306.4 74.4L302.8 78.0L299.2 74.4Z" fill="#2b3a7a" opacity="0.8" stroke="none" stroke-width="0"/><path d="M309.1 70.3L312.7 73.9L309.1 77.5L305.5 73.9Z" fill="#2b3a7a" opacity="0.8" stroke="none" stroke-width="0"/><path d="M311.3 70.0L314.9 73.6L311.3 77.2L307.7 73.6Z" fill="#2b3a7a" opacity="0.8" stroke="none" stroke-width="0"/><path d="M344.5 69.8L348.1 73.4L344.5 77.0L340.9 73.4Z" fill="#2b3a7a" opacity="0.8" stroke="none" stroke-width="0"/><path d="M372.9 69.8L376.5 73.4L372.9 77.0L369.3 73.4Z" fill="#2b3a7a" opacity="0.8" stroke="none" stroke-width="0"/><path d="M391.8 67.8L395.4 71.4L391.8 75.0L388.2 71.4Z" fill="#2b3a7a" opacity="0.8" stroke="none" stroke-width="0"/><path d="M60.0 335.3L61.0 335.3L61.0 335.1L62.4 335.1L62.4 320.7L65.3 320.7L65.3 319.9L66.3 319.9L66.3 315.3L66.6 315.3L66.6 314.9L67.1 314.9L67.1 314.9L83.9 314.9L83.9 238.7L84.2 238.7L84.2 229.0L84.5 229.0L84.5 222.3L84.8 222.3L84.8 220.6L84.9 220.6L84.9 220.5L85.0 220.5L85.0 214.2L85.7 214.2L85.7 214.1L85.9 214.1L85.9 213.7L86.0 213.7L86.0 213.5L86.2 213.5L86.2 212.7L87.0 212.7L87.0 212.1L87.2 212.1L87.2 212.0L89.5 212.0L89.5 206.7L92.0 206.7L92.0 204.9L92.9 204.9L92.9 204.6L93.6 204.6L93.6 201.9L94.7 201.9L94.7 201.8L95.2 201.8L95.2 201.0L95.6 201.0L95.6 200.0L97.2 200.0L97.2 200.0L97.9 200.0L97.9 199.7L103.4 199.7L103.4 195.5L107.5 195.5L107.5 187.4L107.6 187.4L107.6 186.2L107.9 186.2L107.9 184.5L115.1 184.5L115.1 183.9L118.7 183.9L118.7 169.3L119.9 169.3L119.9 168.8L119.9 168.8L119.9 167.7L120.6 167.7L120.6 165.0L120.9 165.0L120.9 163.7L121.0 163.7L121.0 163.6L122.5 163.6L122.5 155.9L124.3 155.9L124.3 155.8L125.0 155.8L125.0 141.9L126.5 141.9L126.5 141.8L127.1 141.8L127.1 131.7L127.6 131.7L127.6 130.9L127.8 130.9L127.8 129.5L140.4 129.5L140.4 129.5L142.3 129.5L142.3 128.9L144.1 128.9L144.1 128.4L145.3 128.4L145.3 128.2L151.0 128.2L151.0 128.0L157.0 128.0L157.0 112.8L158.3 112.8L158.3 110.2L160.6 110.2L160.6 105.5L161.1 105.5L161.1 105.1L161.5 105.1L161.5 103.8L165.6 103.8L165.6 103.5L173.4 103.5L173.4 89.6L174.7 89.6L174.7 89.3L175.0 89.3L175.0 87.6L176.4 87.6L176.4 85.4L180.7 85.4L180.7 84.4L213.6 84.4L213.6 84.4L295.7 84.4L295.7 75.8L296.5 75.8L296.5 75.7L297.3 75.7L297.3 75.3L297.5 75.3L297.5 74.7L298.2 74.7L298.2 74.7L302.8 74.7L302.8 74.4L309.1 74.4L309.1 73.9L311.3 73.9L311.3 73.6L314.7 73.6L314.7 69.8L316.2 69.8L316.2 69.1L444.5 69.1L444.5 55.0L1032.0 55.0" fill="none" stroke="#6675b0" stroke-width="1.6" stroke-dasharray="5 3" opacity="0.75"/><path d="M122.5 155.9L126.5 155.9L126.5 141.8L127.1 141.8L127.1 131.7L127.6 131.7L127.6 130.9L127.8 130.9L127.8 129.5L140.4 129.5L140.4 129.5L142.3 129.5L142.3 128.9L144.1 128.9L144.1 128.4L145.3 128.4L145.3 128.2L151.0 128.2L151.0 128.0L157.0 128.0L157.0 112.8L159.8 112.8L159.8 111.6L160.6 111.6L160.6 105.5L161.1 105.5L161.1 105.1L161.5 105.1L161.5 103.8L165.6 103.8L165.6 103.5L173.4 103.5L173.4 89.6L174.7 89.6L174.7 89.3L175.0 89.3L175.0 87.6L176.4 87.6L176.4 85.4L180.7 85.4L180.7 84.4L213.6 84.4L213.6 84.4L295.7 84.4L295.7 75.8L296.5 75.8L296.5 75.7L297.3 75.7L297.3 75.3L297.5 75.3L297.5 74.7L298.2 74.7L298.2 74.7L302.8 74.7L302.8 74.4L309.1 74.4L309.1 73.9L311.3 73.9L311.3 73.6L314.7 73.6L314.7 73.5L344.5 73.5L344.5 73.4L372.9 73.4L372.9 73.4L391.8 73.4L391.8 71.4L1032.0 71.4" fill="none" stroke="#2b3a7a" stroke-width="2.6"/><path d="M269.1 246.9L275.6 253.4L269.1 259.9L262.6 253.4Z" fill="#c5961a" opacity="1.0" stroke="#ffffff" stroke-width="1.4"/><path d="M310.0 206.5L316.5 213.0L310.0 219.5L303.5 213.0Z" fill="#c5961a" opacity="1.0" stroke="#ffffff" stroke-width="1.4"/><path d="M314.7 67.0L321.2 73.5L314.7 80.0L308.2 73.5Z" fill="#c5961a" opacity="1.0" stroke="#ffffff" stroke-width="1.4"/><path d="M349.7 240.8L356.2 247.3L349.7 253.8L343.2 247.3Z" fill="#c5961a" opacity="1.0" stroke="#ffffff" stroke-width="1.4"/><path d="M349.9 238.0L356.4 244.5L349.9 251.0L343.4 244.5Z" fill="#c5961a" opacity="1.0" stroke="#ffffff" stroke-width="1.4"/><path d="M789.8 66.6L796.3 73.1L789.8 79.6L783.3 73.1Z" fill="#c5961a" opacity="1.0" stroke="#ffffff" stroke-width="1.4"/><text x="1042" y="53.0" font-size="11.5" fill="#6675b0">– – raw best 535.9</text><text x="1042" y="67.0" font-size="10" fill="#8a8fa3">unverified (pending)</text><path d="M391.8 64.9L398.3 71.4L391.8 77.9L385.3 71.4Z" fill="#2b3a7a" opacity="1.0" stroke="#ffffff" stroke-width="1.4"/><text x="1042" y="99.4" font-size="12.5" fill="#2b3a7a" font-weight="bold">◆ verified 510.1</text><text x="1042" y="115.4" font-size="10.5" fill="#3a3f55">top verified</text><text x="60" y="24" font-size="13" font-weight="bold" fill="#3a3f55" letter-spacing="1.2">SCORE EVOLUTION — gemma-challenge (tok/s)</text><circle cx="452" cy="20" r="3" fill="#b9bdca"/><text x="460" y="24" font-size="10.5" fill="#8a8fa3">all results</text><path d="M544.0 16.4L547.6 20.0L544.0 23.6L540.4 20.0Z" fill="#2b3a7a" opacity="1.0" stroke="none" stroke-width="0"/><text x="552" y="24" font-size="10.5" fill="#8a8fa3">verified</text><path d="M620.0 15.5L624.5 20.0L620.0 24.5L615.5 20.0Z" fill="#c5961a" opacity="1.0" stroke="#fff" stroke-width="1"/><text x="629" y="24" font-size="10.5" fill="#8a8fa3">mikasa-inbound (us)</text></svg>