<svg viewBox="0 0 1200 440" xmlns="http://www.w3.org/2000/svg" font-family="ui-sans-serif,system-ui,-apple-system,sans-serif"><rect x="0" y="0" width="1200" height="440" fill="#ffffff"/><rect x="60" y="46" width="972" height="350" fill="#f3f4fb"/><line x1="60" y1="396.0" x2="1032" y2="396.0" stroke="#e3e5ef" stroke-width="1"/><text x="52" y="400.0" text-anchor="end" font-size="11" fill="#8a8fa3">0</text><line x1="60" y1="332.4" x2="1032" y2="332.4" stroke="#e3e5ef" stroke-width="1"/><text x="52" y="336.4" text-anchor="end" font-size="11" fill="#8a8fa3">100</text><line x1="60" y1="268.7" x2="1032" y2="268.7" stroke="#e3e5ef" stroke-width="1"/><text x="52" y="272.7" text-anchor="end" font-size="11" fill="#8a8fa3">200</text><line x1="60" y1="205.1" x2="1032" y2="205.1" stroke="#e3e5ef" stroke-width="1"/><text x="52" y="209.1" text-anchor="end" font-size="11" fill="#8a8fa3">300</text><line x1="60" y1="141.5" x2="1032" y2="141.5" stroke="#e3e5ef" stroke-width="1"/><text x="52" y="145.5" text-anchor="end" font-size="11" fill="#8a8fa3">400</text><line x1="60" y1="77.8" x2="1032" y2="77.8" stroke="#e3e5ef" stroke-width="1"/><text x="52" y="81.8" text-anchor="end" font-size="11" fill="#8a8fa3">500</text><line x1="129.4" y1="46" x2="129.4" y2="396" stroke="#e3e5ef" stroke-width="1"/><text x="129.4" y="414.0" text-anchor="middle" font-size="11" fill="#8a8fa3">Jun 10</text><line x1="228.3" y1="46" x2="228.3" y2="396" stroke="#e3e5ef" stroke-width="1"/><text x="228.3" y="414.0" text-anchor="middle" font-size="11" fill="#8a8fa3">Jun 12</text><line x1="327.2" y1="46" x2="327.2" y2="396" stroke="#e3e5ef" stroke-width="1"/><text x="327.2" y="414.0" text-anchor="middle" font-size="11" fill="#8a8fa3">Jun 14</text><line x1="426.2" y1="46" x2="426.2" y2="396" stroke="#e3e5ef" stroke-width="1"/><text x="426.2" y="414.0" text-anchor="middle" font-size="11" fill="#8a8fa3">Jun 16</text><line x1="525.1" y1="46" x2="525.1" y2="396" stroke="#e3e5ef" stroke-width="1"/><text x="525.1" y="414.0" text-anchor="middle" font-size="11" fill="#8a8fa3">Jun 18</text><line x1="624.1" y1="46" x2="624.1" y2="396" stroke="#e3e5ef" stroke-width="1"/><text x="624.1" y="414.0" text-anchor="middle" font-size="11" fill="#8a8fa3">Jun 20</text><line x1="723.0" y1="46" x2="723.0" y2="396" stroke="#e3e5ef" stroke-width="1"/><text x="723.0" y="414.0" text-anchor="middle" font-size="11" fill="#8a8fa3">Jun 22</text><line x1="822.0" y1="46" x2="822.0" y2="396" stroke="#e3e5ef" stroke-width="1"/><text x="822.0" y="414.0" text-anchor="middle" font-size="11" fill="#8a8fa3">Jun 24</text><line x1="920.9" y1="46" x2="920.9" y2="396" stroke="#e3e5ef" stroke-width="1"/><text x="920.9" y="414.0" text-anchor="middle" font-size="11" fill="#8a8fa3">Jun 26</text><line x1="1019.8" y1="46" x2="1019.8" y2="396" stroke="#e3e5ef" stroke-width="1"/><text x="1019.8" y="414.0" text-anchor="middle" font-size="11" fill="#8a8fa3">Jun 28</text><circle cx="60.0" cy="335.3" r="2.3" fill="#b9bdca" opacity="0.5"/><circle cx="62.4" cy="335.1" r="2.3" fill="#b9bdca" opacity="0.5"/><circle cx="64.8" cy="368.0" r="2.3" fill="#b9bdca" opacity="0.5"/><circle cx="65.7" cy="320.7" r="2.3" fill="#b9bdca" opacity="0.5"/><circle cx="72.3" cy="319.9" r="2.3" fill="#b9bdca" opacity="0.5"/><circle cx="72.7" cy="320.6" r="2.3" fill="#b9bdca" opacity="0.5"/><circle cx="74.8" cy="315.3" r="2.3" fill="#b9bdca" opacity="0.5"/><circle cx="75.2" cy="319.7" r="2.3" fill="#b9bdca" opacity="0.5"/><circle cx="75.4" cy="314.9" r="2.3" fill="#b9bdca" opacity="0.5"/><circle cx="76.2" cy="315.5" r="2.3" fill="#b9bdca" opacity="0.5"/><circle cx="76.5" cy="314.9" r="2.3" fill="#b9bdca" opacity="0.5"/><circle cx="77.1" cy="315.4" r="2.3" fill="#b9bdca" opacity="0.5"/><circle cx="78.4" cy="315.0" r="2.3" fill="#b9bdca" opacity="0.5"/><circle cx="115.9" cy="238.7" r="2.3" fill="#b9bdca" opacity="0.5"/><circle cx="116.2" cy="315.0" r="2.3" fill="#b9bdca" opacity="0.5"/><circle cx="116.5" cy="229.0" r="2.3" fill="#b9bdca" opacity="0.5"/><circle cx="117.1" cy="222.3" r="2.3" fill="#b9bdca" opacity="0.5"/><circle cx="117.7" cy="228.0" r="2.3" fill="#b9bdca" opacity="0.5"/><circle cx="117.8" cy="223.3" r="2.3" fill="#b9bdca" opacity="0.5"/><circle cx="117.9" cy="220.6" r="2.3" fill="#b9bdca" opacity="0.5"/><circle cx="118.1" cy="220.5" r="2.3" fill="#b9bdca" opacity="0.5"/><circle cx="118.2" cy="223.2" r="2.3" fill="#b9bdca" opacity="0.5"/><circle cx="118.5" cy="214.2" r="2.3" fill="#b9bdca" opacity="0.5"/><circle cx="118.6" cy="222.1" r="2.3" fill="#b9bdca" opacity="0.5"/><circle cx="118.8" cy="220.7" r="2.3" fill="#b9bdca" opacity="0.5"/><circle cx="119.3" cy="218.5" r="2.3" fill="#b9bdca" opacity="0.5"/><circle cx="119.4" cy="215.2" r="2.3" fill="#b9bdca" opacity="0.5"/><circle cx="119.7" cy="214.3" r="2.3" fill="#b9bdca" opacity="0.5"/><circle cx="119.7" cy="219.2" r="2.3" fill="#b9bdca" opacity="0.5"/><circle cx="120.0" cy="214.1" r="2.3" fill="#b9bdca" opacity="0.5"/><circle cx="120.2" cy="215.2" r="2.3" fill="#b9bdca" opacity="0.5"/><circle cx="120.4" cy="213.7" r="2.3" fill="#b9bdca" opacity="0.5"/><circle cx="120.7" cy="213.5" r="2.3" fill="#b9bdca" opacity="0.5"/><circle cx="121.0" cy="214.8" r="2.3" fill="#b9bdca" opacity="0.5"/><circle cx="121.0" cy="217.7" r="2.3" fill="#b9bdca" opacity="0.5"/><circle cx="121.2" cy="212.7" r="2.3" fill="#b9bdca" opacity="0.5"/><circle cx="121.8" cy="213.3" r="2.3" fill="#b9bdca" opacity="0.5"/><circle cx="122.5" cy="212.7" r="2.3" fill="#b9bdca" opacity="0.5"/><circle cx="122.5" cy="213.6" r="2.3" fill="#b9bdca" opacity="0.5"/><circle cx="122.7" cy="213.0" r="2.3" fill="#b9bdca" opacity="0.5"/><circle cx="123.1" cy="212.1" r="2.3" fill="#b9bdca" opacity="0.5"/><circle cx="123.2" cy="213.3" r="2.3" fill="#b9bdca" opacity="0.5"/><circle cx="123.6" cy="212.0" r="2.3" fill="#b9bdca" opacity="0.5"/><circle cx="124.3" cy="212.1" r="2.3" fill="#b9bdca" opacity="0.5"/><circle cx="124.3" cy="212.8" r="2.3" fill="#b9bdca" opacity="0.5"/><circle cx="128.9" cy="206.7" r="2.3" fill="#b9bdca" opacity="0.5"/><circle cx="129.5" cy="206.8" r="2.3" fill="#b9bdca" opacity="0.5"/><circle cx="129.5" cy="212.5" r="2.3" fill="#b9bdca" opacity="0.5"/><circle cx="129.9" cy="207.2" r="2.3" fill="#b9bdca" opacity="0.5"/><circle cx="131.3" cy="207.0" r="2.3" fill="#b9bdca" opacity="0.5"/><circle cx="134.8" cy="204.9" r="2.3" fill="#b9bdca" opacity="0.5"/><circle cx="137.0" cy="204.6" r="2.3" fill="#b9bdca" opacity="0.5"/><circle cx="137.2" cy="212.3" r="2.3" fill="#b9bdca" opacity="0.5"/><circle cx="137.5" cy="204.6" r="2.3" fill="#b9bdca" opacity="0.5"/><circle cx="137.5" cy="204.6" r="2.3" fill="#b9bdca" opacity="0.5"/><circle cx="137.5" cy="204.9" r="2.3" fill="#b9bdca" opacity="0.5"/><circle cx="137.5" cy="204.9" r="2.3" fill="#b9bdca" opacity="0.5"/><circle cx="138.4" cy="201.9" r="2.3" fill="#b9bdca" opacity="0.5"/><circle cx="139.8" cy="206.5" r="2.3" fill="#b9bdca" opacity="0.5"/><circle cx="140.3" cy="205.8" r="2.3" fill="#b9bdca" opacity="0.5"/><circle cx="140.3" cy="335.1" r="2.3" fill="#b9bdca" opacity="0.5"/><circle cx="141.0" cy="201.8" r="2.3" fill="#b9bdca" opacity="0.5"/><circle cx="141.1" cy="202.2" r="2.3" fill="#b9bdca" opacity="0.5"/><circle cx="142.3" cy="201.0" r="2.3" fill="#b9bdca" opacity="0.5"/><circle cx="142.9" cy="203.1" r="2.3" fill="#b9bdca" opacity="0.5"/><circle cx="143.1" cy="200.0" r="2.3" fill="#b9bdca" opacity="0.5"/><circle cx="143.2" cy="204.6" r="2.3" fill="#b9bdca" opacity="0.5"/><circle cx="144.0" cy="202.3" r="2.3" fill="#b9bdca" opacity="0.5"/><circle cx="145.6" cy="200.4" r="2.3" fill="#b9bdca" opacity="0.5"/><circle cx="146.3" cy="200.7" r="2.3" fill="#b9bdca" opacity="0.5"/><circle cx="147.0" cy="200.0" r="2.3" fill="#b9bdca" opacity="0.5"/><circle cx="148.5" cy="199.7" r="2.3" fill="#b9bdca" opacity="0.5"/><circle cx="157.9" cy="200.6" r="2.3" fill="#b9bdca" opacity="0.5"/><circle cx="158.8" cy="201.8" r="2.3" fill="#b9bdca" opacity="0.5"/><circle cx="160.0" cy="208.4" r="2.3" fill="#b9bdca" opacity="0.5"/><circle cx="160.1" cy="200.8" r="2.3" fill="#b9bdca" opacity="0.5"/><circle cx="161.0" cy="200.7" r="2.3" fill="#b9bdca" opacity="0.5"/><circle cx="161.0" cy="201.9" r="2.3" fill="#b9bdca" opacity="0.5"/><circle cx="161.4" cy="195.5" r="2.3" fill="#b9bdca" opacity="0.5"/><circle cx="162.2" cy="196.9" r="2.3" fill="#b9bdca" opacity="0.5"/><circle cx="162.7" cy="197.9" r="2.3" fill="#b9bdca" opacity="0.5"/><circle cx="163.5" cy="196.1" r="2.3" fill="#b9bdca" opacity="0.5"/><circle cx="166.4" cy="197.3" r="2.3" fill="#b9bdca" opacity="0.5"/><circle cx="167.2" cy="195.9" r="2.3" fill="#b9bdca" opacity="0.5"/><circle cx="167.5" cy="201.0" r="2.3" fill="#b9bdca" opacity="0.5"/><circle cx="167.7" cy="197.5" r="2.3" fill="#b9bdca" opacity="0.5"/><circle cx="168.4" cy="196.9" r="2.3" fill="#b9bdca" opacity="0.5"/><circle cx="168.4" cy="197.1" r="2.3" fill="#b9bdca" opacity="0.5"/><circle cx="168.5" cy="197.0" r="2.3" fill="#b9bdca" opacity="0.5"/><circle cx="169.1" cy="196.0" r="2.3" fill="#b9bdca" opacity="0.5"/><circle cx="169.1" cy="196.0" r="2.3" fill="#b9bdca" opacity="0.5"/><circle cx="169.2" cy="197.9" r="2.3" fill="#b9bdca" opacity="0.5"/><circle cx="169.7" cy="197.8" r="2.3" fill="#b9bdca" opacity="0.5"/><circle cx="170.1" cy="196.2" r="2.3" fill="#b9bdca" opacity="0.5"/><circle cx="170.1" cy="197.5" r="2.3" fill="#b9bdca" opacity="0.5"/><circle cx="170.3" cy="196.9" r="2.3" fill="#b9bdca" opacity="0.5"/><circle cx="170.3" cy="195.5" r="2.3" fill="#b9bdca" opacity="0.5"/><circle cx="170.9" cy="198.1" r="2.3" fill="#b9bdca" opacity="0.5"/><circle cx="171.0" cy="187.4" r="2.3" fill="#b9bdca" opacity="0.5"/><circle cx="171.3" cy="186.2" r="2.3" fill="#b9bdca" opacity="0.5"/><circle cx="171.3" cy="196.3" r="2.3" fill="#b9bdca" opacity="0.5"/><circle cx="171.3" cy="197.2" r="2.3" fill="#b9bdca" opacity="0.5"/><circle cx="171.3" cy="197.8" r="2.3" fill="#b9bdca" opacity="0.5"/><circle cx="171.3" cy="368.0" r="2.3" fill="#b9bdca" opacity="0.5"/><circle cx="171.9" cy="184.5" r="2.3" fill="#b9bdca" opacity="0.5"/><circle cx="174.5" cy="184.6" r="2.3" fill="#b9bdca" opacity="0.5"/><circle cx="175.6" cy="185.6" r="2.3" fill="#b9bdca" opacity="0.5"/><circle cx="179.3" cy="188.7" r="2.3" fill="#b9bdca" opacity="0.5"/><circle cx="184.3" cy="185.4" r="2.3" fill="#b9bdca" opacity="0.5"/><circle cx="185.4" cy="185.2" r="2.3" fill="#b9bdca" opacity="0.5"/><circle cx="185.8" cy="186.6" r="2.3" fill="#b9bdca" opacity="0.5"/><circle cx="185.9" cy="185.3" r="2.3" fill="#b9bdca" opacity="0.5"/><circle cx="186.8" cy="185.3" r="2.3" fill="#b9bdca" opacity="0.5"/><circle cx="187.2" cy="185.0" r="2.3" fill="#b9bdca" opacity="0.5"/><circle cx="188.0" cy="184.9" r="2.3" fill="#b9bdca" opacity="0.5"/><circle cx="188.6" cy="185.1" r="2.3" fill="#b9bdca" opacity="0.5"/><circle cx="188.6" cy="185.2" r="2.3" fill="#b9bdca" opacity="0.5"/><circle cx="188.6" cy="186.4" r="2.3" fill="#b9bdca" opacity="0.5"/><circle cx="188.7" cy="183.9" r="2.3" fill="#b9bdca" opacity="0.5"/><circle cx="193.3" cy="184.4" r="2.3" fill="#b9bdca" opacity="0.5"/><circle cx="194.1" cy="184.2" r="2.3" fill="#b9bdca" opacity="0.5"/><circle cx="197.0" cy="169.3" r="2.3" fill="#b9bdca" opacity="0.5"/><circle cx="199.8" cy="168.8" r="2.3" fill="#b9bdca" opacity="0.5"/><circle cx="200.0" cy="167.7" r="2.3" fill="#b9bdca" opacity="0.5"/><circle cx="201.2" cy="201.4" r="2.3" fill="#b9bdca" opacity="0.5"/><circle cx="201.6" cy="165.0" r="2.3" fill="#b9bdca" opacity="0.5"/><circle cx="201.8" cy="198.2" r="2.3" fill="#b9bdca" opacity="0.5"/><circle cx="202.2" cy="163.7" r="2.3" fill="#b9bdca" opacity="0.5"/><circle cx="202.4" cy="163.6" r="2.3" fill="#b9bdca" opacity="0.5"/><circle cx="202.9" cy="165.9" r="2.3" fill="#b9bdca" opacity="0.5"/><circle cx="205.4" cy="165.1" r="2.3" fill="#b9bdca" opacity="0.5"/><circle cx="205.9" cy="155.9" r="2.3" fill="#b9bdca" opacity="0.5"/><circle cx="208.4" cy="196.5" r="2.3" fill="#b9bdca" opacity="0.5"/><circle cx="209.4" cy="157.4" r="2.3" fill="#b9bdca" opacity="0.5"/><circle cx="210.3" cy="155.8" r="2.3" fill="#b9bdca" opacity="0.5"/><circle cx="211.9" cy="141.9" r="2.3" fill="#b9bdca" opacity="0.5"/><circle cx="215.2" cy="156.1" r="2.3" fill="#b9bdca" opacity="0.5"/><circle cx="215.2" cy="156.4" r="2.3" fill="#b9bdca" opacity="0.5"/><circle cx="215.4" cy="141.8" r="2.3" fill="#b9bdca" opacity="0.5"/><circle cx="215.5" cy="196.0" r="2.3" fill="#b9bdca" opacity="0.5"/><circle cx="216.7" cy="131.7" r="2.3" fill="#b9bdca" opacity="0.5"/><circle cx="216.8" cy="134.1" r="2.3" fill="#b9bdca" opacity="0.5"/><circle cx="217.2" cy="141.1" r="2.3" fill="#b9bdca" opacity="0.5"/><circle cx="217.7" cy="134.0" r="2.3" fill="#b9bdca" opacity="0.5"/><circle cx="217.8" cy="130.9" r="2.3" fill="#b9bdca" opacity="0.5"/><circle cx="217.8" cy="154.2" r="2.3" fill="#b9bdca" opacity="0.5"/><circle cx="218.1" cy="133.6" r="2.3" fill="#b9bdca" opacity="0.5"/><circle cx="218.3" cy="129.5" r="2.3" fill="#b9bdca" opacity="0.5"/><circle cx="218.3" cy="130.9" r="2.3" fill="#b9bdca" opacity="0.5"/><circle cx="218.3" cy="133.4" r="2.3" fill="#b9bdca" opacity="0.5"/><circle cx="218.6" cy="131.2" r="2.3" fill="#b9bdca" opacity="0.5"/><circle cx="220.6" cy="189.8" r="2.3" fill="#b9bdca" opacity="0.5"/><circle cx="220.7" cy="133.2" r="2.3" fill="#b9bdca" opacity="0.5"/><circle cx="221.1" cy="133.5" r="2.3" fill="#b9bdca" opacity="0.5"/><circle cx="221.8" cy="130.1" r="2.3" fill="#b9bdca" opacity="0.5"/><circle cx="223.8" cy="130.3" r="2.3" fill="#b9bdca" opacity="0.5"/><circle cx="224.8" cy="303.1" r="2.3" fill="#b9bdca" opacity="0.5"/><circle cx="226.4" cy="133.2" r="2.3" fill="#b9bdca" opacity="0.5"/><circle cx="228.6" cy="144.2" r="2.3" fill="#b9bdca" opacity="0.5"/><circle cx="229.1" cy="135.3" r="2.3" fill="#b9bdca" opacity="0.5"/><circle cx="230.5" cy="133.4" r="2.3" fill="#b9bdca" opacity="0.5"/><circle cx="230.6" cy="159.9" r="2.3" fill="#b9bdca" opacity="0.5"/><circle cx="231.0" cy="130.8" r="2.3" fill="#b9bdca" opacity="0.5"/><circle cx="231.5" cy="133.2" r="2.3" fill="#b9bdca" opacity="0.5"/><circle cx="236.5" cy="130.9" r="2.3" fill="#b9bdca" opacity="0.5"/><circle cx="237.1" cy="130.9" r="2.3" fill="#b9bdca" opacity="0.5"/><circle cx="237.1" cy="133.8" r="2.3" fill="#b9bdca" opacity="0.5"/><circle cx="237.9" cy="130.4" r="2.3" fill="#b9bdca" opacity="0.5"/><circle cx="238.5" cy="153.7" r="2.3" fill="#b9bdca" opacity="0.5"/><circle cx="239.4" cy="133.3" r="2.3" fill="#b9bdca" opacity="0.5"/><circle cx="240.9" cy="156.5" r="2.3" fill="#b9bdca" opacity="0.5"/><circle cx="241.3" cy="132.3" r="2.3" fill="#b9bdca" opacity="0.5"/><circle cx="243.1" cy="147.2" r="2.3" fill="#b9bdca" opacity="0.5"/><circle cx="243.4" cy="133.6" r="2.3" fill="#b9bdca" opacity="0.5"/><circle cx="244.1" cy="129.5" r="2.3" fill="#b9bdca" opacity="0.5"/><circle cx="244.1" cy="133.3" r="2.3" fill="#b9bdca" opacity="0.5"/><circle cx="246.3" cy="133.3" r="2.3" fill="#b9bdca" opacity="0.5"/><circle cx="247.8" cy="129.5" r="2.3" fill="#b9bdca" opacity="0.5"/><circle cx="250.3" cy="130.6" r="2.3" fill="#b9bdca" opacity="0.5"/><circle cx="252.2" cy="128.9" r="2.3" fill="#b9bdca" opacity="0.5"/><circle cx="252.6" cy="132.7" r="2.3" fill="#b9bdca" opacity="0.5"/><circle cx="252.6" cy="133.1" r="2.3" fill="#b9bdca" opacity="0.5"/><circle cx="255.4" cy="129.8" r="2.3" fill="#b9bdca" opacity="0.5"/><circle cx="256.2" cy="333.8" r="2.3" fill="#b9bdca" opacity="0.5"/><circle cx="256.4" cy="128.4" r="2.3" fill="#b9bdca" opacity="0.5"/><circle cx="257.7" cy="129.8" r="2.3" fill="#b9bdca" opacity="0.5"/><circle cx="258.3" cy="128.9" r="2.3" fill="#b9bdca" opacity="0.5"/><circle cx="258.4" cy="128.9" r="2.3" fill="#b9bdca" opacity="0.5"/><circle cx="259.4" cy="128.2" r="2.3" fill="#b9bdca" opacity="0.5"/><circle cx="260.1" cy="129.7" r="2.3" fill="#b9bdca" opacity="0.5"/><circle cx="260.3" cy="142.3" r="2.3" fill="#b9bdca" opacity="0.5"/><circle cx="263.0" cy="128.8" r="2.3" fill="#b9bdca" opacity="0.5"/><circle cx="264.6" cy="161.1" r="2.3" fill="#b9bdca" opacity="0.5"/><circle cx="267.6" cy="164.4" r="2.3" fill="#b9bdca" opacity="0.5"/><circle cx="267.9" cy="248.3" r="2.3" fill="#b9bdca" opacity="0.5"/><circle cx="272.3" cy="135.4" r="2.3" fill="#b9bdca" opacity="0.5"/><circle cx="272.7" cy="128.0" r="2.3" fill="#b9bdca" opacity="0.5"/><circle cx="274.0" cy="229.0" r="2.3" fill="#b9bdca" opacity="0.5"/><circle cx="277.0" cy="128.1" r="2.3" fill="#b9bdca" opacity="0.5"/><circle cx="277.8" cy="128.6" r="2.3" fill="#b9bdca" opacity="0.5"/><circle cx="280.6" cy="128.8" r="2.3" fill="#b9bdca" opacity="0.5"/><circle cx="280.6" cy="129.6" r="2.3" fill="#b9bdca" opacity="0.5"/><circle cx="280.6" cy="130.9" r="2.3" fill="#b9bdca" opacity="0.5"/><circle cx="286.6" cy="112.8" r="2.3" fill="#b9bdca" opacity="0.5"/><circle cx="289.7" cy="110.2" r="2.3" fill="#b9bdca" opacity="0.5"/><circle cx="289.8" cy="111.6" r="2.3" fill="#b9bdca" opacity="0.5"/><circle cx="291.7" cy="111.0" r="2.3" fill="#b9bdca" opacity="0.5"/><circle cx="292.7" cy="335.1" r="2.3" fill="#b9bdca" opacity="0.5"/><circle cx="293.1" cy="111.6" r="2.3" fill="#b9bdca" opacity="0.5"/><circle cx="295.1" cy="105.5" r="2.3" fill="#b9bdca" opacity="0.5"/><circle cx="295.4" cy="108.5" r="2.3" fill="#b9bdca" opacity="0.5"/><circle cx="296.2" cy="105.1" r="2.3" fill="#b9bdca" opacity="0.5"/><circle cx="297.1" cy="103.8" r="2.3" fill="#b9bdca" opacity="0.5"/><circle cx="298.1" cy="125.8" r="2.3" fill="#b9bdca" opacity="0.5"/><circle cx="306.7" cy="103.5" r="2.3" fill="#b9bdca" opacity="0.5"/><circle cx="308.9" cy="127.8" r="2.3" fill="#b9bdca" opacity="0.5"/><circle cx="309.9" cy="334.3" r="2.3" fill="#b9bdca" opacity="0.5"/><circle cx="311.2" cy="128.6" r="2.3" fill="#b9bdca" opacity="0.5"/><circle cx="311.8" cy="128.6" r="2.3" fill="#b9bdca" opacity="0.5"/><circle cx="312.0" cy="128.6" r="2.3" fill="#b9bdca" opacity="0.5"/><circle cx="312.7" cy="256.6" r="2.3" fill="#b9bdca" opacity="0.5"/><circle cx="313.7" cy="254.6" r="2.3" fill="#b9bdca" opacity="0.5"/><circle cx="315.3" cy="128.6" r="2.3" fill="#b9bdca" opacity="0.5"/><circle cx="319.2" cy="250.1" r="2.3" fill="#b9bdca" opacity="0.5"/><circle cx="319.6" cy="161.4" r="2.3" fill="#b9bdca" opacity="0.5"/><circle cx="320.0" cy="206.6" r="2.3" fill="#b9bdca" opacity="0.5"/><circle cx="323.6" cy="113.5" r="2.3" fill="#b9bdca" opacity="0.5"/><circle cx="324.8" cy="89.6" r="2.3" fill="#b9bdca" opacity="0.5"/><circle cx="325.7" cy="90.2" r="2.3" fill="#b9bdca" opacity="0.5"/><circle cx="328.0" cy="89.3" r="2.3" fill="#b9bdca" opacity="0.5"/><circle cx="328.6" cy="87.6" r="2.3" fill="#b9bdca" opacity="0.5"/><circle cx="329.3" cy="185.0" r="2.3" fill="#b9bdca" opacity="0.5"/><circle cx="330.2" cy="131.6" r="2.3" fill="#b9bdca" opacity="0.5"/><circle cx="330.8" cy="87.8" r="2.3" fill="#b9bdca" opacity="0.5"/><circle cx="331.8" cy="85.4" r="2.3" fill="#b9bdca" opacity="0.5"/><circle cx="333.4" cy="86.8" r="2.3" fill="#b9bdca" opacity="0.5"/><circle cx="335.1" cy="88.4" r="2.3" fill="#b9bdca" opacity="0.5"/><circle cx="341.9" cy="89.5" r="2.3" fill="#b9bdca" opacity="0.5"/><circle cx="341.9" cy="155.6" r="2.3" fill="#b9bdca" opacity="0.5"/><circle cx="341.9" cy="84.4" r="2.3" fill="#b9bdca" opacity="0.5"/><circle cx="350.0" cy="89.2" r="2.3" fill="#b9bdca" opacity="0.5"/><circle cx="350.2" cy="90.5" r="2.3" fill="#b9bdca" opacity="0.5"/><circle cx="352.5" cy="87.7" r="2.3" fill="#b9bdca" opacity="0.5"/><circle cx="353.2" cy="367.9" r="2.3" fill="#b9bdca" opacity="0.5"/><circle cx="356.5" cy="164.3" r="2.3" fill="#b9bdca" opacity="0.5"/><circle cx="358.1" cy="94.6" r="2.3" fill="#b9bdca" opacity="0.5"/><circle cx="358.8" cy="89.6" r="2.3" fill="#b9bdca" opacity="0.5"/><circle cx="365.8" cy="124.6" r="2.3" fill="#b9bdca" opacity="0.5"/><circle cx="373.2" cy="146.2" r="2.3" fill="#b9bdca" opacity="0.5"/><circle cx="373.4" cy="90.5" r="2.3" fill="#b9bdca" opacity="0.5"/><circle cx="374.1" cy="87.7" r="2.3" fill="#b9bdca" opacity="0.5"/><circle cx="374.5" cy="87.7" r="2.3" fill="#b9bdca" opacity="0.5"/><circle cx="374.5" cy="89.6" r="2.3" fill="#b9bdca" opacity="0.5"/><circle cx="379.8" cy="93.0" r="2.3" fill="#b9bdca" opacity="0.5"/><circle cx="381.7" cy="85.5" r="2.3" fill="#b9bdca" opacity="0.5"/><circle cx="397.4" cy="334.8" r="2.3" fill="#b9bdca" opacity="0.5"/><circle cx="399.2" cy="86.3" r="2.3" fill="#b9bdca" opacity="0.5"/><circle cx="404.4" cy="85.5" r="2.3" fill="#b9bdca" opacity="0.5"/><circle cx="405.4" cy="84.6" r="2.3" fill="#b9bdca" opacity="0.5"/><circle cx="407.6" cy="87.8" r="2.3" fill="#b9bdca" opacity="0.5"/><circle cx="408.5" cy="84.4" r="2.3" fill="#b9bdca" opacity="0.5"/><circle cx="409.0" cy="84.8" r="2.3" fill="#b9bdca" opacity="0.5"/><circle cx="410.5" cy="87.4" r="2.3" fill="#b9bdca" opacity="0.5"/><circle cx="418.9" cy="84.4" r="2.3" fill="#b9bdca" opacity="0.5"/><circle cx="455.9" cy="89.3" r="2.3" fill="#b9bdca" opacity="0.5"/><circle cx="462.5" cy="88.6" r="2.3" fill="#b9bdca" opacity="0.5"/><circle cx="462.5" cy="92.1" r="2.3" fill="#b9bdca" opacity="0.5"/><circle cx="464.0" cy="156.8" r="2.3" fill="#b9bdca" opacity="0.5"/><circle cx="485.3" cy="201.6" r="2.3" fill="#b9bdca" opacity="0.5"/><circle cx="500.8" cy="315.6" r="2.3" fill="#b9bdca" opacity="0.5"/><circle cx="543.4" cy="87.7" r="2.3" fill="#b9bdca" opacity="0.5"/><circle cx="556.3" cy="87.6" r="2.3" fill="#b9bdca" opacity="0.5"/><circle cx="567.7" cy="87.2" r="2.3" fill="#b9bdca" opacity="0.5"/><circle cx="570.3" cy="88.8" r="2.3" fill="#b9bdca" opacity="0.5"/><circle cx="571.3" cy="89.2" r="2.3" fill="#b9bdca" opacity="0.5"/><circle cx="571.9" cy="90.9" r="2.3" fill="#b9bdca" opacity="0.5"/><circle cx="575.2" cy="87.7" r="2.3" fill="#b9bdca" opacity="0.5"/><circle cx="586.7" cy="88.6" r="2.3" fill="#b9bdca" opacity="0.5"/><circle cx="588.1" cy="89.7" r="2.3" fill="#b9bdca" opacity="0.5"/><circle cx="589.1" cy="88.2" r="2.3" fill="#b9bdca" opacity="0.5"/><circle cx="610.7" cy="75.8" r="2.3" fill="#b9bdca" opacity="0.5"/><circle cx="612.4" cy="75.7" r="2.3" fill="#b9bdca" opacity="0.5"/><circle cx="613.6" cy="76.7" r="2.3" fill="#b9bdca" opacity="0.5"/><circle cx="613.7" cy="75.8" r="2.3" fill="#b9bdca" opacity="0.5"/><circle cx="614.4" cy="75.3" r="2.3" fill="#b9bdca" opacity="0.5"/><circle cx="614.7" cy="74.7" r="2.3" fill="#b9bdca" opacity="0.5"/><circle cx="614.9" cy="83.4" r="2.3" fill="#b9bdca" opacity="0.5"/><circle cx="615.4" cy="76.2" r="2.3" fill="#b9bdca" opacity="0.5"/><circle cx="616.0" cy="78.1" r="2.3" fill="#b9bdca" opacity="0.5"/><circle cx="616.5" cy="74.7" r="2.3" fill="#b9bdca" opacity="0.5"/><circle cx="620.1" cy="89.3" r="2.3" fill="#b9bdca" opacity="0.5"/><circle cx="627.3" cy="74.4" r="2.3" fill="#b9bdca" opacity="0.5"/><circle cx="638.7" cy="74.4" r="2.3" fill="#b9bdca" opacity="0.5"/><circle cx="640.6" cy="335.1" r="2.3" fill="#b9bdca" opacity="0.5"/><circle cx="640.6" cy="81.7" r="2.3" fill="#b9bdca" opacity="0.5"/><circle cx="642.0" cy="74.6" r="2.3" fill="#b9bdca" opacity="0.5"/><circle cx="642.0" cy="82.1" r="2.3" fill="#b9bdca" opacity="0.5"/><circle cx="642.0" cy="73.9" r="2.3" fill="#b9bdca" opacity="0.5"/><circle cx="645.3" cy="76.2" r="2.3" fill="#b9bdca" opacity="0.5"/><circle cx="645.8" cy="82.1" r="2.3" fill="#b9bdca" opacity="0.5"/><circle cx="646.3" cy="74.2" r="2.3" fill="#b9bdca" opacity="0.5"/><circle cx="646.3" cy="75.0" r="2.3" fill="#b9bdca" opacity="0.5"/><circle cx="647.0" cy="73.6" r="2.3" fill="#b9bdca" opacity="0.5"/><circle cx="647.0" cy="83.3" r="2.3" fill="#b9bdca" opacity="0.5"/><circle cx="647.0" cy="83.8" r="2.3" fill="#b9bdca" opacity="0.5"/><circle cx="647.1" cy="78.1" r="2.3" fill="#b9bdca" opacity="0.5"/><circle cx="647.1" cy="81.5" r="2.3" fill="#b9bdca" opacity="0.5"/><circle cx="647.1" cy="83.0" r="2.3" fill="#b9bdca" opacity="0.5"/><circle cx="647.1" cy="83.7" r="2.3" fill="#b9bdca" opacity="0.5"/><circle cx="651.6" cy="82.7" r="2.3" fill="#b9bdca" opacity="0.5"/><circle cx="652.6" cy="77.8" r="2.3" fill="#b9bdca" opacity="0.5"/><circle cx="655.0" cy="69.8" r="2.3" fill="#b9bdca" opacity="0.5"/><circle cx="655.7" cy="75.9" r="2.3" fill="#b9bdca" opacity="0.5"/><circle cx="656.1" cy="74.3" r="2.3" fill="#b9bdca" opacity="0.5"/><circle cx="656.1" cy="77.4" r="2.3" fill="#b9bdca" opacity="0.5"/><circle cx="656.1" cy="80.6" r="2.3" fill="#b9bdca" opacity="0.5"/><circle cx="656.1" cy="81.8" r="2.3" fill="#b9bdca" opacity="0.5"/><circle cx="657.7" cy="76.9" r="2.3" fill="#b9bdca" opacity="0.5"/><circle cx="657.7" cy="82.8" r="2.3" fill="#b9bdca" opacity="0.5"/><circle cx="657.7" cy="83.0" r="2.3" fill="#b9bdca" opacity="0.5"/><circle cx="657.7" cy="83.1" r="2.3" fill="#b9bdca" opacity="0.5"/><circle cx="658.4" cy="69.1" r="2.3" fill="#b9bdca" opacity="0.5"/><circle cx="660.3" cy="75.5" r="2.3" fill="#b9bdca" opacity="0.5"/><circle cx="661.3" cy="74.3" r="2.3" fill="#b9bdca" opacity="0.5"/><circle cx="690.3" cy="74.0" r="2.3" fill="#b9bdca" opacity="0.5"/><circle cx="724.7" cy="73.4" r="2.3" fill="#b9bdca" opacity="0.5"/><circle cx="725.0" cy="75.9" r="2.3" fill="#b9bdca" opacity="0.5"/><circle cx="725.0" cy="76.3" r="2.3" fill="#b9bdca" opacity="0.5"/><circle cx="725.3" cy="76.0" r="2.3" fill="#b9bdca" opacity="0.5"/><circle cx="725.3" cy="76.8" r="2.3" fill="#b9bdca" opacity="0.5"/><circle cx="725.3" cy="81.2" r="2.3" fill="#b9bdca" opacity="0.5"/><circle cx="725.3" cy="83.4" r="2.3" fill="#b9bdca" opacity="0.5"/><circle cx="749.6" cy="76.6" r="2.3" fill="#b9bdca" opacity="0.5"/><circle cx="751.3" cy="76.7" r="2.3" fill="#b9bdca" opacity="0.5"/><circle cx="751.3" cy="82.8" r="2.3" fill="#b9bdca" opacity="0.5"/><circle cx="751.3" cy="82.8" r="2.3" fill="#b9bdca" opacity="0.5"/><circle cx="751.3" cy="83.3" r="2.3" fill="#b9bdca" opacity="0.5"/><circle cx="756.4" cy="233.4" r="2.3" fill="#b9bdca" opacity="0.5"/><circle cx="757.9" cy="228.9" r="2.3" fill="#b9bdca" opacity="0.5"/><circle cx="759.4" cy="198.3" r="2.3" fill="#b9bdca" opacity="0.5"/><circle cx="791.0" cy="73.4" r="2.3" fill="#b9bdca" opacity="0.5"/><circle cx="799.9" cy="192.4" r="2.3" fill="#b9bdca" opacity="0.5"/><circle cx="803.0" cy="75.3" r="2.3" fill="#b9bdca" opacity="0.5"/><circle cx="803.8" cy="74.0" r="2.3" fill="#b9bdca" opacity="0.5"/><circle cx="805.8" cy="194.4" r="2.3" fill="#b9bdca" opacity="0.5"/><circle cx="808.9" cy="168.6" r="2.3" fill="#b9bdca" opacity="0.5"/><circle cx="810.8" cy="77.1" r="2.3" fill="#b9bdca" opacity="0.5"/><circle cx="810.8" cy="99.5" r="2.3" fill="#b9bdca" opacity="0.5"/><circle cx="835.2" cy="71.4" r="2.3" fill="#b9bdca" opacity="0.5"/><circle cx="835.2" cy="73.5" r="2.3" fill="#b9bdca" opacity="0.5"/><circle cx="843.9" cy="72.4" r="2.3" fill="#b9bdca" opacity="0.5"/><circle cx="879.6" cy="83.0" r="2.3" fill="#b9bdca" opacity="0.5"/><circle cx="880.0" cy="72.1" r="2.3" fill="#b9bdca" opacity="0.5"/><circle cx="880.6" cy="71.6" r="2.3" fill="#b9bdca" opacity="0.5"/><circle cx="881.6" cy="75.5" r="2.3" fill="#b9bdca" opacity="0.5"/><circle cx="882.3" cy="73.7" r="2.3" fill="#b9bdca" opacity="0.5"/><circle cx="883.8" cy="72.9" r="2.3" fill="#b9bdca" opacity="0.5"/><circle cx="884.4" cy="73.4" r="2.3" fill="#b9bdca" opacity="0.5"/><circle cx="954.1" cy="85.2" r="2.3" fill="#b9bdca" opacity="0.5"/><circle cx="954.1" cy="256.6" r="2.3" fill="#b9bdca" opacity="0.5"/><circle cx="954.1" cy="335.3" r="2.3" fill="#b9bdca" opacity="0.5"/><circle cx="954.6" cy="86.8" r="2.3" fill="#b9bdca" opacity="0.5"/><circle cx="955.2" cy="71.5" r="2.3" fill="#b9bdca" opacity="0.5"/><circle cx="957.1" cy="71.0" r="2.3" fill="#b9bdca" opacity="0.5"/><circle cx="958.1" cy="71.5" r="2.3" fill="#b9bdca" opacity="0.5"/><circle cx="958.3" cy="55.0" r="2.3" fill="#b9bdca" opacity="0.5"/><circle cx="968.0" cy="83.1" r="2.3" fill="#b9bdca" opacity="0.5"/><circle cx="970.4" cy="74.7" r="2.3" fill="#b9bdca" opacity="0.5"/><circle cx="970.5" cy="59.3" r="2.3" fill="#b9bdca" opacity="0.5"/><circle cx="970.5" cy="79.9" r="2.3" fill="#b9bdca" opacity="0.5"/><circle cx="970.8" cy="74.1" r="2.3" fill="#b9bdca" opacity="0.5"/><circle cx="971.3" cy="72.7" r="2.3" fill="#b9bdca" opacity="0.5"/><circle cx="971.3" cy="73.8" r="2.3" fill="#b9bdca" opacity="0.5"/><circle cx="971.3" cy="75.9" r="2.3" fill="#b9bdca" opacity="0.5"/><circle cx="971.8" cy="74.1" r="2.3" fill="#b9bdca" opacity="0.5"/><circle cx="972.3" cy="73.5" r="2.3" fill="#b9bdca" opacity="0.5"/><circle cx="972.9" cy="74.2" r="2.3" fill="#b9bdca" opacity="0.5"/><circle cx="973.4" cy="71.5" r="2.3" fill="#b9bdca" opacity="0.5"/><circle cx="974.8" cy="74.3" r="2.3" fill="#b9bdca" opacity="0.5"/><circle cx="982.6" cy="73.2" r="2.3" fill="#b9bdca" opacity="0.5"/><circle cx="982.6" cy="73.6" r="2.3" fill="#b9bdca" opacity="0.5"/><circle cx="982.6" cy="73.8" r="2.3" fill="#b9bdca" opacity="0.5"/><circle cx="997.7" cy="73.3" r="2.3" fill="#b9bdca" opacity="0.5"/><circle cx="997.7" cy="73.4" r="2.3" fill="#b9bdca" opacity="0.5"/><circle cx="1032.0" cy="96.1" r="2.3" fill="#b9bdca" opacity="0.5"/><path d="M205.9 152.3L209.5 155.9L205.9 159.5L202.3 155.9Z" fill="#2b3a7a" opacity="0.8" stroke="none" stroke-width="0"/><path d="M215.4 138.2L219.0 141.8L215.4 145.4L211.8 141.8Z" fill="#2b3a7a" opacity="0.8" stroke="none" stroke-width="0"/><path d="M216.7 128.1L220.3 131.7L216.7 135.3L213.1 131.7Z" fill="#2b3a7a" opacity="0.8" stroke="none" stroke-width="0"/><path d="M216.8 130.5L220.4 134.1L216.8 137.7L213.2 134.1Z" fill="#2b3a7a" opacity="0.8" stroke="none" stroke-width="0"/><path d="M217.8 127.3L221.4 130.9L217.8 134.5L214.2 130.9Z" fill="#2b3a7a" opacity="0.8" stroke="none" stroke-width="0"/><path d="M218.3 125.9L221.9 129.5L218.3 133.1L214.7 129.5Z" fill="#2b3a7a" opacity="0.8" stroke="none" stroke-width="0"/><path d="M218.3 127.3L221.9 130.9L218.3 134.5L214.7 130.9Z" fill="#2b3a7a" opacity="0.8" stroke="none" stroke-width="0"/><path d="M247.8 125.9L251.4 129.5L247.8 133.1L244.2 129.5Z" fill="#2b3a7a" opacity="0.8" stroke="none" stroke-width="0"/><path d="M252.2 125.3L255.8 128.9L252.2 132.5L248.6 128.9Z" fill="#2b3a7a" opacity="0.8" stroke="none" stroke-width="0"/><path d="M256.4 124.8L260.0 128.4L256.4 132.0L252.8 128.4Z" fill="#2b3a7a" opacity="0.8" stroke="none" stroke-width="0"/><path d="M259.4 124.6L263.0 128.2L259.4 131.8L255.8 128.2Z" fill="#2b3a7a" opacity="0.8" stroke="none" stroke-width="0"/><path d="M272.7 124.4L276.3 128.0L272.7 131.6L269.1 128.0Z" fill="#2b3a7a" opacity="0.8" stroke="none" stroke-width="0"/><path d="M286.6 109.2L290.2 112.8L286.6 116.4L283.0 112.8Z" fill="#2b3a7a" opacity="0.8" stroke="none" stroke-width="0"/><path d="M293.1 108.0L296.7 111.6L293.1 115.2L289.5 111.6Z" fill="#2b3a7a" opacity="0.8" stroke="none" stroke-width="0"/><path d="M295.1 101.9L298.7 105.5L295.1 109.1L291.5 105.5Z" fill="#2b3a7a" opacity="0.8" stroke="none" stroke-width="0"/><path d="M295.4 104.9L299.0 108.5L295.4 112.1L291.8 108.5Z" fill="#2b3a7a" opacity="0.8" stroke="none" stroke-width="0"/><path d="M296.2 101.5L299.8 105.1L296.2 108.7L292.6 105.1Z" fill="#2b3a7a" opacity="0.8" stroke="none" stroke-width="0"/><path d="M297.1 100.2L300.7 103.8L297.1 107.4L293.5 103.8Z" fill="#2b3a7a" opacity="0.8" stroke="none" stroke-width="0"/><path d="M306.7 99.9L310.3 103.5L306.7 107.1L303.1 103.5Z" fill="#2b3a7a" opacity="0.8" stroke="none" stroke-width="0"/><path d="M324.8 86.0L328.4 89.6L324.8 93.2L321.2 89.6Z" fill="#2b3a7a" opacity="0.8" stroke="none" stroke-width="0"/><path d="M328.0 85.7L331.6 89.3L328.0 92.9L324.4 89.3Z" fill="#2b3a7a" opacity="0.8" stroke="none" stroke-width="0"/><path d="M328.6 84.0L332.2 87.6L328.6 91.2L325.0 87.6Z" fill="#2b3a7a" opacity="0.8" stroke="none" stroke-width="0"/><path d="M331.8 81.8L335.4 85.4L331.8 89.0L328.2 85.4Z" fill="#2b3a7a" opacity="0.8" stroke="none" stroke-width="0"/><path d="M341.9 80.8L345.5 84.4L341.9 88.0L338.3 84.4Z" fill="#2b3a7a" opacity="0.8" stroke="none" stroke-width="0"/><path d="M418.9 80.8L422.5 84.4L418.9 88.0L415.3 84.4Z" fill="#2b3a7a" opacity="0.8" stroke="none" stroke-width="0"/><path d="M610.7 72.2L614.3 75.8L610.7 79.4L607.1 75.8Z" fill="#2b3a7a" opacity="0.8" stroke="none" stroke-width="0"/><path d="M612.4 72.1L616.0 75.7L612.4 79.3L608.8 75.7Z" fill="#2b3a7a" opacity="0.8" stroke="none" stroke-width="0"/><path d="M614.4 71.7L618.0 75.3L614.4 78.9L610.8 75.3Z" fill="#2b3a7a" opacity="0.8" stroke="none" stroke-width="0"/><path d="M614.7 71.1L618.3 74.7L614.7 78.3L611.1 74.7Z" fill="#2b3a7a" opacity="0.8" stroke="none" stroke-width="0"/><path d="M616.5 71.1L620.1 74.7L616.5 78.3L612.9 74.7Z" fill="#2b3a7a" opacity="0.8" stroke="none" stroke-width="0"/><path d="M627.3 70.8L630.9 74.4L627.3 78.0L623.7 74.4Z" fill="#2b3a7a" opacity="0.8" stroke="none" stroke-width="0"/><path d="M642.0 70.3L645.6 73.9L642.0 77.5L638.4 73.9Z" fill="#2b3a7a" opacity="0.8" stroke="none" stroke-width="0"/><path d="M647.0 70.0L650.6 73.6L647.0 77.2L643.4 73.6Z" fill="#2b3a7a" opacity="0.8" stroke="none" stroke-width="0"/><path d="M724.7 69.8L728.3 73.4L724.7 77.0L721.1 73.4Z" fill="#2b3a7a" opacity="0.8" stroke="none" stroke-width="0"/><path d="M791.0 69.8L794.6 73.4L791.0 77.0L787.4 73.4Z" fill="#2b3a7a" opacity="0.8" stroke="none" stroke-width="0"/><path d="M835.2 67.8L838.8 71.4L835.2 75.0L831.6 71.4Z" fill="#2b3a7a" opacity="0.8" stroke="none" stroke-width="0"/><path d="M60.0 335.3L62.4 335.3L62.4 335.1L65.7 335.1L65.7 320.7L72.3 320.7L72.3 319.9L74.8 319.9L74.8 315.3L75.4 315.3L75.4 314.9L76.5 314.9L76.5 314.9L115.9 314.9L115.9 238.7L116.5 238.7L116.5 229.0L117.1 229.0L117.1 222.3L117.9 222.3L117.9 220.6L118.1 220.6L118.1 220.5L118.5 220.5L118.5 214.2L120.0 214.2L120.0 214.1L120.4 214.1L120.4 213.7L120.7 213.7L120.7 213.5L121.2 213.5L121.2 212.7L123.1 212.7L123.1 212.1L123.6 212.1L123.6 212.0L128.9 212.0L128.9 206.7L134.8 206.7L134.8 204.9L137.0 204.9L137.0 204.6L138.4 204.6L138.4 201.9L141.0 201.9L141.0 201.8L142.3 201.8L142.3 201.0L143.1 201.0L143.1 200.0L147.0 200.0L147.0 200.0L148.5 200.0L148.5 199.7L161.4 199.7L161.4 195.5L171.0 195.5L171.0 187.4L171.3 187.4L171.3 186.2L171.9 186.2L171.9 184.5L188.7 184.5L188.7 183.9L197.0 183.9L197.0 169.3L199.8 169.3L199.8 168.8L200.0 168.8L200.0 167.7L201.6 167.7L201.6 165.0L202.2 165.0L202.2 163.7L202.4 163.7L202.4 163.6L205.9 163.6L205.9 155.9L210.3 155.9L210.3 155.8L211.9 155.8L211.9 141.9L215.4 141.9L215.4 141.8L216.7 141.8L216.7 131.7L217.8 131.7L217.8 130.9L218.3 130.9L218.3 129.5L247.8 129.5L247.8 129.5L252.2 129.5L252.2 128.9L256.4 128.9L256.4 128.4L259.4 128.4L259.4 128.2L272.7 128.2L272.7 128.0L286.6 128.0L286.6 112.8L289.7 112.8L289.7 110.2L295.1 110.2L295.1 105.5L296.2 105.5L296.2 105.1L297.1 105.1L297.1 103.8L306.7 103.8L306.7 103.5L324.8 103.5L324.8 89.6L328.0 89.6L328.0 89.3L328.6 89.3L328.6 87.6L331.8 87.6L331.8 85.4L341.9 85.4L341.9 84.4L418.9 84.4L418.9 84.4L610.7 84.4L610.7 75.8L612.4 75.8L612.4 75.7L614.4 75.7L614.4 75.3L614.7 75.3L614.7 74.7L616.5 74.7L616.5 74.7L627.3 74.7L627.3 74.4L642.0 74.4L642.0 73.9L647.0 73.9L647.0 73.6L655.0 73.6L655.0 69.8L658.4 69.8L658.4 69.1L958.3 69.1L958.3 55.0L1032.0 55.0" fill="none" stroke="#6675b0" stroke-width="1.6" stroke-dasharray="5 3" opacity="0.75"/><path d="M205.9 155.9L215.4 155.9L215.4 141.8L216.7 141.8L216.7 131.7L217.8 131.7L217.8 130.9L218.3 130.9L218.3 129.5L247.8 129.5L247.8 129.5L252.2 129.5L252.2 128.9L256.4 128.9L256.4 128.4L259.4 128.4L259.4 128.2L272.7 128.2L272.7 128.0L286.6 128.0L286.6 112.8L293.1 112.8L293.1 111.6L295.1 111.6L295.1 105.5L296.2 105.5L296.2 105.1L297.1 105.1L297.1 103.8L306.7 103.8L306.7 103.5L324.8 103.5L324.8 89.6L328.0 89.6L328.0 89.3L328.6 89.3L328.6 87.6L331.8 87.6L331.8 85.4L341.9 85.4L341.9 84.4L418.9 84.4L418.9 84.4L610.7 84.4L610.7 75.8L612.4 75.8L612.4 75.7L614.4 75.7L614.4 75.3L614.7 75.3L614.7 74.7L616.5 74.7L616.5 74.7L627.3 74.7L627.3 74.4L642.0 74.4L642.0 73.9L647.0 73.9L647.0 73.6L655.0 73.6L655.0 73.5L724.7 73.5L724.7 73.4L791.0 73.4L791.0 73.4L835.2 73.4L835.2 71.4L1032.0 71.4" fill="none" stroke="#2b3a7a" stroke-width="2.6"/><path d="M548.5 246.9L555.0 253.4L548.5 259.9L542.0 253.4Z" fill="#c5961a" opacity="1.0" stroke="#ffffff" stroke-width="1.4"/><path d="M644.0 206.5L650.5 213.0L644.0 219.5L637.5 213.0Z" fill="#c5961a" opacity="1.0" stroke="#ffffff" stroke-width="1.4"/><path d="M655.0 67.0L661.5 73.5L655.0 80.0L648.5 73.5Z" fill="#c5961a" opacity="1.0" stroke="#ffffff" stroke-width="1.4"/><path d="M736.8 240.8L743.3 247.3L736.8 253.8L730.3 247.3Z" fill="#c5961a" opacity="1.0" stroke="#ffffff" stroke-width="1.4"/><path d="M737.3 238.0L743.8 244.5L737.3 251.0L730.8 244.5Z" fill="#c5961a" opacity="1.0" stroke="#ffffff" stroke-width="1.4"/><text x="1042" y="53.0" font-size="11.5" fill="#6675b0">– – raw best 535.9</text><text x="1042" y="67.0" font-size="10" fill="#8a8fa3">unverified (pending)</text><path d="M835.2 64.9L841.7 71.4L835.2 77.9L828.7 71.4Z" fill="#2b3a7a" opacity="1.0" stroke="#ffffff" stroke-width="1.4"/><text x="1042" y="99.4" font-size="12.5" fill="#2b3a7a" font-weight="bold">◆ verified 510.1</text><text x="1042" y="115.4" font-size="10.5" fill="#3a3f55">top verified</text><text x="60" y="24" font-size="13" font-weight="bold" fill="#3a3f55" letter-spacing="1.2">SCORE EVOLUTION — gemma-challenge (tok/s)</text><circle cx="452" cy="20" r="3" fill="#b9bdca"/><text x="460" y="24" font-size="10.5" fill="#8a8fa3">all results</text><path d="M544.0 16.4L547.6 20.0L544.0 23.6L540.4 20.0Z" fill="#2b3a7a" opacity="1.0" stroke="none" stroke-width="0"/><text x="552" y="24" font-size="10.5" fill="#8a8fa3">verified</text><path d="M620.0 15.5L624.5 20.0L620.0 24.5L615.5 20.0Z" fill="#c5961a" opacity="1.0" stroke="#fff" stroke-width="1"/><text x="629" y="24" font-size="10.5" fill="#8a8fa3">mikasa-inbound (us)</text></svg>