<svg viewBox="0 0 1200 440" xmlns="http://www.w3.org/2000/svg" font-family="ui-sans-serif,system-ui,-apple-system,sans-serif"><rect x="0" y="0" width="1200" height="440" fill="#ffffff"/><rect x="60" y="46" width="972" height="350" fill="#f3f4fb"/><line x1="60" y1="396.0" x2="1032" y2="396.0" stroke="#e3e5ef" stroke-width="1"/><text x="52" y="400.0" text-anchor="end" font-size="11" fill="#8a8fa3">0</text><line x1="60" y1="332.4" x2="1032" y2="332.4" stroke="#e3e5ef" stroke-width="1"/><text x="52" y="336.4" text-anchor="end" font-size="11" fill="#8a8fa3">100</text><line x1="60" y1="268.7" x2="1032" y2="268.7" stroke="#e3e5ef" stroke-width="1"/><text x="52" y="272.7" text-anchor="end" font-size="11" fill="#8a8fa3">200</text><line x1="60" y1="205.1" x2="1032" y2="205.1" stroke="#e3e5ef" stroke-width="1"/><text x="52" y="209.1" text-anchor="end" font-size="11" fill="#8a8fa3">300</text><line x1="60" y1="141.5" x2="1032" y2="141.5" stroke="#e3e5ef" stroke-width="1"/><text x="52" y="145.5" text-anchor="end" font-size="11" fill="#8a8fa3">400</text><line x1="60" y1="77.8" x2="1032" y2="77.8" stroke="#e3e5ef" stroke-width="1"/><text x="52" y="81.8" text-anchor="end" font-size="11" fill="#8a8fa3">500</text><line x1="117.4" y1="46" x2="117.4" y2="396" stroke="#e3e5ef" stroke-width="1"/><text x="117.4" y="414.0" text-anchor="middle" font-size="11" fill="#8a8fa3">Jun 10</text><line x1="199.3" y1="46" x2="199.3" y2="396" stroke="#e3e5ef" stroke-width="1"/><text x="199.3" y="414.0" text-anchor="middle" font-size="11" fill="#8a8fa3">Jun 12</text><line x1="281.2" y1="46" x2="281.2" y2="396" stroke="#e3e5ef" stroke-width="1"/><text x="281.2" y="414.0" text-anchor="middle" font-size="11" fill="#8a8fa3">Jun 14</text><line x1="363.1" y1="46" x2="363.1" y2="396" stroke="#e3e5ef" stroke-width="1"/><text x="363.1" y="414.0" text-anchor="middle" font-size="11" fill="#8a8fa3">Jun 16</text><line x1="445.0" y1="46" x2="445.0" y2="396" stroke="#e3e5ef" stroke-width="1"/><text x="445.0" y="414.0" text-anchor="middle" font-size="11" fill="#8a8fa3">Jun 18</text><line x1="526.8" y1="46" x2="526.8" y2="396" stroke="#e3e5ef" stroke-width="1"/><text x="526.8" y="414.0" text-anchor="middle" font-size="11" fill="#8a8fa3">Jun 20</text><line x1="608.7" y1="46" x2="608.7" y2="396" stroke="#e3e5ef" stroke-width="1"/><text x="608.7" y="414.0" text-anchor="middle" font-size="11" fill="#8a8fa3">Jun 22</text><line x1="690.6" y1="46" x2="690.6" y2="396" stroke="#e3e5ef" stroke-width="1"/><text x="690.6" y="414.0" text-anchor="middle" font-size="11" fill="#8a8fa3">Jun 24</text><line x1="772.5" y1="46" x2="772.5" y2="396" stroke="#e3e5ef" stroke-width="1"/><text x="772.5" y="414.0" text-anchor="middle" font-size="11" fill="#8a8fa3">Jun 26</text><line x1="854.4" y1="46" x2="854.4" y2="396" stroke="#e3e5ef" stroke-width="1"/><text x="854.4" y="414.0" text-anchor="middle" font-size="11" fill="#8a8fa3">Jun 28</text><line x1="936.3" y1="46" x2="936.3" y2="396" stroke="#e3e5ef" stroke-width="1"/><text x="936.3" y="414.0" text-anchor="middle" font-size="11" fill="#8a8fa3">Jun 30</text><line x1="1018.2" y1="46" x2="1018.2" y2="396" stroke="#e3e5ef" stroke-width="1"/><text x="1018.2" y="414.0" text-anchor="middle" font-size="11" fill="#8a8fa3">Jul 2</text><circle cx="60.0" cy="335.3" r="2.3" fill="#b9bdca" opacity="0.5"/><circle cx="62.0" cy="335.1" r="2.3" fill="#b9bdca" opacity="0.5"/><circle cx="64.0" cy="368.0" r="2.3" fill="#b9bdca" opacity="0.5"/><circle cx="64.7" cy="320.7" r="2.3" fill="#b9bdca" opacity="0.5"/><circle cx="70.2" cy="319.9" r="2.3" fill="#b9bdca" opacity="0.5"/><circle cx="70.5" cy="320.6" r="2.3" fill="#b9bdca" opacity="0.5"/><circle cx="72.2" cy="315.3" r="2.3" fill="#b9bdca" opacity="0.5"/><circle cx="72.6" cy="319.7" r="2.3" fill="#b9bdca" opacity="0.5"/><circle cx="72.8" cy="314.9" r="2.3" fill="#b9bdca" opacity="0.5"/><circle cx="73.4" cy="315.5" r="2.3" fill="#b9bdca" opacity="0.5"/><circle cx="73.6" cy="314.9" r="2.3" fill="#b9bdca" opacity="0.5"/><circle cx="74.2" cy="315.4" r="2.3" fill="#b9bdca" opacity="0.5"/><circle cx="75.2" cy="315.0" r="2.3" fill="#b9bdca" opacity="0.5"/><circle cx="106.2" cy="238.7" r="2.3" fill="#b9bdca" opacity="0.5"/><circle cx="106.5" cy="315.0" r="2.3" fill="#b9bdca" opacity="0.5"/><circle cx="106.8" cy="229.0" r="2.3" fill="#b9bdca" opacity="0.5"/><circle cx="107.3" cy="222.3" r="2.3" fill="#b9bdca" opacity="0.5"/><circle cx="107.8" cy="228.0" r="2.3" fill="#b9bdca" opacity="0.5"/><circle cx="107.9" cy="223.3" r="2.3" fill="#b9bdca" opacity="0.5"/><circle cx="107.9" cy="220.6" r="2.3" fill="#b9bdca" opacity="0.5"/><circle cx="108.1" cy="220.5" r="2.3" fill="#b9bdca" opacity="0.5"/><circle cx="108.2" cy="223.2" r="2.3" fill="#b9bdca" opacity="0.5"/><circle cx="108.4" cy="214.2" r="2.3" fill="#b9bdca" opacity="0.5"/><circle cx="108.5" cy="222.1" r="2.3" fill="#b9bdca" opacity="0.5"/><circle cx="108.7" cy="220.7" r="2.3" fill="#b9bdca" opacity="0.5"/><circle cx="109.0" cy="218.5" r="2.3" fill="#b9bdca" opacity="0.5"/><circle cx="109.2" cy="215.2" r="2.3" fill="#b9bdca" opacity="0.5"/><circle cx="109.4" cy="214.3" r="2.3" fill="#b9bdca" opacity="0.5"/><circle cx="109.4" cy="219.2" r="2.3" fill="#b9bdca" opacity="0.5"/><circle cx="109.6" cy="214.1" r="2.3" fill="#b9bdca" opacity="0.5"/><circle cx="109.8" cy="215.2" r="2.3" fill="#b9bdca" opacity="0.5"/><circle cx="110.0" cy="213.7" r="2.3" fill="#b9bdca" opacity="0.5"/><circle cx="110.3" cy="213.5" r="2.3" fill="#b9bdca" opacity="0.5"/><circle cx="110.5" cy="214.8" r="2.3" fill="#b9bdca" opacity="0.5"/><circle cx="110.5" cy="217.7" r="2.3" fill="#b9bdca" opacity="0.5"/><circle cx="110.6" cy="212.7" r="2.3" fill="#b9bdca" opacity="0.5"/><circle cx="111.1" cy="213.3" r="2.3" fill="#b9bdca" opacity="0.5"/><circle cx="111.7" cy="212.7" r="2.3" fill="#b9bdca" opacity="0.5"/><circle cx="111.7" cy="213.6" r="2.3" fill="#b9bdca" opacity="0.5"/><circle cx="111.9" cy="213.0" r="2.3" fill="#b9bdca" opacity="0.5"/><circle cx="112.2" cy="212.1" r="2.3" fill="#b9bdca" opacity="0.5"/><circle cx="112.3" cy="213.3" r="2.3" fill="#b9bdca" opacity="0.5"/><circle cx="112.7" cy="212.0" r="2.3" fill="#b9bdca" opacity="0.5"/><circle cx="113.3" cy="212.1" r="2.3" fill="#b9bdca" opacity="0.5"/><circle cx="113.3" cy="212.8" r="2.3" fill="#b9bdca" opacity="0.5"/><circle cx="117.0" cy="206.7" r="2.3" fill="#b9bdca" opacity="0.5"/><circle cx="117.5" cy="206.8" r="2.3" fill="#b9bdca" opacity="0.5"/><circle cx="117.5" cy="212.5" r="2.3" fill="#b9bdca" opacity="0.5"/><circle cx="117.8" cy="207.2" r="2.3" fill="#b9bdca" opacity="0.5"/><circle cx="119.0" cy="207.0" r="2.3" fill="#b9bdca" opacity="0.5"/><circle cx="121.9" cy="204.9" r="2.3" fill="#b9bdca" opacity="0.5"/><circle cx="123.7" cy="204.6" r="2.3" fill="#b9bdca" opacity="0.5"/><circle cx="123.9" cy="212.3" r="2.3" fill="#b9bdca" opacity="0.5"/><circle cx="124.2" cy="204.6" r="2.3" fill="#b9bdca" opacity="0.5"/><circle cx="124.2" cy="204.6" r="2.3" fill="#b9bdca" opacity="0.5"/><circle cx="124.2" cy="204.9" r="2.3" fill="#b9bdca" opacity="0.5"/><circle cx="124.2" cy="204.9" r="2.3" fill="#b9bdca" opacity="0.5"/><circle cx="124.9" cy="201.9" r="2.3" fill="#b9bdca" opacity="0.5"/><circle cx="126.0" cy="206.5" r="2.3" fill="#b9bdca" opacity="0.5"/><circle cx="126.5" cy="205.8" r="2.3" fill="#b9bdca" opacity="0.5"/><circle cx="126.5" cy="335.1" r="2.3" fill="#b9bdca" opacity="0.5"/><circle cx="127.1" cy="201.8" r="2.3" fill="#b9bdca" opacity="0.5"/><circle cx="127.1" cy="202.2" r="2.3" fill="#b9bdca" opacity="0.5"/><circle cx="128.2" cy="201.0" r="2.3" fill="#b9bdca" opacity="0.5"/><circle cx="128.6" cy="203.1" r="2.3" fill="#b9bdca" opacity="0.5"/><circle cx="128.8" cy="200.0" r="2.3" fill="#b9bdca" opacity="0.5"/><circle cx="128.8" cy="204.6" r="2.3" fill="#b9bdca" opacity="0.5"/><circle cx="129.5" cy="202.3" r="2.3" fill="#b9bdca" opacity="0.5"/><circle cx="130.9" cy="200.4" r="2.3" fill="#b9bdca" opacity="0.5"/><circle cx="131.4" cy="200.7" r="2.3" fill="#b9bdca" opacity="0.5"/><circle cx="132.0" cy="200.0" r="2.3" fill="#b9bdca" opacity="0.5"/><circle cx="133.2" cy="199.7" r="2.3" fill="#b9bdca" opacity="0.5"/><circle cx="141.1" cy="200.6" r="2.3" fill="#b9bdca" opacity="0.5"/><circle cx="141.7" cy="201.8" r="2.3" fill="#b9bdca" opacity="0.5"/><circle cx="142.8" cy="208.4" r="2.3" fill="#b9bdca" opacity="0.5"/><circle cx="142.9" cy="200.8" r="2.3" fill="#b9bdca" opacity="0.5"/><circle cx="143.6" cy="200.7" r="2.3" fill="#b9bdca" opacity="0.5"/><circle cx="143.6" cy="201.9" r="2.3" fill="#b9bdca" opacity="0.5"/><circle cx="143.9" cy="195.5" r="2.3" fill="#b9bdca" opacity="0.5"/><circle cx="144.6" cy="196.9" r="2.3" fill="#b9bdca" opacity="0.5"/><circle cx="145.0" cy="197.9" r="2.3" fill="#b9bdca" opacity="0.5"/><circle cx="145.7" cy="196.1" r="2.3" fill="#b9bdca" opacity="0.5"/><circle cx="148.1" cy="197.3" r="2.3" fill="#b9bdca" opacity="0.5"/><circle cx="148.7" cy="195.9" r="2.3" fill="#b9bdca" opacity="0.5"/><circle cx="149.0" cy="201.0" r="2.3" fill="#b9bdca" opacity="0.5"/><circle cx="149.2" cy="197.5" r="2.3" fill="#b9bdca" opacity="0.5"/><circle cx="149.7" cy="196.9" r="2.3" fill="#b9bdca" opacity="0.5"/><circle cx="149.7" cy="197.1" r="2.3" fill="#b9bdca" opacity="0.5"/><circle cx="149.8" cy="197.0" r="2.3" fill="#b9bdca" opacity="0.5"/><circle cx="150.3" cy="196.0" r="2.3" fill="#b9bdca" opacity="0.5"/><circle cx="150.3" cy="196.0" r="2.3" fill="#b9bdca" opacity="0.5"/><circle cx="150.4" cy="197.9" r="2.3" fill="#b9bdca" opacity="0.5"/><circle cx="150.8" cy="197.8" r="2.3" fill="#b9bdca" opacity="0.5"/><circle cx="151.1" cy="196.2" r="2.3" fill="#b9bdca" opacity="0.5"/><circle cx="151.2" cy="197.5" r="2.3" fill="#b9bdca" opacity="0.5"/><circle cx="151.3" cy="196.9" r="2.3" fill="#b9bdca" opacity="0.5"/><circle cx="151.3" cy="195.5" r="2.3" fill="#b9bdca" opacity="0.5"/><circle cx="151.8" cy="198.1" r="2.3" fill="#b9bdca" opacity="0.5"/><circle cx="151.9" cy="187.4" r="2.3" fill="#b9bdca" opacity="0.5"/><circle cx="152.1" cy="186.2" r="2.3" fill="#b9bdca" opacity="0.5"/><circle cx="152.1" cy="196.3" r="2.3" fill="#b9bdca" opacity="0.5"/><circle cx="152.1" cy="197.2" r="2.3" fill="#b9bdca" opacity="0.5"/><circle cx="152.1" cy="197.8" r="2.3" fill="#b9bdca" opacity="0.5"/><circle cx="152.1" cy="368.0" r="2.3" fill="#b9bdca" opacity="0.5"/><circle cx="152.6" cy="184.5" r="2.3" fill="#b9bdca" opacity="0.5"/><circle cx="154.7" cy="184.6" r="2.3" fill="#b9bdca" opacity="0.5"/><circle cx="155.6" cy="185.6" r="2.3" fill="#b9bdca" opacity="0.5"/><circle cx="158.7" cy="188.7" r="2.3" fill="#b9bdca" opacity="0.5"/><circle cx="162.9" cy="185.4" r="2.3" fill="#b9bdca" opacity="0.5"/><circle cx="163.8" cy="185.2" r="2.3" fill="#b9bdca" opacity="0.5"/><circle cx="164.1" cy="186.6" r="2.3" fill="#b9bdca" opacity="0.5"/><circle cx="164.2" cy="185.3" r="2.3" fill="#b9bdca" opacity="0.5"/><circle cx="164.9" cy="185.3" r="2.3" fill="#b9bdca" opacity="0.5"/><circle cx="165.3" cy="185.0" r="2.3" fill="#b9bdca" opacity="0.5"/><circle cx="166.0" cy="184.9" r="2.3" fill="#b9bdca" opacity="0.5"/><circle cx="166.5" cy="185.1" r="2.3" fill="#b9bdca" opacity="0.5"/><circle cx="166.5" cy="185.2" r="2.3" fill="#b9bdca" opacity="0.5"/><circle cx="166.5" cy="186.4" r="2.3" fill="#b9bdca" opacity="0.5"/><circle cx="166.5" cy="183.9" r="2.3" fill="#b9bdca" opacity="0.5"/><circle cx="170.3" cy="184.4" r="2.3" fill="#b9bdca" opacity="0.5"/><circle cx="171.0" cy="184.2" r="2.3" fill="#b9bdca" opacity="0.5"/><circle cx="173.4" cy="169.3" r="2.3" fill="#b9bdca" opacity="0.5"/><circle cx="175.7" cy="168.8" r="2.3" fill="#b9bdca" opacity="0.5"/><circle cx="175.9" cy="167.7" r="2.3" fill="#b9bdca" opacity="0.5"/><circle cx="176.9" cy="201.4" r="2.3" fill="#b9bdca" opacity="0.5"/><circle cx="177.2" cy="165.0" r="2.3" fill="#b9bdca" opacity="0.5"/><circle cx="177.4" cy="198.2" r="2.3" fill="#b9bdca" opacity="0.5"/><circle cx="177.7" cy="163.7" r="2.3" fill="#b9bdca" opacity="0.5"/><circle cx="177.9" cy="163.6" r="2.3" fill="#b9bdca" opacity="0.5"/><circle cx="178.3" cy="165.9" r="2.3" fill="#b9bdca" opacity="0.5"/><circle cx="180.3" cy="165.1" r="2.3" fill="#b9bdca" opacity="0.5"/><circle cx="180.8" cy="155.9" r="2.3" fill="#b9bdca" opacity="0.5"/><circle cx="182.8" cy="196.5" r="2.3" fill="#b9bdca" opacity="0.5"/><circle cx="183.6" cy="157.4" r="2.3" fill="#b9bdca" opacity="0.5"/><circle cx="184.4" cy="155.8" r="2.3" fill="#b9bdca" opacity="0.5"/><circle cx="185.7" cy="141.9" r="2.3" fill="#b9bdca" opacity="0.5"/><circle cx="188.5" cy="156.1" r="2.3" fill="#b9bdca" opacity="0.5"/><circle cx="188.5" cy="156.4" r="2.3" fill="#b9bdca" opacity="0.5"/><circle cx="188.6" cy="141.8" r="2.3" fill="#b9bdca" opacity="0.5"/><circle cx="188.7" cy="196.0" r="2.3" fill="#b9bdca" opacity="0.5"/><circle cx="189.7" cy="131.7" r="2.3" fill="#b9bdca" opacity="0.5"/><circle cx="189.8" cy="134.1" r="2.3" fill="#b9bdca" opacity="0.5"/><circle cx="190.1" cy="141.1" r="2.3" fill="#b9bdca" opacity="0.5"/><circle cx="190.5" cy="134.0" r="2.3" fill="#b9bdca" opacity="0.5"/><circle cx="190.6" cy="130.9" r="2.3" fill="#b9bdca" opacity="0.5"/><circle cx="190.6" cy="154.2" r="2.3" fill="#b9bdca" opacity="0.5"/><circle cx="190.8" cy="133.6" r="2.3" fill="#b9bdca" opacity="0.5"/><circle cx="191.0" cy="129.5" r="2.3" fill="#b9bdca" opacity="0.5"/><circle cx="191.0" cy="130.9" r="2.3" fill="#b9bdca" opacity="0.5"/><circle cx="191.0" cy="133.4" r="2.3" fill="#b9bdca" opacity="0.5"/><circle cx="191.2" cy="131.2" r="2.3" fill="#b9bdca" opacity="0.5"/><circle cx="193.0" cy="189.8" r="2.3" fill="#b9bdca" opacity="0.5"/><circle cx="193.0" cy="133.2" r="2.3" fill="#b9bdca" opacity="0.5"/><circle cx="193.3" cy="133.5" r="2.3" fill="#b9bdca" opacity="0.5"/><circle cx="193.9" cy="130.1" r="2.3" fill="#b9bdca" opacity="0.5"/><circle cx="195.6" cy="130.3" r="2.3" fill="#b9bdca" opacity="0.5"/><circle cx="196.4" cy="303.1" r="2.3" fill="#b9bdca" opacity="0.5"/><circle cx="197.7" cy="133.2" r="2.3" fill="#b9bdca" opacity="0.5"/><circle cx="199.5" cy="144.2" r="2.3" fill="#b9bdca" opacity="0.5"/><circle cx="199.9" cy="135.3" r="2.3" fill="#b9bdca" opacity="0.5"/><circle cx="201.1" cy="133.4" r="2.3" fill="#b9bdca" opacity="0.5"/><circle cx="201.2" cy="159.9" r="2.3" fill="#b9bdca" opacity="0.5"/><circle cx="201.5" cy="130.8" r="2.3" fill="#b9bdca" opacity="0.5"/><circle cx="201.9" cy="133.2" r="2.3" fill="#b9bdca" opacity="0.5"/><circle cx="206.1" cy="130.9" r="2.3" fill="#b9bdca" opacity="0.5"/><circle cx="206.6" cy="130.9" r="2.3" fill="#b9bdca" opacity="0.5"/><circle cx="206.6" cy="133.8" r="2.3" fill="#b9bdca" opacity="0.5"/><circle cx="207.3" cy="130.4" r="2.3" fill="#b9bdca" opacity="0.5"/><circle cx="207.7" cy="153.7" r="2.3" fill="#b9bdca" opacity="0.5"/><circle cx="208.5" cy="133.3" r="2.3" fill="#b9bdca" opacity="0.5"/><circle cx="209.8" cy="156.5" r="2.3" fill="#b9bdca" opacity="0.5"/><circle cx="210.0" cy="132.3" r="2.3" fill="#b9bdca" opacity="0.5"/><circle cx="211.5" cy="147.2" r="2.3" fill="#b9bdca" opacity="0.5"/><circle cx="211.8" cy="133.6" r="2.3" fill="#b9bdca" opacity="0.5"/><circle cx="212.3" cy="129.5" r="2.3" fill="#b9bdca" opacity="0.5"/><circle cx="212.3" cy="133.3" r="2.3" fill="#b9bdca" opacity="0.5"/><circle cx="214.2" cy="133.3" r="2.3" fill="#b9bdca" opacity="0.5"/><circle cx="215.4" cy="129.5" r="2.3" fill="#b9bdca" opacity="0.5"/><circle cx="217.5" cy="130.6" r="2.3" fill="#b9bdca" opacity="0.5"/><circle cx="219.1" cy="128.9" r="2.3" fill="#b9bdca" opacity="0.5"/><circle cx="219.4" cy="132.7" r="2.3" fill="#b9bdca" opacity="0.5"/><circle cx="219.4" cy="133.1" r="2.3" fill="#b9bdca" opacity="0.5"/><circle cx="221.8" cy="129.8" r="2.3" fill="#b9bdca" opacity="0.5"/><circle cx="222.4" cy="333.8" r="2.3" fill="#b9bdca" opacity="0.5"/><circle cx="222.6" cy="128.4" r="2.3" fill="#b9bdca" opacity="0.5"/><circle cx="223.7" cy="129.8" r="2.3" fill="#b9bdca" opacity="0.5"/><circle cx="224.1" cy="128.9" r="2.3" fill="#b9bdca" opacity="0.5"/><circle cx="224.2" cy="128.9" r="2.3" fill="#b9bdca" opacity="0.5"/><circle cx="225.0" cy="128.2" r="2.3" fill="#b9bdca" opacity="0.5"/><circle cx="225.6" cy="129.7" r="2.3" fill="#b9bdca" opacity="0.5"/><circle cx="225.8" cy="142.3" r="2.3" fill="#b9bdca" opacity="0.5"/><circle cx="228.0" cy="128.8" r="2.3" fill="#b9bdca" opacity="0.5"/><circle cx="229.3" cy="161.1" r="2.3" fill="#b9bdca" opacity="0.5"/><circle cx="231.8" cy="164.4" r="2.3" fill="#b9bdca" opacity="0.5"/><circle cx="232.1" cy="248.3" r="2.3" fill="#b9bdca" opacity="0.5"/><circle cx="235.7" cy="135.4" r="2.3" fill="#b9bdca" opacity="0.5"/><circle cx="236.0" cy="128.0" r="2.3" fill="#b9bdca" opacity="0.5"/><circle cx="237.1" cy="229.0" r="2.3" fill="#b9bdca" opacity="0.5"/><circle cx="239.6" cy="128.1" r="2.3" fill="#b9bdca" opacity="0.5"/><circle cx="240.3" cy="128.6" r="2.3" fill="#b9bdca" opacity="0.5"/><circle cx="242.6" cy="128.8" r="2.3" fill="#b9bdca" opacity="0.5"/><circle cx="242.6" cy="129.6" r="2.3" fill="#b9bdca" opacity="0.5"/><circle cx="242.6" cy="130.9" r="2.3" fill="#b9bdca" opacity="0.5"/><circle cx="247.5" cy="112.8" r="2.3" fill="#b9bdca" opacity="0.5"/><circle cx="250.1" cy="110.2" r="2.3" fill="#b9bdca" opacity="0.5"/><circle cx="250.2" cy="111.6" r="2.3" fill="#b9bdca" opacity="0.5"/><circle cx="251.8" cy="111.0" r="2.3" fill="#b9bdca" opacity="0.5"/><circle cx="252.5" cy="335.1" r="2.3" fill="#b9bdca" opacity="0.5"/><circle cx="252.9" cy="111.6" r="2.3" fill="#b9bdca" opacity="0.5"/><circle cx="254.6" cy="105.5" r="2.3" fill="#b9bdca" opacity="0.5"/><circle cx="254.8" cy="108.5" r="2.3" fill="#b9bdca" opacity="0.5"/><circle cx="255.5" cy="105.1" r="2.3" fill="#b9bdca" opacity="0.5"/><circle cx="256.2" cy="103.8" r="2.3" fill="#b9bdca" opacity="0.5"/><circle cx="257.1" cy="125.8" r="2.3" fill="#b9bdca" opacity="0.5"/><circle cx="264.2" cy="103.5" r="2.3" fill="#b9bdca" opacity="0.5"/><circle cx="266.0" cy="127.8" r="2.3" fill="#b9bdca" opacity="0.5"/><circle cx="266.8" cy="334.3" r="2.3" fill="#b9bdca" opacity="0.5"/><circle cx="267.9" cy="128.6" r="2.3" fill="#b9bdca" opacity="0.5"/><circle cx="268.4" cy="128.6" r="2.3" fill="#b9bdca" opacity="0.5"/><circle cx="268.5" cy="128.6" r="2.3" fill="#b9bdca" opacity="0.5"/><circle cx="269.2" cy="256.6" r="2.3" fill="#b9bdca" opacity="0.5"/><circle cx="270.0" cy="254.6" r="2.3" fill="#b9bdca" opacity="0.5"/><circle cx="271.3" cy="128.6" r="2.3" fill="#b9bdca" opacity="0.5"/><circle cx="274.5" cy="250.1" r="2.3" fill="#b9bdca" opacity="0.5"/><circle cx="274.8" cy="161.4" r="2.3" fill="#b9bdca" opacity="0.5"/><circle cx="275.2" cy="206.6" r="2.3" fill="#b9bdca" opacity="0.5"/><circle cx="278.2" cy="113.5" r="2.3" fill="#b9bdca" opacity="0.5"/><circle cx="279.2" cy="89.6" r="2.3" fill="#b9bdca" opacity="0.5"/><circle cx="279.9" cy="90.2" r="2.3" fill="#b9bdca" opacity="0.5"/><circle cx="281.8" cy="89.3" r="2.3" fill="#b9bdca" opacity="0.5"/><circle cx="282.3" cy="87.6" r="2.3" fill="#b9bdca" opacity="0.5"/><circle cx="282.9" cy="185.0" r="2.3" fill="#b9bdca" opacity="0.5"/><circle cx="283.6" cy="131.6" r="2.3" fill="#b9bdca" opacity="0.5"/><circle cx="284.1" cy="87.8" r="2.3" fill="#b9bdca" opacity="0.5"/><circle cx="285.0" cy="85.4" r="2.3" fill="#b9bdca" opacity="0.5"/><circle cx="286.3" cy="86.8" r="2.3" fill="#b9bdca" opacity="0.5"/><circle cx="287.7" cy="88.4" r="2.3" fill="#b9bdca" opacity="0.5"/><circle cx="293.3" cy="89.5" r="2.3" fill="#b9bdca" opacity="0.5"/><circle cx="293.3" cy="155.6" r="2.3" fill="#b9bdca" opacity="0.5"/><circle cx="293.3" cy="84.4" r="2.3" fill="#b9bdca" opacity="0.5"/><circle cx="300.0" cy="89.2" r="2.3" fill="#b9bdca" opacity="0.5"/><circle cx="300.1" cy="90.5" r="2.3" fill="#b9bdca" opacity="0.5"/><circle cx="302.0" cy="87.7" r="2.3" fill="#b9bdca" opacity="0.5"/><circle cx="302.7" cy="367.9" r="2.3" fill="#b9bdca" opacity="0.5"/><circle cx="305.4" cy="164.3" r="2.3" fill="#b9bdca" opacity="0.5"/><circle cx="306.7" cy="94.6" r="2.3" fill="#b9bdca" opacity="0.5"/><circle cx="307.3" cy="89.6" r="2.3" fill="#b9bdca" opacity="0.5"/><circle cx="313.1" cy="124.6" r="2.3" fill="#b9bdca" opacity="0.5"/><circle cx="319.2" cy="146.2" r="2.3" fill="#b9bdca" opacity="0.5"/><circle cx="319.4" cy="90.5" r="2.3" fill="#b9bdca" opacity="0.5"/><circle cx="320.0" cy="87.7" r="2.3" fill="#b9bdca" opacity="0.5"/><circle cx="320.3" cy="87.7" r="2.3" fill="#b9bdca" opacity="0.5"/><circle cx="320.3" cy="89.6" r="2.3" fill="#b9bdca" opacity="0.5"/><circle cx="324.7" cy="93.0" r="2.3" fill="#b9bdca" opacity="0.5"/><circle cx="326.2" cy="85.5" r="2.3" fill="#b9bdca" opacity="0.5"/><circle cx="339.2" cy="334.8" r="2.3" fill="#b9bdca" opacity="0.5"/><circle cx="340.7" cy="86.3" r="2.3" fill="#b9bdca" opacity="0.5"/><circle cx="345.1" cy="85.5" r="2.3" fill="#b9bdca" opacity="0.5"/><circle cx="345.8" cy="84.6" r="2.3" fill="#b9bdca" opacity="0.5"/><circle cx="347.7" cy="87.8" r="2.3" fill="#b9bdca" opacity="0.5"/><circle cx="348.4" cy="84.4" r="2.3" fill="#b9bdca" opacity="0.5"/><circle cx="348.8" cy="84.8" r="2.3" fill="#b9bdca" opacity="0.5"/><circle cx="350.1" cy="87.4" r="2.3" fill="#b9bdca" opacity="0.5"/><circle cx="357.1" cy="84.4" r="2.3" fill="#b9bdca" opacity="0.5"/><circle cx="387.6" cy="89.3" r="2.3" fill="#b9bdca" opacity="0.5"/><circle cx="393.1" cy="88.6" r="2.3" fill="#b9bdca" opacity="0.5"/><circle cx="393.1" cy="92.1" r="2.3" fill="#b9bdca" opacity="0.5"/><circle cx="394.3" cy="156.8" r="2.3" fill="#b9bdca" opacity="0.5"/><circle cx="412.0" cy="201.6" r="2.3" fill="#b9bdca" opacity="0.5"/><circle cx="424.8" cy="315.6" r="2.3" fill="#b9bdca" opacity="0.5"/><circle cx="460.0" cy="87.7" r="2.3" fill="#b9bdca" opacity="0.5"/><circle cx="470.7" cy="87.6" r="2.3" fill="#b9bdca" opacity="0.5"/><circle cx="480.2" cy="87.2" r="2.3" fill="#b9bdca" opacity="0.5"/><circle cx="482.3" cy="88.8" r="2.3" fill="#b9bdca" opacity="0.5"/><circle cx="483.2" cy="89.2" r="2.3" fill="#b9bdca" opacity="0.5"/><circle cx="483.6" cy="90.9" r="2.3" fill="#b9bdca" opacity="0.5"/><circle cx="486.3" cy="87.7" r="2.3" fill="#b9bdca" opacity="0.5"/><circle cx="495.9" cy="88.6" r="2.3" fill="#b9bdca" opacity="0.5"/><circle cx="497.1" cy="89.7" r="2.3" fill="#b9bdca" opacity="0.5"/><circle cx="497.9" cy="88.2" r="2.3" fill="#b9bdca" opacity="0.5"/><circle cx="515.8" cy="75.8" r="2.3" fill="#b9bdca" opacity="0.5"/><circle cx="517.2" cy="75.7" r="2.3" fill="#b9bdca" opacity="0.5"/><circle cx="518.2" cy="76.7" r="2.3" fill="#b9bdca" opacity="0.5"/><circle cx="518.3" cy="75.8" r="2.3" fill="#b9bdca" opacity="0.5"/><circle cx="518.8" cy="75.3" r="2.3" fill="#b9bdca" opacity="0.5"/><circle cx="519.1" cy="74.7" r="2.3" fill="#b9bdca" opacity="0.5"/><circle cx="519.3" cy="83.4" r="2.3" fill="#b9bdca" opacity="0.5"/><circle cx="519.7" cy="76.2" r="2.3" fill="#b9bdca" opacity="0.5"/><circle cx="520.1" cy="78.1" r="2.3" fill="#b9bdca" opacity="0.5"/><circle cx="520.6" cy="74.7" r="2.3" fill="#b9bdca" opacity="0.5"/><circle cx="523.5" cy="89.3" r="2.3" fill="#b9bdca" opacity="0.5"/><circle cx="529.5" cy="74.4" r="2.3" fill="#b9bdca" opacity="0.5"/><circle cx="538.9" cy="74.4" r="2.3" fill="#b9bdca" opacity="0.5"/><circle cx="540.5" cy="335.1" r="2.3" fill="#b9bdca" opacity="0.5"/><circle cx="540.5" cy="81.7" r="2.3" fill="#b9bdca" opacity="0.5"/><circle cx="541.6" cy="74.6" r="2.3" fill="#b9bdca" opacity="0.5"/><circle cx="541.6" cy="82.1" r="2.3" fill="#b9bdca" opacity="0.5"/><circle cx="541.7" cy="73.9" r="2.3" fill="#b9bdca" opacity="0.5"/><circle cx="544.4" cy="76.2" r="2.3" fill="#b9bdca" opacity="0.5"/><circle cx="544.8" cy="82.1" r="2.3" fill="#b9bdca" opacity="0.5"/><circle cx="545.2" cy="74.2" r="2.3" fill="#b9bdca" opacity="0.5"/><circle cx="545.2" cy="75.0" r="2.3" fill="#b9bdca" opacity="0.5"/><circle cx="545.8" cy="73.6" r="2.3" fill="#b9bdca" opacity="0.5"/><circle cx="545.8" cy="83.3" r="2.3" fill="#b9bdca" opacity="0.5"/><circle cx="545.8" cy="83.8" r="2.3" fill="#b9bdca" opacity="0.5"/><circle cx="545.9" cy="78.1" r="2.3" fill="#b9bdca" opacity="0.5"/><circle cx="545.9" cy="81.5" r="2.3" fill="#b9bdca" opacity="0.5"/><circle cx="545.9" cy="83.0" r="2.3" fill="#b9bdca" opacity="0.5"/><circle cx="545.9" cy="83.7" r="2.3" fill="#b9bdca" opacity="0.5"/><circle cx="549.6" cy="82.7" r="2.3" fill="#b9bdca" opacity="0.5"/><circle cx="550.4" cy="77.8" r="2.3" fill="#b9bdca" opacity="0.5"/><circle cx="552.4" cy="69.8" r="2.3" fill="#b9bdca" opacity="0.5"/><circle cx="553.1" cy="75.9" r="2.3" fill="#b9bdca" opacity="0.5"/><circle cx="553.3" cy="74.3" r="2.3" fill="#b9bdca" opacity="0.5"/><circle cx="553.3" cy="77.4" r="2.3" fill="#b9bdca" opacity="0.5"/><circle cx="553.3" cy="80.6" r="2.3" fill="#b9bdca" opacity="0.5"/><circle cx="553.3" cy="81.8" r="2.3" fill="#b9bdca" opacity="0.5"/><circle cx="554.7" cy="76.9" r="2.3" fill="#b9bdca" opacity="0.5"/><circle cx="554.7" cy="82.8" r="2.3" fill="#b9bdca" opacity="0.5"/><circle cx="554.7" cy="83.0" r="2.3" fill="#b9bdca" opacity="0.5"/><circle cx="554.7" cy="83.1" r="2.3" fill="#b9bdca" opacity="0.5"/><circle cx="555.3" cy="69.1" r="2.3" fill="#b9bdca" opacity="0.5"/><circle cx="556.8" cy="75.5" r="2.3" fill="#b9bdca" opacity="0.5"/><circle cx="557.7" cy="74.3" r="2.3" fill="#b9bdca" opacity="0.5"/><circle cx="581.7" cy="74.0" r="2.3" fill="#b9bdca" opacity="0.5"/><circle cx="610.1" cy="73.4" r="2.3" fill="#b9bdca" opacity="0.5"/><circle cx="610.4" cy="75.9" r="2.3" fill="#b9bdca" opacity="0.5"/><circle cx="610.4" cy="76.3" r="2.3" fill="#b9bdca" opacity="0.5"/><circle cx="610.6" cy="76.0" r="2.3" fill="#b9bdca" opacity="0.5"/><circle cx="610.6" cy="76.8" r="2.3" fill="#b9bdca" opacity="0.5"/><circle cx="610.6" cy="81.2" r="2.3" fill="#b9bdca" opacity="0.5"/><circle cx="610.6" cy="83.4" r="2.3" fill="#b9bdca" opacity="0.5"/><circle cx="630.8" cy="76.6" r="2.3" fill="#b9bdca" opacity="0.5"/><circle cx="632.1" cy="76.7" r="2.3" fill="#b9bdca" opacity="0.5"/><circle cx="632.1" cy="82.8" r="2.3" fill="#b9bdca" opacity="0.5"/><circle cx="632.1" cy="82.8" r="2.3" fill="#b9bdca" opacity="0.5"/><circle cx="632.1" cy="83.3" r="2.3" fill="#b9bdca" opacity="0.5"/><circle cx="636.3" cy="233.4" r="2.3" fill="#b9bdca" opacity="0.5"/><circle cx="637.6" cy="228.9" r="2.3" fill="#b9bdca" opacity="0.5"/><circle cx="638.8" cy="198.3" r="2.3" fill="#b9bdca" opacity="0.5"/><circle cx="665.0" cy="73.4" r="2.3" fill="#b9bdca" opacity="0.5"/><circle cx="672.4" cy="192.4" r="2.3" fill="#b9bdca" opacity="0.5"/><circle cx="674.9" cy="75.3" r="2.3" fill="#b9bdca" opacity="0.5"/><circle cx="675.6" cy="74.0" r="2.3" fill="#b9bdca" opacity="0.5"/><circle cx="677.2" cy="194.4" r="2.3" fill="#b9bdca" opacity="0.5"/><circle cx="679.8" cy="168.6" r="2.3" fill="#b9bdca" opacity="0.5"/><circle cx="681.3" cy="77.1" r="2.3" fill="#b9bdca" opacity="0.5"/><circle cx="681.3" cy="99.5" r="2.3" fill="#b9bdca" opacity="0.5"/><circle cx="701.6" cy="71.4" r="2.3" fill="#b9bdca" opacity="0.5"/><circle cx="701.6" cy="73.5" r="2.3" fill="#b9bdca" opacity="0.5"/><circle cx="708.8" cy="72.4" r="2.3" fill="#b9bdca" opacity="0.5"/><circle cx="738.3" cy="83.0" r="2.3" fill="#b9bdca" opacity="0.5"/><circle cx="738.7" cy="72.1" r="2.3" fill="#b9bdca" opacity="0.5"/><circle cx="739.1" cy="71.6" r="2.3" fill="#b9bdca" opacity="0.5"/><circle cx="740.0" cy="75.5" r="2.3" fill="#b9bdca" opacity="0.5"/><circle cx="740.5" cy="73.7" r="2.3" fill="#b9bdca" opacity="0.5"/><circle cx="741.8" cy="72.9" r="2.3" fill="#b9bdca" opacity="0.5"/><circle cx="742.3" cy="73.4" r="2.3" fill="#b9bdca" opacity="0.5"/><circle cx="800.0" cy="85.2" r="2.3" fill="#b9bdca" opacity="0.5"/><circle cx="800.0" cy="256.6" r="2.3" fill="#b9bdca" opacity="0.5"/><circle cx="800.0" cy="335.3" r="2.3" fill="#b9bdca" opacity="0.5"/><circle cx="800.4" cy="86.8" r="2.3" fill="#b9bdca" opacity="0.5"/><circle cx="800.9" cy="71.5" r="2.3" fill="#b9bdca" opacity="0.5"/><circle cx="802.4" cy="71.0" r="2.3" fill="#b9bdca" opacity="0.5"/><circle cx="803.3" cy="71.5" r="2.3" fill="#b9bdca" opacity="0.5"/><circle cx="803.4" cy="55.0" r="2.3" fill="#b9bdca" opacity="0.5"/><circle cx="811.4" cy="83.1" r="2.3" fill="#b9bdca" opacity="0.5"/><circle cx="813.4" cy="74.7" r="2.3" fill="#b9bdca" opacity="0.5"/><circle cx="813.6" cy="59.3" r="2.3" fill="#b9bdca" opacity="0.5"/><circle cx="813.6" cy="79.9" r="2.3" fill="#b9bdca" opacity="0.5"/><circle cx="813.8" cy="74.1" r="2.3" fill="#b9bdca" opacity="0.5"/><circle cx="814.2" cy="72.7" r="2.3" fill="#b9bdca" opacity="0.5"/><circle cx="814.2" cy="73.8" r="2.3" fill="#b9bdca" opacity="0.5"/><circle cx="814.2" cy="75.9" r="2.3" fill="#b9bdca" opacity="0.5"/><circle cx="814.6" cy="74.1" r="2.3" fill="#b9bdca" opacity="0.5"/><circle cx="815.1" cy="73.5" r="2.3" fill="#b9bdca" opacity="0.5"/><circle cx="815.5" cy="74.2" r="2.3" fill="#b9bdca" opacity="0.5"/><circle cx="815.9" cy="71.5" r="2.3" fill="#b9bdca" opacity="0.5"/><circle cx="817.1" cy="74.3" r="2.3" fill="#b9bdca" opacity="0.5"/><circle cx="823.6" cy="73.2" r="2.3" fill="#b9bdca" opacity="0.5"/><circle cx="823.6" cy="73.6" r="2.3" fill="#b9bdca" opacity="0.5"/><circle cx="823.6" cy="73.8" r="2.3" fill="#b9bdca" opacity="0.5"/><circle cx="836.1" cy="73.3" r="2.3" fill="#b9bdca" opacity="0.5"/><circle cx="836.1" cy="73.4" r="2.3" fill="#b9bdca" opacity="0.5"/><circle cx="864.4" cy="96.1" r="2.3" fill="#b9bdca" opacity="0.5"/><circle cx="980.7" cy="95.6" r="2.3" fill="#b9bdca" opacity="0.5"/><circle cx="1019.1" cy="74.8" r="2.3" fill="#b9bdca" opacity="0.5"/><circle cx="1021.0" cy="72.3" r="2.3" fill="#b9bdca" opacity="0.5"/><circle cx="1032.0" cy="79.9" r="2.3" fill="#b9bdca" opacity="0.5"/><circle cx="1032.0" cy="80.6" r="2.3" fill="#b9bdca" opacity="0.5"/><path d="M180.8 152.3L184.4 155.9L180.8 159.5L177.2 155.9Z" fill="#2b3a7a" opacity="0.8" stroke="none" stroke-width="0"/><path d="M188.6 138.2L192.2 141.8L188.6 145.4L185.0 141.8Z" fill="#2b3a7a" opacity="0.8" stroke="none" stroke-width="0"/><path d="M189.7 128.1L193.3 131.7L189.7 135.3L186.1 131.7Z" fill="#2b3a7a" opacity="0.8" stroke="none" stroke-width="0"/><path d="M189.8 130.5L193.4 134.1L189.8 137.7L186.2 134.1Z" fill="#2b3a7a" opacity="0.8" stroke="none" stroke-width="0"/><path d="M190.6 127.3L194.2 130.9L190.6 134.5L187.0 130.9Z" fill="#2b3a7a" opacity="0.8" stroke="none" stroke-width="0"/><path d="M191.0 125.9L194.6 129.5L191.0 133.1L187.4 129.5Z" fill="#2b3a7a" opacity="0.8" stroke="none" stroke-width="0"/><path d="M191.0 127.3L194.6 130.9L191.0 134.5L187.4 130.9Z" fill="#2b3a7a" opacity="0.8" stroke="none" stroke-width="0"/><path d="M215.4 125.9L219.0 129.5L215.4 133.1L211.8 129.5Z" fill="#2b3a7a" opacity="0.8" stroke="none" stroke-width="0"/><path d="M219.1 125.3L222.7 128.9L219.1 132.5L215.5 128.9Z" fill="#2b3a7a" opacity="0.8" stroke="none" stroke-width="0"/><path d="M222.6 124.8L226.2 128.4L222.6 132.0L219.0 128.4Z" fill="#2b3a7a" opacity="0.8" stroke="none" stroke-width="0"/><path d="M225.0 124.6L228.6 128.2L225.0 131.8L221.4 128.2Z" fill="#2b3a7a" opacity="0.8" stroke="none" stroke-width="0"/><path d="M236.0 124.4L239.6 128.0L236.0 131.6L232.4 128.0Z" fill="#2b3a7a" opacity="0.8" stroke="none" stroke-width="0"/><path d="M247.5 109.2L251.1 112.8L247.5 116.4L243.9 112.8Z" fill="#2b3a7a" opacity="0.8" stroke="none" stroke-width="0"/><path d="M252.9 108.0L256.5 111.6L252.9 115.2L249.3 111.6Z" fill="#2b3a7a" opacity="0.8" stroke="none" stroke-width="0"/><path d="M254.6 101.9L258.2 105.5L254.6 109.1L251.0 105.5Z" fill="#2b3a7a" opacity="0.8" stroke="none" stroke-width="0"/><path d="M254.8 104.9L258.4 108.5L254.8 112.1L251.2 108.5Z" fill="#2b3a7a" opacity="0.8" stroke="none" stroke-width="0"/><path d="M255.5 101.5L259.1 105.1L255.5 108.7L251.9 105.1Z" fill="#2b3a7a" opacity="0.8" stroke="none" stroke-width="0"/><path d="M256.2 100.2L259.8 103.8L256.2 107.4L252.6 103.8Z" fill="#2b3a7a" opacity="0.8" stroke="none" stroke-width="0"/><path d="M264.2 99.9L267.8 103.5L264.2 107.1L260.6 103.5Z" fill="#2b3a7a" opacity="0.8" stroke="none" stroke-width="0"/><path d="M279.2 86.0L282.8 89.6L279.2 93.2L275.6 89.6Z" fill="#2b3a7a" opacity="0.8" stroke="none" stroke-width="0"/><path d="M281.8 85.7L285.4 89.3L281.8 92.9L278.2 89.3Z" fill="#2b3a7a" opacity="0.8" stroke="none" stroke-width="0"/><path d="M282.3 84.0L285.9 87.6L282.3 91.2L278.7 87.6Z" fill="#2b3a7a" opacity="0.8" stroke="none" stroke-width="0"/><path d="M285.0 81.8L288.6 85.4L285.0 89.0L281.4 85.4Z" fill="#2b3a7a" opacity="0.8" stroke="none" stroke-width="0"/><path d="M293.3 80.8L296.9 84.4L293.3 88.0L289.7 84.4Z" fill="#2b3a7a" opacity="0.8" stroke="none" stroke-width="0"/><path d="M357.1 80.8L360.7 84.4L357.1 88.0L353.5 84.4Z" fill="#2b3a7a" opacity="0.8" stroke="none" stroke-width="0"/><path d="M515.8 72.2L519.4 75.8L515.8 79.4L512.2 75.8Z" fill="#2b3a7a" opacity="0.8" stroke="none" stroke-width="0"/><path d="M517.2 72.1L520.8 75.7L517.2 79.3L513.6 75.7Z" fill="#2b3a7a" opacity="0.8" stroke="none" stroke-width="0"/><path d="M518.8 71.7L522.4 75.3L518.8 78.9L515.2 75.3Z" fill="#2b3a7a" opacity="0.8" stroke="none" stroke-width="0"/><path d="M519.1 71.1L522.7 74.7L519.1 78.3L515.5 74.7Z" fill="#2b3a7a" opacity="0.8" stroke="none" stroke-width="0"/><path d="M520.6 71.1L524.2 74.7L520.6 78.3L517.0 74.7Z" fill="#2b3a7a" opacity="0.8" stroke="none" stroke-width="0"/><path d="M529.5 70.8L533.1 74.4L529.5 78.0L525.9 74.4Z" fill="#2b3a7a" opacity="0.8" stroke="none" stroke-width="0"/><path d="M541.7 70.3L545.3 73.9L541.7 77.5L538.1 73.9Z" fill="#2b3a7a" opacity="0.8" stroke="none" stroke-width="0"/><path d="M545.8 70.0L549.4 73.6L545.8 77.2L542.2 73.6Z" fill="#2b3a7a" opacity="0.8" stroke="none" stroke-width="0"/><path d="M610.1 69.8L613.7 73.4L610.1 77.0L606.5 73.4Z" fill="#2b3a7a" opacity="0.8" stroke="none" stroke-width="0"/><path d="M665.0 69.8L668.6 73.4L665.0 77.0L661.4 73.4Z" fill="#2b3a7a" opacity="0.8" stroke="none" stroke-width="0"/><path d="M701.6 67.8L705.2 71.4L701.6 75.0L698.0 71.4Z" fill="#2b3a7a" opacity="0.8" stroke="none" stroke-width="0"/><path d="M60.0 335.3L62.0 335.3L62.0 335.1L64.7 335.1L64.7 320.7L70.2 320.7L70.2 319.9L72.2 319.9L72.2 315.3L72.8 315.3L72.8 314.9L73.6 314.9L73.6 314.9L106.2 314.9L106.2 238.7L106.8 238.7L106.8 229.0L107.3 229.0L107.3 222.3L107.9 222.3L107.9 220.6L108.1 220.6L108.1 220.5L108.4 220.5L108.4 214.2L109.6 214.2L109.6 214.1L110.0 214.1L110.0 213.7L110.3 213.7L110.3 213.5L110.6 213.5L110.6 212.7L112.2 212.7L112.2 212.1L112.7 212.1L112.7 212.0L117.0 212.0L117.0 206.7L121.9 206.7L121.9 204.9L123.7 204.9L123.7 204.6L124.9 204.6L124.9 201.9L127.1 201.9L127.1 201.8L128.2 201.8L128.2 201.0L128.8 201.0L128.8 200.0L132.0 200.0L132.0 200.0L133.2 200.0L133.2 199.7L143.9 199.7L143.9 195.5L151.9 195.5L151.9 187.4L152.1 187.4L152.1 186.2L152.6 186.2L152.6 184.5L166.5 184.5L166.5 183.9L173.4 183.9L173.4 169.3L175.7 169.3L175.7 168.8L175.9 168.8L175.9 167.7L177.2 167.7L177.2 165.0L177.7 165.0L177.7 163.7L177.9 163.7L177.9 163.6L180.8 163.6L180.8 155.9L184.4 155.9L184.4 155.8L185.7 155.8L185.7 141.9L188.6 141.9L188.6 141.8L189.7 141.8L189.7 131.7L190.6 131.7L190.6 130.9L191.0 130.9L191.0 129.5L215.4 129.5L215.4 129.5L219.1 129.5L219.1 128.9L222.6 128.9L222.6 128.4L225.0 128.4L225.0 128.2L236.0 128.2L236.0 128.0L247.5 128.0L247.5 112.8L250.1 112.8L250.1 110.2L254.6 110.2L254.6 105.5L255.5 105.5L255.5 105.1L256.2 105.1L256.2 103.8L264.2 103.8L264.2 103.5L279.2 103.5L279.2 89.6L281.8 89.6L281.8 89.3L282.3 89.3L282.3 87.6L285.0 87.6L285.0 85.4L293.3 85.4L293.3 84.4L357.1 84.4L357.1 84.4L515.8 84.4L515.8 75.8L517.2 75.8L517.2 75.7L518.8 75.7L518.8 75.3L519.1 75.3L519.1 74.7L520.6 74.7L520.6 74.7L529.5 74.7L529.5 74.4L541.7 74.4L541.7 73.9L545.8 73.9L545.8 73.6L552.4 73.6L552.4 69.8L555.3 69.8L555.3 69.1L803.4 69.1L803.4 55.0L1032.0 55.0" fill="none" stroke="#6675b0" stroke-width="1.6" stroke-dasharray="5 3" opacity="0.75"/><path d="M180.8 155.9L188.6 155.9L188.6 141.8L189.7 141.8L189.7 131.7L190.6 131.7L190.6 130.9L191.0 130.9L191.0 129.5L215.4 129.5L215.4 129.5L219.1 129.5L219.1 128.9L222.6 128.9L222.6 128.4L225.0 128.4L225.0 128.2L236.0 128.2L236.0 128.0L247.5 128.0L247.5 112.8L252.9 112.8L252.9 111.6L254.6 111.6L254.6 105.5L255.5 105.5L255.5 105.1L256.2 105.1L256.2 103.8L264.2 103.8L264.2 103.5L279.2 103.5L279.2 89.6L281.8 89.6L281.8 89.3L282.3 89.3L282.3 87.6L285.0 87.6L285.0 85.4L293.3 85.4L293.3 84.4L357.1 84.4L357.1 84.4L515.8 84.4L515.8 75.8L517.2 75.8L517.2 75.7L518.8 75.7L518.8 75.3L519.1 75.3L519.1 74.7L520.6 74.7L520.6 74.7L529.5 74.7L529.5 74.4L541.7 74.4L541.7 73.9L545.8 73.9L545.8 73.6L552.4 73.6L552.4 73.5L610.1 73.5L610.1 73.4L665.0 73.4L665.0 73.4L701.6 73.4L701.6 71.4L1032.0 71.4" fill="none" stroke="#2b3a7a" stroke-width="2.6"/><path d="M464.3 246.9L470.8 253.4L464.3 259.9L457.8 253.4Z" fill="#c5961a" opacity="1.0" stroke="#ffffff" stroke-width="1.4"/><path d="M543.3 206.5L549.8 213.0L543.3 219.5L536.8 213.0Z" fill="#c5961a" opacity="1.0" stroke="#ffffff" stroke-width="1.4"/><path d="M552.4 67.0L558.9 73.5L552.4 80.0L545.9 73.5Z" fill="#c5961a" opacity="1.0" stroke="#ffffff" stroke-width="1.4"/><path d="M620.1 240.8L626.6 247.3L620.1 253.8L613.6 247.3Z" fill="#c5961a" opacity="1.0" stroke="#ffffff" stroke-width="1.4"/><path d="M620.6 238.0L627.1 244.5L620.6 251.0L614.1 244.5Z" fill="#c5961a" opacity="1.0" stroke="#ffffff" stroke-width="1.4"/><text x="1042" y="53.0" font-size="11.5" fill="#6675b0">– – raw best 535.9</text><text x="1042" y="67.0" font-size="10" fill="#8a8fa3">unverified (pending)</text><path d="M701.6 64.9L708.1 71.4L701.6 77.9L695.1 71.4Z" fill="#2b3a7a" opacity="1.0" stroke="#ffffff" stroke-width="1.4"/><text x="1042" y="99.4" font-size="12.5" fill="#2b3a7a" font-weight="bold">◆ verified 510.1</text><text x="1042" y="115.4" font-size="10.5" fill="#3a3f55">top verified</text><text x="60" y="24" font-size="13" font-weight="bold" fill="#3a3f55" letter-spacing="1.2">SCORE EVOLUTION — gemma-challenge (tok/s)</text><circle cx="452" cy="20" r="3" fill="#b9bdca"/><text x="460" y="24" font-size="10.5" fill="#8a8fa3">all results</text><path d="M544.0 16.4L547.6 20.0L544.0 23.6L540.4 20.0Z" fill="#2b3a7a" opacity="1.0" stroke="none" stroke-width="0"/><text x="552" y="24" font-size="10.5" fill="#8a8fa3">verified</text><path d="M620.0 15.5L624.5 20.0L620.0 24.5L615.5 20.0Z" fill="#c5961a" opacity="1.0" stroke="#fff" stroke-width="1"/><text x="629" y="24" font-size="10.5" fill="#8a8fa3">mikasa-inbound (us)</text></svg>