<svg viewBox="0 0 1200 440" xmlns="http://www.w3.org/2000/svg" font-family="ui-sans-serif,system-ui,-apple-system,sans-serif"><rect x="0" y="0" width="1200" height="440" fill="#ffffff"/><rect x="60" y="46" width="972" height="350" fill="#f3f4fb"/><line x1="60" y1="396.0" x2="1032" y2="396.0" stroke="#e3e5ef" stroke-width="1"/><text x="52" y="400.0" text-anchor="end" font-size="11" fill="#8a8fa3">0</text><line x1="60" y1="332.4" x2="1032" y2="332.4" stroke="#e3e5ef" stroke-width="1"/><text x="52" y="336.4" text-anchor="end" font-size="11" fill="#8a8fa3">100</text><line x1="60" y1="268.7" x2="1032" y2="268.7" stroke="#e3e5ef" stroke-width="1"/><text x="52" y="272.7" text-anchor="end" font-size="11" fill="#8a8fa3">200</text><line x1="60" y1="205.1" x2="1032" y2="205.1" stroke="#e3e5ef" stroke-width="1"/><text x="52" y="209.1" text-anchor="end" font-size="11" fill="#8a8fa3">300</text><line x1="60" y1="141.5" x2="1032" y2="141.5" stroke="#e3e5ef" stroke-width="1"/><text x="52" y="145.5" text-anchor="end" font-size="11" fill="#8a8fa3">400</text><line x1="60" y1="77.8" x2="1032" y2="77.8" stroke="#e3e5ef" stroke-width="1"/><text x="52" y="81.8" text-anchor="end" font-size="11" fill="#8a8fa3">500</text><line x1="146.0" y1="46" x2="146.0" y2="396" stroke="#e3e5ef" stroke-width="1"/><text x="146.0" y="414.0" text-anchor="middle" font-size="11" fill="#8a8fa3">Jun 10</text><line x1="268.7" y1="46" x2="268.7" y2="396" stroke="#e3e5ef" stroke-width="1"/><text x="268.7" y="414.0" text-anchor="middle" font-size="11" fill="#8a8fa3">Jun 12</text><line x1="391.4" y1="46" x2="391.4" y2="396" stroke="#e3e5ef" stroke-width="1"/><text x="391.4" y="414.0" text-anchor="middle" font-size="11" fill="#8a8fa3">Jun 14</text><line x1="514.1" y1="46" x2="514.1" y2="396" stroke="#e3e5ef" stroke-width="1"/><text x="514.1" y="414.0" text-anchor="middle" font-size="11" fill="#8a8fa3">Jun 16</text><line x1="636.7" y1="46" x2="636.7" y2="396" stroke="#e3e5ef" stroke-width="1"/><text x="636.7" y="414.0" text-anchor="middle" font-size="11" fill="#8a8fa3">Jun 18</text><line x1="759.4" y1="46" x2="759.4" y2="396" stroke="#e3e5ef" stroke-width="1"/><text x="759.4" y="414.0" text-anchor="middle" font-size="11" fill="#8a8fa3">Jun 20</text><line x1="882.1" y1="46" x2="882.1" y2="396" stroke="#e3e5ef" stroke-width="1"/><text x="882.1" y="414.0" text-anchor="middle" font-size="11" fill="#8a8fa3">Jun 22</text><line x1="1004.8" y1="46" x2="1004.8" y2="396" stroke="#e3e5ef" stroke-width="1"/><text x="1004.8" y="414.0" text-anchor="middle" font-size="11" fill="#8a8fa3">Jun 24</text><circle cx="60.0" cy="335.3" r="2.3" fill="#b9bdca" opacity="0.5"/><circle cx="62.9" cy="335.1" r="2.3" fill="#b9bdca" opacity="0.5"/><circle cx="65.9" cy="368.0" r="2.3" fill="#b9bdca" opacity="0.5"/><circle cx="67.1" cy="320.7" r="2.3" fill="#b9bdca" opacity="0.5"/><circle cx="75.3" cy="319.9" r="2.3" fill="#b9bdca" opacity="0.5"/><circle cx="75.7" cy="320.6" r="2.3" fill="#b9bdca" opacity="0.5"/><circle cx="78.3" cy="315.3" r="2.3" fill="#b9bdca" opacity="0.5"/><circle cx="78.9" cy="319.7" r="2.3" fill="#b9bdca" opacity="0.5"/><circle cx="79.1" cy="314.9" r="2.3" fill="#b9bdca" opacity="0.5"/><circle cx="80.1" cy="315.5" r="2.3" fill="#b9bdca" opacity="0.5"/><circle cx="80.4" cy="314.9" r="2.3" fill="#b9bdca" opacity="0.5"/><circle cx="81.3" cy="315.4" r="2.3" fill="#b9bdca" opacity="0.5"/><circle cx="82.8" cy="315.0" r="2.3" fill="#b9bdca" opacity="0.5"/><circle cx="129.3" cy="238.7" r="2.3" fill="#b9bdca" opacity="0.5"/><circle cx="129.6" cy="315.0" r="2.3" fill="#b9bdca" opacity="0.5"/><circle cx="130.1" cy="229.0" r="2.3" fill="#b9bdca" opacity="0.5"/><circle cx="130.8" cy="222.3" r="2.3" fill="#b9bdca" opacity="0.5"/><circle cx="131.6" cy="228.0" r="2.3" fill="#b9bdca" opacity="0.5"/><circle cx="131.7" cy="223.3" r="2.3" fill="#b9bdca" opacity="0.5"/><circle cx="131.8" cy="220.6" r="2.3" fill="#b9bdca" opacity="0.5"/><circle cx="132.0" cy="220.5" r="2.3" fill="#b9bdca" opacity="0.5"/><circle cx="132.2" cy="223.2" r="2.3" fill="#b9bdca" opacity="0.5"/><circle cx="132.5" cy="214.2" r="2.3" fill="#b9bdca" opacity="0.5"/><circle cx="132.6" cy="222.1" r="2.3" fill="#b9bdca" opacity="0.5"/><circle cx="133.0" cy="220.7" r="2.3" fill="#b9bdca" opacity="0.5"/><circle cx="133.5" cy="218.5" r="2.3" fill="#b9bdca" opacity="0.5"/><circle cx="133.7" cy="215.2" r="2.3" fill="#b9bdca" opacity="0.5"/><circle cx="134.0" cy="214.3" r="2.3" fill="#b9bdca" opacity="0.5"/><circle cx="134.0" cy="219.2" r="2.3" fill="#b9bdca" opacity="0.5"/><circle cx="134.4" cy="214.1" r="2.3" fill="#b9bdca" opacity="0.5"/><circle cx="134.7" cy="215.2" r="2.3" fill="#b9bdca" opacity="0.5"/><circle cx="134.9" cy="213.7" r="2.3" fill="#b9bdca" opacity="0.5"/><circle cx="135.3" cy="213.5" r="2.3" fill="#b9bdca" opacity="0.5"/><circle cx="135.7" cy="214.8" r="2.3" fill="#b9bdca" opacity="0.5"/><circle cx="135.7" cy="217.7" r="2.3" fill="#b9bdca" opacity="0.5"/><circle cx="135.9" cy="212.7" r="2.3" fill="#b9bdca" opacity="0.5"/><circle cx="136.6" cy="213.3" r="2.3" fill="#b9bdca" opacity="0.5"/><circle cx="137.4" cy="212.7" r="2.3" fill="#b9bdca" opacity="0.5"/><circle cx="137.4" cy="213.6" r="2.3" fill="#b9bdca" opacity="0.5"/><circle cx="137.7" cy="213.0" r="2.3" fill="#b9bdca" opacity="0.5"/><circle cx="138.3" cy="212.1" r="2.3" fill="#b9bdca" opacity="0.5"/><circle cx="138.4" cy="213.3" r="2.3" fill="#b9bdca" opacity="0.5"/><circle cx="138.9" cy="212.0" r="2.3" fill="#b9bdca" opacity="0.5"/><circle cx="139.8" cy="212.1" r="2.3" fill="#b9bdca" opacity="0.5"/><circle cx="139.8" cy="212.8" r="2.3" fill="#b9bdca" opacity="0.5"/><circle cx="145.4" cy="206.7" r="2.3" fill="#b9bdca" opacity="0.5"/><circle cx="146.2" cy="206.8" r="2.3" fill="#b9bdca" opacity="0.5"/><circle cx="146.2" cy="212.5" r="2.3" fill="#b9bdca" opacity="0.5"/><circle cx="146.6" cy="207.2" r="2.3" fill="#b9bdca" opacity="0.5"/><circle cx="148.4" cy="207.0" r="2.3" fill="#b9bdca" opacity="0.5"/><circle cx="152.7" cy="204.9" r="2.3" fill="#b9bdca" opacity="0.5"/><circle cx="155.4" cy="204.6" r="2.3" fill="#b9bdca" opacity="0.5"/><circle cx="155.7" cy="212.3" r="2.3" fill="#b9bdca" opacity="0.5"/><circle cx="156.1" cy="204.6" r="2.3" fill="#b9bdca" opacity="0.5"/><circle cx="156.1" cy="204.6" r="2.3" fill="#b9bdca" opacity="0.5"/><circle cx="156.1" cy="204.9" r="2.3" fill="#b9bdca" opacity="0.5"/><circle cx="156.1" cy="204.9" r="2.3" fill="#b9bdca" opacity="0.5"/><circle cx="157.2" cy="201.9" r="2.3" fill="#b9bdca" opacity="0.5"/><circle cx="158.9" cy="206.5" r="2.3" fill="#b9bdca" opacity="0.5"/><circle cx="159.6" cy="205.8" r="2.3" fill="#b9bdca" opacity="0.5"/><circle cx="159.6" cy="335.1" r="2.3" fill="#b9bdca" opacity="0.5"/><circle cx="160.5" cy="201.8" r="2.3" fill="#b9bdca" opacity="0.5"/><circle cx="160.5" cy="202.2" r="2.3" fill="#b9bdca" opacity="0.5"/><circle cx="162.1" cy="201.0" r="2.3" fill="#b9bdca" opacity="0.5"/><circle cx="162.7" cy="203.1" r="2.3" fill="#b9bdca" opacity="0.5"/><circle cx="163.1" cy="200.0" r="2.3" fill="#b9bdca" opacity="0.5"/><circle cx="163.1" cy="204.6" r="2.3" fill="#b9bdca" opacity="0.5"/><circle cx="164.1" cy="202.3" r="2.3" fill="#b9bdca" opacity="0.5"/><circle cx="166.2" cy="200.4" r="2.3" fill="#b9bdca" opacity="0.5"/><circle cx="167.0" cy="200.7" r="2.3" fill="#b9bdca" opacity="0.5"/><circle cx="167.8" cy="200.0" r="2.3" fill="#b9bdca" opacity="0.5"/><circle cx="169.7" cy="199.7" r="2.3" fill="#b9bdca" opacity="0.5"/><circle cx="181.4" cy="200.6" r="2.3" fill="#b9bdca" opacity="0.5"/><circle cx="182.5" cy="201.8" r="2.3" fill="#b9bdca" opacity="0.5"/><circle cx="184.0" cy="208.4" r="2.3" fill="#b9bdca" opacity="0.5"/><circle cx="184.1" cy="200.8" r="2.3" fill="#b9bdca" opacity="0.5"/><circle cx="185.3" cy="200.7" r="2.3" fill="#b9bdca" opacity="0.5"/><circle cx="185.3" cy="201.9" r="2.3" fill="#b9bdca" opacity="0.5"/><circle cx="185.7" cy="195.5" r="2.3" fill="#b9bdca" opacity="0.5"/><circle cx="186.8" cy="196.9" r="2.3" fill="#b9bdca" opacity="0.5"/><circle cx="187.3" cy="197.9" r="2.3" fill="#b9bdca" opacity="0.5"/><circle cx="188.3" cy="196.1" r="2.3" fill="#b9bdca" opacity="0.5"/><circle cx="192.0" cy="197.3" r="2.3" fill="#b9bdca" opacity="0.5"/><circle cx="192.9" cy="195.9" r="2.3" fill="#b9bdca" opacity="0.5"/><circle cx="193.3" cy="201.0" r="2.3" fill="#b9bdca" opacity="0.5"/><circle cx="193.6" cy="197.5" r="2.3" fill="#b9bdca" opacity="0.5"/><circle cx="194.4" cy="196.9" r="2.3" fill="#b9bdca" opacity="0.5"/><circle cx="194.4" cy="197.1" r="2.3" fill="#b9bdca" opacity="0.5"/><circle cx="194.5" cy="197.0" r="2.3" fill="#b9bdca" opacity="0.5"/><circle cx="195.3" cy="196.0" r="2.3" fill="#b9bdca" opacity="0.5"/><circle cx="195.3" cy="196.0" r="2.3" fill="#b9bdca" opacity="0.5"/><circle cx="195.4" cy="197.9" r="2.3" fill="#b9bdca" opacity="0.5"/><circle cx="196.0" cy="197.8" r="2.3" fill="#b9bdca" opacity="0.5"/><circle cx="196.5" cy="196.2" r="2.3" fill="#b9bdca" opacity="0.5"/><circle cx="196.6" cy="197.5" r="2.3" fill="#b9bdca" opacity="0.5"/><circle cx="196.7" cy="196.9" r="2.3" fill="#b9bdca" opacity="0.5"/><circle cx="196.8" cy="195.5" r="2.3" fill="#b9bdca" opacity="0.5"/><circle cx="197.5" cy="198.1" r="2.3" fill="#b9bdca" opacity="0.5"/><circle cx="197.6" cy="187.4" r="2.3" fill="#b9bdca" opacity="0.5"/><circle cx="198.0" cy="186.2" r="2.3" fill="#b9bdca" opacity="0.5"/><circle cx="198.0" cy="196.3" r="2.3" fill="#b9bdca" opacity="0.5"/><circle cx="198.0" cy="197.2" r="2.3" fill="#b9bdca" opacity="0.5"/><circle cx="198.0" cy="197.8" r="2.3" fill="#b9bdca" opacity="0.5"/><circle cx="198.0" cy="368.0" r="2.3" fill="#b9bdca" opacity="0.5"/><circle cx="198.8" cy="184.5" r="2.3" fill="#b9bdca" opacity="0.5"/><circle cx="201.9" cy="184.6" r="2.3" fill="#b9bdca" opacity="0.5"/><circle cx="203.3" cy="185.6" r="2.3" fill="#b9bdca" opacity="0.5"/><circle cx="207.9" cy="188.7" r="2.3" fill="#b9bdca" opacity="0.5"/><circle cx="214.1" cy="185.4" r="2.3" fill="#b9bdca" opacity="0.5"/><circle cx="215.5" cy="185.2" r="2.3" fill="#b9bdca" opacity="0.5"/><circle cx="216.0" cy="186.6" r="2.3" fill="#b9bdca" opacity="0.5"/><circle cx="216.1" cy="185.3" r="2.3" fill="#b9bdca" opacity="0.5"/><circle cx="217.2" cy="185.3" r="2.3" fill="#b9bdca" opacity="0.5"/><circle cx="217.7" cy="185.0" r="2.3" fill="#b9bdca" opacity="0.5"/><circle cx="218.8" cy="184.9" r="2.3" fill="#b9bdca" opacity="0.5"/><circle cx="219.5" cy="185.1" r="2.3" fill="#b9bdca" opacity="0.5"/><circle cx="219.5" cy="185.2" r="2.3" fill="#b9bdca" opacity="0.5"/><circle cx="219.5" cy="186.4" r="2.3" fill="#b9bdca" opacity="0.5"/><circle cx="219.6" cy="183.9" r="2.3" fill="#b9bdca" opacity="0.5"/><circle cx="225.3" cy="184.4" r="2.3" fill="#b9bdca" opacity="0.5"/><circle cx="226.3" cy="184.2" r="2.3" fill="#b9bdca" opacity="0.5"/><circle cx="229.9" cy="169.3" r="2.3" fill="#b9bdca" opacity="0.5"/><circle cx="233.4" cy="168.8" r="2.3" fill="#b9bdca" opacity="0.5"/><circle cx="233.6" cy="167.7" r="2.3" fill="#b9bdca" opacity="0.5"/><circle cx="235.1" cy="201.4" r="2.3" fill="#b9bdca" opacity="0.5"/><circle cx="235.6" cy="165.0" r="2.3" fill="#b9bdca" opacity="0.5"/><circle cx="235.8" cy="198.2" r="2.3" fill="#b9bdca" opacity="0.5"/><circle cx="236.4" cy="163.7" r="2.3" fill="#b9bdca" opacity="0.5"/><circle cx="236.6" cy="163.6" r="2.3" fill="#b9bdca" opacity="0.5"/><circle cx="237.2" cy="165.9" r="2.3" fill="#b9bdca" opacity="0.5"/><circle cx="240.3" cy="165.1" r="2.3" fill="#b9bdca" opacity="0.5"/><circle cx="241.0" cy="155.9" r="2.3" fill="#b9bdca" opacity="0.5"/><circle cx="244.0" cy="196.5" r="2.3" fill="#b9bdca" opacity="0.5"/><circle cx="245.2" cy="157.4" r="2.3" fill="#b9bdca" opacity="0.5"/><circle cx="246.4" cy="155.8" r="2.3" fill="#b9bdca" opacity="0.5"/><circle cx="248.4" cy="141.9" r="2.3" fill="#b9bdca" opacity="0.5"/><circle cx="252.5" cy="156.1" r="2.3" fill="#b9bdca" opacity="0.5"/><circle cx="252.5" cy="156.4" r="2.3" fill="#b9bdca" opacity="0.5"/><circle cx="252.7" cy="141.8" r="2.3" fill="#b9bdca" opacity="0.5"/><circle cx="252.8" cy="196.0" r="2.3" fill="#b9bdca" opacity="0.5"/><circle cx="254.2" cy="131.7" r="2.3" fill="#b9bdca" opacity="0.5"/><circle cx="254.4" cy="134.1" r="2.3" fill="#b9bdca" opacity="0.5"/><circle cx="254.9" cy="141.1" r="2.3" fill="#b9bdca" opacity="0.5"/><circle cx="255.6" cy="134.0" r="2.3" fill="#b9bdca" opacity="0.5"/><circle cx="255.7" cy="130.9" r="2.3" fill="#b9bdca" opacity="0.5"/><circle cx="255.7" cy="154.2" r="2.3" fill="#b9bdca" opacity="0.5"/><circle cx="256.0" cy="133.6" r="2.3" fill="#b9bdca" opacity="0.5"/><circle cx="256.3" cy="129.5" r="2.3" fill="#b9bdca" opacity="0.5"/><circle cx="256.3" cy="130.9" r="2.3" fill="#b9bdca" opacity="0.5"/><circle cx="256.3" cy="133.4" r="2.3" fill="#b9bdca" opacity="0.5"/><circle cx="256.6" cy="131.2" r="2.3" fill="#b9bdca" opacity="0.5"/><circle cx="259.2" cy="189.8" r="2.3" fill="#b9bdca" opacity="0.5"/><circle cx="259.3" cy="133.2" r="2.3" fill="#b9bdca" opacity="0.5"/><circle cx="259.7" cy="133.5" r="2.3" fill="#b9bdca" opacity="0.5"/><circle cx="260.6" cy="130.1" r="2.3" fill="#b9bdca" opacity="0.5"/><circle cx="263.1" cy="130.3" r="2.3" fill="#b9bdca" opacity="0.5"/><circle cx="264.3" cy="303.1" r="2.3" fill="#b9bdca" opacity="0.5"/><circle cx="266.3" cy="133.2" r="2.3" fill="#b9bdca" opacity="0.5"/><circle cx="269.1" cy="144.2" r="2.3" fill="#b9bdca" opacity="0.5"/><circle cx="269.7" cy="135.3" r="2.3" fill="#b9bdca" opacity="0.5"/><circle cx="271.4" cy="133.4" r="2.3" fill="#b9bdca" opacity="0.5"/><circle cx="271.6" cy="159.9" r="2.3" fill="#b9bdca" opacity="0.5"/><circle cx="272.0" cy="130.8" r="2.3" fill="#b9bdca" opacity="0.5"/><circle cx="272.6" cy="133.2" r="2.3" fill="#b9bdca" opacity="0.5"/><circle cx="278.9" cy="130.9" r="2.3" fill="#b9bdca" opacity="0.5"/><circle cx="279.6" cy="130.9" r="2.3" fill="#b9bdca" opacity="0.5"/><circle cx="279.6" cy="133.8" r="2.3" fill="#b9bdca" opacity="0.5"/><circle cx="280.6" cy="130.4" r="2.3" fill="#b9bdca" opacity="0.5"/><circle cx="281.3" cy="153.7" r="2.3" fill="#b9bdca" opacity="0.5"/><circle cx="282.4" cy="133.3" r="2.3" fill="#b9bdca" opacity="0.5"/><circle cx="284.4" cy="156.5" r="2.3" fill="#b9bdca" opacity="0.5"/><circle cx="284.7" cy="132.3" r="2.3" fill="#b9bdca" opacity="0.5"/><circle cx="287.0" cy="147.2" r="2.3" fill="#b9bdca" opacity="0.5"/><circle cx="287.4" cy="133.6" r="2.3" fill="#b9bdca" opacity="0.5"/><circle cx="288.2" cy="129.5" r="2.3" fill="#b9bdca" opacity="0.5"/><circle cx="288.2" cy="133.3" r="2.3" fill="#b9bdca" opacity="0.5"/><circle cx="291.0" cy="133.3" r="2.3" fill="#b9bdca" opacity="0.5"/><circle cx="292.8" cy="129.5" r="2.3" fill="#b9bdca" opacity="0.5"/><circle cx="296.0" cy="130.6" r="2.3" fill="#b9bdca" opacity="0.5"/><circle cx="298.3" cy="128.9" r="2.3" fill="#b9bdca" opacity="0.5"/><circle cx="298.8" cy="132.7" r="2.3" fill="#b9bdca" opacity="0.5"/><circle cx="298.8" cy="133.1" r="2.3" fill="#b9bdca" opacity="0.5"/><circle cx="302.3" cy="129.8" r="2.3" fill="#b9bdca" opacity="0.5"/><circle cx="303.3" cy="333.8" r="2.3" fill="#b9bdca" opacity="0.5"/><circle cx="303.6" cy="128.4" r="2.3" fill="#b9bdca" opacity="0.5"/><circle cx="305.2" cy="129.8" r="2.3" fill="#b9bdca" opacity="0.5"/><circle cx="305.8" cy="128.9" r="2.3" fill="#b9bdca" opacity="0.5"/><circle cx="306.0" cy="128.9" r="2.3" fill="#b9bdca" opacity="0.5"/><circle cx="307.2" cy="128.2" r="2.3" fill="#b9bdca" opacity="0.5"/><circle cx="308.1" cy="129.7" r="2.3" fill="#b9bdca" opacity="0.5"/><circle cx="308.4" cy="142.3" r="2.3" fill="#b9bdca" opacity="0.5"/><circle cx="311.7" cy="128.8" r="2.3" fill="#b9bdca" opacity="0.5"/><circle cx="313.7" cy="161.1" r="2.3" fill="#b9bdca" opacity="0.5"/><circle cx="317.4" cy="164.4" r="2.3" fill="#b9bdca" opacity="0.5"/><circle cx="317.8" cy="248.3" r="2.3" fill="#b9bdca" opacity="0.5"/><circle cx="323.2" cy="135.4" r="2.3" fill="#b9bdca" opacity="0.5"/><circle cx="323.7" cy="128.0" r="2.3" fill="#b9bdca" opacity="0.5"/><circle cx="325.3" cy="229.0" r="2.3" fill="#b9bdca" opacity="0.5"/><circle cx="329.1" cy="128.1" r="2.3" fill="#b9bdca" opacity="0.5"/><circle cx="330.1" cy="128.6" r="2.3" fill="#b9bdca" opacity="0.5"/><circle cx="333.6" cy="128.8" r="2.3" fill="#b9bdca" opacity="0.5"/><circle cx="333.6" cy="129.6" r="2.3" fill="#b9bdca" opacity="0.5"/><circle cx="333.6" cy="130.9" r="2.3" fill="#b9bdca" opacity="0.5"/><circle cx="340.9" cy="112.8" r="2.3" fill="#b9bdca" opacity="0.5"/><circle cx="344.8" cy="110.2" r="2.3" fill="#b9bdca" opacity="0.5"/><circle cx="344.9" cy="111.6" r="2.3" fill="#b9bdca" opacity="0.5"/><circle cx="347.3" cy="111.0" r="2.3" fill="#b9bdca" opacity="0.5"/><circle cx="348.5" cy="335.1" r="2.3" fill="#b9bdca" opacity="0.5"/><circle cx="349.1" cy="111.6" r="2.3" fill="#b9bdca" opacity="0.5"/><circle cx="351.5" cy="105.5" r="2.3" fill="#b9bdca" opacity="0.5"/><circle cx="351.9" cy="108.5" r="2.3" fill="#b9bdca" opacity="0.5"/><circle cx="352.9" cy="105.1" r="2.3" fill="#b9bdca" opacity="0.5"/><circle cx="354.0" cy="103.8" r="2.3" fill="#b9bdca" opacity="0.5"/><circle cx="355.3" cy="125.8" r="2.3" fill="#b9bdca" opacity="0.5"/><circle cx="365.9" cy="103.5" r="2.3" fill="#b9bdca" opacity="0.5"/><circle cx="368.6" cy="127.8" r="2.3" fill="#b9bdca" opacity="0.5"/><circle cx="369.8" cy="334.3" r="2.3" fill="#b9bdca" opacity="0.5"/><circle cx="371.5" cy="128.6" r="2.3" fill="#b9bdca" opacity="0.5"/><circle cx="372.2" cy="128.6" r="2.3" fill="#b9bdca" opacity="0.5"/><circle cx="372.4" cy="128.6" r="2.3" fill="#b9bdca" opacity="0.5"/><circle cx="373.4" cy="256.6" r="2.3" fill="#b9bdca" opacity="0.5"/><circle cx="374.6" cy="254.6" r="2.3" fill="#b9bdca" opacity="0.5"/><circle cx="376.5" cy="128.6" r="2.3" fill="#b9bdca" opacity="0.5"/><circle cx="381.4" cy="250.1" r="2.3" fill="#b9bdca" opacity="0.5"/><circle cx="381.8" cy="161.4" r="2.3" fill="#b9bdca" opacity="0.5"/><circle cx="382.3" cy="206.6" r="2.3" fill="#b9bdca" opacity="0.5"/><circle cx="386.9" cy="113.5" r="2.3" fill="#b9bdca" opacity="0.5"/><circle cx="388.3" cy="89.6" r="2.3" fill="#b9bdca" opacity="0.5"/><circle cx="389.5" cy="90.2" r="2.3" fill="#b9bdca" opacity="0.5"/><circle cx="392.3" cy="89.3" r="2.3" fill="#b9bdca" opacity="0.5"/><circle cx="393.0" cy="87.6" r="2.3" fill="#b9bdca" opacity="0.5"/><circle cx="394.0" cy="185.0" r="2.3" fill="#b9bdca" opacity="0.5"/><circle cx="395.0" cy="131.6" r="2.3" fill="#b9bdca" opacity="0.5"/><circle cx="395.8" cy="87.8" r="2.3" fill="#b9bdca" opacity="0.5"/><circle cx="397.0" cy="85.4" r="2.3" fill="#b9bdca" opacity="0.5"/><circle cx="399.0" cy="86.8" r="2.3" fill="#b9bdca" opacity="0.5"/><circle cx="401.1" cy="88.4" r="2.3" fill="#b9bdca" opacity="0.5"/><circle cx="409.5" cy="89.5" r="2.3" fill="#b9bdca" opacity="0.5"/><circle cx="409.5" cy="155.6" r="2.3" fill="#b9bdca" opacity="0.5"/><circle cx="409.6" cy="84.4" r="2.3" fill="#b9bdca" opacity="0.5"/><circle cx="419.6" cy="89.2" r="2.3" fill="#b9bdca" opacity="0.5"/><circle cx="419.8" cy="90.5" r="2.3" fill="#b9bdca" opacity="0.5"/><circle cx="422.6" cy="87.7" r="2.3" fill="#b9bdca" opacity="0.5"/><circle cx="423.6" cy="367.9" r="2.3" fill="#b9bdca" opacity="0.5"/><circle cx="427.7" cy="164.3" r="2.3" fill="#b9bdca" opacity="0.5"/><circle cx="429.7" cy="94.6" r="2.3" fill="#b9bdca" opacity="0.5"/><circle cx="430.5" cy="89.6" r="2.3" fill="#b9bdca" opacity="0.5"/><circle cx="439.1" cy="124.6" r="2.3" fill="#b9bdca" opacity="0.5"/><circle cx="448.4" cy="146.2" r="2.3" fill="#b9bdca" opacity="0.5"/><circle cx="448.6" cy="90.5" r="2.3" fill="#b9bdca" opacity="0.5"/><circle cx="449.5" cy="87.7" r="2.3" fill="#b9bdca" opacity="0.5"/><circle cx="449.9" cy="87.7" r="2.3" fill="#b9bdca" opacity="0.5"/><circle cx="450.0" cy="89.6" r="2.3" fill="#b9bdca" opacity="0.5"/><circle cx="456.5" cy="93.0" r="2.3" fill="#b9bdca" opacity="0.5"/><circle cx="458.9" cy="85.5" r="2.3" fill="#b9bdca" opacity="0.5"/><circle cx="478.3" cy="334.8" r="2.3" fill="#b9bdca" opacity="0.5"/><circle cx="480.5" cy="86.3" r="2.3" fill="#b9bdca" opacity="0.5"/><circle cx="487.1" cy="85.5" r="2.3" fill="#b9bdca" opacity="0.5"/><circle cx="488.2" cy="84.6" r="2.3" fill="#b9bdca" opacity="0.5"/><circle cx="491.0" cy="87.8" r="2.3" fill="#b9bdca" opacity="0.5"/><circle cx="492.1" cy="84.4" r="2.3" fill="#b9bdca" opacity="0.5"/><circle cx="492.7" cy="84.8" r="2.3" fill="#b9bdca" opacity="0.5"/><circle cx="494.6" cy="87.4" r="2.3" fill="#b9bdca" opacity="0.5"/><circle cx="505.1" cy="84.4" r="2.3" fill="#b9bdca" opacity="0.5"/><circle cx="550.9" cy="89.3" r="2.3" fill="#b9bdca" opacity="0.5"/><circle cx="559.1" cy="88.6" r="2.3" fill="#b9bdca" opacity="0.5"/><circle cx="559.1" cy="92.1" r="2.3" fill="#b9bdca" opacity="0.5"/><circle cx="560.9" cy="156.8" r="2.3" fill="#b9bdca" opacity="0.5"/><circle cx="587.3" cy="201.6" r="2.3" fill="#b9bdca" opacity="0.5"/><circle cx="606.6" cy="315.6" r="2.3" fill="#b9bdca" opacity="0.5"/><circle cx="659.4" cy="87.7" r="2.3" fill="#b9bdca" opacity="0.5"/><circle cx="675.3" cy="87.6" r="2.3" fill="#b9bdca" opacity="0.5"/><circle cx="689.5" cy="87.2" r="2.3" fill="#b9bdca" opacity="0.5"/><circle cx="692.7" cy="88.8" r="2.3" fill="#b9bdca" opacity="0.5"/><circle cx="694.0" cy="89.2" r="2.3" fill="#b9bdca" opacity="0.5"/><circle cx="694.7" cy="90.9" r="2.3" fill="#b9bdca" opacity="0.5"/><circle cx="698.8" cy="87.7" r="2.3" fill="#b9bdca" opacity="0.5"/><circle cx="713.0" cy="88.6" r="2.3" fill="#b9bdca" opacity="0.5"/><circle cx="714.9" cy="89.7" r="2.3" fill="#b9bdca" opacity="0.5"/><circle cx="716.1" cy="88.2" r="2.3" fill="#b9bdca" opacity="0.5"/><circle cx="742.8" cy="75.8" r="2.3" fill="#b9bdca" opacity="0.5"/><circle cx="744.9" cy="75.7" r="2.3" fill="#b9bdca" opacity="0.5"/><circle cx="746.5" cy="76.7" r="2.3" fill="#b9bdca" opacity="0.5"/><circle cx="746.6" cy="75.8" r="2.3" fill="#b9bdca" opacity="0.5"/><circle cx="747.4" cy="75.3" r="2.3" fill="#b9bdca" opacity="0.5"/><circle cx="747.8" cy="74.7" r="2.3" fill="#b9bdca" opacity="0.5"/><circle cx="748.1" cy="83.4" r="2.3" fill="#b9bdca" opacity="0.5"/><circle cx="748.7" cy="76.2" r="2.3" fill="#b9bdca" opacity="0.5"/><circle cx="749.4" cy="78.1" r="2.3" fill="#b9bdca" opacity="0.5"/><circle cx="750.0" cy="74.7" r="2.3" fill="#b9bdca" opacity="0.5"/><circle cx="754.4" cy="89.3" r="2.3" fill="#b9bdca" opacity="0.5"/><circle cx="763.4" cy="74.4" r="2.3" fill="#b9bdca" opacity="0.5"/><circle cx="777.6" cy="74.4" r="2.3" fill="#b9bdca" opacity="0.5"/><circle cx="779.9" cy="335.1" r="2.3" fill="#b9bdca" opacity="0.5"/><circle cx="779.9" cy="81.7" r="2.3" fill="#b9bdca" opacity="0.5"/><circle cx="781.6" cy="74.6" r="2.3" fill="#b9bdca" opacity="0.5"/><circle cx="781.6" cy="82.1" r="2.3" fill="#b9bdca" opacity="0.5"/><circle cx="781.7" cy="73.9" r="2.3" fill="#b9bdca" opacity="0.5"/><circle cx="785.7" cy="76.2" r="2.3" fill="#b9bdca" opacity="0.5"/><circle cx="786.3" cy="82.1" r="2.3" fill="#b9bdca" opacity="0.5"/><circle cx="786.9" cy="74.2" r="2.3" fill="#b9bdca" opacity="0.5"/><circle cx="787.0" cy="75.0" r="2.3" fill="#b9bdca" opacity="0.5"/><circle cx="787.8" cy="73.6" r="2.3" fill="#b9bdca" opacity="0.5"/><circle cx="787.9" cy="83.3" r="2.3" fill="#b9bdca" opacity="0.5"/><circle cx="787.9" cy="83.8" r="2.3" fill="#b9bdca" opacity="0.5"/><circle cx="787.9" cy="78.1" r="2.3" fill="#b9bdca" opacity="0.5"/><circle cx="787.9" cy="81.5" r="2.3" fill="#b9bdca" opacity="0.5"/><circle cx="787.9" cy="83.0" r="2.3" fill="#b9bdca" opacity="0.5"/><circle cx="787.9" cy="83.7" r="2.3" fill="#b9bdca" opacity="0.5"/><circle cx="793.5" cy="82.7" r="2.3" fill="#b9bdca" opacity="0.5"/><circle cx="794.8" cy="77.8" r="2.3" fill="#b9bdca" opacity="0.5"/><circle cx="797.7" cy="69.8" r="2.3" fill="#b9bdca" opacity="0.5"/><circle cx="798.7" cy="75.9" r="2.3" fill="#b9bdca" opacity="0.5"/><circle cx="799.1" cy="74.3" r="2.3" fill="#b9bdca" opacity="0.5"/><circle cx="799.1" cy="77.4" r="2.3" fill="#b9bdca" opacity="0.5"/><circle cx="799.1" cy="80.6" r="2.3" fill="#b9bdca" opacity="0.5"/><circle cx="799.1" cy="81.8" r="2.3" fill="#b9bdca" opacity="0.5"/><circle cx="801.1" cy="76.9" r="2.3" fill="#b9bdca" opacity="0.5"/><circle cx="801.1" cy="82.8" r="2.3" fill="#b9bdca" opacity="0.5"/><circle cx="801.1" cy="83.0" r="2.3" fill="#b9bdca" opacity="0.5"/><circle cx="801.1" cy="83.1" r="2.3" fill="#b9bdca" opacity="0.5"/><circle cx="802.0" cy="69.1" r="2.3" fill="#b9bdca" opacity="0.5"/><circle cx="804.4" cy="75.5" r="2.3" fill="#b9bdca" opacity="0.5"/><circle cx="805.6" cy="74.3" r="2.3" fill="#b9bdca" opacity="0.5"/><circle cx="841.6" cy="74.0" r="2.3" fill="#b9bdca" opacity="0.5"/><circle cx="884.2" cy="73.4" r="2.3" fill="#b9bdca" opacity="0.5"/><circle cx="884.6" cy="75.9" r="2.3" fill="#b9bdca" opacity="0.5"/><circle cx="884.6" cy="76.3" r="2.3" fill="#b9bdca" opacity="0.5"/><circle cx="885.0" cy="76.0" r="2.3" fill="#b9bdca" opacity="0.5"/><circle cx="885.0" cy="76.8" r="2.3" fill="#b9bdca" opacity="0.5"/><circle cx="885.0" cy="81.2" r="2.3" fill="#b9bdca" opacity="0.5"/><circle cx="885.0" cy="83.4" r="2.3" fill="#b9bdca" opacity="0.5"/><circle cx="915.1" cy="76.6" r="2.3" fill="#b9bdca" opacity="0.5"/><circle cx="917.2" cy="76.7" r="2.3" fill="#b9bdca" opacity="0.5"/><circle cx="917.2" cy="82.8" r="2.3" fill="#b9bdca" opacity="0.5"/><circle cx="917.2" cy="82.8" r="2.3" fill="#b9bdca" opacity="0.5"/><circle cx="917.2" cy="83.3" r="2.3" fill="#b9bdca" opacity="0.5"/><circle cx="923.5" cy="233.4" r="2.3" fill="#b9bdca" opacity="0.5"/><circle cx="925.3" cy="228.9" r="2.3" fill="#b9bdca" opacity="0.5"/><circle cx="927.2" cy="198.3" r="2.3" fill="#b9bdca" opacity="0.5"/><circle cx="966.4" cy="73.4" r="2.3" fill="#b9bdca" opacity="0.5"/><circle cx="977.4" cy="192.4" r="2.3" fill="#b9bdca" opacity="0.5"/><circle cx="981.3" cy="75.3" r="2.3" fill="#b9bdca" opacity="0.5"/><circle cx="982.3" cy="74.0" r="2.3" fill="#b9bdca" opacity="0.5"/><circle cx="984.7" cy="194.4" r="2.3" fill="#b9bdca" opacity="0.5"/><circle cx="988.6" cy="168.6" r="2.3" fill="#b9bdca" opacity="0.5"/><circle cx="990.9" cy="77.1" r="2.3" fill="#b9bdca" opacity="0.5"/><circle cx="990.9" cy="99.5" r="2.3" fill="#b9bdca" opacity="0.5"/><circle cx="1021.2" cy="71.4" r="2.3" fill="#b9bdca" opacity="0.5"/><circle cx="1021.2" cy="73.5" r="2.3" fill="#b9bdca" opacity="0.5"/><circle cx="1032.0" cy="72.4" r="2.3" fill="#b9bdca" opacity="0.5"/><path d="M241.0 152.3L244.6 155.9L241.0 159.5L237.4 155.9Z" fill="#2b3a7a" opacity="0.8" stroke="none" stroke-width="0"/><path d="M252.7 138.2L256.3 141.8L252.7 145.4L249.1 141.8Z" fill="#2b3a7a" opacity="0.8" stroke="none" stroke-width="0"/><path d="M254.2 128.1L257.8 131.7L254.2 135.3L250.6 131.7Z" fill="#2b3a7a" opacity="0.8" stroke="none" stroke-width="0"/><path d="M254.4 130.5L258.0 134.1L254.4 137.7L250.8 134.1Z" fill="#2b3a7a" opacity="0.8" stroke="none" stroke-width="0"/><path d="M255.7 127.3L259.3 130.9L255.7 134.5L252.1 130.9Z" fill="#2b3a7a" opacity="0.8" stroke="none" stroke-width="0"/><path d="M256.3 125.9L259.9 129.5L256.3 133.1L252.7 129.5Z" fill="#2b3a7a" opacity="0.8" stroke="none" stroke-width="0"/><path d="M256.3 127.3L259.9 130.9L256.3 134.5L252.7 130.9Z" fill="#2b3a7a" opacity="0.8" stroke="none" stroke-width="0"/><path d="M292.8 125.9L296.4 129.5L292.8 133.1L289.2 129.5Z" fill="#2b3a7a" opacity="0.8" stroke="none" stroke-width="0"/><path d="M298.3 125.3L301.9 128.9L298.3 132.5L294.7 128.9Z" fill="#2b3a7a" opacity="0.8" stroke="none" stroke-width="0"/><path d="M303.6 124.8L307.2 128.4L303.6 132.0L300.0 128.4Z" fill="#2b3a7a" opacity="0.8" stroke="none" stroke-width="0"/><path d="M307.2 124.6L310.8 128.2L307.2 131.8L303.6 128.2Z" fill="#2b3a7a" opacity="0.8" stroke="none" stroke-width="0"/><path d="M323.7 124.4L327.3 128.0L323.7 131.6L320.1 128.0Z" fill="#2b3a7a" opacity="0.8" stroke="none" stroke-width="0"/><path d="M340.9 109.2L344.5 112.8L340.9 116.4L337.3 112.8Z" fill="#2b3a7a" opacity="0.8" stroke="none" stroke-width="0"/><path d="M349.1 108.0L352.7 111.6L349.1 115.2L345.5 111.6Z" fill="#2b3a7a" opacity="0.8" stroke="none" stroke-width="0"/><path d="M351.5 101.9L355.1 105.5L351.5 109.1L347.9 105.5Z" fill="#2b3a7a" opacity="0.8" stroke="none" stroke-width="0"/><path d="M351.9 104.9L355.5 108.5L351.9 112.1L348.3 108.5Z" fill="#2b3a7a" opacity="0.8" stroke="none" stroke-width="0"/><path d="M352.9 101.5L356.5 105.1L352.9 108.7L349.3 105.1Z" fill="#2b3a7a" opacity="0.8" stroke="none" stroke-width="0"/><path d="M354.0 100.2L357.6 103.8L354.0 107.4L350.4 103.8Z" fill="#2b3a7a" opacity="0.8" stroke="none" stroke-width="0"/><path d="M365.9 99.9L369.5 103.5L365.9 107.1L362.3 103.5Z" fill="#2b3a7a" opacity="0.8" stroke="none" stroke-width="0"/><path d="M388.3 86.0L391.9 89.6L388.3 93.2L384.7 89.6Z" fill="#2b3a7a" opacity="0.8" stroke="none" stroke-width="0"/><path d="M392.3 85.7L395.9 89.3L392.3 92.9L388.7 89.3Z" fill="#2b3a7a" opacity="0.8" stroke="none" stroke-width="0"/><path d="M393.0 84.0L396.6 87.6L393.0 91.2L389.4 87.6Z" fill="#2b3a7a" opacity="0.8" stroke="none" stroke-width="0"/><path d="M397.0 81.8L400.6 85.4L397.0 89.0L393.4 85.4Z" fill="#2b3a7a" opacity="0.8" stroke="none" stroke-width="0"/><path d="M409.6 80.8L413.2 84.4L409.6 88.0L406.0 84.4Z" fill="#2b3a7a" opacity="0.8" stroke="none" stroke-width="0"/><path d="M505.1 80.8L508.7 84.4L505.1 88.0L501.5 84.4Z" fill="#2b3a7a" opacity="0.8" stroke="none" stroke-width="0"/><path d="M742.8 72.2L746.4 75.8L742.8 79.4L739.2 75.8Z" fill="#2b3a7a" opacity="0.8" stroke="none" stroke-width="0"/><path d="M744.9 72.1L748.5 75.7L744.9 79.3L741.3 75.7Z" fill="#2b3a7a" opacity="0.8" stroke="none" stroke-width="0"/><path d="M747.4 71.7L751.0 75.3L747.4 78.9L743.8 75.3Z" fill="#2b3a7a" opacity="0.8" stroke="none" stroke-width="0"/><path d="M747.8 71.1L751.4 74.7L747.8 78.3L744.2 74.7Z" fill="#2b3a7a" opacity="0.8" stroke="none" stroke-width="0"/><path d="M750.0 71.1L753.6 74.7L750.0 78.3L746.4 74.7Z" fill="#2b3a7a" opacity="0.8" stroke="none" stroke-width="0"/><path d="M763.4 70.8L767.0 74.4L763.4 78.0L759.8 74.4Z" fill="#2b3a7a" opacity="0.8" stroke="none" stroke-width="0"/><path d="M781.7 70.3L785.3 73.9L781.7 77.5L778.1 73.9Z" fill="#2b3a7a" opacity="0.8" stroke="none" stroke-width="0"/><path d="M787.8 70.0L791.4 73.6L787.8 77.2L784.2 73.6Z" fill="#2b3a7a" opacity="0.8" stroke="none" stroke-width="0"/><path d="M884.2 69.8L887.8 73.4L884.2 77.0L880.6 73.4Z" fill="#2b3a7a" opacity="0.8" stroke="none" stroke-width="0"/><path d="M966.4 69.8L970.0 73.4L966.4 77.0L962.8 73.4Z" fill="#2b3a7a" opacity="0.8" stroke="none" stroke-width="0"/><path d="M1021.2 67.8L1024.8 71.4L1021.2 75.0L1017.6 71.4Z" fill="#2b3a7a" opacity="0.8" stroke="none" stroke-width="0"/><path d="M60.0 335.3L62.9 335.3L62.9 335.1L67.1 335.1L67.1 320.7L75.3 320.7L75.3 319.9L78.3 319.9L78.3 315.3L79.1 315.3L79.1 314.9L80.4 314.9L80.4 314.9L129.3 314.9L129.3 238.7L130.1 238.7L130.1 229.0L130.8 229.0L130.8 222.3L131.8 222.3L131.8 220.6L132.0 220.6L132.0 220.5L132.5 220.5L132.5 214.2L134.4 214.2L134.4 214.1L134.9 214.1L134.9 213.7L135.3 213.7L135.3 213.5L135.9 213.5L135.9 212.7L138.3 212.7L138.3 212.1L138.9 212.1L138.9 212.0L145.4 212.0L145.4 206.7L152.7 206.7L152.7 204.9L155.4 204.9L155.4 204.6L157.2 204.6L157.2 201.9L160.5 201.9L160.5 201.8L162.1 201.8L162.1 201.0L163.1 201.0L163.1 200.0L167.8 200.0L167.8 200.0L169.7 200.0L169.7 199.7L185.7 199.7L185.7 195.5L197.6 195.5L197.6 187.4L198.0 187.4L198.0 186.2L198.8 186.2L198.8 184.5L219.6 184.5L219.6 183.9L229.9 183.9L229.9 169.3L233.4 169.3L233.4 168.8L233.6 168.8L233.6 167.7L235.6 167.7L235.6 165.0L236.4 165.0L236.4 163.7L236.6 163.7L236.6 163.6L241.0 163.6L241.0 155.9L246.4 155.9L246.4 155.8L248.4 155.8L248.4 141.9L252.7 141.9L252.7 141.8L254.2 141.8L254.2 131.7L255.7 131.7L255.7 130.9L256.3 130.9L256.3 129.5L292.8 129.5L292.8 129.5L298.3 129.5L298.3 128.9L303.6 128.9L303.6 128.4L307.2 128.4L307.2 128.2L323.7 128.2L323.7 128.0L340.9 128.0L340.9 112.8L344.8 112.8L344.8 110.2L351.5 110.2L351.5 105.5L352.9 105.5L352.9 105.1L354.0 105.1L354.0 103.8L365.9 103.8L365.9 103.5L388.3 103.5L388.3 89.6L392.3 89.6L392.3 89.3L393.0 89.3L393.0 87.6L397.0 87.6L397.0 85.4L409.6 85.4L409.6 84.4L505.1 84.4L505.1 84.4L742.8 84.4L742.8 75.8L744.9 75.8L744.9 75.7L747.4 75.7L747.4 75.3L747.8 75.3L747.8 74.7L750.0 74.7L750.0 74.7L763.4 74.7L763.4 74.4L781.7 74.4L781.7 73.9L787.8 73.9L787.8 73.6L797.7 73.6L797.7 69.8L802.0 69.8L802.0 69.1L1032.0 69.1" fill="none" stroke="#6675b0" stroke-width="1.6" stroke-dasharray="5 3" opacity="0.75"/><path d="M241.0 155.9L252.7 155.9L252.7 141.8L254.2 141.8L254.2 131.7L255.7 131.7L255.7 130.9L256.3 130.9L256.3 129.5L292.8 129.5L292.8 129.5L298.3 129.5L298.3 128.9L303.6 128.9L303.6 128.4L307.2 128.4L307.2 128.2L323.7 128.2L323.7 128.0L340.9 128.0L340.9 112.8L349.1 112.8L349.1 111.6L351.5 111.6L351.5 105.5L352.9 105.5L352.9 105.1L354.0 105.1L354.0 103.8L365.9 103.8L365.9 103.5L388.3 103.5L388.3 89.6L392.3 89.6L392.3 89.3L393.0 89.3L393.0 87.6L397.0 87.6L397.0 85.4L409.6 85.4L409.6 84.4L505.1 84.4L505.1 84.4L742.8 84.4L742.8 75.8L744.9 75.8L744.9 75.7L747.4 75.7L747.4 75.3L747.8 75.3L747.8 74.7L750.0 74.7L750.0 74.7L763.4 74.7L763.4 74.4L781.7 74.4L781.7 73.9L787.8 73.9L787.8 73.6L797.8 73.6L797.8 73.5L884.2 73.5L884.2 73.4L966.4 73.4L966.4 73.4L1021.2 73.4L1021.2 71.4L1032.0 71.4" fill="none" stroke="#2b3a7a" stroke-width="2.6"/><path d="M665.7 246.9L672.2 253.4L665.7 259.9L659.2 253.4Z" fill="#c5961a" opacity="1.0" stroke="#ffffff" stroke-width="1.4"/><path d="M784.1 206.5L790.6 213.0L784.1 219.5L777.6 213.0Z" fill="#c5961a" opacity="1.0" stroke="#ffffff" stroke-width="1.4"/><path d="M797.8 67.0L804.3 73.5L797.8 80.0L791.3 73.5Z" fill="#c5961a" opacity="1.0" stroke="#ffffff" stroke-width="1.4"/><path d="M899.1 240.8L905.6 247.3L899.1 253.8L892.6 247.3Z" fill="#c5961a" opacity="1.0" stroke="#ffffff" stroke-width="1.4"/><path d="M899.9 238.0L906.4 244.5L899.9 251.0L893.4 244.5Z" fill="#c5961a" opacity="1.0" stroke="#ffffff" stroke-width="1.4"/><text x="1042" y="67.1" font-size="11.5" fill="#6675b0">– – raw best 513.8</text><text x="1042" y="81.1" font-size="10" fill="#8a8fa3">unverified (pending)</text><path d="M1021.2 64.9L1027.7 71.4L1021.2 77.9L1014.7 71.4Z" fill="#2b3a7a" opacity="1.0" stroke="#ffffff" stroke-width="1.4"/><text x="1042" y="99.4" font-size="12.5" fill="#2b3a7a" font-weight="bold">◆ verified 510.1</text><text x="1042" y="115.4" font-size="10.5" fill="#3a3f55">top verified</text><text x="60" y="24" font-size="13" font-weight="bold" fill="#3a3f55" letter-spacing="1.2">SCORE EVOLUTION — gemma-challenge (tok/s)</text><circle cx="452" cy="20" r="3" fill="#b9bdca"/><text x="460" y="24" font-size="10.5" fill="#8a8fa3">all results</text><path d="M544.0 16.4L547.6 20.0L544.0 23.6L540.4 20.0Z" fill="#2b3a7a" opacity="1.0" stroke="none" stroke-width="0"/><text x="552" y="24" font-size="10.5" fill="#8a8fa3">verified</text><path d="M620.0 15.5L624.5 20.0L620.0 24.5L615.5 20.0Z" fill="#c5961a" opacity="1.0" stroke="#fff" stroke-width="1"/><text x="629" y="24" font-size="10.5" fill="#8a8fa3">mikasa-inbound (us)</text></svg>