<svg viewBox="0 0 1200 440" xmlns="http://www.w3.org/2000/svg" font-family="ui-sans-serif,system-ui,-apple-system,sans-serif"><rect x="0" y="0" width="1200" height="440" fill="#ffffff"/><rect x="60" y="46" width="972" height="350" fill="#f3f4fb"/><line x1="60" y1="396.0" x2="1032" y2="396.0" stroke="#e3e5ef" stroke-width="1"/><text x="52" y="400.0" text-anchor="end" font-size="11" fill="#8a8fa3">0</text><line x1="60" y1="332.4" x2="1032" y2="332.4" stroke="#e3e5ef" stroke-width="1"/><text x="52" y="336.4" text-anchor="end" font-size="11" fill="#8a8fa3">100</text><line x1="60" y1="268.7" x2="1032" y2="268.7" stroke="#e3e5ef" stroke-width="1"/><text x="52" y="272.7" text-anchor="end" font-size="11" fill="#8a8fa3">200</text><line x1="60" y1="205.1" x2="1032" y2="205.1" stroke="#e3e5ef" stroke-width="1"/><text x="52" y="209.1" text-anchor="end" font-size="11" fill="#8a8fa3">300</text><line x1="60" y1="141.5" x2="1032" y2="141.5" stroke="#e3e5ef" stroke-width="1"/><text x="52" y="145.5" text-anchor="end" font-size="11" fill="#8a8fa3">400</text><line x1="60" y1="77.8" x2="1032" y2="77.8" stroke="#e3e5ef" stroke-width="1"/><text x="52" y="81.8" text-anchor="end" font-size="11" fill="#8a8fa3">500</text><line x1="156.4" y1="46" x2="156.4" y2="396" stroke="#e3e5ef" stroke-width="1"/><text x="156.4" y="414.0" text-anchor="middle" font-size="11" fill="#8a8fa3">Jun 10</text><line x1="293.9" y1="46" x2="293.9" y2="396" stroke="#e3e5ef" stroke-width="1"/><text x="293.9" y="414.0" text-anchor="middle" font-size="11" fill="#8a8fa3">Jun 12</text><line x1="431.4" y1="46" x2="431.4" y2="396" stroke="#e3e5ef" stroke-width="1"/><text x="431.4" y="414.0" text-anchor="middle" font-size="11" fill="#8a8fa3">Jun 14</text><line x1="568.9" y1="46" x2="568.9" y2="396" stroke="#e3e5ef" stroke-width="1"/><text x="568.9" y="414.0" text-anchor="middle" font-size="11" fill="#8a8fa3">Jun 16</text><line x1="706.4" y1="46" x2="706.4" y2="396" stroke="#e3e5ef" stroke-width="1"/><text x="706.4" y="414.0" text-anchor="middle" font-size="11" fill="#8a8fa3">Jun 18</text><line x1="843.9" y1="46" x2="843.9" y2="396" stroke="#e3e5ef" stroke-width="1"/><text x="843.9" y="414.0" text-anchor="middle" font-size="11" fill="#8a8fa3">Jun 20</text><line x1="981.4" y1="46" x2="981.4" y2="396" stroke="#e3e5ef" stroke-width="1"/><text x="981.4" y="414.0" text-anchor="middle" font-size="11" fill="#8a8fa3">Jun 22</text><circle cx="60.0" cy="335.3" r="2.3" fill="#b9bdca" opacity="0.5"/><circle cx="63.3" cy="335.1" r="2.3" fill="#b9bdca" opacity="0.5"/><circle cx="66.6" cy="368.0" r="2.3" fill="#b9bdca" opacity="0.5"/><circle cx="67.9" cy="320.7" r="2.3" fill="#b9bdca" opacity="0.5"/><circle cx="77.1" cy="319.9" r="2.3" fill="#b9bdca" opacity="0.5"/><circle cx="77.6" cy="320.6" r="2.3" fill="#b9bdca" opacity="0.5"/><circle cx="80.5" cy="315.3" r="2.3" fill="#b9bdca" opacity="0.5"/><circle cx="81.2" cy="319.7" r="2.3" fill="#b9bdca" opacity="0.5"/><circle cx="81.4" cy="314.9" r="2.3" fill="#b9bdca" opacity="0.5"/><circle cx="82.5" cy="315.5" r="2.3" fill="#b9bdca" opacity="0.5"/><circle cx="82.9" cy="314.9" r="2.3" fill="#b9bdca" opacity="0.5"/><circle cx="83.8" cy="315.4" r="2.3" fill="#b9bdca" opacity="0.5"/><circle cx="85.5" cy="315.0" r="2.3" fill="#b9bdca" opacity="0.5"/><circle cx="137.6" cy="238.7" r="2.3" fill="#b9bdca" opacity="0.5"/><circle cx="138.1" cy="315.0" r="2.3" fill="#b9bdca" opacity="0.5"/><circle cx="138.5" cy="229.0" r="2.3" fill="#b9bdca" opacity="0.5"/><circle cx="139.4" cy="222.3" r="2.3" fill="#b9bdca" opacity="0.5"/><circle cx="140.2" cy="228.0" r="2.3" fill="#b9bdca" opacity="0.5"/><circle cx="140.4" cy="223.3" r="2.3" fill="#b9bdca" opacity="0.5"/><circle cx="140.5" cy="220.6" r="2.3" fill="#b9bdca" opacity="0.5"/><circle cx="140.7" cy="220.5" r="2.3" fill="#b9bdca" opacity="0.5"/><circle cx="140.9" cy="223.2" r="2.3" fill="#b9bdca" opacity="0.5"/><circle cx="141.3" cy="214.2" r="2.3" fill="#b9bdca" opacity="0.5"/><circle cx="141.4" cy="222.1" r="2.3" fill="#b9bdca" opacity="0.5"/><circle cx="141.8" cy="220.7" r="2.3" fill="#b9bdca" opacity="0.5"/><circle cx="142.4" cy="218.5" r="2.3" fill="#b9bdca" opacity="0.5"/><circle cx="142.6" cy="215.2" r="2.3" fill="#b9bdca" opacity="0.5"/><circle cx="142.9" cy="214.3" r="2.3" fill="#b9bdca" opacity="0.5"/><circle cx="143.0" cy="219.2" r="2.3" fill="#b9bdca" opacity="0.5"/><circle cx="143.4" cy="214.1" r="2.3" fill="#b9bdca" opacity="0.5"/><circle cx="143.7" cy="215.2" r="2.3" fill="#b9bdca" opacity="0.5"/><circle cx="144.0" cy="213.7" r="2.3" fill="#b9bdca" opacity="0.5"/><circle cx="144.4" cy="213.5" r="2.3" fill="#b9bdca" opacity="0.5"/><circle cx="144.8" cy="214.8" r="2.3" fill="#b9bdca" opacity="0.5"/><circle cx="144.8" cy="217.7" r="2.3" fill="#b9bdca" opacity="0.5"/><circle cx="145.0" cy="212.7" r="2.3" fill="#b9bdca" opacity="0.5"/><circle cx="145.8" cy="213.3" r="2.3" fill="#b9bdca" opacity="0.5"/><circle cx="146.8" cy="212.7" r="2.3" fill="#b9bdca" opacity="0.5"/><circle cx="146.8" cy="213.6" r="2.3" fill="#b9bdca" opacity="0.5"/><circle cx="147.1" cy="213.0" r="2.3" fill="#b9bdca" opacity="0.5"/><circle cx="147.7" cy="212.1" r="2.3" fill="#b9bdca" opacity="0.5"/><circle cx="147.9" cy="213.3" r="2.3" fill="#b9bdca" opacity="0.5"/><circle cx="148.4" cy="212.0" r="2.3" fill="#b9bdca" opacity="0.5"/><circle cx="149.4" cy="212.1" r="2.3" fill="#b9bdca" opacity="0.5"/><circle cx="149.4" cy="212.8" r="2.3" fill="#b9bdca" opacity="0.5"/><circle cx="155.7" cy="206.7" r="2.3" fill="#b9bdca" opacity="0.5"/><circle cx="156.6" cy="206.8" r="2.3" fill="#b9bdca" opacity="0.5"/><circle cx="156.6" cy="212.5" r="2.3" fill="#b9bdca" opacity="0.5"/><circle cx="157.1" cy="207.2" r="2.3" fill="#b9bdca" opacity="0.5"/><circle cx="159.1" cy="207.0" r="2.3" fill="#b9bdca" opacity="0.5"/><circle cx="163.9" cy="204.9" r="2.3" fill="#b9bdca" opacity="0.5"/><circle cx="166.9" cy="204.6" r="2.3" fill="#b9bdca" opacity="0.5"/><circle cx="167.2" cy="212.3" r="2.3" fill="#b9bdca" opacity="0.5"/><circle cx="167.8" cy="204.6" r="2.3" fill="#b9bdca" opacity="0.5"/><circle cx="167.8" cy="204.6" r="2.3" fill="#b9bdca" opacity="0.5"/><circle cx="167.8" cy="204.9" r="2.3" fill="#b9bdca" opacity="0.5"/><circle cx="167.8" cy="204.9" r="2.3" fill="#b9bdca" opacity="0.5"/><circle cx="169.0" cy="201.9" r="2.3" fill="#b9bdca" opacity="0.5"/><circle cx="170.9" cy="206.5" r="2.3" fill="#b9bdca" opacity="0.5"/><circle cx="171.6" cy="205.8" r="2.3" fill="#b9bdca" opacity="0.5"/><circle cx="171.6" cy="335.1" r="2.3" fill="#b9bdca" opacity="0.5"/><circle cx="172.6" cy="201.8" r="2.3" fill="#b9bdca" opacity="0.5"/><circle cx="172.7" cy="202.2" r="2.3" fill="#b9bdca" opacity="0.5"/><circle cx="174.4" cy="201.0" r="2.3" fill="#b9bdca" opacity="0.5"/><circle cx="175.2" cy="203.1" r="2.3" fill="#b9bdca" opacity="0.5"/><circle cx="175.5" cy="200.0" r="2.3" fill="#b9bdca" opacity="0.5"/><circle cx="175.6" cy="204.6" r="2.3" fill="#b9bdca" opacity="0.5"/><circle cx="176.7" cy="202.3" r="2.3" fill="#b9bdca" opacity="0.5"/><circle cx="179.0" cy="200.4" r="2.3" fill="#b9bdca" opacity="0.5"/><circle cx="179.9" cy="200.7" r="2.3" fill="#b9bdca" opacity="0.5"/><circle cx="180.8" cy="200.0" r="2.3" fill="#b9bdca" opacity="0.5"/><circle cx="183.0" cy="199.7" r="2.3" fill="#b9bdca" opacity="0.5"/><circle cx="196.1" cy="200.6" r="2.3" fill="#b9bdca" opacity="0.5"/><circle cx="197.3" cy="201.8" r="2.3" fill="#b9bdca" opacity="0.5"/><circle cx="199.0" cy="208.4" r="2.3" fill="#b9bdca" opacity="0.5"/><circle cx="199.1" cy="200.8" r="2.3" fill="#b9bdca" opacity="0.5"/><circle cx="200.4" cy="200.7" r="2.3" fill="#b9bdca" opacity="0.5"/><circle cx="200.4" cy="201.9" r="2.3" fill="#b9bdca" opacity="0.5"/><circle cx="200.9" cy="195.5" r="2.3" fill="#b9bdca" opacity="0.5"/><circle cx="202.1" cy="196.9" r="2.3" fill="#b9bdca" opacity="0.5"/><circle cx="202.7" cy="197.9" r="2.3" fill="#b9bdca" opacity="0.5"/><circle cx="203.9" cy="196.1" r="2.3" fill="#b9bdca" opacity="0.5"/><circle cx="207.9" cy="197.3" r="2.3" fill="#b9bdca" opacity="0.5"/><circle cx="209.0" cy="195.9" r="2.3" fill="#b9bdca" opacity="0.5"/><circle cx="209.4" cy="201.0" r="2.3" fill="#b9bdca" opacity="0.5"/><circle cx="209.7" cy="197.5" r="2.3" fill="#b9bdca" opacity="0.5"/><circle cx="210.6" cy="196.9" r="2.3" fill="#b9bdca" opacity="0.5"/><circle cx="210.7" cy="197.1" r="2.3" fill="#b9bdca" opacity="0.5"/><circle cx="210.8" cy="197.0" r="2.3" fill="#b9bdca" opacity="0.5"/><circle cx="211.7" cy="196.0" r="2.3" fill="#b9bdca" opacity="0.5"/><circle cx="211.7" cy="196.0" r="2.3" fill="#b9bdca" opacity="0.5"/><circle cx="211.8" cy="197.9" r="2.3" fill="#b9bdca" opacity="0.5"/><circle cx="212.5" cy="197.8" r="2.3" fill="#b9bdca" opacity="0.5"/><circle cx="213.0" cy="196.2" r="2.3" fill="#b9bdca" opacity="0.5"/><circle cx="213.1" cy="197.5" r="2.3" fill="#b9bdca" opacity="0.5"/><circle cx="213.3" cy="196.9" r="2.3" fill="#b9bdca" opacity="0.5"/><circle cx="213.4" cy="195.5" r="2.3" fill="#b9bdca" opacity="0.5"/><circle cx="214.2" cy="198.1" r="2.3" fill="#b9bdca" opacity="0.5"/><circle cx="214.3" cy="187.4" r="2.3" fill="#b9bdca" opacity="0.5"/><circle cx="214.6" cy="186.2" r="2.3" fill="#b9bdca" opacity="0.5"/><circle cx="214.6" cy="196.3" r="2.3" fill="#b9bdca" opacity="0.5"/><circle cx="214.6" cy="197.2" r="2.3" fill="#b9bdca" opacity="0.5"/><circle cx="214.6" cy="197.8" r="2.3" fill="#b9bdca" opacity="0.5"/><circle cx="214.6" cy="368.0" r="2.3" fill="#b9bdca" opacity="0.5"/><circle cx="215.6" cy="184.5" r="2.3" fill="#b9bdca" opacity="0.5"/><circle cx="219.1" cy="184.6" r="2.3" fill="#b9bdca" opacity="0.5"/><circle cx="220.6" cy="185.6" r="2.3" fill="#b9bdca" opacity="0.5"/><circle cx="225.8" cy="188.7" r="2.3" fill="#b9bdca" opacity="0.5"/><circle cx="232.7" cy="185.4" r="2.3" fill="#b9bdca" opacity="0.5"/><circle cx="234.3" cy="185.2" r="2.3" fill="#b9bdca" opacity="0.5"/><circle cx="234.8" cy="186.6" r="2.3" fill="#b9bdca" opacity="0.5"/><circle cx="235.0" cy="185.3" r="2.3" fill="#b9bdca" opacity="0.5"/><circle cx="236.2" cy="185.3" r="2.3" fill="#b9bdca" opacity="0.5"/><circle cx="236.8" cy="185.0" r="2.3" fill="#b9bdca" opacity="0.5"/><circle cx="237.9" cy="184.9" r="2.3" fill="#b9bdca" opacity="0.5"/><circle cx="238.8" cy="185.1" r="2.3" fill="#b9bdca" opacity="0.5"/><circle cx="238.8" cy="185.2" r="2.3" fill="#b9bdca" opacity="0.5"/><circle cx="238.8" cy="186.4" r="2.3" fill="#b9bdca" opacity="0.5"/><circle cx="238.9" cy="183.9" r="2.3" fill="#b9bdca" opacity="0.5"/><circle cx="245.3" cy="184.4" r="2.3" fill="#b9bdca" opacity="0.5"/><circle cx="246.4" cy="184.2" r="2.3" fill="#b9bdca" opacity="0.5"/><circle cx="250.5" cy="169.3" r="2.3" fill="#b9bdca" opacity="0.5"/><circle cx="254.3" cy="168.8" r="2.3" fill="#b9bdca" opacity="0.5"/><circle cx="254.6" cy="167.7" r="2.3" fill="#b9bdca" opacity="0.5"/><circle cx="256.3" cy="201.4" r="2.3" fill="#b9bdca" opacity="0.5"/><circle cx="256.8" cy="165.0" r="2.3" fill="#b9bdca" opacity="0.5"/><circle cx="257.1" cy="198.2" r="2.3" fill="#b9bdca" opacity="0.5"/><circle cx="257.7" cy="163.7" r="2.3" fill="#b9bdca" opacity="0.5"/><circle cx="257.9" cy="163.6" r="2.3" fill="#b9bdca" opacity="0.5"/><circle cx="258.6" cy="165.9" r="2.3" fill="#b9bdca" opacity="0.5"/><circle cx="262.1" cy="165.1" r="2.3" fill="#b9bdca" opacity="0.5"/><circle cx="262.8" cy="155.9" r="2.3" fill="#b9bdca" opacity="0.5"/><circle cx="266.2" cy="196.5" r="2.3" fill="#b9bdca" opacity="0.5"/><circle cx="267.6" cy="157.4" r="2.3" fill="#b9bdca" opacity="0.5"/><circle cx="268.9" cy="155.8" r="2.3" fill="#b9bdca" opacity="0.5"/><circle cx="271.1" cy="141.9" r="2.3" fill="#b9bdca" opacity="0.5"/><circle cx="275.7" cy="156.1" r="2.3" fill="#b9bdca" opacity="0.5"/><circle cx="275.7" cy="156.4" r="2.3" fill="#b9bdca" opacity="0.5"/><circle cx="276.0" cy="141.8" r="2.3" fill="#b9bdca" opacity="0.5"/><circle cx="276.1" cy="196.0" r="2.3" fill="#b9bdca" opacity="0.5"/><circle cx="277.7" cy="131.7" r="2.3" fill="#b9bdca" opacity="0.5"/><circle cx="277.9" cy="134.1" r="2.3" fill="#b9bdca" opacity="0.5"/><circle cx="278.4" cy="141.1" r="2.3" fill="#b9bdca" opacity="0.5"/><circle cx="279.2" cy="134.0" r="2.3" fill="#b9bdca" opacity="0.5"/><circle cx="279.3" cy="130.9" r="2.3" fill="#b9bdca" opacity="0.5"/><circle cx="279.3" cy="154.2" r="2.3" fill="#b9bdca" opacity="0.5"/><circle cx="279.7" cy="133.6" r="2.3" fill="#b9bdca" opacity="0.5"/><circle cx="280.0" cy="129.5" r="2.3" fill="#b9bdca" opacity="0.5"/><circle cx="280.1" cy="130.9" r="2.3" fill="#b9bdca" opacity="0.5"/><circle cx="280.1" cy="133.4" r="2.3" fill="#b9bdca" opacity="0.5"/><circle cx="280.4" cy="131.2" r="2.3" fill="#b9bdca" opacity="0.5"/><circle cx="283.3" cy="189.8" r="2.3" fill="#b9bdca" opacity="0.5"/><circle cx="283.4" cy="133.2" r="2.3" fill="#b9bdca" opacity="0.5"/><circle cx="283.8" cy="133.5" r="2.3" fill="#b9bdca" opacity="0.5"/><circle cx="284.9" cy="130.1" r="2.3" fill="#b9bdca" opacity="0.5"/><circle cx="287.7" cy="130.3" r="2.3" fill="#b9bdca" opacity="0.5"/><circle cx="289.0" cy="303.1" r="2.3" fill="#b9bdca" opacity="0.5"/><circle cx="291.3" cy="133.2" r="2.3" fill="#b9bdca" opacity="0.5"/><circle cx="294.3" cy="144.2" r="2.3" fill="#b9bdca" opacity="0.5"/><circle cx="295.0" cy="135.3" r="2.3" fill="#b9bdca" opacity="0.5"/><circle cx="297.0" cy="133.4" r="2.3" fill="#b9bdca" opacity="0.5"/><circle cx="297.2" cy="159.9" r="2.3" fill="#b9bdca" opacity="0.5"/><circle cx="297.6" cy="130.8" r="2.3" fill="#b9bdca" opacity="0.5"/><circle cx="298.3" cy="133.2" r="2.3" fill="#b9bdca" opacity="0.5"/><circle cx="305.3" cy="130.9" r="2.3" fill="#b9bdca" opacity="0.5"/><circle cx="306.1" cy="130.9" r="2.3" fill="#b9bdca" opacity="0.5"/><circle cx="306.1" cy="133.8" r="2.3" fill="#b9bdca" opacity="0.5"/><circle cx="307.3" cy="130.4" r="2.3" fill="#b9bdca" opacity="0.5"/><circle cx="308.0" cy="153.7" r="2.3" fill="#b9bdca" opacity="0.5"/><circle cx="309.3" cy="133.3" r="2.3" fill="#b9bdca" opacity="0.5"/><circle cx="311.5" cy="156.5" r="2.3" fill="#b9bdca" opacity="0.5"/><circle cx="311.9" cy="132.3" r="2.3" fill="#b9bdca" opacity="0.5"/><circle cx="314.4" cy="147.2" r="2.3" fill="#b9bdca" opacity="0.5"/><circle cx="314.9" cy="133.6" r="2.3" fill="#b9bdca" opacity="0.5"/><circle cx="315.8" cy="129.5" r="2.3" fill="#b9bdca" opacity="0.5"/><circle cx="315.8" cy="133.3" r="2.3" fill="#b9bdca" opacity="0.5"/><circle cx="318.9" cy="133.3" r="2.3" fill="#b9bdca" opacity="0.5"/><circle cx="321.0" cy="129.5" r="2.3" fill="#b9bdca" opacity="0.5"/><circle cx="324.5" cy="130.6" r="2.3" fill="#b9bdca" opacity="0.5"/><circle cx="327.1" cy="128.9" r="2.3" fill="#b9bdca" opacity="0.5"/><circle cx="327.7" cy="132.7" r="2.3" fill="#b9bdca" opacity="0.5"/><circle cx="327.7" cy="133.1" r="2.3" fill="#b9bdca" opacity="0.5"/><circle cx="331.6" cy="129.8" r="2.3" fill="#b9bdca" opacity="0.5"/><circle cx="332.7" cy="333.8" r="2.3" fill="#b9bdca" opacity="0.5"/><circle cx="333.0" cy="128.4" r="2.3" fill="#b9bdca" opacity="0.5"/><circle cx="334.8" cy="129.8" r="2.3" fill="#b9bdca" opacity="0.5"/><circle cx="335.5" cy="128.9" r="2.3" fill="#b9bdca" opacity="0.5"/><circle cx="335.7" cy="128.9" r="2.3" fill="#b9bdca" opacity="0.5"/><circle cx="337.1" cy="128.2" r="2.3" fill="#b9bdca" opacity="0.5"/><circle cx="338.1" cy="129.7" r="2.3" fill="#b9bdca" opacity="0.5"/><circle cx="338.4" cy="142.3" r="2.3" fill="#b9bdca" opacity="0.5"/><circle cx="342.1" cy="128.8" r="2.3" fill="#b9bdca" opacity="0.5"/><circle cx="344.3" cy="161.1" r="2.3" fill="#b9bdca" opacity="0.5"/><circle cx="348.5" cy="164.4" r="2.3" fill="#b9bdca" opacity="0.5"/><circle cx="349.0" cy="248.3" r="2.3" fill="#b9bdca" opacity="0.5"/><circle cx="355.0" cy="135.4" r="2.3" fill="#b9bdca" opacity="0.5"/><circle cx="355.5" cy="128.0" r="2.3" fill="#b9bdca" opacity="0.5"/><circle cx="357.4" cy="229.0" r="2.3" fill="#b9bdca" opacity="0.5"/><circle cx="361.6" cy="128.1" r="2.3" fill="#b9bdca" opacity="0.5"/><circle cx="362.7" cy="128.6" r="2.3" fill="#b9bdca" opacity="0.5"/><circle cx="366.6" cy="128.8" r="2.3" fill="#b9bdca" opacity="0.5"/><circle cx="366.6" cy="129.6" r="2.3" fill="#b9bdca" opacity="0.5"/><circle cx="366.6" cy="130.9" r="2.3" fill="#b9bdca" opacity="0.5"/><circle cx="374.9" cy="112.8" r="2.3" fill="#b9bdca" opacity="0.5"/><circle cx="379.2" cy="110.2" r="2.3" fill="#b9bdca" opacity="0.5"/><circle cx="379.3" cy="111.6" r="2.3" fill="#b9bdca" opacity="0.5"/><circle cx="382.0" cy="111.0" r="2.3" fill="#b9bdca" opacity="0.5"/><circle cx="383.3" cy="335.1" r="2.3" fill="#b9bdca" opacity="0.5"/><circle cx="384.0" cy="111.6" r="2.3" fill="#b9bdca" opacity="0.5"/><circle cx="386.7" cy="105.5" r="2.3" fill="#b9bdca" opacity="0.5"/><circle cx="387.2" cy="108.5" r="2.3" fill="#b9bdca" opacity="0.5"/><circle cx="388.3" cy="105.1" r="2.3" fill="#b9bdca" opacity="0.5"/><circle cx="389.5" cy="103.8" r="2.3" fill="#b9bdca" opacity="0.5"/><circle cx="391.0" cy="125.8" r="2.3" fill="#b9bdca" opacity="0.5"/><circle cx="402.9" cy="103.5" r="2.3" fill="#b9bdca" opacity="0.5"/><circle cx="405.9" cy="127.8" r="2.3" fill="#b9bdca" opacity="0.5"/><circle cx="407.3" cy="334.3" r="2.3" fill="#b9bdca" opacity="0.5"/><circle cx="409.1" cy="128.6" r="2.3" fill="#b9bdca" opacity="0.5"/><circle cx="410.0" cy="128.6" r="2.3" fill="#b9bdca" opacity="0.5"/><circle cx="410.2" cy="128.6" r="2.3" fill="#b9bdca" opacity="0.5"/><circle cx="411.2" cy="256.6" r="2.3" fill="#b9bdca" opacity="0.5"/><circle cx="412.6" cy="254.6" r="2.3" fill="#b9bdca" opacity="0.5"/><circle cx="414.8" cy="128.6" r="2.3" fill="#b9bdca" opacity="0.5"/><circle cx="420.2" cy="250.1" r="2.3" fill="#b9bdca" opacity="0.5"/><circle cx="420.7" cy="161.4" r="2.3" fill="#b9bdca" opacity="0.5"/><circle cx="421.3" cy="206.6" r="2.3" fill="#b9bdca" opacity="0.5"/><circle cx="426.4" cy="113.5" r="2.3" fill="#b9bdca" opacity="0.5"/><circle cx="428.0" cy="89.6" r="2.3" fill="#b9bdca" opacity="0.5"/><circle cx="429.3" cy="90.2" r="2.3" fill="#b9bdca" opacity="0.5"/><circle cx="432.4" cy="89.3" r="2.3" fill="#b9bdca" opacity="0.5"/><circle cx="433.3" cy="87.6" r="2.3" fill="#b9bdca" opacity="0.5"/><circle cx="434.3" cy="185.0" r="2.3" fill="#b9bdca" opacity="0.5"/><circle cx="435.5" cy="131.6" r="2.3" fill="#b9bdca" opacity="0.5"/><circle cx="436.3" cy="87.8" r="2.3" fill="#b9bdca" opacity="0.5"/><circle cx="437.8" cy="85.4" r="2.3" fill="#b9bdca" opacity="0.5"/><circle cx="440.0" cy="86.8" r="2.3" fill="#b9bdca" opacity="0.5"/><circle cx="442.3" cy="88.4" r="2.3" fill="#b9bdca" opacity="0.5"/><circle cx="451.8" cy="89.5" r="2.3" fill="#b9bdca" opacity="0.5"/><circle cx="451.8" cy="155.6" r="2.3" fill="#b9bdca" opacity="0.5"/><circle cx="451.8" cy="84.4" r="2.3" fill="#b9bdca" opacity="0.5"/><circle cx="463.1" cy="89.2" r="2.3" fill="#b9bdca" opacity="0.5"/><circle cx="463.3" cy="90.5" r="2.3" fill="#b9bdca" opacity="0.5"/><circle cx="466.5" cy="87.7" r="2.3" fill="#b9bdca" opacity="0.5"/><circle cx="467.5" cy="367.9" r="2.3" fill="#b9bdca" opacity="0.5"/><circle cx="472.1" cy="164.3" r="2.3" fill="#b9bdca" opacity="0.5"/><circle cx="474.3" cy="94.6" r="2.3" fill="#b9bdca" opacity="0.5"/><circle cx="475.2" cy="89.6" r="2.3" fill="#b9bdca" opacity="0.5"/><circle cx="484.9" cy="124.6" r="2.3" fill="#b9bdca" opacity="0.5"/><circle cx="495.3" cy="146.2" r="2.3" fill="#b9bdca" opacity="0.5"/><circle cx="495.6" cy="90.5" r="2.3" fill="#b9bdca" opacity="0.5"/><circle cx="496.5" cy="87.7" r="2.3" fill="#b9bdca" opacity="0.5"/><circle cx="497.1" cy="87.7" r="2.3" fill="#b9bdca" opacity="0.5"/><circle cx="497.1" cy="89.6" r="2.3" fill="#b9bdca" opacity="0.5"/><circle cx="504.5" cy="93.0" r="2.3" fill="#b9bdca" opacity="0.5"/><circle cx="507.1" cy="85.5" r="2.3" fill="#b9bdca" opacity="0.5"/><circle cx="528.9" cy="334.8" r="2.3" fill="#b9bdca" opacity="0.5"/><circle cx="531.3" cy="86.3" r="2.3" fill="#b9bdca" opacity="0.5"/><circle cx="538.7" cy="85.5" r="2.3" fill="#b9bdca" opacity="0.5"/><circle cx="540.0" cy="84.6" r="2.3" fill="#b9bdca" opacity="0.5"/><circle cx="543.0" cy="87.8" r="2.3" fill="#b9bdca" opacity="0.5"/><circle cx="544.3" cy="84.4" r="2.3" fill="#b9bdca" opacity="0.5"/><circle cx="545.0" cy="84.8" r="2.3" fill="#b9bdca" opacity="0.5"/><circle cx="547.1" cy="87.4" r="2.3" fill="#b9bdca" opacity="0.5"/><circle cx="558.8" cy="84.4" r="2.3" fill="#b9bdca" opacity="0.5"/><circle cx="610.2" cy="89.3" r="2.3" fill="#b9bdca" opacity="0.5"/><circle cx="619.4" cy="88.6" r="2.3" fill="#b9bdca" opacity="0.5"/><circle cx="619.4" cy="92.1" r="2.3" fill="#b9bdca" opacity="0.5"/><circle cx="621.4" cy="156.8" r="2.3" fill="#b9bdca" opacity="0.5"/><circle cx="651.0" cy="201.6" r="2.3" fill="#b9bdca" opacity="0.5"/><circle cx="672.6" cy="315.6" r="2.3" fill="#b9bdca" opacity="0.5"/><circle cx="731.8" cy="87.7" r="2.3" fill="#b9bdca" opacity="0.5"/><circle cx="749.7" cy="87.6" r="2.3" fill="#b9bdca" opacity="0.5"/><circle cx="765.6" cy="87.2" r="2.3" fill="#b9bdca" opacity="0.5"/><circle cx="769.2" cy="88.8" r="2.3" fill="#b9bdca" opacity="0.5"/><circle cx="770.6" cy="89.2" r="2.3" fill="#b9bdca" opacity="0.5"/><circle cx="771.4" cy="90.9" r="2.3" fill="#b9bdca" opacity="0.5"/><circle cx="775.9" cy="87.7" r="2.3" fill="#b9bdca" opacity="0.5"/><circle cx="791.9" cy="88.6" r="2.3" fill="#b9bdca" opacity="0.5"/><circle cx="794.0" cy="89.7" r="2.3" fill="#b9bdca" opacity="0.5"/><circle cx="795.4" cy="88.2" r="2.3" fill="#b9bdca" opacity="0.5"/><circle cx="825.4" cy="75.8" r="2.3" fill="#b9bdca" opacity="0.5"/><circle cx="827.7" cy="75.7" r="2.3" fill="#b9bdca" opacity="0.5"/><circle cx="829.4" cy="76.7" r="2.3" fill="#b9bdca" opacity="0.5"/><circle cx="829.6" cy="75.8" r="2.3" fill="#b9bdca" opacity="0.5"/><circle cx="830.5" cy="75.3" r="2.3" fill="#b9bdca" opacity="0.5"/><circle cx="830.9" cy="74.7" r="2.3" fill="#b9bdca" opacity="0.5"/><circle cx="831.2" cy="83.4" r="2.3" fill="#b9bdca" opacity="0.5"/><circle cx="831.9" cy="76.2" r="2.3" fill="#b9bdca" opacity="0.5"/><circle cx="832.7" cy="78.1" r="2.3" fill="#b9bdca" opacity="0.5"/><circle cx="833.4" cy="74.7" r="2.3" fill="#b9bdca" opacity="0.5"/><circle cx="838.3" cy="89.3" r="2.3" fill="#b9bdca" opacity="0.5"/><circle cx="848.4" cy="74.4" r="2.3" fill="#b9bdca" opacity="0.5"/><circle cx="864.3" cy="74.4" r="2.3" fill="#b9bdca" opacity="0.5"/><circle cx="866.8" cy="335.1" r="2.3" fill="#b9bdca" opacity="0.5"/><circle cx="866.9" cy="81.7" r="2.3" fill="#b9bdca" opacity="0.5"/><circle cx="868.8" cy="74.6" r="2.3" fill="#b9bdca" opacity="0.5"/><circle cx="868.8" cy="82.1" r="2.3" fill="#b9bdca" opacity="0.5"/><circle cx="868.9" cy="73.9" r="2.3" fill="#b9bdca" opacity="0.5"/><circle cx="873.4" cy="76.2" r="2.3" fill="#b9bdca" opacity="0.5"/><circle cx="874.1" cy="82.1" r="2.3" fill="#b9bdca" opacity="0.5"/><circle cx="874.8" cy="74.2" r="2.3" fill="#b9bdca" opacity="0.5"/><circle cx="874.8" cy="75.0" r="2.3" fill="#b9bdca" opacity="0.5"/><circle cx="875.8" cy="73.6" r="2.3" fill="#b9bdca" opacity="0.5"/><circle cx="875.8" cy="83.3" r="2.3" fill="#b9bdca" opacity="0.5"/><circle cx="875.8" cy="83.8" r="2.3" fill="#b9bdca" opacity="0.5"/><circle cx="875.9" cy="78.1" r="2.3" fill="#b9bdca" opacity="0.5"/><circle cx="875.9" cy="81.5" r="2.3" fill="#b9bdca" opacity="0.5"/><circle cx="875.9" cy="83.0" r="2.3" fill="#b9bdca" opacity="0.5"/><circle cx="875.9" cy="83.7" r="2.3" fill="#b9bdca" opacity="0.5"/><circle cx="882.2" cy="82.7" r="2.3" fill="#b9bdca" opacity="0.5"/><circle cx="883.6" cy="77.8" r="2.3" fill="#b9bdca" opacity="0.5"/><circle cx="886.9" cy="69.8" r="2.3" fill="#b9bdca" opacity="0.5"/><circle cx="888.0" cy="75.9" r="2.3" fill="#b9bdca" opacity="0.5"/><circle cx="888.4" cy="74.3" r="2.3" fill="#b9bdca" opacity="0.5"/><circle cx="888.4" cy="77.4" r="2.3" fill="#b9bdca" opacity="0.5"/><circle cx="888.4" cy="80.6" r="2.3" fill="#b9bdca" opacity="0.5"/><circle cx="888.4" cy="81.8" r="2.3" fill="#b9bdca" opacity="0.5"/><circle cx="890.7" cy="76.9" r="2.3" fill="#b9bdca" opacity="0.5"/><circle cx="890.7" cy="82.8" r="2.3" fill="#b9bdca" opacity="0.5"/><circle cx="890.7" cy="83.0" r="2.3" fill="#b9bdca" opacity="0.5"/><circle cx="890.7" cy="83.1" r="2.3" fill="#b9bdca" opacity="0.5"/><circle cx="891.7" cy="69.1" r="2.3" fill="#b9bdca" opacity="0.5"/><circle cx="894.3" cy="75.5" r="2.3" fill="#b9bdca" opacity="0.5"/><circle cx="895.7" cy="74.3" r="2.3" fill="#b9bdca" opacity="0.5"/><circle cx="936.0" cy="74.0" r="2.3" fill="#b9bdca" opacity="0.5"/><circle cx="983.8" cy="73.4" r="2.3" fill="#b9bdca" opacity="0.5"/><circle cx="984.3" cy="75.9" r="2.3" fill="#b9bdca" opacity="0.5"/><circle cx="984.3" cy="76.3" r="2.3" fill="#b9bdca" opacity="0.5"/><circle cx="984.6" cy="76.0" r="2.3" fill="#b9bdca" opacity="0.5"/><circle cx="984.6" cy="76.8" r="2.3" fill="#b9bdca" opacity="0.5"/><circle cx="984.6" cy="81.2" r="2.3" fill="#b9bdca" opacity="0.5"/><circle cx="984.6" cy="83.4" r="2.3" fill="#b9bdca" opacity="0.5"/><circle cx="1018.4" cy="76.6" r="2.3" fill="#b9bdca" opacity="0.5"/><circle cx="1020.7" cy="76.7" r="2.3" fill="#b9bdca" opacity="0.5"/><circle cx="1020.7" cy="82.8" r="2.3" fill="#b9bdca" opacity="0.5"/><circle cx="1020.7" cy="82.8" r="2.3" fill="#b9bdca" opacity="0.5"/><circle cx="1020.7" cy="83.3" r="2.3" fill="#b9bdca" opacity="0.5"/><circle cx="1027.8" cy="233.4" r="2.3" fill="#b9bdca" opacity="0.5"/><circle cx="1029.9" cy="228.9" r="2.3" fill="#b9bdca" opacity="0.5"/><circle cx="1032.0" cy="198.3" r="2.3" fill="#b9bdca" opacity="0.5"/><path d="M262.8 152.3L266.4 155.9L262.8 159.5L259.2 155.9Z" fill="#2b3a7a" opacity="0.8" stroke="none" stroke-width="0"/><path d="M276.0 138.2L279.6 141.8L276.0 145.4L272.4 141.8Z" fill="#2b3a7a" opacity="0.8" stroke="none" stroke-width="0"/><path d="M277.7 128.1L281.3 131.7L277.7 135.3L274.1 131.7Z" fill="#2b3a7a" opacity="0.8" stroke="none" stroke-width="0"/><path d="M277.9 130.5L281.5 134.1L277.9 137.7L274.3 134.1Z" fill="#2b3a7a" opacity="0.8" stroke="none" stroke-width="0"/><path d="M279.3 127.3L282.9 130.9L279.3 134.5L275.7 130.9Z" fill="#2b3a7a" opacity="0.8" stroke="none" stroke-width="0"/><path d="M280.0 125.9L283.6 129.5L280.0 133.1L276.4 129.5Z" fill="#2b3a7a" opacity="0.8" stroke="none" stroke-width="0"/><path d="M280.1 127.3L283.7 130.9L280.1 134.5L276.5 130.9Z" fill="#2b3a7a" opacity="0.8" stroke="none" stroke-width="0"/><path d="M321.0 125.9L324.6 129.5L321.0 133.1L317.4 129.5Z" fill="#2b3a7a" opacity="0.8" stroke="none" stroke-width="0"/><path d="M327.1 125.3L330.7 128.9L327.1 132.5L323.5 128.9Z" fill="#2b3a7a" opacity="0.8" stroke="none" stroke-width="0"/><path d="M333.0 124.8L336.6 128.4L333.0 132.0L329.4 128.4Z" fill="#2b3a7a" opacity="0.8" stroke="none" stroke-width="0"/><path d="M337.1 124.6L340.7 128.2L337.1 131.8L333.5 128.2Z" fill="#2b3a7a" opacity="0.8" stroke="none" stroke-width="0"/><path d="M355.5 124.4L359.1 128.0L355.5 131.6L351.9 128.0Z" fill="#2b3a7a" opacity="0.8" stroke="none" stroke-width="0"/><path d="M374.9 109.2L378.5 112.8L374.9 116.4L371.3 112.8Z" fill="#2b3a7a" opacity="0.8" stroke="none" stroke-width="0"/><path d="M384.0 108.0L387.6 111.6L384.0 115.2L380.4 111.6Z" fill="#2b3a7a" opacity="0.8" stroke="none" stroke-width="0"/><path d="M386.7 101.9L390.3 105.5L386.7 109.1L383.1 105.5Z" fill="#2b3a7a" opacity="0.8" stroke="none" stroke-width="0"/><path d="M387.2 104.9L390.8 108.5L387.2 112.1L383.6 108.5Z" fill="#2b3a7a" opacity="0.8" stroke="none" stroke-width="0"/><path d="M388.3 101.5L391.9 105.1L388.3 108.7L384.7 105.1Z" fill="#2b3a7a" opacity="0.8" stroke="none" stroke-width="0"/><path d="M389.5 100.2L393.1 103.8L389.5 107.4L385.9 103.8Z" fill="#2b3a7a" opacity="0.8" stroke="none" stroke-width="0"/><path d="M402.9 99.9L406.5 103.5L402.9 107.1L399.3 103.5Z" fill="#2b3a7a" opacity="0.8" stroke="none" stroke-width="0"/><path d="M428.0 86.0L431.6 89.6L428.0 93.2L424.4 89.6Z" fill="#2b3a7a" opacity="0.8" stroke="none" stroke-width="0"/><path d="M432.4 85.7L436.0 89.3L432.4 92.9L428.8 89.3Z" fill="#2b3a7a" opacity="0.8" stroke="none" stroke-width="0"/><path d="M433.3 84.0L436.9 87.6L433.3 91.2L429.7 87.6Z" fill="#2b3a7a" opacity="0.8" stroke="none" stroke-width="0"/><path d="M437.8 81.8L441.4 85.4L437.8 89.0L434.2 85.4Z" fill="#2b3a7a" opacity="0.8" stroke="none" stroke-width="0"/><path d="M451.8 80.8L455.4 84.4L451.8 88.0L448.2 84.4Z" fill="#2b3a7a" opacity="0.8" stroke="none" stroke-width="0"/><path d="M558.8 80.8L562.4 84.4L558.8 88.0L555.2 84.4Z" fill="#2b3a7a" opacity="0.8" stroke="none" stroke-width="0"/><path d="M825.4 72.2L829.0 75.8L825.4 79.4L821.8 75.8Z" fill="#2b3a7a" opacity="0.8" stroke="none" stroke-width="0"/><path d="M827.7 72.1L831.3 75.7L827.7 79.3L824.1 75.7Z" fill="#2b3a7a" opacity="0.8" stroke="none" stroke-width="0"/><path d="M830.5 71.7L834.1 75.3L830.5 78.9L826.9 75.3Z" fill="#2b3a7a" opacity="0.8" stroke="none" stroke-width="0"/><path d="M830.9 71.1L834.5 74.7L830.9 78.3L827.3 74.7Z" fill="#2b3a7a" opacity="0.8" stroke="none" stroke-width="0"/><path d="M833.4 71.1L837.0 74.7L833.4 78.3L829.8 74.7Z" fill="#2b3a7a" opacity="0.8" stroke="none" stroke-width="0"/><path d="M848.4 70.8L852.0 74.4L848.4 78.0L844.8 74.4Z" fill="#2b3a7a" opacity="0.8" stroke="none" stroke-width="0"/><path d="M868.9 70.3L872.5 73.9L868.9 77.5L865.3 73.9Z" fill="#2b3a7a" opacity="0.8" stroke="none" stroke-width="0"/><path d="M875.8 70.0L879.4 73.6L875.8 77.2L872.2 73.6Z" fill="#2b3a7a" opacity="0.8" stroke="none" stroke-width="0"/><path d="M983.8 69.8L987.4 73.4L983.8 77.0L980.2 73.4Z" fill="#2b3a7a" opacity="0.8" stroke="none" stroke-width="0"/><path d="M60.0 335.3L63.3 335.3L63.3 335.1L67.9 335.1L67.9 320.7L77.1 320.7L77.1 319.9L80.5 319.9L80.5 315.3L81.4 315.3L81.4 314.9L82.9 314.9L82.9 314.9L137.6 314.9L137.6 238.7L138.5 238.7L138.5 229.0L139.4 229.0L139.4 222.3L140.5 222.3L140.5 220.6L140.7 220.6L140.7 220.5L141.3 220.5L141.3 214.2L143.4 214.2L143.4 214.1L144.0 214.1L144.0 213.7L144.4 213.7L144.4 213.5L145.0 213.5L145.0 212.7L147.7 212.7L147.7 212.1L148.4 212.1L148.4 212.0L155.7 212.0L155.7 206.7L163.9 206.7L163.9 204.9L166.9 204.9L166.9 204.6L169.0 204.6L169.0 201.9L172.6 201.9L172.6 201.8L174.4 201.8L174.4 201.0L175.5 201.0L175.5 200.0L180.8 200.0L180.8 200.0L183.0 200.0L183.0 199.7L200.9 199.7L200.9 195.5L214.3 195.5L214.3 187.4L214.6 187.4L214.6 186.2L215.6 186.2L215.6 184.5L238.9 184.5L238.9 183.9L250.5 183.9L250.5 169.3L254.3 169.3L254.3 168.8L254.6 168.8L254.6 167.7L256.8 167.7L256.8 165.0L257.7 165.0L257.7 163.7L257.9 163.7L257.9 163.6L262.8 163.6L262.8 155.9L268.9 155.9L268.9 155.8L271.1 155.8L271.1 141.9L276.0 141.9L276.0 141.8L277.7 141.8L277.7 131.7L279.3 131.7L279.3 130.9L280.0 130.9L280.0 129.5L321.0 129.5L321.0 129.5L327.1 129.5L327.1 128.9L333.0 128.9L333.0 128.4L337.1 128.4L337.1 128.2L355.5 128.2L355.5 128.0L374.9 128.0L374.9 112.8L379.2 112.8L379.2 110.2L386.7 110.2L386.7 105.5L388.3 105.5L388.3 105.1L389.5 105.1L389.5 103.8L402.9 103.8L402.9 103.5L428.0 103.5L428.0 89.6L432.4 89.6L432.4 89.3L433.3 89.3L433.3 87.6L437.8 87.6L437.8 85.4L451.8 85.4L451.8 84.4L558.8 84.4L558.8 84.4L825.4 84.4L825.4 75.8L827.7 75.8L827.7 75.7L830.5 75.7L830.5 75.3L830.9 75.3L830.9 74.7L833.4 74.7L833.4 74.7L848.4 74.7L848.4 74.4L868.9 74.4L868.9 73.9L875.8 73.9L875.8 73.6L886.9 73.6L886.9 69.8L891.7 69.8L891.7 69.1L1032.0 69.1" fill="none" stroke="#6675b0" stroke-width="1.6" stroke-dasharray="5 3" opacity="0.75"/><path d="M262.8 155.9L276.0 155.9L276.0 141.8L277.7 141.8L277.7 131.7L279.3 131.7L279.3 130.9L280.0 130.9L280.0 129.5L321.0 129.5L321.0 129.5L327.1 129.5L327.1 128.9L333.0 128.9L333.0 128.4L337.1 128.4L337.1 128.2L355.5 128.2L355.5 128.0L374.9 128.0L374.9 112.8L384.0 112.8L384.0 111.6L386.7 111.6L386.7 105.5L388.3 105.5L388.3 105.1L389.5 105.1L389.5 103.8L402.9 103.8L402.9 103.5L428.0 103.5L428.0 89.6L432.4 89.6L432.4 89.3L433.3 89.3L433.3 87.6L437.8 87.6L437.8 85.4L451.8 85.4L451.8 84.4L558.8 84.4L558.8 84.4L825.4 84.4L825.4 75.8L827.7 75.8L827.7 75.7L830.5 75.7L830.5 75.3L830.9 75.3L830.9 74.7L833.4 74.7L833.4 74.7L848.4 74.7L848.4 74.4L868.9 74.4L868.9 73.9L875.8 73.9L875.8 73.6L886.9 73.6L886.9 73.5L983.8 73.5L983.8 73.4L1032.0 73.4" fill="none" stroke="#2b3a7a" stroke-width="2.6"/><path d="M738.9 246.9L745.4 253.4L738.9 259.9L732.4 253.4Z" fill="#c5961a" opacity="1.0" stroke="#ffffff" stroke-width="1.4"/><path d="M871.6 206.5L878.1 213.0L871.6 219.5L865.1 213.0Z" fill="#c5961a" opacity="1.0" stroke="#ffffff" stroke-width="1.4"/><path d="M886.9 67.0L893.4 73.5L886.9 80.0L880.4 73.5Z" fill="#c5961a" opacity="1.0" stroke="#ffffff" stroke-width="1.4"/><path d="M1000.5 240.8L1007.0 247.3L1000.5 253.8L994.0 247.3Z" fill="#c5961a" opacity="1.0" stroke="#ffffff" stroke-width="1.4"/><path d="M1001.3 238.0L1007.8 244.5L1001.3 251.0L994.8 244.5Z" fill="#c5961a" opacity="1.0" stroke="#ffffff" stroke-width="1.4"/><text x="1042" y="67.1" font-size="11.5" fill="#6675b0">– – raw best 513.8</text><text x="1042" y="81.1" font-size="10" fill="#8a8fa3">unverified (pending)</text><path d="M983.8 66.9L990.3 73.4L983.8 79.9L977.3 73.4Z" fill="#2b3a7a" opacity="1.0" stroke="#ffffff" stroke-width="1.4"/><text x="1042" y="101.4" font-size="12.5" fill="#2b3a7a" font-weight="bold">◆ verified 506.9</text><text x="1042" y="117.4" font-size="10.5" fill="#3a3f55">top verified</text><text x="60" y="24" font-size="13" font-weight="bold" fill="#3a3f55" letter-spacing="1.2">SCORE EVOLUTION — gemma-challenge (tok/s)</text><circle cx="452" cy="20" r="3" fill="#b9bdca"/><text x="460" y="24" font-size="10.5" fill="#8a8fa3">all results</text><path d="M544.0 16.4L547.6 20.0L544.0 23.6L540.4 20.0Z" fill="#2b3a7a" opacity="1.0" stroke="none" stroke-width="0"/><text x="552" y="24" font-size="10.5" fill="#8a8fa3">verified</text><path d="M620.0 15.5L624.5 20.0L620.0 24.5L615.5 20.0Z" fill="#c5961a" opacity="1.0" stroke="#fff" stroke-width="1"/><text x="629" y="24" font-size="10.5" fill="#8a8fa3">mikasa-inbound (us)</text></svg>