<svg viewBox="0 0 1200 440" xmlns="http://www.w3.org/2000/svg" font-family="ui-sans-serif,system-ui,-apple-system,sans-serif"><rect x="0" y="0" width="1200" height="440" fill="#ffffff"/><rect x="60" y="46" width="972" height="350" fill="#f3f4fb"/><line x1="60" y1="396.0" x2="1032" y2="396.0" stroke="#e3e5ef" stroke-width="1"/><text x="52" y="400.0" text-anchor="end" font-size="11" fill="#8a8fa3">0</text><line x1="60" y1="332.4" x2="1032" y2="332.4" stroke="#e3e5ef" stroke-width="1"/><text x="52" y="336.4" text-anchor="end" font-size="11" fill="#8a8fa3">100</text><line x1="60" y1="268.7" x2="1032" y2="268.7" stroke="#e3e5ef" stroke-width="1"/><text x="52" y="272.7" text-anchor="end" font-size="11" fill="#8a8fa3">200</text><line x1="60" y1="205.1" x2="1032" y2="205.1" stroke="#e3e5ef" stroke-width="1"/><text x="52" y="209.1" text-anchor="end" font-size="11" fill="#8a8fa3">300</text><line x1="60" y1="141.5" x2="1032" y2="141.5" stroke="#e3e5ef" stroke-width="1"/><text x="52" y="145.5" text-anchor="end" font-size="11" fill="#8a8fa3">400</text><line x1="60" y1="77.8" x2="1032" y2="77.8" stroke="#e3e5ef" stroke-width="1"/><text x="52" y="81.8" text-anchor="end" font-size="11" fill="#8a8fa3">500</text><line x1="167.0" y1="46" x2="167.0" y2="396" stroke="#e3e5ef" stroke-width="1"/><text x="167.0" y="414.0" text-anchor="middle" font-size="11" fill="#8a8fa3">Jun 10</text><line x1="319.5" y1="46" x2="319.5" y2="396" stroke="#e3e5ef" stroke-width="1"/><text x="319.5" y="414.0" text-anchor="middle" font-size="11" fill="#8a8fa3">Jun 12</text><line x1="472.1" y1="46" x2="472.1" y2="396" stroke="#e3e5ef" stroke-width="1"/><text x="472.1" y="414.0" text-anchor="middle" font-size="11" fill="#8a8fa3">Jun 14</text><line x1="624.7" y1="46" x2="624.7" y2="396" stroke="#e3e5ef" stroke-width="1"/><text x="624.7" y="414.0" text-anchor="middle" font-size="11" fill="#8a8fa3">Jun 16</text><line x1="777.2" y1="46" x2="777.2" y2="396" stroke="#e3e5ef" stroke-width="1"/><text x="777.2" y="414.0" text-anchor="middle" font-size="11" fill="#8a8fa3">Jun 18</text><line x1="929.8" y1="46" x2="929.8" y2="396" stroke="#e3e5ef" stroke-width="1"/><text x="929.8" y="414.0" text-anchor="middle" font-size="11" fill="#8a8fa3">Jun 20</text><circle cx="60.0" cy="335.3" r="2.3" fill="#b9bdca" opacity="0.5"/><circle cx="63.7" cy="335.1" r="2.3" fill="#b9bdca" opacity="0.5"/><circle cx="67.4" cy="368.0" r="2.3" fill="#b9bdca" opacity="0.5"/><circle cx="68.8" cy="320.7" r="2.3" fill="#b9bdca" opacity="0.5"/><circle cx="79.0" cy="319.9" r="2.3" fill="#b9bdca" opacity="0.5"/><circle cx="79.5" cy="320.6" r="2.3" fill="#b9bdca" opacity="0.5"/><circle cx="82.8" cy="315.3" r="2.3" fill="#b9bdca" opacity="0.5"/><circle cx="83.5" cy="319.7" r="2.3" fill="#b9bdca" opacity="0.5"/><circle cx="83.8" cy="314.9" r="2.3" fill="#b9bdca" opacity="0.5"/><circle cx="85.0" cy="315.5" r="2.3" fill="#b9bdca" opacity="0.5"/><circle cx="85.4" cy="314.9" r="2.3" fill="#b9bdca" opacity="0.5"/><circle cx="86.4" cy="315.4" r="2.3" fill="#b9bdca" opacity="0.5"/><circle cx="88.3" cy="315.0" r="2.3" fill="#b9bdca" opacity="0.5"/><circle cx="146.1" cy="238.7" r="2.3" fill="#b9bdca" opacity="0.5"/><circle cx="146.6" cy="315.0" r="2.3" fill="#b9bdca" opacity="0.5"/><circle cx="147.1" cy="229.0" r="2.3" fill="#b9bdca" opacity="0.5"/><circle cx="148.1" cy="222.3" r="2.3" fill="#b9bdca" opacity="0.5"/><circle cx="149.0" cy="228.0" r="2.3" fill="#b9bdca" opacity="0.5"/><circle cx="149.2" cy="223.3" r="2.3" fill="#b9bdca" opacity="0.5"/><circle cx="149.3" cy="220.6" r="2.3" fill="#b9bdca" opacity="0.5"/><circle cx="149.5" cy="220.5" r="2.3" fill="#b9bdca" opacity="0.5"/><circle cx="149.7" cy="223.2" r="2.3" fill="#b9bdca" opacity="0.5"/><circle cx="150.2" cy="214.2" r="2.3" fill="#b9bdca" opacity="0.5"/><circle cx="150.3" cy="222.1" r="2.3" fill="#b9bdca" opacity="0.5"/><circle cx="150.7" cy="220.7" r="2.3" fill="#b9bdca" opacity="0.5"/><circle cx="151.4" cy="218.5" r="2.3" fill="#b9bdca" opacity="0.5"/><circle cx="151.6" cy="215.2" r="2.3" fill="#b9bdca" opacity="0.5"/><circle cx="152.0" cy="214.3" r="2.3" fill="#b9bdca" opacity="0.5"/><circle cx="152.1" cy="219.2" r="2.3" fill="#b9bdca" opacity="0.5"/><circle cx="152.5" cy="214.1" r="2.3" fill="#b9bdca" opacity="0.5"/><circle cx="152.9" cy="215.2" r="2.3" fill="#b9bdca" opacity="0.5"/><circle cx="153.2" cy="213.7" r="2.3" fill="#b9bdca" opacity="0.5"/><circle cx="153.7" cy="213.5" r="2.3" fill="#b9bdca" opacity="0.5"/><circle cx="154.1" cy="214.8" r="2.3" fill="#b9bdca" opacity="0.5"/><circle cx="154.1" cy="217.7" r="2.3" fill="#b9bdca" opacity="0.5"/><circle cx="154.3" cy="212.7" r="2.3" fill="#b9bdca" opacity="0.5"/><circle cx="155.3" cy="213.3" r="2.3" fill="#b9bdca" opacity="0.5"/><circle cx="156.3" cy="212.7" r="2.3" fill="#b9bdca" opacity="0.5"/><circle cx="156.3" cy="213.6" r="2.3" fill="#b9bdca" opacity="0.5"/><circle cx="156.7" cy="213.0" r="2.3" fill="#b9bdca" opacity="0.5"/><circle cx="157.3" cy="212.1" r="2.3" fill="#b9bdca" opacity="0.5"/><circle cx="157.5" cy="213.3" r="2.3" fill="#b9bdca" opacity="0.5"/><circle cx="158.1" cy="212.0" r="2.3" fill="#b9bdca" opacity="0.5"/><circle cx="159.2" cy="212.1" r="2.3" fill="#b9bdca" opacity="0.5"/><circle cx="159.2" cy="212.8" r="2.3" fill="#b9bdca" opacity="0.5"/><circle cx="166.2" cy="206.7" r="2.3" fill="#b9bdca" opacity="0.5"/><circle cx="167.2" cy="206.8" r="2.3" fill="#b9bdca" opacity="0.5"/><circle cx="167.2" cy="212.5" r="2.3" fill="#b9bdca" opacity="0.5"/><circle cx="167.8" cy="207.2" r="2.3" fill="#b9bdca" opacity="0.5"/><circle cx="170.0" cy="207.0" r="2.3" fill="#b9bdca" opacity="0.5"/><circle cx="175.3" cy="204.9" r="2.3" fill="#b9bdca" opacity="0.5"/><circle cx="178.7" cy="204.6" r="2.3" fill="#b9bdca" opacity="0.5"/><circle cx="179.0" cy="212.3" r="2.3" fill="#b9bdca" opacity="0.5"/><circle cx="179.6" cy="204.6" r="2.3" fill="#b9bdca" opacity="0.5"/><circle cx="179.6" cy="204.6" r="2.3" fill="#b9bdca" opacity="0.5"/><circle cx="179.6" cy="204.9" r="2.3" fill="#b9bdca" opacity="0.5"/><circle cx="179.6" cy="204.9" r="2.3" fill="#b9bdca" opacity="0.5"/><circle cx="180.9" cy="201.9" r="2.3" fill="#b9bdca" opacity="0.5"/><circle cx="183.0" cy="206.5" r="2.3" fill="#b9bdca" opacity="0.5"/><circle cx="183.9" cy="205.8" r="2.3" fill="#b9bdca" opacity="0.5"/><circle cx="183.9" cy="335.1" r="2.3" fill="#b9bdca" opacity="0.5"/><circle cx="185.0" cy="201.8" r="2.3" fill="#b9bdca" opacity="0.5"/><circle cx="185.0" cy="202.2" r="2.3" fill="#b9bdca" opacity="0.5"/><circle cx="187.0" cy="201.0" r="2.3" fill="#b9bdca" opacity="0.5"/><circle cx="187.8" cy="203.1" r="2.3" fill="#b9bdca" opacity="0.5"/><circle cx="188.2" cy="200.0" r="2.3" fill="#b9bdca" opacity="0.5"/><circle cx="188.3" cy="204.6" r="2.3" fill="#b9bdca" opacity="0.5"/><circle cx="189.5" cy="202.3" r="2.3" fill="#b9bdca" opacity="0.5"/><circle cx="192.1" cy="200.4" r="2.3" fill="#b9bdca" opacity="0.5"/><circle cx="193.0" cy="200.7" r="2.3" fill="#b9bdca" opacity="0.5"/><circle cx="194.1" cy="200.0" r="2.3" fill="#b9bdca" opacity="0.5"/><circle cx="196.5" cy="199.7" r="2.3" fill="#b9bdca" opacity="0.5"/><circle cx="211.0" cy="200.6" r="2.3" fill="#b9bdca" opacity="0.5"/><circle cx="212.3" cy="201.8" r="2.3" fill="#b9bdca" opacity="0.5"/><circle cx="214.3" cy="208.4" r="2.3" fill="#b9bdca" opacity="0.5"/><circle cx="214.4" cy="200.8" r="2.3" fill="#b9bdca" opacity="0.5"/><circle cx="215.8" cy="200.7" r="2.3" fill="#b9bdca" opacity="0.5"/><circle cx="215.8" cy="201.9" r="2.3" fill="#b9bdca" opacity="0.5"/><circle cx="216.3" cy="195.5" r="2.3" fill="#b9bdca" opacity="0.5"/><circle cx="217.7" cy="196.9" r="2.3" fill="#b9bdca" opacity="0.5"/><circle cx="218.3" cy="197.9" r="2.3" fill="#b9bdca" opacity="0.5"/><circle cx="219.6" cy="196.1" r="2.3" fill="#b9bdca" opacity="0.5"/><circle cx="224.1" cy="197.3" r="2.3" fill="#b9bdca" opacity="0.5"/><circle cx="225.3" cy="195.9" r="2.3" fill="#b9bdca" opacity="0.5"/><circle cx="225.8" cy="201.0" r="2.3" fill="#b9bdca" opacity="0.5"/><circle cx="226.1" cy="197.5" r="2.3" fill="#b9bdca" opacity="0.5"/><circle cx="227.1" cy="196.9" r="2.3" fill="#b9bdca" opacity="0.5"/><circle cx="227.2" cy="197.1" r="2.3" fill="#b9bdca" opacity="0.5"/><circle cx="227.3" cy="197.0" r="2.3" fill="#b9bdca" opacity="0.5"/><circle cx="228.3" cy="196.0" r="2.3" fill="#b9bdca" opacity="0.5"/><circle cx="228.3" cy="196.0" r="2.3" fill="#b9bdca" opacity="0.5"/><circle cx="228.4" cy="197.9" r="2.3" fill="#b9bdca" opacity="0.5"/><circle cx="229.2" cy="197.8" r="2.3" fill="#b9bdca" opacity="0.5"/><circle cx="229.8" cy="196.2" r="2.3" fill="#b9bdca" opacity="0.5"/><circle cx="229.8" cy="197.5" r="2.3" fill="#b9bdca" opacity="0.5"/><circle cx="230.1" cy="196.9" r="2.3" fill="#b9bdca" opacity="0.5"/><circle cx="230.2" cy="195.5" r="2.3" fill="#b9bdca" opacity="0.5"/><circle cx="231.1" cy="198.1" r="2.3" fill="#b9bdca" opacity="0.5"/><circle cx="231.2" cy="187.4" r="2.3" fill="#b9bdca" opacity="0.5"/><circle cx="231.6" cy="186.2" r="2.3" fill="#b9bdca" opacity="0.5"/><circle cx="231.6" cy="196.3" r="2.3" fill="#b9bdca" opacity="0.5"/><circle cx="231.6" cy="197.2" r="2.3" fill="#b9bdca" opacity="0.5"/><circle cx="231.6" cy="197.8" r="2.3" fill="#b9bdca" opacity="0.5"/><circle cx="231.6" cy="368.0" r="2.3" fill="#b9bdca" opacity="0.5"/><circle cx="232.6" cy="184.5" r="2.3" fill="#b9bdca" opacity="0.5"/><circle cx="236.5" cy="184.6" r="2.3" fill="#b9bdca" opacity="0.5"/><circle cx="238.2" cy="185.6" r="2.3" fill="#b9bdca" opacity="0.5"/><circle cx="243.9" cy="188.7" r="2.3" fill="#b9bdca" opacity="0.5"/><circle cx="251.7" cy="185.4" r="2.3" fill="#b9bdca" opacity="0.5"/><circle cx="253.4" cy="185.2" r="2.3" fill="#b9bdca" opacity="0.5"/><circle cx="253.9" cy="186.6" r="2.3" fill="#b9bdca" opacity="0.5"/><circle cx="254.2" cy="185.3" r="2.3" fill="#b9bdca" opacity="0.5"/><circle cx="255.5" cy="185.3" r="2.3" fill="#b9bdca" opacity="0.5"/><circle cx="256.1" cy="185.0" r="2.3" fill="#b9bdca" opacity="0.5"/><circle cx="257.4" cy="184.9" r="2.3" fill="#b9bdca" opacity="0.5"/><circle cx="258.3" cy="185.1" r="2.3" fill="#b9bdca" opacity="0.5"/><circle cx="258.3" cy="185.2" r="2.3" fill="#b9bdca" opacity="0.5"/><circle cx="258.3" cy="186.4" r="2.3" fill="#b9bdca" opacity="0.5"/><circle cx="258.5" cy="183.9" r="2.3" fill="#b9bdca" opacity="0.5"/><circle cx="265.6" cy="184.4" r="2.3" fill="#b9bdca" opacity="0.5"/><circle cx="266.8" cy="184.2" r="2.3" fill="#b9bdca" opacity="0.5"/><circle cx="271.3" cy="169.3" r="2.3" fill="#b9bdca" opacity="0.5"/><circle cx="275.6" cy="168.8" r="2.3" fill="#b9bdca" opacity="0.5"/><circle cx="275.9" cy="167.7" r="2.3" fill="#b9bdca" opacity="0.5"/><circle cx="277.8" cy="201.4" r="2.3" fill="#b9bdca" opacity="0.5"/><circle cx="278.4" cy="165.0" r="2.3" fill="#b9bdca" opacity="0.5"/><circle cx="278.7" cy="198.2" r="2.3" fill="#b9bdca" opacity="0.5"/><circle cx="279.3" cy="163.7" r="2.3" fill="#b9bdca" opacity="0.5"/><circle cx="279.6" cy="163.6" r="2.3" fill="#b9bdca" opacity="0.5"/><circle cx="280.3" cy="165.9" r="2.3" fill="#b9bdca" opacity="0.5"/><circle cx="284.2" cy="165.1" r="2.3" fill="#b9bdca" opacity="0.5"/><circle cx="285.0" cy="155.9" r="2.3" fill="#b9bdca" opacity="0.5"/><circle cx="288.8" cy="196.5" r="2.3" fill="#b9bdca" opacity="0.5"/><circle cx="290.3" cy="157.4" r="2.3" fill="#b9bdca" opacity="0.5"/><circle cx="291.8" cy="155.8" r="2.3" fill="#b9bdca" opacity="0.5"/><circle cx="294.3" cy="141.9" r="2.3" fill="#b9bdca" opacity="0.5"/><circle cx="299.3" cy="156.1" r="2.3" fill="#b9bdca" opacity="0.5"/><circle cx="299.3" cy="156.4" r="2.3" fill="#b9bdca" opacity="0.5"/><circle cx="299.6" cy="141.8" r="2.3" fill="#b9bdca" opacity="0.5"/><circle cx="299.8" cy="196.0" r="2.3" fill="#b9bdca" opacity="0.5"/><circle cx="301.6" cy="131.7" r="2.3" fill="#b9bdca" opacity="0.5"/><circle cx="301.8" cy="134.1" r="2.3" fill="#b9bdca" opacity="0.5"/><circle cx="302.4" cy="141.1" r="2.3" fill="#b9bdca" opacity="0.5"/><circle cx="303.2" cy="134.0" r="2.3" fill="#b9bdca" opacity="0.5"/><circle cx="303.4" cy="130.9" r="2.3" fill="#b9bdca" opacity="0.5"/><circle cx="303.4" cy="154.2" r="2.3" fill="#b9bdca" opacity="0.5"/><circle cx="303.7" cy="133.6" r="2.3" fill="#b9bdca" opacity="0.5"/><circle cx="304.1" cy="129.5" r="2.3" fill="#b9bdca" opacity="0.5"/><circle cx="304.2" cy="130.9" r="2.3" fill="#b9bdca" opacity="0.5"/><circle cx="304.2" cy="133.4" r="2.3" fill="#b9bdca" opacity="0.5"/><circle cx="304.5" cy="131.2" r="2.3" fill="#b9bdca" opacity="0.5"/><circle cx="307.7" cy="189.8" r="2.3" fill="#b9bdca" opacity="0.5"/><circle cx="307.9" cy="133.2" r="2.3" fill="#b9bdca" opacity="0.5"/><circle cx="308.4" cy="133.5" r="2.3" fill="#b9bdca" opacity="0.5"/><circle cx="309.5" cy="130.1" r="2.3" fill="#b9bdca" opacity="0.5"/><circle cx="312.6" cy="130.3" r="2.3" fill="#b9bdca" opacity="0.5"/><circle cx="314.1" cy="303.1" r="2.3" fill="#b9bdca" opacity="0.5"/><circle cx="316.6" cy="133.2" r="2.3" fill="#b9bdca" opacity="0.5"/><circle cx="320.0" cy="144.2" r="2.3" fill="#b9bdca" opacity="0.5"/><circle cx="320.7" cy="135.3" r="2.3" fill="#b9bdca" opacity="0.5"/><circle cx="322.9" cy="133.4" r="2.3" fill="#b9bdca" opacity="0.5"/><circle cx="323.1" cy="159.9" r="2.3" fill="#b9bdca" opacity="0.5"/><circle cx="323.7" cy="130.8" r="2.3" fill="#b9bdca" opacity="0.5"/><circle cx="324.5" cy="133.2" r="2.3" fill="#b9bdca" opacity="0.5"/><circle cx="332.2" cy="130.9" r="2.3" fill="#b9bdca" opacity="0.5"/><circle cx="333.1" cy="130.9" r="2.3" fill="#b9bdca" opacity="0.5"/><circle cx="333.1" cy="133.8" r="2.3" fill="#b9bdca" opacity="0.5"/><circle cx="334.4" cy="130.4" r="2.3" fill="#b9bdca" opacity="0.5"/><circle cx="335.2" cy="153.7" r="2.3" fill="#b9bdca" opacity="0.5"/><circle cx="336.6" cy="133.3" r="2.3" fill="#b9bdca" opacity="0.5"/><circle cx="339.0" cy="156.5" r="2.3" fill="#b9bdca" opacity="0.5"/><circle cx="339.5" cy="132.3" r="2.3" fill="#b9bdca" opacity="0.5"/><circle cx="342.3" cy="147.2" r="2.3" fill="#b9bdca" opacity="0.5"/><circle cx="342.8" cy="133.6" r="2.3" fill="#b9bdca" opacity="0.5"/><circle cx="343.8" cy="129.5" r="2.3" fill="#b9bdca" opacity="0.5"/><circle cx="343.8" cy="133.3" r="2.3" fill="#b9bdca" opacity="0.5"/><circle cx="347.3" cy="133.3" r="2.3" fill="#b9bdca" opacity="0.5"/><circle cx="349.6" cy="129.5" r="2.3" fill="#b9bdca" opacity="0.5"/><circle cx="353.5" cy="130.6" r="2.3" fill="#b9bdca" opacity="0.5"/><circle cx="356.4" cy="128.9" r="2.3" fill="#b9bdca" opacity="0.5"/><circle cx="357.0" cy="132.7" r="2.3" fill="#b9bdca" opacity="0.5"/><circle cx="357.0" cy="133.1" r="2.3" fill="#b9bdca" opacity="0.5"/><circle cx="361.4" cy="129.8" r="2.3" fill="#b9bdca" opacity="0.5"/><circle cx="362.5" cy="333.8" r="2.3" fill="#b9bdca" opacity="0.5"/><circle cx="362.9" cy="128.4" r="2.3" fill="#b9bdca" opacity="0.5"/><circle cx="364.9" cy="129.8" r="2.3" fill="#b9bdca" opacity="0.5"/><circle cx="365.7" cy="128.9" r="2.3" fill="#b9bdca" opacity="0.5"/><circle cx="365.9" cy="128.9" r="2.3" fill="#b9bdca" opacity="0.5"/><circle cx="367.4" cy="128.2" r="2.3" fill="#b9bdca" opacity="0.5"/><circle cx="368.5" cy="129.7" r="2.3" fill="#b9bdca" opacity="0.5"/><circle cx="368.9" cy="142.3" r="2.3" fill="#b9bdca" opacity="0.5"/><circle cx="373.0" cy="128.8" r="2.3" fill="#b9bdca" opacity="0.5"/><circle cx="375.5" cy="161.1" r="2.3" fill="#b9bdca" opacity="0.5"/><circle cx="380.1" cy="164.4" r="2.3" fill="#b9bdca" opacity="0.5"/><circle cx="380.6" cy="248.3" r="2.3" fill="#b9bdca" opacity="0.5"/><circle cx="387.3" cy="135.4" r="2.3" fill="#b9bdca" opacity="0.5"/><circle cx="387.9" cy="128.0" r="2.3" fill="#b9bdca" opacity="0.5"/><circle cx="390.0" cy="229.0" r="2.3" fill="#b9bdca" opacity="0.5"/><circle cx="394.6" cy="128.1" r="2.3" fill="#b9bdca" opacity="0.5"/><circle cx="395.9" cy="128.6" r="2.3" fill="#b9bdca" opacity="0.5"/><circle cx="400.2" cy="128.8" r="2.3" fill="#b9bdca" opacity="0.5"/><circle cx="400.2" cy="129.6" r="2.3" fill="#b9bdca" opacity="0.5"/><circle cx="400.2" cy="130.9" r="2.3" fill="#b9bdca" opacity="0.5"/><circle cx="409.4" cy="112.8" r="2.3" fill="#b9bdca" opacity="0.5"/><circle cx="414.1" cy="110.2" r="2.3" fill="#b9bdca" opacity="0.5"/><circle cx="414.3" cy="111.6" r="2.3" fill="#b9bdca" opacity="0.5"/><circle cx="417.3" cy="111.0" r="2.3" fill="#b9bdca" opacity="0.5"/><circle cx="418.8" cy="335.1" r="2.3" fill="#b9bdca" opacity="0.5"/><circle cx="419.5" cy="111.6" r="2.3" fill="#b9bdca" opacity="0.5"/><circle cx="422.5" cy="105.5" r="2.3" fill="#b9bdca" opacity="0.5"/><circle cx="423.0" cy="108.5" r="2.3" fill="#b9bdca" opacity="0.5"/><circle cx="424.3" cy="105.1" r="2.3" fill="#b9bdca" opacity="0.5"/><circle cx="425.6" cy="103.8" r="2.3" fill="#b9bdca" opacity="0.5"/><circle cx="427.2" cy="125.8" r="2.3" fill="#b9bdca" opacity="0.5"/><circle cx="440.4" cy="103.5" r="2.3" fill="#b9bdca" opacity="0.5"/><circle cx="443.8" cy="127.8" r="2.3" fill="#b9bdca" opacity="0.5"/><circle cx="445.3" cy="334.3" r="2.3" fill="#b9bdca" opacity="0.5"/><circle cx="447.4" cy="128.6" r="2.3" fill="#b9bdca" opacity="0.5"/><circle cx="448.3" cy="128.6" r="2.3" fill="#b9bdca" opacity="0.5"/><circle cx="448.5" cy="128.6" r="2.3" fill="#b9bdca" opacity="0.5"/><circle cx="449.7" cy="256.6" r="2.3" fill="#b9bdca" opacity="0.5"/><circle cx="451.2" cy="254.6" r="2.3" fill="#b9bdca" opacity="0.5"/><circle cx="453.7" cy="128.6" r="2.3" fill="#b9bdca" opacity="0.5"/><circle cx="459.7" cy="250.1" r="2.3" fill="#b9bdca" opacity="0.5"/><circle cx="460.2" cy="161.4" r="2.3" fill="#b9bdca" opacity="0.5"/><circle cx="460.9" cy="206.6" r="2.3" fill="#b9bdca" opacity="0.5"/><circle cx="466.5" cy="113.5" r="2.3" fill="#b9bdca" opacity="0.5"/><circle cx="468.3" cy="89.6" r="2.3" fill="#b9bdca" opacity="0.5"/><circle cx="469.7" cy="90.2" r="2.3" fill="#b9bdca" opacity="0.5"/><circle cx="473.2" cy="89.3" r="2.3" fill="#b9bdca" opacity="0.5"/><circle cx="474.2" cy="87.6" r="2.3" fill="#b9bdca" opacity="0.5"/><circle cx="475.3" cy="185.0" r="2.3" fill="#b9bdca" opacity="0.5"/><circle cx="476.6" cy="131.6" r="2.3" fill="#b9bdca" opacity="0.5"/><circle cx="477.6" cy="87.8" r="2.3" fill="#b9bdca" opacity="0.5"/><circle cx="479.1" cy="85.4" r="2.3" fill="#b9bdca" opacity="0.5"/><circle cx="481.6" cy="86.8" r="2.3" fill="#b9bdca" opacity="0.5"/><circle cx="484.2" cy="88.4" r="2.3" fill="#b9bdca" opacity="0.5"/><circle cx="494.7" cy="89.5" r="2.3" fill="#b9bdca" opacity="0.5"/><circle cx="494.7" cy="155.6" r="2.3" fill="#b9bdca" opacity="0.5"/><circle cx="494.8" cy="84.4" r="2.3" fill="#b9bdca" opacity="0.5"/><circle cx="507.2" cy="89.2" r="2.3" fill="#b9bdca" opacity="0.5"/><circle cx="507.4" cy="90.5" r="2.3" fill="#b9bdca" opacity="0.5"/><circle cx="511.0" cy="87.7" r="2.3" fill="#b9bdca" opacity="0.5"/><circle cx="512.1" cy="367.9" r="2.3" fill="#b9bdca" opacity="0.5"/><circle cx="517.2" cy="164.3" r="2.3" fill="#b9bdca" opacity="0.5"/><circle cx="519.7" cy="94.6" r="2.3" fill="#b9bdca" opacity="0.5"/><circle cx="520.7" cy="89.6" r="2.3" fill="#b9bdca" opacity="0.5"/><circle cx="531.5" cy="124.6" r="2.3" fill="#b9bdca" opacity="0.5"/><circle cx="543.0" cy="146.2" r="2.3" fill="#b9bdca" opacity="0.5"/><circle cx="543.3" cy="90.5" r="2.3" fill="#b9bdca" opacity="0.5"/><circle cx="544.4" cy="87.7" r="2.3" fill="#b9bdca" opacity="0.5"/><circle cx="544.9" cy="87.7" r="2.3" fill="#b9bdca" opacity="0.5"/><circle cx="545.0" cy="89.6" r="2.3" fill="#b9bdca" opacity="0.5"/><circle cx="553.2" cy="93.0" r="2.3" fill="#b9bdca" opacity="0.5"/><circle cx="556.1" cy="85.5" r="2.3" fill="#b9bdca" opacity="0.5"/><circle cx="580.2" cy="334.8" r="2.3" fill="#b9bdca" opacity="0.5"/><circle cx="583.0" cy="86.3" r="2.3" fill="#b9bdca" opacity="0.5"/><circle cx="591.1" cy="85.5" r="2.3" fill="#b9bdca" opacity="0.5"/><circle cx="592.6" cy="84.6" r="2.3" fill="#b9bdca" opacity="0.5"/><circle cx="596.0" cy="87.8" r="2.3" fill="#b9bdca" opacity="0.5"/><circle cx="597.3" cy="84.4" r="2.3" fill="#b9bdca" opacity="0.5"/><circle cx="598.1" cy="84.8" r="2.3" fill="#b9bdca" opacity="0.5"/><circle cx="600.5" cy="87.4" r="2.3" fill="#b9bdca" opacity="0.5"/><circle cx="613.5" cy="84.4" r="2.3" fill="#b9bdca" opacity="0.5"/><circle cx="670.4" cy="89.3" r="2.3" fill="#b9bdca" opacity="0.5"/><circle cx="680.7" cy="88.6" r="2.3" fill="#b9bdca" opacity="0.5"/><circle cx="680.7" cy="92.1" r="2.3" fill="#b9bdca" opacity="0.5"/><circle cx="682.9" cy="156.8" r="2.3" fill="#b9bdca" opacity="0.5"/><circle cx="715.8" cy="201.6" r="2.3" fill="#b9bdca" opacity="0.5"/><circle cx="739.7" cy="315.6" r="2.3" fill="#b9bdca" opacity="0.5"/><circle cx="805.4" cy="87.7" r="2.3" fill="#b9bdca" opacity="0.5"/><circle cx="825.2" cy="87.6" r="2.3" fill="#b9bdca" opacity="0.5"/><circle cx="842.9" cy="87.2" r="2.3" fill="#b9bdca" opacity="0.5"/><circle cx="846.9" cy="88.8" r="2.3" fill="#b9bdca" opacity="0.5"/><circle cx="848.4" cy="89.2" r="2.3" fill="#b9bdca" opacity="0.5"/><circle cx="849.3" cy="90.9" r="2.3" fill="#b9bdca" opacity="0.5"/><circle cx="854.4" cy="87.7" r="2.3" fill="#b9bdca" opacity="0.5"/><circle cx="872.1" cy="88.6" r="2.3" fill="#b9bdca" opacity="0.5"/><circle cx="874.4" cy="89.7" r="2.3" fill="#b9bdca" opacity="0.5"/><circle cx="875.9" cy="88.2" r="2.3" fill="#b9bdca" opacity="0.5"/><circle cx="909.2" cy="75.8" r="2.3" fill="#b9bdca" opacity="0.5"/><circle cx="911.8" cy="75.7" r="2.3" fill="#b9bdca" opacity="0.5"/><circle cx="913.7" cy="76.7" r="2.3" fill="#b9bdca" opacity="0.5"/><circle cx="913.9" cy="75.8" r="2.3" fill="#b9bdca" opacity="0.5"/><circle cx="914.9" cy="75.3" r="2.3" fill="#b9bdca" opacity="0.5"/><circle cx="915.4" cy="74.7" r="2.3" fill="#b9bdca" opacity="0.5"/><circle cx="915.7" cy="83.4" r="2.3" fill="#b9bdca" opacity="0.5"/><circle cx="916.5" cy="76.2" r="2.3" fill="#b9bdca" opacity="0.5"/><circle cx="917.3" cy="78.1" r="2.3" fill="#b9bdca" opacity="0.5"/><circle cx="918.1" cy="74.7" r="2.3" fill="#b9bdca" opacity="0.5"/><circle cx="923.6" cy="89.3" r="2.3" fill="#b9bdca" opacity="0.5"/><circle cx="934.7" cy="74.4" r="2.3" fill="#b9bdca" opacity="0.5"/><circle cx="952.4" cy="74.4" r="2.3" fill="#b9bdca" opacity="0.5"/><circle cx="955.2" cy="335.1" r="2.3" fill="#b9bdca" opacity="0.5"/><circle cx="955.3" cy="81.7" r="2.3" fill="#b9bdca" opacity="0.5"/><circle cx="957.4" cy="74.6" r="2.3" fill="#b9bdca" opacity="0.5"/><circle cx="957.4" cy="82.1" r="2.3" fill="#b9bdca" opacity="0.5"/><circle cx="957.5" cy="73.9" r="2.3" fill="#b9bdca" opacity="0.5"/><circle cx="962.5" cy="76.2" r="2.3" fill="#b9bdca" opacity="0.5"/><circle cx="963.3" cy="82.1" r="2.3" fill="#b9bdca" opacity="0.5"/><circle cx="964.0" cy="74.2" r="2.3" fill="#b9bdca" opacity="0.5"/><circle cx="964.1" cy="75.0" r="2.3" fill="#b9bdca" opacity="0.5"/><circle cx="965.1" cy="73.6" r="2.3" fill="#b9bdca" opacity="0.5"/><circle cx="965.2" cy="83.3" r="2.3" fill="#b9bdca" opacity="0.5"/><circle cx="965.2" cy="83.8" r="2.3" fill="#b9bdca" opacity="0.5"/><circle cx="965.3" cy="78.1" r="2.3" fill="#b9bdca" opacity="0.5"/><circle cx="965.3" cy="81.5" r="2.3" fill="#b9bdca" opacity="0.5"/><circle cx="965.3" cy="83.0" r="2.3" fill="#b9bdca" opacity="0.5"/><circle cx="965.3" cy="83.7" r="2.3" fill="#b9bdca" opacity="0.5"/><circle cx="972.2" cy="82.7" r="2.3" fill="#b9bdca" opacity="0.5"/><circle cx="973.8" cy="77.8" r="2.3" fill="#b9bdca" opacity="0.5"/><circle cx="977.4" cy="69.8" r="2.3" fill="#b9bdca" opacity="0.5"/><circle cx="978.7" cy="75.9" r="2.3" fill="#b9bdca" opacity="0.5"/><circle cx="979.1" cy="74.3" r="2.3" fill="#b9bdca" opacity="0.5"/><circle cx="979.1" cy="77.4" r="2.3" fill="#b9bdca" opacity="0.5"/><circle cx="979.1" cy="80.6" r="2.3" fill="#b9bdca" opacity="0.5"/><circle cx="979.1" cy="81.8" r="2.3" fill="#b9bdca" opacity="0.5"/><circle cx="981.7" cy="76.9" r="2.3" fill="#b9bdca" opacity="0.5"/><circle cx="981.7" cy="82.8" r="2.3" fill="#b9bdca" opacity="0.5"/><circle cx="981.7" cy="83.0" r="2.3" fill="#b9bdca" opacity="0.5"/><circle cx="981.7" cy="83.1" r="2.3" fill="#b9bdca" opacity="0.5"/><circle cx="982.8" cy="69.1" r="2.3" fill="#b9bdca" opacity="0.5"/><circle cx="985.7" cy="75.5" r="2.3" fill="#b9bdca" opacity="0.5"/><circle cx="987.3" cy="74.3" r="2.3" fill="#b9bdca" opacity="0.5"/><circle cx="1032.0" cy="74.0" r="2.3" fill="#b9bdca" opacity="0.5"/><path d="M285.0 152.3L288.6 155.9L285.0 159.5L281.4 155.9Z" fill="#2b3a7a" opacity="0.8" stroke="none" stroke-width="0"/><path d="M299.6 138.2L303.2 141.8L299.6 145.4L296.0 141.8Z" fill="#2b3a7a" opacity="0.8" stroke="none" stroke-width="0"/><path d="M301.6 128.1L305.2 131.7L301.6 135.3L298.0 131.7Z" fill="#2b3a7a" opacity="0.8" stroke="none" stroke-width="0"/><path d="M301.8 130.5L305.4 134.1L301.8 137.7L298.2 134.1Z" fill="#2b3a7a" opacity="0.8" stroke="none" stroke-width="0"/><path d="M303.4 127.3L307.0 130.9L303.4 134.5L299.8 130.9Z" fill="#2b3a7a" opacity="0.8" stroke="none" stroke-width="0"/><path d="M304.1 125.9L307.7 129.5L304.1 133.1L300.5 129.5Z" fill="#2b3a7a" opacity="0.8" stroke="none" stroke-width="0"/><path d="M304.2 127.3L307.8 130.9L304.2 134.5L300.6 130.9Z" fill="#2b3a7a" opacity="0.8" stroke="none" stroke-width="0"/><path d="M349.6 125.9L353.2 129.5L349.6 133.1L346.0 129.5Z" fill="#2b3a7a" opacity="0.8" stroke="none" stroke-width="0"/><path d="M356.4 125.3L360.0 128.9L356.4 132.5L352.8 128.9Z" fill="#2b3a7a" opacity="0.8" stroke="none" stroke-width="0"/><path d="M362.9 124.8L366.5 128.4L362.9 132.0L359.3 128.4Z" fill="#2b3a7a" opacity="0.8" stroke="none" stroke-width="0"/><path d="M367.4 124.6L371.0 128.2L367.4 131.8L363.8 128.2Z" fill="#2b3a7a" opacity="0.8" stroke="none" stroke-width="0"/><path d="M387.9 124.4L391.5 128.0L387.9 131.6L384.3 128.0Z" fill="#2b3a7a" opacity="0.8" stroke="none" stroke-width="0"/><path d="M409.4 109.2L413.0 112.8L409.4 116.4L405.8 112.8Z" fill="#2b3a7a" opacity="0.8" stroke="none" stroke-width="0"/><path d="M419.5 108.0L423.1 111.6L419.5 115.2L415.9 111.6Z" fill="#2b3a7a" opacity="0.8" stroke="none" stroke-width="0"/><path d="M422.5 101.9L426.1 105.5L422.5 109.1L418.9 105.5Z" fill="#2b3a7a" opacity="0.8" stroke="none" stroke-width="0"/><path d="M423.0 104.9L426.6 108.5L423.0 112.1L419.4 108.5Z" fill="#2b3a7a" opacity="0.8" stroke="none" stroke-width="0"/><path d="M424.3 101.5L427.9 105.1L424.3 108.7L420.7 105.1Z" fill="#2b3a7a" opacity="0.8" stroke="none" stroke-width="0"/><path d="M425.6 100.2L429.2 103.8L425.6 107.4L422.0 103.8Z" fill="#2b3a7a" opacity="0.8" stroke="none" stroke-width="0"/><path d="M440.4 99.9L444.0 103.5L440.4 107.1L436.8 103.5Z" fill="#2b3a7a" opacity="0.8" stroke="none" stroke-width="0"/><path d="M468.3 86.0L471.9 89.6L468.3 93.2L464.7 89.6Z" fill="#2b3a7a" opacity="0.8" stroke="none" stroke-width="0"/><path d="M473.2 85.7L476.8 89.3L473.2 92.9L469.6 89.3Z" fill="#2b3a7a" opacity="0.8" stroke="none" stroke-width="0"/><path d="M474.2 84.0L477.8 87.6L474.2 91.2L470.6 87.6Z" fill="#2b3a7a" opacity="0.8" stroke="none" stroke-width="0"/><path d="M479.1 81.8L482.7 85.4L479.1 89.0L475.5 85.4Z" fill="#2b3a7a" opacity="0.8" stroke="none" stroke-width="0"/><path d="M494.8 80.8L498.4 84.4L494.8 88.0L491.2 84.4Z" fill="#2b3a7a" opacity="0.8" stroke="none" stroke-width="0"/><path d="M613.5 80.8L617.1 84.4L613.5 88.0L609.9 84.4Z" fill="#2b3a7a" opacity="0.8" stroke="none" stroke-width="0"/><path d="M909.2 72.2L912.8 75.8L909.2 79.4L905.6 75.8Z" fill="#2b3a7a" opacity="0.8" stroke="none" stroke-width="0"/><path d="M911.8 72.1L915.4 75.7L911.8 79.3L908.2 75.7Z" fill="#2b3a7a" opacity="0.8" stroke="none" stroke-width="0"/><path d="M914.9 71.7L918.5 75.3L914.9 78.9L911.3 75.3Z" fill="#2b3a7a" opacity="0.8" stroke="none" stroke-width="0"/><path d="M915.4 71.1L919.0 74.7L915.4 78.3L911.8 74.7Z" fill="#2b3a7a" opacity="0.8" stroke="none" stroke-width="0"/><path d="M918.1 71.1L921.7 74.7L918.1 78.3L914.5 74.7Z" fill="#2b3a7a" opacity="0.8" stroke="none" stroke-width="0"/><path d="M934.7 70.8L938.3 74.4L934.7 78.0L931.1 74.4Z" fill="#2b3a7a" opacity="0.8" stroke="none" stroke-width="0"/><path d="M957.5 70.3L961.1 73.9L957.5 77.5L953.9 73.9Z" fill="#2b3a7a" opacity="0.8" stroke="none" stroke-width="0"/><path d="M965.1 70.0L968.7 73.6L965.1 77.2L961.5 73.6Z" fill="#2b3a7a" opacity="0.8" stroke="none" stroke-width="0"/><path d="M60.0 335.3L63.7 335.3L63.7 335.1L68.8 335.1L68.8 320.7L79.0 320.7L79.0 319.9L82.8 319.9L82.8 315.3L83.8 315.3L83.8 314.9L85.4 314.9L85.4 314.9L146.1 314.9L146.1 238.7L147.1 238.7L147.1 229.0L148.1 229.0L148.1 222.3L149.3 222.3L149.3 220.6L149.5 220.6L149.5 220.5L150.2 220.5L150.2 214.2L152.5 214.2L152.5 214.1L153.2 214.1L153.2 213.7L153.7 213.7L153.7 213.5L154.3 213.5L154.3 212.7L157.3 212.7L157.3 212.1L158.1 212.1L158.1 212.0L166.2 212.0L166.2 206.7L175.3 206.7L175.3 204.9L178.7 204.9L178.7 204.6L180.9 204.6L180.9 201.9L185.0 201.9L185.0 201.8L187.0 201.8L187.0 201.0L188.2 201.0L188.2 200.0L194.1 200.0L194.1 200.0L196.5 200.0L196.5 199.7L216.3 199.7L216.3 195.5L231.2 195.5L231.2 187.4L231.6 187.4L231.6 186.2L232.6 186.2L232.6 184.5L258.5 184.5L258.5 183.9L271.3 183.9L271.3 169.3L275.6 169.3L275.6 168.8L275.9 168.8L275.9 167.7L278.4 167.7L278.4 165.0L279.3 165.0L279.3 163.7L279.6 163.7L279.6 163.6L285.0 163.6L285.0 155.9L291.8 155.9L291.8 155.8L294.3 155.8L294.3 141.9L299.6 141.9L299.6 141.8L301.6 141.8L301.6 131.7L303.4 131.7L303.4 130.9L304.1 130.9L304.1 129.5L349.6 129.5L349.6 129.5L356.4 129.5L356.4 128.9L362.9 128.9L362.9 128.4L367.4 128.4L367.4 128.2L387.9 128.2L387.9 128.0L409.4 128.0L409.4 112.8L414.1 112.8L414.1 110.2L422.5 110.2L422.5 105.5L424.3 105.5L424.3 105.1L425.6 105.1L425.6 103.8L440.4 103.8L440.4 103.5L468.3 103.5L468.3 89.6L473.2 89.6L473.2 89.3L474.2 89.3L474.2 87.6L479.1 87.6L479.1 85.4L494.8 85.4L494.8 84.4L613.5 84.4L613.5 84.4L909.2 84.4L909.2 75.8L911.8 75.8L911.8 75.7L914.9 75.7L914.9 75.3L915.4 75.3L915.4 74.7L918.1 74.7L918.1 74.7L934.7 74.7L934.7 74.4L957.5 74.4L957.5 73.9L965.1 73.9L965.1 73.6L977.4 73.6L977.4 69.8L982.8 69.8L982.8 69.1L1032.0 69.1" fill="none" stroke="#6675b0" stroke-width="1.6" stroke-dasharray="5 3" opacity="0.75"/><path d="M285.0 155.9L299.6 155.9L299.6 141.8L301.6 141.8L301.6 131.7L303.4 131.7L303.4 130.9L304.1 130.9L304.1 129.5L349.6 129.5L349.6 129.5L356.4 129.5L356.4 128.9L362.9 128.9L362.9 128.4L367.4 128.4L367.4 128.2L387.9 128.2L387.9 128.0L409.4 128.0L409.4 112.8L419.5 112.8L419.5 111.6L422.5 111.6L422.5 105.5L424.3 105.5L424.3 105.1L425.6 105.1L425.6 103.8L440.4 103.8L440.4 103.5L468.3 103.5L468.3 89.6L473.2 89.6L473.2 89.3L474.2 89.3L474.2 87.6L479.1 87.6L479.1 85.4L494.8 85.4L494.8 84.4L613.5 84.4L613.5 84.4L909.2 84.4L909.2 75.8L911.8 75.8L911.8 75.7L914.9 75.7L914.9 75.3L915.4 75.3L915.4 74.7L918.1 74.7L918.1 74.7L934.7 74.7L934.7 74.4L957.5 74.4L957.5 73.9L965.1 73.9L965.1 73.6L977.5 73.6L977.5 73.5L1032.0 73.5" fill="none" stroke="#2b3a7a" stroke-width="2.6"/><path d="M813.3 246.9L819.8 253.4L813.3 259.9L806.8 253.4Z" fill="#c5961a" opacity="1.0" stroke="#ffffff" stroke-width="1.4"/><path d="M960.5 206.5L967.0 213.0L960.5 219.5L954.0 213.0Z" fill="#c5961a" opacity="1.0" stroke="#ffffff" stroke-width="1.4"/><path d="M977.5 67.0L984.0 73.5L977.5 80.0L971.0 73.5Z" fill="#c5961a" opacity="1.0" stroke="#ffffff" stroke-width="1.4"/><text x="1042" y="67.1" font-size="11.5" fill="#6675b0">– – raw best 513.8</text><text x="1042" y="81.1" font-size="10" fill="#8a8fa3">unverified (pending)</text><path d="M977.5 67.0L984.0 73.5L977.5 80.0L971.0 73.5Z" fill="#c5961a" opacity="1.0" stroke="#ffffff" stroke-width="1.4"/><text x="1042" y="101.5" font-size="12.5" fill="#2b3a7a" font-weight="bold">◆ verified 506.7</text><text x="1042" y="117.5" font-size="10.5" fill="#3a3f55">mikasa-inbound · #1 verified</text><text x="60" y="24" font-size="13" font-weight="bold" fill="#3a3f55" letter-spacing="1.2">SCORE EVOLUTION — gemma-challenge (tok/s)</text><circle cx="452" cy="20" r="3" fill="#b9bdca"/><text x="460" y="24" font-size="10.5" fill="#8a8fa3">all results</text><path d="M544.0 16.4L547.6 20.0L544.0 23.6L540.4 20.0Z" fill="#2b3a7a" opacity="1.0" stroke="none" stroke-width="0"/><text x="552" y="24" font-size="10.5" fill="#8a8fa3">verified</text><path d="M620.0 15.5L624.5 20.0L620.0 24.5L615.5 20.0Z" fill="#c5961a" opacity="1.0" stroke="#fff" stroke-width="1"/><text x="629" y="24" font-size="10.5" fill="#8a8fa3">mikasa-inbound (us)</text></svg>