<svg viewBox="0 0 1200 440" xmlns="http://www.w3.org/2000/svg" font-family="ui-sans-serif,system-ui,-apple-system,sans-serif"><rect x="0" y="0" width="1200" height="440" fill="#ffffff"/><rect x="60" y="46" width="972" height="350" fill="#f3f4fb"/><line x1="60" y1="396.0" x2="1032" y2="396.0" stroke="#e3e5ef" stroke-width="1"/><text x="52" y="400.0" text-anchor="end" font-size="11" fill="#8a8fa3">0</text><line x1="60" y1="332.4" x2="1032" y2="332.4" stroke="#e3e5ef" stroke-width="1"/><text x="52" y="336.4" text-anchor="end" font-size="11" fill="#8a8fa3">100</text><line x1="60" y1="268.7" x2="1032" y2="268.7" stroke="#e3e5ef" stroke-width="1"/><text x="52" y="272.7" text-anchor="end" font-size="11" fill="#8a8fa3">200</text><line x1="60" y1="205.1" x2="1032" y2="205.1" stroke="#e3e5ef" stroke-width="1"/><text x="52" y="209.1" text-anchor="end" font-size="11" fill="#8a8fa3">300</text><line x1="60" y1="141.5" x2="1032" y2="141.5" stroke="#e3e5ef" stroke-width="1"/><text x="52" y="145.5" text-anchor="end" font-size="11" fill="#8a8fa3">400</text><line x1="60" y1="77.8" x2="1032" y2="77.8" stroke="#e3e5ef" stroke-width="1"/><text x="52" y="81.8" text-anchor="end" font-size="11" fill="#8a8fa3">500</text><line x1="113.2" y1="46" x2="113.2" y2="396" stroke="#e3e5ef" stroke-width="1"/><text x="113.2" y="414.0" text-anchor="middle" font-size="11" fill="#8a8fa3">Jun 10</text><line x1="189.2" y1="46" x2="189.2" y2="396" stroke="#e3e5ef" stroke-width="1"/><text x="189.2" y="414.0" text-anchor="middle" font-size="11" fill="#8a8fa3">Jun 12</text><line x1="265.1" y1="46" x2="265.1" y2="396" stroke="#e3e5ef" stroke-width="1"/><text x="265.1" y="414.0" text-anchor="middle" font-size="11" fill="#8a8fa3">Jun 14</text><line x1="341.0" y1="46" x2="341.0" y2="396" stroke="#e3e5ef" stroke-width="1"/><text x="341.0" y="414.0" text-anchor="middle" font-size="11" fill="#8a8fa3">Jun 16</text><line x1="416.9" y1="46" x2="416.9" y2="396" stroke="#e3e5ef" stroke-width="1"/><text x="416.9" y="414.0" text-anchor="middle" font-size="11" fill="#8a8fa3">Jun 18</text><line x1="492.9" y1="46" x2="492.9" y2="396" stroke="#e3e5ef" stroke-width="1"/><text x="492.9" y="414.0" text-anchor="middle" font-size="11" fill="#8a8fa3">Jun 20</text><line x1="568.8" y1="46" x2="568.8" y2="396" stroke="#e3e5ef" stroke-width="1"/><text x="568.8" y="414.0" text-anchor="middle" font-size="11" fill="#8a8fa3">Jun 22</text><line x1="644.7" y1="46" x2="644.7" y2="396" stroke="#e3e5ef" stroke-width="1"/><text x="644.7" y="414.0" text-anchor="middle" font-size="11" fill="#8a8fa3">Jun 24</text><line x1="720.7" y1="46" x2="720.7" y2="396" stroke="#e3e5ef" stroke-width="1"/><text x="720.7" y="414.0" text-anchor="middle" font-size="11" fill="#8a8fa3">Jun 26</text><line x1="796.6" y1="46" x2="796.6" y2="396" stroke="#e3e5ef" stroke-width="1"/><text x="796.6" y="414.0" text-anchor="middle" font-size="11" fill="#8a8fa3">Jun 28</text><line x1="872.5" y1="46" x2="872.5" y2="396" stroke="#e3e5ef" stroke-width="1"/><text x="872.5" y="414.0" text-anchor="middle" font-size="11" fill="#8a8fa3">Jun 30</text><line x1="948.5" y1="46" x2="948.5" y2="396" stroke="#e3e5ef" stroke-width="1"/><text x="948.5" y="414.0" text-anchor="middle" font-size="11" fill="#8a8fa3">Jul 2</text><line x1="1024.4" y1="46" x2="1024.4" y2="396" stroke="#e3e5ef" stroke-width="1"/><text x="1024.4" y="414.0" text-anchor="middle" font-size="11" fill="#8a8fa3">Jul 4</text><circle cx="60.0" cy="335.3" r="2.3" fill="#b9bdca" opacity="0.5"/><circle cx="61.8" cy="335.1" r="2.3" fill="#b9bdca" opacity="0.5"/><circle cx="63.7" cy="368.0" r="2.3" fill="#b9bdca" opacity="0.5"/><circle cx="64.4" cy="320.7" r="2.3" fill="#b9bdca" opacity="0.5"/><circle cx="69.4" cy="319.9" r="2.3" fill="#b9bdca" opacity="0.5"/><circle cx="69.7" cy="320.6" r="2.3" fill="#b9bdca" opacity="0.5"/><circle cx="71.3" cy="315.3" r="2.3" fill="#b9bdca" opacity="0.5"/><circle cx="71.7" cy="319.7" r="2.3" fill="#b9bdca" opacity="0.5"/><circle cx="71.8" cy="314.9" r="2.3" fill="#b9bdca" opacity="0.5"/><circle cx="72.4" cy="315.5" r="2.3" fill="#b9bdca" opacity="0.5"/><circle cx="72.7" cy="314.9" r="2.3" fill="#b9bdca" opacity="0.5"/><circle cx="73.2" cy="315.4" r="2.3" fill="#b9bdca" opacity="0.5"/><circle cx="74.1" cy="315.0" r="2.3" fill="#b9bdca" opacity="0.5"/><circle cx="102.9" cy="238.7" r="2.3" fill="#b9bdca" opacity="0.5"/><circle cx="103.1" cy="315.0" r="2.3" fill="#b9bdca" opacity="0.5"/><circle cx="103.4" cy="229.0" r="2.3" fill="#b9bdca" opacity="0.5"/><circle cx="103.8" cy="222.3" r="2.3" fill="#b9bdca" opacity="0.5"/><circle cx="104.3" cy="228.0" r="2.3" fill="#b9bdca" opacity="0.5"/><circle cx="104.4" cy="223.3" r="2.3" fill="#b9bdca" opacity="0.5"/><circle cx="104.5" cy="220.6" r="2.3" fill="#b9bdca" opacity="0.5"/><circle cx="104.6" cy="220.5" r="2.3" fill="#b9bdca" opacity="0.5"/><circle cx="104.7" cy="223.2" r="2.3" fill="#b9bdca" opacity="0.5"/><circle cx="104.9" cy="214.2" r="2.3" fill="#b9bdca" opacity="0.5"/><circle cx="105.0" cy="222.1" r="2.3" fill="#b9bdca" opacity="0.5"/><circle cx="105.2" cy="220.7" r="2.3" fill="#b9bdca" opacity="0.5"/><circle cx="105.5" cy="218.5" r="2.3" fill="#b9bdca" opacity="0.5"/><circle cx="105.6" cy="215.2" r="2.3" fill="#b9bdca" opacity="0.5"/><circle cx="105.8" cy="214.3" r="2.3" fill="#b9bdca" opacity="0.5"/><circle cx="105.8" cy="219.2" r="2.3" fill="#b9bdca" opacity="0.5"/><circle cx="106.0" cy="214.1" r="2.3" fill="#b9bdca" opacity="0.5"/><circle cx="106.2" cy="215.2" r="2.3" fill="#b9bdca" opacity="0.5"/><circle cx="106.4" cy="213.7" r="2.3" fill="#b9bdca" opacity="0.5"/><circle cx="106.6" cy="213.5" r="2.3" fill="#b9bdca" opacity="0.5"/><circle cx="106.8" cy="214.8" r="2.3" fill="#b9bdca" opacity="0.5"/><circle cx="106.8" cy="217.7" r="2.3" fill="#b9bdca" opacity="0.5"/><circle cx="107.0" cy="212.7" r="2.3" fill="#b9bdca" opacity="0.5"/><circle cx="107.4" cy="213.3" r="2.3" fill="#b9bdca" opacity="0.5"/><circle cx="107.9" cy="212.7" r="2.3" fill="#b9bdca" opacity="0.5"/><circle cx="107.9" cy="213.6" r="2.3" fill="#b9bdca" opacity="0.5"/><circle cx="108.1" cy="213.0" r="2.3" fill="#b9bdca" opacity="0.5"/><circle cx="108.4" cy="212.1" r="2.3" fill="#b9bdca" opacity="0.5"/><circle cx="108.5" cy="213.3" r="2.3" fill="#b9bdca" opacity="0.5"/><circle cx="108.8" cy="212.0" r="2.3" fill="#b9bdca" opacity="0.5"/><circle cx="109.4" cy="212.1" r="2.3" fill="#b9bdca" opacity="0.5"/><circle cx="109.4" cy="212.8" r="2.3" fill="#b9bdca" opacity="0.5"/><circle cx="112.9" cy="206.7" r="2.3" fill="#b9bdca" opacity="0.5"/><circle cx="113.3" cy="206.8" r="2.3" fill="#b9bdca" opacity="0.5"/><circle cx="113.3" cy="212.5" r="2.3" fill="#b9bdca" opacity="0.5"/><circle cx="113.6" cy="207.2" r="2.3" fill="#b9bdca" opacity="0.5"/><circle cx="114.7" cy="207.0" r="2.3" fill="#b9bdca" opacity="0.5"/><circle cx="117.4" cy="204.9" r="2.3" fill="#b9bdca" opacity="0.5"/><circle cx="119.1" cy="204.6" r="2.3" fill="#b9bdca" opacity="0.5"/><circle cx="119.2" cy="212.3" r="2.3" fill="#b9bdca" opacity="0.5"/><circle cx="119.5" cy="204.6" r="2.3" fill="#b9bdca" opacity="0.5"/><circle cx="119.5" cy="204.6" r="2.3" fill="#b9bdca" opacity="0.5"/><circle cx="119.5" cy="204.9" r="2.3" fill="#b9bdca" opacity="0.5"/><circle cx="119.5" cy="204.9" r="2.3" fill="#b9bdca" opacity="0.5"/><circle cx="120.2" cy="201.9" r="2.3" fill="#b9bdca" opacity="0.5"/><circle cx="121.2" cy="206.5" r="2.3" fill="#b9bdca" opacity="0.5"/><circle cx="121.6" cy="205.8" r="2.3" fill="#b9bdca" opacity="0.5"/><circle cx="121.6" cy="335.1" r="2.3" fill="#b9bdca" opacity="0.5"/><circle cx="122.2" cy="201.8" r="2.3" fill="#b9bdca" opacity="0.5"/><circle cx="122.2" cy="202.2" r="2.3" fill="#b9bdca" opacity="0.5"/><circle cx="123.2" cy="201.0" r="2.3" fill="#b9bdca" opacity="0.5"/><circle cx="123.6" cy="203.1" r="2.3" fill="#b9bdca" opacity="0.5"/><circle cx="123.8" cy="200.0" r="2.3" fill="#b9bdca" opacity="0.5"/><circle cx="123.8" cy="204.6" r="2.3" fill="#b9bdca" opacity="0.5"/><circle cx="124.4" cy="202.3" r="2.3" fill="#b9bdca" opacity="0.5"/><circle cx="125.7" cy="200.4" r="2.3" fill="#b9bdca" opacity="0.5"/><circle cx="126.2" cy="200.7" r="2.3" fill="#b9bdca" opacity="0.5"/><circle cx="126.7" cy="200.0" r="2.3" fill="#b9bdca" opacity="0.5"/><circle cx="127.9" cy="199.7" r="2.3" fill="#b9bdca" opacity="0.5"/><circle cx="135.2" cy="200.6" r="2.3" fill="#b9bdca" opacity="0.5"/><circle cx="135.8" cy="201.8" r="2.3" fill="#b9bdca" opacity="0.5"/><circle cx="136.8" cy="208.4" r="2.3" fill="#b9bdca" opacity="0.5"/><circle cx="136.8" cy="200.8" r="2.3" fill="#b9bdca" opacity="0.5"/><circle cx="137.5" cy="200.7" r="2.3" fill="#b9bdca" opacity="0.5"/><circle cx="137.5" cy="201.9" r="2.3" fill="#b9bdca" opacity="0.5"/><circle cx="137.8" cy="195.5" r="2.3" fill="#b9bdca" opacity="0.5"/><circle cx="138.5" cy="196.9" r="2.3" fill="#b9bdca" opacity="0.5"/><circle cx="138.8" cy="197.9" r="2.3" fill="#b9bdca" opacity="0.5"/><circle cx="139.4" cy="196.1" r="2.3" fill="#b9bdca" opacity="0.5"/><circle cx="141.7" cy="197.3" r="2.3" fill="#b9bdca" opacity="0.5"/><circle cx="142.3" cy="195.9" r="2.3" fill="#b9bdca" opacity="0.5"/><circle cx="142.5" cy="201.0" r="2.3" fill="#b9bdca" opacity="0.5"/><circle cx="142.7" cy="197.5" r="2.3" fill="#b9bdca" opacity="0.5"/><circle cx="143.2" cy="196.9" r="2.3" fill="#b9bdca" opacity="0.5"/><circle cx="143.2" cy="197.1" r="2.3" fill="#b9bdca" opacity="0.5"/><circle cx="143.3" cy="197.0" r="2.3" fill="#b9bdca" opacity="0.5"/><circle cx="143.8" cy="196.0" r="2.3" fill="#b9bdca" opacity="0.5"/><circle cx="143.8" cy="196.0" r="2.3" fill="#b9bdca" opacity="0.5"/><circle cx="143.8" cy="197.9" r="2.3" fill="#b9bdca" opacity="0.5"/><circle cx="144.2" cy="197.8" r="2.3" fill="#b9bdca" opacity="0.5"/><circle cx="144.5" cy="196.2" r="2.3" fill="#b9bdca" opacity="0.5"/><circle cx="144.5" cy="197.5" r="2.3" fill="#b9bdca" opacity="0.5"/><circle cx="144.6" cy="196.9" r="2.3" fill="#b9bdca" opacity="0.5"/><circle cx="144.7" cy="195.5" r="2.3" fill="#b9bdca" opacity="0.5"/><circle cx="145.1" cy="198.1" r="2.3" fill="#b9bdca" opacity="0.5"/><circle cx="145.2" cy="187.4" r="2.3" fill="#b9bdca" opacity="0.5"/><circle cx="145.4" cy="186.2" r="2.3" fill="#b9bdca" opacity="0.5"/><circle cx="145.4" cy="196.3" r="2.3" fill="#b9bdca" opacity="0.5"/><circle cx="145.4" cy="197.2" r="2.3" fill="#b9bdca" opacity="0.5"/><circle cx="145.4" cy="197.8" r="2.3" fill="#b9bdca" opacity="0.5"/><circle cx="145.4" cy="368.0" r="2.3" fill="#b9bdca" opacity="0.5"/><circle cx="145.9" cy="184.5" r="2.3" fill="#b9bdca" opacity="0.5"/><circle cx="147.8" cy="184.6" r="2.3" fill="#b9bdca" opacity="0.5"/><circle cx="148.7" cy="185.6" r="2.3" fill="#b9bdca" opacity="0.5"/><circle cx="151.5" cy="188.7" r="2.3" fill="#b9bdca" opacity="0.5"/><circle cx="155.4" cy="185.4" r="2.3" fill="#b9bdca" opacity="0.5"/><circle cx="156.2" cy="185.2" r="2.3" fill="#b9bdca" opacity="0.5"/><circle cx="156.5" cy="186.6" r="2.3" fill="#b9bdca" opacity="0.5"/><circle cx="156.6" cy="185.3" r="2.3" fill="#b9bdca" opacity="0.5"/><circle cx="157.3" cy="185.3" r="2.3" fill="#b9bdca" opacity="0.5"/><circle cx="157.6" cy="185.0" r="2.3" fill="#b9bdca" opacity="0.5"/><circle cx="158.3" cy="184.9" r="2.3" fill="#b9bdca" opacity="0.5"/><circle cx="158.7" cy="185.1" r="2.3" fill="#b9bdca" opacity="0.5"/><circle cx="158.7" cy="185.2" r="2.3" fill="#b9bdca" opacity="0.5"/><circle cx="158.7" cy="186.4" r="2.3" fill="#b9bdca" opacity="0.5"/><circle cx="158.8" cy="183.9" r="2.3" fill="#b9bdca" opacity="0.5"/><circle cx="162.3" cy="184.4" r="2.3" fill="#b9bdca" opacity="0.5"/><circle cx="162.9" cy="184.2" r="2.3" fill="#b9bdca" opacity="0.5"/><circle cx="165.2" cy="169.3" r="2.3" fill="#b9bdca" opacity="0.5"/><circle cx="167.3" cy="168.8" r="2.3" fill="#b9bdca" opacity="0.5"/><circle cx="167.5" cy="167.7" r="2.3" fill="#b9bdca" opacity="0.5"/><circle cx="168.4" cy="201.4" r="2.3" fill="#b9bdca" opacity="0.5"/><circle cx="168.7" cy="165.0" r="2.3" fill="#b9bdca" opacity="0.5"/><circle cx="168.8" cy="198.2" r="2.3" fill="#b9bdca" opacity="0.5"/><circle cx="169.1" cy="163.7" r="2.3" fill="#b9bdca" opacity="0.5"/><circle cx="169.3" cy="163.6" r="2.3" fill="#b9bdca" opacity="0.5"/><circle cx="169.6" cy="165.9" r="2.3" fill="#b9bdca" opacity="0.5"/><circle cx="171.6" cy="165.1" r="2.3" fill="#b9bdca" opacity="0.5"/><circle cx="172.0" cy="155.9" r="2.3" fill="#b9bdca" opacity="0.5"/><circle cx="173.9" cy="196.5" r="2.3" fill="#b9bdca" opacity="0.5"/><circle cx="174.6" cy="157.4" r="2.3" fill="#b9bdca" opacity="0.5"/><circle cx="175.3" cy="155.8" r="2.3" fill="#b9bdca" opacity="0.5"/><circle cx="176.6" cy="141.9" r="2.3" fill="#b9bdca" opacity="0.5"/><circle cx="179.1" cy="156.1" r="2.3" fill="#b9bdca" opacity="0.5"/><circle cx="179.1" cy="156.4" r="2.3" fill="#b9bdca" opacity="0.5"/><circle cx="179.2" cy="141.8" r="2.3" fill="#b9bdca" opacity="0.5"/><circle cx="179.4" cy="196.0" r="2.3" fill="#b9bdca" opacity="0.5"/><circle cx="180.2" cy="131.7" r="2.3" fill="#b9bdca" opacity="0.5"/><circle cx="180.3" cy="134.1" r="2.3" fill="#b9bdca" opacity="0.5"/><circle cx="180.6" cy="141.1" r="2.3" fill="#b9bdca" opacity="0.5"/><circle cx="181.0" cy="134.0" r="2.3" fill="#b9bdca" opacity="0.5"/><circle cx="181.1" cy="130.9" r="2.3" fill="#b9bdca" opacity="0.5"/><circle cx="181.1" cy="154.2" r="2.3" fill="#b9bdca" opacity="0.5"/><circle cx="181.3" cy="133.6" r="2.3" fill="#b9bdca" opacity="0.5"/><circle cx="181.5" cy="129.5" r="2.3" fill="#b9bdca" opacity="0.5"/><circle cx="181.5" cy="130.9" r="2.3" fill="#b9bdca" opacity="0.5"/><circle cx="181.5" cy="133.4" r="2.3" fill="#b9bdca" opacity="0.5"/><circle cx="181.7" cy="131.2" r="2.3" fill="#b9bdca" opacity="0.5"/><circle cx="183.3" cy="189.8" r="2.3" fill="#b9bdca" opacity="0.5"/><circle cx="183.4" cy="133.2" r="2.3" fill="#b9bdca" opacity="0.5"/><circle cx="183.6" cy="133.5" r="2.3" fill="#b9bdca" opacity="0.5"/><circle cx="184.2" cy="130.1" r="2.3" fill="#b9bdca" opacity="0.5"/><circle cx="185.7" cy="130.3" r="2.3" fill="#b9bdca" opacity="0.5"/><circle cx="186.4" cy="303.1" r="2.3" fill="#b9bdca" opacity="0.5"/><circle cx="187.7" cy="133.2" r="2.3" fill="#b9bdca" opacity="0.5"/><circle cx="189.4" cy="144.2" r="2.3" fill="#b9bdca" opacity="0.5"/><circle cx="189.8" cy="135.3" r="2.3" fill="#b9bdca" opacity="0.5"/><circle cx="190.8" cy="133.4" r="2.3" fill="#b9bdca" opacity="0.5"/><circle cx="191.0" cy="159.9" r="2.3" fill="#b9bdca" opacity="0.5"/><circle cx="191.2" cy="130.8" r="2.3" fill="#b9bdca" opacity="0.5"/><circle cx="191.6" cy="133.2" r="2.3" fill="#b9bdca" opacity="0.5"/><circle cx="195.5" cy="130.9" r="2.3" fill="#b9bdca" opacity="0.5"/><circle cx="195.9" cy="130.9" r="2.3" fill="#b9bdca" opacity="0.5"/><circle cx="195.9" cy="133.8" r="2.3" fill="#b9bdca" opacity="0.5"/><circle cx="196.5" cy="130.4" r="2.3" fill="#b9bdca" opacity="0.5"/><circle cx="197.0" cy="153.7" r="2.3" fill="#b9bdca" opacity="0.5"/><circle cx="197.7" cy="133.3" r="2.3" fill="#b9bdca" opacity="0.5"/><circle cx="198.9" cy="156.5" r="2.3" fill="#b9bdca" opacity="0.5"/><circle cx="199.1" cy="132.3" r="2.3" fill="#b9bdca" opacity="0.5"/><circle cx="200.5" cy="147.2" r="2.3" fill="#b9bdca" opacity="0.5"/><circle cx="200.8" cy="133.6" r="2.3" fill="#b9bdca" opacity="0.5"/><circle cx="201.3" cy="129.5" r="2.3" fill="#b9bdca" opacity="0.5"/><circle cx="201.3" cy="133.3" r="2.3" fill="#b9bdca" opacity="0.5"/><circle cx="203.0" cy="133.3" r="2.3" fill="#b9bdca" opacity="0.5"/><circle cx="204.1" cy="129.5" r="2.3" fill="#b9bdca" opacity="0.5"/><circle cx="206.1" cy="130.6" r="2.3" fill="#b9bdca" opacity="0.5"/><circle cx="207.5" cy="128.9" r="2.3" fill="#b9bdca" opacity="0.5"/><circle cx="207.8" cy="132.7" r="2.3" fill="#b9bdca" opacity="0.5"/><circle cx="207.8" cy="133.1" r="2.3" fill="#b9bdca" opacity="0.5"/><circle cx="210.0" cy="129.8" r="2.3" fill="#b9bdca" opacity="0.5"/><circle cx="210.6" cy="333.8" r="2.3" fill="#b9bdca" opacity="0.5"/><circle cx="210.8" cy="128.4" r="2.3" fill="#b9bdca" opacity="0.5"/><circle cx="211.8" cy="129.8" r="2.3" fill="#b9bdca" opacity="0.5"/><circle cx="212.1" cy="128.9" r="2.3" fill="#b9bdca" opacity="0.5"/><circle cx="212.3" cy="128.9" r="2.3" fill="#b9bdca" opacity="0.5"/><circle cx="213.0" cy="128.2" r="2.3" fill="#b9bdca" opacity="0.5"/><circle cx="213.5" cy="129.7" r="2.3" fill="#b9bdca" opacity="0.5"/><circle cx="213.7" cy="142.3" r="2.3" fill="#b9bdca" opacity="0.5"/><circle cx="215.8" cy="128.8" r="2.3" fill="#b9bdca" opacity="0.5"/><circle cx="217.0" cy="161.1" r="2.3" fill="#b9bdca" opacity="0.5"/><circle cx="219.3" cy="164.4" r="2.3" fill="#b9bdca" opacity="0.5"/><circle cx="219.6" cy="248.3" r="2.3" fill="#b9bdca" opacity="0.5"/><circle cx="222.9" cy="135.4" r="2.3" fill="#b9bdca" opacity="0.5"/><circle cx="223.2" cy="128.0" r="2.3" fill="#b9bdca" opacity="0.5"/><circle cx="224.2" cy="229.0" r="2.3" fill="#b9bdca" opacity="0.5"/><circle cx="226.5" cy="128.1" r="2.3" fill="#b9bdca" opacity="0.5"/><circle cx="227.1" cy="128.6" r="2.3" fill="#b9bdca" opacity="0.5"/><circle cx="229.3" cy="128.8" r="2.3" fill="#b9bdca" opacity="0.5"/><circle cx="229.3" cy="129.6" r="2.3" fill="#b9bdca" opacity="0.5"/><circle cx="229.3" cy="130.9" r="2.3" fill="#b9bdca" opacity="0.5"/><circle cx="233.9" cy="112.8" r="2.3" fill="#b9bdca" opacity="0.5"/><circle cx="236.2" cy="110.2" r="2.3" fill="#b9bdca" opacity="0.5"/><circle cx="236.3" cy="111.6" r="2.3" fill="#b9bdca" opacity="0.5"/><circle cx="237.8" cy="111.0" r="2.3" fill="#b9bdca" opacity="0.5"/><circle cx="238.5" cy="335.1" r="2.3" fill="#b9bdca" opacity="0.5"/><circle cx="238.9" cy="111.6" r="2.3" fill="#b9bdca" opacity="0.5"/><circle cx="240.4" cy="105.5" r="2.3" fill="#b9bdca" opacity="0.5"/><circle cx="240.6" cy="108.5" r="2.3" fill="#b9bdca" opacity="0.5"/><circle cx="241.3" cy="105.1" r="2.3" fill="#b9bdca" opacity="0.5"/><circle cx="242.0" cy="103.8" r="2.3" fill="#b9bdca" opacity="0.5"/><circle cx="242.8" cy="125.8" r="2.3" fill="#b9bdca" opacity="0.5"/><circle cx="249.3" cy="103.5" r="2.3" fill="#b9bdca" opacity="0.5"/><circle cx="251.0" cy="127.8" r="2.3" fill="#b9bdca" opacity="0.5"/><circle cx="251.7" cy="334.3" r="2.3" fill="#b9bdca" opacity="0.5"/><circle cx="252.8" cy="128.6" r="2.3" fill="#b9bdca" opacity="0.5"/><circle cx="253.3" cy="128.6" r="2.3" fill="#b9bdca" opacity="0.5"/><circle cx="253.4" cy="128.6" r="2.3" fill="#b9bdca" opacity="0.5"/><circle cx="253.9" cy="256.6" r="2.3" fill="#b9bdca" opacity="0.5"/><circle cx="254.7" cy="254.6" r="2.3" fill="#b9bdca" opacity="0.5"/><circle cx="255.9" cy="128.6" r="2.3" fill="#b9bdca" opacity="0.5"/><circle cx="258.9" cy="250.1" r="2.3" fill="#b9bdca" opacity="0.5"/><circle cx="259.2" cy="161.4" r="2.3" fill="#b9bdca" opacity="0.5"/><circle cx="259.5" cy="206.6" r="2.3" fill="#b9bdca" opacity="0.5"/><circle cx="262.3" cy="113.5" r="2.3" fill="#b9bdca" opacity="0.5"/><circle cx="263.2" cy="89.6" r="2.3" fill="#b9bdca" opacity="0.5"/><circle cx="263.9" cy="90.2" r="2.3" fill="#b9bdca" opacity="0.5"/><circle cx="265.6" cy="89.3" r="2.3" fill="#b9bdca" opacity="0.5"/><circle cx="266.1" cy="87.6" r="2.3" fill="#b9bdca" opacity="0.5"/><circle cx="266.7" cy="185.0" r="2.3" fill="#b9bdca" opacity="0.5"/><circle cx="267.3" cy="131.6" r="2.3" fill="#b9bdca" opacity="0.5"/><circle cx="267.8" cy="87.8" r="2.3" fill="#b9bdca" opacity="0.5"/><circle cx="268.6" cy="85.4" r="2.3" fill="#b9bdca" opacity="0.5"/><circle cx="269.8" cy="86.8" r="2.3" fill="#b9bdca" opacity="0.5"/><circle cx="271.1" cy="88.4" r="2.3" fill="#b9bdca" opacity="0.5"/><circle cx="276.3" cy="89.5" r="2.3" fill="#b9bdca" opacity="0.5"/><circle cx="276.3" cy="155.6" r="2.3" fill="#b9bdca" opacity="0.5"/><circle cx="276.4" cy="84.4" r="2.3" fill="#b9bdca" opacity="0.5"/><circle cx="282.6" cy="89.2" r="2.3" fill="#b9bdca" opacity="0.5"/><circle cx="282.7" cy="90.5" r="2.3" fill="#b9bdca" opacity="0.5"/><circle cx="284.4" cy="87.7" r="2.3" fill="#b9bdca" opacity="0.5"/><circle cx="285.0" cy="367.9" r="2.3" fill="#b9bdca" opacity="0.5"/><circle cx="287.6" cy="164.3" r="2.3" fill="#b9bdca" opacity="0.5"/><circle cx="288.8" cy="94.6" r="2.3" fill="#b9bdca" opacity="0.5"/><circle cx="289.3" cy="89.6" r="2.3" fill="#b9bdca" opacity="0.5"/><circle cx="294.6" cy="124.6" r="2.3" fill="#b9bdca" opacity="0.5"/><circle cx="300.4" cy="146.2" r="2.3" fill="#b9bdca" opacity="0.5"/><circle cx="300.5" cy="90.5" r="2.3" fill="#b9bdca" opacity="0.5"/><circle cx="301.0" cy="87.7" r="2.3" fill="#b9bdca" opacity="0.5"/><circle cx="301.3" cy="87.7" r="2.3" fill="#b9bdca" opacity="0.5"/><circle cx="301.4" cy="89.6" r="2.3" fill="#b9bdca" opacity="0.5"/><circle cx="305.4" cy="93.0" r="2.3" fill="#b9bdca" opacity="0.5"/><circle cx="306.9" cy="85.5" r="2.3" fill="#b9bdca" opacity="0.5"/><circle cx="318.9" cy="334.8" r="2.3" fill="#b9bdca" opacity="0.5"/><circle cx="320.3" cy="86.3" r="2.3" fill="#b9bdca" opacity="0.5"/><circle cx="324.3" cy="85.5" r="2.3" fill="#b9bdca" opacity="0.5"/><circle cx="325.0" cy="84.6" r="2.3" fill="#b9bdca" opacity="0.5"/><circle cx="326.7" cy="87.8" r="2.3" fill="#b9bdca" opacity="0.5"/><circle cx="327.4" cy="84.4" r="2.3" fill="#b9bdca" opacity="0.5"/><circle cx="327.8" cy="84.8" r="2.3" fill="#b9bdca" opacity="0.5"/><circle cx="329.0" cy="87.4" r="2.3" fill="#b9bdca" opacity="0.5"/><circle cx="335.5" cy="84.4" r="2.3" fill="#b9bdca" opacity="0.5"/><circle cx="363.8" cy="89.3" r="2.3" fill="#b9bdca" opacity="0.5"/><circle cx="368.9" cy="88.6" r="2.3" fill="#b9bdca" opacity="0.5"/><circle cx="368.9" cy="92.1" r="2.3" fill="#b9bdca" opacity="0.5"/><circle cx="370.0" cy="156.8" r="2.3" fill="#b9bdca" opacity="0.5"/><circle cx="386.4" cy="201.6" r="2.3" fill="#b9bdca" opacity="0.5"/><circle cx="398.3" cy="315.6" r="2.3" fill="#b9bdca" opacity="0.5"/><circle cx="430.9" cy="87.7" r="2.3" fill="#b9bdca" opacity="0.5"/><circle cx="440.8" cy="87.6" r="2.3" fill="#b9bdca" opacity="0.5"/><circle cx="449.6" cy="87.2" r="2.3" fill="#b9bdca" opacity="0.5"/><circle cx="451.6" cy="88.8" r="2.3" fill="#b9bdca" opacity="0.5"/><circle cx="452.4" cy="89.2" r="2.3" fill="#b9bdca" opacity="0.5"/><circle cx="452.8" cy="90.9" r="2.3" fill="#b9bdca" opacity="0.5"/><circle cx="455.3" cy="87.7" r="2.3" fill="#b9bdca" opacity="0.5"/><circle cx="464.2" cy="88.6" r="2.3" fill="#b9bdca" opacity="0.5"/><circle cx="465.3" cy="89.7" r="2.3" fill="#b9bdca" opacity="0.5"/><circle cx="466.1" cy="88.2" r="2.3" fill="#b9bdca" opacity="0.5"/><circle cx="482.6" cy="75.8" r="2.3" fill="#b9bdca" opacity="0.5"/><circle cx="483.9" cy="75.7" r="2.3" fill="#b9bdca" opacity="0.5"/><circle cx="484.9" cy="76.7" r="2.3" fill="#b9bdca" opacity="0.5"/><circle cx="484.9" cy="75.8" r="2.3" fill="#b9bdca" opacity="0.5"/><circle cx="485.4" cy="75.3" r="2.3" fill="#b9bdca" opacity="0.5"/><circle cx="485.7" cy="74.7" r="2.3" fill="#b9bdca" opacity="0.5"/><circle cx="485.9" cy="83.4" r="2.3" fill="#b9bdca" opacity="0.5"/><circle cx="486.3" cy="76.2" r="2.3" fill="#b9bdca" opacity="0.5"/><circle cx="486.7" cy="78.1" r="2.3" fill="#b9bdca" opacity="0.5"/><circle cx="487.0" cy="74.7" r="2.3" fill="#b9bdca" opacity="0.5"/><circle cx="489.8" cy="89.3" r="2.3" fill="#b9bdca" opacity="0.5"/><circle cx="495.3" cy="74.4" r="2.3" fill="#b9bdca" opacity="0.5"/><circle cx="504.1" cy="74.4" r="2.3" fill="#b9bdca" opacity="0.5"/><circle cx="505.5" cy="335.1" r="2.3" fill="#b9bdca" opacity="0.5"/><circle cx="505.6" cy="81.7" r="2.3" fill="#b9bdca" opacity="0.5"/><circle cx="506.6" cy="74.6" r="2.3" fill="#b9bdca" opacity="0.5"/><circle cx="506.6" cy="82.1" r="2.3" fill="#b9bdca" opacity="0.5"/><circle cx="506.6" cy="73.9" r="2.3" fill="#b9bdca" opacity="0.5"/><circle cx="509.1" cy="76.2" r="2.3" fill="#b9bdca" opacity="0.5"/><circle cx="509.5" cy="82.1" r="2.3" fill="#b9bdca" opacity="0.5"/><circle cx="509.9" cy="74.2" r="2.3" fill="#b9bdca" opacity="0.5"/><circle cx="509.9" cy="75.0" r="2.3" fill="#b9bdca" opacity="0.5"/><circle cx="510.5" cy="73.6" r="2.3" fill="#b9bdca" opacity="0.5"/><circle cx="510.5" cy="83.3" r="2.3" fill="#b9bdca" opacity="0.5"/><circle cx="510.5" cy="83.8" r="2.3" fill="#b9bdca" opacity="0.5"/><circle cx="510.5" cy="78.1" r="2.3" fill="#b9bdca" opacity="0.5"/><circle cx="510.5" cy="81.5" r="2.3" fill="#b9bdca" opacity="0.5"/><circle cx="510.5" cy="83.0" r="2.3" fill="#b9bdca" opacity="0.5"/><circle cx="510.5" cy="83.7" r="2.3" fill="#b9bdca" opacity="0.5"/><circle cx="514.0" cy="82.7" r="2.3" fill="#b9bdca" opacity="0.5"/><circle cx="514.8" cy="77.8" r="2.3" fill="#b9bdca" opacity="0.5"/><circle cx="516.6" cy="69.8" r="2.3" fill="#b9bdca" opacity="0.5"/><circle cx="517.2" cy="75.9" r="2.3" fill="#b9bdca" opacity="0.5"/><circle cx="517.4" cy="74.3" r="2.3" fill="#b9bdca" opacity="0.5"/><circle cx="517.4" cy="77.4" r="2.3" fill="#b9bdca" opacity="0.5"/><circle cx="517.4" cy="80.6" r="2.3" fill="#b9bdca" opacity="0.5"/><circle cx="517.4" cy="81.8" r="2.3" fill="#b9bdca" opacity="0.5"/><circle cx="518.7" cy="76.9" r="2.3" fill="#b9bdca" opacity="0.5"/><circle cx="518.7" cy="82.8" r="2.3" fill="#b9bdca" opacity="0.5"/><circle cx="518.7" cy="83.0" r="2.3" fill="#b9bdca" opacity="0.5"/><circle cx="518.7" cy="83.1" r="2.3" fill="#b9bdca" opacity="0.5"/><circle cx="519.2" cy="69.1" r="2.3" fill="#b9bdca" opacity="0.5"/><circle cx="520.7" cy="75.5" r="2.3" fill="#b9bdca" opacity="0.5"/><circle cx="521.5" cy="74.3" r="2.3" fill="#b9bdca" opacity="0.5"/><circle cx="543.7" cy="74.0" r="2.3" fill="#b9bdca" opacity="0.5"/><circle cx="570.1" cy="73.4" r="2.3" fill="#b9bdca" opacity="0.5"/><circle cx="570.4" cy="75.9" r="2.3" fill="#b9bdca" opacity="0.5"/><circle cx="570.4" cy="76.3" r="2.3" fill="#b9bdca" opacity="0.5"/><circle cx="570.6" cy="76.0" r="2.3" fill="#b9bdca" opacity="0.5"/><circle cx="570.6" cy="76.8" r="2.3" fill="#b9bdca" opacity="0.5"/><circle cx="570.6" cy="81.2" r="2.3" fill="#b9bdca" opacity="0.5"/><circle cx="570.6" cy="83.4" r="2.3" fill="#b9bdca" opacity="0.5"/><circle cx="589.2" cy="76.6" r="2.3" fill="#b9bdca" opacity="0.5"/><circle cx="590.5" cy="76.7" r="2.3" fill="#b9bdca" opacity="0.5"/><circle cx="590.5" cy="82.8" r="2.3" fill="#b9bdca" opacity="0.5"/><circle cx="590.5" cy="82.8" r="2.3" fill="#b9bdca" opacity="0.5"/><circle cx="590.5" cy="83.3" r="2.3" fill="#b9bdca" opacity="0.5"/><circle cx="594.4" cy="233.4" r="2.3" fill="#b9bdca" opacity="0.5"/><circle cx="595.6" cy="228.9" r="2.3" fill="#b9bdca" opacity="0.5"/><circle cx="596.7" cy="198.3" r="2.3" fill="#b9bdca" opacity="0.5"/><circle cx="621.0" cy="73.4" r="2.3" fill="#b9bdca" opacity="0.5"/><circle cx="627.8" cy="192.4" r="2.3" fill="#b9bdca" opacity="0.5"/><circle cx="630.2" cy="75.3" r="2.3" fill="#b9bdca" opacity="0.5"/><circle cx="630.8" cy="74.0" r="2.3" fill="#b9bdca" opacity="0.5"/><circle cx="632.3" cy="194.4" r="2.3" fill="#b9bdca" opacity="0.5"/><circle cx="634.7" cy="168.6" r="2.3" fill="#b9bdca" opacity="0.5"/><circle cx="636.1" cy="77.1" r="2.3" fill="#b9bdca" opacity="0.5"/><circle cx="636.1" cy="99.5" r="2.3" fill="#b9bdca" opacity="0.5"/><circle cx="654.9" cy="71.4" r="2.3" fill="#b9bdca" opacity="0.5"/><circle cx="654.9" cy="73.5" r="2.3" fill="#b9bdca" opacity="0.5"/><circle cx="661.6" cy="72.4" r="2.3" fill="#b9bdca" opacity="0.5"/><circle cx="688.9" cy="83.0" r="2.3" fill="#b9bdca" opacity="0.5"/><circle cx="689.3" cy="72.1" r="2.3" fill="#b9bdca" opacity="0.5"/><circle cx="689.7" cy="71.6" r="2.3" fill="#b9bdca" opacity="0.5"/><circle cx="690.5" cy="75.5" r="2.3" fill="#b9bdca" opacity="0.5"/><circle cx="691.0" cy="73.7" r="2.3" fill="#b9bdca" opacity="0.5"/><circle cx="692.2" cy="72.9" r="2.3" fill="#b9bdca" opacity="0.5"/><circle cx="692.7" cy="73.4" r="2.3" fill="#b9bdca" opacity="0.5"/><circle cx="746.1" cy="85.2" r="2.3" fill="#b9bdca" opacity="0.5"/><circle cx="746.1" cy="256.6" r="2.3" fill="#b9bdca" opacity="0.5"/><circle cx="746.2" cy="335.3" r="2.3" fill="#b9bdca" opacity="0.5"/><circle cx="746.5" cy="86.8" r="2.3" fill="#b9bdca" opacity="0.5"/><circle cx="747.0" cy="71.5" r="2.3" fill="#b9bdca" opacity="0.5"/><circle cx="748.4" cy="71.0" r="2.3" fill="#b9bdca" opacity="0.5"/><circle cx="749.2" cy="71.5" r="2.3" fill="#b9bdca" opacity="0.5"/><circle cx="749.3" cy="55.0" r="2.3" fill="#b9bdca" opacity="0.5"/><circle cx="756.8" cy="83.1" r="2.3" fill="#b9bdca" opacity="0.5"/><circle cx="758.6" cy="74.7" r="2.3" fill="#b9bdca" opacity="0.5"/><circle cx="758.8" cy="59.3" r="2.3" fill="#b9bdca" opacity="0.5"/><circle cx="758.8" cy="79.9" r="2.3" fill="#b9bdca" opacity="0.5"/><circle cx="758.9" cy="74.1" r="2.3" fill="#b9bdca" opacity="0.5"/><circle cx="759.3" cy="72.7" r="2.3" fill="#b9bdca" opacity="0.5"/><circle cx="759.3" cy="73.8" r="2.3" fill="#b9bdca" opacity="0.5"/><circle cx="759.3" cy="75.9" r="2.3" fill="#b9bdca" opacity="0.5"/><circle cx="759.7" cy="74.1" r="2.3" fill="#b9bdca" opacity="0.5"/><circle cx="760.1" cy="73.5" r="2.3" fill="#b9bdca" opacity="0.5"/><circle cx="760.6" cy="74.2" r="2.3" fill="#b9bdca" opacity="0.5"/><circle cx="760.9" cy="71.5" r="2.3" fill="#b9bdca" opacity="0.5"/><circle cx="762.1" cy="74.3" r="2.3" fill="#b9bdca" opacity="0.5"/><circle cx="768.0" cy="73.2" r="2.3" fill="#b9bdca" opacity="0.5"/><circle cx="768.0" cy="73.6" r="2.3" fill="#b9bdca" opacity="0.5"/><circle cx="768.0" cy="73.8" r="2.3" fill="#b9bdca" opacity="0.5"/><circle cx="779.6" cy="73.3" r="2.3" fill="#b9bdca" opacity="0.5"/><circle cx="779.6" cy="73.4" r="2.3" fill="#b9bdca" opacity="0.5"/><circle cx="805.9" cy="96.1" r="2.3" fill="#b9bdca" opacity="0.5"/><circle cx="913.7" cy="95.6" r="2.3" fill="#b9bdca" opacity="0.5"/><circle cx="949.3" cy="74.8" r="2.3" fill="#b9bdca" opacity="0.5"/><circle cx="951.1" cy="72.3" r="2.3" fill="#b9bdca" opacity="0.5"/><circle cx="961.3" cy="79.9" r="2.3" fill="#b9bdca" opacity="0.5"/><circle cx="961.3" cy="80.6" r="2.3" fill="#b9bdca" opacity="0.5"/><circle cx="981.7" cy="73.3" r="2.3" fill="#b9bdca" opacity="0.5"/><circle cx="981.7" cy="72.8" r="2.3" fill="#b9bdca" opacity="0.5"/><circle cx="981.7" cy="73.0" r="2.3" fill="#b9bdca" opacity="0.5"/><circle cx="981.7" cy="73.2" r="2.3" fill="#b9bdca" opacity="0.5"/><circle cx="981.7" cy="73.5" r="2.3" fill="#b9bdca" opacity="0.5"/><circle cx="981.7" cy="73.6" r="2.3" fill="#b9bdca" opacity="0.5"/><circle cx="981.7" cy="73.7" r="2.3" fill="#b9bdca" opacity="0.5"/><circle cx="982.3" cy="73.1" r="2.3" fill="#b9bdca" opacity="0.5"/><circle cx="982.3" cy="73.2" r="2.3" fill="#b9bdca" opacity="0.5"/><circle cx="982.3" cy="74.3" r="2.3" fill="#b9bdca" opacity="0.5"/><circle cx="982.3" cy="74.5" r="2.3" fill="#b9bdca" opacity="0.5"/><circle cx="982.3" cy="72.8" r="2.3" fill="#b9bdca" opacity="0.5"/><circle cx="982.7" cy="74.7" r="2.3" fill="#b9bdca" opacity="0.5"/><circle cx="1032.0" cy="332.5" r="2.3" fill="#b9bdca" opacity="0.5"/><path d="M172.0 152.3L175.6 155.9L172.0 159.5L168.4 155.9Z" fill="#2b3a7a" opacity="0.8" stroke="none" stroke-width="0"/><path d="M179.2 138.2L182.8 141.8L179.2 145.4L175.6 141.8Z" fill="#2b3a7a" opacity="0.8" stroke="none" stroke-width="0"/><path d="M180.2 128.1L183.8 131.7L180.2 135.3L176.6 131.7Z" fill="#2b3a7a" opacity="0.8" stroke="none" stroke-width="0"/><path d="M180.3 130.5L183.9 134.1L180.3 137.7L176.7 134.1Z" fill="#2b3a7a" opacity="0.8" stroke="none" stroke-width="0"/><path d="M181.1 127.3L184.7 130.9L181.1 134.5L177.5 130.9Z" fill="#2b3a7a" opacity="0.8" stroke="none" stroke-width="0"/><path d="M181.5 125.9L185.1 129.5L181.5 133.1L177.9 129.5Z" fill="#2b3a7a" opacity="0.8" stroke="none" stroke-width="0"/><path d="M181.5 127.3L185.1 130.9L181.5 134.5L177.9 130.9Z" fill="#2b3a7a" opacity="0.8" stroke="none" stroke-width="0"/><path d="M204.1 125.9L207.7 129.5L204.1 133.1L200.5 129.5Z" fill="#2b3a7a" opacity="0.8" stroke="none" stroke-width="0"/><path d="M207.5 125.3L211.1 128.9L207.5 132.5L203.9 128.9Z" fill="#2b3a7a" opacity="0.8" stroke="none" stroke-width="0"/><path d="M210.8 124.8L214.4 128.4L210.8 132.0L207.2 128.4Z" fill="#2b3a7a" opacity="0.8" stroke="none" stroke-width="0"/><path d="M213.0 124.6L216.6 128.2L213.0 131.8L209.4 128.2Z" fill="#2b3a7a" opacity="0.8" stroke="none" stroke-width="0"/><path d="M223.2 124.4L226.8 128.0L223.2 131.6L219.6 128.0Z" fill="#2b3a7a" opacity="0.8" stroke="none" stroke-width="0"/><path d="M233.9 109.2L237.5 112.8L233.9 116.4L230.3 112.8Z" fill="#2b3a7a" opacity="0.8" stroke="none" stroke-width="0"/><path d="M238.9 108.0L242.5 111.6L238.9 115.2L235.3 111.6Z" fill="#2b3a7a" opacity="0.8" stroke="none" stroke-width="0"/><path d="M240.4 101.9L244.0 105.5L240.4 109.1L236.8 105.5Z" fill="#2b3a7a" opacity="0.8" stroke="none" stroke-width="0"/><path d="M240.6 104.9L244.2 108.5L240.6 112.1L237.0 108.5Z" fill="#2b3a7a" opacity="0.8" stroke="none" stroke-width="0"/><path d="M241.3 101.5L244.9 105.1L241.3 108.7L237.7 105.1Z" fill="#2b3a7a" opacity="0.8" stroke="none" stroke-width="0"/><path d="M242.0 100.2L245.6 103.8L242.0 107.4L238.4 103.8Z" fill="#2b3a7a" opacity="0.8" stroke="none" stroke-width="0"/><path d="M249.3 99.9L252.9 103.5L249.3 107.1L245.7 103.5Z" fill="#2b3a7a" opacity="0.8" stroke="none" stroke-width="0"/><path d="M263.2 86.0L266.8 89.6L263.2 93.2L259.6 89.6Z" fill="#2b3a7a" opacity="0.8" stroke="none" stroke-width="0"/><path d="M265.6 85.7L269.2 89.3L265.6 92.9L262.0 89.3Z" fill="#2b3a7a" opacity="0.8" stroke="none" stroke-width="0"/><path d="M266.1 84.0L269.7 87.6L266.1 91.2L262.5 87.6Z" fill="#2b3a7a" opacity="0.8" stroke="none" stroke-width="0"/><path d="M268.6 81.8L272.2 85.4L268.6 89.0L265.0 85.4Z" fill="#2b3a7a" opacity="0.8" stroke="none" stroke-width="0"/><path d="M276.4 80.8L280.0 84.4L276.4 88.0L272.8 84.4Z" fill="#2b3a7a" opacity="0.8" stroke="none" stroke-width="0"/><path d="M335.5 80.8L339.1 84.4L335.5 88.0L331.9 84.4Z" fill="#2b3a7a" opacity="0.8" stroke="none" stroke-width="0"/><path d="M482.6 72.2L486.2 75.8L482.6 79.4L479.0 75.8Z" fill="#2b3a7a" opacity="0.8" stroke="none" stroke-width="0"/><path d="M483.9 72.1L487.5 75.7L483.9 79.3L480.3 75.7Z" fill="#2b3a7a" opacity="0.8" stroke="none" stroke-width="0"/><path d="M485.4 71.7L489.0 75.3L485.4 78.9L481.8 75.3Z" fill="#2b3a7a" opacity="0.8" stroke="none" stroke-width="0"/><path d="M485.7 71.1L489.3 74.7L485.7 78.3L482.1 74.7Z" fill="#2b3a7a" opacity="0.8" stroke="none" stroke-width="0"/><path d="M487.0 71.1L490.6 74.7L487.0 78.3L483.4 74.7Z" fill="#2b3a7a" opacity="0.8" stroke="none" stroke-width="0"/><path d="M495.3 70.8L498.9 74.4L495.3 78.0L491.7 74.4Z" fill="#2b3a7a" opacity="0.8" stroke="none" stroke-width="0"/><path d="M506.6 70.3L510.2 73.9L506.6 77.5L503.0 73.9Z" fill="#2b3a7a" opacity="0.8" stroke="none" stroke-width="0"/><path d="M510.5 70.0L514.1 73.6L510.5 77.2L506.9 73.6Z" fill="#2b3a7a" opacity="0.8" stroke="none" stroke-width="0"/><path d="M570.1 69.8L573.7 73.4L570.1 77.0L566.5 73.4Z" fill="#2b3a7a" opacity="0.8" stroke="none" stroke-width="0"/><path d="M621.0 69.8L624.6 73.4L621.0 77.0L617.4 73.4Z" fill="#2b3a7a" opacity="0.8" stroke="none" stroke-width="0"/><path d="M654.9 67.8L658.5 71.4L654.9 75.0L651.3 71.4Z" fill="#2b3a7a" opacity="0.8" stroke="none" stroke-width="0"/><path d="M60.0 335.3L61.8 335.3L61.8 335.1L64.4 335.1L64.4 320.7L69.4 320.7L69.4 319.9L71.3 319.9L71.3 315.3L71.8 315.3L71.8 314.9L72.7 314.9L72.7 314.9L102.9 314.9L102.9 238.7L103.4 238.7L103.4 229.0L103.8 229.0L103.8 222.3L104.5 222.3L104.5 220.6L104.6 220.6L104.6 220.5L104.9 220.5L104.9 214.2L106.0 214.2L106.0 214.1L106.4 214.1L106.4 213.7L106.6 213.7L106.6 213.5L107.0 213.5L107.0 212.7L108.4 212.7L108.4 212.1L108.8 212.1L108.8 212.0L112.9 212.0L112.9 206.7L117.4 206.7L117.4 204.9L119.1 204.9L119.1 204.6L120.2 204.6L120.2 201.9L122.2 201.9L122.2 201.8L123.2 201.8L123.2 201.0L123.8 201.0L123.8 200.0L126.7 200.0L126.7 200.0L127.9 200.0L127.9 199.7L137.8 199.7L137.8 195.5L145.2 195.5L145.2 187.4L145.4 187.4L145.4 186.2L145.9 186.2L145.9 184.5L158.8 184.5L158.8 183.9L165.2 183.9L165.2 169.3L167.3 169.3L167.3 168.8L167.5 168.8L167.5 167.7L168.7 167.7L168.7 165.0L169.1 165.0L169.1 163.7L169.3 163.7L169.3 163.6L172.0 163.6L172.0 155.9L175.3 155.9L175.3 155.8L176.6 155.8L176.6 141.9L179.2 141.9L179.2 141.8L180.2 141.8L180.2 131.7L181.1 131.7L181.1 130.9L181.5 130.9L181.5 129.5L204.1 129.5L204.1 129.5L207.5 129.5L207.5 128.9L210.8 128.9L210.8 128.4L213.0 128.4L213.0 128.2L223.2 128.2L223.2 128.0L233.9 128.0L233.9 112.8L236.2 112.8L236.2 110.2L240.4 110.2L240.4 105.5L241.3 105.5L241.3 105.1L242.0 105.1L242.0 103.8L249.3 103.8L249.3 103.5L263.2 103.5L263.2 89.6L265.6 89.6L265.6 89.3L266.1 89.3L266.1 87.6L268.6 87.6L268.6 85.4L276.4 85.4L276.4 84.4L335.5 84.4L335.5 84.4L482.6 84.4L482.6 75.8L483.9 75.8L483.9 75.7L485.4 75.7L485.4 75.3L485.7 75.3L485.7 74.7L487.0 74.7L487.0 74.7L495.3 74.7L495.3 74.4L506.6 74.4L506.6 73.9L510.5 73.9L510.5 73.6L516.6 73.6L516.6 69.8L519.2 69.8L519.2 69.1L749.3 69.1L749.3 55.0L1032.0 55.0" fill="none" stroke="#6675b0" stroke-width="1.6" stroke-dasharray="5 3" opacity="0.75"/><path d="M172.0 155.9L179.2 155.9L179.2 141.8L180.2 141.8L180.2 131.7L181.1 131.7L181.1 130.9L181.5 130.9L181.5 129.5L204.1 129.5L204.1 129.5L207.5 129.5L207.5 128.9L210.8 128.9L210.8 128.4L213.0 128.4L213.0 128.2L223.2 128.2L223.2 128.0L233.9 128.0L233.9 112.8L238.9 112.8L238.9 111.6L240.4 111.6L240.4 105.5L241.3 105.5L241.3 105.1L242.0 105.1L242.0 103.8L249.3 103.8L249.3 103.5L263.2 103.5L263.2 89.6L265.6 89.6L265.6 89.3L266.1 89.3L266.1 87.6L268.6 87.6L268.6 85.4L276.4 85.4L276.4 84.4L335.5 84.4L335.5 84.4L482.6 84.4L482.6 75.8L483.9 75.8L483.9 75.7L485.4 75.7L485.4 75.3L485.7 75.3L485.7 74.7L487.0 74.7L487.0 74.7L495.3 74.7L495.3 74.4L506.6 74.4L506.6 73.9L510.5 73.9L510.5 73.6L516.6 73.6L516.6 73.5L570.1 73.5L570.1 73.4L621.0 73.4L621.0 73.4L654.9 73.4L654.9 71.4L1032.0 71.4" fill="none" stroke="#2b3a7a" stroke-width="2.6"/><path d="M434.9 246.9L441.4 253.4L434.9 259.9L428.4 253.4Z" fill="#c5961a" opacity="1.0" stroke="#ffffff" stroke-width="1.4"/><path d="M508.1 206.5L514.6 213.0L508.1 219.5L501.6 213.0Z" fill="#c5961a" opacity="1.0" stroke="#ffffff" stroke-width="1.4"/><path d="M516.6 67.0L523.1 73.5L516.6 80.0L510.1 73.5Z" fill="#c5961a" opacity="1.0" stroke="#ffffff" stroke-width="1.4"/><path d="M579.4 240.8L585.9 247.3L579.4 253.8L572.9 247.3Z" fill="#c5961a" opacity="1.0" stroke="#ffffff" stroke-width="1.4"/><path d="M579.8 238.0L586.3 244.5L579.8 251.0L573.3 244.5Z" fill="#c5961a" opacity="1.0" stroke="#ffffff" stroke-width="1.4"/><text x="1042" y="53.0" font-size="11.5" fill="#6675b0">– – raw best 535.9</text><text x="1042" y="67.0" font-size="10" fill="#8a8fa3">unverified (pending)</text><path d="M654.9 64.9L661.4 71.4L654.9 77.9L648.4 71.4Z" fill="#2b3a7a" opacity="1.0" stroke="#ffffff" stroke-width="1.4"/><text x="1042" y="99.4" font-size="12.5" fill="#2b3a7a" font-weight="bold">◆ verified 510.1</text><text x="1042" y="115.4" font-size="10.5" fill="#3a3f55">top verified</text><text x="60" y="24" font-size="13" font-weight="bold" fill="#3a3f55" letter-spacing="1.2">SCORE EVOLUTION — gemma-challenge (tok/s)</text><circle cx="452" cy="20" r="3" fill="#b9bdca"/><text x="460" y="24" font-size="10.5" fill="#8a8fa3">all results</text><path d="M544.0 16.4L547.6 20.0L544.0 23.6L540.4 20.0Z" fill="#2b3a7a" opacity="1.0" stroke="none" stroke-width="0"/><text x="552" y="24" font-size="10.5" fill="#8a8fa3">verified</text><path d="M620.0 15.5L624.5 20.0L620.0 24.5L615.5 20.0Z" fill="#c5961a" opacity="1.0" stroke="#fff" stroke-width="1"/><text x="629" y="24" font-size="10.5" fill="#8a8fa3">mikasa-inbound (us)</text></svg>