<svg viewBox="0 0 1200 440" xmlns="http://www.w3.org/2000/svg" font-family="ui-sans-serif,system-ui,-apple-system,sans-serif"><rect x="0" y="0" width="1200" height="440" fill="#ffffff"/><rect x="60" y="46" width="972" height="350" fill="#f3f4fb"/><line x1="60" y1="396.0" x2="1032" y2="396.0" stroke="#e3e5ef" stroke-width="1"/><text x="52" y="400.0" text-anchor="end" font-size="11" fill="#8a8fa3">0</text><line x1="60" y1="332.4" x2="1032" y2="332.4" stroke="#e3e5ef" stroke-width="1"/><text x="52" y="336.4" text-anchor="end" font-size="11" fill="#8a8fa3">100</text><line x1="60" y1="268.7" x2="1032" y2="268.7" stroke="#e3e5ef" stroke-width="1"/><text x="52" y="272.7" text-anchor="end" font-size="11" fill="#8a8fa3">200</text><line x1="60" y1="205.1" x2="1032" y2="205.1" stroke="#e3e5ef" stroke-width="1"/><text x="52" y="209.1" text-anchor="end" font-size="11" fill="#8a8fa3">300</text><line x1="60" y1="141.5" x2="1032" y2="141.5" stroke="#e3e5ef" stroke-width="1"/><text x="52" y="145.5" text-anchor="end" font-size="11" fill="#8a8fa3">400</text><line x1="60" y1="77.8" x2="1032" y2="77.8" stroke="#e3e5ef" stroke-width="1"/><text x="52" y="81.8" text-anchor="end" font-size="11" fill="#8a8fa3">500</text><line x1="157.5" y1="46" x2="157.5" y2="396" stroke="#e3e5ef" stroke-width="1"/><text x="157.5" y="414.0" text-anchor="middle" font-size="11" fill="#8a8fa3">Jun 10</text><line x1="296.6" y1="46" x2="296.6" y2="396" stroke="#e3e5ef" stroke-width="1"/><text x="296.6" y="414.0" text-anchor="middle" font-size="11" fill="#8a8fa3">Jun 12</text><line x1="435.8" y1="46" x2="435.8" y2="396" stroke="#e3e5ef" stroke-width="1"/><text x="435.8" y="414.0" text-anchor="middle" font-size="11" fill="#8a8fa3">Jun 14</text><line x1="574.9" y1="46" x2="574.9" y2="396" stroke="#e3e5ef" stroke-width="1"/><text x="574.9" y="414.0" text-anchor="middle" font-size="11" fill="#8a8fa3">Jun 16</text><line x1="714.0" y1="46" x2="714.0" y2="396" stroke="#e3e5ef" stroke-width="1"/><text x="714.0" y="414.0" text-anchor="middle" font-size="11" fill="#8a8fa3">Jun 18</text><line x1="853.1" y1="46" x2="853.1" y2="396" stroke="#e3e5ef" stroke-width="1"/><text x="853.1" y="414.0" text-anchor="middle" font-size="11" fill="#8a8fa3">Jun 20</text><line x1="992.2" y1="46" x2="992.2" y2="396" stroke="#e3e5ef" stroke-width="1"/><text x="992.2" y="414.0" text-anchor="middle" font-size="11" fill="#8a8fa3">Jun 22</text><circle cx="60.0" cy="335.3" r="2.3" fill="#b9bdca" opacity="0.5"/><circle cx="63.3" cy="335.1" r="2.3" fill="#b9bdca" opacity="0.5"/><circle cx="66.7" cy="368.0" r="2.3" fill="#b9bdca" opacity="0.5"/><circle cx="68.0" cy="320.7" r="2.3" fill="#b9bdca" opacity="0.5"/><circle cx="77.3" cy="319.9" r="2.3" fill="#b9bdca" opacity="0.5"/><circle cx="77.8" cy="320.6" r="2.3" fill="#b9bdca" opacity="0.5"/><circle cx="80.8" cy="315.3" r="2.3" fill="#b9bdca" opacity="0.5"/><circle cx="81.4" cy="319.7" r="2.3" fill="#b9bdca" opacity="0.5"/><circle cx="81.7" cy="314.9" r="2.3" fill="#b9bdca" opacity="0.5"/><circle cx="82.8" cy="315.5" r="2.3" fill="#b9bdca" opacity="0.5"/><circle cx="83.2" cy="314.9" r="2.3" fill="#b9bdca" opacity="0.5"/><circle cx="84.1" cy="315.4" r="2.3" fill="#b9bdca" opacity="0.5"/><circle cx="85.8" cy="315.0" r="2.3" fill="#b9bdca" opacity="0.5"/><circle cx="138.5" cy="238.7" r="2.3" fill="#b9bdca" opacity="0.5"/><circle cx="139.0" cy="315.0" r="2.3" fill="#b9bdca" opacity="0.5"/><circle cx="139.5" cy="229.0" r="2.3" fill="#b9bdca" opacity="0.5"/><circle cx="140.3" cy="222.3" r="2.3" fill="#b9bdca" opacity="0.5"/><circle cx="141.2" cy="228.0" r="2.3" fill="#b9bdca" opacity="0.5"/><circle cx="141.3" cy="223.3" r="2.3" fill="#b9bdca" opacity="0.5"/><circle cx="141.4" cy="220.6" r="2.3" fill="#b9bdca" opacity="0.5"/><circle cx="141.6" cy="220.5" r="2.3" fill="#b9bdca" opacity="0.5"/><circle cx="141.8" cy="223.2" r="2.3" fill="#b9bdca" opacity="0.5"/><circle cx="142.3" cy="214.2" r="2.3" fill="#b9bdca" opacity="0.5"/><circle cx="142.4" cy="222.1" r="2.3" fill="#b9bdca" opacity="0.5"/><circle cx="142.7" cy="220.7" r="2.3" fill="#b9bdca" opacity="0.5"/><circle cx="143.3" cy="218.5" r="2.3" fill="#b9bdca" opacity="0.5"/><circle cx="143.5" cy="215.2" r="2.3" fill="#b9bdca" opacity="0.5"/><circle cx="143.9" cy="214.3" r="2.3" fill="#b9bdca" opacity="0.5"/><circle cx="144.0" cy="219.2" r="2.3" fill="#b9bdca" opacity="0.5"/><circle cx="144.3" cy="214.1" r="2.3" fill="#b9bdca" opacity="0.5"/><circle cx="144.7" cy="215.2" r="2.3" fill="#b9bdca" opacity="0.5"/><circle cx="145.0" cy="213.7" r="2.3" fill="#b9bdca" opacity="0.5"/><circle cx="145.4" cy="213.5" r="2.3" fill="#b9bdca" opacity="0.5"/><circle cx="145.8" cy="214.8" r="2.3" fill="#b9bdca" opacity="0.5"/><circle cx="145.8" cy="217.7" r="2.3" fill="#b9bdca" opacity="0.5"/><circle cx="146.0" cy="212.7" r="2.3" fill="#b9bdca" opacity="0.5"/><circle cx="146.9" cy="213.3" r="2.3" fill="#b9bdca" opacity="0.5"/><circle cx="147.8" cy="212.7" r="2.3" fill="#b9bdca" opacity="0.5"/><circle cx="147.8" cy="213.6" r="2.3" fill="#b9bdca" opacity="0.5"/><circle cx="148.2" cy="213.0" r="2.3" fill="#b9bdca" opacity="0.5"/><circle cx="148.7" cy="212.1" r="2.3" fill="#b9bdca" opacity="0.5"/><circle cx="148.9" cy="213.3" r="2.3" fill="#b9bdca" opacity="0.5"/><circle cx="149.5" cy="212.0" r="2.3" fill="#b9bdca" opacity="0.5"/><circle cx="150.5" cy="212.1" r="2.3" fill="#b9bdca" opacity="0.5"/><circle cx="150.5" cy="212.8" r="2.3" fill="#b9bdca" opacity="0.5"/><circle cx="156.9" cy="206.7" r="2.3" fill="#b9bdca" opacity="0.5"/><circle cx="157.7" cy="206.8" r="2.3" fill="#b9bdca" opacity="0.5"/><circle cx="157.7" cy="212.5" r="2.3" fill="#b9bdca" opacity="0.5"/><circle cx="158.3" cy="207.2" r="2.3" fill="#b9bdca" opacity="0.5"/><circle cx="160.3" cy="207.0" r="2.3" fill="#b9bdca" opacity="0.5"/><circle cx="165.1" cy="204.9" r="2.3" fill="#b9bdca" opacity="0.5"/><circle cx="168.2" cy="204.6" r="2.3" fill="#b9bdca" opacity="0.5"/><circle cx="168.5" cy="212.3" r="2.3" fill="#b9bdca" opacity="0.5"/><circle cx="169.0" cy="204.6" r="2.3" fill="#b9bdca" opacity="0.5"/><circle cx="169.0" cy="204.6" r="2.3" fill="#b9bdca" opacity="0.5"/><circle cx="169.0" cy="204.9" r="2.3" fill="#b9bdca" opacity="0.5"/><circle cx="169.0" cy="204.9" r="2.3" fill="#b9bdca" opacity="0.5"/><circle cx="170.2" cy="201.9" r="2.3" fill="#b9bdca" opacity="0.5"/><circle cx="172.2" cy="206.5" r="2.3" fill="#b9bdca" opacity="0.5"/><circle cx="172.9" cy="205.8" r="2.3" fill="#b9bdca" opacity="0.5"/><circle cx="172.9" cy="335.1" r="2.3" fill="#b9bdca" opacity="0.5"/><circle cx="174.0" cy="201.8" r="2.3" fill="#b9bdca" opacity="0.5"/><circle cx="174.0" cy="202.2" r="2.3" fill="#b9bdca" opacity="0.5"/><circle cx="175.8" cy="201.0" r="2.3" fill="#b9bdca" opacity="0.5"/><circle cx="176.5" cy="203.1" r="2.3" fill="#b9bdca" opacity="0.5"/><circle cx="176.9" cy="200.0" r="2.3" fill="#b9bdca" opacity="0.5"/><circle cx="176.9" cy="204.6" r="2.3" fill="#b9bdca" opacity="0.5"/><circle cx="178.1" cy="202.3" r="2.3" fill="#b9bdca" opacity="0.5"/><circle cx="180.4" cy="200.4" r="2.3" fill="#b9bdca" opacity="0.5"/><circle cx="181.3" cy="200.7" r="2.3" fill="#b9bdca" opacity="0.5"/><circle cx="182.3" cy="200.0" r="2.3" fill="#b9bdca" opacity="0.5"/><circle cx="184.4" cy="199.7" r="2.3" fill="#b9bdca" opacity="0.5"/><circle cx="197.7" cy="200.6" r="2.3" fill="#b9bdca" opacity="0.5"/><circle cx="198.9" cy="201.8" r="2.3" fill="#b9bdca" opacity="0.5"/><circle cx="200.7" cy="208.4" r="2.3" fill="#b9bdca" opacity="0.5"/><circle cx="200.8" cy="200.8" r="2.3" fill="#b9bdca" opacity="0.5"/><circle cx="202.1" cy="200.7" r="2.3" fill="#b9bdca" opacity="0.5"/><circle cx="202.1" cy="201.9" r="2.3" fill="#b9bdca" opacity="0.5"/><circle cx="202.5" cy="195.5" r="2.3" fill="#b9bdca" opacity="0.5"/><circle cx="203.8" cy="196.9" r="2.3" fill="#b9bdca" opacity="0.5"/><circle cx="204.4" cy="197.9" r="2.3" fill="#b9bdca" opacity="0.5"/><circle cx="205.5" cy="196.1" r="2.3" fill="#b9bdca" opacity="0.5"/><circle cx="209.6" cy="197.3" r="2.3" fill="#b9bdca" opacity="0.5"/><circle cx="210.8" cy="195.9" r="2.3" fill="#b9bdca" opacity="0.5"/><circle cx="211.1" cy="201.0" r="2.3" fill="#b9bdca" opacity="0.5"/><circle cx="211.5" cy="197.5" r="2.3" fill="#b9bdca" opacity="0.5"/><circle cx="212.4" cy="196.9" r="2.3" fill="#b9bdca" opacity="0.5"/><circle cx="212.5" cy="197.1" r="2.3" fill="#b9bdca" opacity="0.5"/><circle cx="212.5" cy="197.0" r="2.3" fill="#b9bdca" opacity="0.5"/><circle cx="213.5" cy="196.0" r="2.3" fill="#b9bdca" opacity="0.5"/><circle cx="213.5" cy="196.0" r="2.3" fill="#b9bdca" opacity="0.5"/><circle cx="213.6" cy="197.9" r="2.3" fill="#b9bdca" opacity="0.5"/><circle cx="214.2" cy="197.8" r="2.3" fill="#b9bdca" opacity="0.5"/><circle cx="214.8" cy="196.2" r="2.3" fill="#b9bdca" opacity="0.5"/><circle cx="214.9" cy="197.5" r="2.3" fill="#b9bdca" opacity="0.5"/><circle cx="215.1" cy="196.9" r="2.3" fill="#b9bdca" opacity="0.5"/><circle cx="215.2" cy="195.5" r="2.3" fill="#b9bdca" opacity="0.5"/><circle cx="216.0" cy="198.1" r="2.3" fill="#b9bdca" opacity="0.5"/><circle cx="216.1" cy="187.4" r="2.3" fill="#b9bdca" opacity="0.5"/><circle cx="216.5" cy="186.2" r="2.3" fill="#b9bdca" opacity="0.5"/><circle cx="216.5" cy="196.3" r="2.3" fill="#b9bdca" opacity="0.5"/><circle cx="216.5" cy="197.2" r="2.3" fill="#b9bdca" opacity="0.5"/><circle cx="216.5" cy="197.8" r="2.3" fill="#b9bdca" opacity="0.5"/><circle cx="216.5" cy="368.0" r="2.3" fill="#b9bdca" opacity="0.5"/><circle cx="217.4" cy="184.5" r="2.3" fill="#b9bdca" opacity="0.5"/><circle cx="221.0" cy="184.6" r="2.3" fill="#b9bdca" opacity="0.5"/><circle cx="222.5" cy="185.6" r="2.3" fill="#b9bdca" opacity="0.5"/><circle cx="227.7" cy="188.7" r="2.3" fill="#b9bdca" opacity="0.5"/><circle cx="234.8" cy="185.4" r="2.3" fill="#b9bdca" opacity="0.5"/><circle cx="236.3" cy="185.2" r="2.3" fill="#b9bdca" opacity="0.5"/><circle cx="236.8" cy="186.6" r="2.3" fill="#b9bdca" opacity="0.5"/><circle cx="237.0" cy="185.3" r="2.3" fill="#b9bdca" opacity="0.5"/><circle cx="238.2" cy="185.3" r="2.3" fill="#b9bdca" opacity="0.5"/><circle cx="238.8" cy="185.0" r="2.3" fill="#b9bdca" opacity="0.5"/><circle cx="240.0" cy="184.9" r="2.3" fill="#b9bdca" opacity="0.5"/><circle cx="240.9" cy="185.1" r="2.3" fill="#b9bdca" opacity="0.5"/><circle cx="240.9" cy="185.2" r="2.3" fill="#b9bdca" opacity="0.5"/><circle cx="240.9" cy="186.4" r="2.3" fill="#b9bdca" opacity="0.5"/><circle cx="241.0" cy="183.9" r="2.3" fill="#b9bdca" opacity="0.5"/><circle cx="247.5" cy="184.4" r="2.3" fill="#b9bdca" opacity="0.5"/><circle cx="248.6" cy="184.2" r="2.3" fill="#b9bdca" opacity="0.5"/><circle cx="252.7" cy="169.3" r="2.3" fill="#b9bdca" opacity="0.5"/><circle cx="256.6" cy="168.8" r="2.3" fill="#b9bdca" opacity="0.5"/><circle cx="256.9" cy="167.7" r="2.3" fill="#b9bdca" opacity="0.5"/><circle cx="258.6" cy="201.4" r="2.3" fill="#b9bdca" opacity="0.5"/><circle cx="259.1" cy="165.0" r="2.3" fill="#b9bdca" opacity="0.5"/><circle cx="259.4" cy="198.2" r="2.3" fill="#b9bdca" opacity="0.5"/><circle cx="260.0" cy="163.7" r="2.3" fill="#b9bdca" opacity="0.5"/><circle cx="260.2" cy="163.6" r="2.3" fill="#b9bdca" opacity="0.5"/><circle cx="260.9" cy="165.9" r="2.3" fill="#b9bdca" opacity="0.5"/><circle cx="264.4" cy="165.1" r="2.3" fill="#b9bdca" opacity="0.5"/><circle cx="265.2" cy="155.9" r="2.3" fill="#b9bdca" opacity="0.5"/><circle cx="268.6" cy="196.5" r="2.3" fill="#b9bdca" opacity="0.5"/><circle cx="270.0" cy="157.4" r="2.3" fill="#b9bdca" opacity="0.5"/><circle cx="271.3" cy="155.8" r="2.3" fill="#b9bdca" opacity="0.5"/><circle cx="273.6" cy="141.9" r="2.3" fill="#b9bdca" opacity="0.5"/><circle cx="278.2" cy="156.1" r="2.3" fill="#b9bdca" opacity="0.5"/><circle cx="278.2" cy="156.4" r="2.3" fill="#b9bdca" opacity="0.5"/><circle cx="278.5" cy="141.8" r="2.3" fill="#b9bdca" opacity="0.5"/><circle cx="278.7" cy="196.0" r="2.3" fill="#b9bdca" opacity="0.5"/><circle cx="280.3" cy="131.7" r="2.3" fill="#b9bdca" opacity="0.5"/><circle cx="280.5" cy="134.1" r="2.3" fill="#b9bdca" opacity="0.5"/><circle cx="281.0" cy="141.1" r="2.3" fill="#b9bdca" opacity="0.5"/><circle cx="281.8" cy="134.0" r="2.3" fill="#b9bdca" opacity="0.5"/><circle cx="281.9" cy="130.9" r="2.3" fill="#b9bdca" opacity="0.5"/><circle cx="281.9" cy="154.2" r="2.3" fill="#b9bdca" opacity="0.5"/><circle cx="282.3" cy="133.6" r="2.3" fill="#b9bdca" opacity="0.5"/><circle cx="282.6" cy="129.5" r="2.3" fill="#b9bdca" opacity="0.5"/><circle cx="282.6" cy="130.9" r="2.3" fill="#b9bdca" opacity="0.5"/><circle cx="282.6" cy="133.4" r="2.3" fill="#b9bdca" opacity="0.5"/><circle cx="283.0" cy="131.2" r="2.3" fill="#b9bdca" opacity="0.5"/><circle cx="285.9" cy="189.8" r="2.3" fill="#b9bdca" opacity="0.5"/><circle cx="286.0" cy="133.2" r="2.3" fill="#b9bdca" opacity="0.5"/><circle cx="286.5" cy="133.5" r="2.3" fill="#b9bdca" opacity="0.5"/><circle cx="287.5" cy="130.1" r="2.3" fill="#b9bdca" opacity="0.5"/><circle cx="290.4" cy="130.3" r="2.3" fill="#b9bdca" opacity="0.5"/><circle cx="291.7" cy="303.1" r="2.3" fill="#b9bdca" opacity="0.5"/><circle cx="294.0" cy="133.2" r="2.3" fill="#b9bdca" opacity="0.5"/><circle cx="297.1" cy="144.2" r="2.3" fill="#b9bdca" opacity="0.5"/><circle cx="297.8" cy="135.3" r="2.3" fill="#b9bdca" opacity="0.5"/><circle cx="299.7" cy="133.4" r="2.3" fill="#b9bdca" opacity="0.5"/><circle cx="299.9" cy="159.9" r="2.3" fill="#b9bdca" opacity="0.5"/><circle cx="300.4" cy="130.8" r="2.3" fill="#b9bdca" opacity="0.5"/><circle cx="301.1" cy="133.2" r="2.3" fill="#b9bdca" opacity="0.5"/><circle cx="308.2" cy="130.9" r="2.3" fill="#b9bdca" opacity="0.5"/><circle cx="309.0" cy="130.9" r="2.3" fill="#b9bdca" opacity="0.5"/><circle cx="309.0" cy="133.8" r="2.3" fill="#b9bdca" opacity="0.5"/><circle cx="310.2" cy="130.4" r="2.3" fill="#b9bdca" opacity="0.5"/><circle cx="310.9" cy="153.7" r="2.3" fill="#b9bdca" opacity="0.5"/><circle cx="312.3" cy="133.3" r="2.3" fill="#b9bdca" opacity="0.5"/><circle cx="314.4" cy="156.5" r="2.3" fill="#b9bdca" opacity="0.5"/><circle cx="314.9" cy="132.3" r="2.3" fill="#b9bdca" opacity="0.5"/><circle cx="317.4" cy="147.2" r="2.3" fill="#b9bdca" opacity="0.5"/><circle cx="317.9" cy="133.6" r="2.3" fill="#b9bdca" opacity="0.5"/><circle cx="318.8" cy="129.5" r="2.3" fill="#b9bdca" opacity="0.5"/><circle cx="318.8" cy="133.3" r="2.3" fill="#b9bdca" opacity="0.5"/><circle cx="322.0" cy="133.3" r="2.3" fill="#b9bdca" opacity="0.5"/><circle cx="324.0" cy="129.5" r="2.3" fill="#b9bdca" opacity="0.5"/><circle cx="327.6" cy="130.6" r="2.3" fill="#b9bdca" opacity="0.5"/><circle cx="330.3" cy="128.9" r="2.3" fill="#b9bdca" opacity="0.5"/><circle cx="330.8" cy="132.7" r="2.3" fill="#b9bdca" opacity="0.5"/><circle cx="330.8" cy="133.1" r="2.3" fill="#b9bdca" opacity="0.5"/><circle cx="334.8" cy="129.8" r="2.3" fill="#b9bdca" opacity="0.5"/><circle cx="335.9" cy="333.8" r="2.3" fill="#b9bdca" opacity="0.5"/><circle cx="336.2" cy="128.4" r="2.3" fill="#b9bdca" opacity="0.5"/><circle cx="338.0" cy="129.8" r="2.3" fill="#b9bdca" opacity="0.5"/><circle cx="338.8" cy="128.9" r="2.3" fill="#b9bdca" opacity="0.5"/><circle cx="339.0" cy="128.9" r="2.3" fill="#b9bdca" opacity="0.5"/><circle cx="340.3" cy="128.2" r="2.3" fill="#b9bdca" opacity="0.5"/><circle cx="341.3" cy="129.7" r="2.3" fill="#b9bdca" opacity="0.5"/><circle cx="341.7" cy="142.3" r="2.3" fill="#b9bdca" opacity="0.5"/><circle cx="345.4" cy="128.8" r="2.3" fill="#b9bdca" opacity="0.5"/><circle cx="347.7" cy="161.1" r="2.3" fill="#b9bdca" opacity="0.5"/><circle cx="351.9" cy="164.4" r="2.3" fill="#b9bdca" opacity="0.5"/><circle cx="352.3" cy="248.3" r="2.3" fill="#b9bdca" opacity="0.5"/><circle cx="358.5" cy="135.4" r="2.3" fill="#b9bdca" opacity="0.5"/><circle cx="359.0" cy="128.0" r="2.3" fill="#b9bdca" opacity="0.5"/><circle cx="360.9" cy="229.0" r="2.3" fill="#b9bdca" opacity="0.5"/><circle cx="365.1" cy="128.1" r="2.3" fill="#b9bdca" opacity="0.5"/><circle cx="366.3" cy="128.6" r="2.3" fill="#b9bdca" opacity="0.5"/><circle cx="370.2" cy="128.8" r="2.3" fill="#b9bdca" opacity="0.5"/><circle cx="370.2" cy="129.6" r="2.3" fill="#b9bdca" opacity="0.5"/><circle cx="370.2" cy="130.9" r="2.3" fill="#b9bdca" opacity="0.5"/><circle cx="378.6" cy="112.8" r="2.3" fill="#b9bdca" opacity="0.5"/><circle cx="382.9" cy="110.2" r="2.3" fill="#b9bdca" opacity="0.5"/><circle cx="383.1" cy="111.6" r="2.3" fill="#b9bdca" opacity="0.5"/><circle cx="385.8" cy="111.0" r="2.3" fill="#b9bdca" opacity="0.5"/><circle cx="387.1" cy="335.1" r="2.3" fill="#b9bdca" opacity="0.5"/><circle cx="387.8" cy="111.6" r="2.3" fill="#b9bdca" opacity="0.5"/><circle cx="390.6" cy="105.5" r="2.3" fill="#b9bdca" opacity="0.5"/><circle cx="391.0" cy="108.5" r="2.3" fill="#b9bdca" opacity="0.5"/><circle cx="392.1" cy="105.1" r="2.3" fill="#b9bdca" opacity="0.5"/><circle cx="393.4" cy="103.8" r="2.3" fill="#b9bdca" opacity="0.5"/><circle cx="394.9" cy="125.8" r="2.3" fill="#b9bdca" opacity="0.5"/><circle cx="406.9" cy="103.5" r="2.3" fill="#b9bdca" opacity="0.5"/><circle cx="410.0" cy="127.8" r="2.3" fill="#b9bdca" opacity="0.5"/><circle cx="411.3" cy="334.3" r="2.3" fill="#b9bdca" opacity="0.5"/><circle cx="413.2" cy="128.6" r="2.3" fill="#b9bdca" opacity="0.5"/><circle cx="414.1" cy="128.6" r="2.3" fill="#b9bdca" opacity="0.5"/><circle cx="414.3" cy="128.6" r="2.3" fill="#b9bdca" opacity="0.5"/><circle cx="415.3" cy="256.6" r="2.3" fill="#b9bdca" opacity="0.5"/><circle cx="416.7" cy="254.6" r="2.3" fill="#b9bdca" opacity="0.5"/><circle cx="419.0" cy="128.6" r="2.3" fill="#b9bdca" opacity="0.5"/><circle cx="424.5" cy="250.1" r="2.3" fill="#b9bdca" opacity="0.5"/><circle cx="424.9" cy="161.4" r="2.3" fill="#b9bdca" opacity="0.5"/><circle cx="425.5" cy="206.6" r="2.3" fill="#b9bdca" opacity="0.5"/><circle cx="430.6" cy="113.5" r="2.3" fill="#b9bdca" opacity="0.5"/><circle cx="432.3" cy="89.6" r="2.3" fill="#b9bdca" opacity="0.5"/><circle cx="433.6" cy="90.2" r="2.3" fill="#b9bdca" opacity="0.5"/><circle cx="436.8" cy="89.3" r="2.3" fill="#b9bdca" opacity="0.5"/><circle cx="437.7" cy="87.6" r="2.3" fill="#b9bdca" opacity="0.5"/><circle cx="438.7" cy="185.0" r="2.3" fill="#b9bdca" opacity="0.5"/><circle cx="439.9" cy="131.6" r="2.3" fill="#b9bdca" opacity="0.5"/><circle cx="440.7" cy="87.8" r="2.3" fill="#b9bdca" opacity="0.5"/><circle cx="442.2" cy="85.4" r="2.3" fill="#b9bdca" opacity="0.5"/><circle cx="444.5" cy="86.8" r="2.3" fill="#b9bdca" opacity="0.5"/><circle cx="446.8" cy="88.4" r="2.3" fill="#b9bdca" opacity="0.5"/><circle cx="456.3" cy="89.5" r="2.3" fill="#b9bdca" opacity="0.5"/><circle cx="456.3" cy="155.6" r="2.3" fill="#b9bdca" opacity="0.5"/><circle cx="456.4" cy="84.4" r="2.3" fill="#b9bdca" opacity="0.5"/><circle cx="467.8" cy="89.2" r="2.3" fill="#b9bdca" opacity="0.5"/><circle cx="468.0" cy="90.5" r="2.3" fill="#b9bdca" opacity="0.5"/><circle cx="471.2" cy="87.7" r="2.3" fill="#b9bdca" opacity="0.5"/><circle cx="472.3" cy="367.9" r="2.3" fill="#b9bdca" opacity="0.5"/><circle cx="476.9" cy="164.3" r="2.3" fill="#b9bdca" opacity="0.5"/><circle cx="479.2" cy="94.6" r="2.3" fill="#b9bdca" opacity="0.5"/><circle cx="480.1" cy="89.6" r="2.3" fill="#b9bdca" opacity="0.5"/><circle cx="489.9" cy="124.6" r="2.3" fill="#b9bdca" opacity="0.5"/><circle cx="500.4" cy="146.2" r="2.3" fill="#b9bdca" opacity="0.5"/><circle cx="500.7" cy="90.5" r="2.3" fill="#b9bdca" opacity="0.5"/><circle cx="501.7" cy="87.7" r="2.3" fill="#b9bdca" opacity="0.5"/><circle cx="502.2" cy="87.7" r="2.3" fill="#b9bdca" opacity="0.5"/><circle cx="502.2" cy="89.6" r="2.3" fill="#b9bdca" opacity="0.5"/><circle cx="509.7" cy="93.0" r="2.3" fill="#b9bdca" opacity="0.5"/><circle cx="512.3" cy="85.5" r="2.3" fill="#b9bdca" opacity="0.5"/><circle cx="534.4" cy="334.8" r="2.3" fill="#b9bdca" opacity="0.5"/><circle cx="536.9" cy="86.3" r="2.3" fill="#b9bdca" opacity="0.5"/><circle cx="544.3" cy="85.5" r="2.3" fill="#b9bdca" opacity="0.5"/><circle cx="545.6" cy="84.6" r="2.3" fill="#b9bdca" opacity="0.5"/><circle cx="548.7" cy="87.8" r="2.3" fill="#b9bdca" opacity="0.5"/><circle cx="550.0" cy="84.4" r="2.3" fill="#b9bdca" opacity="0.5"/><circle cx="550.7" cy="84.8" r="2.3" fill="#b9bdca" opacity="0.5"/><circle cx="552.9" cy="87.4" r="2.3" fill="#b9bdca" opacity="0.5"/><circle cx="564.7" cy="84.4" r="2.3" fill="#b9bdca" opacity="0.5"/><circle cx="616.6" cy="89.3" r="2.3" fill="#b9bdca" opacity="0.5"/><circle cx="626.0" cy="88.6" r="2.3" fill="#b9bdca" opacity="0.5"/><circle cx="626.0" cy="92.1" r="2.3" fill="#b9bdca" opacity="0.5"/><circle cx="628.0" cy="156.8" r="2.3" fill="#b9bdca" opacity="0.5"/><circle cx="658.0" cy="201.6" r="2.3" fill="#b9bdca" opacity="0.5"/><circle cx="679.8" cy="315.6" r="2.3" fill="#b9bdca" opacity="0.5"/><circle cx="739.7" cy="87.7" r="2.3" fill="#b9bdca" opacity="0.5"/><circle cx="757.8" cy="87.6" r="2.3" fill="#b9bdca" opacity="0.5"/><circle cx="773.9" cy="87.2" r="2.3" fill="#b9bdca" opacity="0.5"/><circle cx="777.5" cy="88.8" r="2.3" fill="#b9bdca" opacity="0.5"/><circle cx="778.9" cy="89.2" r="2.3" fill="#b9bdca" opacity="0.5"/><circle cx="779.7" cy="90.9" r="2.3" fill="#b9bdca" opacity="0.5"/><circle cx="784.3" cy="87.7" r="2.3" fill="#b9bdca" opacity="0.5"/><circle cx="800.5" cy="88.6" r="2.3" fill="#b9bdca" opacity="0.5"/><circle cx="802.6" cy="89.7" r="2.3" fill="#b9bdca" opacity="0.5"/><circle cx="804.0" cy="88.2" r="2.3" fill="#b9bdca" opacity="0.5"/><circle cx="834.3" cy="75.8" r="2.3" fill="#b9bdca" opacity="0.5"/><circle cx="836.7" cy="75.7" r="2.3" fill="#b9bdca" opacity="0.5"/><circle cx="838.4" cy="76.7" r="2.3" fill="#b9bdca" opacity="0.5"/><circle cx="838.6" cy="75.8" r="2.3" fill="#b9bdca" opacity="0.5"/><circle cx="839.5" cy="75.3" r="2.3" fill="#b9bdca" opacity="0.5"/><circle cx="840.0" cy="74.7" r="2.3" fill="#b9bdca" opacity="0.5"/><circle cx="840.3" cy="83.4" r="2.3" fill="#b9bdca" opacity="0.5"/><circle cx="841.0" cy="76.2" r="2.3" fill="#b9bdca" opacity="0.5"/><circle cx="841.7" cy="78.1" r="2.3" fill="#b9bdca" opacity="0.5"/><circle cx="842.4" cy="74.7" r="2.3" fill="#b9bdca" opacity="0.5"/><circle cx="847.5" cy="89.3" r="2.3" fill="#b9bdca" opacity="0.5"/><circle cx="857.6" cy="74.4" r="2.3" fill="#b9bdca" opacity="0.5"/><circle cx="873.7" cy="74.4" r="2.3" fill="#b9bdca" opacity="0.5"/><circle cx="876.3" cy="335.1" r="2.3" fill="#b9bdca" opacity="0.5"/><circle cx="876.4" cy="81.7" r="2.3" fill="#b9bdca" opacity="0.5"/><circle cx="878.3" cy="74.6" r="2.3" fill="#b9bdca" opacity="0.5"/><circle cx="878.3" cy="82.1" r="2.3" fill="#b9bdca" opacity="0.5"/><circle cx="878.3" cy="73.9" r="2.3" fill="#b9bdca" opacity="0.5"/><circle cx="882.9" cy="76.2" r="2.3" fill="#b9bdca" opacity="0.5"/><circle cx="883.7" cy="82.1" r="2.3" fill="#b9bdca" opacity="0.5"/><circle cx="884.3" cy="74.2" r="2.3" fill="#b9bdca" opacity="0.5"/><circle cx="884.4" cy="75.0" r="2.3" fill="#b9bdca" opacity="0.5"/><circle cx="885.3" cy="73.6" r="2.3" fill="#b9bdca" opacity="0.5"/><circle cx="885.4" cy="83.3" r="2.3" fill="#b9bdca" opacity="0.5"/><circle cx="885.4" cy="83.8" r="2.3" fill="#b9bdca" opacity="0.5"/><circle cx="885.4" cy="78.1" r="2.3" fill="#b9bdca" opacity="0.5"/><circle cx="885.4" cy="81.5" r="2.3" fill="#b9bdca" opacity="0.5"/><circle cx="885.4" cy="83.0" r="2.3" fill="#b9bdca" opacity="0.5"/><circle cx="885.4" cy="83.7" r="2.3" fill="#b9bdca" opacity="0.5"/><circle cx="891.8" cy="82.7" r="2.3" fill="#b9bdca" opacity="0.5"/><circle cx="893.2" cy="77.8" r="2.3" fill="#b9bdca" opacity="0.5"/><circle cx="896.6" cy="69.8" r="2.3" fill="#b9bdca" opacity="0.5"/><circle cx="897.7" cy="75.9" r="2.3" fill="#b9bdca" opacity="0.5"/><circle cx="898.1" cy="74.3" r="2.3" fill="#b9bdca" opacity="0.5"/><circle cx="898.1" cy="77.4" r="2.3" fill="#b9bdca" opacity="0.5"/><circle cx="898.1" cy="80.6" r="2.3" fill="#b9bdca" opacity="0.5"/><circle cx="898.1" cy="81.8" r="2.3" fill="#b9bdca" opacity="0.5"/><circle cx="900.4" cy="76.9" r="2.3" fill="#b9bdca" opacity="0.5"/><circle cx="900.4" cy="82.8" r="2.3" fill="#b9bdca" opacity="0.5"/><circle cx="900.4" cy="83.0" r="2.3" fill="#b9bdca" opacity="0.5"/><circle cx="900.4" cy="83.1" r="2.3" fill="#b9bdca" opacity="0.5"/><circle cx="901.4" cy="69.1" r="2.3" fill="#b9bdca" opacity="0.5"/><circle cx="904.1" cy="75.5" r="2.3" fill="#b9bdca" opacity="0.5"/><circle cx="905.5" cy="74.3" r="2.3" fill="#b9bdca" opacity="0.5"/><circle cx="946.3" cy="74.0" r="2.3" fill="#b9bdca" opacity="0.5"/><circle cx="994.7" cy="73.4" r="2.3" fill="#b9bdca" opacity="0.5"/><circle cx="995.1" cy="75.9" r="2.3" fill="#b9bdca" opacity="0.5"/><circle cx="995.1" cy="76.3" r="2.3" fill="#b9bdca" opacity="0.5"/><circle cx="995.5" cy="76.0" r="2.3" fill="#b9bdca" opacity="0.5"/><circle cx="995.5" cy="76.8" r="2.3" fill="#b9bdca" opacity="0.5"/><circle cx="995.5" cy="81.2" r="2.3" fill="#b9bdca" opacity="0.5"/><circle cx="995.5" cy="83.4" r="2.3" fill="#b9bdca" opacity="0.5"/><circle cx="1029.7" cy="76.6" r="2.3" fill="#b9bdca" opacity="0.5"/><circle cx="1032.0" cy="76.7" r="2.3" fill="#b9bdca" opacity="0.5"/><circle cx="1032.0" cy="82.8" r="2.3" fill="#b9bdca" opacity="0.5"/><circle cx="1032.0" cy="82.8" r="2.3" fill="#b9bdca" opacity="0.5"/><circle cx="1032.0" cy="83.3" r="2.3" fill="#b9bdca" opacity="0.5"/><path d="M265.2 152.3L268.8 155.9L265.2 159.5L261.6 155.9Z" fill="#2b3a7a" opacity="0.8" stroke="none" stroke-width="0"/><path d="M278.5 138.2L282.1 141.8L278.5 145.4L274.9 141.8Z" fill="#2b3a7a" opacity="0.8" stroke="none" stroke-width="0"/><path d="M280.3 128.1L283.9 131.7L280.3 135.3L276.7 131.7Z" fill="#2b3a7a" opacity="0.8" stroke="none" stroke-width="0"/><path d="M280.5 130.5L284.1 134.1L280.5 137.7L276.9 134.1Z" fill="#2b3a7a" opacity="0.8" stroke="none" stroke-width="0"/><path d="M281.9 127.3L285.5 130.9L281.9 134.5L278.3 130.9Z" fill="#2b3a7a" opacity="0.8" stroke="none" stroke-width="0"/><path d="M282.6 125.9L286.2 129.5L282.6 133.1L279.0 129.5Z" fill="#2b3a7a" opacity="0.8" stroke="none" stroke-width="0"/><path d="M282.6 127.3L286.2 130.9L282.6 134.5L279.0 130.9Z" fill="#2b3a7a" opacity="0.8" stroke="none" stroke-width="0"/><path d="M324.0 125.9L327.6 129.5L324.0 133.1L320.4 129.5Z" fill="#2b3a7a" opacity="0.8" stroke="none" stroke-width="0"/><path d="M330.3 125.3L333.9 128.9L330.3 132.5L326.7 128.9Z" fill="#2b3a7a" opacity="0.8" stroke="none" stroke-width="0"/><path d="M336.2 124.8L339.8 128.4L336.2 132.0L332.6 128.4Z" fill="#2b3a7a" opacity="0.8" stroke="none" stroke-width="0"/><path d="M340.3 124.6L343.9 128.2L340.3 131.8L336.7 128.2Z" fill="#2b3a7a" opacity="0.8" stroke="none" stroke-width="0"/><path d="M359.0 124.4L362.6 128.0L359.0 131.6L355.4 128.0Z" fill="#2b3a7a" opacity="0.8" stroke="none" stroke-width="0"/><path d="M378.6 109.2L382.2 112.8L378.6 116.4L375.0 112.8Z" fill="#2b3a7a" opacity="0.8" stroke="none" stroke-width="0"/><path d="M387.8 108.0L391.4 111.6L387.8 115.2L384.2 111.6Z" fill="#2b3a7a" opacity="0.8" stroke="none" stroke-width="0"/><path d="M390.6 101.9L394.2 105.5L390.6 109.1L387.0 105.5Z" fill="#2b3a7a" opacity="0.8" stroke="none" stroke-width="0"/><path d="M391.0 104.9L394.6 108.5L391.0 112.1L387.4 108.5Z" fill="#2b3a7a" opacity="0.8" stroke="none" stroke-width="0"/><path d="M392.1 101.5L395.7 105.1L392.1 108.7L388.5 105.1Z" fill="#2b3a7a" opacity="0.8" stroke="none" stroke-width="0"/><path d="M393.4 100.2L397.0 103.8L393.4 107.4L389.8 103.8Z" fill="#2b3a7a" opacity="0.8" stroke="none" stroke-width="0"/><path d="M406.9 99.9L410.5 103.5L406.9 107.1L403.3 103.5Z" fill="#2b3a7a" opacity="0.8" stroke="none" stroke-width="0"/><path d="M432.3 86.0L435.9 89.6L432.3 93.2L428.7 89.6Z" fill="#2b3a7a" opacity="0.8" stroke="none" stroke-width="0"/><path d="M436.8 85.7L440.4 89.3L436.8 92.9L433.2 89.3Z" fill="#2b3a7a" opacity="0.8" stroke="none" stroke-width="0"/><path d="M437.7 84.0L441.3 87.6L437.7 91.2L434.1 87.6Z" fill="#2b3a7a" opacity="0.8" stroke="none" stroke-width="0"/><path d="M442.2 81.8L445.8 85.4L442.2 89.0L438.6 85.4Z" fill="#2b3a7a" opacity="0.8" stroke="none" stroke-width="0"/><path d="M456.4 80.8L460.0 84.4L456.4 88.0L452.8 84.4Z" fill="#2b3a7a" opacity="0.8" stroke="none" stroke-width="0"/><path d="M564.7 80.8L568.3 84.4L564.7 88.0L561.1 84.4Z" fill="#2b3a7a" opacity="0.8" stroke="none" stroke-width="0"/><path d="M834.3 72.2L837.9 75.8L834.3 79.4L830.7 75.8Z" fill="#2b3a7a" opacity="0.8" stroke="none" stroke-width="0"/><path d="M836.7 72.1L840.3 75.7L836.7 79.3L833.1 75.7Z" fill="#2b3a7a" opacity="0.8" stroke="none" stroke-width="0"/><path d="M839.5 71.7L843.1 75.3L839.5 78.9L835.9 75.3Z" fill="#2b3a7a" opacity="0.8" stroke="none" stroke-width="0"/><path d="M840.0 71.1L843.6 74.7L840.0 78.3L836.4 74.7Z" fill="#2b3a7a" opacity="0.8" stroke="none" stroke-width="0"/><path d="M842.4 71.1L846.0 74.7L842.4 78.3L838.8 74.7Z" fill="#2b3a7a" opacity="0.8" stroke="none" stroke-width="0"/><path d="M857.6 70.8L861.2 74.4L857.6 78.0L854.0 74.4Z" fill="#2b3a7a" opacity="0.8" stroke="none" stroke-width="0"/><path d="M878.3 70.3L881.9 73.9L878.3 77.5L874.7 73.9Z" fill="#2b3a7a" opacity="0.8" stroke="none" stroke-width="0"/><path d="M885.3 70.0L888.9 73.6L885.3 77.2L881.7 73.6Z" fill="#2b3a7a" opacity="0.8" stroke="none" stroke-width="0"/><path d="M994.7 69.8L998.3 73.4L994.7 77.0L991.1 73.4Z" fill="#2b3a7a" opacity="0.8" stroke="none" stroke-width="0"/><path d="M60.0 335.3L63.3 335.3L63.3 335.1L68.0 335.1L68.0 320.7L77.3 320.7L77.3 319.9L80.8 319.9L80.8 315.3L81.7 315.3L81.7 314.9L83.2 314.9L83.2 314.9L138.5 314.9L138.5 238.7L139.5 238.7L139.5 229.0L140.3 229.0L140.3 222.3L141.4 222.3L141.4 220.6L141.6 220.6L141.6 220.5L142.3 220.5L142.3 214.2L144.3 214.2L144.3 214.1L145.0 214.1L145.0 213.7L145.4 213.7L145.4 213.5L146.0 213.5L146.0 212.7L148.7 212.7L148.7 212.1L149.5 212.1L149.5 212.0L156.9 212.0L156.9 206.7L165.1 206.7L165.1 204.9L168.2 204.9L168.2 204.6L170.2 204.6L170.2 201.9L174.0 201.9L174.0 201.8L175.8 201.8L175.8 201.0L176.9 201.0L176.9 200.0L182.3 200.0L182.3 200.0L184.4 200.0L184.4 199.7L202.5 199.7L202.5 195.5L216.1 195.5L216.1 187.4L216.5 187.4L216.5 186.2L217.4 186.2L217.4 184.5L241.0 184.5L241.0 183.9L252.7 183.9L252.7 169.3L256.6 169.3L256.6 168.8L256.9 168.8L256.9 167.7L259.1 167.7L259.1 165.0L260.0 165.0L260.0 163.7L260.2 163.7L260.2 163.6L265.2 163.6L265.2 155.9L271.3 155.9L271.3 155.8L273.6 155.8L273.6 141.9L278.5 141.9L278.5 141.8L280.3 141.8L280.3 131.7L281.9 131.7L281.9 130.9L282.6 130.9L282.6 129.5L324.0 129.5L324.0 129.5L330.3 129.5L330.3 128.9L336.2 128.9L336.2 128.4L340.3 128.4L340.3 128.2L359.0 128.2L359.0 128.0L378.6 128.0L378.6 112.8L382.9 112.8L382.9 110.2L390.6 110.2L390.6 105.5L392.1 105.5L392.1 105.1L393.4 105.1L393.4 103.8L406.9 103.8L406.9 103.5L432.3 103.5L432.3 89.6L436.8 89.6L436.8 89.3L437.7 89.3L437.7 87.6L442.2 87.6L442.2 85.4L456.4 85.4L456.4 84.4L564.7 84.4L564.7 84.4L834.3 84.4L834.3 75.8L836.7 75.8L836.7 75.7L839.5 75.7L839.5 75.3L840.0 75.3L840.0 74.7L842.4 74.7L842.4 74.7L857.6 74.7L857.6 74.4L878.3 74.4L878.3 73.9L885.3 73.9L885.3 73.6L896.6 73.6L896.6 69.8L901.4 69.8L901.4 69.1L1032.0 69.1" fill="none" stroke="#6675b0" stroke-width="1.6" stroke-dasharray="5 3" opacity="0.75"/><path d="M265.2 155.9L278.5 155.9L278.5 141.8L280.3 141.8L280.3 131.7L281.9 131.7L281.9 130.9L282.6 130.9L282.6 129.5L324.0 129.5L324.0 129.5L330.3 129.5L330.3 128.9L336.2 128.9L336.2 128.4L340.3 128.4L340.3 128.2L359.0 128.2L359.0 128.0L378.6 128.0L378.6 112.8L387.8 112.8L387.8 111.6L390.6 111.6L390.6 105.5L392.1 105.5L392.1 105.1L393.4 105.1L393.4 103.8L406.9 103.8L406.9 103.5L432.3 103.5L432.3 89.6L436.8 89.6L436.8 89.3L437.7 89.3L437.7 87.6L442.2 87.6L442.2 85.4L456.4 85.4L456.4 84.4L564.7 84.4L564.7 84.4L834.3 84.4L834.3 75.8L836.7 75.8L836.7 75.7L839.5 75.7L839.5 75.3L840.0 75.3L840.0 74.7L842.4 74.7L842.4 74.7L857.6 74.7L857.6 74.4L878.3 74.4L878.3 73.9L885.3 73.9L885.3 73.6L896.6 73.6L896.6 73.5L994.7 73.5L994.7 73.4L1032.0 73.4" fill="none" stroke="#2b3a7a" stroke-width="2.6"/><path d="M746.9 246.9L753.4 253.4L746.9 259.9L740.4 253.4Z" fill="#c5961a" opacity="1.0" stroke="#ffffff" stroke-width="1.4"/><path d="M881.1 206.5L887.6 213.0L881.1 219.5L874.6 213.0Z" fill="#c5961a" opacity="1.0" stroke="#ffffff" stroke-width="1.4"/><path d="M896.6 67.0L903.1 73.5L896.6 80.0L890.1 73.5Z" fill="#c5961a" opacity="1.0" stroke="#ffffff" stroke-width="1.4"/><path d="M1011.6 240.8L1018.1 247.3L1011.6 253.8L1005.1 247.3Z" fill="#c5961a" opacity="1.0" stroke="#ffffff" stroke-width="1.4"/><path d="M1012.4 238.0L1018.9 244.5L1012.4 251.0L1005.9 244.5Z" fill="#c5961a" opacity="1.0" stroke="#ffffff" stroke-width="1.4"/><text x="1042" y="67.1" font-size="11.5" fill="#6675b0">– – raw best 513.8</text><text x="1042" y="81.1" font-size="10" fill="#8a8fa3">unverified (pending)</text><path d="M994.7 66.9L1001.2 73.4L994.7 79.9L988.2 73.4Z" fill="#2b3a7a" opacity="1.0" stroke="#ffffff" stroke-width="1.4"/><text x="1042" y="101.4" font-size="12.5" fill="#2b3a7a" font-weight="bold">◆ verified 506.9</text><text x="1042" y="117.4" font-size="10.5" fill="#3a3f55">top verified</text><text x="60" y="24" font-size="13" font-weight="bold" fill="#3a3f55" letter-spacing="1.2">SCORE EVOLUTION — gemma-challenge (tok/s)</text><circle cx="452" cy="20" r="3" fill="#b9bdca"/><text x="460" y="24" font-size="10.5" fill="#8a8fa3">all results</text><path d="M544.0 16.4L547.6 20.0L544.0 23.6L540.4 20.0Z" fill="#2b3a7a" opacity="1.0" stroke="none" stroke-width="0"/><text x="552" y="24" font-size="10.5" fill="#8a8fa3">verified</text><path d="M620.0 15.5L624.5 20.0L620.0 24.5L615.5 20.0Z" fill="#c5961a" opacity="1.0" stroke="#fff" stroke-width="1"/><text x="629" y="24" font-size="10.5" fill="#8a8fa3">mikasa-inbound (us)</text></svg>