<svg viewBox="0 0 1200 440" xmlns="http://www.w3.org/2000/svg" font-family="ui-sans-serif,system-ui,-apple-system,sans-serif"><rect x="0" y="0" width="1200" height="440" fill="#ffffff"/><rect x="60" y="46" width="972" height="350" fill="#f3f4fb"/><line x1="60" y1="396.0" x2="1032" y2="396.0" stroke="#e3e5ef" stroke-width="1"/><text x="52" y="400.0" text-anchor="end" font-size="11" fill="#8a8fa3">0</text><line x1="60" y1="332.4" x2="1032" y2="332.4" stroke="#e3e5ef" stroke-width="1"/><text x="52" y="336.4" text-anchor="end" font-size="11" fill="#8a8fa3">100</text><line x1="60" y1="268.7" x2="1032" y2="268.7" stroke="#e3e5ef" stroke-width="1"/><text x="52" y="272.7" text-anchor="end" font-size="11" fill="#8a8fa3">200</text><line x1="60" y1="205.1" x2="1032" y2="205.1" stroke="#e3e5ef" stroke-width="1"/><text x="52" y="209.1" text-anchor="end" font-size="11" fill="#8a8fa3">300</text><line x1="60" y1="141.5" x2="1032" y2="141.5" stroke="#e3e5ef" stroke-width="1"/><text x="52" y="145.5" text-anchor="end" font-size="11" fill="#8a8fa3">400</text><line x1="60" y1="77.8" x2="1032" y2="77.8" stroke="#e3e5ef" stroke-width="1"/><text x="52" y="81.8" text-anchor="end" font-size="11" fill="#8a8fa3">500</text><line x1="135.3" y1="46" x2="135.3" y2="396" stroke="#e3e5ef" stroke-width="1"/><text x="135.3" y="414.0" text-anchor="middle" font-size="11" fill="#8a8fa3">Jun 10</text><line x1="242.7" y1="46" x2="242.7" y2="396" stroke="#e3e5ef" stroke-width="1"/><text x="242.7" y="414.0" text-anchor="middle" font-size="11" fill="#8a8fa3">Jun 12</text><line x1="350.2" y1="46" x2="350.2" y2="396" stroke="#e3e5ef" stroke-width="1"/><text x="350.2" y="414.0" text-anchor="middle" font-size="11" fill="#8a8fa3">Jun 14</text><line x1="457.6" y1="46" x2="457.6" y2="396" stroke="#e3e5ef" stroke-width="1"/><text x="457.6" y="414.0" text-anchor="middle" font-size="11" fill="#8a8fa3">Jun 16</text><line x1="565.0" y1="46" x2="565.0" y2="396" stroke="#e3e5ef" stroke-width="1"/><text x="565.0" y="414.0" text-anchor="middle" font-size="11" fill="#8a8fa3">Jun 18</text><line x1="672.5" y1="46" x2="672.5" y2="396" stroke="#e3e5ef" stroke-width="1"/><text x="672.5" y="414.0" text-anchor="middle" font-size="11" fill="#8a8fa3">Jun 20</text><line x1="779.9" y1="46" x2="779.9" y2="396" stroke="#e3e5ef" stroke-width="1"/><text x="779.9" y="414.0" text-anchor="middle" font-size="11" fill="#8a8fa3">Jun 22</text><line x1="887.3" y1="46" x2="887.3" y2="396" stroke="#e3e5ef" stroke-width="1"/><text x="887.3" y="414.0" text-anchor="middle" font-size="11" fill="#8a8fa3">Jun 24</text><line x1="994.8" y1="46" x2="994.8" y2="396" stroke="#e3e5ef" stroke-width="1"/><text x="994.8" y="414.0" text-anchor="middle" font-size="11" fill="#8a8fa3">Jun 26</text><circle cx="60.0" cy="335.3" r="2.3" fill="#b9bdca" opacity="0.5"/><circle cx="62.6" cy="335.1" r="2.3" fill="#b9bdca" opacity="0.5"/><circle cx="65.2" cy="368.0" r="2.3" fill="#b9bdca" opacity="0.5"/><circle cx="66.2" cy="320.7" r="2.3" fill="#b9bdca" opacity="0.5"/><circle cx="73.4" cy="319.9" r="2.3" fill="#b9bdca" opacity="0.5"/><circle cx="73.8" cy="320.6" r="2.3" fill="#b9bdca" opacity="0.5"/><circle cx="76.0" cy="315.3" r="2.3" fill="#b9bdca" opacity="0.5"/><circle cx="76.5" cy="319.7" r="2.3" fill="#b9bdca" opacity="0.5"/><circle cx="76.7" cy="314.9" r="2.3" fill="#b9bdca" opacity="0.5"/><circle cx="77.6" cy="315.5" r="2.3" fill="#b9bdca" opacity="0.5"/><circle cx="77.9" cy="314.9" r="2.3" fill="#b9bdca" opacity="0.5"/><circle cx="78.6" cy="315.4" r="2.3" fill="#b9bdca" opacity="0.5"/><circle cx="80.0" cy="315.0" r="2.3" fill="#b9bdca" opacity="0.5"/><circle cx="120.7" cy="238.7" r="2.3" fill="#b9bdca" opacity="0.5"/><circle cx="121.0" cy="315.0" r="2.3" fill="#b9bdca" opacity="0.5"/><circle cx="121.4" cy="229.0" r="2.3" fill="#b9bdca" opacity="0.5"/><circle cx="122.0" cy="222.3" r="2.3" fill="#b9bdca" opacity="0.5"/><circle cx="122.7" cy="228.0" r="2.3" fill="#b9bdca" opacity="0.5"/><circle cx="122.8" cy="223.3" r="2.3" fill="#b9bdca" opacity="0.5"/><circle cx="122.9" cy="220.6" r="2.3" fill="#b9bdca" opacity="0.5"/><circle cx="123.0" cy="220.5" r="2.3" fill="#b9bdca" opacity="0.5"/><circle cx="123.2" cy="223.2" r="2.3" fill="#b9bdca" opacity="0.5"/><circle cx="123.5" cy="214.2" r="2.3" fill="#b9bdca" opacity="0.5"/><circle cx="123.6" cy="222.1" r="2.3" fill="#b9bdca" opacity="0.5"/><circle cx="123.9" cy="220.7" r="2.3" fill="#b9bdca" opacity="0.5"/><circle cx="124.3" cy="218.5" r="2.3" fill="#b9bdca" opacity="0.5"/><circle cx="124.5" cy="215.2" r="2.3" fill="#b9bdca" opacity="0.5"/><circle cx="124.8" cy="214.3" r="2.3" fill="#b9bdca" opacity="0.5"/><circle cx="124.8" cy="219.2" r="2.3" fill="#b9bdca" opacity="0.5"/><circle cx="125.1" cy="214.1" r="2.3" fill="#b9bdca" opacity="0.5"/><circle cx="125.4" cy="215.2" r="2.3" fill="#b9bdca" opacity="0.5"/><circle cx="125.6" cy="213.7" r="2.3" fill="#b9bdca" opacity="0.5"/><circle cx="126.0" cy="213.5" r="2.3" fill="#b9bdca" opacity="0.5"/><circle cx="126.2" cy="214.8" r="2.3" fill="#b9bdca" opacity="0.5"/><circle cx="126.2" cy="217.7" r="2.3" fill="#b9bdca" opacity="0.5"/><circle cx="126.4" cy="212.7" r="2.3" fill="#b9bdca" opacity="0.5"/><circle cx="127.1" cy="213.3" r="2.3" fill="#b9bdca" opacity="0.5"/><circle cx="127.8" cy="212.7" r="2.3" fill="#b9bdca" opacity="0.5"/><circle cx="127.8" cy="213.6" r="2.3" fill="#b9bdca" opacity="0.5"/><circle cx="128.1" cy="213.0" r="2.3" fill="#b9bdca" opacity="0.5"/><circle cx="128.5" cy="212.1" r="2.3" fill="#b9bdca" opacity="0.5"/><circle cx="128.6" cy="213.3" r="2.3" fill="#b9bdca" opacity="0.5"/><circle cx="129.1" cy="212.0" r="2.3" fill="#b9bdca" opacity="0.5"/><circle cx="129.9" cy="212.1" r="2.3" fill="#b9bdca" opacity="0.5"/><circle cx="129.9" cy="212.8" r="2.3" fill="#b9bdca" opacity="0.5"/><circle cx="134.8" cy="206.7" r="2.3" fill="#b9bdca" opacity="0.5"/><circle cx="135.5" cy="206.8" r="2.3" fill="#b9bdca" opacity="0.5"/><circle cx="135.5" cy="212.5" r="2.3" fill="#b9bdca" opacity="0.5"/><circle cx="135.9" cy="207.2" r="2.3" fill="#b9bdca" opacity="0.5"/><circle cx="137.4" cy="207.0" r="2.3" fill="#b9bdca" opacity="0.5"/><circle cx="141.2" cy="204.9" r="2.3" fill="#b9bdca" opacity="0.5"/><circle cx="143.6" cy="204.6" r="2.3" fill="#b9bdca" opacity="0.5"/><circle cx="143.8" cy="212.3" r="2.3" fill="#b9bdca" opacity="0.5"/><circle cx="144.2" cy="204.6" r="2.3" fill="#b9bdca" opacity="0.5"/><circle cx="144.2" cy="204.6" r="2.3" fill="#b9bdca" opacity="0.5"/><circle cx="144.2" cy="204.9" r="2.3" fill="#b9bdca" opacity="0.5"/><circle cx="144.2" cy="204.9" r="2.3" fill="#b9bdca" opacity="0.5"/><circle cx="145.1" cy="201.9" r="2.3" fill="#b9bdca" opacity="0.5"/><circle cx="146.6" cy="206.5" r="2.3" fill="#b9bdca" opacity="0.5"/><circle cx="147.2" cy="205.8" r="2.3" fill="#b9bdca" opacity="0.5"/><circle cx="147.2" cy="335.1" r="2.3" fill="#b9bdca" opacity="0.5"/><circle cx="148.0" cy="201.8" r="2.3" fill="#b9bdca" opacity="0.5"/><circle cx="148.0" cy="202.2" r="2.3" fill="#b9bdca" opacity="0.5"/><circle cx="149.4" cy="201.0" r="2.3" fill="#b9bdca" opacity="0.5"/><circle cx="150.0" cy="203.1" r="2.3" fill="#b9bdca" opacity="0.5"/><circle cx="150.3" cy="200.0" r="2.3" fill="#b9bdca" opacity="0.5"/><circle cx="150.3" cy="204.6" r="2.3" fill="#b9bdca" opacity="0.5"/><circle cx="151.2" cy="202.3" r="2.3" fill="#b9bdca" opacity="0.5"/><circle cx="153.0" cy="200.4" r="2.3" fill="#b9bdca" opacity="0.5"/><circle cx="153.7" cy="200.7" r="2.3" fill="#b9bdca" opacity="0.5"/><circle cx="154.4" cy="200.0" r="2.3" fill="#b9bdca" opacity="0.5"/><circle cx="156.1" cy="199.7" r="2.3" fill="#b9bdca" opacity="0.5"/><circle cx="166.4" cy="200.6" r="2.3" fill="#b9bdca" opacity="0.5"/><circle cx="167.2" cy="201.8" r="2.3" fill="#b9bdca" opacity="0.5"/><circle cx="168.6" cy="208.4" r="2.3" fill="#b9bdca" opacity="0.5"/><circle cx="168.7" cy="200.8" r="2.3" fill="#b9bdca" opacity="0.5"/><circle cx="169.7" cy="200.7" r="2.3" fill="#b9bdca" opacity="0.5"/><circle cx="169.7" cy="201.9" r="2.3" fill="#b9bdca" opacity="0.5"/><circle cx="170.1" cy="195.5" r="2.3" fill="#b9bdca" opacity="0.5"/><circle cx="171.0" cy="196.9" r="2.3" fill="#b9bdca" opacity="0.5"/><circle cx="171.5" cy="197.9" r="2.3" fill="#b9bdca" opacity="0.5"/><circle cx="172.4" cy="196.1" r="2.3" fill="#b9bdca" opacity="0.5"/><circle cx="175.6" cy="197.3" r="2.3" fill="#b9bdca" opacity="0.5"/><circle cx="176.4" cy="195.9" r="2.3" fill="#b9bdca" opacity="0.5"/><circle cx="176.7" cy="201.0" r="2.3" fill="#b9bdca" opacity="0.5"/><circle cx="177.0" cy="197.5" r="2.3" fill="#b9bdca" opacity="0.5"/><circle cx="177.7" cy="196.9" r="2.3" fill="#b9bdca" opacity="0.5"/><circle cx="177.7" cy="197.1" r="2.3" fill="#b9bdca" opacity="0.5"/><circle cx="177.8" cy="197.0" r="2.3" fill="#b9bdca" opacity="0.5"/><circle cx="178.5" cy="196.0" r="2.3" fill="#b9bdca" opacity="0.5"/><circle cx="178.5" cy="196.0" r="2.3" fill="#b9bdca" opacity="0.5"/><circle cx="178.6" cy="197.9" r="2.3" fill="#b9bdca" opacity="0.5"/><circle cx="179.1" cy="197.8" r="2.3" fill="#b9bdca" opacity="0.5"/><circle cx="179.6" cy="196.2" r="2.3" fill="#b9bdca" opacity="0.5"/><circle cx="179.6" cy="197.5" r="2.3" fill="#b9bdca" opacity="0.5"/><circle cx="179.7" cy="196.9" r="2.3" fill="#b9bdca" opacity="0.5"/><circle cx="179.8" cy="195.5" r="2.3" fill="#b9bdca" opacity="0.5"/><circle cx="180.5" cy="198.1" r="2.3" fill="#b9bdca" opacity="0.5"/><circle cx="180.5" cy="187.4" r="2.3" fill="#b9bdca" opacity="0.5"/><circle cx="180.8" cy="186.2" r="2.3" fill="#b9bdca" opacity="0.5"/><circle cx="180.8" cy="196.3" r="2.3" fill="#b9bdca" opacity="0.5"/><circle cx="180.8" cy="197.2" r="2.3" fill="#b9bdca" opacity="0.5"/><circle cx="180.8" cy="197.8" r="2.3" fill="#b9bdca" opacity="0.5"/><circle cx="180.8" cy="368.0" r="2.3" fill="#b9bdca" opacity="0.5"/><circle cx="181.5" cy="184.5" r="2.3" fill="#b9bdca" opacity="0.5"/><circle cx="184.3" cy="184.6" r="2.3" fill="#b9bdca" opacity="0.5"/><circle cx="185.5" cy="185.6" r="2.3" fill="#b9bdca" opacity="0.5"/><circle cx="189.5" cy="188.7" r="2.3" fill="#b9bdca" opacity="0.5"/><circle cx="195.0" cy="185.4" r="2.3" fill="#b9bdca" opacity="0.5"/><circle cx="196.2" cy="185.2" r="2.3" fill="#b9bdca" opacity="0.5"/><circle cx="196.6" cy="186.6" r="2.3" fill="#b9bdca" opacity="0.5"/><circle cx="196.7" cy="185.3" r="2.3" fill="#b9bdca" opacity="0.5"/><circle cx="197.6" cy="185.3" r="2.3" fill="#b9bdca" opacity="0.5"/><circle cx="198.1" cy="185.0" r="2.3" fill="#b9bdca" opacity="0.5"/><circle cx="199.0" cy="184.9" r="2.3" fill="#b9bdca" opacity="0.5"/><circle cx="199.7" cy="185.1" r="2.3" fill="#b9bdca" opacity="0.5"/><circle cx="199.7" cy="185.2" r="2.3" fill="#b9bdca" opacity="0.5"/><circle cx="199.7" cy="186.4" r="2.3" fill="#b9bdca" opacity="0.5"/><circle cx="199.8" cy="183.9" r="2.3" fill="#b9bdca" opacity="0.5"/><circle cx="204.8" cy="184.4" r="2.3" fill="#b9bdca" opacity="0.5"/><circle cx="205.6" cy="184.2" r="2.3" fill="#b9bdca" opacity="0.5"/><circle cx="208.8" cy="169.3" r="2.3" fill="#b9bdca" opacity="0.5"/><circle cx="211.8" cy="168.8" r="2.3" fill="#b9bdca" opacity="0.5"/><circle cx="212.0" cy="167.7" r="2.3" fill="#b9bdca" opacity="0.5"/><circle cx="213.4" cy="201.4" r="2.3" fill="#b9bdca" opacity="0.5"/><circle cx="213.8" cy="165.0" r="2.3" fill="#b9bdca" opacity="0.5"/><circle cx="214.0" cy="198.2" r="2.3" fill="#b9bdca" opacity="0.5"/><circle cx="214.4" cy="163.7" r="2.3" fill="#b9bdca" opacity="0.5"/><circle cx="214.6" cy="163.6" r="2.3" fill="#b9bdca" opacity="0.5"/><circle cx="215.1" cy="165.9" r="2.3" fill="#b9bdca" opacity="0.5"/><circle cx="217.9" cy="165.1" r="2.3" fill="#b9bdca" opacity="0.5"/><circle cx="218.5" cy="155.9" r="2.3" fill="#b9bdca" opacity="0.5"/><circle cx="221.1" cy="196.5" r="2.3" fill="#b9bdca" opacity="0.5"/><circle cx="222.2" cy="157.4" r="2.3" fill="#b9bdca" opacity="0.5"/><circle cx="223.2" cy="155.8" r="2.3" fill="#b9bdca" opacity="0.5"/><circle cx="225.0" cy="141.9" r="2.3" fill="#b9bdca" opacity="0.5"/><circle cx="228.5" cy="156.1" r="2.3" fill="#b9bdca" opacity="0.5"/><circle cx="228.5" cy="156.4" r="2.3" fill="#b9bdca" opacity="0.5"/><circle cx="228.7" cy="141.8" r="2.3" fill="#b9bdca" opacity="0.5"/><circle cx="228.9" cy="196.0" r="2.3" fill="#b9bdca" opacity="0.5"/><circle cx="230.1" cy="131.7" r="2.3" fill="#b9bdca" opacity="0.5"/><circle cx="230.3" cy="134.1" r="2.3" fill="#b9bdca" opacity="0.5"/><circle cx="230.7" cy="141.1" r="2.3" fill="#b9bdca" opacity="0.5"/><circle cx="231.3" cy="134.0" r="2.3" fill="#b9bdca" opacity="0.5"/><circle cx="231.4" cy="130.9" r="2.3" fill="#b9bdca" opacity="0.5"/><circle cx="231.4" cy="154.2" r="2.3" fill="#b9bdca" opacity="0.5"/><circle cx="231.6" cy="133.6" r="2.3" fill="#b9bdca" opacity="0.5"/><circle cx="231.9" cy="129.5" r="2.3" fill="#b9bdca" opacity="0.5"/><circle cx="231.9" cy="130.9" r="2.3" fill="#b9bdca" opacity="0.5"/><circle cx="231.9" cy="133.4" r="2.3" fill="#b9bdca" opacity="0.5"/><circle cx="232.2" cy="131.2" r="2.3" fill="#b9bdca" opacity="0.5"/><circle cx="234.4" cy="189.8" r="2.3" fill="#b9bdca" opacity="0.5"/><circle cx="234.5" cy="133.2" r="2.3" fill="#b9bdca" opacity="0.5"/><circle cx="234.9" cy="133.5" r="2.3" fill="#b9bdca" opacity="0.5"/><circle cx="235.7" cy="130.1" r="2.3" fill="#b9bdca" opacity="0.5"/><circle cx="237.9" cy="130.3" r="2.3" fill="#b9bdca" opacity="0.5"/><circle cx="238.9" cy="303.1" r="2.3" fill="#b9bdca" opacity="0.5"/><circle cx="240.7" cy="133.2" r="2.3" fill="#b9bdca" opacity="0.5"/><circle cx="243.1" cy="144.2" r="2.3" fill="#b9bdca" opacity="0.5"/><circle cx="243.6" cy="135.3" r="2.3" fill="#b9bdca" opacity="0.5"/><circle cx="245.1" cy="133.4" r="2.3" fill="#b9bdca" opacity="0.5"/><circle cx="245.3" cy="159.9" r="2.3" fill="#b9bdca" opacity="0.5"/><circle cx="245.7" cy="130.8" r="2.3" fill="#b9bdca" opacity="0.5"/><circle cx="246.2" cy="133.2" r="2.3" fill="#b9bdca" opacity="0.5"/><circle cx="251.7" cy="130.9" r="2.3" fill="#b9bdca" opacity="0.5"/><circle cx="252.3" cy="130.9" r="2.3" fill="#b9bdca" opacity="0.5"/><circle cx="252.3" cy="133.8" r="2.3" fill="#b9bdca" opacity="0.5"/><circle cx="253.2" cy="130.4" r="2.3" fill="#b9bdca" opacity="0.5"/><circle cx="253.8" cy="153.7" r="2.3" fill="#b9bdca" opacity="0.5"/><circle cx="254.8" cy="133.3" r="2.3" fill="#b9bdca" opacity="0.5"/><circle cx="256.5" cy="156.5" r="2.3" fill="#b9bdca" opacity="0.5"/><circle cx="256.8" cy="132.3" r="2.3" fill="#b9bdca" opacity="0.5"/><circle cx="258.8" cy="147.2" r="2.3" fill="#b9bdca" opacity="0.5"/><circle cx="259.2" cy="133.6" r="2.3" fill="#b9bdca" opacity="0.5"/><circle cx="259.9" cy="129.5" r="2.3" fill="#b9bdca" opacity="0.5"/><circle cx="259.9" cy="133.3" r="2.3" fill="#b9bdca" opacity="0.5"/><circle cx="262.3" cy="133.3" r="2.3" fill="#b9bdca" opacity="0.5"/><circle cx="263.9" cy="129.5" r="2.3" fill="#b9bdca" opacity="0.5"/><circle cx="266.7" cy="130.6" r="2.3" fill="#b9bdca" opacity="0.5"/><circle cx="268.7" cy="128.9" r="2.3" fill="#b9bdca" opacity="0.5"/><circle cx="269.1" cy="132.7" r="2.3" fill="#b9bdca" opacity="0.5"/><circle cx="269.1" cy="133.1" r="2.3" fill="#b9bdca" opacity="0.5"/><circle cx="272.2" cy="129.8" r="2.3" fill="#b9bdca" opacity="0.5"/><circle cx="273.0" cy="333.8" r="2.3" fill="#b9bdca" opacity="0.5"/><circle cx="273.3" cy="128.4" r="2.3" fill="#b9bdca" opacity="0.5"/><circle cx="274.7" cy="129.8" r="2.3" fill="#b9bdca" opacity="0.5"/><circle cx="275.3" cy="128.9" r="2.3" fill="#b9bdca" opacity="0.5"/><circle cx="275.4" cy="128.9" r="2.3" fill="#b9bdca" opacity="0.5"/><circle cx="276.5" cy="128.2" r="2.3" fill="#b9bdca" opacity="0.5"/><circle cx="277.3" cy="129.7" r="2.3" fill="#b9bdca" opacity="0.5"/><circle cx="277.5" cy="142.3" r="2.3" fill="#b9bdca" opacity="0.5"/><circle cx="280.4" cy="128.8" r="2.3" fill="#b9bdca" opacity="0.5"/><circle cx="282.1" cy="161.1" r="2.3" fill="#b9bdca" opacity="0.5"/><circle cx="285.4" cy="164.4" r="2.3" fill="#b9bdca" opacity="0.5"/><circle cx="285.8" cy="248.3" r="2.3" fill="#b9bdca" opacity="0.5"/><circle cx="290.5" cy="135.4" r="2.3" fill="#b9bdca" opacity="0.5"/><circle cx="290.9" cy="128.0" r="2.3" fill="#b9bdca" opacity="0.5"/><circle cx="292.4" cy="229.0" r="2.3" fill="#b9bdca" opacity="0.5"/><circle cx="295.6" cy="128.1" r="2.3" fill="#b9bdca" opacity="0.5"/><circle cx="296.5" cy="128.6" r="2.3" fill="#b9bdca" opacity="0.5"/><circle cx="299.6" cy="128.8" r="2.3" fill="#b9bdca" opacity="0.5"/><circle cx="299.6" cy="129.6" r="2.3" fill="#b9bdca" opacity="0.5"/><circle cx="299.6" cy="130.9" r="2.3" fill="#b9bdca" opacity="0.5"/><circle cx="306.0" cy="112.8" r="2.3" fill="#b9bdca" opacity="0.5"/><circle cx="309.4" cy="110.2" r="2.3" fill="#b9bdca" opacity="0.5"/><circle cx="309.5" cy="111.6" r="2.3" fill="#b9bdca" opacity="0.5"/><circle cx="311.6" cy="111.0" r="2.3" fill="#b9bdca" opacity="0.5"/><circle cx="312.6" cy="335.1" r="2.3" fill="#b9bdca" opacity="0.5"/><circle cx="313.1" cy="111.6" r="2.3" fill="#b9bdca" opacity="0.5"/><circle cx="315.3" cy="105.5" r="2.3" fill="#b9bdca" opacity="0.5"/><circle cx="315.6" cy="108.5" r="2.3" fill="#b9bdca" opacity="0.5"/><circle cx="316.5" cy="105.1" r="2.3" fill="#b9bdca" opacity="0.5"/><circle cx="317.5" cy="103.8" r="2.3" fill="#b9bdca" opacity="0.5"/><circle cx="318.6" cy="125.8" r="2.3" fill="#b9bdca" opacity="0.5"/><circle cx="327.9" cy="103.5" r="2.3" fill="#b9bdca" opacity="0.5"/><circle cx="330.3" cy="127.8" r="2.3" fill="#b9bdca" opacity="0.5"/><circle cx="331.3" cy="334.3" r="2.3" fill="#b9bdca" opacity="0.5"/><circle cx="332.8" cy="128.6" r="2.3" fill="#b9bdca" opacity="0.5"/><circle cx="333.4" cy="128.6" r="2.3" fill="#b9bdca" opacity="0.5"/><circle cx="333.6" cy="128.6" r="2.3" fill="#b9bdca" opacity="0.5"/><circle cx="334.4" cy="256.6" r="2.3" fill="#b9bdca" opacity="0.5"/><circle cx="335.5" cy="254.6" r="2.3" fill="#b9bdca" opacity="0.5"/><circle cx="337.2" cy="128.6" r="2.3" fill="#b9bdca" opacity="0.5"/><circle cx="341.4" cy="250.1" r="2.3" fill="#b9bdca" opacity="0.5"/><circle cx="341.8" cy="161.4" r="2.3" fill="#b9bdca" opacity="0.5"/><circle cx="342.3" cy="206.6" r="2.3" fill="#b9bdca" opacity="0.5"/><circle cx="346.2" cy="113.5" r="2.3" fill="#b9bdca" opacity="0.5"/><circle cx="347.5" cy="89.6" r="2.3" fill="#b9bdca" opacity="0.5"/><circle cx="348.5" cy="90.2" r="2.3" fill="#b9bdca" opacity="0.5"/><circle cx="351.0" cy="89.3" r="2.3" fill="#b9bdca" opacity="0.5"/><circle cx="351.6" cy="87.6" r="2.3" fill="#b9bdca" opacity="0.5"/><circle cx="352.5" cy="185.0" r="2.3" fill="#b9bdca" opacity="0.5"/><circle cx="353.3" cy="131.6" r="2.3" fill="#b9bdca" opacity="0.5"/><circle cx="354.0" cy="87.8" r="2.3" fill="#b9bdca" opacity="0.5"/><circle cx="355.1" cy="85.4" r="2.3" fill="#b9bdca" opacity="0.5"/><circle cx="356.9" cy="86.8" r="2.3" fill="#b9bdca" opacity="0.5"/><circle cx="358.7" cy="88.4" r="2.3" fill="#b9bdca" opacity="0.5"/><circle cx="366.1" cy="89.5" r="2.3" fill="#b9bdca" opacity="0.5"/><circle cx="366.1" cy="155.6" r="2.3" fill="#b9bdca" opacity="0.5"/><circle cx="366.1" cy="84.4" r="2.3" fill="#b9bdca" opacity="0.5"/><circle cx="374.9" cy="89.2" r="2.3" fill="#b9bdca" opacity="0.5"/><circle cx="375.1" cy="90.5" r="2.3" fill="#b9bdca" opacity="0.5"/><circle cx="377.6" cy="87.7" r="2.3" fill="#b9bdca" opacity="0.5"/><circle cx="378.4" cy="367.9" r="2.3" fill="#b9bdca" opacity="0.5"/><circle cx="382.0" cy="164.3" r="2.3" fill="#b9bdca" opacity="0.5"/><circle cx="383.7" cy="94.6" r="2.3" fill="#b9bdca" opacity="0.5"/><circle cx="384.4" cy="89.6" r="2.3" fill="#b9bdca" opacity="0.5"/><circle cx="392.0" cy="124.6" r="2.3" fill="#b9bdca" opacity="0.5"/><circle cx="400.1" cy="146.2" r="2.3" fill="#b9bdca" opacity="0.5"/><circle cx="400.3" cy="90.5" r="2.3" fill="#b9bdca" opacity="0.5"/><circle cx="401.1" cy="87.7" r="2.3" fill="#b9bdca" opacity="0.5"/><circle cx="401.5" cy="87.7" r="2.3" fill="#b9bdca" opacity="0.5"/><circle cx="401.5" cy="89.6" r="2.3" fill="#b9bdca" opacity="0.5"/><circle cx="407.3" cy="93.0" r="2.3" fill="#b9bdca" opacity="0.5"/><circle cx="409.3" cy="85.5" r="2.3" fill="#b9bdca" opacity="0.5"/><circle cx="426.3" cy="334.8" r="2.3" fill="#b9bdca" opacity="0.5"/><circle cx="428.3" cy="86.3" r="2.3" fill="#b9bdca" opacity="0.5"/><circle cx="434.0" cy="85.5" r="2.3" fill="#b9bdca" opacity="0.5"/><circle cx="435.0" cy="84.6" r="2.3" fill="#b9bdca" opacity="0.5"/><circle cx="437.4" cy="87.8" r="2.3" fill="#b9bdca" opacity="0.5"/><circle cx="438.4" cy="84.4" r="2.3" fill="#b9bdca" opacity="0.5"/><circle cx="438.9" cy="84.8" r="2.3" fill="#b9bdca" opacity="0.5"/><circle cx="440.6" cy="87.4" r="2.3" fill="#b9bdca" opacity="0.5"/><circle cx="449.7" cy="84.4" r="2.3" fill="#b9bdca" opacity="0.5"/><circle cx="489.8" cy="89.3" r="2.3" fill="#b9bdca" opacity="0.5"/><circle cx="497.1" cy="88.6" r="2.3" fill="#b9bdca" opacity="0.5"/><circle cx="497.1" cy="92.1" r="2.3" fill="#b9bdca" opacity="0.5"/><circle cx="498.6" cy="156.8" r="2.3" fill="#b9bdca" opacity="0.5"/><circle cx="521.8" cy="201.6" r="2.3" fill="#b9bdca" opacity="0.5"/><circle cx="538.6" cy="315.6" r="2.3" fill="#b9bdca" opacity="0.5"/><circle cx="584.9" cy="87.7" r="2.3" fill="#b9bdca" opacity="0.5"/><circle cx="598.8" cy="87.6" r="2.3" fill="#b9bdca" opacity="0.5"/><circle cx="611.3" cy="87.2" r="2.3" fill="#b9bdca" opacity="0.5"/><circle cx="614.1" cy="88.8" r="2.3" fill="#b9bdca" opacity="0.5"/><circle cx="615.2" cy="89.2" r="2.3" fill="#b9bdca" opacity="0.5"/><circle cx="615.8" cy="90.9" r="2.3" fill="#b9bdca" opacity="0.5"/><circle cx="619.4" cy="87.7" r="2.3" fill="#b9bdca" opacity="0.5"/><circle cx="631.9" cy="88.6" r="2.3" fill="#b9bdca" opacity="0.5"/><circle cx="633.5" cy="89.7" r="2.3" fill="#b9bdca" opacity="0.5"/><circle cx="634.5" cy="88.2" r="2.3" fill="#b9bdca" opacity="0.5"/><circle cx="658.0" cy="75.8" r="2.3" fill="#b9bdca" opacity="0.5"/><circle cx="659.8" cy="75.7" r="2.3" fill="#b9bdca" opacity="0.5"/><circle cx="661.1" cy="76.7" r="2.3" fill="#b9bdca" opacity="0.5"/><circle cx="661.2" cy="75.8" r="2.3" fill="#b9bdca" opacity="0.5"/><circle cx="662.0" cy="75.3" r="2.3" fill="#b9bdca" opacity="0.5"/><circle cx="662.3" cy="74.7" r="2.3" fill="#b9bdca" opacity="0.5"/><circle cx="662.6" cy="83.4" r="2.3" fill="#b9bdca" opacity="0.5"/><circle cx="663.1" cy="76.2" r="2.3" fill="#b9bdca" opacity="0.5"/><circle cx="663.7" cy="78.1" r="2.3" fill="#b9bdca" opacity="0.5"/><circle cx="664.2" cy="74.7" r="2.3" fill="#b9bdca" opacity="0.5"/><circle cx="668.1" cy="89.3" r="2.3" fill="#b9bdca" opacity="0.5"/><circle cx="675.9" cy="74.4" r="2.3" fill="#b9bdca" opacity="0.5"/><circle cx="688.4" cy="74.4" r="2.3" fill="#b9bdca" opacity="0.5"/><circle cx="690.4" cy="335.1" r="2.3" fill="#b9bdca" opacity="0.5"/><circle cx="690.4" cy="81.7" r="2.3" fill="#b9bdca" opacity="0.5"/><circle cx="691.9" cy="74.6" r="2.3" fill="#b9bdca" opacity="0.5"/><circle cx="691.9" cy="82.1" r="2.3" fill="#b9bdca" opacity="0.5"/><circle cx="691.9" cy="73.9" r="2.3" fill="#b9bdca" opacity="0.5"/><circle cx="695.5" cy="76.2" r="2.3" fill="#b9bdca" opacity="0.5"/><circle cx="696.1" cy="82.1" r="2.3" fill="#b9bdca" opacity="0.5"/><circle cx="696.6" cy="74.2" r="2.3" fill="#b9bdca" opacity="0.5"/><circle cx="696.6" cy="75.0" r="2.3" fill="#b9bdca" opacity="0.5"/><circle cx="697.4" cy="73.6" r="2.3" fill="#b9bdca" opacity="0.5"/><circle cx="697.4" cy="83.3" r="2.3" fill="#b9bdca" opacity="0.5"/><circle cx="697.4" cy="83.8" r="2.3" fill="#b9bdca" opacity="0.5"/><circle cx="697.4" cy="78.1" r="2.3" fill="#b9bdca" opacity="0.5"/><circle cx="697.4" cy="81.5" r="2.3" fill="#b9bdca" opacity="0.5"/><circle cx="697.4" cy="83.0" r="2.3" fill="#b9bdca" opacity="0.5"/><circle cx="697.4" cy="83.7" r="2.3" fill="#b9bdca" opacity="0.5"/><circle cx="702.4" cy="82.7" r="2.3" fill="#b9bdca" opacity="0.5"/><circle cx="703.4" cy="77.8" r="2.3" fill="#b9bdca" opacity="0.5"/><circle cx="706.0" cy="69.8" r="2.3" fill="#b9bdca" opacity="0.5"/><circle cx="706.9" cy="75.9" r="2.3" fill="#b9bdca" opacity="0.5"/><circle cx="707.2" cy="74.3" r="2.3" fill="#b9bdca" opacity="0.5"/><circle cx="707.2" cy="77.4" r="2.3" fill="#b9bdca" opacity="0.5"/><circle cx="707.2" cy="80.6" r="2.3" fill="#b9bdca" opacity="0.5"/><circle cx="707.2" cy="81.8" r="2.3" fill="#b9bdca" opacity="0.5"/><circle cx="709.0" cy="76.9" r="2.3" fill="#b9bdca" opacity="0.5"/><circle cx="709.0" cy="82.8" r="2.3" fill="#b9bdca" opacity="0.5"/><circle cx="709.0" cy="83.0" r="2.3" fill="#b9bdca" opacity="0.5"/><circle cx="709.0" cy="83.1" r="2.3" fill="#b9bdca" opacity="0.5"/><circle cx="709.8" cy="69.1" r="2.3" fill="#b9bdca" opacity="0.5"/><circle cx="711.8" cy="75.5" r="2.3" fill="#b9bdca" opacity="0.5"/><circle cx="712.9" cy="74.3" r="2.3" fill="#b9bdca" opacity="0.5"/><circle cx="744.4" cy="74.0" r="2.3" fill="#b9bdca" opacity="0.5"/><circle cx="781.8" cy="73.4" r="2.3" fill="#b9bdca" opacity="0.5"/><circle cx="782.1" cy="75.9" r="2.3" fill="#b9bdca" opacity="0.5"/><circle cx="782.1" cy="76.3" r="2.3" fill="#b9bdca" opacity="0.5"/><circle cx="782.4" cy="76.0" r="2.3" fill="#b9bdca" opacity="0.5"/><circle cx="782.4" cy="76.8" r="2.3" fill="#b9bdca" opacity="0.5"/><circle cx="782.4" cy="81.2" r="2.3" fill="#b9bdca" opacity="0.5"/><circle cx="782.4" cy="83.4" r="2.3" fill="#b9bdca" opacity="0.5"/><circle cx="808.8" cy="76.6" r="2.3" fill="#b9bdca" opacity="0.5"/><circle cx="810.6" cy="76.7" r="2.3" fill="#b9bdca" opacity="0.5"/><circle cx="810.6" cy="82.8" r="2.3" fill="#b9bdca" opacity="0.5"/><circle cx="810.6" cy="82.8" r="2.3" fill="#b9bdca" opacity="0.5"/><circle cx="810.6" cy="83.3" r="2.3" fill="#b9bdca" opacity="0.5"/><circle cx="816.1" cy="233.4" r="2.3" fill="#b9bdca" opacity="0.5"/><circle cx="817.8" cy="228.9" r="2.3" fill="#b9bdca" opacity="0.5"/><circle cx="819.4" cy="198.3" r="2.3" fill="#b9bdca" opacity="0.5"/><circle cx="853.8" cy="73.4" r="2.3" fill="#b9bdca" opacity="0.5"/><circle cx="863.4" cy="192.4" r="2.3" fill="#b9bdca" opacity="0.5"/><circle cx="866.8" cy="75.3" r="2.3" fill="#b9bdca" opacity="0.5"/><circle cx="867.6" cy="74.0" r="2.3" fill="#b9bdca" opacity="0.5"/><circle cx="869.8" cy="194.4" r="2.3" fill="#b9bdca" opacity="0.5"/><circle cx="873.1" cy="168.6" r="2.3" fill="#b9bdca" opacity="0.5"/><circle cx="875.2" cy="77.1" r="2.3" fill="#b9bdca" opacity="0.5"/><circle cx="875.2" cy="99.5" r="2.3" fill="#b9bdca" opacity="0.5"/><circle cx="901.7" cy="71.4" r="2.3" fill="#b9bdca" opacity="0.5"/><circle cx="901.7" cy="73.5" r="2.3" fill="#b9bdca" opacity="0.5"/><circle cx="911.2" cy="72.4" r="2.3" fill="#b9bdca" opacity="0.5"/><circle cx="949.9" cy="83.0" r="2.3" fill="#b9bdca" opacity="0.5"/><circle cx="950.4" cy="72.1" r="2.3" fill="#b9bdca" opacity="0.5"/><circle cx="951.0" cy="71.6" r="2.3" fill="#b9bdca" opacity="0.5"/><circle cx="952.1" cy="75.5" r="2.3" fill="#b9bdca" opacity="0.5"/><circle cx="952.8" cy="73.7" r="2.3" fill="#b9bdca" opacity="0.5"/><circle cx="954.4" cy="72.9" r="2.3" fill="#b9bdca" opacity="0.5"/><circle cx="955.2" cy="73.4" r="2.3" fill="#b9bdca" opacity="0.5"/><circle cx="1030.8" cy="85.2" r="2.3" fill="#b9bdca" opacity="0.5"/><circle cx="1030.8" cy="256.6" r="2.3" fill="#b9bdca" opacity="0.5"/><circle cx="1030.8" cy="335.3" r="2.3" fill="#b9bdca" opacity="0.5"/><circle cx="1031.3" cy="86.8" r="2.3" fill="#b9bdca" opacity="0.5"/><circle cx="1032.0" cy="71.5" r="2.3" fill="#b9bdca" opacity="0.5"/><path d="M218.5 152.3L222.1 155.9L218.5 159.5L214.9 155.9Z" fill="#2b3a7a" opacity="0.8" stroke="none" stroke-width="0"/><path d="M228.7 138.2L232.3 141.8L228.7 145.4L225.1 141.8Z" fill="#2b3a7a" opacity="0.8" stroke="none" stroke-width="0"/><path d="M230.1 128.1L233.7 131.7L230.1 135.3L226.5 131.7Z" fill="#2b3a7a" opacity="0.8" stroke="none" stroke-width="0"/><path d="M230.3 130.5L233.9 134.1L230.3 137.7L226.7 134.1Z" fill="#2b3a7a" opacity="0.8" stroke="none" stroke-width="0"/><path d="M231.4 127.3L235.0 130.9L231.4 134.5L227.8 130.9Z" fill="#2b3a7a" opacity="0.8" stroke="none" stroke-width="0"/><path d="M231.9 125.9L235.5 129.5L231.9 133.1L228.3 129.5Z" fill="#2b3a7a" opacity="0.8" stroke="none" stroke-width="0"/><path d="M231.9 127.3L235.5 130.9L231.9 134.5L228.3 130.9Z" fill="#2b3a7a" opacity="0.8" stroke="none" stroke-width="0"/><path d="M263.9 125.9L267.5 129.5L263.9 133.1L260.3 129.5Z" fill="#2b3a7a" opacity="0.8" stroke="none" stroke-width="0"/><path d="M268.7 125.3L272.3 128.9L268.7 132.5L265.1 128.9Z" fill="#2b3a7a" opacity="0.8" stroke="none" stroke-width="0"/><path d="M273.3 124.8L276.9 128.4L273.3 132.0L269.7 128.4Z" fill="#2b3a7a" opacity="0.8" stroke="none" stroke-width="0"/><path d="M276.5 124.6L280.1 128.2L276.5 131.8L272.9 128.2Z" fill="#2b3a7a" opacity="0.8" stroke="none" stroke-width="0"/><path d="M290.9 124.4L294.5 128.0L290.9 131.6L287.3 128.0Z" fill="#2b3a7a" opacity="0.8" stroke="none" stroke-width="0"/><path d="M306.0 109.2L309.6 112.8L306.0 116.4L302.4 112.8Z" fill="#2b3a7a" opacity="0.8" stroke="none" stroke-width="0"/><path d="M313.1 108.0L316.7 111.6L313.1 115.2L309.5 111.6Z" fill="#2b3a7a" opacity="0.8" stroke="none" stroke-width="0"/><path d="M315.3 101.9L318.9 105.5L315.3 109.1L311.7 105.5Z" fill="#2b3a7a" opacity="0.8" stroke="none" stroke-width="0"/><path d="M315.6 104.9L319.2 108.5L315.6 112.1L312.0 108.5Z" fill="#2b3a7a" opacity="0.8" stroke="none" stroke-width="0"/><path d="M316.5 101.5L320.1 105.1L316.5 108.7L312.9 105.1Z" fill="#2b3a7a" opacity="0.8" stroke="none" stroke-width="0"/><path d="M317.5 100.2L321.1 103.8L317.5 107.4L313.9 103.8Z" fill="#2b3a7a" opacity="0.8" stroke="none" stroke-width="0"/><path d="M327.9 99.9L331.5 103.5L327.9 107.1L324.3 103.5Z" fill="#2b3a7a" opacity="0.8" stroke="none" stroke-width="0"/><path d="M347.5 86.0L351.1 89.6L347.5 93.2L343.9 89.6Z" fill="#2b3a7a" opacity="0.8" stroke="none" stroke-width="0"/><path d="M351.0 85.7L354.6 89.3L351.0 92.9L347.4 89.3Z" fill="#2b3a7a" opacity="0.8" stroke="none" stroke-width="0"/><path d="M351.6 84.0L355.2 87.6L351.6 91.2L348.0 87.6Z" fill="#2b3a7a" opacity="0.8" stroke="none" stroke-width="0"/><path d="M355.1 81.8L358.7 85.4L355.1 89.0L351.5 85.4Z" fill="#2b3a7a" opacity="0.8" stroke="none" stroke-width="0"/><path d="M366.1 80.8L369.7 84.4L366.1 88.0L362.5 84.4Z" fill="#2b3a7a" opacity="0.8" stroke="none" stroke-width="0"/><path d="M449.7 80.8L453.3 84.4L449.7 88.0L446.1 84.4Z" fill="#2b3a7a" opacity="0.8" stroke="none" stroke-width="0"/><path d="M658.0 72.2L661.6 75.8L658.0 79.4L654.4 75.8Z" fill="#2b3a7a" opacity="0.8" stroke="none" stroke-width="0"/><path d="M659.8 72.1L663.4 75.7L659.8 79.3L656.2 75.7Z" fill="#2b3a7a" opacity="0.8" stroke="none" stroke-width="0"/><path d="M662.0 71.7L665.6 75.3L662.0 78.9L658.4 75.3Z" fill="#2b3a7a" opacity="0.8" stroke="none" stroke-width="0"/><path d="M662.3 71.1L665.9 74.7L662.3 78.3L658.7 74.7Z" fill="#2b3a7a" opacity="0.8" stroke="none" stroke-width="0"/><path d="M664.2 71.1L667.8 74.7L664.2 78.3L660.6 74.7Z" fill="#2b3a7a" opacity="0.8" stroke="none" stroke-width="0"/><path d="M675.9 70.8L679.5 74.4L675.9 78.0L672.3 74.4Z" fill="#2b3a7a" opacity="0.8" stroke="none" stroke-width="0"/><path d="M691.9 70.3L695.5 73.9L691.9 77.5L688.3 73.9Z" fill="#2b3a7a" opacity="0.8" stroke="none" stroke-width="0"/><path d="M697.4 70.0L701.0 73.6L697.4 77.2L693.8 73.6Z" fill="#2b3a7a" opacity="0.8" stroke="none" stroke-width="0"/><path d="M781.8 69.8L785.4 73.4L781.8 77.0L778.2 73.4Z" fill="#2b3a7a" opacity="0.8" stroke="none" stroke-width="0"/><path d="M853.8 69.8L857.4 73.4L853.8 77.0L850.2 73.4Z" fill="#2b3a7a" opacity="0.8" stroke="none" stroke-width="0"/><path d="M901.7 67.8L905.3 71.4L901.7 75.0L898.1 71.4Z" fill="#2b3a7a" opacity="0.8" stroke="none" stroke-width="0"/><path d="M60.0 335.3L62.6 335.3L62.6 335.1L66.2 335.1L66.2 320.7L73.4 320.7L73.4 319.9L76.0 319.9L76.0 315.3L76.7 315.3L76.7 314.9L77.9 314.9L77.9 314.9L120.7 314.9L120.7 238.7L121.4 238.7L121.4 229.0L122.0 229.0L122.0 222.3L122.9 222.3L122.9 220.6L123.0 220.6L123.0 220.5L123.5 220.5L123.5 214.2L125.1 214.2L125.1 214.1L125.6 214.1L125.6 213.7L126.0 213.7L126.0 213.5L126.4 213.5L126.4 212.7L128.5 212.7L128.5 212.1L129.1 212.1L129.1 212.0L134.8 212.0L134.8 206.7L141.2 206.7L141.2 204.9L143.6 204.9L143.6 204.6L145.1 204.6L145.1 201.9L148.0 201.9L148.0 201.8L149.4 201.8L149.4 201.0L150.3 201.0L150.3 200.0L154.4 200.0L154.4 200.0L156.1 200.0L156.1 199.7L170.1 199.7L170.1 195.5L180.5 195.5L180.5 187.4L180.8 187.4L180.8 186.2L181.5 186.2L181.5 184.5L199.8 184.5L199.8 183.9L208.8 183.9L208.8 169.3L211.8 169.3L211.8 168.8L212.0 168.8L212.0 167.7L213.8 167.7L213.8 165.0L214.4 165.0L214.4 163.7L214.6 163.7L214.6 163.6L218.5 163.6L218.5 155.9L223.2 155.9L223.2 155.8L225.0 155.8L225.0 141.9L228.7 141.9L228.7 141.8L230.1 141.8L230.1 131.7L231.4 131.7L231.4 130.9L231.9 130.9L231.9 129.5L263.9 129.5L263.9 129.5L268.7 129.5L268.7 128.9L273.3 128.9L273.3 128.4L276.5 128.4L276.5 128.2L290.9 128.2L290.9 128.0L306.0 128.0L306.0 112.8L309.4 112.8L309.4 110.2L315.3 110.2L315.3 105.5L316.5 105.5L316.5 105.1L317.5 105.1L317.5 103.8L327.9 103.8L327.9 103.5L347.5 103.5L347.5 89.6L351.0 89.6L351.0 89.3L351.6 89.3L351.6 87.6L355.1 87.6L355.1 85.4L366.1 85.4L366.1 84.4L449.7 84.4L449.7 84.4L658.0 84.4L658.0 75.8L659.8 75.8L659.8 75.7L662.0 75.7L662.0 75.3L662.3 75.3L662.3 74.7L664.2 74.7L664.2 74.7L675.9 74.7L675.9 74.4L691.9 74.4L691.9 73.9L697.4 73.9L697.4 73.6L706.0 73.6L706.0 69.8L709.8 69.8L709.8 69.1L1032.0 69.1" fill="none" stroke="#6675b0" stroke-width="1.6" stroke-dasharray="5 3" opacity="0.75"/><path d="M218.5 155.9L228.7 155.9L228.7 141.8L230.1 141.8L230.1 131.7L231.4 131.7L231.4 130.9L231.9 130.9L231.9 129.5L263.9 129.5L263.9 129.5L268.7 129.5L268.7 128.9L273.3 128.9L273.3 128.4L276.5 128.4L276.5 128.2L290.9 128.2L290.9 128.0L306.0 128.0L306.0 112.8L313.1 112.8L313.1 111.6L315.3 111.6L315.3 105.5L316.5 105.5L316.5 105.1L317.5 105.1L317.5 103.8L327.9 103.8L327.9 103.5L347.5 103.5L347.5 89.6L351.0 89.6L351.0 89.3L351.6 89.3L351.6 87.6L355.1 87.6L355.1 85.4L366.1 85.4L366.1 84.4L449.7 84.4L449.7 84.4L658.0 84.4L658.0 75.8L659.8 75.8L659.8 75.7L662.0 75.7L662.0 75.3L662.3 75.3L662.3 74.7L664.2 74.7L664.2 74.7L675.9 74.7L675.9 74.4L691.9 74.4L691.9 73.9L697.4 73.9L697.4 73.6L706.0 73.6L706.0 73.5L781.8 73.5L781.8 73.4L853.8 73.4L853.8 73.4L901.7 73.4L901.7 71.4L1032.0 71.4" fill="none" stroke="#2b3a7a" stroke-width="2.6"/><path d="M590.4 246.9L596.9 253.4L590.4 259.9L583.9 253.4Z" fill="#c5961a" opacity="1.0" stroke="#ffffff" stroke-width="1.4"/><path d="M694.1 206.5L700.6 213.0L694.1 219.5L687.6 213.0Z" fill="#c5961a" opacity="1.0" stroke="#ffffff" stroke-width="1.4"/><path d="M706.0 67.0L712.5 73.5L706.0 80.0L699.5 73.5Z" fill="#c5961a" opacity="1.0" stroke="#ffffff" stroke-width="1.4"/><path d="M794.8 240.8L801.3 247.3L794.8 253.8L788.3 247.3Z" fill="#c5961a" opacity="1.0" stroke="#ffffff" stroke-width="1.4"/><path d="M795.5 238.0L802.0 244.5L795.5 251.0L789.0 244.5Z" fill="#c5961a" opacity="1.0" stroke="#ffffff" stroke-width="1.4"/><text x="1042" y="67.1" font-size="11.5" fill="#6675b0">– – raw best 513.8</text><text x="1042" y="81.1" font-size="10" fill="#8a8fa3">unverified (pending)</text><path d="M901.7 64.9L908.2 71.4L901.7 77.9L895.2 71.4Z" fill="#2b3a7a" opacity="1.0" stroke="#ffffff" stroke-width="1.4"/><text x="1042" y="99.4" font-size="12.5" fill="#2b3a7a" font-weight="bold">◆ verified 510.1</text><text x="1042" y="115.4" font-size="10.5" fill="#3a3f55">top verified</text><text x="60" y="24" font-size="13" font-weight="bold" fill="#3a3f55" letter-spacing="1.2">SCORE EVOLUTION — gemma-challenge (tok/s)</text><circle cx="452" cy="20" r="3" fill="#b9bdca"/><text x="460" y="24" font-size="10.5" fill="#8a8fa3">all results</text><path d="M544.0 16.4L547.6 20.0L544.0 23.6L540.4 20.0Z" fill="#2b3a7a" opacity="1.0" stroke="none" stroke-width="0"/><text x="552" y="24" font-size="10.5" fill="#8a8fa3">verified</text><path d="M620.0 15.5L624.5 20.0L620.0 24.5L615.5 20.0Z" fill="#c5961a" opacity="1.0" stroke="#fff" stroke-width="1"/><text x="629" y="24" font-size="10.5" fill="#8a8fa3">mikasa-inbound (us)</text></svg>