<svg viewBox="0 0 1200 440" xmlns="http://www.w3.org/2000/svg" font-family="ui-sans-serif,system-ui,-apple-system,sans-serif"><rect x="0" y="0" width="1200" height="440" fill="#ffffff"/><rect x="60" y="46" width="972" height="350" fill="#f3f4fb"/><line x1="60" y1="396.0" x2="1032" y2="396.0" stroke="#e3e5ef" stroke-width="1"/><text x="52" y="400.0" text-anchor="end" font-size="11" fill="#8a8fa3">0</text><line x1="60" y1="332.4" x2="1032" y2="332.4" stroke="#e3e5ef" stroke-width="1"/><text x="52" y="336.4" text-anchor="end" font-size="11" fill="#8a8fa3">100</text><line x1="60" y1="268.7" x2="1032" y2="268.7" stroke="#e3e5ef" stroke-width="1"/><text x="52" y="272.7" text-anchor="end" font-size="11" fill="#8a8fa3">200</text><line x1="60" y1="205.1" x2="1032" y2="205.1" stroke="#e3e5ef" stroke-width="1"/><text x="52" y="209.1" text-anchor="end" font-size="11" fill="#8a8fa3">300</text><line x1="60" y1="141.5" x2="1032" y2="141.5" stroke="#e3e5ef" stroke-width="1"/><text x="52" y="145.5" text-anchor="end" font-size="11" fill="#8a8fa3">400</text><line x1="60" y1="77.8" x2="1032" y2="77.8" stroke="#e3e5ef" stroke-width="1"/><text x="52" y="81.8" text-anchor="end" font-size="11" fill="#8a8fa3">500</text><line x1="120.6" y1="46" x2="120.6" y2="396" stroke="#e3e5ef" stroke-width="1"/><text x="120.6" y="414.0" text-anchor="middle" font-size="11" fill="#8a8fa3">Jun 10</text><line x1="207.1" y1="46" x2="207.1" y2="396" stroke="#e3e5ef" stroke-width="1"/><text x="207.1" y="414.0" text-anchor="middle" font-size="11" fill="#8a8fa3">Jun 12</text><line x1="293.5" y1="46" x2="293.5" y2="396" stroke="#e3e5ef" stroke-width="1"/><text x="293.5" y="414.0" text-anchor="middle" font-size="11" fill="#8a8fa3">Jun 14</text><line x1="380.0" y1="46" x2="380.0" y2="396" stroke="#e3e5ef" stroke-width="1"/><text x="380.0" y="414.0" text-anchor="middle" font-size="11" fill="#8a8fa3">Jun 16</text><line x1="466.4" y1="46" x2="466.4" y2="396" stroke="#e3e5ef" stroke-width="1"/><text x="466.4" y="414.0" text-anchor="middle" font-size="11" fill="#8a8fa3">Jun 18</text><line x1="552.9" y1="46" x2="552.9" y2="396" stroke="#e3e5ef" stroke-width="1"/><text x="552.9" y="414.0" text-anchor="middle" font-size="11" fill="#8a8fa3">Jun 20</text><line x1="639.3" y1="46" x2="639.3" y2="396" stroke="#e3e5ef" stroke-width="1"/><text x="639.3" y="414.0" text-anchor="middle" font-size="11" fill="#8a8fa3">Jun 22</text><line x1="725.8" y1="46" x2="725.8" y2="396" stroke="#e3e5ef" stroke-width="1"/><text x="725.8" y="414.0" text-anchor="middle" font-size="11" fill="#8a8fa3">Jun 24</text><line x1="812.2" y1="46" x2="812.2" y2="396" stroke="#e3e5ef" stroke-width="1"/><text x="812.2" y="414.0" text-anchor="middle" font-size="11" fill="#8a8fa3">Jun 26</text><line x1="898.7" y1="46" x2="898.7" y2="396" stroke="#e3e5ef" stroke-width="1"/><text x="898.7" y="414.0" text-anchor="middle" font-size="11" fill="#8a8fa3">Jun 28</text><line x1="985.1" y1="46" x2="985.1" y2="396" stroke="#e3e5ef" stroke-width="1"/><text x="985.1" y="414.0" text-anchor="middle" font-size="11" fill="#8a8fa3">Jun 30</text><circle cx="60.0" cy="335.3" r="2.3" fill="#b9bdca" opacity="0.5"/><circle cx="62.1" cy="335.1" r="2.3" fill="#b9bdca" opacity="0.5"/><circle cx="64.2" cy="368.0" r="2.3" fill="#b9bdca" opacity="0.5"/><circle cx="65.0" cy="320.7" r="2.3" fill="#b9bdca" opacity="0.5"/><circle cx="70.7" cy="319.9" r="2.3" fill="#b9bdca" opacity="0.5"/><circle cx="71.1" cy="320.6" r="2.3" fill="#b9bdca" opacity="0.5"/><circle cx="72.9" cy="315.3" r="2.3" fill="#b9bdca" opacity="0.5"/><circle cx="73.3" cy="319.7" r="2.3" fill="#b9bdca" opacity="0.5"/><circle cx="73.5" cy="314.9" r="2.3" fill="#b9bdca" opacity="0.5"/><circle cx="74.2" cy="315.5" r="2.3" fill="#b9bdca" opacity="0.5"/><circle cx="74.4" cy="314.9" r="2.3" fill="#b9bdca" opacity="0.5"/><circle cx="75.0" cy="315.4" r="2.3" fill="#b9bdca" opacity="0.5"/><circle cx="76.1" cy="315.0" r="2.3" fill="#b9bdca" opacity="0.5"/><circle cx="108.8" cy="238.7" r="2.3" fill="#b9bdca" opacity="0.5"/><circle cx="109.1" cy="315.0" r="2.3" fill="#b9bdca" opacity="0.5"/><circle cx="109.4" cy="229.0" r="2.3" fill="#b9bdca" opacity="0.5"/><circle cx="109.9" cy="222.3" r="2.3" fill="#b9bdca" opacity="0.5"/><circle cx="110.4" cy="228.0" r="2.3" fill="#b9bdca" opacity="0.5"/><circle cx="110.5" cy="223.3" r="2.3" fill="#b9bdca" opacity="0.5"/><circle cx="110.6" cy="220.6" r="2.3" fill="#b9bdca" opacity="0.5"/><circle cx="110.7" cy="220.5" r="2.3" fill="#b9bdca" opacity="0.5"/><circle cx="110.8" cy="223.2" r="2.3" fill="#b9bdca" opacity="0.5"/><circle cx="111.1" cy="214.2" r="2.3" fill="#b9bdca" opacity="0.5"/><circle cx="111.2" cy="222.1" r="2.3" fill="#b9bdca" opacity="0.5"/><circle cx="111.4" cy="220.7" r="2.3" fill="#b9bdca" opacity="0.5"/><circle cx="111.8" cy="218.5" r="2.3" fill="#b9bdca" opacity="0.5"/><circle cx="111.9" cy="215.2" r="2.3" fill="#b9bdca" opacity="0.5"/><circle cx="112.1" cy="214.3" r="2.3" fill="#b9bdca" opacity="0.5"/><circle cx="112.2" cy="219.2" r="2.3" fill="#b9bdca" opacity="0.5"/><circle cx="112.4" cy="214.1" r="2.3" fill="#b9bdca" opacity="0.5"/><circle cx="112.6" cy="215.2" r="2.3" fill="#b9bdca" opacity="0.5"/><circle cx="112.8" cy="213.7" r="2.3" fill="#b9bdca" opacity="0.5"/><circle cx="113.1" cy="213.5" r="2.3" fill="#b9bdca" opacity="0.5"/><circle cx="113.3" cy="214.8" r="2.3" fill="#b9bdca" opacity="0.5"/><circle cx="113.3" cy="217.7" r="2.3" fill="#b9bdca" opacity="0.5"/><circle cx="113.5" cy="212.7" r="2.3" fill="#b9bdca" opacity="0.5"/><circle cx="114.0" cy="213.3" r="2.3" fill="#b9bdca" opacity="0.5"/><circle cx="114.6" cy="212.7" r="2.3" fill="#b9bdca" opacity="0.5"/><circle cx="114.6" cy="213.6" r="2.3" fill="#b9bdca" opacity="0.5"/><circle cx="114.8" cy="213.0" r="2.3" fill="#b9bdca" opacity="0.5"/><circle cx="115.1" cy="212.1" r="2.3" fill="#b9bdca" opacity="0.5"/><circle cx="115.2" cy="213.3" r="2.3" fill="#b9bdca" opacity="0.5"/><circle cx="115.6" cy="212.0" r="2.3" fill="#b9bdca" opacity="0.5"/><circle cx="116.2" cy="212.1" r="2.3" fill="#b9bdca" opacity="0.5"/><circle cx="116.2" cy="212.8" r="2.3" fill="#b9bdca" opacity="0.5"/><circle cx="120.2" cy="206.7" r="2.3" fill="#b9bdca" opacity="0.5"/><circle cx="120.7" cy="206.8" r="2.3" fill="#b9bdca" opacity="0.5"/><circle cx="120.7" cy="212.5" r="2.3" fill="#b9bdca" opacity="0.5"/><circle cx="121.1" cy="207.2" r="2.3" fill="#b9bdca" opacity="0.5"/><circle cx="122.3" cy="207.0" r="2.3" fill="#b9bdca" opacity="0.5"/><circle cx="125.3" cy="204.9" r="2.3" fill="#b9bdca" opacity="0.5"/><circle cx="127.2" cy="204.6" r="2.3" fill="#b9bdca" opacity="0.5"/><circle cx="127.4" cy="212.3" r="2.3" fill="#b9bdca" opacity="0.5"/><circle cx="127.7" cy="204.6" r="2.3" fill="#b9bdca" opacity="0.5"/><circle cx="127.7" cy="204.6" r="2.3" fill="#b9bdca" opacity="0.5"/><circle cx="127.7" cy="204.9" r="2.3" fill="#b9bdca" opacity="0.5"/><circle cx="127.7" cy="204.9" r="2.3" fill="#b9bdca" opacity="0.5"/><circle cx="128.5" cy="201.9" r="2.3" fill="#b9bdca" opacity="0.5"/><circle cx="129.7" cy="206.5" r="2.3" fill="#b9bdca" opacity="0.5"/><circle cx="130.2" cy="205.8" r="2.3" fill="#b9bdca" opacity="0.5"/><circle cx="130.2" cy="335.1" r="2.3" fill="#b9bdca" opacity="0.5"/><circle cx="130.8" cy="201.8" r="2.3" fill="#b9bdca" opacity="0.5"/><circle cx="130.8" cy="202.2" r="2.3" fill="#b9bdca" opacity="0.5"/><circle cx="132.0" cy="201.0" r="2.3" fill="#b9bdca" opacity="0.5"/><circle cx="132.4" cy="203.1" r="2.3" fill="#b9bdca" opacity="0.5"/><circle cx="132.6" cy="200.0" r="2.3" fill="#b9bdca" opacity="0.5"/><circle cx="132.7" cy="204.6" r="2.3" fill="#b9bdca" opacity="0.5"/><circle cx="133.4" cy="202.3" r="2.3" fill="#b9bdca" opacity="0.5"/><circle cx="134.8" cy="200.4" r="2.3" fill="#b9bdca" opacity="0.5"/><circle cx="135.4" cy="200.7" r="2.3" fill="#b9bdca" opacity="0.5"/><circle cx="136.0" cy="200.0" r="2.3" fill="#b9bdca" opacity="0.5"/><circle cx="137.3" cy="199.7" r="2.3" fill="#b9bdca" opacity="0.5"/><circle cx="145.6" cy="200.6" r="2.3" fill="#b9bdca" opacity="0.5"/><circle cx="146.3" cy="201.8" r="2.3" fill="#b9bdca" opacity="0.5"/><circle cx="147.4" cy="208.4" r="2.3" fill="#b9bdca" opacity="0.5"/><circle cx="147.5" cy="200.8" r="2.3" fill="#b9bdca" opacity="0.5"/><circle cx="148.3" cy="200.7" r="2.3" fill="#b9bdca" opacity="0.5"/><circle cx="148.3" cy="201.9" r="2.3" fill="#b9bdca" opacity="0.5"/><circle cx="148.6" cy="195.5" r="2.3" fill="#b9bdca" opacity="0.5"/><circle cx="149.3" cy="196.9" r="2.3" fill="#b9bdca" opacity="0.5"/><circle cx="149.7" cy="197.9" r="2.3" fill="#b9bdca" opacity="0.5"/><circle cx="150.4" cy="196.1" r="2.3" fill="#b9bdca" opacity="0.5"/><circle cx="153.0" cy="197.3" r="2.3" fill="#b9bdca" opacity="0.5"/><circle cx="153.7" cy="195.9" r="2.3" fill="#b9bdca" opacity="0.5"/><circle cx="153.9" cy="201.0" r="2.3" fill="#b9bdca" opacity="0.5"/><circle cx="154.1" cy="197.5" r="2.3" fill="#b9bdca" opacity="0.5"/><circle cx="154.7" cy="196.9" r="2.3" fill="#b9bdca" opacity="0.5"/><circle cx="154.7" cy="197.1" r="2.3" fill="#b9bdca" opacity="0.5"/><circle cx="154.8" cy="197.0" r="2.3" fill="#b9bdca" opacity="0.5"/><circle cx="155.4" cy="196.0" r="2.3" fill="#b9bdca" opacity="0.5"/><circle cx="155.4" cy="196.0" r="2.3" fill="#b9bdca" opacity="0.5"/><circle cx="155.4" cy="197.9" r="2.3" fill="#b9bdca" opacity="0.5"/><circle cx="155.8" cy="197.8" r="2.3" fill="#b9bdca" opacity="0.5"/><circle cx="156.2" cy="196.2" r="2.3" fill="#b9bdca" opacity="0.5"/><circle cx="156.2" cy="197.5" r="2.3" fill="#b9bdca" opacity="0.5"/><circle cx="156.4" cy="196.9" r="2.3" fill="#b9bdca" opacity="0.5"/><circle cx="156.4" cy="195.5" r="2.3" fill="#b9bdca" opacity="0.5"/><circle cx="156.9" cy="198.1" r="2.3" fill="#b9bdca" opacity="0.5"/><circle cx="157.0" cy="187.4" r="2.3" fill="#b9bdca" opacity="0.5"/><circle cx="157.2" cy="186.2" r="2.3" fill="#b9bdca" opacity="0.5"/><circle cx="157.2" cy="196.3" r="2.3" fill="#b9bdca" opacity="0.5"/><circle cx="157.2" cy="197.2" r="2.3" fill="#b9bdca" opacity="0.5"/><circle cx="157.2" cy="197.8" r="2.3" fill="#b9bdca" opacity="0.5"/><circle cx="157.2" cy="368.0" r="2.3" fill="#b9bdca" opacity="0.5"/><circle cx="157.8" cy="184.5" r="2.3" fill="#b9bdca" opacity="0.5"/><circle cx="160.0" cy="184.6" r="2.3" fill="#b9bdca" opacity="0.5"/><circle cx="161.0" cy="185.6" r="2.3" fill="#b9bdca" opacity="0.5"/><circle cx="164.2" cy="188.7" r="2.3" fill="#b9bdca" opacity="0.5"/><circle cx="168.6" cy="185.4" r="2.3" fill="#b9bdca" opacity="0.5"/><circle cx="169.6" cy="185.2" r="2.3" fill="#b9bdca" opacity="0.5"/><circle cx="169.9" cy="186.6" r="2.3" fill="#b9bdca" opacity="0.5"/><circle cx="170.0" cy="185.3" r="2.3" fill="#b9bdca" opacity="0.5"/><circle cx="170.8" cy="185.3" r="2.3" fill="#b9bdca" opacity="0.5"/><circle cx="171.1" cy="185.0" r="2.3" fill="#b9bdca" opacity="0.5"/><circle cx="171.9" cy="184.9" r="2.3" fill="#b9bdca" opacity="0.5"/><circle cx="172.4" cy="185.1" r="2.3" fill="#b9bdca" opacity="0.5"/><circle cx="172.4" cy="185.2" r="2.3" fill="#b9bdca" opacity="0.5"/><circle cx="172.4" cy="186.4" r="2.3" fill="#b9bdca" opacity="0.5"/><circle cx="172.5" cy="183.9" r="2.3" fill="#b9bdca" opacity="0.5"/><circle cx="176.5" cy="184.4" r="2.3" fill="#b9bdca" opacity="0.5"/><circle cx="177.2" cy="184.2" r="2.3" fill="#b9bdca" opacity="0.5"/><circle cx="179.7" cy="169.3" r="2.3" fill="#b9bdca" opacity="0.5"/><circle cx="182.2" cy="168.8" r="2.3" fill="#b9bdca" opacity="0.5"/><circle cx="182.4" cy="167.7" r="2.3" fill="#b9bdca" opacity="0.5"/><circle cx="183.4" cy="201.4" r="2.3" fill="#b9bdca" opacity="0.5"/><circle cx="183.7" cy="165.0" r="2.3" fill="#b9bdca" opacity="0.5"/><circle cx="183.9" cy="198.2" r="2.3" fill="#b9bdca" opacity="0.5"/><circle cx="184.3" cy="163.7" r="2.3" fill="#b9bdca" opacity="0.5"/><circle cx="184.4" cy="163.6" r="2.3" fill="#b9bdca" opacity="0.5"/><circle cx="184.8" cy="165.9" r="2.3" fill="#b9bdca" opacity="0.5"/><circle cx="187.0" cy="165.1" r="2.3" fill="#b9bdca" opacity="0.5"/><circle cx="187.5" cy="155.9" r="2.3" fill="#b9bdca" opacity="0.5"/><circle cx="189.6" cy="196.5" r="2.3" fill="#b9bdca" opacity="0.5"/><circle cx="190.5" cy="157.4" r="2.3" fill="#b9bdca" opacity="0.5"/><circle cx="191.3" cy="155.8" r="2.3" fill="#b9bdca" opacity="0.5"/><circle cx="192.7" cy="141.9" r="2.3" fill="#b9bdca" opacity="0.5"/><circle cx="195.6" cy="156.1" r="2.3" fill="#b9bdca" opacity="0.5"/><circle cx="195.6" cy="156.4" r="2.3" fill="#b9bdca" opacity="0.5"/><circle cx="195.8" cy="141.8" r="2.3" fill="#b9bdca" opacity="0.5"/><circle cx="195.9" cy="196.0" r="2.3" fill="#b9bdca" opacity="0.5"/><circle cx="196.9" cy="131.7" r="2.3" fill="#b9bdca" opacity="0.5"/><circle cx="197.0" cy="134.1" r="2.3" fill="#b9bdca" opacity="0.5"/><circle cx="197.3" cy="141.1" r="2.3" fill="#b9bdca" opacity="0.5"/><circle cx="197.8" cy="134.0" r="2.3" fill="#b9bdca" opacity="0.5"/><circle cx="197.9" cy="130.9" r="2.3" fill="#b9bdca" opacity="0.5"/><circle cx="197.9" cy="154.2" r="2.3" fill="#b9bdca" opacity="0.5"/><circle cx="198.1" cy="133.6" r="2.3" fill="#b9bdca" opacity="0.5"/><circle cx="198.3" cy="129.5" r="2.3" fill="#b9bdca" opacity="0.5"/><circle cx="198.4" cy="130.9" r="2.3" fill="#b9bdca" opacity="0.5"/><circle cx="198.4" cy="133.4" r="2.3" fill="#b9bdca" opacity="0.5"/><circle cx="198.6" cy="131.2" r="2.3" fill="#b9bdca" opacity="0.5"/><circle cx="200.4" cy="189.8" r="2.3" fill="#b9bdca" opacity="0.5"/><circle cx="200.5" cy="133.2" r="2.3" fill="#b9bdca" opacity="0.5"/><circle cx="200.7" cy="133.5" r="2.3" fill="#b9bdca" opacity="0.5"/><circle cx="201.4" cy="130.1" r="2.3" fill="#b9bdca" opacity="0.5"/><circle cx="203.2" cy="130.3" r="2.3" fill="#b9bdca" opacity="0.5"/><circle cx="204.0" cy="303.1" r="2.3" fill="#b9bdca" opacity="0.5"/><circle cx="205.4" cy="133.2" r="2.3" fill="#b9bdca" opacity="0.5"/><circle cx="207.3" cy="144.2" r="2.3" fill="#b9bdca" opacity="0.5"/><circle cx="207.7" cy="135.3" r="2.3" fill="#b9bdca" opacity="0.5"/><circle cx="209.0" cy="133.4" r="2.3" fill="#b9bdca" opacity="0.5"/><circle cx="209.1" cy="159.9" r="2.3" fill="#b9bdca" opacity="0.5"/><circle cx="209.4" cy="130.8" r="2.3" fill="#b9bdca" opacity="0.5"/><circle cx="209.8" cy="133.2" r="2.3" fill="#b9bdca" opacity="0.5"/><circle cx="214.2" cy="130.9" r="2.3" fill="#b9bdca" opacity="0.5"/><circle cx="214.7" cy="130.9" r="2.3" fill="#b9bdca" opacity="0.5"/><circle cx="214.7" cy="133.8" r="2.3" fill="#b9bdca" opacity="0.5"/><circle cx="215.5" cy="130.4" r="2.3" fill="#b9bdca" opacity="0.5"/><circle cx="215.9" cy="153.7" r="2.3" fill="#b9bdca" opacity="0.5"/><circle cx="216.8" cy="133.3" r="2.3" fill="#b9bdca" opacity="0.5"/><circle cx="218.1" cy="156.5" r="2.3" fill="#b9bdca" opacity="0.5"/><circle cx="218.4" cy="132.3" r="2.3" fill="#b9bdca" opacity="0.5"/><circle cx="220.0" cy="147.2" r="2.3" fill="#b9bdca" opacity="0.5"/><circle cx="220.3" cy="133.6" r="2.3" fill="#b9bdca" opacity="0.5"/><circle cx="220.8" cy="129.5" r="2.3" fill="#b9bdca" opacity="0.5"/><circle cx="220.8" cy="133.3" r="2.3" fill="#b9bdca" opacity="0.5"/><circle cx="222.8" cy="133.3" r="2.3" fill="#b9bdca" opacity="0.5"/><circle cx="224.1" cy="129.5" r="2.3" fill="#b9bdca" opacity="0.5"/><circle cx="226.3" cy="130.6" r="2.3" fill="#b9bdca" opacity="0.5"/><circle cx="227.9" cy="128.9" r="2.3" fill="#b9bdca" opacity="0.5"/><circle cx="228.3" cy="132.7" r="2.3" fill="#b9bdca" opacity="0.5"/><circle cx="228.3" cy="133.1" r="2.3" fill="#b9bdca" opacity="0.5"/><circle cx="230.8" cy="129.8" r="2.3" fill="#b9bdca" opacity="0.5"/><circle cx="231.4" cy="333.8" r="2.3" fill="#b9bdca" opacity="0.5"/><circle cx="231.6" cy="128.4" r="2.3" fill="#b9bdca" opacity="0.5"/><circle cx="232.8" cy="129.8" r="2.3" fill="#b9bdca" opacity="0.5"/><circle cx="233.2" cy="128.9" r="2.3" fill="#b9bdca" opacity="0.5"/><circle cx="233.4" cy="128.9" r="2.3" fill="#b9bdca" opacity="0.5"/><circle cx="234.2" cy="128.2" r="2.3" fill="#b9bdca" opacity="0.5"/><circle cx="234.8" cy="129.7" r="2.3" fill="#b9bdca" opacity="0.5"/><circle cx="235.0" cy="142.3" r="2.3" fill="#b9bdca" opacity="0.5"/><circle cx="237.4" cy="128.8" r="2.3" fill="#b9bdca" opacity="0.5"/><circle cx="238.8" cy="161.1" r="2.3" fill="#b9bdca" opacity="0.5"/><circle cx="241.4" cy="164.4" r="2.3" fill="#b9bdca" opacity="0.5"/><circle cx="241.7" cy="248.3" r="2.3" fill="#b9bdca" opacity="0.5"/><circle cx="245.5" cy="135.4" r="2.3" fill="#b9bdca" opacity="0.5"/><circle cx="245.8" cy="128.0" r="2.3" fill="#b9bdca" opacity="0.5"/><circle cx="247.0" cy="229.0" r="2.3" fill="#b9bdca" opacity="0.5"/><circle cx="249.6" cy="128.1" r="2.3" fill="#b9bdca" opacity="0.5"/><circle cx="250.3" cy="128.6" r="2.3" fill="#b9bdca" opacity="0.5"/><circle cx="252.8" cy="128.8" r="2.3" fill="#b9bdca" opacity="0.5"/><circle cx="252.8" cy="129.6" r="2.3" fill="#b9bdca" opacity="0.5"/><circle cx="252.8" cy="130.9" r="2.3" fill="#b9bdca" opacity="0.5"/><circle cx="258.0" cy="112.8" r="2.3" fill="#b9bdca" opacity="0.5"/><circle cx="260.7" cy="110.2" r="2.3" fill="#b9bdca" opacity="0.5"/><circle cx="260.8" cy="111.6" r="2.3" fill="#b9bdca" opacity="0.5"/><circle cx="262.4" cy="111.0" r="2.3" fill="#b9bdca" opacity="0.5"/><circle cx="263.3" cy="335.1" r="2.3" fill="#b9bdca" opacity="0.5"/><circle cx="263.7" cy="111.6" r="2.3" fill="#b9bdca" opacity="0.5"/><circle cx="265.4" cy="105.5" r="2.3" fill="#b9bdca" opacity="0.5"/><circle cx="265.7" cy="108.5" r="2.3" fill="#b9bdca" opacity="0.5"/><circle cx="266.4" cy="105.1" r="2.3" fill="#b9bdca" opacity="0.5"/><circle cx="267.2" cy="103.8" r="2.3" fill="#b9bdca" opacity="0.5"/><circle cx="268.1" cy="125.8" r="2.3" fill="#b9bdca" opacity="0.5"/><circle cx="275.6" cy="103.5" r="2.3" fill="#b9bdca" opacity="0.5"/><circle cx="277.5" cy="127.8" r="2.3" fill="#b9bdca" opacity="0.5"/><circle cx="278.3" cy="334.3" r="2.3" fill="#b9bdca" opacity="0.5"/><circle cx="279.5" cy="128.6" r="2.3" fill="#b9bdca" opacity="0.5"/><circle cx="280.0" cy="128.6" r="2.3" fill="#b9bdca" opacity="0.5"/><circle cx="280.1" cy="128.6" r="2.3" fill="#b9bdca" opacity="0.5"/><circle cx="280.8" cy="256.6" r="2.3" fill="#b9bdca" opacity="0.5"/><circle cx="281.7" cy="254.6" r="2.3" fill="#b9bdca" opacity="0.5"/><circle cx="283.1" cy="128.6" r="2.3" fill="#b9bdca" opacity="0.5"/><circle cx="286.5" cy="250.1" r="2.3" fill="#b9bdca" opacity="0.5"/><circle cx="286.8" cy="161.4" r="2.3" fill="#b9bdca" opacity="0.5"/><circle cx="287.1" cy="206.6" r="2.3" fill="#b9bdca" opacity="0.5"/><circle cx="290.3" cy="113.5" r="2.3" fill="#b9bdca" opacity="0.5"/><circle cx="291.4" cy="89.6" r="2.3" fill="#b9bdca" opacity="0.5"/><circle cx="292.2" cy="90.2" r="2.3" fill="#b9bdca" opacity="0.5"/><circle cx="294.1" cy="89.3" r="2.3" fill="#b9bdca" opacity="0.5"/><circle cx="294.7" cy="87.6" r="2.3" fill="#b9bdca" opacity="0.5"/><circle cx="295.3" cy="185.0" r="2.3" fill="#b9bdca" opacity="0.5"/><circle cx="296.1" cy="131.6" r="2.3" fill="#b9bdca" opacity="0.5"/><circle cx="296.6" cy="87.8" r="2.3" fill="#b9bdca" opacity="0.5"/><circle cx="297.5" cy="85.4" r="2.3" fill="#b9bdca" opacity="0.5"/><circle cx="298.9" cy="86.8" r="2.3" fill="#b9bdca" opacity="0.5"/><circle cx="300.4" cy="88.4" r="2.3" fill="#b9bdca" opacity="0.5"/><circle cx="306.3" cy="89.5" r="2.3" fill="#b9bdca" opacity="0.5"/><circle cx="306.3" cy="155.6" r="2.3" fill="#b9bdca" opacity="0.5"/><circle cx="306.4" cy="84.4" r="2.3" fill="#b9bdca" opacity="0.5"/><circle cx="313.4" cy="89.2" r="2.3" fill="#b9bdca" opacity="0.5"/><circle cx="313.5" cy="90.5" r="2.3" fill="#b9bdca" opacity="0.5"/><circle cx="315.5" cy="87.7" r="2.3" fill="#b9bdca" opacity="0.5"/><circle cx="316.2" cy="367.9" r="2.3" fill="#b9bdca" opacity="0.5"/><circle cx="319.1" cy="164.3" r="2.3" fill="#b9bdca" opacity="0.5"/><circle cx="320.5" cy="94.6" r="2.3" fill="#b9bdca" opacity="0.5"/><circle cx="321.1" cy="89.6" r="2.3" fill="#b9bdca" opacity="0.5"/><circle cx="327.2" cy="124.6" r="2.3" fill="#b9bdca" opacity="0.5"/><circle cx="333.7" cy="146.2" r="2.3" fill="#b9bdca" opacity="0.5"/><circle cx="333.9" cy="90.5" r="2.3" fill="#b9bdca" opacity="0.5"/><circle cx="334.5" cy="87.7" r="2.3" fill="#b9bdca" opacity="0.5"/><circle cx="334.8" cy="87.7" r="2.3" fill="#b9bdca" opacity="0.5"/><circle cx="334.8" cy="89.6" r="2.3" fill="#b9bdca" opacity="0.5"/><circle cx="339.4" cy="93.0" r="2.3" fill="#b9bdca" opacity="0.5"/><circle cx="341.1" cy="85.5" r="2.3" fill="#b9bdca" opacity="0.5"/><circle cx="354.8" cy="334.8" r="2.3" fill="#b9bdca" opacity="0.5"/><circle cx="356.3" cy="86.3" r="2.3" fill="#b9bdca" opacity="0.5"/><circle cx="361.0" cy="85.5" r="2.3" fill="#b9bdca" opacity="0.5"/><circle cx="361.8" cy="84.6" r="2.3" fill="#b9bdca" opacity="0.5"/><circle cx="363.7" cy="87.8" r="2.3" fill="#b9bdca" opacity="0.5"/><circle cx="364.5" cy="84.4" r="2.3" fill="#b9bdca" opacity="0.5"/><circle cx="364.9" cy="84.8" r="2.3" fill="#b9bdca" opacity="0.5"/><circle cx="366.3" cy="87.4" r="2.3" fill="#b9bdca" opacity="0.5"/><circle cx="373.6" cy="84.4" r="2.3" fill="#b9bdca" opacity="0.5"/><circle cx="405.9" cy="89.3" r="2.3" fill="#b9bdca" opacity="0.5"/><circle cx="411.7" cy="88.6" r="2.3" fill="#b9bdca" opacity="0.5"/><circle cx="411.7" cy="92.1" r="2.3" fill="#b9bdca" opacity="0.5"/><circle cx="413.0" cy="156.8" r="2.3" fill="#b9bdca" opacity="0.5"/><circle cx="431.6" cy="201.6" r="2.3" fill="#b9bdca" opacity="0.5"/><circle cx="445.2" cy="315.6" r="2.3" fill="#b9bdca" opacity="0.5"/><circle cx="482.3" cy="87.7" r="2.3" fill="#b9bdca" opacity="0.5"/><circle cx="493.6" cy="87.6" r="2.3" fill="#b9bdca" opacity="0.5"/><circle cx="503.6" cy="87.2" r="2.3" fill="#b9bdca" opacity="0.5"/><circle cx="505.9" cy="88.8" r="2.3" fill="#b9bdca" opacity="0.5"/><circle cx="506.8" cy="89.2" r="2.3" fill="#b9bdca" opacity="0.5"/><circle cx="507.3" cy="90.9" r="2.3" fill="#b9bdca" opacity="0.5"/><circle cx="510.1" cy="87.7" r="2.3" fill="#b9bdca" opacity="0.5"/><circle cx="520.2" cy="88.6" r="2.3" fill="#b9bdca" opacity="0.5"/><circle cx="521.5" cy="89.7" r="2.3" fill="#b9bdca" opacity="0.5"/><circle cx="522.3" cy="88.2" r="2.3" fill="#b9bdca" opacity="0.5"/><circle cx="541.2" cy="75.8" r="2.3" fill="#b9bdca" opacity="0.5"/><circle cx="542.7" cy="75.7" r="2.3" fill="#b9bdca" opacity="0.5"/><circle cx="543.7" cy="76.7" r="2.3" fill="#b9bdca" opacity="0.5"/><circle cx="543.8" cy="75.8" r="2.3" fill="#b9bdca" opacity="0.5"/><circle cx="544.4" cy="75.3" r="2.3" fill="#b9bdca" opacity="0.5"/><circle cx="544.7" cy="74.7" r="2.3" fill="#b9bdca" opacity="0.5"/><circle cx="544.9" cy="83.4" r="2.3" fill="#b9bdca" opacity="0.5"/><circle cx="545.3" cy="76.2" r="2.3" fill="#b9bdca" opacity="0.5"/><circle cx="545.8" cy="78.1" r="2.3" fill="#b9bdca" opacity="0.5"/><circle cx="546.2" cy="74.7" r="2.3" fill="#b9bdca" opacity="0.5"/><circle cx="549.3" cy="89.3" r="2.3" fill="#b9bdca" opacity="0.5"/><circle cx="555.7" cy="74.4" r="2.3" fill="#b9bdca" opacity="0.5"/><circle cx="565.6" cy="74.4" r="2.3" fill="#b9bdca" opacity="0.5"/><circle cx="567.3" cy="335.1" r="2.3" fill="#b9bdca" opacity="0.5"/><circle cx="567.3" cy="81.7" r="2.3" fill="#b9bdca" opacity="0.5"/><circle cx="568.5" cy="74.6" r="2.3" fill="#b9bdca" opacity="0.5"/><circle cx="568.5" cy="82.1" r="2.3" fill="#b9bdca" opacity="0.5"/><circle cx="568.5" cy="73.9" r="2.3" fill="#b9bdca" opacity="0.5"/><circle cx="571.4" cy="76.2" r="2.3" fill="#b9bdca" opacity="0.5"/><circle cx="571.8" cy="82.1" r="2.3" fill="#b9bdca" opacity="0.5"/><circle cx="572.3" cy="74.2" r="2.3" fill="#b9bdca" opacity="0.5"/><circle cx="572.3" cy="75.0" r="2.3" fill="#b9bdca" opacity="0.5"/><circle cx="572.9" cy="73.6" r="2.3" fill="#b9bdca" opacity="0.5"/><circle cx="572.9" cy="83.3" r="2.3" fill="#b9bdca" opacity="0.5"/><circle cx="572.9" cy="83.8" r="2.3" fill="#b9bdca" opacity="0.5"/><circle cx="572.9" cy="78.1" r="2.3" fill="#b9bdca" opacity="0.5"/><circle cx="572.9" cy="81.5" r="2.3" fill="#b9bdca" opacity="0.5"/><circle cx="572.9" cy="83.0" r="2.3" fill="#b9bdca" opacity="0.5"/><circle cx="572.9" cy="83.7" r="2.3" fill="#b9bdca" opacity="0.5"/><circle cx="576.9" cy="82.7" r="2.3" fill="#b9bdca" opacity="0.5"/><circle cx="577.8" cy="77.8" r="2.3" fill="#b9bdca" opacity="0.5"/><circle cx="579.8" cy="69.8" r="2.3" fill="#b9bdca" opacity="0.5"/><circle cx="580.5" cy="75.9" r="2.3" fill="#b9bdca" opacity="0.5"/><circle cx="580.8" cy="74.3" r="2.3" fill="#b9bdca" opacity="0.5"/><circle cx="580.8" cy="77.4" r="2.3" fill="#b9bdca" opacity="0.5"/><circle cx="580.8" cy="80.6" r="2.3" fill="#b9bdca" opacity="0.5"/><circle cx="580.8" cy="81.8" r="2.3" fill="#b9bdca" opacity="0.5"/><circle cx="582.2" cy="76.9" r="2.3" fill="#b9bdca" opacity="0.5"/><circle cx="582.2" cy="82.8" r="2.3" fill="#b9bdca" opacity="0.5"/><circle cx="582.2" cy="83.0" r="2.3" fill="#b9bdca" opacity="0.5"/><circle cx="582.2" cy="83.1" r="2.3" fill="#b9bdca" opacity="0.5"/><circle cx="582.9" cy="69.1" r="2.3" fill="#b9bdca" opacity="0.5"/><circle cx="584.5" cy="75.5" r="2.3" fill="#b9bdca" opacity="0.5"/><circle cx="585.4" cy="74.3" r="2.3" fill="#b9bdca" opacity="0.5"/><circle cx="610.8" cy="74.0" r="2.3" fill="#b9bdca" opacity="0.5"/><circle cx="640.8" cy="73.4" r="2.3" fill="#b9bdca" opacity="0.5"/><circle cx="641.1" cy="75.9" r="2.3" fill="#b9bdca" opacity="0.5"/><circle cx="641.1" cy="76.3" r="2.3" fill="#b9bdca" opacity="0.5"/><circle cx="641.3" cy="76.0" r="2.3" fill="#b9bdca" opacity="0.5"/><circle cx="641.3" cy="76.8" r="2.3" fill="#b9bdca" opacity="0.5"/><circle cx="641.3" cy="81.2" r="2.3" fill="#b9bdca" opacity="0.5"/><circle cx="641.3" cy="83.4" r="2.3" fill="#b9bdca" opacity="0.5"/><circle cx="662.6" cy="76.6" r="2.3" fill="#b9bdca" opacity="0.5"/><circle cx="664.0" cy="76.7" r="2.3" fill="#b9bdca" opacity="0.5"/><circle cx="664.0" cy="82.8" r="2.3" fill="#b9bdca" opacity="0.5"/><circle cx="664.0" cy="82.8" r="2.3" fill="#b9bdca" opacity="0.5"/><circle cx="664.0" cy="83.3" r="2.3" fill="#b9bdca" opacity="0.5"/><circle cx="668.5" cy="233.4" r="2.3" fill="#b9bdca" opacity="0.5"/><circle cx="669.8" cy="228.9" r="2.3" fill="#b9bdca" opacity="0.5"/><circle cx="671.1" cy="198.3" r="2.3" fill="#b9bdca" opacity="0.5"/><circle cx="698.7" cy="73.4" r="2.3" fill="#b9bdca" opacity="0.5"/><circle cx="706.5" cy="192.4" r="2.3" fill="#b9bdca" opacity="0.5"/><circle cx="709.2" cy="75.3" r="2.3" fill="#b9bdca" opacity="0.5"/><circle cx="709.9" cy="74.0" r="2.3" fill="#b9bdca" opacity="0.5"/><circle cx="711.6" cy="194.4" r="2.3" fill="#b9bdca" opacity="0.5"/><circle cx="714.3" cy="168.6" r="2.3" fill="#b9bdca" opacity="0.5"/><circle cx="716.0" cy="77.1" r="2.3" fill="#b9bdca" opacity="0.5"/><circle cx="716.0" cy="99.5" r="2.3" fill="#b9bdca" opacity="0.5"/><circle cx="737.3" cy="71.4" r="2.3" fill="#b9bdca" opacity="0.5"/><circle cx="737.3" cy="73.5" r="2.3" fill="#b9bdca" opacity="0.5"/><circle cx="744.9" cy="72.4" r="2.3" fill="#b9bdca" opacity="0.5"/><circle cx="776.1" cy="83.0" r="2.3" fill="#b9bdca" opacity="0.5"/><circle cx="776.5" cy="72.1" r="2.3" fill="#b9bdca" opacity="0.5"/><circle cx="777.0" cy="71.6" r="2.3" fill="#b9bdca" opacity="0.5"/><circle cx="777.9" cy="75.5" r="2.3" fill="#b9bdca" opacity="0.5"/><circle cx="778.5" cy="73.7" r="2.3" fill="#b9bdca" opacity="0.5"/><circle cx="779.8" cy="72.9" r="2.3" fill="#b9bdca" opacity="0.5"/><circle cx="780.3" cy="73.4" r="2.3" fill="#b9bdca" opacity="0.5"/><circle cx="841.2" cy="85.2" r="2.3" fill="#b9bdca" opacity="0.5"/><circle cx="841.2" cy="256.6" r="2.3" fill="#b9bdca" opacity="0.5"/><circle cx="841.2" cy="335.3" r="2.3" fill="#b9bdca" opacity="0.5"/><circle cx="841.6" cy="86.8" r="2.3" fill="#b9bdca" opacity="0.5"/><circle cx="842.2" cy="71.5" r="2.3" fill="#b9bdca" opacity="0.5"/><circle cx="843.8" cy="71.0" r="2.3" fill="#b9bdca" opacity="0.5"/><circle cx="844.7" cy="71.5" r="2.3" fill="#b9bdca" opacity="0.5"/><circle cx="844.9" cy="55.0" r="2.3" fill="#b9bdca" opacity="0.5"/><circle cx="853.3" cy="83.1" r="2.3" fill="#b9bdca" opacity="0.5"/><circle cx="855.4" cy="74.7" r="2.3" fill="#b9bdca" opacity="0.5"/><circle cx="855.6" cy="59.3" r="2.3" fill="#b9bdca" opacity="0.5"/><circle cx="855.6" cy="79.9" r="2.3" fill="#b9bdca" opacity="0.5"/><circle cx="855.8" cy="74.1" r="2.3" fill="#b9bdca" opacity="0.5"/><circle cx="856.2" cy="72.7" r="2.3" fill="#b9bdca" opacity="0.5"/><circle cx="856.2" cy="73.8" r="2.3" fill="#b9bdca" opacity="0.5"/><circle cx="856.2" cy="75.9" r="2.3" fill="#b9bdca" opacity="0.5"/><circle cx="856.7" cy="74.1" r="2.3" fill="#b9bdca" opacity="0.5"/><circle cx="857.1" cy="73.5" r="2.3" fill="#b9bdca" opacity="0.5"/><circle cx="857.6" cy="74.2" r="2.3" fill="#b9bdca" opacity="0.5"/><circle cx="858.1" cy="71.5" r="2.3" fill="#b9bdca" opacity="0.5"/><circle cx="859.3" cy="74.3" r="2.3" fill="#b9bdca" opacity="0.5"/><circle cx="866.2" cy="73.2" r="2.3" fill="#b9bdca" opacity="0.5"/><circle cx="866.2" cy="73.6" r="2.3" fill="#b9bdca" opacity="0.5"/><circle cx="866.2" cy="73.8" r="2.3" fill="#b9bdca" opacity="0.5"/><circle cx="879.3" cy="73.3" r="2.3" fill="#b9bdca" opacity="0.5"/><circle cx="879.3" cy="73.4" r="2.3" fill="#b9bdca" opacity="0.5"/><circle cx="909.3" cy="96.1" r="2.3" fill="#b9bdca" opacity="0.5"/><circle cx="1032.0" cy="95.6" r="2.3" fill="#b9bdca" opacity="0.5"/><path d="M187.5 152.3L191.1 155.9L187.5 159.5L183.9 155.9Z" fill="#2b3a7a" opacity="0.8" stroke="none" stroke-width="0"/><path d="M195.8 138.2L199.4 141.8L195.8 145.4L192.2 141.8Z" fill="#2b3a7a" opacity="0.8" stroke="none" stroke-width="0"/><path d="M196.9 128.1L200.5 131.7L196.9 135.3L193.3 131.7Z" fill="#2b3a7a" opacity="0.8" stroke="none" stroke-width="0"/><path d="M197.0 130.5L200.6 134.1L197.0 137.7L193.4 134.1Z" fill="#2b3a7a" opacity="0.8" stroke="none" stroke-width="0"/><path d="M197.9 127.3L201.5 130.9L197.9 134.5L194.3 130.9Z" fill="#2b3a7a" opacity="0.8" stroke="none" stroke-width="0"/><path d="M198.3 125.9L201.9 129.5L198.3 133.1L194.7 129.5Z" fill="#2b3a7a" opacity="0.8" stroke="none" stroke-width="0"/><path d="M198.4 127.3L202.0 130.9L198.4 134.5L194.8 130.9Z" fill="#2b3a7a" opacity="0.8" stroke="none" stroke-width="0"/><path d="M224.1 125.9L227.7 129.5L224.1 133.1L220.5 129.5Z" fill="#2b3a7a" opacity="0.8" stroke="none" stroke-width="0"/><path d="M227.9 125.3L231.5 128.9L227.9 132.5L224.3 128.9Z" fill="#2b3a7a" opacity="0.8" stroke="none" stroke-width="0"/><path d="M231.6 124.8L235.2 128.4L231.6 132.0L228.0 128.4Z" fill="#2b3a7a" opacity="0.8" stroke="none" stroke-width="0"/><path d="M234.2 124.6L237.8 128.2L234.2 131.8L230.6 128.2Z" fill="#2b3a7a" opacity="0.8" stroke="none" stroke-width="0"/><path d="M245.8 124.4L249.4 128.0L245.8 131.6L242.2 128.0Z" fill="#2b3a7a" opacity="0.8" stroke="none" stroke-width="0"/><path d="M258.0 109.2L261.6 112.8L258.0 116.4L254.4 112.8Z" fill="#2b3a7a" opacity="0.8" stroke="none" stroke-width="0"/><path d="M263.7 108.0L267.3 111.6L263.7 115.2L260.1 111.6Z" fill="#2b3a7a" opacity="0.8" stroke="none" stroke-width="0"/><path d="M265.4 101.9L269.0 105.5L265.4 109.1L261.8 105.5Z" fill="#2b3a7a" opacity="0.8" stroke="none" stroke-width="0"/><path d="M265.7 104.9L269.3 108.5L265.7 112.1L262.1 108.5Z" fill="#2b3a7a" opacity="0.8" stroke="none" stroke-width="0"/><path d="M266.4 101.5L270.0 105.1L266.4 108.7L262.8 105.1Z" fill="#2b3a7a" opacity="0.8" stroke="none" stroke-width="0"/><path d="M267.2 100.2L270.8 103.8L267.2 107.4L263.6 103.8Z" fill="#2b3a7a" opacity="0.8" stroke="none" stroke-width="0"/><path d="M275.6 99.9L279.2 103.5L275.6 107.1L272.0 103.5Z" fill="#2b3a7a" opacity="0.8" stroke="none" stroke-width="0"/><path d="M291.4 86.0L295.0 89.6L291.4 93.2L287.8 89.6Z" fill="#2b3a7a" opacity="0.8" stroke="none" stroke-width="0"/><path d="M294.1 85.7L297.7 89.3L294.1 92.9L290.5 89.3Z" fill="#2b3a7a" opacity="0.8" stroke="none" stroke-width="0"/><path d="M294.7 84.0L298.3 87.6L294.7 91.2L291.1 87.6Z" fill="#2b3a7a" opacity="0.8" stroke="none" stroke-width="0"/><path d="M297.5 81.8L301.1 85.4L297.5 89.0L293.9 85.4Z" fill="#2b3a7a" opacity="0.8" stroke="none" stroke-width="0"/><path d="M306.4 80.8L310.0 84.4L306.4 88.0L302.8 84.4Z" fill="#2b3a7a" opacity="0.8" stroke="none" stroke-width="0"/><path d="M373.6 80.8L377.2 84.4L373.6 88.0L370.0 84.4Z" fill="#2b3a7a" opacity="0.8" stroke="none" stroke-width="0"/><path d="M541.2 72.2L544.8 75.8L541.2 79.4L537.6 75.8Z" fill="#2b3a7a" opacity="0.8" stroke="none" stroke-width="0"/><path d="M542.7 72.1L546.3 75.7L542.7 79.3L539.1 75.7Z" fill="#2b3a7a" opacity="0.8" stroke="none" stroke-width="0"/><path d="M544.4 71.7L548.0 75.3L544.4 78.9L540.8 75.3Z" fill="#2b3a7a" opacity="0.8" stroke="none" stroke-width="0"/><path d="M544.7 71.1L548.3 74.7L544.7 78.3L541.1 74.7Z" fill="#2b3a7a" opacity="0.8" stroke="none" stroke-width="0"/><path d="M546.2 71.1L549.8 74.7L546.2 78.3L542.6 74.7Z" fill="#2b3a7a" opacity="0.8" stroke="none" stroke-width="0"/><path d="M555.7 70.8L559.3 74.4L555.7 78.0L552.1 74.4Z" fill="#2b3a7a" opacity="0.8" stroke="none" stroke-width="0"/><path d="M568.5 70.3L572.1 73.9L568.5 77.5L564.9 73.9Z" fill="#2b3a7a" opacity="0.8" stroke="none" stroke-width="0"/><path d="M572.9 70.0L576.5 73.6L572.9 77.2L569.3 73.6Z" fill="#2b3a7a" opacity="0.8" stroke="none" stroke-width="0"/><path d="M640.8 69.8L644.4 73.4L640.8 77.0L637.2 73.4Z" fill="#2b3a7a" opacity="0.8" stroke="none" stroke-width="0"/><path d="M698.7 69.8L702.3 73.4L698.7 77.0L695.1 73.4Z" fill="#2b3a7a" opacity="0.8" stroke="none" stroke-width="0"/><path d="M737.3 67.8L740.9 71.4L737.3 75.0L733.7 71.4Z" fill="#2b3a7a" opacity="0.8" stroke="none" stroke-width="0"/><path d="M60.0 335.3L62.1 335.3L62.1 335.1L65.0 335.1L65.0 320.7L70.7 320.7L70.7 319.9L72.9 319.9L72.9 315.3L73.5 315.3L73.5 314.9L74.4 314.9L74.4 314.9L108.8 314.9L108.8 238.7L109.4 238.7L109.4 229.0L109.9 229.0L109.9 222.3L110.6 222.3L110.6 220.6L110.7 220.6L110.7 220.5L111.1 220.5L111.1 214.2L112.4 214.2L112.4 214.1L112.8 214.1L112.8 213.7L113.1 213.7L113.1 213.5L113.5 213.5L113.5 212.7L115.1 212.7L115.1 212.1L115.6 212.1L115.6 212.0L120.2 212.0L120.2 206.7L125.3 206.7L125.3 204.9L127.2 204.9L127.2 204.6L128.5 204.6L128.5 201.9L130.8 201.9L130.8 201.8L132.0 201.8L132.0 201.0L132.6 201.0L132.6 200.0L136.0 200.0L136.0 200.0L137.3 200.0L137.3 199.7L148.6 199.7L148.6 195.5L157.0 195.5L157.0 187.4L157.2 187.4L157.2 186.2L157.8 186.2L157.8 184.5L172.5 184.5L172.5 183.9L179.7 183.9L179.7 169.3L182.2 169.3L182.2 168.8L182.4 168.8L182.4 167.7L183.7 167.7L183.7 165.0L184.3 165.0L184.3 163.7L184.4 163.7L184.4 163.6L187.5 163.6L187.5 155.9L191.3 155.9L191.3 155.8L192.7 155.8L192.7 141.9L195.8 141.9L195.8 141.8L196.9 141.8L196.9 131.7L197.9 131.7L197.9 130.9L198.3 130.9L198.3 129.5L224.1 129.5L224.1 129.5L227.9 129.5L227.9 128.9L231.6 128.9L231.6 128.4L234.2 128.4L234.2 128.2L245.8 128.2L245.8 128.0L258.0 128.0L258.0 112.8L260.7 112.8L260.7 110.2L265.4 110.2L265.4 105.5L266.4 105.5L266.4 105.1L267.2 105.1L267.2 103.8L275.6 103.8L275.6 103.5L291.4 103.5L291.4 89.6L294.1 89.6L294.1 89.3L294.7 89.3L294.7 87.6L297.5 87.6L297.5 85.4L306.4 85.4L306.4 84.4L373.6 84.4L373.6 84.4L541.2 84.4L541.2 75.8L542.7 75.8L542.7 75.7L544.4 75.7L544.4 75.3L544.7 75.3L544.7 74.7L546.2 74.7L546.2 74.7L555.7 74.7L555.7 74.4L568.5 74.4L568.5 73.9L572.9 73.9L572.9 73.6L579.8 73.6L579.8 69.8L582.9 69.8L582.9 69.1L844.9 69.1L844.9 55.0L1032.0 55.0" fill="none" stroke="#6675b0" stroke-width="1.6" stroke-dasharray="5 3" opacity="0.75"/><path d="M187.5 155.9L195.8 155.9L195.8 141.8L196.9 141.8L196.9 131.7L197.9 131.7L197.9 130.9L198.3 130.9L198.3 129.5L224.1 129.5L224.1 129.5L227.9 129.5L227.9 128.9L231.6 128.9L231.6 128.4L234.2 128.4L234.2 128.2L245.8 128.2L245.8 128.0L258.0 128.0L258.0 112.8L263.7 112.8L263.7 111.6L265.4 111.6L265.4 105.5L266.4 105.5L266.4 105.1L267.2 105.1L267.2 103.8L275.6 103.8L275.6 103.5L291.4 103.5L291.4 89.6L294.1 89.6L294.1 89.3L294.7 89.3L294.7 87.6L297.5 87.6L297.5 85.4L306.4 85.4L306.4 84.4L373.6 84.4L373.6 84.4L541.2 84.4L541.2 75.8L542.7 75.8L542.7 75.7L544.4 75.7L544.4 75.3L544.7 75.3L544.7 74.7L546.2 74.7L546.2 74.7L555.7 74.7L555.7 74.4L568.5 74.4L568.5 73.9L572.9 73.9L572.9 73.6L579.9 73.6L579.9 73.5L640.8 73.5L640.8 73.4L698.7 73.4L698.7 73.4L737.3 73.4L737.3 71.4L1032.0 71.4" fill="none" stroke="#2b3a7a" stroke-width="2.6"/><path d="M486.9 246.9L493.4 253.4L486.9 259.9L480.4 253.4Z" fill="#c5961a" opacity="1.0" stroke="#ffffff" stroke-width="1.4"/><path d="M570.2 206.5L576.7 213.0L570.2 219.5L563.7 213.0Z" fill="#c5961a" opacity="1.0" stroke="#ffffff" stroke-width="1.4"/><path d="M579.9 67.0L586.4 73.5L579.9 80.0L573.4 73.5Z" fill="#c5961a" opacity="1.0" stroke="#ffffff" stroke-width="1.4"/><path d="M651.3 240.8L657.8 247.3L651.3 253.8L644.8 247.3Z" fill="#c5961a" opacity="1.0" stroke="#ffffff" stroke-width="1.4"/><path d="M651.8 238.0L658.3 244.5L651.8 251.0L645.3 244.5Z" fill="#c5961a" opacity="1.0" stroke="#ffffff" stroke-width="1.4"/><text x="1042" y="53.0" font-size="11.5" fill="#6675b0">– – raw best 535.9</text><text x="1042" y="67.0" font-size="10" fill="#8a8fa3">unverified (pending)</text><path d="M737.3 64.9L743.8 71.4L737.3 77.9L730.8 71.4Z" fill="#2b3a7a" opacity="1.0" stroke="#ffffff" stroke-width="1.4"/><text x="1042" y="99.4" font-size="12.5" fill="#2b3a7a" font-weight="bold">◆ verified 510.1</text><text x="1042" y="115.4" font-size="10.5" fill="#3a3f55">top verified</text><text x="60" y="24" font-size="13" font-weight="bold" fill="#3a3f55" letter-spacing="1.2">SCORE EVOLUTION — gemma-challenge (tok/s)</text><circle cx="452" cy="20" r="3" fill="#b9bdca"/><text x="460" y="24" font-size="10.5" fill="#8a8fa3">all results</text><path d="M544.0 16.4L547.6 20.0L544.0 23.6L540.4 20.0Z" fill="#2b3a7a" opacity="1.0" stroke="none" stroke-width="0"/><text x="552" y="24" font-size="10.5" fill="#8a8fa3">verified</text><path d="M620.0 15.5L624.5 20.0L620.0 24.5L615.5 20.0Z" fill="#c5961a" opacity="1.0" stroke="#fff" stroke-width="1"/><text x="629" y="24" font-size="10.5" fill="#8a8fa3">mikasa-inbound (us)</text></svg>