<svg viewBox="0 0 1200 440" xmlns="http://www.w3.org/2000/svg" font-family="ui-sans-serif,system-ui,-apple-system,sans-serif"><rect x="0" y="0" width="1200" height="440" fill="#ffffff"/><rect x="60" y="46" width="972" height="350" fill="#f3f4fb"/><line x1="60" y1="396.0" x2="1032" y2="396.0" stroke="#e3e5ef" stroke-width="1"/><text x="52" y="400.0" text-anchor="end" font-size="11" fill="#8a8fa3">0</text><line x1="60" y1="332.4" x2="1032" y2="332.4" stroke="#e3e5ef" stroke-width="1"/><text x="52" y="336.4" text-anchor="end" font-size="11" fill="#8a8fa3">100</text><line x1="60" y1="268.7" x2="1032" y2="268.7" stroke="#e3e5ef" stroke-width="1"/><text x="52" y="272.7" text-anchor="end" font-size="11" fill="#8a8fa3">200</text><line x1="60" y1="205.1" x2="1032" y2="205.1" stroke="#e3e5ef" stroke-width="1"/><text x="52" y="209.1" text-anchor="end" font-size="11" fill="#8a8fa3">300</text><line x1="60" y1="141.5" x2="1032" y2="141.5" stroke="#e3e5ef" stroke-width="1"/><text x="52" y="145.5" text-anchor="end" font-size="11" fill="#8a8fa3">400</text><line x1="60" y1="77.8" x2="1032" y2="77.8" stroke="#e3e5ef" stroke-width="1"/><text x="52" y="81.8" text-anchor="end" font-size="11" fill="#8a8fa3">500</text><line x1="134.3" y1="46" x2="134.3" y2="396" stroke="#e3e5ef" stroke-width="1"/><text x="134.3" y="414.0" text-anchor="middle" font-size="11" fill="#8a8fa3">Jun 10</text><line x1="240.2" y1="46" x2="240.2" y2="396" stroke="#e3e5ef" stroke-width="1"/><text x="240.2" y="414.0" text-anchor="middle" font-size="11" fill="#8a8fa3">Jun 12</text><line x1="346.1" y1="46" x2="346.1" y2="396" stroke="#e3e5ef" stroke-width="1"/><text x="346.1" y="414.0" text-anchor="middle" font-size="11" fill="#8a8fa3">Jun 14</text><line x1="452.0" y1="46" x2="452.0" y2="396" stroke="#e3e5ef" stroke-width="1"/><text x="452.0" y="414.0" text-anchor="middle" font-size="11" fill="#8a8fa3">Jun 16</text><line x1="557.9" y1="46" x2="557.9" y2="396" stroke="#e3e5ef" stroke-width="1"/><text x="557.9" y="414.0" text-anchor="middle" font-size="11" fill="#8a8fa3">Jun 18</text><line x1="663.9" y1="46" x2="663.9" y2="396" stroke="#e3e5ef" stroke-width="1"/><text x="663.9" y="414.0" text-anchor="middle" font-size="11" fill="#8a8fa3">Jun 20</text><line x1="769.8" y1="46" x2="769.8" y2="396" stroke="#e3e5ef" stroke-width="1"/><text x="769.8" y="414.0" text-anchor="middle" font-size="11" fill="#8a8fa3">Jun 22</text><line x1="875.7" y1="46" x2="875.7" y2="396" stroke="#e3e5ef" stroke-width="1"/><text x="875.7" y="414.0" text-anchor="middle" font-size="11" fill="#8a8fa3">Jun 24</text><line x1="981.6" y1="46" x2="981.6" y2="396" stroke="#e3e5ef" stroke-width="1"/><text x="981.6" y="414.0" text-anchor="middle" font-size="11" fill="#8a8fa3">Jun 26</text><circle cx="60.0" cy="335.3" r="2.3" fill="#b9bdca" opacity="0.5"/><circle cx="62.5" cy="335.1" r="2.3" fill="#b9bdca" opacity="0.5"/><circle cx="65.1" cy="368.0" r="2.3" fill="#b9bdca" opacity="0.5"/><circle cx="66.1" cy="320.7" r="2.3" fill="#b9bdca" opacity="0.5"/><circle cx="73.2" cy="319.9" r="2.3" fill="#b9bdca" opacity="0.5"/><circle cx="73.6" cy="320.6" r="2.3" fill="#b9bdca" opacity="0.5"/><circle cx="75.8" cy="315.3" r="2.3" fill="#b9bdca" opacity="0.5"/><circle cx="76.3" cy="319.7" r="2.3" fill="#b9bdca" opacity="0.5"/><circle cx="76.5" cy="314.9" r="2.3" fill="#b9bdca" opacity="0.5"/><circle cx="77.4" cy="315.5" r="2.3" fill="#b9bdca" opacity="0.5"/><circle cx="77.7" cy="314.9" r="2.3" fill="#b9bdca" opacity="0.5"/><circle cx="78.4" cy="315.4" r="2.3" fill="#b9bdca" opacity="0.5"/><circle cx="79.7" cy="315.0" r="2.3" fill="#b9bdca" opacity="0.5"/><circle cx="119.8" cy="238.7" r="2.3" fill="#b9bdca" opacity="0.5"/><circle cx="120.1" cy="315.0" r="2.3" fill="#b9bdca" opacity="0.5"/><circle cx="120.5" cy="229.0" r="2.3" fill="#b9bdca" opacity="0.5"/><circle cx="121.2" cy="222.3" r="2.3" fill="#b9bdca" opacity="0.5"/><circle cx="121.8" cy="228.0" r="2.3" fill="#b9bdca" opacity="0.5"/><circle cx="121.9" cy="223.3" r="2.3" fill="#b9bdca" opacity="0.5"/><circle cx="122.0" cy="220.6" r="2.3" fill="#b9bdca" opacity="0.5"/><circle cx="122.2" cy="220.5" r="2.3" fill="#b9bdca" opacity="0.5"/><circle cx="122.3" cy="223.2" r="2.3" fill="#b9bdca" opacity="0.5"/><circle cx="122.6" cy="214.2" r="2.3" fill="#b9bdca" opacity="0.5"/><circle cx="122.7" cy="222.1" r="2.3" fill="#b9bdca" opacity="0.5"/><circle cx="123.0" cy="220.7" r="2.3" fill="#b9bdca" opacity="0.5"/><circle cx="123.4" cy="218.5" r="2.3" fill="#b9bdca" opacity="0.5"/><circle cx="123.6" cy="215.2" r="2.3" fill="#b9bdca" opacity="0.5"/><circle cx="123.9" cy="214.3" r="2.3" fill="#b9bdca" opacity="0.5"/><circle cx="123.9" cy="219.2" r="2.3" fill="#b9bdca" opacity="0.5"/><circle cx="124.2" cy="214.1" r="2.3" fill="#b9bdca" opacity="0.5"/><circle cx="124.5" cy="215.2" r="2.3" fill="#b9bdca" opacity="0.5"/><circle cx="124.7" cy="213.7" r="2.3" fill="#b9bdca" opacity="0.5"/><circle cx="125.0" cy="213.5" r="2.3" fill="#b9bdca" opacity="0.5"/><circle cx="125.3" cy="214.8" r="2.3" fill="#b9bdca" opacity="0.5"/><circle cx="125.3" cy="217.7" r="2.3" fill="#b9bdca" opacity="0.5"/><circle cx="125.5" cy="212.7" r="2.3" fill="#b9bdca" opacity="0.5"/><circle cx="126.1" cy="213.3" r="2.3" fill="#b9bdca" opacity="0.5"/><circle cx="126.9" cy="212.7" r="2.3" fill="#b9bdca" opacity="0.5"/><circle cx="126.9" cy="213.6" r="2.3" fill="#b9bdca" opacity="0.5"/><circle cx="127.1" cy="213.0" r="2.3" fill="#b9bdca" opacity="0.5"/><circle cx="127.6" cy="212.1" r="2.3" fill="#b9bdca" opacity="0.5"/><circle cx="127.7" cy="213.3" r="2.3" fill="#b9bdca" opacity="0.5"/><circle cx="128.1" cy="212.0" r="2.3" fill="#b9bdca" opacity="0.5"/><circle cx="128.9" cy="212.1" r="2.3" fill="#b9bdca" opacity="0.5"/><circle cx="128.9" cy="212.8" r="2.3" fill="#b9bdca" opacity="0.5"/><circle cx="133.7" cy="206.7" r="2.3" fill="#b9bdca" opacity="0.5"/><circle cx="134.4" cy="206.8" r="2.3" fill="#b9bdca" opacity="0.5"/><circle cx="134.4" cy="212.5" r="2.3" fill="#b9bdca" opacity="0.5"/><circle cx="134.8" cy="207.2" r="2.3" fill="#b9bdca" opacity="0.5"/><circle cx="136.4" cy="207.0" r="2.3" fill="#b9bdca" opacity="0.5"/><circle cx="140.0" cy="204.9" r="2.3" fill="#b9bdca" opacity="0.5"/><circle cx="142.4" cy="204.6" r="2.3" fill="#b9bdca" opacity="0.5"/><circle cx="142.6" cy="212.3" r="2.3" fill="#b9bdca" opacity="0.5"/><circle cx="143.0" cy="204.6" r="2.3" fill="#b9bdca" opacity="0.5"/><circle cx="143.0" cy="204.6" r="2.3" fill="#b9bdca" opacity="0.5"/><circle cx="143.0" cy="204.9" r="2.3" fill="#b9bdca" opacity="0.5"/><circle cx="143.0" cy="204.9" r="2.3" fill="#b9bdca" opacity="0.5"/><circle cx="143.9" cy="201.9" r="2.3" fill="#b9bdca" opacity="0.5"/><circle cx="145.4" cy="206.5" r="2.3" fill="#b9bdca" opacity="0.5"/><circle cx="146.0" cy="205.8" r="2.3" fill="#b9bdca" opacity="0.5"/><circle cx="146.0" cy="335.1" r="2.3" fill="#b9bdca" opacity="0.5"/><circle cx="146.8" cy="201.8" r="2.3" fill="#b9bdca" opacity="0.5"/><circle cx="146.8" cy="202.2" r="2.3" fill="#b9bdca" opacity="0.5"/><circle cx="148.2" cy="201.0" r="2.3" fill="#b9bdca" opacity="0.5"/><circle cx="148.7" cy="203.1" r="2.3" fill="#b9bdca" opacity="0.5"/><circle cx="149.0" cy="200.0" r="2.3" fill="#b9bdca" opacity="0.5"/><circle cx="149.0" cy="204.6" r="2.3" fill="#b9bdca" opacity="0.5"/><circle cx="149.9" cy="202.3" r="2.3" fill="#b9bdca" opacity="0.5"/><circle cx="151.7" cy="200.4" r="2.3" fill="#b9bdca" opacity="0.5"/><circle cx="152.3" cy="200.7" r="2.3" fill="#b9bdca" opacity="0.5"/><circle cx="153.1" cy="200.0" r="2.3" fill="#b9bdca" opacity="0.5"/><circle cx="154.7" cy="199.7" r="2.3" fill="#b9bdca" opacity="0.5"/><circle cx="164.9" cy="200.6" r="2.3" fill="#b9bdca" opacity="0.5"/><circle cx="165.7" cy="201.8" r="2.3" fill="#b9bdca" opacity="0.5"/><circle cx="167.1" cy="208.4" r="2.3" fill="#b9bdca" opacity="0.5"/><circle cx="167.2" cy="200.8" r="2.3" fill="#b9bdca" opacity="0.5"/><circle cx="168.2" cy="200.7" r="2.3" fill="#b9bdca" opacity="0.5"/><circle cx="168.2" cy="201.9" r="2.3" fill="#b9bdca" opacity="0.5"/><circle cx="168.5" cy="195.5" r="2.3" fill="#b9bdca" opacity="0.5"/><circle cx="169.5" cy="196.9" r="2.3" fill="#b9bdca" opacity="0.5"/><circle cx="169.9" cy="197.9" r="2.3" fill="#b9bdca" opacity="0.5"/><circle cx="170.8" cy="196.1" r="2.3" fill="#b9bdca" opacity="0.5"/><circle cx="173.9" cy="197.3" r="2.3" fill="#b9bdca" opacity="0.5"/><circle cx="174.8" cy="195.9" r="2.3" fill="#b9bdca" opacity="0.5"/><circle cx="175.1" cy="201.0" r="2.3" fill="#b9bdca" opacity="0.5"/><circle cx="175.3" cy="197.5" r="2.3" fill="#b9bdca" opacity="0.5"/><circle cx="176.0" cy="196.9" r="2.3" fill="#b9bdca" opacity="0.5"/><circle cx="176.1" cy="197.1" r="2.3" fill="#b9bdca" opacity="0.5"/><circle cx="176.1" cy="197.0" r="2.3" fill="#b9bdca" opacity="0.5"/><circle cx="176.8" cy="196.0" r="2.3" fill="#b9bdca" opacity="0.5"/><circle cx="176.8" cy="196.0" r="2.3" fill="#b9bdca" opacity="0.5"/><circle cx="176.9" cy="197.9" r="2.3" fill="#b9bdca" opacity="0.5"/><circle cx="177.4" cy="197.8" r="2.3" fill="#b9bdca" opacity="0.5"/><circle cx="177.9" cy="196.2" r="2.3" fill="#b9bdca" opacity="0.5"/><circle cx="177.9" cy="197.5" r="2.3" fill="#b9bdca" opacity="0.5"/><circle cx="178.1" cy="196.9" r="2.3" fill="#b9bdca" opacity="0.5"/><circle cx="178.1" cy="195.5" r="2.3" fill="#b9bdca" opacity="0.5"/><circle cx="178.8" cy="198.1" r="2.3" fill="#b9bdca" opacity="0.5"/><circle cx="178.8" cy="187.4" r="2.3" fill="#b9bdca" opacity="0.5"/><circle cx="179.1" cy="186.2" r="2.3" fill="#b9bdca" opacity="0.5"/><circle cx="179.1" cy="196.3" r="2.3" fill="#b9bdca" opacity="0.5"/><circle cx="179.1" cy="197.2" r="2.3" fill="#b9bdca" opacity="0.5"/><circle cx="179.1" cy="197.8" r="2.3" fill="#b9bdca" opacity="0.5"/><circle cx="179.1" cy="368.0" r="2.3" fill="#b9bdca" opacity="0.5"/><circle cx="179.8" cy="184.5" r="2.3" fill="#b9bdca" opacity="0.5"/><circle cx="182.5" cy="184.6" r="2.3" fill="#b9bdca" opacity="0.5"/><circle cx="183.7" cy="185.6" r="2.3" fill="#b9bdca" opacity="0.5"/><circle cx="187.7" cy="188.7" r="2.3" fill="#b9bdca" opacity="0.5"/><circle cx="193.1" cy="185.4" r="2.3" fill="#b9bdca" opacity="0.5"/><circle cx="194.2" cy="185.2" r="2.3" fill="#b9bdca" opacity="0.5"/><circle cx="194.6" cy="186.6" r="2.3" fill="#b9bdca" opacity="0.5"/><circle cx="194.8" cy="185.3" r="2.3" fill="#b9bdca" opacity="0.5"/><circle cx="195.7" cy="185.3" r="2.3" fill="#b9bdca" opacity="0.5"/><circle cx="196.2" cy="185.0" r="2.3" fill="#b9bdca" opacity="0.5"/><circle cx="197.1" cy="184.9" r="2.3" fill="#b9bdca" opacity="0.5"/><circle cx="197.7" cy="185.1" r="2.3" fill="#b9bdca" opacity="0.5"/><circle cx="197.7" cy="185.2" r="2.3" fill="#b9bdca" opacity="0.5"/><circle cx="197.7" cy="186.4" r="2.3" fill="#b9bdca" opacity="0.5"/><circle cx="197.8" cy="183.9" r="2.3" fill="#b9bdca" opacity="0.5"/><circle cx="202.7" cy="184.4" r="2.3" fill="#b9bdca" opacity="0.5"/><circle cx="203.6" cy="184.2" r="2.3" fill="#b9bdca" opacity="0.5"/><circle cx="206.7" cy="169.3" r="2.3" fill="#b9bdca" opacity="0.5"/><circle cx="209.7" cy="168.8" r="2.3" fill="#b9bdca" opacity="0.5"/><circle cx="209.9" cy="167.7" r="2.3" fill="#b9bdca" opacity="0.5"/><circle cx="211.2" cy="201.4" r="2.3" fill="#b9bdca" opacity="0.5"/><circle cx="211.6" cy="165.0" r="2.3" fill="#b9bdca" opacity="0.5"/><circle cx="211.8" cy="198.2" r="2.3" fill="#b9bdca" opacity="0.5"/><circle cx="212.3" cy="163.7" r="2.3" fill="#b9bdca" opacity="0.5"/><circle cx="212.4" cy="163.6" r="2.3" fill="#b9bdca" opacity="0.5"/><circle cx="213.0" cy="165.9" r="2.3" fill="#b9bdca" opacity="0.5"/><circle cx="215.6" cy="165.1" r="2.3" fill="#b9bdca" opacity="0.5"/><circle cx="216.2" cy="155.9" r="2.3" fill="#b9bdca" opacity="0.5"/><circle cx="218.8" cy="196.5" r="2.3" fill="#b9bdca" opacity="0.5"/><circle cx="219.9" cy="157.4" r="2.3" fill="#b9bdca" opacity="0.5"/><circle cx="220.9" cy="155.8" r="2.3" fill="#b9bdca" opacity="0.5"/><circle cx="222.6" cy="141.9" r="2.3" fill="#b9bdca" opacity="0.5"/><circle cx="226.2" cy="156.1" r="2.3" fill="#b9bdca" opacity="0.5"/><circle cx="226.2" cy="156.4" r="2.3" fill="#b9bdca" opacity="0.5"/><circle cx="226.3" cy="141.8" r="2.3" fill="#b9bdca" opacity="0.5"/><circle cx="226.5" cy="196.0" r="2.3" fill="#b9bdca" opacity="0.5"/><circle cx="227.7" cy="131.7" r="2.3" fill="#b9bdca" opacity="0.5"/><circle cx="227.9" cy="134.1" r="2.3" fill="#b9bdca" opacity="0.5"/><circle cx="228.3" cy="141.1" r="2.3" fill="#b9bdca" opacity="0.5"/><circle cx="228.8" cy="134.0" r="2.3" fill="#b9bdca" opacity="0.5"/><circle cx="229.0" cy="130.9" r="2.3" fill="#b9bdca" opacity="0.5"/><circle cx="229.0" cy="154.2" r="2.3" fill="#b9bdca" opacity="0.5"/><circle cx="229.2" cy="133.6" r="2.3" fill="#b9bdca" opacity="0.5"/><circle cx="229.5" cy="129.5" r="2.3" fill="#b9bdca" opacity="0.5"/><circle cx="229.5" cy="130.9" r="2.3" fill="#b9bdca" opacity="0.5"/><circle cx="229.5" cy="133.4" r="2.3" fill="#b9bdca" opacity="0.5"/><circle cx="229.8" cy="131.2" r="2.3" fill="#b9bdca" opacity="0.5"/><circle cx="232.0" cy="189.8" r="2.3" fill="#b9bdca" opacity="0.5"/><circle cx="232.1" cy="133.2" r="2.3" fill="#b9bdca" opacity="0.5"/><circle cx="232.4" cy="133.5" r="2.3" fill="#b9bdca" opacity="0.5"/><circle cx="233.2" cy="130.1" r="2.3" fill="#b9bdca" opacity="0.5"/><circle cx="235.4" cy="130.3" r="2.3" fill="#b9bdca" opacity="0.5"/><circle cx="236.4" cy="303.1" r="2.3" fill="#b9bdca" opacity="0.5"/><circle cx="238.2" cy="133.2" r="2.3" fill="#b9bdca" opacity="0.5"/><circle cx="240.5" cy="144.2" r="2.3" fill="#b9bdca" opacity="0.5"/><circle cx="241.0" cy="135.3" r="2.3" fill="#b9bdca" opacity="0.5"/><circle cx="242.5" cy="133.4" r="2.3" fill="#b9bdca" opacity="0.5"/><circle cx="242.7" cy="159.9" r="2.3" fill="#b9bdca" opacity="0.5"/><circle cx="243.0" cy="130.8" r="2.3" fill="#b9bdca" opacity="0.5"/><circle cx="243.6" cy="133.2" r="2.3" fill="#b9bdca" opacity="0.5"/><circle cx="249.0" cy="130.9" r="2.3" fill="#b9bdca" opacity="0.5"/><circle cx="249.6" cy="130.9" r="2.3" fill="#b9bdca" opacity="0.5"/><circle cx="249.6" cy="133.8" r="2.3" fill="#b9bdca" opacity="0.5"/><circle cx="250.5" cy="130.4" r="2.3" fill="#b9bdca" opacity="0.5"/><circle cx="251.1" cy="153.7" r="2.3" fill="#b9bdca" opacity="0.5"/><circle cx="252.1" cy="133.3" r="2.3" fill="#b9bdca" opacity="0.5"/><circle cx="253.7" cy="156.5" r="2.3" fill="#b9bdca" opacity="0.5"/><circle cx="254.0" cy="132.3" r="2.3" fill="#b9bdca" opacity="0.5"/><circle cx="256.0" cy="147.2" r="2.3" fill="#b9bdca" opacity="0.5"/><circle cx="256.4" cy="133.6" r="2.3" fill="#b9bdca" opacity="0.5"/><circle cx="257.1" cy="129.5" r="2.3" fill="#b9bdca" opacity="0.5"/><circle cx="257.1" cy="133.3" r="2.3" fill="#b9bdca" opacity="0.5"/><circle cx="259.4" cy="133.3" r="2.3" fill="#b9bdca" opacity="0.5"/><circle cx="261.0" cy="129.5" r="2.3" fill="#b9bdca" opacity="0.5"/><circle cx="263.7" cy="130.6" r="2.3" fill="#b9bdca" opacity="0.5"/><circle cx="265.8" cy="128.9" r="2.3" fill="#b9bdca" opacity="0.5"/><circle cx="266.2" cy="132.7" r="2.3" fill="#b9bdca" opacity="0.5"/><circle cx="266.2" cy="133.1" r="2.3" fill="#b9bdca" opacity="0.5"/><circle cx="269.2" cy="129.8" r="2.3" fill="#b9bdca" opacity="0.5"/><circle cx="270.0" cy="333.8" r="2.3" fill="#b9bdca" opacity="0.5"/><circle cx="270.3" cy="128.4" r="2.3" fill="#b9bdca" opacity="0.5"/><circle cx="271.7" cy="129.8" r="2.3" fill="#b9bdca" opacity="0.5"/><circle cx="272.2" cy="128.9" r="2.3" fill="#b9bdca" opacity="0.5"/><circle cx="272.4" cy="128.9" r="2.3" fill="#b9bdca" opacity="0.5"/><circle cx="273.4" cy="128.2" r="2.3" fill="#b9bdca" opacity="0.5"/><circle cx="274.2" cy="129.7" r="2.3" fill="#b9bdca" opacity="0.5"/><circle cx="274.5" cy="142.3" r="2.3" fill="#b9bdca" opacity="0.5"/><circle cx="277.3" cy="128.8" r="2.3" fill="#b9bdca" opacity="0.5"/><circle cx="279.0" cy="161.1" r="2.3" fill="#b9bdca" opacity="0.5"/><circle cx="282.2" cy="164.4" r="2.3" fill="#b9bdca" opacity="0.5"/><circle cx="282.6" cy="248.3" r="2.3" fill="#b9bdca" opacity="0.5"/><circle cx="287.2" cy="135.4" r="2.3" fill="#b9bdca" opacity="0.5"/><circle cx="287.7" cy="128.0" r="2.3" fill="#b9bdca" opacity="0.5"/><circle cx="289.1" cy="229.0" r="2.3" fill="#b9bdca" opacity="0.5"/><circle cx="292.3" cy="128.1" r="2.3" fill="#b9bdca" opacity="0.5"/><circle cx="293.2" cy="128.6" r="2.3" fill="#b9bdca" opacity="0.5"/><circle cx="296.2" cy="128.8" r="2.3" fill="#b9bdca" opacity="0.5"/><circle cx="296.2" cy="129.6" r="2.3" fill="#b9bdca" opacity="0.5"/><circle cx="296.2" cy="130.9" r="2.3" fill="#b9bdca" opacity="0.5"/><circle cx="302.5" cy="112.8" r="2.3" fill="#b9bdca" opacity="0.5"/><circle cx="305.9" cy="110.2" r="2.3" fill="#b9bdca" opacity="0.5"/><circle cx="306.0" cy="111.6" r="2.3" fill="#b9bdca" opacity="0.5"/><circle cx="308.0" cy="111.0" r="2.3" fill="#b9bdca" opacity="0.5"/><circle cx="309.1" cy="335.1" r="2.3" fill="#b9bdca" opacity="0.5"/><circle cx="309.6" cy="111.6" r="2.3" fill="#b9bdca" opacity="0.5"/><circle cx="311.7" cy="105.5" r="2.3" fill="#b9bdca" opacity="0.5"/><circle cx="312.0" cy="108.5" r="2.3" fill="#b9bdca" opacity="0.5"/><circle cx="312.9" cy="105.1" r="2.3" fill="#b9bdca" opacity="0.5"/><circle cx="313.8" cy="103.8" r="2.3" fill="#b9bdca" opacity="0.5"/><circle cx="314.9" cy="125.8" r="2.3" fill="#b9bdca" opacity="0.5"/><circle cx="324.1" cy="103.5" r="2.3" fill="#b9bdca" opacity="0.5"/><circle cx="326.5" cy="127.8" r="2.3" fill="#b9bdca" opacity="0.5"/><circle cx="327.5" cy="334.3" r="2.3" fill="#b9bdca" opacity="0.5"/><circle cx="328.9" cy="128.6" r="2.3" fill="#b9bdca" opacity="0.5"/><circle cx="329.6" cy="128.6" r="2.3" fill="#b9bdca" opacity="0.5"/><circle cx="329.7" cy="128.6" r="2.3" fill="#b9bdca" opacity="0.5"/><circle cx="330.5" cy="256.6" r="2.3" fill="#b9bdca" opacity="0.5"/><circle cx="331.6" cy="254.6" r="2.3" fill="#b9bdca" opacity="0.5"/><circle cx="333.3" cy="128.6" r="2.3" fill="#b9bdca" opacity="0.5"/><circle cx="337.5" cy="250.1" r="2.3" fill="#b9bdca" opacity="0.5"/><circle cx="337.9" cy="161.4" r="2.3" fill="#b9bdca" opacity="0.5"/><circle cx="338.3" cy="206.6" r="2.3" fill="#b9bdca" opacity="0.5"/><circle cx="342.2" cy="113.5" r="2.3" fill="#b9bdca" opacity="0.5"/><circle cx="343.5" cy="89.6" r="2.3" fill="#b9bdca" opacity="0.5"/><circle cx="344.4" cy="90.2" r="2.3" fill="#b9bdca" opacity="0.5"/><circle cx="346.9" cy="89.3" r="2.3" fill="#b9bdca" opacity="0.5"/><circle cx="347.5" cy="87.6" r="2.3" fill="#b9bdca" opacity="0.5"/><circle cx="348.3" cy="185.0" r="2.3" fill="#b9bdca" opacity="0.5"/><circle cx="349.2" cy="131.6" r="2.3" fill="#b9bdca" opacity="0.5"/><circle cx="349.9" cy="87.8" r="2.3" fill="#b9bdca" opacity="0.5"/><circle cx="351.0" cy="85.4" r="2.3" fill="#b9bdca" opacity="0.5"/><circle cx="352.7" cy="86.8" r="2.3" fill="#b9bdca" opacity="0.5"/><circle cx="354.5" cy="88.4" r="2.3" fill="#b9bdca" opacity="0.5"/><circle cx="361.8" cy="89.5" r="2.3" fill="#b9bdca" opacity="0.5"/><circle cx="361.8" cy="155.6" r="2.3" fill="#b9bdca" opacity="0.5"/><circle cx="361.8" cy="84.4" r="2.3" fill="#b9bdca" opacity="0.5"/><circle cx="370.5" cy="89.2" r="2.3" fill="#b9bdca" opacity="0.5"/><circle cx="370.6" cy="90.5" r="2.3" fill="#b9bdca" opacity="0.5"/><circle cx="373.1" cy="87.7" r="2.3" fill="#b9bdca" opacity="0.5"/><circle cx="373.9" cy="367.9" r="2.3" fill="#b9bdca" opacity="0.5"/><circle cx="377.4" cy="164.3" r="2.3" fill="#b9bdca" opacity="0.5"/><circle cx="379.2" cy="94.6" r="2.3" fill="#b9bdca" opacity="0.5"/><circle cx="379.9" cy="89.6" r="2.3" fill="#b9bdca" opacity="0.5"/><circle cx="387.3" cy="124.6" r="2.3" fill="#b9bdca" opacity="0.5"/><circle cx="395.3" cy="146.2" r="2.3" fill="#b9bdca" opacity="0.5"/><circle cx="395.5" cy="90.5" r="2.3" fill="#b9bdca" opacity="0.5"/><circle cx="396.3" cy="87.7" r="2.3" fill="#b9bdca" opacity="0.5"/><circle cx="396.7" cy="87.7" r="2.3" fill="#b9bdca" opacity="0.5"/><circle cx="396.7" cy="89.6" r="2.3" fill="#b9bdca" opacity="0.5"/><circle cx="402.4" cy="93.0" r="2.3" fill="#b9bdca" opacity="0.5"/><circle cx="404.4" cy="85.5" r="2.3" fill="#b9bdca" opacity="0.5"/><circle cx="421.2" cy="334.8" r="2.3" fill="#b9bdca" opacity="0.5"/><circle cx="423.1" cy="86.3" r="2.3" fill="#b9bdca" opacity="0.5"/><circle cx="428.7" cy="85.5" r="2.3" fill="#b9bdca" opacity="0.5"/><circle cx="429.7" cy="84.6" r="2.3" fill="#b9bdca" opacity="0.5"/><circle cx="432.1" cy="87.8" r="2.3" fill="#b9bdca" opacity="0.5"/><circle cx="433.0" cy="84.4" r="2.3" fill="#b9bdca" opacity="0.5"/><circle cx="433.6" cy="84.8" r="2.3" fill="#b9bdca" opacity="0.5"/><circle cx="435.2" cy="87.4" r="2.3" fill="#b9bdca" opacity="0.5"/><circle cx="444.3" cy="84.4" r="2.3" fill="#b9bdca" opacity="0.5"/><circle cx="483.8" cy="89.3" r="2.3" fill="#b9bdca" opacity="0.5"/><circle cx="490.9" cy="88.6" r="2.3" fill="#b9bdca" opacity="0.5"/><circle cx="490.9" cy="92.1" r="2.3" fill="#b9bdca" opacity="0.5"/><circle cx="492.5" cy="156.8" r="2.3" fill="#b9bdca" opacity="0.5"/><circle cx="515.3" cy="201.6" r="2.3" fill="#b9bdca" opacity="0.5"/><circle cx="531.9" cy="315.6" r="2.3" fill="#b9bdca" opacity="0.5"/><circle cx="577.5" cy="87.7" r="2.3" fill="#b9bdca" opacity="0.5"/><circle cx="591.3" cy="87.6" r="2.3" fill="#b9bdca" opacity="0.5"/><circle cx="603.5" cy="87.2" r="2.3" fill="#b9bdca" opacity="0.5"/><circle cx="606.3" cy="88.8" r="2.3" fill="#b9bdca" opacity="0.5"/><circle cx="607.4" cy="89.2" r="2.3" fill="#b9bdca" opacity="0.5"/><circle cx="608.0" cy="90.9" r="2.3" fill="#b9bdca" opacity="0.5"/><circle cx="611.5" cy="87.7" r="2.3" fill="#b9bdca" opacity="0.5"/><circle cx="623.8" cy="88.6" r="2.3" fill="#b9bdca" opacity="0.5"/><circle cx="625.4" cy="89.7" r="2.3" fill="#b9bdca" opacity="0.5"/><circle cx="626.5" cy="88.2" r="2.3" fill="#b9bdca" opacity="0.5"/><circle cx="649.5" cy="75.8" r="2.3" fill="#b9bdca" opacity="0.5"/><circle cx="651.3" cy="75.7" r="2.3" fill="#b9bdca" opacity="0.5"/><circle cx="652.7" cy="76.7" r="2.3" fill="#b9bdca" opacity="0.5"/><circle cx="652.8" cy="75.8" r="2.3" fill="#b9bdca" opacity="0.5"/><circle cx="653.5" cy="75.3" r="2.3" fill="#b9bdca" opacity="0.5"/><circle cx="653.9" cy="74.7" r="2.3" fill="#b9bdca" opacity="0.5"/><circle cx="654.1" cy="83.4" r="2.3" fill="#b9bdca" opacity="0.5"/><circle cx="654.6" cy="76.2" r="2.3" fill="#b9bdca" opacity="0.5"/><circle cx="655.2" cy="78.1" r="2.3" fill="#b9bdca" opacity="0.5"/><circle cx="655.7" cy="74.7" r="2.3" fill="#b9bdca" opacity="0.5"/><circle cx="659.6" cy="89.3" r="2.3" fill="#b9bdca" opacity="0.5"/><circle cx="667.3" cy="74.4" r="2.3" fill="#b9bdca" opacity="0.5"/><circle cx="679.5" cy="74.4" r="2.3" fill="#b9bdca" opacity="0.5"/><circle cx="681.5" cy="335.1" r="2.3" fill="#b9bdca" opacity="0.5"/><circle cx="681.5" cy="81.7" r="2.3" fill="#b9bdca" opacity="0.5"/><circle cx="683.0" cy="74.6" r="2.3" fill="#b9bdca" opacity="0.5"/><circle cx="683.0" cy="82.1" r="2.3" fill="#b9bdca" opacity="0.5"/><circle cx="683.1" cy="73.9" r="2.3" fill="#b9bdca" opacity="0.5"/><circle cx="686.5" cy="76.2" r="2.3" fill="#b9bdca" opacity="0.5"/><circle cx="687.1" cy="82.1" r="2.3" fill="#b9bdca" opacity="0.5"/><circle cx="687.6" cy="74.2" r="2.3" fill="#b9bdca" opacity="0.5"/><circle cx="687.6" cy="75.0" r="2.3" fill="#b9bdca" opacity="0.5"/><circle cx="688.4" cy="73.6" r="2.3" fill="#b9bdca" opacity="0.5"/><circle cx="688.4" cy="83.3" r="2.3" fill="#b9bdca" opacity="0.5"/><circle cx="688.4" cy="83.8" r="2.3" fill="#b9bdca" opacity="0.5"/><circle cx="688.5" cy="78.1" r="2.3" fill="#b9bdca" opacity="0.5"/><circle cx="688.5" cy="81.5" r="2.3" fill="#b9bdca" opacity="0.5"/><circle cx="688.5" cy="83.0" r="2.3" fill="#b9bdca" opacity="0.5"/><circle cx="688.5" cy="83.7" r="2.3" fill="#b9bdca" opacity="0.5"/><circle cx="693.3" cy="82.7" r="2.3" fill="#b9bdca" opacity="0.5"/><circle cx="694.4" cy="77.8" r="2.3" fill="#b9bdca" opacity="0.5"/><circle cx="696.9" cy="69.8" r="2.3" fill="#b9bdca" opacity="0.5"/><circle cx="697.8" cy="75.9" r="2.3" fill="#b9bdca" opacity="0.5"/><circle cx="698.1" cy="74.3" r="2.3" fill="#b9bdca" opacity="0.5"/><circle cx="698.1" cy="77.4" r="2.3" fill="#b9bdca" opacity="0.5"/><circle cx="698.1" cy="80.6" r="2.3" fill="#b9bdca" opacity="0.5"/><circle cx="698.1" cy="81.8" r="2.3" fill="#b9bdca" opacity="0.5"/><circle cx="699.9" cy="76.9" r="2.3" fill="#b9bdca" opacity="0.5"/><circle cx="699.9" cy="82.8" r="2.3" fill="#b9bdca" opacity="0.5"/><circle cx="699.9" cy="83.0" r="2.3" fill="#b9bdca" opacity="0.5"/><circle cx="699.9" cy="83.1" r="2.3" fill="#b9bdca" opacity="0.5"/><circle cx="700.6" cy="69.1" r="2.3" fill="#b9bdca" opacity="0.5"/><circle cx="702.7" cy="75.5" r="2.3" fill="#b9bdca" opacity="0.5"/><circle cx="703.8" cy="74.3" r="2.3" fill="#b9bdca" opacity="0.5"/><circle cx="734.8" cy="74.0" r="2.3" fill="#b9bdca" opacity="0.5"/><circle cx="771.6" cy="73.4" r="2.3" fill="#b9bdca" opacity="0.5"/><circle cx="771.9" cy="75.9" r="2.3" fill="#b9bdca" opacity="0.5"/><circle cx="771.9" cy="76.3" r="2.3" fill="#b9bdca" opacity="0.5"/><circle cx="772.2" cy="76.0" r="2.3" fill="#b9bdca" opacity="0.5"/><circle cx="772.2" cy="76.8" r="2.3" fill="#b9bdca" opacity="0.5"/><circle cx="772.2" cy="81.2" r="2.3" fill="#b9bdca" opacity="0.5"/><circle cx="772.2" cy="83.4" r="2.3" fill="#b9bdca" opacity="0.5"/><circle cx="798.3" cy="76.6" r="2.3" fill="#b9bdca" opacity="0.5"/><circle cx="800.0" cy="76.7" r="2.3" fill="#b9bdca" opacity="0.5"/><circle cx="800.0" cy="82.8" r="2.3" fill="#b9bdca" opacity="0.5"/><circle cx="800.0" cy="82.8" r="2.3" fill="#b9bdca" opacity="0.5"/><circle cx="800.0" cy="83.3" r="2.3" fill="#b9bdca" opacity="0.5"/><circle cx="805.5" cy="233.4" r="2.3" fill="#b9bdca" opacity="0.5"/><circle cx="807.1" cy="228.9" r="2.3" fill="#b9bdca" opacity="0.5"/><circle cx="808.7" cy="198.3" r="2.3" fill="#b9bdca" opacity="0.5"/><circle cx="842.6" cy="73.4" r="2.3" fill="#b9bdca" opacity="0.5"/><circle cx="852.1" cy="192.4" r="2.3" fill="#b9bdca" opacity="0.5"/><circle cx="855.4" cy="75.3" r="2.3" fill="#b9bdca" opacity="0.5"/><circle cx="856.3" cy="74.0" r="2.3" fill="#b9bdca" opacity="0.5"/><circle cx="858.4" cy="194.4" r="2.3" fill="#b9bdca" opacity="0.5"/><circle cx="861.7" cy="168.6" r="2.3" fill="#b9bdca" opacity="0.5"/><circle cx="863.7" cy="77.1" r="2.3" fill="#b9bdca" opacity="0.5"/><circle cx="863.7" cy="99.5" r="2.3" fill="#b9bdca" opacity="0.5"/><circle cx="889.9" cy="71.4" r="2.3" fill="#b9bdca" opacity="0.5"/><circle cx="889.9" cy="73.5" r="2.3" fill="#b9bdca" opacity="0.5"/><circle cx="899.2" cy="72.4" r="2.3" fill="#b9bdca" opacity="0.5"/><circle cx="937.4" cy="83.0" r="2.3" fill="#b9bdca" opacity="0.5"/><circle cx="937.9" cy="72.1" r="2.3" fill="#b9bdca" opacity="0.5"/><circle cx="938.4" cy="71.6" r="2.3" fill="#b9bdca" opacity="0.5"/><circle cx="939.6" cy="75.5" r="2.3" fill="#b9bdca" opacity="0.5"/><circle cx="940.3" cy="73.7" r="2.3" fill="#b9bdca" opacity="0.5"/><circle cx="941.9" cy="72.9" r="2.3" fill="#b9bdca" opacity="0.5"/><circle cx="942.6" cy="73.4" r="2.3" fill="#b9bdca" opacity="0.5"/><circle cx="1017.1" cy="85.2" r="2.3" fill="#b9bdca" opacity="0.5"/><circle cx="1017.1" cy="256.6" r="2.3" fill="#b9bdca" opacity="0.5"/><circle cx="1017.2" cy="335.3" r="2.3" fill="#b9bdca" opacity="0.5"/><circle cx="1017.7" cy="86.8" r="2.3" fill="#b9bdca" opacity="0.5"/><circle cx="1018.3" cy="71.5" r="2.3" fill="#b9bdca" opacity="0.5"/><circle cx="1020.3" cy="71.0" r="2.3" fill="#b9bdca" opacity="0.5"/><circle cx="1021.4" cy="71.5" r="2.3" fill="#b9bdca" opacity="0.5"/><circle cx="1021.6" cy="55.0" r="2.3" fill="#b9bdca" opacity="0.5"/><circle cx="1032.0" cy="83.1" r="2.3" fill="#b9bdca" opacity="0.5"/><path d="M216.2 152.3L219.8 155.9L216.2 159.5L212.6 155.9Z" fill="#2b3a7a" opacity="0.8" stroke="none" stroke-width="0"/><path d="M226.3 138.2L229.9 141.8L226.3 145.4L222.7 141.8Z" fill="#2b3a7a" opacity="0.8" stroke="none" stroke-width="0"/><path d="M227.7 128.1L231.3 131.7L227.7 135.3L224.1 131.7Z" fill="#2b3a7a" opacity="0.8" stroke="none" stroke-width="0"/><path d="M227.9 130.5L231.5 134.1L227.9 137.7L224.3 134.1Z" fill="#2b3a7a" opacity="0.8" stroke="none" stroke-width="0"/><path d="M229.0 127.3L232.6 130.9L229.0 134.5L225.4 130.9Z" fill="#2b3a7a" opacity="0.8" stroke="none" stroke-width="0"/><path d="M229.5 125.9L233.1 129.5L229.5 133.1L225.9 129.5Z" fill="#2b3a7a" opacity="0.8" stroke="none" stroke-width="0"/><path d="M229.5 127.3L233.1 130.9L229.5 134.5L225.9 130.9Z" fill="#2b3a7a" opacity="0.8" stroke="none" stroke-width="0"/><path d="M261.0 125.9L264.6 129.5L261.0 133.1L257.4 129.5Z" fill="#2b3a7a" opacity="0.8" stroke="none" stroke-width="0"/><path d="M265.8 125.3L269.4 128.9L265.8 132.5L262.2 128.9Z" fill="#2b3a7a" opacity="0.8" stroke="none" stroke-width="0"/><path d="M270.3 124.8L273.9 128.4L270.3 132.0L266.7 128.4Z" fill="#2b3a7a" opacity="0.8" stroke="none" stroke-width="0"/><path d="M273.4 124.6L277.0 128.2L273.4 131.8L269.8 128.2Z" fill="#2b3a7a" opacity="0.8" stroke="none" stroke-width="0"/><path d="M287.7 124.4L291.3 128.0L287.7 131.6L284.1 128.0Z" fill="#2b3a7a" opacity="0.8" stroke="none" stroke-width="0"/><path d="M302.5 109.2L306.1 112.8L302.5 116.4L298.9 112.8Z" fill="#2b3a7a" opacity="0.8" stroke="none" stroke-width="0"/><path d="M309.6 108.0L313.2 111.6L309.6 115.2L306.0 111.6Z" fill="#2b3a7a" opacity="0.8" stroke="none" stroke-width="0"/><path d="M311.7 101.9L315.3 105.5L311.7 109.1L308.1 105.5Z" fill="#2b3a7a" opacity="0.8" stroke="none" stroke-width="0"/><path d="M312.0 104.9L315.6 108.5L312.0 112.1L308.4 108.5Z" fill="#2b3a7a" opacity="0.8" stroke="none" stroke-width="0"/><path d="M312.9 101.5L316.5 105.1L312.9 108.7L309.3 105.1Z" fill="#2b3a7a" opacity="0.8" stroke="none" stroke-width="0"/><path d="M313.8 100.2L317.4 103.8L313.8 107.4L310.2 103.8Z" fill="#2b3a7a" opacity="0.8" stroke="none" stroke-width="0"/><path d="M324.1 99.9L327.7 103.5L324.1 107.1L320.5 103.5Z" fill="#2b3a7a" opacity="0.8" stroke="none" stroke-width="0"/><path d="M343.5 86.0L347.1 89.6L343.5 93.2L339.9 89.6Z" fill="#2b3a7a" opacity="0.8" stroke="none" stroke-width="0"/><path d="M346.9 85.7L350.5 89.3L346.9 92.9L343.3 89.3Z" fill="#2b3a7a" opacity="0.8" stroke="none" stroke-width="0"/><path d="M347.5 84.0L351.1 87.6L347.5 91.2L343.9 87.6Z" fill="#2b3a7a" opacity="0.8" stroke="none" stroke-width="0"/><path d="M351.0 81.8L354.6 85.4L351.0 89.0L347.4 85.4Z" fill="#2b3a7a" opacity="0.8" stroke="none" stroke-width="0"/><path d="M361.8 80.8L365.4 84.4L361.8 88.0L358.2 84.4Z" fill="#2b3a7a" opacity="0.8" stroke="none" stroke-width="0"/><path d="M444.3 80.8L447.9 84.4L444.3 88.0L440.7 84.4Z" fill="#2b3a7a" opacity="0.8" stroke="none" stroke-width="0"/><path d="M649.5 72.2L653.1 75.8L649.5 79.4L645.9 75.8Z" fill="#2b3a7a" opacity="0.8" stroke="none" stroke-width="0"/><path d="M651.3 72.1L654.9 75.7L651.3 79.3L647.7 75.7Z" fill="#2b3a7a" opacity="0.8" stroke="none" stroke-width="0"/><path d="M653.5 71.7L657.1 75.3L653.5 78.9L649.9 75.3Z" fill="#2b3a7a" opacity="0.8" stroke="none" stroke-width="0"/><path d="M653.9 71.1L657.5 74.7L653.9 78.3L650.3 74.7Z" fill="#2b3a7a" opacity="0.8" stroke="none" stroke-width="0"/><path d="M655.7 71.1L659.3 74.7L655.7 78.3L652.1 74.7Z" fill="#2b3a7a" opacity="0.8" stroke="none" stroke-width="0"/><path d="M667.3 70.8L670.9 74.4L667.3 78.0L663.7 74.4Z" fill="#2b3a7a" opacity="0.8" stroke="none" stroke-width="0"/><path d="M683.1 70.3L686.7 73.9L683.1 77.5L679.5 73.9Z" fill="#2b3a7a" opacity="0.8" stroke="none" stroke-width="0"/><path d="M688.4 70.0L692.0 73.6L688.4 77.2L684.8 73.6Z" fill="#2b3a7a" opacity="0.8" stroke="none" stroke-width="0"/><path d="M771.6 69.8L775.2 73.4L771.6 77.0L768.0 73.4Z" fill="#2b3a7a" opacity="0.8" stroke="none" stroke-width="0"/><path d="M842.6 69.8L846.2 73.4L842.6 77.0L839.0 73.4Z" fill="#2b3a7a" opacity="0.8" stroke="none" stroke-width="0"/><path d="M889.9 67.8L893.5 71.4L889.9 75.0L886.3 71.4Z" fill="#2b3a7a" opacity="0.8" stroke="none" stroke-width="0"/><path d="M60.0 335.3L62.5 335.3L62.5 335.1L66.1 335.1L66.1 320.7L73.2 320.7L73.2 319.9L75.8 319.9L75.8 315.3L76.5 315.3L76.5 314.9L77.7 314.9L77.7 314.9L119.8 314.9L119.8 238.7L120.5 238.7L120.5 229.0L121.2 229.0L121.2 222.3L122.0 222.3L122.0 220.6L122.2 220.6L122.2 220.5L122.6 220.5L122.6 214.2L124.2 214.2L124.2 214.1L124.7 214.1L124.7 213.7L125.0 213.7L125.0 213.5L125.5 213.5L125.5 212.7L127.6 212.7L127.6 212.1L128.1 212.1L128.1 212.0L133.7 212.0L133.7 206.7L140.0 206.7L140.0 204.9L142.4 204.9L142.4 204.6L143.9 204.6L143.9 201.9L146.8 201.9L146.8 201.8L148.2 201.8L148.2 201.0L149.0 201.0L149.0 200.0L153.1 200.0L153.1 200.0L154.7 200.0L154.7 199.7L168.5 199.7L168.5 195.5L178.8 195.5L178.8 187.4L179.1 187.4L179.1 186.2L179.8 186.2L179.8 184.5L197.8 184.5L197.8 183.9L206.7 183.9L206.7 169.3L209.7 169.3L209.7 168.8L209.9 168.8L209.9 167.7L211.6 167.7L211.6 165.0L212.3 165.0L212.3 163.7L212.4 163.7L212.4 163.6L216.2 163.6L216.2 155.9L220.9 155.9L220.9 155.8L222.6 155.8L222.6 141.9L226.3 141.9L226.3 141.8L227.7 141.8L227.7 131.7L229.0 131.7L229.0 130.9L229.5 130.9L229.5 129.5L261.0 129.5L261.0 129.5L265.8 129.5L265.8 128.9L270.3 128.9L270.3 128.4L273.4 128.4L273.4 128.2L287.7 128.2L287.7 128.0L302.5 128.0L302.5 112.8L305.9 112.8L305.9 110.2L311.7 110.2L311.7 105.5L312.9 105.5L312.9 105.1L313.8 105.1L313.8 103.8L324.1 103.8L324.1 103.5L343.5 103.5L343.5 89.6L346.9 89.6L346.9 89.3L347.5 89.3L347.5 87.6L351.0 87.6L351.0 85.4L361.8 85.4L361.8 84.4L444.3 84.4L444.3 84.4L649.5 84.4L649.5 75.8L651.3 75.8L651.3 75.7L653.5 75.7L653.5 75.3L653.9 75.3L653.9 74.7L655.7 74.7L655.7 74.7L667.3 74.7L667.3 74.4L683.1 74.4L683.1 73.9L688.4 73.9L688.4 73.6L696.9 73.6L696.9 69.8L700.6 69.8L700.6 69.1L1021.6 69.1L1021.6 55.0L1032.0 55.0" fill="none" stroke="#6675b0" stroke-width="1.6" stroke-dasharray="5 3" opacity="0.75"/><path d="M216.2 155.9L226.3 155.9L226.3 141.8L227.7 141.8L227.7 131.7L229.0 131.7L229.0 130.9L229.5 130.9L229.5 129.5L261.0 129.5L261.0 129.5L265.8 129.5L265.8 128.9L270.3 128.9L270.3 128.4L273.4 128.4L273.4 128.2L287.7 128.2L287.7 128.0L302.5 128.0L302.5 112.8L309.6 112.8L309.6 111.6L311.7 111.6L311.7 105.5L312.9 105.5L312.9 105.1L313.8 105.1L313.8 103.8L324.1 103.8L324.1 103.5L343.5 103.5L343.5 89.6L346.9 89.6L346.9 89.3L347.5 89.3L347.5 87.6L351.0 87.6L351.0 85.4L361.8 85.4L361.8 84.4L444.3 84.4L444.3 84.4L649.5 84.4L649.5 75.8L651.3 75.8L651.3 75.7L653.5 75.7L653.5 75.3L653.9 75.3L653.9 74.7L655.7 74.7L655.7 74.7L667.3 74.7L667.3 74.4L683.1 74.4L683.1 73.9L688.4 73.9L688.4 73.6L697.0 73.6L697.0 73.5L771.6 73.5L771.6 73.4L842.6 73.4L842.6 73.4L889.9 73.4L889.9 71.4L1032.0 71.4" fill="none" stroke="#2b3a7a" stroke-width="2.6"/><path d="M583.0 246.9L589.5 253.4L583.0 259.9L576.5 253.4Z" fill="#c5961a" opacity="1.0" stroke="#ffffff" stroke-width="1.4"/><path d="M685.1 206.5L691.6 213.0L685.1 219.5L678.6 213.0Z" fill="#c5961a" opacity="1.0" stroke="#ffffff" stroke-width="1.4"/><path d="M697.0 67.0L703.5 73.5L697.0 80.0L690.5 73.5Z" fill="#c5961a" opacity="1.0" stroke="#ffffff" stroke-width="1.4"/><path d="M784.5 240.8L791.0 247.3L784.5 253.8L778.0 247.3Z" fill="#c5961a" opacity="1.0" stroke="#ffffff" stroke-width="1.4"/><path d="M785.1 238.0L791.6 244.5L785.1 251.0L778.6 244.5Z" fill="#c5961a" opacity="1.0" stroke="#ffffff" stroke-width="1.4"/><text x="1042" y="53.0" font-size="11.5" fill="#6675b0">– – raw best 535.9</text><text x="1042" y="67.0" font-size="10" fill="#8a8fa3">unverified (pending)</text><path d="M889.9 64.9L896.4 71.4L889.9 77.9L883.4 71.4Z" fill="#2b3a7a" opacity="1.0" stroke="#ffffff" stroke-width="1.4"/><text x="1042" y="99.4" font-size="12.5" fill="#2b3a7a" font-weight="bold">◆ verified 510.1</text><text x="1042" y="115.4" font-size="10.5" fill="#3a3f55">top verified</text><text x="60" y="24" font-size="13" font-weight="bold" fill="#3a3f55" letter-spacing="1.2">SCORE EVOLUTION — gemma-challenge (tok/s)</text><circle cx="452" cy="20" r="3" fill="#b9bdca"/><text x="460" y="24" font-size="10.5" fill="#8a8fa3">all results</text><path d="M544.0 16.4L547.6 20.0L544.0 23.6L540.4 20.0Z" fill="#2b3a7a" opacity="1.0" stroke="none" stroke-width="0"/><text x="552" y="24" font-size="10.5" fill="#8a8fa3">verified</text><path d="M620.0 15.5L624.5 20.0L620.0 24.5L615.5 20.0Z" fill="#c5961a" opacity="1.0" stroke="#fff" stroke-width="1"/><text x="629" y="24" font-size="10.5" fill="#8a8fa3">mikasa-inbound (us)</text></svg>