<svg viewBox="0 0 1200 440" xmlns="http://www.w3.org/2000/svg" font-family="ui-sans-serif,system-ui,-apple-system,sans-serif"><rect x="0" y="0" width="1200" height="440" fill="#ffffff"/><rect x="60" y="46" width="972" height="350" fill="#f3f4fb"/><line x1="60" y1="396.0" x2="1032" y2="396.0" stroke="#e3e5ef" stroke-width="1"/><text x="52" y="400.0" text-anchor="end" font-size="11" fill="#8a8fa3">0</text><line x1="60" y1="332.4" x2="1032" y2="332.4" stroke="#e3e5ef" stroke-width="1"/><text x="52" y="336.4" text-anchor="end" font-size="11" fill="#8a8fa3">100</text><line x1="60" y1="268.7" x2="1032" y2="268.7" stroke="#e3e5ef" stroke-width="1"/><text x="52" y="272.7" text-anchor="end" font-size="11" fill="#8a8fa3">200</text><line x1="60" y1="205.1" x2="1032" y2="205.1" stroke="#e3e5ef" stroke-width="1"/><text x="52" y="209.1" text-anchor="end" font-size="11" fill="#8a8fa3">300</text><line x1="60" y1="141.5" x2="1032" y2="141.5" stroke="#e3e5ef" stroke-width="1"/><text x="52" y="145.5" text-anchor="end" font-size="11" fill="#8a8fa3">400</text><line x1="60" y1="77.8" x2="1032" y2="77.8" stroke="#e3e5ef" stroke-width="1"/><text x="52" y="81.8" text-anchor="end" font-size="11" fill="#8a8fa3">500</text><line x1="107.0" y1="46" x2="107.0" y2="396" stroke="#e3e5ef" stroke-width="1"/><text x="107.0" y="414.0" text-anchor="middle" font-size="11" fill="#8a8fa3">Jun 10</text><line x1="174.2" y1="46" x2="174.2" y2="396" stroke="#e3e5ef" stroke-width="1"/><text x="174.2" y="414.0" text-anchor="middle" font-size="11" fill="#8a8fa3">Jun 12</text><line x1="241.3" y1="46" x2="241.3" y2="396" stroke="#e3e5ef" stroke-width="1"/><text x="241.3" y="414.0" text-anchor="middle" font-size="11" fill="#8a8fa3">Jun 14</text><line x1="308.4" y1="46" x2="308.4" y2="396" stroke="#e3e5ef" stroke-width="1"/><text x="308.4" y="414.0" text-anchor="middle" font-size="11" fill="#8a8fa3">Jun 16</text><line x1="375.5" y1="46" x2="375.5" y2="396" stroke="#e3e5ef" stroke-width="1"/><text x="375.5" y="414.0" text-anchor="middle" font-size="11" fill="#8a8fa3">Jun 18</text><line x1="442.6" y1="46" x2="442.6" y2="396" stroke="#e3e5ef" stroke-width="1"/><text x="442.6" y="414.0" text-anchor="middle" font-size="11" fill="#8a8fa3">Jun 20</text><line x1="509.7" y1="46" x2="509.7" y2="396" stroke="#e3e5ef" stroke-width="1"/><text x="509.7" y="414.0" text-anchor="middle" font-size="11" fill="#8a8fa3">Jun 22</text><line x1="576.8" y1="46" x2="576.8" y2="396" stroke="#e3e5ef" stroke-width="1"/><text x="576.8" y="414.0" text-anchor="middle" font-size="11" fill="#8a8fa3">Jun 24</text><line x1="643.9" y1="46" x2="643.9" y2="396" stroke="#e3e5ef" stroke-width="1"/><text x="643.9" y="414.0" text-anchor="middle" font-size="11" fill="#8a8fa3">Jun 26</text><line x1="711.1" y1="46" x2="711.1" y2="396" stroke="#e3e5ef" stroke-width="1"/><text x="711.1" y="414.0" text-anchor="middle" font-size="11" fill="#8a8fa3">Jun 28</text><line x1="778.2" y1="46" x2="778.2" y2="396" stroke="#e3e5ef" stroke-width="1"/><text x="778.2" y="414.0" text-anchor="middle" font-size="11" fill="#8a8fa3">Jun 30</text><line x1="845.3" y1="46" x2="845.3" y2="396" stroke="#e3e5ef" stroke-width="1"/><text x="845.3" y="414.0" text-anchor="middle" font-size="11" fill="#8a8fa3">Jul 2</text><line x1="912.4" y1="46" x2="912.4" y2="396" stroke="#e3e5ef" stroke-width="1"/><text x="912.4" y="414.0" text-anchor="middle" font-size="11" fill="#8a8fa3">Jul 4</text><line x1="979.5" y1="46" x2="979.5" y2="396" stroke="#e3e5ef" stroke-width="1"/><text x="979.5" y="414.0" text-anchor="middle" font-size="11" fill="#8a8fa3">Jul 6</text><circle cx="60.0" cy="335.3" r="2.3" fill="#b9bdca" opacity="0.5"/><circle cx="61.6" cy="335.1" r="2.3" fill="#b9bdca" opacity="0.5"/><circle cx="63.2" cy="368.0" r="2.3" fill="#b9bdca" opacity="0.5"/><circle cx="63.9" cy="320.7" r="2.3" fill="#b9bdca" opacity="0.5"/><circle cx="68.3" cy="319.9" r="2.3" fill="#b9bdca" opacity="0.5"/><circle cx="68.6" cy="320.6" r="2.3" fill="#b9bdca" opacity="0.5"/><circle cx="70.0" cy="315.3" r="2.3" fill="#b9bdca" opacity="0.5"/><circle cx="70.3" cy="319.7" r="2.3" fill="#b9bdca" opacity="0.5"/><circle cx="70.5" cy="314.9" r="2.3" fill="#b9bdca" opacity="0.5"/><circle cx="71.0" cy="315.5" r="2.3" fill="#b9bdca" opacity="0.5"/><circle cx="71.2" cy="314.9" r="2.3" fill="#b9bdca" opacity="0.5"/><circle cx="71.6" cy="315.4" r="2.3" fill="#b9bdca" opacity="0.5"/><circle cx="72.5" cy="315.0" r="2.3" fill="#b9bdca" opacity="0.5"/><circle cx="97.9" cy="238.7" r="2.3" fill="#b9bdca" opacity="0.5"/><circle cx="98.1" cy="315.0" r="2.3" fill="#b9bdca" opacity="0.5"/><circle cx="98.3" cy="229.0" r="2.3" fill="#b9bdca" opacity="0.5"/><circle cx="98.8" cy="222.3" r="2.3" fill="#b9bdca" opacity="0.5"/><circle cx="99.1" cy="228.0" r="2.3" fill="#b9bdca" opacity="0.5"/><circle cx="99.2" cy="223.3" r="2.3" fill="#b9bdca" opacity="0.5"/><circle cx="99.3" cy="220.6" r="2.3" fill="#b9bdca" opacity="0.5"/><circle cx="99.4" cy="220.5" r="2.3" fill="#b9bdca" opacity="0.5"/><circle cx="99.5" cy="223.2" r="2.3" fill="#b9bdca" opacity="0.5"/><circle cx="99.7" cy="214.2" r="2.3" fill="#b9bdca" opacity="0.5"/><circle cx="99.7" cy="222.1" r="2.3" fill="#b9bdca" opacity="0.5"/><circle cx="99.9" cy="220.7" r="2.3" fill="#b9bdca" opacity="0.5"/><circle cx="100.2" cy="218.5" r="2.3" fill="#b9bdca" opacity="0.5"/><circle cx="100.3" cy="215.2" r="2.3" fill="#b9bdca" opacity="0.5"/><circle cx="100.5" cy="214.3" r="2.3" fill="#b9bdca" opacity="0.5"/><circle cx="100.5" cy="219.2" r="2.3" fill="#b9bdca" opacity="0.5"/><circle cx="100.7" cy="214.1" r="2.3" fill="#b9bdca" opacity="0.5"/><circle cx="100.8" cy="215.2" r="2.3" fill="#b9bdca" opacity="0.5"/><circle cx="101.0" cy="213.7" r="2.3" fill="#b9bdca" opacity="0.5"/><circle cx="101.2" cy="213.5" r="2.3" fill="#b9bdca" opacity="0.5"/><circle cx="101.4" cy="214.8" r="2.3" fill="#b9bdca" opacity="0.5"/><circle cx="101.4" cy="217.7" r="2.3" fill="#b9bdca" opacity="0.5"/><circle cx="101.5" cy="212.7" r="2.3" fill="#b9bdca" opacity="0.5"/><circle cx="101.9" cy="213.3" r="2.3" fill="#b9bdca" opacity="0.5"/><circle cx="102.4" cy="212.7" r="2.3" fill="#b9bdca" opacity="0.5"/><circle cx="102.4" cy="213.6" r="2.3" fill="#b9bdca" opacity="0.5"/><circle cx="102.5" cy="213.0" r="2.3" fill="#b9bdca" opacity="0.5"/><circle cx="102.8" cy="212.1" r="2.3" fill="#b9bdca" opacity="0.5"/><circle cx="102.9" cy="213.3" r="2.3" fill="#b9bdca" opacity="0.5"/><circle cx="103.2" cy="212.0" r="2.3" fill="#b9bdca" opacity="0.5"/><circle cx="103.6" cy="212.1" r="2.3" fill="#b9bdca" opacity="0.5"/><circle cx="103.6" cy="212.8" r="2.3" fill="#b9bdca" opacity="0.5"/><circle cx="106.7" cy="206.7" r="2.3" fill="#b9bdca" opacity="0.5"/><circle cx="107.1" cy="206.8" r="2.3" fill="#b9bdca" opacity="0.5"/><circle cx="107.1" cy="212.5" r="2.3" fill="#b9bdca" opacity="0.5"/><circle cx="107.4" cy="207.2" r="2.3" fill="#b9bdca" opacity="0.5"/><circle cx="108.4" cy="207.0" r="2.3" fill="#b9bdca" opacity="0.5"/><circle cx="110.7" cy="204.9" r="2.3" fill="#b9bdca" opacity="0.5"/><circle cx="112.2" cy="204.6" r="2.3" fill="#b9bdca" opacity="0.5"/><circle cx="112.3" cy="212.3" r="2.3" fill="#b9bdca" opacity="0.5"/><circle cx="112.6" cy="204.6" r="2.3" fill="#b9bdca" opacity="0.5"/><circle cx="112.6" cy="204.6" r="2.3" fill="#b9bdca" opacity="0.5"/><circle cx="112.6" cy="204.9" r="2.3" fill="#b9bdca" opacity="0.5"/><circle cx="112.6" cy="204.9" r="2.3" fill="#b9bdca" opacity="0.5"/><circle cx="113.2" cy="201.9" r="2.3" fill="#b9bdca" opacity="0.5"/><circle cx="114.1" cy="206.5" r="2.3" fill="#b9bdca" opacity="0.5"/><circle cx="114.5" cy="205.8" r="2.3" fill="#b9bdca" opacity="0.5"/><circle cx="114.5" cy="335.1" r="2.3" fill="#b9bdca" opacity="0.5"/><circle cx="115.0" cy="201.8" r="2.3" fill="#b9bdca" opacity="0.5"/><circle cx="115.0" cy="202.2" r="2.3" fill="#b9bdca" opacity="0.5"/><circle cx="115.9" cy="201.0" r="2.3" fill="#b9bdca" opacity="0.5"/><circle cx="116.2" cy="203.1" r="2.3" fill="#b9bdca" opacity="0.5"/><circle cx="116.4" cy="200.0" r="2.3" fill="#b9bdca" opacity="0.5"/><circle cx="116.4" cy="204.6" r="2.3" fill="#b9bdca" opacity="0.5"/><circle cx="117.0" cy="202.3" r="2.3" fill="#b9bdca" opacity="0.5"/><circle cx="118.1" cy="200.4" r="2.3" fill="#b9bdca" opacity="0.5"/><circle cx="118.5" cy="200.7" r="2.3" fill="#b9bdca" opacity="0.5"/><circle cx="119.0" cy="200.0" r="2.3" fill="#b9bdca" opacity="0.5"/><circle cx="120.0" cy="199.7" r="2.3" fill="#b9bdca" opacity="0.5"/><circle cx="126.4" cy="200.6" r="2.3" fill="#b9bdca" opacity="0.5"/><circle cx="127.0" cy="201.8" r="2.3" fill="#b9bdca" opacity="0.5"/><circle cx="127.9" cy="208.4" r="2.3" fill="#b9bdca" opacity="0.5"/><circle cx="127.9" cy="200.8" r="2.3" fill="#b9bdca" opacity="0.5"/><circle cx="128.5" cy="200.7" r="2.3" fill="#b9bdca" opacity="0.5"/><circle cx="128.5" cy="201.9" r="2.3" fill="#b9bdca" opacity="0.5"/><circle cx="128.8" cy="195.5" r="2.3" fill="#b9bdca" opacity="0.5"/><circle cx="129.3" cy="196.9" r="2.3" fill="#b9bdca" opacity="0.5"/><circle cx="129.7" cy="197.9" r="2.3" fill="#b9bdca" opacity="0.5"/><circle cx="130.2" cy="196.1" r="2.3" fill="#b9bdca" opacity="0.5"/><circle cx="132.2" cy="197.3" r="2.3" fill="#b9bdca" opacity="0.5"/><circle cx="132.7" cy="195.9" r="2.3" fill="#b9bdca" opacity="0.5"/><circle cx="132.9" cy="201.0" r="2.3" fill="#b9bdca" opacity="0.5"/><circle cx="133.1" cy="197.5" r="2.3" fill="#b9bdca" opacity="0.5"/><circle cx="133.5" cy="196.9" r="2.3" fill="#b9bdca" opacity="0.5"/><circle cx="133.5" cy="197.1" r="2.3" fill="#b9bdca" opacity="0.5"/><circle cx="133.6" cy="197.0" r="2.3" fill="#b9bdca" opacity="0.5"/><circle cx="134.0" cy="196.0" r="2.3" fill="#b9bdca" opacity="0.5"/><circle cx="134.0" cy="196.0" r="2.3" fill="#b9bdca" opacity="0.5"/><circle cx="134.1" cy="197.9" r="2.3" fill="#b9bdca" opacity="0.5"/><circle cx="134.4" cy="197.8" r="2.3" fill="#b9bdca" opacity="0.5"/><circle cx="134.7" cy="196.2" r="2.3" fill="#b9bdca" opacity="0.5"/><circle cx="134.7" cy="197.5" r="2.3" fill="#b9bdca" opacity="0.5"/><circle cx="134.8" cy="196.9" r="2.3" fill="#b9bdca" opacity="0.5"/><circle cx="134.8" cy="195.5" r="2.3" fill="#b9bdca" opacity="0.5"/><circle cx="135.2" cy="198.1" r="2.3" fill="#b9bdca" opacity="0.5"/><circle cx="135.3" cy="187.4" r="2.3" fill="#b9bdca" opacity="0.5"/><circle cx="135.5" cy="186.2" r="2.3" fill="#b9bdca" opacity="0.5"/><circle cx="135.5" cy="196.3" r="2.3" fill="#b9bdca" opacity="0.5"/><circle cx="135.5" cy="197.2" r="2.3" fill="#b9bdca" opacity="0.5"/><circle cx="135.5" cy="197.8" r="2.3" fill="#b9bdca" opacity="0.5"/><circle cx="135.5" cy="368.0" r="2.3" fill="#b9bdca" opacity="0.5"/><circle cx="135.9" cy="184.5" r="2.3" fill="#b9bdca" opacity="0.5"/><circle cx="137.6" cy="184.6" r="2.3" fill="#b9bdca" opacity="0.5"/><circle cx="138.4" cy="185.6" r="2.3" fill="#b9bdca" opacity="0.5"/><circle cx="140.9" cy="188.7" r="2.3" fill="#b9bdca" opacity="0.5"/><circle cx="144.3" cy="185.4" r="2.3" fill="#b9bdca" opacity="0.5"/><circle cx="145.1" cy="185.2" r="2.3" fill="#b9bdca" opacity="0.5"/><circle cx="145.3" cy="186.6" r="2.3" fill="#b9bdca" opacity="0.5"/><circle cx="145.4" cy="185.3" r="2.3" fill="#b9bdca" opacity="0.5"/><circle cx="146.0" cy="185.3" r="2.3" fill="#b9bdca" opacity="0.5"/><circle cx="146.3" cy="185.0" r="2.3" fill="#b9bdca" opacity="0.5"/><circle cx="146.8" cy="184.9" r="2.3" fill="#b9bdca" opacity="0.5"/><circle cx="147.2" cy="185.1" r="2.3" fill="#b9bdca" opacity="0.5"/><circle cx="147.2" cy="185.2" r="2.3" fill="#b9bdca" opacity="0.5"/><circle cx="147.2" cy="186.4" r="2.3" fill="#b9bdca" opacity="0.5"/><circle cx="147.3" cy="183.9" r="2.3" fill="#b9bdca" opacity="0.5"/><circle cx="150.4" cy="184.4" r="2.3" fill="#b9bdca" opacity="0.5"/><circle cx="151.0" cy="184.2" r="2.3" fill="#b9bdca" opacity="0.5"/><circle cx="153.0" cy="169.3" r="2.3" fill="#b9bdca" opacity="0.5"/><circle cx="154.8" cy="168.8" r="2.3" fill="#b9bdca" opacity="0.5"/><circle cx="155.0" cy="167.7" r="2.3" fill="#b9bdca" opacity="0.5"/><circle cx="155.8" cy="201.4" r="2.3" fill="#b9bdca" opacity="0.5"/><circle cx="156.1" cy="165.0" r="2.3" fill="#b9bdca" opacity="0.5"/><circle cx="156.2" cy="198.2" r="2.3" fill="#b9bdca" opacity="0.5"/><circle cx="156.5" cy="163.7" r="2.3" fill="#b9bdca" opacity="0.5"/><circle cx="156.6" cy="163.6" r="2.3" fill="#b9bdca" opacity="0.5"/><circle cx="156.9" cy="165.9" r="2.3" fill="#b9bdca" opacity="0.5"/><circle cx="158.6" cy="165.1" r="2.3" fill="#b9bdca" opacity="0.5"/><circle cx="159.0" cy="155.9" r="2.3" fill="#b9bdca" opacity="0.5"/><circle cx="160.6" cy="196.5" r="2.3" fill="#b9bdca" opacity="0.5"/><circle cx="161.3" cy="157.4" r="2.3" fill="#b9bdca" opacity="0.5"/><circle cx="161.9" cy="155.8" r="2.3" fill="#b9bdca" opacity="0.5"/><circle cx="163.0" cy="141.9" r="2.3" fill="#b9bdca" opacity="0.5"/><circle cx="165.3" cy="156.1" r="2.3" fill="#b9bdca" opacity="0.5"/><circle cx="165.3" cy="156.4" r="2.3" fill="#b9bdca" opacity="0.5"/><circle cx="165.4" cy="141.8" r="2.3" fill="#b9bdca" opacity="0.5"/><circle cx="165.5" cy="196.0" r="2.3" fill="#b9bdca" opacity="0.5"/><circle cx="166.3" cy="131.7" r="2.3" fill="#b9bdca" opacity="0.5"/><circle cx="166.4" cy="134.1" r="2.3" fill="#b9bdca" opacity="0.5"/><circle cx="166.6" cy="141.1" r="2.3" fill="#b9bdca" opacity="0.5"/><circle cx="167.0" cy="134.0" r="2.3" fill="#b9bdca" opacity="0.5"/><circle cx="167.1" cy="130.9" r="2.3" fill="#b9bdca" opacity="0.5"/><circle cx="167.1" cy="154.2" r="2.3" fill="#b9bdca" opacity="0.5"/><circle cx="167.2" cy="133.6" r="2.3" fill="#b9bdca" opacity="0.5"/><circle cx="167.4" cy="129.5" r="2.3" fill="#b9bdca" opacity="0.5"/><circle cx="167.4" cy="130.9" r="2.3" fill="#b9bdca" opacity="0.5"/><circle cx="167.4" cy="133.4" r="2.3" fill="#b9bdca" opacity="0.5"/><circle cx="167.6" cy="131.2" r="2.3" fill="#b9bdca" opacity="0.5"/><circle cx="169.0" cy="189.8" r="2.3" fill="#b9bdca" opacity="0.5"/><circle cx="169.0" cy="133.2" r="2.3" fill="#b9bdca" opacity="0.5"/><circle cx="169.2" cy="133.5" r="2.3" fill="#b9bdca" opacity="0.5"/><circle cx="169.8" cy="130.1" r="2.3" fill="#b9bdca" opacity="0.5"/><circle cx="171.1" cy="130.3" r="2.3" fill="#b9bdca" opacity="0.5"/><circle cx="171.8" cy="303.1" r="2.3" fill="#b9bdca" opacity="0.5"/><circle cx="172.9" cy="133.2" r="2.3" fill="#b9bdca" opacity="0.5"/><circle cx="174.4" cy="144.2" r="2.3" fill="#b9bdca" opacity="0.5"/><circle cx="174.7" cy="135.3" r="2.3" fill="#b9bdca" opacity="0.5"/><circle cx="175.7" cy="133.4" r="2.3" fill="#b9bdca" opacity="0.5"/><circle cx="175.7" cy="159.9" r="2.3" fill="#b9bdca" opacity="0.5"/><circle cx="176.0" cy="130.8" r="2.3" fill="#b9bdca" opacity="0.5"/><circle cx="176.3" cy="133.2" r="2.3" fill="#b9bdca" opacity="0.5"/><circle cx="179.7" cy="130.9" r="2.3" fill="#b9bdca" opacity="0.5"/><circle cx="180.1" cy="130.9" r="2.3" fill="#b9bdca" opacity="0.5"/><circle cx="180.1" cy="133.8" r="2.3" fill="#b9bdca" opacity="0.5"/><circle cx="180.7" cy="130.4" r="2.3" fill="#b9bdca" opacity="0.5"/><circle cx="181.1" cy="153.7" r="2.3" fill="#b9bdca" opacity="0.5"/><circle cx="181.7" cy="133.3" r="2.3" fill="#b9bdca" opacity="0.5"/><circle cx="182.7" cy="156.5" r="2.3" fill="#b9bdca" opacity="0.5"/><circle cx="182.9" cy="132.3" r="2.3" fill="#b9bdca" opacity="0.5"/><circle cx="184.2" cy="147.2" r="2.3" fill="#b9bdca" opacity="0.5"/><circle cx="184.4" cy="133.6" r="2.3" fill="#b9bdca" opacity="0.5"/><circle cx="184.9" cy="129.5" r="2.3" fill="#b9bdca" opacity="0.5"/><circle cx="184.9" cy="133.3" r="2.3" fill="#b9bdca" opacity="0.5"/><circle cx="186.4" cy="133.3" r="2.3" fill="#b9bdca" opacity="0.5"/><circle cx="187.4" cy="129.5" r="2.3" fill="#b9bdca" opacity="0.5"/><circle cx="189.1" cy="130.6" r="2.3" fill="#b9bdca" opacity="0.5"/><circle cx="190.4" cy="128.9" r="2.3" fill="#b9bdca" opacity="0.5"/><circle cx="190.6" cy="132.7" r="2.3" fill="#b9bdca" opacity="0.5"/><circle cx="190.6" cy="133.1" r="2.3" fill="#b9bdca" opacity="0.5"/><circle cx="192.6" cy="129.8" r="2.3" fill="#b9bdca" opacity="0.5"/><circle cx="193.1" cy="333.8" r="2.3" fill="#b9bdca" opacity="0.5"/><circle cx="193.2" cy="128.4" r="2.3" fill="#b9bdca" opacity="0.5"/><circle cx="194.1" cy="129.8" r="2.3" fill="#b9bdca" opacity="0.5"/><circle cx="194.5" cy="128.9" r="2.3" fill="#b9bdca" opacity="0.5"/><circle cx="194.6" cy="128.9" r="2.3" fill="#b9bdca" opacity="0.5"/><circle cx="195.2" cy="128.2" r="2.3" fill="#b9bdca" opacity="0.5"/><circle cx="195.7" cy="129.7" r="2.3" fill="#b9bdca" opacity="0.5"/><circle cx="195.9" cy="142.3" r="2.3" fill="#b9bdca" opacity="0.5"/><circle cx="197.7" cy="128.8" r="2.3" fill="#b9bdca" opacity="0.5"/><circle cx="198.8" cy="161.1" r="2.3" fill="#b9bdca" opacity="0.5"/><circle cx="200.8" cy="164.4" r="2.3" fill="#b9bdca" opacity="0.5"/><circle cx="201.0" cy="248.3" r="2.3" fill="#b9bdca" opacity="0.5"/><circle cx="204.0" cy="135.4" r="2.3" fill="#b9bdca" opacity="0.5"/><circle cx="204.2" cy="128.0" r="2.3" fill="#b9bdca" opacity="0.5"/><circle cx="205.2" cy="229.0" r="2.3" fill="#b9bdca" opacity="0.5"/><circle cx="207.2" cy="128.1" r="2.3" fill="#b9bdca" opacity="0.5"/><circle cx="207.7" cy="128.6" r="2.3" fill="#b9bdca" opacity="0.5"/><circle cx="209.6" cy="128.8" r="2.3" fill="#b9bdca" opacity="0.5"/><circle cx="209.6" cy="129.6" r="2.3" fill="#b9bdca" opacity="0.5"/><circle cx="209.6" cy="130.9" r="2.3" fill="#b9bdca" opacity="0.5"/><circle cx="213.7" cy="112.8" r="2.3" fill="#b9bdca" opacity="0.5"/><circle cx="215.8" cy="110.2" r="2.3" fill="#b9bdca" opacity="0.5"/><circle cx="215.8" cy="111.6" r="2.3" fill="#b9bdca" opacity="0.5"/><circle cx="217.2" cy="111.0" r="2.3" fill="#b9bdca" opacity="0.5"/><circle cx="217.8" cy="335.1" r="2.3" fill="#b9bdca" opacity="0.5"/><circle cx="218.1" cy="111.6" r="2.3" fill="#b9bdca" opacity="0.5"/><circle cx="219.5" cy="105.5" r="2.3" fill="#b9bdca" opacity="0.5"/><circle cx="219.7" cy="108.5" r="2.3" fill="#b9bdca" opacity="0.5"/><circle cx="220.2" cy="105.1" r="2.3" fill="#b9bdca" opacity="0.5"/><circle cx="220.8" cy="103.8" r="2.3" fill="#b9bdca" opacity="0.5"/><circle cx="221.5" cy="125.8" r="2.3" fill="#b9bdca" opacity="0.5"/><circle cx="227.3" cy="103.5" r="2.3" fill="#b9bdca" opacity="0.5"/><circle cx="228.8" cy="127.8" r="2.3" fill="#b9bdca" opacity="0.5"/><circle cx="229.5" cy="334.3" r="2.3" fill="#b9bdca" opacity="0.5"/><circle cx="230.4" cy="128.6" r="2.3" fill="#b9bdca" opacity="0.5"/><circle cx="230.8" cy="128.6" r="2.3" fill="#b9bdca" opacity="0.5"/><circle cx="230.9" cy="128.6" r="2.3" fill="#b9bdca" opacity="0.5"/><circle cx="231.4" cy="256.6" r="2.3" fill="#b9bdca" opacity="0.5"/><circle cx="232.1" cy="254.6" r="2.3" fill="#b9bdca" opacity="0.5"/><circle cx="233.2" cy="128.6" r="2.3" fill="#b9bdca" opacity="0.5"/><circle cx="235.8" cy="250.1" r="2.3" fill="#b9bdca" opacity="0.5"/><circle cx="236.1" cy="161.4" r="2.3" fill="#b9bdca" opacity="0.5"/><circle cx="236.3" cy="206.6" r="2.3" fill="#b9bdca" opacity="0.5"/><circle cx="238.8" cy="113.5" r="2.3" fill="#b9bdca" opacity="0.5"/><circle cx="239.6" cy="89.6" r="2.3" fill="#b9bdca" opacity="0.5"/><circle cx="240.2" cy="90.2" r="2.3" fill="#b9bdca" opacity="0.5"/><circle cx="241.8" cy="89.3" r="2.3" fill="#b9bdca" opacity="0.5"/><circle cx="242.2" cy="87.6" r="2.3" fill="#b9bdca" opacity="0.5"/><circle cx="242.7" cy="185.0" r="2.3" fill="#b9bdca" opacity="0.5"/><circle cx="243.3" cy="131.6" r="2.3" fill="#b9bdca" opacity="0.5"/><circle cx="243.7" cy="87.8" r="2.3" fill="#b9bdca" opacity="0.5"/><circle cx="244.4" cy="85.4" r="2.3" fill="#b9bdca" opacity="0.5"/><circle cx="245.5" cy="86.8" r="2.3" fill="#b9bdca" opacity="0.5"/><circle cx="246.6" cy="88.4" r="2.3" fill="#b9bdca" opacity="0.5"/><circle cx="251.2" cy="89.5" r="2.3" fill="#b9bdca" opacity="0.5"/><circle cx="251.2" cy="155.6" r="2.3" fill="#b9bdca" opacity="0.5"/><circle cx="251.2" cy="84.4" r="2.3" fill="#b9bdca" opacity="0.5"/><circle cx="256.7" cy="89.2" r="2.3" fill="#b9bdca" opacity="0.5"/><circle cx="256.8" cy="90.5" r="2.3" fill="#b9bdca" opacity="0.5"/><circle cx="258.4" cy="87.7" r="2.3" fill="#b9bdca" opacity="0.5"/><circle cx="258.9" cy="367.9" r="2.3" fill="#b9bdca" opacity="0.5"/><circle cx="261.1" cy="164.3" r="2.3" fill="#b9bdca" opacity="0.5"/><circle cx="262.2" cy="94.6" r="2.3" fill="#b9bdca" opacity="0.5"/><circle cx="262.7" cy="89.6" r="2.3" fill="#b9bdca" opacity="0.5"/><circle cx="267.4" cy="124.6" r="2.3" fill="#b9bdca" opacity="0.5"/><circle cx="272.5" cy="146.2" r="2.3" fill="#b9bdca" opacity="0.5"/><circle cx="272.6" cy="90.5" r="2.3" fill="#b9bdca" opacity="0.5"/><circle cx="273.1" cy="87.7" r="2.3" fill="#b9bdca" opacity="0.5"/><circle cx="273.3" cy="87.7" r="2.3" fill="#b9bdca" opacity="0.5"/><circle cx="273.3" cy="89.6" r="2.3" fill="#b9bdca" opacity="0.5"/><circle cx="276.9" cy="93.0" r="2.3" fill="#b9bdca" opacity="0.5"/><circle cx="278.2" cy="85.5" r="2.3" fill="#b9bdca" opacity="0.5"/><circle cx="288.8" cy="334.8" r="2.3" fill="#b9bdca" opacity="0.5"/><circle cx="290.0" cy="86.3" r="2.3" fill="#b9bdca" opacity="0.5"/><circle cx="293.6" cy="85.5" r="2.3" fill="#b9bdca" opacity="0.5"/><circle cx="294.3" cy="84.6" r="2.3" fill="#b9bdca" opacity="0.5"/><circle cx="295.8" cy="87.8" r="2.3" fill="#b9bdca" opacity="0.5"/><circle cx="296.4" cy="84.4" r="2.3" fill="#b9bdca" opacity="0.5"/><circle cx="296.7" cy="84.8" r="2.3" fill="#b9bdca" opacity="0.5"/><circle cx="297.8" cy="87.4" r="2.3" fill="#b9bdca" opacity="0.5"/><circle cx="303.5" cy="84.4" r="2.3" fill="#b9bdca" opacity="0.5"/><circle cx="328.5" cy="89.3" r="2.3" fill="#b9bdca" opacity="0.5"/><circle cx="333.0" cy="88.6" r="2.3" fill="#b9bdca" opacity="0.5"/><circle cx="333.0" cy="92.1" r="2.3" fill="#b9bdca" opacity="0.5"/><circle cx="334.0" cy="156.8" r="2.3" fill="#b9bdca" opacity="0.5"/><circle cx="348.5" cy="201.6" r="2.3" fill="#b9bdca" opacity="0.5"/><circle cx="359.0" cy="315.6" r="2.3" fill="#b9bdca" opacity="0.5"/><circle cx="387.9" cy="87.7" r="2.3" fill="#b9bdca" opacity="0.5"/><circle cx="396.6" cy="87.6" r="2.3" fill="#b9bdca" opacity="0.5"/><circle cx="404.4" cy="87.2" r="2.3" fill="#b9bdca" opacity="0.5"/><circle cx="406.1" cy="88.8" r="2.3" fill="#b9bdca" opacity="0.5"/><circle cx="406.8" cy="89.2" r="2.3" fill="#b9bdca" opacity="0.5"/><circle cx="407.2" cy="90.9" r="2.3" fill="#b9bdca" opacity="0.5"/><circle cx="409.4" cy="87.7" r="2.3" fill="#b9bdca" opacity="0.5"/><circle cx="417.2" cy="88.6" r="2.3" fill="#b9bdca" opacity="0.5"/><circle cx="418.2" cy="89.7" r="2.3" fill="#b9bdca" opacity="0.5"/><circle cx="418.9" cy="88.2" r="2.3" fill="#b9bdca" opacity="0.5"/><circle cx="433.5" cy="75.8" r="2.3" fill="#b9bdca" opacity="0.5"/><circle cx="434.7" cy="75.7" r="2.3" fill="#b9bdca" opacity="0.5"/><circle cx="435.5" cy="76.7" r="2.3" fill="#b9bdca" opacity="0.5"/><circle cx="435.6" cy="75.8" r="2.3" fill="#b9bdca" opacity="0.5"/><circle cx="436.0" cy="75.3" r="2.3" fill="#b9bdca" opacity="0.5"/><circle cx="436.3" cy="74.7" r="2.3" fill="#b9bdca" opacity="0.5"/><circle cx="436.4" cy="83.4" r="2.3" fill="#b9bdca" opacity="0.5"/><circle cx="436.8" cy="76.2" r="2.3" fill="#b9bdca" opacity="0.5"/><circle cx="437.1" cy="78.1" r="2.3" fill="#b9bdca" opacity="0.5"/><circle cx="437.5" cy="74.7" r="2.3" fill="#b9bdca" opacity="0.5"/><circle cx="439.9" cy="89.3" r="2.3" fill="#b9bdca" opacity="0.5"/><circle cx="444.8" cy="74.4" r="2.3" fill="#b9bdca" opacity="0.5"/><circle cx="452.5" cy="74.4" r="2.3" fill="#b9bdca" opacity="0.5"/><circle cx="453.8" cy="335.1" r="2.3" fill="#b9bdca" opacity="0.5"/><circle cx="453.8" cy="81.7" r="2.3" fill="#b9bdca" opacity="0.5"/><circle cx="454.7" cy="74.6" r="2.3" fill="#b9bdca" opacity="0.5"/><circle cx="454.7" cy="82.1" r="2.3" fill="#b9bdca" opacity="0.5"/><circle cx="454.8" cy="73.9" r="2.3" fill="#b9bdca" opacity="0.5"/><circle cx="457.0" cy="76.2" r="2.3" fill="#b9bdca" opacity="0.5"/><circle cx="457.3" cy="82.1" r="2.3" fill="#b9bdca" opacity="0.5"/><circle cx="457.7" cy="74.2" r="2.3" fill="#b9bdca" opacity="0.5"/><circle cx="457.7" cy="75.0" r="2.3" fill="#b9bdca" opacity="0.5"/><circle cx="458.1" cy="73.6" r="2.3" fill="#b9bdca" opacity="0.5"/><circle cx="458.2" cy="83.3" r="2.3" fill="#b9bdca" opacity="0.5"/><circle cx="458.2" cy="83.8" r="2.3" fill="#b9bdca" opacity="0.5"/><circle cx="458.2" cy="78.1" r="2.3" fill="#b9bdca" opacity="0.5"/><circle cx="458.2" cy="81.5" r="2.3" fill="#b9bdca" opacity="0.5"/><circle cx="458.2" cy="83.0" r="2.3" fill="#b9bdca" opacity="0.5"/><circle cx="458.2" cy="83.7" r="2.3" fill="#b9bdca" opacity="0.5"/><circle cx="461.3" cy="82.7" r="2.3" fill="#b9bdca" opacity="0.5"/><circle cx="461.9" cy="77.8" r="2.3" fill="#b9bdca" opacity="0.5"/><circle cx="463.6" cy="69.8" r="2.3" fill="#b9bdca" opacity="0.5"/><circle cx="464.1" cy="75.9" r="2.3" fill="#b9bdca" opacity="0.5"/><circle cx="464.3" cy="74.3" r="2.3" fill="#b9bdca" opacity="0.5"/><circle cx="464.3" cy="77.4" r="2.3" fill="#b9bdca" opacity="0.5"/><circle cx="464.3" cy="80.6" r="2.3" fill="#b9bdca" opacity="0.5"/><circle cx="464.3" cy="81.8" r="2.3" fill="#b9bdca" opacity="0.5"/><circle cx="465.4" cy="76.9" r="2.3" fill="#b9bdca" opacity="0.5"/><circle cx="465.4" cy="82.8" r="2.3" fill="#b9bdca" opacity="0.5"/><circle cx="465.4" cy="83.0" r="2.3" fill="#b9bdca" opacity="0.5"/><circle cx="465.4" cy="83.1" r="2.3" fill="#b9bdca" opacity="0.5"/><circle cx="465.9" cy="69.1" r="2.3" fill="#b9bdca" opacity="0.5"/><circle cx="467.2" cy="75.5" r="2.3" fill="#b9bdca" opacity="0.5"/><circle cx="467.9" cy="74.3" r="2.3" fill="#b9bdca" opacity="0.5"/><circle cx="487.6" cy="74.0" r="2.3" fill="#b9bdca" opacity="0.5"/><circle cx="510.9" cy="73.4" r="2.3" fill="#b9bdca" opacity="0.5"/><circle cx="511.1" cy="75.9" r="2.3" fill="#b9bdca" opacity="0.5"/><circle cx="511.1" cy="76.3" r="2.3" fill="#b9bdca" opacity="0.5"/><circle cx="511.3" cy="76.0" r="2.3" fill="#b9bdca" opacity="0.5"/><circle cx="511.3" cy="76.8" r="2.3" fill="#b9bdca" opacity="0.5"/><circle cx="511.3" cy="81.2" r="2.3" fill="#b9bdca" opacity="0.5"/><circle cx="511.3" cy="83.4" r="2.3" fill="#b9bdca" opacity="0.5"/><circle cx="527.8" cy="76.6" r="2.3" fill="#b9bdca" opacity="0.5"/><circle cx="528.9" cy="76.7" r="2.3" fill="#b9bdca" opacity="0.5"/><circle cx="528.9" cy="82.8" r="2.3" fill="#b9bdca" opacity="0.5"/><circle cx="528.9" cy="82.8" r="2.3" fill="#b9bdca" opacity="0.5"/><circle cx="528.9" cy="83.3" r="2.3" fill="#b9bdca" opacity="0.5"/><circle cx="532.3" cy="233.4" r="2.3" fill="#b9bdca" opacity="0.5"/><circle cx="533.4" cy="228.9" r="2.3" fill="#b9bdca" opacity="0.5"/><circle cx="534.4" cy="198.3" r="2.3" fill="#b9bdca" opacity="0.5"/><circle cx="555.9" cy="73.4" r="2.3" fill="#b9bdca" opacity="0.5"/><circle cx="561.9" cy="192.4" r="2.3" fill="#b9bdca" opacity="0.5"/><circle cx="564.0" cy="75.3" r="2.3" fill="#b9bdca" opacity="0.5"/><circle cx="564.5" cy="74.0" r="2.3" fill="#b9bdca" opacity="0.5"/><circle cx="565.9" cy="194.4" r="2.3" fill="#b9bdca" opacity="0.5"/><circle cx="568.0" cy="168.6" r="2.3" fill="#b9bdca" opacity="0.5"/><circle cx="569.2" cy="77.1" r="2.3" fill="#b9bdca" opacity="0.5"/><circle cx="569.2" cy="99.5" r="2.3" fill="#b9bdca" opacity="0.5"/><circle cx="585.8" cy="71.4" r="2.3" fill="#b9bdca" opacity="0.5"/><circle cx="585.8" cy="73.5" r="2.3" fill="#b9bdca" opacity="0.5"/><circle cx="591.7" cy="72.4" r="2.3" fill="#b9bdca" opacity="0.5"/><circle cx="615.9" cy="83.0" r="2.3" fill="#b9bdca" opacity="0.5"/><circle cx="616.2" cy="72.1" r="2.3" fill="#b9bdca" opacity="0.5"/><circle cx="616.6" cy="71.6" r="2.3" fill="#b9bdca" opacity="0.5"/><circle cx="617.3" cy="75.5" r="2.3" fill="#b9bdca" opacity="0.5"/><circle cx="617.7" cy="73.7" r="2.3" fill="#b9bdca" opacity="0.5"/><circle cx="618.8" cy="72.9" r="2.3" fill="#b9bdca" opacity="0.5"/><circle cx="619.2" cy="73.4" r="2.3" fill="#b9bdca" opacity="0.5"/><circle cx="666.5" cy="85.2" r="2.3" fill="#b9bdca" opacity="0.5"/><circle cx="666.5" cy="256.6" r="2.3" fill="#b9bdca" opacity="0.5"/><circle cx="666.5" cy="335.3" r="2.3" fill="#b9bdca" opacity="0.5"/><circle cx="666.8" cy="86.8" r="2.3" fill="#b9bdca" opacity="0.5"/><circle cx="667.2" cy="71.5" r="2.3" fill="#b9bdca" opacity="0.5"/><circle cx="668.5" cy="71.0" r="2.3" fill="#b9bdca" opacity="0.5"/><circle cx="669.2" cy="71.5" r="2.3" fill="#b9bdca" opacity="0.5"/><circle cx="669.3" cy="55.0" r="2.3" fill="#b9bdca" opacity="0.5"/><circle cx="675.9" cy="83.1" r="2.3" fill="#b9bdca" opacity="0.5"/><circle cx="677.5" cy="74.7" r="2.3" fill="#b9bdca" opacity="0.5"/><circle cx="677.6" cy="59.3" r="2.3" fill="#b9bdca" opacity="0.5"/><circle cx="677.6" cy="79.9" r="2.3" fill="#b9bdca" opacity="0.5"/><circle cx="677.8" cy="74.1" r="2.3" fill="#b9bdca" opacity="0.5"/><circle cx="678.1" cy="72.7" r="2.3" fill="#b9bdca" opacity="0.5"/><circle cx="678.1" cy="73.8" r="2.3" fill="#b9bdca" opacity="0.5"/><circle cx="678.1" cy="75.9" r="2.3" fill="#b9bdca" opacity="0.5"/><circle cx="678.5" cy="74.1" r="2.3" fill="#b9bdca" opacity="0.5"/><circle cx="678.8" cy="73.5" r="2.3" fill="#b9bdca" opacity="0.5"/><circle cx="679.2" cy="74.2" r="2.3" fill="#b9bdca" opacity="0.5"/><circle cx="679.5" cy="71.5" r="2.3" fill="#b9bdca" opacity="0.5"/><circle cx="680.5" cy="74.3" r="2.3" fill="#b9bdca" opacity="0.5"/><circle cx="685.8" cy="73.2" r="2.3" fill="#b9bdca" opacity="0.5"/><circle cx="685.8" cy="73.6" r="2.3" fill="#b9bdca" opacity="0.5"/><circle cx="685.8" cy="73.8" r="2.3" fill="#b9bdca" opacity="0.5"/><circle cx="696.0" cy="73.3" r="2.3" fill="#b9bdca" opacity="0.5"/><circle cx="696.0" cy="73.4" r="2.3" fill="#b9bdca" opacity="0.5"/><circle cx="719.3" cy="96.1" r="2.3" fill="#b9bdca" opacity="0.5"/><circle cx="814.6" cy="95.6" r="2.3" fill="#b9bdca" opacity="0.5"/><circle cx="846.0" cy="74.8" r="2.3" fill="#b9bdca" opacity="0.5"/><circle cx="847.6" cy="72.3" r="2.3" fill="#b9bdca" opacity="0.5"/><circle cx="856.6" cy="79.9" r="2.3" fill="#b9bdca" opacity="0.5"/><circle cx="856.6" cy="80.6" r="2.3" fill="#b9bdca" opacity="0.5"/><circle cx="874.6" cy="73.3" r="2.3" fill="#b9bdca" opacity="0.5"/><circle cx="874.7" cy="72.8" r="2.3" fill="#b9bdca" opacity="0.5"/><circle cx="874.7" cy="73.0" r="2.3" fill="#b9bdca" opacity="0.5"/><circle cx="874.7" cy="73.2" r="2.3" fill="#b9bdca" opacity="0.5"/><circle cx="874.7" cy="73.5" r="2.3" fill="#b9bdca" opacity="0.5"/><circle cx="874.7" cy="73.6" r="2.3" fill="#b9bdca" opacity="0.5"/><circle cx="874.7" cy="73.7" r="2.3" fill="#b9bdca" opacity="0.5"/><circle cx="875.1" cy="73.1" r="2.3" fill="#b9bdca" opacity="0.5"/><circle cx="875.1" cy="73.2" r="2.3" fill="#b9bdca" opacity="0.5"/><circle cx="875.1" cy="74.3" r="2.3" fill="#b9bdca" opacity="0.5"/><circle cx="875.1" cy="74.5" r="2.3" fill="#b9bdca" opacity="0.5"/><circle cx="875.2" cy="72.8" r="2.3" fill="#b9bdca" opacity="0.5"/><circle cx="875.6" cy="74.7" r="2.3" fill="#b9bdca" opacity="0.5"/><circle cx="919.1" cy="332.5" r="2.3" fill="#b9bdca" opacity="0.5"/><circle cx="971.3" cy="117.5" r="2.3" fill="#b9bdca" opacity="0.5"/><circle cx="971.3" cy="211.0" r="2.3" fill="#b9bdca" opacity="0.5"/><circle cx="984.5" cy="93.9" r="2.3" fill="#b9bdca" opacity="0.5"/><circle cx="1004.9" cy="74.9" r="2.3" fill="#b9bdca" opacity="0.5"/><circle cx="1005.2" cy="73.4" r="2.3" fill="#b9bdca" opacity="0.5"/><circle cx="1005.6" cy="72.9" r="2.3" fill="#b9bdca" opacity="0.5"/><circle cx="1005.9" cy="74.2" r="2.3" fill="#b9bdca" opacity="0.5"/><circle cx="1006.0" cy="74.9" r="2.3" fill="#b9bdca" opacity="0.5"/><circle cx="1006.3" cy="74.9" r="2.3" fill="#b9bdca" opacity="0.5"/><circle cx="1006.6" cy="73.6" r="2.3" fill="#b9bdca" opacity="0.5"/><circle cx="1006.8" cy="74.5" r="2.3" fill="#b9bdca" opacity="0.5"/><circle cx="1007.0" cy="73.6" r="2.3" fill="#b9bdca" opacity="0.5"/><circle cx="1007.5" cy="74.2" r="2.3" fill="#b9bdca" opacity="0.5"/><circle cx="1008.3" cy="72.3" r="2.3" fill="#b9bdca" opacity="0.5"/><circle cx="1008.6" cy="70.5" r="2.3" fill="#b9bdca" opacity="0.5"/><circle cx="1009.0" cy="73.5" r="2.3" fill="#b9bdca" opacity="0.5"/><circle cx="1009.1" cy="72.7" r="2.3" fill="#b9bdca" opacity="0.5"/><circle cx="1009.4" cy="74.4" r="2.3" fill="#b9bdca" opacity="0.5"/><circle cx="1031.8" cy="172.8" r="2.3" fill="#b9bdca" opacity="0.5"/><circle cx="1032.0" cy="172.8" r="2.3" fill="#b9bdca" opacity="0.5"/><path d="M159.0 152.3L162.6 155.9L159.0 159.5L155.4 155.9Z" fill="#2b3a7a" opacity="0.8" stroke="none" stroke-width="0"/><path d="M165.4 138.2L169.0 141.8L165.4 145.4L161.8 141.8Z" fill="#2b3a7a" opacity="0.8" stroke="none" stroke-width="0"/><path d="M166.3 128.1L169.9 131.7L166.3 135.3L162.7 131.7Z" fill="#2b3a7a" opacity="0.8" stroke="none" stroke-width="0"/><path d="M166.4 130.5L170.0 134.1L166.4 137.7L162.8 134.1Z" fill="#2b3a7a" opacity="0.8" stroke="none" stroke-width="0"/><path d="M167.1 127.3L170.7 130.9L167.1 134.5L163.5 130.9Z" fill="#2b3a7a" opacity="0.8" stroke="none" stroke-width="0"/><path d="M167.4 125.9L171.0 129.5L167.4 133.1L163.8 129.5Z" fill="#2b3a7a" opacity="0.8" stroke="none" stroke-width="0"/><path d="M167.4 127.3L171.0 130.9L167.4 134.5L163.8 130.9Z" fill="#2b3a7a" opacity="0.8" stroke="none" stroke-width="0"/><path d="M187.4 125.9L191.0 129.5L187.4 133.1L183.8 129.5Z" fill="#2b3a7a" opacity="0.8" stroke="none" stroke-width="0"/><path d="M190.4 125.3L194.0 128.9L190.4 132.5L186.8 128.9Z" fill="#2b3a7a" opacity="0.8" stroke="none" stroke-width="0"/><path d="M193.2 124.8L196.8 128.4L193.2 132.0L189.6 128.4Z" fill="#2b3a7a" opacity="0.8" stroke="none" stroke-width="0"/><path d="M195.2 124.6L198.8 128.2L195.2 131.8L191.6 128.2Z" fill="#2b3a7a" opacity="0.8" stroke="none" stroke-width="0"/><path d="M204.2 124.4L207.8 128.0L204.2 131.6L200.6 128.0Z" fill="#2b3a7a" opacity="0.8" stroke="none" stroke-width="0"/><path d="M213.7 109.2L217.3 112.8L213.7 116.4L210.1 112.8Z" fill="#2b3a7a" opacity="0.8" stroke="none" stroke-width="0"/><path d="M218.1 108.0L221.7 111.6L218.1 115.2L214.5 111.6Z" fill="#2b3a7a" opacity="0.8" stroke="none" stroke-width="0"/><path d="M219.5 101.9L223.1 105.5L219.5 109.1L215.9 105.5Z" fill="#2b3a7a" opacity="0.8" stroke="none" stroke-width="0"/><path d="M219.7 104.9L223.3 108.5L219.7 112.1L216.1 108.5Z" fill="#2b3a7a" opacity="0.8" stroke="none" stroke-width="0"/><path d="M220.2 101.5L223.8 105.1L220.2 108.7L216.6 105.1Z" fill="#2b3a7a" opacity="0.8" stroke="none" stroke-width="0"/><path d="M220.8 100.2L224.4 103.8L220.8 107.4L217.2 103.8Z" fill="#2b3a7a" opacity="0.8" stroke="none" stroke-width="0"/><path d="M227.3 99.9L230.9 103.5L227.3 107.1L223.7 103.5Z" fill="#2b3a7a" opacity="0.8" stroke="none" stroke-width="0"/><path d="M239.6 86.0L243.2 89.6L239.6 93.2L236.0 89.6Z" fill="#2b3a7a" opacity="0.8" stroke="none" stroke-width="0"/><path d="M241.8 85.7L245.4 89.3L241.8 92.9L238.2 89.3Z" fill="#2b3a7a" opacity="0.8" stroke="none" stroke-width="0"/><path d="M242.2 84.0L245.8 87.6L242.2 91.2L238.6 87.6Z" fill="#2b3a7a" opacity="0.8" stroke="none" stroke-width="0"/><path d="M244.4 81.8L248.0 85.4L244.4 89.0L240.8 85.4Z" fill="#2b3a7a" opacity="0.8" stroke="none" stroke-width="0"/><path d="M251.2 80.8L254.8 84.4L251.2 88.0L247.6 84.4Z" fill="#2b3a7a" opacity="0.8" stroke="none" stroke-width="0"/><path d="M303.5 80.8L307.1 84.4L303.5 88.0L299.9 84.4Z" fill="#2b3a7a" opacity="0.8" stroke="none" stroke-width="0"/><path d="M433.5 72.2L437.1 75.8L433.5 79.4L429.9 75.8Z" fill="#2b3a7a" opacity="0.8" stroke="none" stroke-width="0"/><path d="M434.7 72.1L438.3 75.7L434.7 79.3L431.1 75.7Z" fill="#2b3a7a" opacity="0.8" stroke="none" stroke-width="0"/><path d="M436.0 71.7L439.6 75.3L436.0 78.9L432.4 75.3Z" fill="#2b3a7a" opacity="0.8" stroke="none" stroke-width="0"/><path d="M436.3 71.1L439.9 74.7L436.3 78.3L432.7 74.7Z" fill="#2b3a7a" opacity="0.8" stroke="none" stroke-width="0"/><path d="M437.5 71.1L441.1 74.7L437.5 78.3L433.9 74.7Z" fill="#2b3a7a" opacity="0.8" stroke="none" stroke-width="0"/><path d="M444.8 70.8L448.4 74.4L444.8 78.0L441.2 74.4Z" fill="#2b3a7a" opacity="0.8" stroke="none" stroke-width="0"/><path d="M454.8 70.3L458.4 73.9L454.8 77.5L451.2 73.9Z" fill="#2b3a7a" opacity="0.8" stroke="none" stroke-width="0"/><path d="M458.1 70.0L461.7 73.6L458.1 77.2L454.5 73.6Z" fill="#2b3a7a" opacity="0.8" stroke="none" stroke-width="0"/><path d="M510.9 69.8L514.5 73.4L510.9 77.0L507.3 73.4Z" fill="#2b3a7a" opacity="0.8" stroke="none" stroke-width="0"/><path d="M555.9 69.8L559.5 73.4L555.9 77.0L552.3 73.4Z" fill="#2b3a7a" opacity="0.8" stroke="none" stroke-width="0"/><path d="M585.8 67.8L589.4 71.4L585.8 75.0L582.2 71.4Z" fill="#2b3a7a" opacity="0.8" stroke="none" stroke-width="0"/><path d="M60.0 335.3L61.6 335.3L61.6 335.1L63.9 335.1L63.9 320.7L68.3 320.7L68.3 319.9L70.0 319.9L70.0 315.3L70.5 315.3L70.5 314.9L71.2 314.9L71.2 314.9L97.9 314.9L97.9 238.7L98.3 238.7L98.3 229.0L98.8 229.0L98.8 222.3L99.3 222.3L99.3 220.6L99.4 220.6L99.4 220.5L99.7 220.5L99.7 214.2L100.7 214.2L100.7 214.1L101.0 214.1L101.0 213.7L101.2 213.7L101.2 213.5L101.5 213.5L101.5 212.7L102.8 212.7L102.8 212.1L103.2 212.1L103.2 212.0L106.7 212.0L106.7 206.7L110.7 206.7L110.7 204.9L112.2 204.9L112.2 204.6L113.2 204.6L113.2 201.9L115.0 201.9L115.0 201.8L115.9 201.8L115.9 201.0L116.4 201.0L116.4 200.0L119.0 200.0L119.0 200.0L120.0 200.0L120.0 199.7L128.8 199.7L128.8 195.5L135.3 195.5L135.3 187.4L135.5 187.4L135.5 186.2L135.9 186.2L135.9 184.5L147.3 184.5L147.3 183.9L153.0 183.9L153.0 169.3L154.8 169.3L154.8 168.8L155.0 168.8L155.0 167.7L156.1 167.7L156.1 165.0L156.5 165.0L156.5 163.7L156.6 163.7L156.6 163.6L159.0 163.6L159.0 155.9L161.9 155.9L161.9 155.8L163.0 155.8L163.0 141.9L165.4 141.9L165.4 141.8L166.3 141.8L166.3 131.7L167.1 131.7L167.1 130.9L167.4 130.9L167.4 129.5L187.4 129.5L187.4 129.5L190.4 129.5L190.4 128.9L193.2 128.9L193.2 128.4L195.2 128.4L195.2 128.2L204.2 128.2L204.2 128.0L213.7 128.0L213.7 112.8L215.8 112.8L215.8 110.2L219.5 110.2L219.5 105.5L220.2 105.5L220.2 105.1L220.8 105.1L220.8 103.8L227.3 103.8L227.3 103.5L239.6 103.5L239.6 89.6L241.8 89.6L241.8 89.3L242.2 89.3L242.2 87.6L244.4 87.6L244.4 85.4L251.2 85.4L251.2 84.4L303.5 84.4L303.5 84.4L433.5 84.4L433.5 75.8L434.7 75.8L434.7 75.7L436.0 75.7L436.0 75.3L436.3 75.3L436.3 74.7L437.5 74.7L437.5 74.7L444.8 74.7L444.8 74.4L454.8 74.4L454.8 73.9L458.1 73.9L458.1 73.6L463.6 73.6L463.6 69.8L465.9 69.8L465.9 69.1L669.3 69.1L669.3 55.0L1032.0 55.0" fill="none" stroke="#6675b0" stroke-width="1.6" stroke-dasharray="5 3" opacity="0.75"/><path d="M159.0 155.9L165.4 155.9L165.4 141.8L166.3 141.8L166.3 131.7L167.1 131.7L167.1 130.9L167.4 130.9L167.4 129.5L187.4 129.5L187.4 129.5L190.4 129.5L190.4 128.9L193.2 128.9L193.2 128.4L195.2 128.4L195.2 128.2L204.2 128.2L204.2 128.0L213.7 128.0L213.7 112.8L218.1 112.8L218.1 111.6L219.5 111.6L219.5 105.5L220.2 105.5L220.2 105.1L220.8 105.1L220.8 103.8L227.3 103.8L227.3 103.5L239.6 103.5L239.6 89.6L241.8 89.6L241.8 89.3L242.2 89.3L242.2 87.6L244.4 87.6L244.4 85.4L251.2 85.4L251.2 84.4L303.5 84.4L303.5 84.4L433.5 84.4L433.5 75.8L434.7 75.8L434.7 75.7L436.0 75.7L436.0 75.3L436.3 75.3L436.3 74.7L437.5 74.7L437.5 74.7L444.8 74.7L444.8 74.4L454.8 74.4L454.8 73.9L458.1 73.9L458.1 73.6L463.6 73.6L463.6 73.5L510.9 73.5L510.9 73.4L555.9 73.4L555.9 73.4L585.8 73.4L585.8 71.4L1032.0 71.4" fill="none" stroke="#2b3a7a" stroke-width="2.6"/><path d="M391.4 246.9L397.9 253.4L391.4 259.9L384.9 253.4Z" fill="#c5961a" opacity="1.0" stroke="#ffffff" stroke-width="1.4"/><path d="M456.1 206.5L462.6 213.0L456.1 219.5L449.6 213.0Z" fill="#c5961a" opacity="1.0" stroke="#ffffff" stroke-width="1.4"/><path d="M463.6 67.0L470.1 73.5L463.6 80.0L457.1 73.5Z" fill="#c5961a" opacity="1.0" stroke="#ffffff" stroke-width="1.4"/><path d="M519.0 240.8L525.5 247.3L519.0 253.8L512.5 247.3Z" fill="#c5961a" opacity="1.0" stroke="#ffffff" stroke-width="1.4"/><path d="M519.4 238.0L525.9 244.5L519.4 251.0L512.9 244.5Z" fill="#c5961a" opacity="1.0" stroke="#ffffff" stroke-width="1.4"/><text x="1042" y="53.0" font-size="11.5" fill="#6675b0">– – raw best 535.9</text><text x="1042" y="67.0" font-size="10" fill="#8a8fa3">unverified (pending)</text><path d="M585.8 64.9L592.3 71.4L585.8 77.9L579.3 71.4Z" fill="#2b3a7a" opacity="1.0" stroke="#ffffff" stroke-width="1.4"/><text x="1042" y="99.4" font-size="12.5" fill="#2b3a7a" font-weight="bold">◆ verified 510.1</text><text x="1042" y="115.4" font-size="10.5" fill="#3a3f55">top verified</text><text x="60" y="24" font-size="13" font-weight="bold" fill="#3a3f55" letter-spacing="1.2">SCORE EVOLUTION — gemma-challenge (tok/s)</text><circle cx="452" cy="20" r="3" fill="#b9bdca"/><text x="460" y="24" font-size="10.5" fill="#8a8fa3">all results</text><path d="M544.0 16.4L547.6 20.0L544.0 23.6L540.4 20.0Z" fill="#2b3a7a" opacity="1.0" stroke="none" stroke-width="0"/><text x="552" y="24" font-size="10.5" fill="#8a8fa3">verified</text><path d="M620.0 15.5L624.5 20.0L620.0 24.5L615.5 20.0Z" fill="#c5961a" opacity="1.0" stroke="#fff" stroke-width="1"/><text x="629" y="24" font-size="10.5" fill="#8a8fa3">mikasa-inbound (us)</text></svg>