<svg viewBox="0 0 1200 440" xmlns="http://www.w3.org/2000/svg" font-family="ui-sans-serif,system-ui,-apple-system,sans-serif"><rect x="0" y="0" width="1200" height="440" fill="#ffffff"/><rect x="60" y="46" width="972" height="350" fill="#f3f4fb"/><line x1="60" y1="396.0" x2="1032" y2="396.0" stroke="#e3e5ef" stroke-width="1"/><text x="52" y="400.0" text-anchor="end" font-size="11" fill="#8a8fa3">0</text><line x1="60" y1="332.4" x2="1032" y2="332.4" stroke="#e3e5ef" stroke-width="1"/><text x="52" y="336.4" text-anchor="end" font-size="11" fill="#8a8fa3">100</text><line x1="60" y1="268.7" x2="1032" y2="268.7" stroke="#e3e5ef" stroke-width="1"/><text x="52" y="272.7" text-anchor="end" font-size="11" fill="#8a8fa3">200</text><line x1="60" y1="205.1" x2="1032" y2="205.1" stroke="#e3e5ef" stroke-width="1"/><text x="52" y="209.1" text-anchor="end" font-size="11" fill="#8a8fa3">300</text><line x1="60" y1="141.5" x2="1032" y2="141.5" stroke="#e3e5ef" stroke-width="1"/><text x="52" y="145.5" text-anchor="end" font-size="11" fill="#8a8fa3">400</text><line x1="60" y1="77.8" x2="1032" y2="77.8" stroke="#e3e5ef" stroke-width="1"/><text x="52" y="81.8" text-anchor="end" font-size="11" fill="#8a8fa3">500</text><line x1="107.0" y1="46" x2="107.0" y2="396" stroke="#e3e5ef" stroke-width="1"/><text x="107.0" y="414.0" text-anchor="middle" font-size="11" fill="#8a8fa3">Jun 10</text><line x1="174.1" y1="46" x2="174.1" y2="396" stroke="#e3e5ef" stroke-width="1"/><text x="174.1" y="414.0" text-anchor="middle" font-size="11" fill="#8a8fa3">Jun 12</text><line x1="241.1" y1="46" x2="241.1" y2="396" stroke="#e3e5ef" stroke-width="1"/><text x="241.1" y="414.0" text-anchor="middle" font-size="11" fill="#8a8fa3">Jun 14</text><line x1="308.1" y1="46" x2="308.1" y2="396" stroke="#e3e5ef" stroke-width="1"/><text x="308.1" y="414.0" text-anchor="middle" font-size="11" fill="#8a8fa3">Jun 16</text><line x1="375.2" y1="46" x2="375.2" y2="396" stroke="#e3e5ef" stroke-width="1"/><text x="375.2" y="414.0" text-anchor="middle" font-size="11" fill="#8a8fa3">Jun 18</text><line x1="442.2" y1="46" x2="442.2" y2="396" stroke="#e3e5ef" stroke-width="1"/><text x="442.2" y="414.0" text-anchor="middle" font-size="11" fill="#8a8fa3">Jun 20</text><line x1="509.3" y1="46" x2="509.3" y2="396" stroke="#e3e5ef" stroke-width="1"/><text x="509.3" y="414.0" text-anchor="middle" font-size="11" fill="#8a8fa3">Jun 22</text><line x1="576.3" y1="46" x2="576.3" y2="396" stroke="#e3e5ef" stroke-width="1"/><text x="576.3" y="414.0" text-anchor="middle" font-size="11" fill="#8a8fa3">Jun 24</text><line x1="643.4" y1="46" x2="643.4" y2="396" stroke="#e3e5ef" stroke-width="1"/><text x="643.4" y="414.0" text-anchor="middle" font-size="11" fill="#8a8fa3">Jun 26</text><line x1="710.4" y1="46" x2="710.4" y2="396" stroke="#e3e5ef" stroke-width="1"/><text x="710.4" y="414.0" text-anchor="middle" font-size="11" fill="#8a8fa3">Jun 28</text><line x1="777.5" y1="46" x2="777.5" y2="396" stroke="#e3e5ef" stroke-width="1"/><text x="777.5" y="414.0" text-anchor="middle" font-size="11" fill="#8a8fa3">Jun 30</text><line x1="844.5" y1="46" x2="844.5" y2="396" stroke="#e3e5ef" stroke-width="1"/><text x="844.5" y="414.0" text-anchor="middle" font-size="11" fill="#8a8fa3">Jul 2</text><line x1="911.6" y1="46" x2="911.6" y2="396" stroke="#e3e5ef" stroke-width="1"/><text x="911.6" y="414.0" text-anchor="middle" font-size="11" fill="#8a8fa3">Jul 4</text><line x1="978.6" y1="46" x2="978.6" y2="396" stroke="#e3e5ef" stroke-width="1"/><text x="978.6" y="414.0" text-anchor="middle" font-size="11" fill="#8a8fa3">Jul 6</text><circle cx="60.0" cy="335.3" r="2.3" fill="#b9bdca" opacity="0.5"/><circle cx="61.6" cy="335.1" r="2.3" fill="#b9bdca" opacity="0.5"/><circle cx="63.2" cy="368.0" r="2.3" fill="#b9bdca" opacity="0.5"/><circle cx="63.9" cy="320.7" r="2.3" fill="#b9bdca" opacity="0.5"/><circle cx="68.3" cy="319.9" r="2.3" fill="#b9bdca" opacity="0.5"/><circle cx="68.6" cy="320.6" r="2.3" fill="#b9bdca" opacity="0.5"/><circle cx="70.0" cy="315.3" r="2.3" fill="#b9bdca" opacity="0.5"/><circle cx="70.3" cy="319.7" r="2.3" fill="#b9bdca" opacity="0.5"/><circle cx="70.5" cy="314.9" r="2.3" fill="#b9bdca" opacity="0.5"/><circle cx="71.0" cy="315.5" r="2.3" fill="#b9bdca" opacity="0.5"/><circle cx="71.2" cy="314.9" r="2.3" fill="#b9bdca" opacity="0.5"/><circle cx="71.6" cy="315.4" r="2.3" fill="#b9bdca" opacity="0.5"/><circle cx="72.5" cy="315.0" r="2.3" fill="#b9bdca" opacity="0.5"/><circle cx="97.9" cy="238.7" r="2.3" fill="#b9bdca" opacity="0.5"/><circle cx="98.1" cy="315.0" r="2.3" fill="#b9bdca" opacity="0.5"/><circle cx="98.3" cy="229.0" r="2.3" fill="#b9bdca" opacity="0.5"/><circle cx="98.7" cy="222.3" r="2.3" fill="#b9bdca" opacity="0.5"/><circle cx="99.1" cy="228.0" r="2.3" fill="#b9bdca" opacity="0.5"/><circle cx="99.2" cy="223.3" r="2.3" fill="#b9bdca" opacity="0.5"/><circle cx="99.3" cy="220.6" r="2.3" fill="#b9bdca" opacity="0.5"/><circle cx="99.3" cy="220.5" r="2.3" fill="#b9bdca" opacity="0.5"/><circle cx="99.4" cy="223.2" r="2.3" fill="#b9bdca" opacity="0.5"/><circle cx="99.6" cy="214.2" r="2.3" fill="#b9bdca" opacity="0.5"/><circle cx="99.7" cy="222.1" r="2.3" fill="#b9bdca" opacity="0.5"/><circle cx="99.9" cy="220.7" r="2.3" fill="#b9bdca" opacity="0.5"/><circle cx="100.2" cy="218.5" r="2.3" fill="#b9bdca" opacity="0.5"/><circle cx="100.3" cy="215.2" r="2.3" fill="#b9bdca" opacity="0.5"/><circle cx="100.4" cy="214.3" r="2.3" fill="#b9bdca" opacity="0.5"/><circle cx="100.5" cy="219.2" r="2.3" fill="#b9bdca" opacity="0.5"/><circle cx="100.6" cy="214.1" r="2.3" fill="#b9bdca" opacity="0.5"/><circle cx="100.8" cy="215.2" r="2.3" fill="#b9bdca" opacity="0.5"/><circle cx="101.0" cy="213.7" r="2.3" fill="#b9bdca" opacity="0.5"/><circle cx="101.2" cy="213.5" r="2.3" fill="#b9bdca" opacity="0.5"/><circle cx="101.3" cy="214.8" r="2.3" fill="#b9bdca" opacity="0.5"/><circle cx="101.3" cy="217.7" r="2.3" fill="#b9bdca" opacity="0.5"/><circle cx="101.5" cy="212.7" r="2.3" fill="#b9bdca" opacity="0.5"/><circle cx="101.9" cy="213.3" r="2.3" fill="#b9bdca" opacity="0.5"/><circle cx="102.3" cy="212.7" r="2.3" fill="#b9bdca" opacity="0.5"/><circle cx="102.3" cy="213.6" r="2.3" fill="#b9bdca" opacity="0.5"/><circle cx="102.5" cy="213.0" r="2.3" fill="#b9bdca" opacity="0.5"/><circle cx="102.8" cy="212.1" r="2.3" fill="#b9bdca" opacity="0.5"/><circle cx="102.8" cy="213.3" r="2.3" fill="#b9bdca" opacity="0.5"/><circle cx="103.1" cy="212.0" r="2.3" fill="#b9bdca" opacity="0.5"/><circle cx="103.6" cy="212.1" r="2.3" fill="#b9bdca" opacity="0.5"/><circle cx="103.6" cy="212.8" r="2.3" fill="#b9bdca" opacity="0.5"/><circle cx="106.7" cy="206.7" r="2.3" fill="#b9bdca" opacity="0.5"/><circle cx="107.1" cy="206.8" r="2.3" fill="#b9bdca" opacity="0.5"/><circle cx="107.1" cy="212.5" r="2.3" fill="#b9bdca" opacity="0.5"/><circle cx="107.4" cy="207.2" r="2.3" fill="#b9bdca" opacity="0.5"/><circle cx="108.3" cy="207.0" r="2.3" fill="#b9bdca" opacity="0.5"/><circle cx="110.7" cy="204.9" r="2.3" fill="#b9bdca" opacity="0.5"/><circle cx="112.1" cy="204.6" r="2.3" fill="#b9bdca" opacity="0.5"/><circle cx="112.3" cy="212.3" r="2.3" fill="#b9bdca" opacity="0.5"/><circle cx="112.5" cy="204.6" r="2.3" fill="#b9bdca" opacity="0.5"/><circle cx="112.5" cy="204.6" r="2.3" fill="#b9bdca" opacity="0.5"/><circle cx="112.5" cy="204.9" r="2.3" fill="#b9bdca" opacity="0.5"/><circle cx="112.5" cy="204.9" r="2.3" fill="#b9bdca" opacity="0.5"/><circle cx="113.1" cy="201.9" r="2.3" fill="#b9bdca" opacity="0.5"/><circle cx="114.1" cy="206.5" r="2.3" fill="#b9bdca" opacity="0.5"/><circle cx="114.4" cy="205.8" r="2.3" fill="#b9bdca" opacity="0.5"/><circle cx="114.4" cy="335.1" r="2.3" fill="#b9bdca" opacity="0.5"/><circle cx="114.9" cy="201.8" r="2.3" fill="#b9bdca" opacity="0.5"/><circle cx="114.9" cy="202.2" r="2.3" fill="#b9bdca" opacity="0.5"/><circle cx="115.8" cy="201.0" r="2.3" fill="#b9bdca" opacity="0.5"/><circle cx="116.2" cy="203.1" r="2.3" fill="#b9bdca" opacity="0.5"/><circle cx="116.3" cy="200.0" r="2.3" fill="#b9bdca" opacity="0.5"/><circle cx="116.4" cy="204.6" r="2.3" fill="#b9bdca" opacity="0.5"/><circle cx="116.9" cy="202.3" r="2.3" fill="#b9bdca" opacity="0.5"/><circle cx="118.0" cy="200.4" r="2.3" fill="#b9bdca" opacity="0.5"/><circle cx="118.5" cy="200.7" r="2.3" fill="#b9bdca" opacity="0.5"/><circle cx="118.9" cy="200.0" r="2.3" fill="#b9bdca" opacity="0.5"/><circle cx="120.0" cy="199.7" r="2.3" fill="#b9bdca" opacity="0.5"/><circle cx="126.4" cy="200.6" r="2.3" fill="#b9bdca" opacity="0.5"/><circle cx="126.9" cy="201.8" r="2.3" fill="#b9bdca" opacity="0.5"/><circle cx="127.8" cy="208.4" r="2.3" fill="#b9bdca" opacity="0.5"/><circle cx="127.8" cy="200.8" r="2.3" fill="#b9bdca" opacity="0.5"/><circle cx="128.5" cy="200.7" r="2.3" fill="#b9bdca" opacity="0.5"/><circle cx="128.5" cy="201.9" r="2.3" fill="#b9bdca" opacity="0.5"/><circle cx="128.7" cy="195.5" r="2.3" fill="#b9bdca" opacity="0.5"/><circle cx="129.3" cy="196.9" r="2.3" fill="#b9bdca" opacity="0.5"/><circle cx="129.6" cy="197.9" r="2.3" fill="#b9bdca" opacity="0.5"/><circle cx="130.1" cy="196.1" r="2.3" fill="#b9bdca" opacity="0.5"/><circle cx="132.1" cy="197.3" r="2.3" fill="#b9bdca" opacity="0.5"/><circle cx="132.7" cy="195.9" r="2.3" fill="#b9bdca" opacity="0.5"/><circle cx="132.8" cy="201.0" r="2.3" fill="#b9bdca" opacity="0.5"/><circle cx="133.0" cy="197.5" r="2.3" fill="#b9bdca" opacity="0.5"/><circle cx="133.4" cy="196.9" r="2.3" fill="#b9bdca" opacity="0.5"/><circle cx="133.5" cy="197.1" r="2.3" fill="#b9bdca" opacity="0.5"/><circle cx="133.5" cy="197.0" r="2.3" fill="#b9bdca" opacity="0.5"/><circle cx="134.0" cy="196.0" r="2.3" fill="#b9bdca" opacity="0.5"/><circle cx="134.0" cy="196.0" r="2.3" fill="#b9bdca" opacity="0.5"/><circle cx="134.0" cy="197.9" r="2.3" fill="#b9bdca" opacity="0.5"/><circle cx="134.3" cy="197.8" r="2.3" fill="#b9bdca" opacity="0.5"/><circle cx="134.6" cy="196.2" r="2.3" fill="#b9bdca" opacity="0.5"/><circle cx="134.6" cy="197.5" r="2.3" fill="#b9bdca" opacity="0.5"/><circle cx="134.7" cy="196.9" r="2.3" fill="#b9bdca" opacity="0.5"/><circle cx="134.8" cy="195.5" r="2.3" fill="#b9bdca" opacity="0.5"/><circle cx="135.2" cy="198.1" r="2.3" fill="#b9bdca" opacity="0.5"/><circle cx="135.2" cy="187.4" r="2.3" fill="#b9bdca" opacity="0.5"/><circle cx="135.4" cy="186.2" r="2.3" fill="#b9bdca" opacity="0.5"/><circle cx="135.4" cy="196.3" r="2.3" fill="#b9bdca" opacity="0.5"/><circle cx="135.4" cy="197.2" r="2.3" fill="#b9bdca" opacity="0.5"/><circle cx="135.4" cy="197.8" r="2.3" fill="#b9bdca" opacity="0.5"/><circle cx="135.4" cy="368.0" r="2.3" fill="#b9bdca" opacity="0.5"/><circle cx="135.8" cy="184.5" r="2.3" fill="#b9bdca" opacity="0.5"/><circle cx="137.6" cy="184.6" r="2.3" fill="#b9bdca" opacity="0.5"/><circle cx="138.3" cy="185.6" r="2.3" fill="#b9bdca" opacity="0.5"/><circle cx="140.8" cy="188.7" r="2.3" fill="#b9bdca" opacity="0.5"/><circle cx="144.2" cy="185.4" r="2.3" fill="#b9bdca" opacity="0.5"/><circle cx="145.0" cy="185.2" r="2.3" fill="#b9bdca" opacity="0.5"/><circle cx="145.2" cy="186.6" r="2.3" fill="#b9bdca" opacity="0.5"/><circle cx="145.3" cy="185.3" r="2.3" fill="#b9bdca" opacity="0.5"/><circle cx="145.9" cy="185.3" r="2.3" fill="#b9bdca" opacity="0.5"/><circle cx="146.2" cy="185.0" r="2.3" fill="#b9bdca" opacity="0.5"/><circle cx="146.8" cy="184.9" r="2.3" fill="#b9bdca" opacity="0.5"/><circle cx="147.2" cy="185.1" r="2.3" fill="#b9bdca" opacity="0.5"/><circle cx="147.2" cy="185.2" r="2.3" fill="#b9bdca" opacity="0.5"/><circle cx="147.2" cy="186.4" r="2.3" fill="#b9bdca" opacity="0.5"/><circle cx="147.2" cy="183.9" r="2.3" fill="#b9bdca" opacity="0.5"/><circle cx="150.4" cy="184.4" r="2.3" fill="#b9bdca" opacity="0.5"/><circle cx="150.9" cy="184.2" r="2.3" fill="#b9bdca" opacity="0.5"/><circle cx="152.9" cy="169.3" r="2.3" fill="#b9bdca" opacity="0.5"/><circle cx="154.8" cy="168.8" r="2.3" fill="#b9bdca" opacity="0.5"/><circle cx="154.9" cy="167.7" r="2.3" fill="#b9bdca" opacity="0.5"/><circle cx="155.7" cy="201.4" r="2.3" fill="#b9bdca" opacity="0.5"/><circle cx="156.0" cy="165.0" r="2.3" fill="#b9bdca" opacity="0.5"/><circle cx="156.1" cy="198.2" r="2.3" fill="#b9bdca" opacity="0.5"/><circle cx="156.4" cy="163.7" r="2.3" fill="#b9bdca" opacity="0.5"/><circle cx="156.5" cy="163.6" r="2.3" fill="#b9bdca" opacity="0.5"/><circle cx="156.8" cy="165.9" r="2.3" fill="#b9bdca" opacity="0.5"/><circle cx="158.5" cy="165.1" r="2.3" fill="#b9bdca" opacity="0.5"/><circle cx="158.9" cy="155.9" r="2.3" fill="#b9bdca" opacity="0.5"/><circle cx="160.5" cy="196.5" r="2.3" fill="#b9bdca" opacity="0.5"/><circle cx="161.2" cy="157.4" r="2.3" fill="#b9bdca" opacity="0.5"/><circle cx="161.9" cy="155.8" r="2.3" fill="#b9bdca" opacity="0.5"/><circle cx="162.9" cy="141.9" r="2.3" fill="#b9bdca" opacity="0.5"/><circle cx="165.2" cy="156.1" r="2.3" fill="#b9bdca" opacity="0.5"/><circle cx="165.2" cy="156.4" r="2.3" fill="#b9bdca" opacity="0.5"/><circle cx="165.3" cy="141.8" r="2.3" fill="#b9bdca" opacity="0.5"/><circle cx="165.4" cy="196.0" r="2.3" fill="#b9bdca" opacity="0.5"/><circle cx="166.2" cy="131.7" r="2.3" fill="#b9bdca" opacity="0.5"/><circle cx="166.3" cy="134.1" r="2.3" fill="#b9bdca" opacity="0.5"/><circle cx="166.5" cy="141.1" r="2.3" fill="#b9bdca" opacity="0.5"/><circle cx="166.9" cy="134.0" r="2.3" fill="#b9bdca" opacity="0.5"/><circle cx="166.9" cy="130.9" r="2.3" fill="#b9bdca" opacity="0.5"/><circle cx="166.9" cy="154.2" r="2.3" fill="#b9bdca" opacity="0.5"/><circle cx="167.1" cy="133.6" r="2.3" fill="#b9bdca" opacity="0.5"/><circle cx="167.3" cy="129.5" r="2.3" fill="#b9bdca" opacity="0.5"/><circle cx="167.3" cy="130.9" r="2.3" fill="#b9bdca" opacity="0.5"/><circle cx="167.3" cy="133.4" r="2.3" fill="#b9bdca" opacity="0.5"/><circle cx="167.5" cy="131.2" r="2.3" fill="#b9bdca" opacity="0.5"/><circle cx="168.9" cy="189.8" r="2.3" fill="#b9bdca" opacity="0.5"/><circle cx="168.9" cy="133.2" r="2.3" fill="#b9bdca" opacity="0.5"/><circle cx="169.1" cy="133.5" r="2.3" fill="#b9bdca" opacity="0.5"/><circle cx="169.7" cy="130.1" r="2.3" fill="#b9bdca" opacity="0.5"/><circle cx="171.0" cy="130.3" r="2.3" fill="#b9bdca" opacity="0.5"/><circle cx="171.7" cy="303.1" r="2.3" fill="#b9bdca" opacity="0.5"/><circle cx="172.8" cy="133.2" r="2.3" fill="#b9bdca" opacity="0.5"/><circle cx="174.3" cy="144.2" r="2.3" fill="#b9bdca" opacity="0.5"/><circle cx="174.6" cy="135.3" r="2.3" fill="#b9bdca" opacity="0.5"/><circle cx="175.5" cy="133.4" r="2.3" fill="#b9bdca" opacity="0.5"/><circle cx="175.6" cy="159.9" r="2.3" fill="#b9bdca" opacity="0.5"/><circle cx="175.9" cy="130.8" r="2.3" fill="#b9bdca" opacity="0.5"/><circle cx="176.2" cy="133.2" r="2.3" fill="#b9bdca" opacity="0.5"/><circle cx="179.6" cy="130.9" r="2.3" fill="#b9bdca" opacity="0.5"/><circle cx="180.0" cy="130.9" r="2.3" fill="#b9bdca" opacity="0.5"/><circle cx="180.0" cy="133.8" r="2.3" fill="#b9bdca" opacity="0.5"/><circle cx="180.6" cy="130.4" r="2.3" fill="#b9bdca" opacity="0.5"/><circle cx="180.9" cy="153.7" r="2.3" fill="#b9bdca" opacity="0.5"/><circle cx="181.6" cy="133.3" r="2.3" fill="#b9bdca" opacity="0.5"/><circle cx="182.6" cy="156.5" r="2.3" fill="#b9bdca" opacity="0.5"/><circle cx="182.8" cy="132.3" r="2.3" fill="#b9bdca" opacity="0.5"/><circle cx="184.1" cy="147.2" r="2.3" fill="#b9bdca" opacity="0.5"/><circle cx="184.3" cy="133.6" r="2.3" fill="#b9bdca" opacity="0.5"/><circle cx="184.7" cy="129.5" r="2.3" fill="#b9bdca" opacity="0.5"/><circle cx="184.7" cy="133.3" r="2.3" fill="#b9bdca" opacity="0.5"/><circle cx="186.2" cy="133.3" r="2.3" fill="#b9bdca" opacity="0.5"/><circle cx="187.3" cy="129.5" r="2.3" fill="#b9bdca" opacity="0.5"/><circle cx="189.0" cy="130.6" r="2.3" fill="#b9bdca" opacity="0.5"/><circle cx="190.3" cy="128.9" r="2.3" fill="#b9bdca" opacity="0.5"/><circle cx="190.5" cy="132.7" r="2.3" fill="#b9bdca" opacity="0.5"/><circle cx="190.5" cy="133.1" r="2.3" fill="#b9bdca" opacity="0.5"/><circle cx="192.4" cy="129.8" r="2.3" fill="#b9bdca" opacity="0.5"/><circle cx="193.0" cy="333.8" r="2.3" fill="#b9bdca" opacity="0.5"/><circle cx="193.1" cy="128.4" r="2.3" fill="#b9bdca" opacity="0.5"/><circle cx="194.0" cy="129.8" r="2.3" fill="#b9bdca" opacity="0.5"/><circle cx="194.4" cy="128.9" r="2.3" fill="#b9bdca" opacity="0.5"/><circle cx="194.4" cy="128.9" r="2.3" fill="#b9bdca" opacity="0.5"/><circle cx="195.1" cy="128.2" r="2.3" fill="#b9bdca" opacity="0.5"/><circle cx="195.6" cy="129.7" r="2.3" fill="#b9bdca" opacity="0.5"/><circle cx="195.7" cy="142.3" r="2.3" fill="#b9bdca" opacity="0.5"/><circle cx="197.6" cy="128.8" r="2.3" fill="#b9bdca" opacity="0.5"/><circle cx="198.6" cy="161.1" r="2.3" fill="#b9bdca" opacity="0.5"/><circle cx="200.7" cy="164.4" r="2.3" fill="#b9bdca" opacity="0.5"/><circle cx="200.9" cy="248.3" r="2.3" fill="#b9bdca" opacity="0.5"/><circle cx="203.8" cy="135.4" r="2.3" fill="#b9bdca" opacity="0.5"/><circle cx="204.1" cy="128.0" r="2.3" fill="#b9bdca" opacity="0.5"/><circle cx="205.0" cy="229.0" r="2.3" fill="#b9bdca" opacity="0.5"/><circle cx="207.1" cy="128.1" r="2.3" fill="#b9bdca" opacity="0.5"/><circle cx="207.6" cy="128.6" r="2.3" fill="#b9bdca" opacity="0.5"/><circle cx="209.5" cy="128.8" r="2.3" fill="#b9bdca" opacity="0.5"/><circle cx="209.5" cy="129.6" r="2.3" fill="#b9bdca" opacity="0.5"/><circle cx="209.5" cy="130.9" r="2.3" fill="#b9bdca" opacity="0.5"/><circle cx="213.5" cy="112.8" r="2.3" fill="#b9bdca" opacity="0.5"/><circle cx="215.6" cy="110.2" r="2.3" fill="#b9bdca" opacity="0.5"/><circle cx="215.7" cy="111.6" r="2.3" fill="#b9bdca" opacity="0.5"/><circle cx="217.0" cy="111.0" r="2.3" fill="#b9bdca" opacity="0.5"/><circle cx="217.7" cy="335.1" r="2.3" fill="#b9bdca" opacity="0.5"/><circle cx="218.0" cy="111.6" r="2.3" fill="#b9bdca" opacity="0.5"/><circle cx="219.3" cy="105.5" r="2.3" fill="#b9bdca" opacity="0.5"/><circle cx="219.5" cy="108.5" r="2.3" fill="#b9bdca" opacity="0.5"/><circle cx="220.1" cy="105.1" r="2.3" fill="#b9bdca" opacity="0.5"/><circle cx="220.7" cy="103.8" r="2.3" fill="#b9bdca" opacity="0.5"/><circle cx="221.4" cy="125.8" r="2.3" fill="#b9bdca" opacity="0.5"/><circle cx="227.2" cy="103.5" r="2.3" fill="#b9bdca" opacity="0.5"/><circle cx="228.7" cy="127.8" r="2.3" fill="#b9bdca" opacity="0.5"/><circle cx="229.3" cy="334.3" r="2.3" fill="#b9bdca" opacity="0.5"/><circle cx="230.2" cy="128.6" r="2.3" fill="#b9bdca" opacity="0.5"/><circle cx="230.6" cy="128.6" r="2.3" fill="#b9bdca" opacity="0.5"/><circle cx="230.7" cy="128.6" r="2.3" fill="#b9bdca" opacity="0.5"/><circle cx="231.3" cy="256.6" r="2.3" fill="#b9bdca" opacity="0.5"/><circle cx="231.9" cy="254.6" r="2.3" fill="#b9bdca" opacity="0.5"/><circle cx="233.0" cy="128.6" r="2.3" fill="#b9bdca" opacity="0.5"/><circle cx="235.7" cy="250.1" r="2.3" fill="#b9bdca" opacity="0.5"/><circle cx="235.9" cy="161.4" r="2.3" fill="#b9bdca" opacity="0.5"/><circle cx="236.2" cy="206.6" r="2.3" fill="#b9bdca" opacity="0.5"/><circle cx="238.6" cy="113.5" r="2.3" fill="#b9bdca" opacity="0.5"/><circle cx="239.4" cy="89.6" r="2.3" fill="#b9bdca" opacity="0.5"/><circle cx="240.1" cy="90.2" r="2.3" fill="#b9bdca" opacity="0.5"/><circle cx="241.6" cy="89.3" r="2.3" fill="#b9bdca" opacity="0.5"/><circle cx="242.0" cy="87.6" r="2.3" fill="#b9bdca" opacity="0.5"/><circle cx="242.5" cy="185.0" r="2.3" fill="#b9bdca" opacity="0.5"/><circle cx="243.1" cy="131.6" r="2.3" fill="#b9bdca" opacity="0.5"/><circle cx="243.5" cy="87.8" r="2.3" fill="#b9bdca" opacity="0.5"/><circle cx="244.2" cy="85.4" r="2.3" fill="#b9bdca" opacity="0.5"/><circle cx="245.3" cy="86.8" r="2.3" fill="#b9bdca" opacity="0.5"/><circle cx="246.4" cy="88.4" r="2.3" fill="#b9bdca" opacity="0.5"/><circle cx="251.0" cy="89.5" r="2.3" fill="#b9bdca" opacity="0.5"/><circle cx="251.0" cy="155.6" r="2.3" fill="#b9bdca" opacity="0.5"/><circle cx="251.1" cy="84.4" r="2.3" fill="#b9bdca" opacity="0.5"/><circle cx="256.5" cy="89.2" r="2.3" fill="#b9bdca" opacity="0.5"/><circle cx="256.6" cy="90.5" r="2.3" fill="#b9bdca" opacity="0.5"/><circle cx="258.2" cy="87.7" r="2.3" fill="#b9bdca" opacity="0.5"/><circle cx="258.7" cy="367.9" r="2.3" fill="#b9bdca" opacity="0.5"/><circle cx="260.9" cy="164.3" r="2.3" fill="#b9bdca" opacity="0.5"/><circle cx="262.0" cy="94.6" r="2.3" fill="#b9bdca" opacity="0.5"/><circle cx="262.5" cy="89.6" r="2.3" fill="#b9bdca" opacity="0.5"/><circle cx="267.2" cy="124.6" r="2.3" fill="#b9bdca" opacity="0.5"/><circle cx="272.2" cy="146.2" r="2.3" fill="#b9bdca" opacity="0.5"/><circle cx="272.4" cy="90.5" r="2.3" fill="#b9bdca" opacity="0.5"/><circle cx="272.9" cy="87.7" r="2.3" fill="#b9bdca" opacity="0.5"/><circle cx="273.1" cy="87.7" r="2.3" fill="#b9bdca" opacity="0.5"/><circle cx="273.1" cy="89.6" r="2.3" fill="#b9bdca" opacity="0.5"/><circle cx="276.7" cy="93.0" r="2.3" fill="#b9bdca" opacity="0.5"/><circle cx="278.0" cy="85.5" r="2.3" fill="#b9bdca" opacity="0.5"/><circle cx="288.6" cy="334.8" r="2.3" fill="#b9bdca" opacity="0.5"/><circle cx="289.8" cy="86.3" r="2.3" fill="#b9bdca" opacity="0.5"/><circle cx="293.4" cy="85.5" r="2.3" fill="#b9bdca" opacity="0.5"/><circle cx="294.0" cy="84.6" r="2.3" fill="#b9bdca" opacity="0.5"/><circle cx="295.5" cy="87.8" r="2.3" fill="#b9bdca" opacity="0.5"/><circle cx="296.1" cy="84.4" r="2.3" fill="#b9bdca" opacity="0.5"/><circle cx="296.5" cy="84.8" r="2.3" fill="#b9bdca" opacity="0.5"/><circle cx="297.5" cy="87.4" r="2.3" fill="#b9bdca" opacity="0.5"/><circle cx="303.2" cy="84.4" r="2.3" fill="#b9bdca" opacity="0.5"/><circle cx="328.3" cy="89.3" r="2.3" fill="#b9bdca" opacity="0.5"/><circle cx="332.8" cy="88.6" r="2.3" fill="#b9bdca" opacity="0.5"/><circle cx="332.8" cy="92.1" r="2.3" fill="#b9bdca" opacity="0.5"/><circle cx="333.8" cy="156.8" r="2.3" fill="#b9bdca" opacity="0.5"/><circle cx="348.2" cy="201.6" r="2.3" fill="#b9bdca" opacity="0.5"/><circle cx="358.7" cy="315.6" r="2.3" fill="#b9bdca" opacity="0.5"/><circle cx="387.6" cy="87.7" r="2.3" fill="#b9bdca" opacity="0.5"/><circle cx="396.3" cy="87.6" r="2.3" fill="#b9bdca" opacity="0.5"/><circle cx="404.0" cy="87.2" r="2.3" fill="#b9bdca" opacity="0.5"/><circle cx="405.8" cy="88.8" r="2.3" fill="#b9bdca" opacity="0.5"/><circle cx="406.5" cy="89.2" r="2.3" fill="#b9bdca" opacity="0.5"/><circle cx="406.9" cy="90.9" r="2.3" fill="#b9bdca" opacity="0.5"/><circle cx="409.1" cy="87.7" r="2.3" fill="#b9bdca" opacity="0.5"/><circle cx="416.9" cy="88.6" r="2.3" fill="#b9bdca" opacity="0.5"/><circle cx="417.9" cy="89.7" r="2.3" fill="#b9bdca" opacity="0.5"/><circle cx="418.6" cy="88.2" r="2.3" fill="#b9bdca" opacity="0.5"/><circle cx="433.2" cy="75.8" r="2.3" fill="#b9bdca" opacity="0.5"/><circle cx="434.3" cy="75.7" r="2.3" fill="#b9bdca" opacity="0.5"/><circle cx="435.2" cy="76.7" r="2.3" fill="#b9bdca" opacity="0.5"/><circle cx="435.2" cy="75.8" r="2.3" fill="#b9bdca" opacity="0.5"/><circle cx="435.7" cy="75.3" r="2.3" fill="#b9bdca" opacity="0.5"/><circle cx="435.9" cy="74.7" r="2.3" fill="#b9bdca" opacity="0.5"/><circle cx="436.0" cy="83.4" r="2.3" fill="#b9bdca" opacity="0.5"/><circle cx="436.4" cy="76.2" r="2.3" fill="#b9bdca" opacity="0.5"/><circle cx="436.7" cy="78.1" r="2.3" fill="#b9bdca" opacity="0.5"/><circle cx="437.1" cy="74.7" r="2.3" fill="#b9bdca" opacity="0.5"/><circle cx="439.5" cy="89.3" r="2.3" fill="#b9bdca" opacity="0.5"/><circle cx="444.4" cy="74.4" r="2.3" fill="#b9bdca" opacity="0.5"/><circle cx="452.2" cy="74.4" r="2.3" fill="#b9bdca" opacity="0.5"/><circle cx="453.4" cy="335.1" r="2.3" fill="#b9bdca" opacity="0.5"/><circle cx="453.4" cy="81.7" r="2.3" fill="#b9bdca" opacity="0.5"/><circle cx="454.4" cy="74.6" r="2.3" fill="#b9bdca" opacity="0.5"/><circle cx="454.4" cy="82.1" r="2.3" fill="#b9bdca" opacity="0.5"/><circle cx="454.4" cy="73.9" r="2.3" fill="#b9bdca" opacity="0.5"/><circle cx="456.6" cy="76.2" r="2.3" fill="#b9bdca" opacity="0.5"/><circle cx="457.0" cy="82.1" r="2.3" fill="#b9bdca" opacity="0.5"/><circle cx="457.3" cy="74.2" r="2.3" fill="#b9bdca" opacity="0.5"/><circle cx="457.3" cy="75.0" r="2.3" fill="#b9bdca" opacity="0.5"/><circle cx="457.8" cy="73.6" r="2.3" fill="#b9bdca" opacity="0.5"/><circle cx="457.8" cy="83.3" r="2.3" fill="#b9bdca" opacity="0.5"/><circle cx="457.8" cy="83.8" r="2.3" fill="#b9bdca" opacity="0.5"/><circle cx="457.8" cy="78.1" r="2.3" fill="#b9bdca" opacity="0.5"/><circle cx="457.8" cy="81.5" r="2.3" fill="#b9bdca" opacity="0.5"/><circle cx="457.8" cy="83.0" r="2.3" fill="#b9bdca" opacity="0.5"/><circle cx="457.8" cy="83.7" r="2.3" fill="#b9bdca" opacity="0.5"/><circle cx="460.9" cy="82.7" r="2.3" fill="#b9bdca" opacity="0.5"/><circle cx="461.6" cy="77.8" r="2.3" fill="#b9bdca" opacity="0.5"/><circle cx="463.2" cy="69.8" r="2.3" fill="#b9bdca" opacity="0.5"/><circle cx="463.7" cy="75.9" r="2.3" fill="#b9bdca" opacity="0.5"/><circle cx="463.9" cy="74.3" r="2.3" fill="#b9bdca" opacity="0.5"/><circle cx="463.9" cy="77.4" r="2.3" fill="#b9bdca" opacity="0.5"/><circle cx="463.9" cy="80.6" r="2.3" fill="#b9bdca" opacity="0.5"/><circle cx="463.9" cy="81.8" r="2.3" fill="#b9bdca" opacity="0.5"/><circle cx="465.0" cy="76.9" r="2.3" fill="#b9bdca" opacity="0.5"/><circle cx="465.0" cy="82.8" r="2.3" fill="#b9bdca" opacity="0.5"/><circle cx="465.0" cy="83.0" r="2.3" fill="#b9bdca" opacity="0.5"/><circle cx="465.0" cy="83.1" r="2.3" fill="#b9bdca" opacity="0.5"/><circle cx="465.5" cy="69.1" r="2.3" fill="#b9bdca" opacity="0.5"/><circle cx="466.8" cy="75.5" r="2.3" fill="#b9bdca" opacity="0.5"/><circle cx="467.5" cy="74.3" r="2.3" fill="#b9bdca" opacity="0.5"/><circle cx="487.1" cy="74.0" r="2.3" fill="#b9bdca" opacity="0.5"/><circle cx="510.5" cy="73.4" r="2.3" fill="#b9bdca" opacity="0.5"/><circle cx="510.7" cy="75.9" r="2.3" fill="#b9bdca" opacity="0.5"/><circle cx="510.7" cy="76.3" r="2.3" fill="#b9bdca" opacity="0.5"/><circle cx="510.8" cy="76.0" r="2.3" fill="#b9bdca" opacity="0.5"/><circle cx="510.8" cy="76.8" r="2.3" fill="#b9bdca" opacity="0.5"/><circle cx="510.8" cy="81.2" r="2.3" fill="#b9bdca" opacity="0.5"/><circle cx="510.8" cy="83.4" r="2.3" fill="#b9bdca" opacity="0.5"/><circle cx="527.3" cy="76.6" r="2.3" fill="#b9bdca" opacity="0.5"/><circle cx="528.4" cy="76.7" r="2.3" fill="#b9bdca" opacity="0.5"/><circle cx="528.4" cy="82.8" r="2.3" fill="#b9bdca" opacity="0.5"/><circle cx="528.4" cy="82.8" r="2.3" fill="#b9bdca" opacity="0.5"/><circle cx="528.4" cy="83.3" r="2.3" fill="#b9bdca" opacity="0.5"/><circle cx="531.9" cy="233.4" r="2.3" fill="#b9bdca" opacity="0.5"/><circle cx="532.9" cy="228.9" r="2.3" fill="#b9bdca" opacity="0.5"/><circle cx="533.9" cy="198.3" r="2.3" fill="#b9bdca" opacity="0.5"/><circle cx="555.4" cy="73.4" r="2.3" fill="#b9bdca" opacity="0.5"/><circle cx="561.4" cy="192.4" r="2.3" fill="#b9bdca" opacity="0.5"/><circle cx="563.5" cy="75.3" r="2.3" fill="#b9bdca" opacity="0.5"/><circle cx="564.0" cy="74.0" r="2.3" fill="#b9bdca" opacity="0.5"/><circle cx="565.4" cy="194.4" r="2.3" fill="#b9bdca" opacity="0.5"/><circle cx="567.5" cy="168.6" r="2.3" fill="#b9bdca" opacity="0.5"/><circle cx="568.7" cy="77.1" r="2.3" fill="#b9bdca" opacity="0.5"/><circle cx="568.7" cy="99.5" r="2.3" fill="#b9bdca" opacity="0.5"/><circle cx="585.3" cy="71.4" r="2.3" fill="#b9bdca" opacity="0.5"/><circle cx="585.3" cy="73.5" r="2.3" fill="#b9bdca" opacity="0.5"/><circle cx="591.2" cy="72.4" r="2.3" fill="#b9bdca" opacity="0.5"/><circle cx="615.4" cy="83.0" r="2.3" fill="#b9bdca" opacity="0.5"/><circle cx="615.7" cy="72.1" r="2.3" fill="#b9bdca" opacity="0.5"/><circle cx="616.1" cy="71.6" r="2.3" fill="#b9bdca" opacity="0.5"/><circle cx="616.8" cy="75.5" r="2.3" fill="#b9bdca" opacity="0.5"/><circle cx="617.2" cy="73.7" r="2.3" fill="#b9bdca" opacity="0.5"/><circle cx="618.2" cy="72.9" r="2.3" fill="#b9bdca" opacity="0.5"/><circle cx="618.7" cy="73.4" r="2.3" fill="#b9bdca" opacity="0.5"/><circle cx="665.9" cy="85.2" r="2.3" fill="#b9bdca" opacity="0.5"/><circle cx="665.9" cy="256.6" r="2.3" fill="#b9bdca" opacity="0.5"/><circle cx="665.9" cy="335.3" r="2.3" fill="#b9bdca" opacity="0.5"/><circle cx="666.2" cy="86.8" r="2.3" fill="#b9bdca" opacity="0.5"/><circle cx="666.6" cy="71.5" r="2.3" fill="#b9bdca" opacity="0.5"/><circle cx="667.9" cy="71.0" r="2.3" fill="#b9bdca" opacity="0.5"/><circle cx="668.6" cy="71.5" r="2.3" fill="#b9bdca" opacity="0.5"/><circle cx="668.7" cy="55.0" r="2.3" fill="#b9bdca" opacity="0.5"/><circle cx="675.3" cy="83.1" r="2.3" fill="#b9bdca" opacity="0.5"/><circle cx="676.9" cy="74.7" r="2.3" fill="#b9bdca" opacity="0.5"/><circle cx="677.0" cy="59.3" r="2.3" fill="#b9bdca" opacity="0.5"/><circle cx="677.0" cy="79.9" r="2.3" fill="#b9bdca" opacity="0.5"/><circle cx="677.2" cy="74.1" r="2.3" fill="#b9bdca" opacity="0.5"/><circle cx="677.5" cy="72.7" r="2.3" fill="#b9bdca" opacity="0.5"/><circle cx="677.5" cy="73.8" r="2.3" fill="#b9bdca" opacity="0.5"/><circle cx="677.5" cy="75.9" r="2.3" fill="#b9bdca" opacity="0.5"/><circle cx="677.9" cy="74.1" r="2.3" fill="#b9bdca" opacity="0.5"/><circle cx="678.2" cy="73.5" r="2.3" fill="#b9bdca" opacity="0.5"/><circle cx="678.6" cy="74.2" r="2.3" fill="#b9bdca" opacity="0.5"/><circle cx="679.0" cy="71.5" r="2.3" fill="#b9bdca" opacity="0.5"/><circle cx="679.9" cy="74.3" r="2.3" fill="#b9bdca" opacity="0.5"/><circle cx="685.2" cy="73.2" r="2.3" fill="#b9bdca" opacity="0.5"/><circle cx="685.2" cy="73.6" r="2.3" fill="#b9bdca" opacity="0.5"/><circle cx="685.2" cy="73.8" r="2.3" fill="#b9bdca" opacity="0.5"/><circle cx="695.4" cy="73.3" r="2.3" fill="#b9bdca" opacity="0.5"/><circle cx="695.4" cy="73.4" r="2.3" fill="#b9bdca" opacity="0.5"/><circle cx="718.7" cy="96.1" r="2.3" fill="#b9bdca" opacity="0.5"/><circle cx="813.8" cy="95.6" r="2.3" fill="#b9bdca" opacity="0.5"/><circle cx="845.3" cy="74.8" r="2.3" fill="#b9bdca" opacity="0.5"/><circle cx="846.8" cy="72.3" r="2.3" fill="#b9bdca" opacity="0.5"/><circle cx="855.9" cy="79.9" r="2.3" fill="#b9bdca" opacity="0.5"/><circle cx="855.9" cy="80.6" r="2.3" fill="#b9bdca" opacity="0.5"/><circle cx="873.9" cy="73.3" r="2.3" fill="#b9bdca" opacity="0.5"/><circle cx="873.9" cy="72.8" r="2.3" fill="#b9bdca" opacity="0.5"/><circle cx="873.9" cy="73.0" r="2.3" fill="#b9bdca" opacity="0.5"/><circle cx="873.9" cy="73.2" r="2.3" fill="#b9bdca" opacity="0.5"/><circle cx="873.9" cy="73.5" r="2.3" fill="#b9bdca" opacity="0.5"/><circle cx="873.9" cy="73.6" r="2.3" fill="#b9bdca" opacity="0.5"/><circle cx="873.9" cy="73.7" r="2.3" fill="#b9bdca" opacity="0.5"/><circle cx="874.4" cy="73.1" r="2.3" fill="#b9bdca" opacity="0.5"/><circle cx="874.4" cy="73.2" r="2.3" fill="#b9bdca" opacity="0.5"/><circle cx="874.4" cy="74.3" r="2.3" fill="#b9bdca" opacity="0.5"/><circle cx="874.4" cy="74.5" r="2.3" fill="#b9bdca" opacity="0.5"/><circle cx="874.4" cy="72.8" r="2.3" fill="#b9bdca" opacity="0.5"/><circle cx="874.8" cy="74.7" r="2.3" fill="#b9bdca" opacity="0.5"/><circle cx="918.3" cy="332.5" r="2.3" fill="#b9bdca" opacity="0.5"/><circle cx="970.4" cy="117.5" r="2.3" fill="#b9bdca" opacity="0.5"/><circle cx="970.4" cy="211.0" r="2.3" fill="#b9bdca" opacity="0.5"/><circle cx="983.6" cy="93.9" r="2.3" fill="#b9bdca" opacity="0.5"/><circle cx="1003.9" cy="74.9" r="2.3" fill="#b9bdca" opacity="0.5"/><circle cx="1004.3" cy="73.4" r="2.3" fill="#b9bdca" opacity="0.5"/><circle cx="1004.6" cy="72.9" r="2.3" fill="#b9bdca" opacity="0.5"/><circle cx="1005.0" cy="74.2" r="2.3" fill="#b9bdca" opacity="0.5"/><circle cx="1005.1" cy="74.9" r="2.3" fill="#b9bdca" opacity="0.5"/><circle cx="1005.4" cy="74.9" r="2.3" fill="#b9bdca" opacity="0.5"/><circle cx="1005.7" cy="73.6" r="2.3" fill="#b9bdca" opacity="0.5"/><circle cx="1005.9" cy="74.5" r="2.3" fill="#b9bdca" opacity="0.5"/><circle cx="1006.1" cy="73.6" r="2.3" fill="#b9bdca" opacity="0.5"/><circle cx="1006.6" cy="74.2" r="2.3" fill="#b9bdca" opacity="0.5"/><circle cx="1007.3" cy="72.3" r="2.3" fill="#b9bdca" opacity="0.5"/><circle cx="1007.7" cy="70.5" r="2.3" fill="#b9bdca" opacity="0.5"/><circle cx="1008.1" cy="73.5" r="2.3" fill="#b9bdca" opacity="0.5"/><circle cx="1008.2" cy="72.7" r="2.3" fill="#b9bdca" opacity="0.5"/><circle cx="1008.5" cy="74.4" r="2.3" fill="#b9bdca" opacity="0.5"/><circle cx="1030.9" cy="172.8" r="2.3" fill="#b9bdca" opacity="0.5"/><circle cx="1031.1" cy="172.8" r="2.3" fill="#b9bdca" opacity="0.5"/><circle cx="1032.0" cy="94.2" r="2.3" fill="#b9bdca" opacity="0.5"/><path d="M158.9 152.3L162.5 155.9L158.9 159.5L155.3 155.9Z" fill="#2b3a7a" opacity="0.8" stroke="none" stroke-width="0"/><path d="M165.3 138.2L168.9 141.8L165.3 145.4L161.7 141.8Z" fill="#2b3a7a" opacity="0.8" stroke="none" stroke-width="0"/><path d="M166.2 128.1L169.8 131.7L166.2 135.3L162.6 131.7Z" fill="#2b3a7a" opacity="0.8" stroke="none" stroke-width="0"/><path d="M166.3 130.5L169.9 134.1L166.3 137.7L162.7 134.1Z" fill="#2b3a7a" opacity="0.8" stroke="none" stroke-width="0"/><path d="M166.9 127.3L170.5 130.9L166.9 134.5L163.3 130.9Z" fill="#2b3a7a" opacity="0.8" stroke="none" stroke-width="0"/><path d="M167.3 125.9L170.9 129.5L167.3 133.1L163.7 129.5Z" fill="#2b3a7a" opacity="0.8" stroke="none" stroke-width="0"/><path d="M167.3 127.3L170.9 130.9L167.3 134.5L163.7 130.9Z" fill="#2b3a7a" opacity="0.8" stroke="none" stroke-width="0"/><path d="M187.3 125.9L190.9 129.5L187.3 133.1L183.7 129.5Z" fill="#2b3a7a" opacity="0.8" stroke="none" stroke-width="0"/><path d="M190.3 125.3L193.9 128.9L190.3 132.5L186.7 128.9Z" fill="#2b3a7a" opacity="0.8" stroke="none" stroke-width="0"/><path d="M193.1 124.8L196.7 128.4L193.1 132.0L189.5 128.4Z" fill="#2b3a7a" opacity="0.8" stroke="none" stroke-width="0"/><path d="M195.1 124.6L198.7 128.2L195.1 131.8L191.5 128.2Z" fill="#2b3a7a" opacity="0.8" stroke="none" stroke-width="0"/><path d="M204.1 124.4L207.7 128.0L204.1 131.6L200.5 128.0Z" fill="#2b3a7a" opacity="0.8" stroke="none" stroke-width="0"/><path d="M213.5 109.2L217.1 112.8L213.5 116.4L209.9 112.8Z" fill="#2b3a7a" opacity="0.8" stroke="none" stroke-width="0"/><path d="M218.0 108.0L221.6 111.6L218.0 115.2L214.4 111.6Z" fill="#2b3a7a" opacity="0.8" stroke="none" stroke-width="0"/><path d="M219.3 101.9L222.9 105.5L219.3 109.1L215.7 105.5Z" fill="#2b3a7a" opacity="0.8" stroke="none" stroke-width="0"/><path d="M219.5 104.9L223.1 108.5L219.5 112.1L215.9 108.5Z" fill="#2b3a7a" opacity="0.8" stroke="none" stroke-width="0"/><path d="M220.1 101.5L223.7 105.1L220.1 108.7L216.5 105.1Z" fill="#2b3a7a" opacity="0.8" stroke="none" stroke-width="0"/><path d="M220.7 100.2L224.3 103.8L220.7 107.4L217.1 103.8Z" fill="#2b3a7a" opacity="0.8" stroke="none" stroke-width="0"/><path d="M227.2 99.9L230.8 103.5L227.2 107.1L223.6 103.5Z" fill="#2b3a7a" opacity="0.8" stroke="none" stroke-width="0"/><path d="M239.4 86.0L243.0 89.6L239.4 93.2L235.8 89.6Z" fill="#2b3a7a" opacity="0.8" stroke="none" stroke-width="0"/><path d="M241.6 85.7L245.2 89.3L241.6 92.9L238.0 89.3Z" fill="#2b3a7a" opacity="0.8" stroke="none" stroke-width="0"/><path d="M242.0 84.0L245.6 87.6L242.0 91.2L238.4 87.6Z" fill="#2b3a7a" opacity="0.8" stroke="none" stroke-width="0"/><path d="M244.2 81.8L247.8 85.4L244.2 89.0L240.6 85.4Z" fill="#2b3a7a" opacity="0.8" stroke="none" stroke-width="0"/><path d="M251.1 80.8L254.7 84.4L251.1 88.0L247.5 84.4Z" fill="#2b3a7a" opacity="0.8" stroke="none" stroke-width="0"/><path d="M303.2 80.8L306.8 84.4L303.2 88.0L299.6 84.4Z" fill="#2b3a7a" opacity="0.8" stroke="none" stroke-width="0"/><path d="M433.2 72.2L436.8 75.8L433.2 79.4L429.6 75.8Z" fill="#2b3a7a" opacity="0.8" stroke="none" stroke-width="0"/><path d="M434.3 72.1L437.9 75.7L434.3 79.3L430.7 75.7Z" fill="#2b3a7a" opacity="0.8" stroke="none" stroke-width="0"/><path d="M435.7 71.7L439.3 75.3L435.7 78.9L432.1 75.3Z" fill="#2b3a7a" opacity="0.8" stroke="none" stroke-width="0"/><path d="M435.9 71.1L439.5 74.7L435.9 78.3L432.3 74.7Z" fill="#2b3a7a" opacity="0.8" stroke="none" stroke-width="0"/><path d="M437.1 71.1L440.7 74.7L437.1 78.3L433.5 74.7Z" fill="#2b3a7a" opacity="0.8" stroke="none" stroke-width="0"/><path d="M444.4 70.8L448.0 74.4L444.4 78.0L440.8 74.4Z" fill="#2b3a7a" opacity="0.8" stroke="none" stroke-width="0"/><path d="M454.4 70.3L458.0 73.9L454.4 77.5L450.8 73.9Z" fill="#2b3a7a" opacity="0.8" stroke="none" stroke-width="0"/><path d="M457.8 70.0L461.4 73.6L457.8 77.2L454.2 73.6Z" fill="#2b3a7a" opacity="0.8" stroke="none" stroke-width="0"/><path d="M510.5 69.8L514.1 73.4L510.5 77.0L506.9 73.4Z" fill="#2b3a7a" opacity="0.8" stroke="none" stroke-width="0"/><path d="M555.4 69.8L559.0 73.4L555.4 77.0L551.8 73.4Z" fill="#2b3a7a" opacity="0.8" stroke="none" stroke-width="0"/><path d="M585.3 67.8L588.9 71.4L585.3 75.0L581.7 71.4Z" fill="#2b3a7a" opacity="0.8" stroke="none" stroke-width="0"/><path d="M60.0 335.3L61.6 335.3L61.6 335.1L63.9 335.1L63.9 320.7L68.3 320.7L68.3 319.9L70.0 319.9L70.0 315.3L70.5 315.3L70.5 314.9L71.2 314.9L71.2 314.9L97.9 314.9L97.9 238.7L98.3 238.7L98.3 229.0L98.7 229.0L98.7 222.3L99.3 222.3L99.3 220.6L99.3 220.6L99.3 220.5L99.6 220.5L99.6 214.2L100.6 214.2L100.6 214.1L101.0 214.1L101.0 213.7L101.2 213.7L101.2 213.5L101.5 213.5L101.5 212.7L102.8 212.7L102.8 212.1L103.1 212.1L103.1 212.0L106.7 212.0L106.7 206.7L110.7 206.7L110.7 204.9L112.1 204.9L112.1 204.6L113.1 204.6L113.1 201.9L114.9 201.9L114.9 201.8L115.8 201.8L115.8 201.0L116.3 201.0L116.3 200.0L118.9 200.0L118.9 200.0L120.0 200.0L120.0 199.7L128.7 199.7L128.7 195.5L135.2 195.5L135.2 187.4L135.4 187.4L135.4 186.2L135.8 186.2L135.8 184.5L147.2 184.5L147.2 183.9L152.9 183.9L152.9 169.3L154.8 169.3L154.8 168.8L154.9 168.8L154.9 167.7L156.0 167.7L156.0 165.0L156.4 165.0L156.4 163.7L156.5 163.7L156.5 163.6L158.9 163.6L158.9 155.9L161.9 155.9L161.9 155.8L162.9 155.8L162.9 141.9L165.3 141.9L165.3 141.8L166.2 141.8L166.2 131.7L166.9 131.7L166.9 130.9L167.3 130.9L167.3 129.5L187.3 129.5L187.3 129.5L190.3 129.5L190.3 128.9L193.1 128.9L193.1 128.4L195.1 128.4L195.1 128.2L204.1 128.2L204.1 128.0L213.5 128.0L213.5 112.8L215.6 112.8L215.6 110.2L219.3 110.2L219.3 105.5L220.1 105.5L220.1 105.1L220.7 105.1L220.7 103.8L227.2 103.8L227.2 103.5L239.4 103.5L239.4 89.6L241.6 89.6L241.6 89.3L242.0 89.3L242.0 87.6L244.2 87.6L244.2 85.4L251.1 85.4L251.1 84.4L303.2 84.4L303.2 84.4L433.2 84.4L433.2 75.8L434.3 75.8L434.3 75.7L435.7 75.7L435.7 75.3L435.9 75.3L435.9 74.7L437.1 74.7L437.1 74.7L444.4 74.7L444.4 74.4L454.4 74.4L454.4 73.9L457.8 73.9L457.8 73.6L463.2 73.6L463.2 69.8L465.5 69.8L465.5 69.1L668.7 69.1L668.7 55.0L1032.0 55.0" fill="none" stroke="#6675b0" stroke-width="1.6" stroke-dasharray="5 3" opacity="0.75"/><path d="M158.9 155.9L165.3 155.9L165.3 141.8L166.2 141.8L166.2 131.7L166.9 131.7L166.9 130.9L167.3 130.9L167.3 129.5L187.3 129.5L187.3 129.5L190.3 129.5L190.3 128.9L193.1 128.9L193.1 128.4L195.1 128.4L195.1 128.2L204.1 128.2L204.1 128.0L213.5 128.0L213.5 112.8L218.0 112.8L218.0 111.6L219.3 111.6L219.3 105.5L220.1 105.5L220.1 105.1L220.7 105.1L220.7 103.8L227.2 103.8L227.2 103.5L239.4 103.5L239.4 89.6L241.6 89.6L241.6 89.3L242.0 89.3L242.0 87.6L244.2 87.6L244.2 85.4L251.1 85.4L251.1 84.4L303.2 84.4L303.2 84.4L433.2 84.4L433.2 75.8L434.3 75.8L434.3 75.7L435.7 75.7L435.7 75.3L435.9 75.3L435.9 74.7L437.1 74.7L437.1 74.7L444.4 74.7L444.4 74.4L454.4 74.4L454.4 73.9L457.8 73.9L457.8 73.6L463.2 73.6L463.2 73.5L510.5 73.5L510.5 73.4L555.4 73.4L555.4 73.4L585.3 73.4L585.3 71.4L1032.0 71.4" fill="none" stroke="#2b3a7a" stroke-width="2.6"/><path d="M391.0 246.9L397.5 253.4L391.0 259.9L384.5 253.4Z" fill="#c5961a" opacity="1.0" stroke="#ffffff" stroke-width="1.4"/><path d="M455.7 206.5L462.2 213.0L455.7 219.5L449.2 213.0Z" fill="#c5961a" opacity="1.0" stroke="#ffffff" stroke-width="1.4"/><path d="M463.2 67.0L469.7 73.5L463.2 80.0L456.7 73.5Z" fill="#c5961a" opacity="1.0" stroke="#ffffff" stroke-width="1.4"/><path d="M518.6 240.8L525.1 247.3L518.6 253.8L512.1 247.3Z" fill="#c5961a" opacity="1.0" stroke="#ffffff" stroke-width="1.4"/><path d="M519.0 238.0L525.5 244.5L519.0 251.0L512.5 244.5Z" fill="#c5961a" opacity="1.0" stroke="#ffffff" stroke-width="1.4"/><text x="1042" y="53.0" font-size="11.5" fill="#6675b0">– – raw best 535.9</text><text x="1042" y="67.0" font-size="10" fill="#8a8fa3">unverified (pending)</text><path d="M585.3 64.9L591.8 71.4L585.3 77.9L578.8 71.4Z" fill="#2b3a7a" opacity="1.0" stroke="#ffffff" stroke-width="1.4"/><text x="1042" y="99.4" font-size="12.5" fill="#2b3a7a" font-weight="bold">◆ verified 510.1</text><text x="1042" y="115.4" font-size="10.5" fill="#3a3f55">top verified</text><text x="60" y="24" font-size="13" font-weight="bold" fill="#3a3f55" letter-spacing="1.2">SCORE EVOLUTION — gemma-challenge (tok/s)</text><circle cx="452" cy="20" r="3" fill="#b9bdca"/><text x="460" y="24" font-size="10.5" fill="#8a8fa3">all results</text><path d="M544.0 16.4L547.6 20.0L544.0 23.6L540.4 20.0Z" fill="#2b3a7a" opacity="1.0" stroke="none" stroke-width="0"/><text x="552" y="24" font-size="10.5" fill="#8a8fa3">verified</text><path d="M620.0 15.5L624.5 20.0L620.0 24.5L615.5 20.0Z" fill="#c5961a" opacity="1.0" stroke="#fff" stroke-width="1"/><text x="629" y="24" font-size="10.5" fill="#8a8fa3">mikasa-inbound (us)</text></svg>