<svg viewBox="0 0 1200 440" xmlns="http://www.w3.org/2000/svg" font-family="ui-sans-serif,system-ui,-apple-system,sans-serif"><rect x="0" y="0" width="1200" height="440" fill="#ffffff"/><rect x="60" y="46" width="972" height="350" fill="#f3f4fb"/><line x1="60" y1="396.0" x2="1032" y2="396.0" stroke="#e3e5ef" stroke-width="1"/><text x="52" y="400.0" text-anchor="end" font-size="11" fill="#8a8fa3">0</text><line x1="60" y1="332.4" x2="1032" y2="332.4" stroke="#e3e5ef" stroke-width="1"/><text x="52" y="336.4" text-anchor="end" font-size="11" fill="#8a8fa3">100</text><line x1="60" y1="268.7" x2="1032" y2="268.7" stroke="#e3e5ef" stroke-width="1"/><text x="52" y="272.7" text-anchor="end" font-size="11" fill="#8a8fa3">200</text><line x1="60" y1="205.1" x2="1032" y2="205.1" stroke="#e3e5ef" stroke-width="1"/><text x="52" y="209.1" text-anchor="end" font-size="11" fill="#8a8fa3">300</text><line x1="60" y1="141.5" x2="1032" y2="141.5" stroke="#e3e5ef" stroke-width="1"/><text x="52" y="145.5" text-anchor="end" font-size="11" fill="#8a8fa3">400</text><line x1="60" y1="77.8" x2="1032" y2="77.8" stroke="#e3e5ef" stroke-width="1"/><text x="52" y="81.8" text-anchor="end" font-size="11" fill="#8a8fa3">500</text><line x1="152.2" y1="46" x2="152.2" y2="396" stroke="#e3e5ef" stroke-width="1"/><text x="152.2" y="414.0" text-anchor="middle" font-size="11" fill="#8a8fa3">Jun 10</text><line x1="283.8" y1="46" x2="283.8" y2="396" stroke="#e3e5ef" stroke-width="1"/><text x="283.8" y="414.0" text-anchor="middle" font-size="11" fill="#8a8fa3">Jun 12</text><line x1="415.3" y1="46" x2="415.3" y2="396" stroke="#e3e5ef" stroke-width="1"/><text x="415.3" y="414.0" text-anchor="middle" font-size="11" fill="#8a8fa3">Jun 14</text><line x1="546.9" y1="46" x2="546.9" y2="396" stroke="#e3e5ef" stroke-width="1"/><text x="546.9" y="414.0" text-anchor="middle" font-size="11" fill="#8a8fa3">Jun 16</text><line x1="678.4" y1="46" x2="678.4" y2="396" stroke="#e3e5ef" stroke-width="1"/><text x="678.4" y="414.0" text-anchor="middle" font-size="11" fill="#8a8fa3">Jun 18</text><line x1="810.0" y1="46" x2="810.0" y2="396" stroke="#e3e5ef" stroke-width="1"/><text x="810.0" y="414.0" text-anchor="middle" font-size="11" fill="#8a8fa3">Jun 20</text><line x1="941.6" y1="46" x2="941.6" y2="396" stroke="#e3e5ef" stroke-width="1"/><text x="941.6" y="414.0" text-anchor="middle" font-size="11" fill="#8a8fa3">Jun 22</text><circle cx="60.0" cy="335.3" r="2.3" fill="#b9bdca" opacity="0.5"/><circle cx="63.2" cy="335.1" r="2.3" fill="#b9bdca" opacity="0.5"/><circle cx="66.3" cy="368.0" r="2.3" fill="#b9bdca" opacity="0.5"/><circle cx="67.6" cy="320.7" r="2.3" fill="#b9bdca" opacity="0.5"/><circle cx="76.4" cy="319.9" r="2.3" fill="#b9bdca" opacity="0.5"/><circle cx="76.9" cy="320.6" r="2.3" fill="#b9bdca" opacity="0.5"/><circle cx="79.6" cy="315.3" r="2.3" fill="#b9bdca" opacity="0.5"/><circle cx="80.2" cy="319.7" r="2.3" fill="#b9bdca" opacity="0.5"/><circle cx="80.5" cy="314.9" r="2.3" fill="#b9bdca" opacity="0.5"/><circle cx="81.6" cy="315.5" r="2.3" fill="#b9bdca" opacity="0.5"/><circle cx="81.9" cy="314.9" r="2.3" fill="#b9bdca" opacity="0.5"/><circle cx="82.8" cy="315.4" r="2.3" fill="#b9bdca" opacity="0.5"/><circle cx="84.4" cy="315.0" r="2.3" fill="#b9bdca" opacity="0.5"/><circle cx="134.3" cy="238.7" r="2.3" fill="#b9bdca" opacity="0.5"/><circle cx="134.7" cy="315.0" r="2.3" fill="#b9bdca" opacity="0.5"/><circle cx="135.1" cy="229.0" r="2.3" fill="#b9bdca" opacity="0.5"/><circle cx="136.0" cy="222.3" r="2.3" fill="#b9bdca" opacity="0.5"/><circle cx="136.7" cy="228.0" r="2.3" fill="#b9bdca" opacity="0.5"/><circle cx="136.9" cy="223.3" r="2.3" fill="#b9bdca" opacity="0.5"/><circle cx="137.0" cy="220.6" r="2.3" fill="#b9bdca" opacity="0.5"/><circle cx="137.2" cy="220.5" r="2.3" fill="#b9bdca" opacity="0.5"/><circle cx="137.4" cy="223.2" r="2.3" fill="#b9bdca" opacity="0.5"/><circle cx="137.8" cy="214.2" r="2.3" fill="#b9bdca" opacity="0.5"/><circle cx="137.9" cy="222.1" r="2.3" fill="#b9bdca" opacity="0.5"/><circle cx="138.2" cy="220.7" r="2.3" fill="#b9bdca" opacity="0.5"/><circle cx="138.8" cy="218.5" r="2.3" fill="#b9bdca" opacity="0.5"/><circle cx="139.0" cy="215.2" r="2.3" fill="#b9bdca" opacity="0.5"/><circle cx="139.3" cy="214.3" r="2.3" fill="#b9bdca" opacity="0.5"/><circle cx="139.4" cy="219.2" r="2.3" fill="#b9bdca" opacity="0.5"/><circle cx="139.8" cy="214.1" r="2.3" fill="#b9bdca" opacity="0.5"/><circle cx="140.1" cy="215.2" r="2.3" fill="#b9bdca" opacity="0.5"/><circle cx="140.3" cy="213.7" r="2.3" fill="#b9bdca" opacity="0.5"/><circle cx="140.8" cy="213.5" r="2.3" fill="#b9bdca" opacity="0.5"/><circle cx="141.1" cy="214.8" r="2.3" fill="#b9bdca" opacity="0.5"/><circle cx="141.1" cy="217.7" r="2.3" fill="#b9bdca" opacity="0.5"/><circle cx="141.4" cy="212.7" r="2.3" fill="#b9bdca" opacity="0.5"/><circle cx="142.1" cy="213.3" r="2.3" fill="#b9bdca" opacity="0.5"/><circle cx="143.0" cy="212.7" r="2.3" fill="#b9bdca" opacity="0.5"/><circle cx="143.0" cy="213.6" r="2.3" fill="#b9bdca" opacity="0.5"/><circle cx="143.4" cy="213.0" r="2.3" fill="#b9bdca" opacity="0.5"/><circle cx="143.9" cy="212.1" r="2.3" fill="#b9bdca" opacity="0.5"/><circle cx="144.0" cy="213.3" r="2.3" fill="#b9bdca" opacity="0.5"/><circle cx="144.6" cy="212.0" r="2.3" fill="#b9bdca" opacity="0.5"/><circle cx="145.6" cy="212.1" r="2.3" fill="#b9bdca" opacity="0.5"/><circle cx="145.6" cy="212.8" r="2.3" fill="#b9bdca" opacity="0.5"/><circle cx="151.6" cy="206.7" r="2.3" fill="#b9bdca" opacity="0.5"/><circle cx="152.4" cy="206.8" r="2.3" fill="#b9bdca" opacity="0.5"/><circle cx="152.4" cy="212.5" r="2.3" fill="#b9bdca" opacity="0.5"/><circle cx="152.9" cy="207.2" r="2.3" fill="#b9bdca" opacity="0.5"/><circle cx="154.8" cy="207.0" r="2.3" fill="#b9bdca" opacity="0.5"/><circle cx="159.4" cy="204.9" r="2.3" fill="#b9bdca" opacity="0.5"/><circle cx="162.3" cy="204.6" r="2.3" fill="#b9bdca" opacity="0.5"/><circle cx="162.6" cy="212.3" r="2.3" fill="#b9bdca" opacity="0.5"/><circle cx="163.1" cy="204.6" r="2.3" fill="#b9bdca" opacity="0.5"/><circle cx="163.1" cy="204.6" r="2.3" fill="#b9bdca" opacity="0.5"/><circle cx="163.1" cy="204.9" r="2.3" fill="#b9bdca" opacity="0.5"/><circle cx="163.1" cy="204.9" r="2.3" fill="#b9bdca" opacity="0.5"/><circle cx="164.2" cy="201.9" r="2.3" fill="#b9bdca" opacity="0.5"/><circle cx="166.1" cy="206.5" r="2.3" fill="#b9bdca" opacity="0.5"/><circle cx="166.8" cy="205.8" r="2.3" fill="#b9bdca" opacity="0.5"/><circle cx="166.8" cy="335.1" r="2.3" fill="#b9bdca" opacity="0.5"/><circle cx="167.8" cy="201.8" r="2.3" fill="#b9bdca" opacity="0.5"/><circle cx="167.8" cy="202.2" r="2.3" fill="#b9bdca" opacity="0.5"/><circle cx="169.5" cy="201.0" r="2.3" fill="#b9bdca" opacity="0.5"/><circle cx="170.2" cy="203.1" r="2.3" fill="#b9bdca" opacity="0.5"/><circle cx="170.5" cy="200.0" r="2.3" fill="#b9bdca" opacity="0.5"/><circle cx="170.6" cy="204.6" r="2.3" fill="#b9bdca" opacity="0.5"/><circle cx="171.6" cy="202.3" r="2.3" fill="#b9bdca" opacity="0.5"/><circle cx="173.9" cy="200.4" r="2.3" fill="#b9bdca" opacity="0.5"/><circle cx="174.7" cy="200.7" r="2.3" fill="#b9bdca" opacity="0.5"/><circle cx="175.6" cy="200.0" r="2.3" fill="#b9bdca" opacity="0.5"/><circle cx="177.7" cy="199.7" r="2.3" fill="#b9bdca" opacity="0.5"/><circle cx="190.2" cy="200.6" r="2.3" fill="#b9bdca" opacity="0.5"/><circle cx="191.3" cy="201.8" r="2.3" fill="#b9bdca" opacity="0.5"/><circle cx="193.0" cy="208.4" r="2.3" fill="#b9bdca" opacity="0.5"/><circle cx="193.1" cy="200.8" r="2.3" fill="#b9bdca" opacity="0.5"/><circle cx="194.3" cy="200.7" r="2.3" fill="#b9bdca" opacity="0.5"/><circle cx="194.3" cy="201.9" r="2.3" fill="#b9bdca" opacity="0.5"/><circle cx="194.8" cy="195.5" r="2.3" fill="#b9bdca" opacity="0.5"/><circle cx="195.9" cy="196.9" r="2.3" fill="#b9bdca" opacity="0.5"/><circle cx="196.5" cy="197.9" r="2.3" fill="#b9bdca" opacity="0.5"/><circle cx="197.6" cy="196.1" r="2.3" fill="#b9bdca" opacity="0.5"/><circle cx="201.5" cy="197.3" r="2.3" fill="#b9bdca" opacity="0.5"/><circle cx="202.6" cy="195.9" r="2.3" fill="#b9bdca" opacity="0.5"/><circle cx="202.9" cy="201.0" r="2.3" fill="#b9bdca" opacity="0.5"/><circle cx="203.2" cy="197.5" r="2.3" fill="#b9bdca" opacity="0.5"/><circle cx="204.1" cy="196.9" r="2.3" fill="#b9bdca" opacity="0.5"/><circle cx="204.2" cy="197.1" r="2.3" fill="#b9bdca" opacity="0.5"/><circle cx="204.3" cy="197.0" r="2.3" fill="#b9bdca" opacity="0.5"/><circle cx="205.1" cy="196.0" r="2.3" fill="#b9bdca" opacity="0.5"/><circle cx="205.1" cy="196.0" r="2.3" fill="#b9bdca" opacity="0.5"/><circle cx="205.2" cy="197.9" r="2.3" fill="#b9bdca" opacity="0.5"/><circle cx="205.9" cy="197.8" r="2.3" fill="#b9bdca" opacity="0.5"/><circle cx="206.4" cy="196.2" r="2.3" fill="#b9bdca" opacity="0.5"/><circle cx="206.4" cy="197.5" r="2.3" fill="#b9bdca" opacity="0.5"/><circle cx="206.6" cy="196.9" r="2.3" fill="#b9bdca" opacity="0.5"/><circle cx="206.7" cy="195.5" r="2.3" fill="#b9bdca" opacity="0.5"/><circle cx="207.5" cy="198.1" r="2.3" fill="#b9bdca" opacity="0.5"/><circle cx="207.6" cy="187.4" r="2.3" fill="#b9bdca" opacity="0.5"/><circle cx="208.0" cy="186.2" r="2.3" fill="#b9bdca" opacity="0.5"/><circle cx="208.0" cy="196.3" r="2.3" fill="#b9bdca" opacity="0.5"/><circle cx="208.0" cy="197.2" r="2.3" fill="#b9bdca" opacity="0.5"/><circle cx="208.0" cy="197.8" r="2.3" fill="#b9bdca" opacity="0.5"/><circle cx="208.0" cy="368.0" r="2.3" fill="#b9bdca" opacity="0.5"/><circle cx="208.8" cy="184.5" r="2.3" fill="#b9bdca" opacity="0.5"/><circle cx="212.2" cy="184.6" r="2.3" fill="#b9bdca" opacity="0.5"/><circle cx="213.7" cy="185.6" r="2.3" fill="#b9bdca" opacity="0.5"/><circle cx="218.6" cy="188.7" r="2.3" fill="#b9bdca" opacity="0.5"/><circle cx="225.3" cy="185.4" r="2.3" fill="#b9bdca" opacity="0.5"/><circle cx="226.7" cy="185.2" r="2.3" fill="#b9bdca" opacity="0.5"/><circle cx="227.2" cy="186.6" r="2.3" fill="#b9bdca" opacity="0.5"/><circle cx="227.4" cy="185.3" r="2.3" fill="#b9bdca" opacity="0.5"/><circle cx="228.6" cy="185.3" r="2.3" fill="#b9bdca" opacity="0.5"/><circle cx="229.1" cy="185.0" r="2.3" fill="#b9bdca" opacity="0.5"/><circle cx="230.2" cy="184.9" r="2.3" fill="#b9bdca" opacity="0.5"/><circle cx="231.0" cy="185.1" r="2.3" fill="#b9bdca" opacity="0.5"/><circle cx="231.0" cy="185.2" r="2.3" fill="#b9bdca" opacity="0.5"/><circle cx="231.0" cy="186.4" r="2.3" fill="#b9bdca" opacity="0.5"/><circle cx="231.2" cy="183.9" r="2.3" fill="#b9bdca" opacity="0.5"/><circle cx="237.3" cy="184.4" r="2.3" fill="#b9bdca" opacity="0.5"/><circle cx="238.3" cy="184.2" r="2.3" fill="#b9bdca" opacity="0.5"/><circle cx="242.2" cy="169.3" r="2.3" fill="#b9bdca" opacity="0.5"/><circle cx="245.9" cy="168.8" r="2.3" fill="#b9bdca" opacity="0.5"/><circle cx="246.2" cy="167.7" r="2.3" fill="#b9bdca" opacity="0.5"/><circle cx="247.8" cy="201.4" r="2.3" fill="#b9bdca" opacity="0.5"/><circle cx="248.3" cy="165.0" r="2.3" fill="#b9bdca" opacity="0.5"/><circle cx="248.6" cy="198.2" r="2.3" fill="#b9bdca" opacity="0.5"/><circle cx="249.1" cy="163.7" r="2.3" fill="#b9bdca" opacity="0.5"/><circle cx="249.3" cy="163.6" r="2.3" fill="#b9bdca" opacity="0.5"/><circle cx="250.0" cy="165.9" r="2.3" fill="#b9bdca" opacity="0.5"/><circle cx="253.3" cy="165.1" r="2.3" fill="#b9bdca" opacity="0.5"/><circle cx="254.0" cy="155.9" r="2.3" fill="#b9bdca" opacity="0.5"/><circle cx="257.3" cy="196.5" r="2.3" fill="#b9bdca" opacity="0.5"/><circle cx="258.6" cy="157.4" r="2.3" fill="#b9bdca" opacity="0.5"/><circle cx="259.8" cy="155.8" r="2.3" fill="#b9bdca" opacity="0.5"/><circle cx="262.0" cy="141.9" r="2.3" fill="#b9bdca" opacity="0.5"/><circle cx="266.4" cy="156.1" r="2.3" fill="#b9bdca" opacity="0.5"/><circle cx="266.4" cy="156.4" r="2.3" fill="#b9bdca" opacity="0.5"/><circle cx="266.6" cy="141.8" r="2.3" fill="#b9bdca" opacity="0.5"/><circle cx="266.8" cy="196.0" r="2.3" fill="#b9bdca" opacity="0.5"/><circle cx="268.3" cy="131.7" r="2.3" fill="#b9bdca" opacity="0.5"/><circle cx="268.5" cy="134.1" r="2.3" fill="#b9bdca" opacity="0.5"/><circle cx="269.0" cy="141.1" r="2.3" fill="#b9bdca" opacity="0.5"/><circle cx="269.7" cy="134.0" r="2.3" fill="#b9bdca" opacity="0.5"/><circle cx="269.8" cy="130.9" r="2.3" fill="#b9bdca" opacity="0.5"/><circle cx="269.8" cy="154.2" r="2.3" fill="#b9bdca" opacity="0.5"/><circle cx="270.2" cy="133.6" r="2.3" fill="#b9bdca" opacity="0.5"/><circle cx="270.5" cy="129.5" r="2.3" fill="#b9bdca" opacity="0.5"/><circle cx="270.5" cy="130.9" r="2.3" fill="#b9bdca" opacity="0.5"/><circle cx="270.5" cy="133.4" r="2.3" fill="#b9bdca" opacity="0.5"/><circle cx="270.9" cy="131.2" r="2.3" fill="#b9bdca" opacity="0.5"/><circle cx="273.6" cy="189.8" r="2.3" fill="#b9bdca" opacity="0.5"/><circle cx="273.7" cy="133.2" r="2.3" fill="#b9bdca" opacity="0.5"/><circle cx="274.1" cy="133.5" r="2.3" fill="#b9bdca" opacity="0.5"/><circle cx="275.1" cy="130.1" r="2.3" fill="#b9bdca" opacity="0.5"/><circle cx="277.8" cy="130.3" r="2.3" fill="#b9bdca" opacity="0.5"/><circle cx="279.1" cy="303.1" r="2.3" fill="#b9bdca" opacity="0.5"/><circle cx="281.3" cy="133.2" r="2.3" fill="#b9bdca" opacity="0.5"/><circle cx="284.2" cy="144.2" r="2.3" fill="#b9bdca" opacity="0.5"/><circle cx="284.8" cy="135.3" r="2.3" fill="#b9bdca" opacity="0.5"/><circle cx="286.7" cy="133.4" r="2.3" fill="#b9bdca" opacity="0.5"/><circle cx="286.9" cy="159.9" r="2.3" fill="#b9bdca" opacity="0.5"/><circle cx="287.3" cy="130.8" r="2.3" fill="#b9bdca" opacity="0.5"/><circle cx="288.0" cy="133.2" r="2.3" fill="#b9bdca" opacity="0.5"/><circle cx="294.7" cy="130.9" r="2.3" fill="#b9bdca" opacity="0.5"/><circle cx="295.5" cy="130.9" r="2.3" fill="#b9bdca" opacity="0.5"/><circle cx="295.5" cy="133.8" r="2.3" fill="#b9bdca" opacity="0.5"/><circle cx="296.6" cy="130.4" r="2.3" fill="#b9bdca" opacity="0.5"/><circle cx="297.3" cy="153.7" r="2.3" fill="#b9bdca" opacity="0.5"/><circle cx="298.5" cy="133.3" r="2.3" fill="#b9bdca" opacity="0.5"/><circle cx="300.6" cy="156.5" r="2.3" fill="#b9bdca" opacity="0.5"/><circle cx="301.0" cy="132.3" r="2.3" fill="#b9bdca" opacity="0.5"/><circle cx="303.4" cy="147.2" r="2.3" fill="#b9bdca" opacity="0.5"/><circle cx="303.9" cy="133.6" r="2.3" fill="#b9bdca" opacity="0.5"/><circle cx="304.7" cy="129.5" r="2.3" fill="#b9bdca" opacity="0.5"/><circle cx="304.7" cy="133.3" r="2.3" fill="#b9bdca" opacity="0.5"/><circle cx="307.7" cy="133.3" r="2.3" fill="#b9bdca" opacity="0.5"/><circle cx="309.7" cy="129.5" r="2.3" fill="#b9bdca" opacity="0.5"/><circle cx="313.1" cy="130.6" r="2.3" fill="#b9bdca" opacity="0.5"/><circle cx="315.6" cy="128.9" r="2.3" fill="#b9bdca" opacity="0.5"/><circle cx="316.1" cy="132.7" r="2.3" fill="#b9bdca" opacity="0.5"/><circle cx="316.1" cy="133.1" r="2.3" fill="#b9bdca" opacity="0.5"/><circle cx="319.9" cy="129.8" r="2.3" fill="#b9bdca" opacity="0.5"/><circle cx="320.9" cy="333.8" r="2.3" fill="#b9bdca" opacity="0.5"/><circle cx="321.2" cy="128.4" r="2.3" fill="#b9bdca" opacity="0.5"/><circle cx="322.9" cy="129.8" r="2.3" fill="#b9bdca" opacity="0.5"/><circle cx="323.6" cy="128.9" r="2.3" fill="#b9bdca" opacity="0.5"/><circle cx="323.8" cy="128.9" r="2.3" fill="#b9bdca" opacity="0.5"/><circle cx="325.1" cy="128.2" r="2.3" fill="#b9bdca" opacity="0.5"/><circle cx="326.0" cy="129.7" r="2.3" fill="#b9bdca" opacity="0.5"/><circle cx="326.4" cy="142.3" r="2.3" fill="#b9bdca" opacity="0.5"/><circle cx="329.9" cy="128.8" r="2.3" fill="#b9bdca" opacity="0.5"/><circle cx="332.0" cy="161.1" r="2.3" fill="#b9bdca" opacity="0.5"/><circle cx="336.0" cy="164.4" r="2.3" fill="#b9bdca" opacity="0.5"/><circle cx="336.4" cy="248.3" r="2.3" fill="#b9bdca" opacity="0.5"/><circle cx="342.2" cy="135.4" r="2.3" fill="#b9bdca" opacity="0.5"/><circle cx="342.8" cy="128.0" r="2.3" fill="#b9bdca" opacity="0.5"/><circle cx="344.5" cy="229.0" r="2.3" fill="#b9bdca" opacity="0.5"/><circle cx="348.6" cy="128.1" r="2.3" fill="#b9bdca" opacity="0.5"/><circle cx="349.6" cy="128.6" r="2.3" fill="#b9bdca" opacity="0.5"/><circle cx="353.3" cy="128.8" r="2.3" fill="#b9bdca" opacity="0.5"/><circle cx="353.3" cy="129.6" r="2.3" fill="#b9bdca" opacity="0.5"/><circle cx="353.3" cy="130.9" r="2.3" fill="#b9bdca" opacity="0.5"/><circle cx="361.3" cy="112.8" r="2.3" fill="#b9bdca" opacity="0.5"/><circle cx="365.4" cy="110.2" r="2.3" fill="#b9bdca" opacity="0.5"/><circle cx="365.5" cy="111.6" r="2.3" fill="#b9bdca" opacity="0.5"/><circle cx="368.1" cy="111.0" r="2.3" fill="#b9bdca" opacity="0.5"/><circle cx="369.3" cy="335.1" r="2.3" fill="#b9bdca" opacity="0.5"/><circle cx="370.0" cy="111.6" r="2.3" fill="#b9bdca" opacity="0.5"/><circle cx="372.6" cy="105.5" r="2.3" fill="#b9bdca" opacity="0.5"/><circle cx="373.0" cy="108.5" r="2.3" fill="#b9bdca" opacity="0.5"/><circle cx="374.1" cy="105.1" r="2.3" fill="#b9bdca" opacity="0.5"/><circle cx="375.3" cy="103.8" r="2.3" fill="#b9bdca" opacity="0.5"/><circle cx="376.6" cy="125.8" r="2.3" fill="#b9bdca" opacity="0.5"/><circle cx="388.0" cy="103.5" r="2.3" fill="#b9bdca" opacity="0.5"/><circle cx="390.9" cy="127.8" r="2.3" fill="#b9bdca" opacity="0.5"/><circle cx="392.2" cy="334.3" r="2.3" fill="#b9bdca" opacity="0.5"/><circle cx="394.0" cy="128.6" r="2.3" fill="#b9bdca" opacity="0.5"/><circle cx="394.8" cy="128.6" r="2.3" fill="#b9bdca" opacity="0.5"/><circle cx="395.0" cy="128.6" r="2.3" fill="#b9bdca" opacity="0.5"/><circle cx="396.0" cy="256.6" r="2.3" fill="#b9bdca" opacity="0.5"/><circle cx="397.3" cy="254.6" r="2.3" fill="#b9bdca" opacity="0.5"/><circle cx="399.4" cy="128.6" r="2.3" fill="#b9bdca" opacity="0.5"/><circle cx="404.6" cy="250.1" r="2.3" fill="#b9bdca" opacity="0.5"/><circle cx="405.1" cy="161.4" r="2.3" fill="#b9bdca" opacity="0.5"/><circle cx="405.7" cy="206.6" r="2.3" fill="#b9bdca" opacity="0.5"/><circle cx="410.5" cy="113.5" r="2.3" fill="#b9bdca" opacity="0.5"/><circle cx="412.1" cy="89.6" r="2.3" fill="#b9bdca" opacity="0.5"/><circle cx="413.3" cy="90.2" r="2.3" fill="#b9bdca" opacity="0.5"/><circle cx="416.3" cy="89.3" r="2.3" fill="#b9bdca" opacity="0.5"/><circle cx="417.1" cy="87.6" r="2.3" fill="#b9bdca" opacity="0.5"/><circle cx="418.1" cy="185.0" r="2.3" fill="#b9bdca" opacity="0.5"/><circle cx="419.2" cy="131.6" r="2.3" fill="#b9bdca" opacity="0.5"/><circle cx="420.0" cy="87.8" r="2.3" fill="#b9bdca" opacity="0.5"/><circle cx="421.4" cy="85.4" r="2.3" fill="#b9bdca" opacity="0.5"/><circle cx="423.6" cy="86.8" r="2.3" fill="#b9bdca" opacity="0.5"/><circle cx="425.8" cy="88.4" r="2.3" fill="#b9bdca" opacity="0.5"/><circle cx="434.8" cy="89.5" r="2.3" fill="#b9bdca" opacity="0.5"/><circle cx="434.8" cy="155.6" r="2.3" fill="#b9bdca" opacity="0.5"/><circle cx="434.9" cy="84.4" r="2.3" fill="#b9bdca" opacity="0.5"/><circle cx="445.6" cy="89.2" r="2.3" fill="#b9bdca" opacity="0.5"/><circle cx="445.8" cy="90.5" r="2.3" fill="#b9bdca" opacity="0.5"/><circle cx="448.9" cy="87.7" r="2.3" fill="#b9bdca" opacity="0.5"/><circle cx="449.9" cy="367.9" r="2.3" fill="#b9bdca" opacity="0.5"/><circle cx="454.3" cy="164.3" r="2.3" fill="#b9bdca" opacity="0.5"/><circle cx="456.4" cy="94.6" r="2.3" fill="#b9bdca" opacity="0.5"/><circle cx="457.3" cy="89.6" r="2.3" fill="#b9bdca" opacity="0.5"/><circle cx="466.5" cy="124.6" r="2.3" fill="#b9bdca" opacity="0.5"/><circle cx="476.5" cy="146.2" r="2.3" fill="#b9bdca" opacity="0.5"/><circle cx="476.7" cy="90.5" r="2.3" fill="#b9bdca" opacity="0.5"/><circle cx="477.6" cy="87.7" r="2.3" fill="#b9bdca" opacity="0.5"/><circle cx="478.1" cy="87.7" r="2.3" fill="#b9bdca" opacity="0.5"/><circle cx="478.2" cy="89.6" r="2.3" fill="#b9bdca" opacity="0.5"/><circle cx="485.2" cy="93.0" r="2.3" fill="#b9bdca" opacity="0.5"/><circle cx="487.7" cy="85.5" r="2.3" fill="#b9bdca" opacity="0.5"/><circle cx="508.6" cy="334.8" r="2.3" fill="#b9bdca" opacity="0.5"/><circle cx="510.9" cy="86.3" r="2.3" fill="#b9bdca" opacity="0.5"/><circle cx="518.0" cy="85.5" r="2.3" fill="#b9bdca" opacity="0.5"/><circle cx="519.2" cy="84.6" r="2.3" fill="#b9bdca" opacity="0.5"/><circle cx="522.1" cy="87.8" r="2.3" fill="#b9bdca" opacity="0.5"/><circle cx="523.3" cy="84.4" r="2.3" fill="#b9bdca" opacity="0.5"/><circle cx="524.0" cy="84.8" r="2.3" fill="#b9bdca" opacity="0.5"/><circle cx="526.1" cy="87.4" r="2.3" fill="#b9bdca" opacity="0.5"/><circle cx="537.3" cy="84.4" r="2.3" fill="#b9bdca" opacity="0.5"/><circle cx="586.4" cy="89.3" r="2.3" fill="#b9bdca" opacity="0.5"/><circle cx="595.2" cy="88.6" r="2.3" fill="#b9bdca" opacity="0.5"/><circle cx="595.2" cy="92.1" r="2.3" fill="#b9bdca" opacity="0.5"/><circle cx="597.1" cy="156.8" r="2.3" fill="#b9bdca" opacity="0.5"/><circle cx="625.5" cy="201.6" r="2.3" fill="#b9bdca" opacity="0.5"/><circle cx="646.1" cy="315.6" r="2.3" fill="#b9bdca" opacity="0.5"/><circle cx="702.7" cy="87.7" r="2.3" fill="#b9bdca" opacity="0.5"/><circle cx="719.8" cy="87.6" r="2.3" fill="#b9bdca" opacity="0.5"/><circle cx="735.0" cy="87.2" r="2.3" fill="#b9bdca" opacity="0.5"/><circle cx="738.5" cy="88.8" r="2.3" fill="#b9bdca" opacity="0.5"/><circle cx="739.8" cy="89.2" r="2.3" fill="#b9bdca" opacity="0.5"/><circle cx="740.6" cy="90.9" r="2.3" fill="#b9bdca" opacity="0.5"/><circle cx="745.0" cy="87.7" r="2.3" fill="#b9bdca" opacity="0.5"/><circle cx="760.3" cy="88.6" r="2.3" fill="#b9bdca" opacity="0.5"/><circle cx="762.2" cy="89.7" r="2.3" fill="#b9bdca" opacity="0.5"/><circle cx="763.5" cy="88.2" r="2.3" fill="#b9bdca" opacity="0.5"/><circle cx="792.2" cy="75.8" r="2.3" fill="#b9bdca" opacity="0.5"/><circle cx="794.5" cy="75.7" r="2.3" fill="#b9bdca" opacity="0.5"/><circle cx="796.1" cy="76.7" r="2.3" fill="#b9bdca" opacity="0.5"/><circle cx="796.3" cy="75.8" r="2.3" fill="#b9bdca" opacity="0.5"/><circle cx="797.1" cy="75.3" r="2.3" fill="#b9bdca" opacity="0.5"/><circle cx="797.6" cy="74.7" r="2.3" fill="#b9bdca" opacity="0.5"/><circle cx="797.9" cy="83.4" r="2.3" fill="#b9bdca" opacity="0.5"/><circle cx="798.5" cy="76.2" r="2.3" fill="#b9bdca" opacity="0.5"/><circle cx="799.2" cy="78.1" r="2.3" fill="#b9bdca" opacity="0.5"/><circle cx="799.9" cy="74.7" r="2.3" fill="#b9bdca" opacity="0.5"/><circle cx="804.7" cy="89.3" r="2.3" fill="#b9bdca" opacity="0.5"/><circle cx="814.2" cy="74.4" r="2.3" fill="#b9bdca" opacity="0.5"/><circle cx="829.5" cy="74.4" r="2.3" fill="#b9bdca" opacity="0.5"/><circle cx="831.9" cy="335.1" r="2.3" fill="#b9bdca" opacity="0.5"/><circle cx="832.0" cy="81.7" r="2.3" fill="#b9bdca" opacity="0.5"/><circle cx="833.8" cy="74.6" r="2.3" fill="#b9bdca" opacity="0.5"/><circle cx="833.8" cy="82.1" r="2.3" fill="#b9bdca" opacity="0.5"/><circle cx="833.8" cy="73.9" r="2.3" fill="#b9bdca" opacity="0.5"/><circle cx="838.2" cy="76.2" r="2.3" fill="#b9bdca" opacity="0.5"/><circle cx="838.9" cy="82.1" r="2.3" fill="#b9bdca" opacity="0.5"/><circle cx="839.5" cy="74.2" r="2.3" fill="#b9bdca" opacity="0.5"/><circle cx="839.6" cy="75.0" r="2.3" fill="#b9bdca" opacity="0.5"/><circle cx="840.5" cy="73.6" r="2.3" fill="#b9bdca" opacity="0.5"/><circle cx="840.5" cy="83.3" r="2.3" fill="#b9bdca" opacity="0.5"/><circle cx="840.5" cy="83.8" r="2.3" fill="#b9bdca" opacity="0.5"/><circle cx="840.6" cy="78.1" r="2.3" fill="#b9bdca" opacity="0.5"/><circle cx="840.6" cy="81.5" r="2.3" fill="#b9bdca" opacity="0.5"/><circle cx="840.6" cy="83.0" r="2.3" fill="#b9bdca" opacity="0.5"/><circle cx="840.6" cy="83.7" r="2.3" fill="#b9bdca" opacity="0.5"/><circle cx="846.6" cy="82.7" r="2.3" fill="#b9bdca" opacity="0.5"/><circle cx="847.9" cy="77.8" r="2.3" fill="#b9bdca" opacity="0.5"/><circle cx="851.1" cy="69.8" r="2.3" fill="#b9bdca" opacity="0.5"/><circle cx="852.1" cy="75.9" r="2.3" fill="#b9bdca" opacity="0.5"/><circle cx="852.5" cy="74.3" r="2.3" fill="#b9bdca" opacity="0.5"/><circle cx="852.5" cy="77.4" r="2.3" fill="#b9bdca" opacity="0.5"/><circle cx="852.5" cy="80.6" r="2.3" fill="#b9bdca" opacity="0.5"/><circle cx="852.5" cy="81.8" r="2.3" fill="#b9bdca" opacity="0.5"/><circle cx="854.7" cy="76.9" r="2.3" fill="#b9bdca" opacity="0.5"/><circle cx="854.7" cy="82.8" r="2.3" fill="#b9bdca" opacity="0.5"/><circle cx="854.7" cy="83.0" r="2.3" fill="#b9bdca" opacity="0.5"/><circle cx="854.7" cy="83.1" r="2.3" fill="#b9bdca" opacity="0.5"/><circle cx="855.7" cy="69.1" r="2.3" fill="#b9bdca" opacity="0.5"/><circle cx="858.2" cy="75.5" r="2.3" fill="#b9bdca" opacity="0.5"/><circle cx="859.6" cy="74.3" r="2.3" fill="#b9bdca" opacity="0.5"/><circle cx="898.1" cy="74.0" r="2.3" fill="#b9bdca" opacity="0.5"/><circle cx="943.8" cy="73.4" r="2.3" fill="#b9bdca" opacity="0.5"/><circle cx="944.3" cy="75.9" r="2.3" fill="#b9bdca" opacity="0.5"/><circle cx="944.3" cy="76.3" r="2.3" fill="#b9bdca" opacity="0.5"/><circle cx="944.6" cy="76.0" r="2.3" fill="#b9bdca" opacity="0.5"/><circle cx="944.6" cy="76.8" r="2.3" fill="#b9bdca" opacity="0.5"/><circle cx="944.6" cy="81.2" r="2.3" fill="#b9bdca" opacity="0.5"/><circle cx="944.6" cy="83.4" r="2.3" fill="#b9bdca" opacity="0.5"/><circle cx="977.0" cy="76.6" r="2.3" fill="#b9bdca" opacity="0.5"/><circle cx="979.1" cy="76.7" r="2.3" fill="#b9bdca" opacity="0.5"/><circle cx="979.1" cy="82.8" r="2.3" fill="#b9bdca" opacity="0.5"/><circle cx="979.1" cy="82.8" r="2.3" fill="#b9bdca" opacity="0.5"/><circle cx="979.1" cy="83.3" r="2.3" fill="#b9bdca" opacity="0.5"/><circle cx="985.9" cy="233.4" r="2.3" fill="#b9bdca" opacity="0.5"/><circle cx="987.9" cy="228.9" r="2.3" fill="#b9bdca" opacity="0.5"/><circle cx="989.9" cy="198.3" r="2.3" fill="#b9bdca" opacity="0.5"/><circle cx="1032.0" cy="73.4" r="2.3" fill="#b9bdca" opacity="0.5"/><path d="M254.0 152.3L257.6 155.9L254.0 159.5L250.4 155.9Z" fill="#2b3a7a" opacity="0.8" stroke="none" stroke-width="0"/><path d="M266.6 138.2L270.2 141.8L266.6 145.4L263.0 141.8Z" fill="#2b3a7a" opacity="0.8" stroke="none" stroke-width="0"/><path d="M268.3 128.1L271.9 131.7L268.3 135.3L264.7 131.7Z" fill="#2b3a7a" opacity="0.8" stroke="none" stroke-width="0"/><path d="M268.5 130.5L272.1 134.1L268.5 137.7L264.9 134.1Z" fill="#2b3a7a" opacity="0.8" stroke="none" stroke-width="0"/><path d="M269.8 127.3L273.4 130.9L269.8 134.5L266.2 130.9Z" fill="#2b3a7a" opacity="0.8" stroke="none" stroke-width="0"/><path d="M270.5 125.9L274.1 129.5L270.5 133.1L266.9 129.5Z" fill="#2b3a7a" opacity="0.8" stroke="none" stroke-width="0"/><path d="M270.5 127.3L274.1 130.9L270.5 134.5L266.9 130.9Z" fill="#2b3a7a" opacity="0.8" stroke="none" stroke-width="0"/><path d="M309.7 125.9L313.3 129.5L309.7 133.1L306.1 129.5Z" fill="#2b3a7a" opacity="0.8" stroke="none" stroke-width="0"/><path d="M315.6 125.3L319.2 128.9L315.6 132.5L312.0 128.9Z" fill="#2b3a7a" opacity="0.8" stroke="none" stroke-width="0"/><path d="M321.2 124.8L324.8 128.4L321.2 132.0L317.6 128.4Z" fill="#2b3a7a" opacity="0.8" stroke="none" stroke-width="0"/><path d="M325.1 124.6L328.7 128.2L325.1 131.8L321.5 128.2Z" fill="#2b3a7a" opacity="0.8" stroke="none" stroke-width="0"/><path d="M342.8 124.4L346.4 128.0L342.8 131.6L339.2 128.0Z" fill="#2b3a7a" opacity="0.8" stroke="none" stroke-width="0"/><path d="M361.3 109.2L364.9 112.8L361.3 116.4L357.7 112.8Z" fill="#2b3a7a" opacity="0.8" stroke="none" stroke-width="0"/><path d="M370.0 108.0L373.6 111.6L370.0 115.2L366.4 111.6Z" fill="#2b3a7a" opacity="0.8" stroke="none" stroke-width="0"/><path d="M372.6 101.9L376.2 105.5L372.6 109.1L369.0 105.5Z" fill="#2b3a7a" opacity="0.8" stroke="none" stroke-width="0"/><path d="M373.0 104.9L376.6 108.5L373.0 112.1L369.4 108.5Z" fill="#2b3a7a" opacity="0.8" stroke="none" stroke-width="0"/><path d="M374.1 101.5L377.7 105.1L374.1 108.7L370.5 105.1Z" fill="#2b3a7a" opacity="0.8" stroke="none" stroke-width="0"/><path d="M375.3 100.2L378.9 103.8L375.3 107.4L371.7 103.8Z" fill="#2b3a7a" opacity="0.8" stroke="none" stroke-width="0"/><path d="M388.0 99.9L391.6 103.5L388.0 107.1L384.4 103.5Z" fill="#2b3a7a" opacity="0.8" stroke="none" stroke-width="0"/><path d="M412.1 86.0L415.7 89.6L412.1 93.2L408.5 89.6Z" fill="#2b3a7a" opacity="0.8" stroke="none" stroke-width="0"/><path d="M416.3 85.7L419.9 89.3L416.3 92.9L412.7 89.3Z" fill="#2b3a7a" opacity="0.8" stroke="none" stroke-width="0"/><path d="M417.1 84.0L420.7 87.6L417.1 91.2L413.5 87.6Z" fill="#2b3a7a" opacity="0.8" stroke="none" stroke-width="0"/><path d="M421.4 81.8L425.0 85.4L421.4 89.0L417.8 85.4Z" fill="#2b3a7a" opacity="0.8" stroke="none" stroke-width="0"/><path d="M434.9 80.8L438.5 84.4L434.9 88.0L431.3 84.4Z" fill="#2b3a7a" opacity="0.8" stroke="none" stroke-width="0"/><path d="M537.3 80.8L540.9 84.4L537.3 88.0L533.7 84.4Z" fill="#2b3a7a" opacity="0.8" stroke="none" stroke-width="0"/><path d="M792.2 72.2L795.8 75.8L792.2 79.4L788.6 75.8Z" fill="#2b3a7a" opacity="0.8" stroke="none" stroke-width="0"/><path d="M794.5 72.1L798.1 75.7L794.5 79.3L790.9 75.7Z" fill="#2b3a7a" opacity="0.8" stroke="none" stroke-width="0"/><path d="M797.1 71.7L800.7 75.3L797.1 78.9L793.5 75.3Z" fill="#2b3a7a" opacity="0.8" stroke="none" stroke-width="0"/><path d="M797.6 71.1L801.2 74.7L797.6 78.3L794.0 74.7Z" fill="#2b3a7a" opacity="0.8" stroke="none" stroke-width="0"/><path d="M799.9 71.1L803.5 74.7L799.9 78.3L796.3 74.7Z" fill="#2b3a7a" opacity="0.8" stroke="none" stroke-width="0"/><path d="M814.2 70.8L817.8 74.4L814.2 78.0L810.6 74.4Z" fill="#2b3a7a" opacity="0.8" stroke="none" stroke-width="0"/><path d="M833.8 70.3L837.4 73.9L833.8 77.5L830.2 73.9Z" fill="#2b3a7a" opacity="0.8" stroke="none" stroke-width="0"/><path d="M840.5 70.0L844.1 73.6L840.5 77.2L836.9 73.6Z" fill="#2b3a7a" opacity="0.8" stroke="none" stroke-width="0"/><path d="M943.8 69.8L947.4 73.4L943.8 77.0L940.2 73.4Z" fill="#2b3a7a" opacity="0.8" stroke="none" stroke-width="0"/><path d="M1032.0 69.8L1035.6 73.4L1032.0 77.0L1028.4 73.4Z" fill="#2b3a7a" opacity="0.8" stroke="none" stroke-width="0"/><path d="M60.0 335.3L63.2 335.3L63.2 335.1L67.6 335.1L67.6 320.7L76.4 320.7L76.4 319.9L79.6 319.9L79.6 315.3L80.5 315.3L80.5 314.9L81.9 314.9L81.9 314.9L134.3 314.9L134.3 238.7L135.1 238.7L135.1 229.0L136.0 229.0L136.0 222.3L137.0 222.3L137.0 220.6L137.2 220.6L137.2 220.5L137.8 220.5L137.8 214.2L139.8 214.2L139.8 214.1L140.3 214.1L140.3 213.7L140.8 213.7L140.8 213.5L141.4 213.5L141.4 212.7L143.9 212.7L143.9 212.1L144.6 212.1L144.6 212.0L151.6 212.0L151.6 206.7L159.4 206.7L159.4 204.9L162.3 204.9L162.3 204.6L164.2 204.6L164.2 201.9L167.8 201.9L167.8 201.8L169.5 201.8L169.5 201.0L170.5 201.0L170.5 200.0L175.6 200.0L175.6 200.0L177.7 200.0L177.7 199.7L194.8 199.7L194.8 195.5L207.6 195.5L207.6 187.4L208.0 187.4L208.0 186.2L208.8 186.2L208.8 184.5L231.2 184.5L231.2 183.9L242.2 183.9L242.2 169.3L245.9 169.3L245.9 168.8L246.2 168.8L246.2 167.7L248.3 167.7L248.3 165.0L249.1 165.0L249.1 163.7L249.3 163.7L249.3 163.6L254.0 163.6L254.0 155.9L259.8 155.9L259.8 155.8L262.0 155.8L262.0 141.9L266.6 141.9L266.6 141.8L268.3 141.8L268.3 131.7L269.8 131.7L269.8 130.9L270.5 130.9L270.5 129.5L309.7 129.5L309.7 129.5L315.6 129.5L315.6 128.9L321.2 128.9L321.2 128.4L325.1 128.4L325.1 128.2L342.8 128.2L342.8 128.0L361.3 128.0L361.3 112.8L365.4 112.8L365.4 110.2L372.6 110.2L372.6 105.5L374.1 105.5L374.1 105.1L375.3 105.1L375.3 103.8L388.0 103.8L388.0 103.5L412.1 103.5L412.1 89.6L416.3 89.6L416.3 89.3L417.1 89.3L417.1 87.6L421.4 87.6L421.4 85.4L434.9 85.4L434.9 84.4L537.3 84.4L537.3 84.4L792.2 84.4L792.2 75.8L794.5 75.8L794.5 75.7L797.1 75.7L797.1 75.3L797.6 75.3L797.6 74.7L799.9 74.7L799.9 74.7L814.2 74.7L814.2 74.4L833.8 74.4L833.8 73.9L840.5 73.9L840.5 73.6L851.1 73.6L851.1 69.8L855.7 69.8L855.7 69.1L1032.0 69.1" fill="none" stroke="#6675b0" stroke-width="1.6" stroke-dasharray="5 3" opacity="0.75"/><path d="M254.0 155.9L266.6 155.9L266.6 141.8L268.3 141.8L268.3 131.7L269.8 131.7L269.8 130.9L270.5 130.9L270.5 129.5L309.7 129.5L309.7 129.5L315.6 129.5L315.6 128.9L321.2 128.9L321.2 128.4L325.1 128.4L325.1 128.2L342.8 128.2L342.8 128.0L361.3 128.0L361.3 112.8L370.0 112.8L370.0 111.6L372.6 111.6L372.6 105.5L374.1 105.5L374.1 105.1L375.3 105.1L375.3 103.8L388.0 103.8L388.0 103.5L412.1 103.5L412.1 89.6L416.3 89.6L416.3 89.3L417.1 89.3L417.1 87.6L421.4 87.6L421.4 85.4L434.9 85.4L434.9 84.4L537.3 84.4L537.3 84.4L792.2 84.4L792.2 75.8L794.5 75.8L794.5 75.7L797.1 75.7L797.1 75.3L797.6 75.3L797.6 74.7L799.9 74.7L799.9 74.7L814.2 74.7L814.2 74.4L833.8 74.4L833.8 73.9L840.5 73.9L840.5 73.6L851.1 73.6L851.1 73.5L943.8 73.5L943.8 73.4L1032.0 73.4L1032.0 73.4L1032.0 73.4" fill="none" stroke="#2b3a7a" stroke-width="2.6"/><path d="M709.6 246.9L716.1 253.4L709.6 259.9L703.1 253.4Z" fill="#c5961a" opacity="1.0" stroke="#ffffff" stroke-width="1.4"/><path d="M836.4 206.5L842.9 213.0L836.4 219.5L829.9 213.0Z" fill="#c5961a" opacity="1.0" stroke="#ffffff" stroke-width="1.4"/><path d="M851.1 67.0L857.6 73.5L851.1 80.0L844.6 73.5Z" fill="#c5961a" opacity="1.0" stroke="#ffffff" stroke-width="1.4"/><path d="M959.8 240.8L966.3 247.3L959.8 253.8L953.3 247.3Z" fill="#c5961a" opacity="1.0" stroke="#ffffff" stroke-width="1.4"/><path d="M960.6 238.0L967.1 244.5L960.6 251.0L954.1 244.5Z" fill="#c5961a" opacity="1.0" stroke="#ffffff" stroke-width="1.4"/><text x="1042" y="67.1" font-size="11.5" fill="#6675b0">– – raw best 513.8</text><text x="1042" y="81.1" font-size="10" fill="#8a8fa3">unverified (pending)</text><path d="M1032.0 66.9L1038.5 73.4L1032.0 79.9L1025.5 73.4Z" fill="#2b3a7a" opacity="1.0" stroke="#ffffff" stroke-width="1.4"/><text x="1042" y="101.4" font-size="12.5" fill="#2b3a7a" font-weight="bold">◆ verified 507.0</text><text x="1042" y="117.4" font-size="10.5" fill="#3a3f55">top verified</text><text x="60" y="24" font-size="13" font-weight="bold" fill="#3a3f55" letter-spacing="1.2">SCORE EVOLUTION — gemma-challenge (tok/s)</text><circle cx="452" cy="20" r="3" fill="#b9bdca"/><text x="460" y="24" font-size="10.5" fill="#8a8fa3">all results</text><path d="M544.0 16.4L547.6 20.0L544.0 23.6L540.4 20.0Z" fill="#2b3a7a" opacity="1.0" stroke="none" stroke-width="0"/><text x="552" y="24" font-size="10.5" fill="#8a8fa3">verified</text><path d="M620.0 15.5L624.5 20.0L620.0 24.5L615.5 20.0Z" fill="#c5961a" opacity="1.0" stroke="#fff" stroke-width="1"/><text x="629" y="24" font-size="10.5" fill="#8a8fa3">mikasa-inbound (us)</text></svg>