<svg viewBox="0 0 1200 440" xmlns="http://www.w3.org/2000/svg" font-family="ui-sans-serif,system-ui,-apple-system,sans-serif"><rect x="0" y="0" width="1200" height="440" fill="#ffffff"/><rect x="60" y="46" width="972" height="350" fill="#f3f4fb"/><line x1="60" y1="396.0" x2="1032" y2="396.0" stroke="#e3e5ef" stroke-width="1"/><text x="52" y="400.0" text-anchor="end" font-size="11" fill="#8a8fa3">0</text><line x1="60" y1="332.4" x2="1032" y2="332.4" stroke="#e3e5ef" stroke-width="1"/><text x="52" y="336.4" text-anchor="end" font-size="11" fill="#8a8fa3">100</text><line x1="60" y1="268.7" x2="1032" y2="268.7" stroke="#e3e5ef" stroke-width="1"/><text x="52" y="272.7" text-anchor="end" font-size="11" fill="#8a8fa3">200</text><line x1="60" y1="205.1" x2="1032" y2="205.1" stroke="#e3e5ef" stroke-width="1"/><text x="52" y="209.1" text-anchor="end" font-size="11" fill="#8a8fa3">300</text><line x1="60" y1="141.5" x2="1032" y2="141.5" stroke="#e3e5ef" stroke-width="1"/><text x="52" y="145.5" text-anchor="end" font-size="11" fill="#8a8fa3">400</text><line x1="60" y1="77.8" x2="1032" y2="77.8" stroke="#e3e5ef" stroke-width="1"/><text x="52" y="81.8" text-anchor="end" font-size="11" fill="#8a8fa3">500</text><line x1="118.1" y1="46" x2="118.1" y2="396" stroke="#e3e5ef" stroke-width="1"/><text x="118.1" y="414.0" text-anchor="middle" font-size="11" fill="#8a8fa3">Jun 10</text><line x1="200.9" y1="46" x2="200.9" y2="396" stroke="#e3e5ef" stroke-width="1"/><text x="200.9" y="414.0" text-anchor="middle" font-size="11" fill="#8a8fa3">Jun 12</text><line x1="283.7" y1="46" x2="283.7" y2="396" stroke="#e3e5ef" stroke-width="1"/><text x="283.7" y="414.0" text-anchor="middle" font-size="11" fill="#8a8fa3">Jun 14</text><line x1="366.5" y1="46" x2="366.5" y2="396" stroke="#e3e5ef" stroke-width="1"/><text x="366.5" y="414.0" text-anchor="middle" font-size="11" fill="#8a8fa3">Jun 16</text><line x1="449.4" y1="46" x2="449.4" y2="396" stroke="#e3e5ef" stroke-width="1"/><text x="449.4" y="414.0" text-anchor="middle" font-size="11" fill="#8a8fa3">Jun 18</text><line x1="532.2" y1="46" x2="532.2" y2="396" stroke="#e3e5ef" stroke-width="1"/><text x="532.2" y="414.0" text-anchor="middle" font-size="11" fill="#8a8fa3">Jun 20</text><line x1="615.0" y1="46" x2="615.0" y2="396" stroke="#e3e5ef" stroke-width="1"/><text x="615.0" y="414.0" text-anchor="middle" font-size="11" fill="#8a8fa3">Jun 22</text><line x1="697.8" y1="46" x2="697.8" y2="396" stroke="#e3e5ef" stroke-width="1"/><text x="697.8" y="414.0" text-anchor="middle" font-size="11" fill="#8a8fa3">Jun 24</text><line x1="780.7" y1="46" x2="780.7" y2="396" stroke="#e3e5ef" stroke-width="1"/><text x="780.7" y="414.0" text-anchor="middle" font-size="11" fill="#8a8fa3">Jun 26</text><line x1="863.5" y1="46" x2="863.5" y2="396" stroke="#e3e5ef" stroke-width="1"/><text x="863.5" y="414.0" text-anchor="middle" font-size="11" fill="#8a8fa3">Jun 28</text><line x1="946.3" y1="46" x2="946.3" y2="396" stroke="#e3e5ef" stroke-width="1"/><text x="946.3" y="414.0" text-anchor="middle" font-size="11" fill="#8a8fa3">Jun 30</text><line x1="1029.2" y1="46" x2="1029.2" y2="396" stroke="#e3e5ef" stroke-width="1"/><text x="1029.2" y="414.0" text-anchor="middle" font-size="11" fill="#8a8fa3">Jul 2</text><circle cx="60.0" cy="335.3" r="2.3" fill="#b9bdca" opacity="0.5"/><circle cx="62.0" cy="335.1" r="2.3" fill="#b9bdca" opacity="0.5"/><circle cx="64.0" cy="368.0" r="2.3" fill="#b9bdca" opacity="0.5"/><circle cx="64.8" cy="320.7" r="2.3" fill="#b9bdca" opacity="0.5"/><circle cx="70.3" cy="319.9" r="2.3" fill="#b9bdca" opacity="0.5"/><circle cx="70.6" cy="320.6" r="2.3" fill="#b9bdca" opacity="0.5"/><circle cx="72.4" cy="315.3" r="2.3" fill="#b9bdca" opacity="0.5"/><circle cx="72.7" cy="319.7" r="2.3" fill="#b9bdca" opacity="0.5"/><circle cx="72.9" cy="314.9" r="2.3" fill="#b9bdca" opacity="0.5"/><circle cx="73.6" cy="315.5" r="2.3" fill="#b9bdca" opacity="0.5"/><circle cx="73.8" cy="314.9" r="2.3" fill="#b9bdca" opacity="0.5"/><circle cx="74.4" cy="315.4" r="2.3" fill="#b9bdca" opacity="0.5"/><circle cx="75.4" cy="315.0" r="2.3" fill="#b9bdca" opacity="0.5"/><circle cx="106.8" cy="238.7" r="2.3" fill="#b9bdca" opacity="0.5"/><circle cx="107.0" cy="315.0" r="2.3" fill="#b9bdca" opacity="0.5"/><circle cx="107.3" cy="229.0" r="2.3" fill="#b9bdca" opacity="0.5"/><circle cx="107.8" cy="222.3" r="2.3" fill="#b9bdca" opacity="0.5"/><circle cx="108.3" cy="228.0" r="2.3" fill="#b9bdca" opacity="0.5"/><circle cx="108.4" cy="223.3" r="2.3" fill="#b9bdca" opacity="0.5"/><circle cx="108.5" cy="220.6" r="2.3" fill="#b9bdca" opacity="0.5"/><circle cx="108.6" cy="220.5" r="2.3" fill="#b9bdca" opacity="0.5"/><circle cx="108.7" cy="223.2" r="2.3" fill="#b9bdca" opacity="0.5"/><circle cx="109.0" cy="214.2" r="2.3" fill="#b9bdca" opacity="0.5"/><circle cx="109.0" cy="222.1" r="2.3" fill="#b9bdca" opacity="0.5"/><circle cx="109.3" cy="220.7" r="2.3" fill="#b9bdca" opacity="0.5"/><circle cx="109.6" cy="218.5" r="2.3" fill="#b9bdca" opacity="0.5"/><circle cx="109.7" cy="215.2" r="2.3" fill="#b9bdca" opacity="0.5"/><circle cx="110.0" cy="214.3" r="2.3" fill="#b9bdca" opacity="0.5"/><circle cx="110.0" cy="219.2" r="2.3" fill="#b9bdca" opacity="0.5"/><circle cx="110.2" cy="214.1" r="2.3" fill="#b9bdca" opacity="0.5"/><circle cx="110.4" cy="215.2" r="2.3" fill="#b9bdca" opacity="0.5"/><circle cx="110.6" cy="213.7" r="2.3" fill="#b9bdca" opacity="0.5"/><circle cx="110.8" cy="213.5" r="2.3" fill="#b9bdca" opacity="0.5"/><circle cx="111.1" cy="214.8" r="2.3" fill="#b9bdca" opacity="0.5"/><circle cx="111.1" cy="217.7" r="2.3" fill="#b9bdca" opacity="0.5"/><circle cx="111.2" cy="212.7" r="2.3" fill="#b9bdca" opacity="0.5"/><circle cx="111.7" cy="213.3" r="2.3" fill="#b9bdca" opacity="0.5"/><circle cx="112.3" cy="212.7" r="2.3" fill="#b9bdca" opacity="0.5"/><circle cx="112.3" cy="213.6" r="2.3" fill="#b9bdca" opacity="0.5"/><circle cx="112.5" cy="213.0" r="2.3" fill="#b9bdca" opacity="0.5"/><circle cx="112.8" cy="212.1" r="2.3" fill="#b9bdca" opacity="0.5"/><circle cx="112.9" cy="213.3" r="2.3" fill="#b9bdca" opacity="0.5"/><circle cx="113.3" cy="212.0" r="2.3" fill="#b9bdca" opacity="0.5"/><circle cx="113.9" cy="212.1" r="2.3" fill="#b9bdca" opacity="0.5"/><circle cx="113.9" cy="212.8" r="2.3" fill="#b9bdca" opacity="0.5"/><circle cx="117.7" cy="206.7" r="2.3" fill="#b9bdca" opacity="0.5"/><circle cx="118.2" cy="206.8" r="2.3" fill="#b9bdca" opacity="0.5"/><circle cx="118.2" cy="212.5" r="2.3" fill="#b9bdca" opacity="0.5"/><circle cx="118.5" cy="207.2" r="2.3" fill="#b9bdca" opacity="0.5"/><circle cx="119.7" cy="207.0" r="2.3" fill="#b9bdca" opacity="0.5"/><circle cx="122.6" cy="204.9" r="2.3" fill="#b9bdca" opacity="0.5"/><circle cx="124.4" cy="204.6" r="2.3" fill="#b9bdca" opacity="0.5"/><circle cx="124.6" cy="212.3" r="2.3" fill="#b9bdca" opacity="0.5"/><circle cx="124.9" cy="204.6" r="2.3" fill="#b9bdca" opacity="0.5"/><circle cx="124.9" cy="204.6" r="2.3" fill="#b9bdca" opacity="0.5"/><circle cx="124.9" cy="204.9" r="2.3" fill="#b9bdca" opacity="0.5"/><circle cx="124.9" cy="204.9" r="2.3" fill="#b9bdca" opacity="0.5"/><circle cx="125.6" cy="201.9" r="2.3" fill="#b9bdca" opacity="0.5"/><circle cx="126.8" cy="206.5" r="2.3" fill="#b9bdca" opacity="0.5"/><circle cx="127.2" cy="205.8" r="2.3" fill="#b9bdca" opacity="0.5"/><circle cx="127.2" cy="335.1" r="2.3" fill="#b9bdca" opacity="0.5"/><circle cx="127.8" cy="201.8" r="2.3" fill="#b9bdca" opacity="0.5"/><circle cx="127.9" cy="202.2" r="2.3" fill="#b9bdca" opacity="0.5"/><circle cx="128.9" cy="201.0" r="2.3" fill="#b9bdca" opacity="0.5"/><circle cx="129.4" cy="203.1" r="2.3" fill="#b9bdca" opacity="0.5"/><circle cx="129.6" cy="200.0" r="2.3" fill="#b9bdca" opacity="0.5"/><circle cx="129.6" cy="204.6" r="2.3" fill="#b9bdca" opacity="0.5"/><circle cx="130.3" cy="202.3" r="2.3" fill="#b9bdca" opacity="0.5"/><circle cx="131.7" cy="200.4" r="2.3" fill="#b9bdca" opacity="0.5"/><circle cx="132.2" cy="200.7" r="2.3" fill="#b9bdca" opacity="0.5"/><circle cx="132.8" cy="200.0" r="2.3" fill="#b9bdca" opacity="0.5"/><circle cx="134.1" cy="199.7" r="2.3" fill="#b9bdca" opacity="0.5"/><circle cx="142.0" cy="200.6" r="2.3" fill="#b9bdca" opacity="0.5"/><circle cx="142.7" cy="201.8" r="2.3" fill="#b9bdca" opacity="0.5"/><circle cx="143.7" cy="208.4" r="2.3" fill="#b9bdca" opacity="0.5"/><circle cx="143.8" cy="200.8" r="2.3" fill="#b9bdca" opacity="0.5"/><circle cx="144.6" cy="200.7" r="2.3" fill="#b9bdca" opacity="0.5"/><circle cx="144.6" cy="201.9" r="2.3" fill="#b9bdca" opacity="0.5"/><circle cx="144.9" cy="195.5" r="2.3" fill="#b9bdca" opacity="0.5"/><circle cx="145.6" cy="196.9" r="2.3" fill="#b9bdca" opacity="0.5"/><circle cx="146.0" cy="197.9" r="2.3" fill="#b9bdca" opacity="0.5"/><circle cx="146.7" cy="196.1" r="2.3" fill="#b9bdca" opacity="0.5"/><circle cx="149.1" cy="197.3" r="2.3" fill="#b9bdca" opacity="0.5"/><circle cx="149.8" cy="195.9" r="2.3" fill="#b9bdca" opacity="0.5"/><circle cx="150.0" cy="201.0" r="2.3" fill="#b9bdca" opacity="0.5"/><circle cx="150.2" cy="197.5" r="2.3" fill="#b9bdca" opacity="0.5"/><circle cx="150.7" cy="196.9" r="2.3" fill="#b9bdca" opacity="0.5"/><circle cx="150.8" cy="197.1" r="2.3" fill="#b9bdca" opacity="0.5"/><circle cx="150.8" cy="197.0" r="2.3" fill="#b9bdca" opacity="0.5"/><circle cx="151.4" cy="196.0" r="2.3" fill="#b9bdca" opacity="0.5"/><circle cx="151.4" cy="196.0" r="2.3" fill="#b9bdca" opacity="0.5"/><circle cx="151.4" cy="197.9" r="2.3" fill="#b9bdca" opacity="0.5"/><circle cx="151.8" cy="197.8" r="2.3" fill="#b9bdca" opacity="0.5"/><circle cx="152.2" cy="196.2" r="2.3" fill="#b9bdca" opacity="0.5"/><circle cx="152.2" cy="197.5" r="2.3" fill="#b9bdca" opacity="0.5"/><circle cx="152.3" cy="196.9" r="2.3" fill="#b9bdca" opacity="0.5"/><circle cx="152.4" cy="195.5" r="2.3" fill="#b9bdca" opacity="0.5"/><circle cx="152.9" cy="198.1" r="2.3" fill="#b9bdca" opacity="0.5"/><circle cx="152.9" cy="187.4" r="2.3" fill="#b9bdca" opacity="0.5"/><circle cx="153.2" cy="186.2" r="2.3" fill="#b9bdca" opacity="0.5"/><circle cx="153.2" cy="196.3" r="2.3" fill="#b9bdca" opacity="0.5"/><circle cx="153.2" cy="197.2" r="2.3" fill="#b9bdca" opacity="0.5"/><circle cx="153.2" cy="197.8" r="2.3" fill="#b9bdca" opacity="0.5"/><circle cx="153.2" cy="368.0" r="2.3" fill="#b9bdca" opacity="0.5"/><circle cx="153.7" cy="184.5" r="2.3" fill="#b9bdca" opacity="0.5"/><circle cx="155.8" cy="184.6" r="2.3" fill="#b9bdca" opacity="0.5"/><circle cx="156.7" cy="185.6" r="2.3" fill="#b9bdca" opacity="0.5"/><circle cx="159.9" cy="188.7" r="2.3" fill="#b9bdca" opacity="0.5"/><circle cx="164.1" cy="185.4" r="2.3" fill="#b9bdca" opacity="0.5"/><circle cx="165.0" cy="185.2" r="2.3" fill="#b9bdca" opacity="0.5"/><circle cx="165.3" cy="186.6" r="2.3" fill="#b9bdca" opacity="0.5"/><circle cx="165.4" cy="185.3" r="2.3" fill="#b9bdca" opacity="0.5"/><circle cx="166.1" cy="185.3" r="2.3" fill="#b9bdca" opacity="0.5"/><circle cx="166.5" cy="185.0" r="2.3" fill="#b9bdca" opacity="0.5"/><circle cx="167.2" cy="184.9" r="2.3" fill="#b9bdca" opacity="0.5"/><circle cx="167.7" cy="185.1" r="2.3" fill="#b9bdca" opacity="0.5"/><circle cx="167.7" cy="185.2" r="2.3" fill="#b9bdca" opacity="0.5"/><circle cx="167.7" cy="186.4" r="2.3" fill="#b9bdca" opacity="0.5"/><circle cx="167.8" cy="183.9" r="2.3" fill="#b9bdca" opacity="0.5"/><circle cx="171.6" cy="184.4" r="2.3" fill="#b9bdca" opacity="0.5"/><circle cx="172.3" cy="184.2" r="2.3" fill="#b9bdca" opacity="0.5"/><circle cx="174.7" cy="169.3" r="2.3" fill="#b9bdca" opacity="0.5"/><circle cx="177.0" cy="168.8" r="2.3" fill="#b9bdca" opacity="0.5"/><circle cx="177.2" cy="167.7" r="2.3" fill="#b9bdca" opacity="0.5"/><circle cx="178.2" cy="201.4" r="2.3" fill="#b9bdca" opacity="0.5"/><circle cx="178.5" cy="165.0" r="2.3" fill="#b9bdca" opacity="0.5"/><circle cx="178.7" cy="198.2" r="2.3" fill="#b9bdca" opacity="0.5"/><circle cx="179.1" cy="163.7" r="2.3" fill="#b9bdca" opacity="0.5"/><circle cx="179.2" cy="163.6" r="2.3" fill="#b9bdca" opacity="0.5"/><circle cx="179.6" cy="165.9" r="2.3" fill="#b9bdca" opacity="0.5"/><circle cx="181.7" cy="165.1" r="2.3" fill="#b9bdca" opacity="0.5"/><circle cx="182.2" cy="155.9" r="2.3" fill="#b9bdca" opacity="0.5"/><circle cx="184.2" cy="196.5" r="2.3" fill="#b9bdca" opacity="0.5"/><circle cx="185.0" cy="157.4" r="2.3" fill="#b9bdca" opacity="0.5"/><circle cx="185.8" cy="155.8" r="2.3" fill="#b9bdca" opacity="0.5"/><circle cx="187.2" cy="141.9" r="2.3" fill="#b9bdca" opacity="0.5"/><circle cx="189.9" cy="156.1" r="2.3" fill="#b9bdca" opacity="0.5"/><circle cx="189.9" cy="156.4" r="2.3" fill="#b9bdca" opacity="0.5"/><circle cx="190.1" cy="141.8" r="2.3" fill="#b9bdca" opacity="0.5"/><circle cx="190.2" cy="196.0" r="2.3" fill="#b9bdca" opacity="0.5"/><circle cx="191.1" cy="131.7" r="2.3" fill="#b9bdca" opacity="0.5"/><circle cx="191.3" cy="134.1" r="2.3" fill="#b9bdca" opacity="0.5"/><circle cx="191.6" cy="141.1" r="2.3" fill="#b9bdca" opacity="0.5"/><circle cx="192.0" cy="134.0" r="2.3" fill="#b9bdca" opacity="0.5"/><circle cx="192.1" cy="130.9" r="2.3" fill="#b9bdca" opacity="0.5"/><circle cx="192.1" cy="154.2" r="2.3" fill="#b9bdca" opacity="0.5"/><circle cx="192.3" cy="133.6" r="2.3" fill="#b9bdca" opacity="0.5"/><circle cx="192.5" cy="129.5" r="2.3" fill="#b9bdca" opacity="0.5"/><circle cx="192.6" cy="130.9" r="2.3" fill="#b9bdca" opacity="0.5"/><circle cx="192.6" cy="133.4" r="2.3" fill="#b9bdca" opacity="0.5"/><circle cx="192.8" cy="131.2" r="2.3" fill="#b9bdca" opacity="0.5"/><circle cx="194.5" cy="189.8" r="2.3" fill="#b9bdca" opacity="0.5"/><circle cx="194.6" cy="133.2" r="2.3" fill="#b9bdca" opacity="0.5"/><circle cx="194.8" cy="133.5" r="2.3" fill="#b9bdca" opacity="0.5"/><circle cx="195.5" cy="130.1" r="2.3" fill="#b9bdca" opacity="0.5"/><circle cx="197.2" cy="130.3" r="2.3" fill="#b9bdca" opacity="0.5"/><circle cx="197.9" cy="303.1" r="2.3" fill="#b9bdca" opacity="0.5"/><circle cx="199.3" cy="133.2" r="2.3" fill="#b9bdca" opacity="0.5"/><circle cx="201.1" cy="144.2" r="2.3" fill="#b9bdca" opacity="0.5"/><circle cx="201.6" cy="135.3" r="2.3" fill="#b9bdca" opacity="0.5"/><circle cx="202.7" cy="133.4" r="2.3" fill="#b9bdca" opacity="0.5"/><circle cx="202.8" cy="159.9" r="2.3" fill="#b9bdca" opacity="0.5"/><circle cx="203.1" cy="130.8" r="2.3" fill="#b9bdca" opacity="0.5"/><circle cx="203.6" cy="133.2" r="2.3" fill="#b9bdca" opacity="0.5"/><circle cx="207.8" cy="130.9" r="2.3" fill="#b9bdca" opacity="0.5"/><circle cx="208.3" cy="130.9" r="2.3" fill="#b9bdca" opacity="0.5"/><circle cx="208.3" cy="133.8" r="2.3" fill="#b9bdca" opacity="0.5"/><circle cx="208.9" cy="130.4" r="2.3" fill="#b9bdca" opacity="0.5"/><circle cx="209.4" cy="153.7" r="2.3" fill="#b9bdca" opacity="0.5"/><circle cx="210.2" cy="133.3" r="2.3" fill="#b9bdca" opacity="0.5"/><circle cx="211.5" cy="156.5" r="2.3" fill="#b9bdca" opacity="0.5"/><circle cx="211.7" cy="132.3" r="2.3" fill="#b9bdca" opacity="0.5"/><circle cx="213.3" cy="147.2" r="2.3" fill="#b9bdca" opacity="0.5"/><circle cx="213.5" cy="133.6" r="2.3" fill="#b9bdca" opacity="0.5"/><circle cx="214.1" cy="129.5" r="2.3" fill="#b9bdca" opacity="0.5"/><circle cx="214.1" cy="133.3" r="2.3" fill="#b9bdca" opacity="0.5"/><circle cx="216.0" cy="133.3" r="2.3" fill="#b9bdca" opacity="0.5"/><circle cx="217.2" cy="129.5" r="2.3" fill="#b9bdca" opacity="0.5"/><circle cx="219.3" cy="130.6" r="2.3" fill="#b9bdca" opacity="0.5"/><circle cx="220.9" cy="128.9" r="2.3" fill="#b9bdca" opacity="0.5"/><circle cx="221.2" cy="132.7" r="2.3" fill="#b9bdca" opacity="0.5"/><circle cx="221.2" cy="133.1" r="2.3" fill="#b9bdca" opacity="0.5"/><circle cx="223.6" cy="129.8" r="2.3" fill="#b9bdca" opacity="0.5"/><circle cx="224.2" cy="333.8" r="2.3" fill="#b9bdca" opacity="0.5"/><circle cx="224.4" cy="128.4" r="2.3" fill="#b9bdca" opacity="0.5"/><circle cx="225.5" cy="129.8" r="2.3" fill="#b9bdca" opacity="0.5"/><circle cx="226.0" cy="128.9" r="2.3" fill="#b9bdca" opacity="0.5"/><circle cx="226.1" cy="128.9" r="2.3" fill="#b9bdca" opacity="0.5"/><circle cx="226.9" cy="128.2" r="2.3" fill="#b9bdca" opacity="0.5"/><circle cx="227.5" cy="129.7" r="2.3" fill="#b9bdca" opacity="0.5"/><circle cx="227.7" cy="142.3" r="2.3" fill="#b9bdca" opacity="0.5"/><circle cx="229.9" cy="128.8" r="2.3" fill="#b9bdca" opacity="0.5"/><circle cx="231.3" cy="161.1" r="2.3" fill="#b9bdca" opacity="0.5"/><circle cx="233.8" cy="164.4" r="2.3" fill="#b9bdca" opacity="0.5"/><circle cx="234.1" cy="248.3" r="2.3" fill="#b9bdca" opacity="0.5"/><circle cx="237.7" cy="135.4" r="2.3" fill="#b9bdca" opacity="0.5"/><circle cx="238.0" cy="128.0" r="2.3" fill="#b9bdca" opacity="0.5"/><circle cx="239.1" cy="229.0" r="2.3" fill="#b9bdca" opacity="0.5"/><circle cx="241.7" cy="128.1" r="2.3" fill="#b9bdca" opacity="0.5"/><circle cx="242.3" cy="128.6" r="2.3" fill="#b9bdca" opacity="0.5"/><circle cx="244.7" cy="128.8" r="2.3" fill="#b9bdca" opacity="0.5"/><circle cx="244.7" cy="129.6" r="2.3" fill="#b9bdca" opacity="0.5"/><circle cx="244.7" cy="130.9" r="2.3" fill="#b9bdca" opacity="0.5"/><circle cx="249.7" cy="112.8" r="2.3" fill="#b9bdca" opacity="0.5"/><circle cx="252.3" cy="110.2" r="2.3" fill="#b9bdca" opacity="0.5"/><circle cx="252.3" cy="111.6" r="2.3" fill="#b9bdca" opacity="0.5"/><circle cx="254.0" cy="111.0" r="2.3" fill="#b9bdca" opacity="0.5"/><circle cx="254.8" cy="335.1" r="2.3" fill="#b9bdca" opacity="0.5"/><circle cx="255.2" cy="111.6" r="2.3" fill="#b9bdca" opacity="0.5"/><circle cx="256.8" cy="105.5" r="2.3" fill="#b9bdca" opacity="0.5"/><circle cx="257.1" cy="108.5" r="2.3" fill="#b9bdca" opacity="0.5"/><circle cx="257.7" cy="105.1" r="2.3" fill="#b9bdca" opacity="0.5"/><circle cx="258.5" cy="103.8" r="2.3" fill="#b9bdca" opacity="0.5"/><circle cx="259.4" cy="125.8" r="2.3" fill="#b9bdca" opacity="0.5"/><circle cx="266.5" cy="103.5" r="2.3" fill="#b9bdca" opacity="0.5"/><circle cx="268.4" cy="127.8" r="2.3" fill="#b9bdca" opacity="0.5"/><circle cx="269.2" cy="334.3" r="2.3" fill="#b9bdca" opacity="0.5"/><circle cx="270.3" cy="128.6" r="2.3" fill="#b9bdca" opacity="0.5"/><circle cx="270.8" cy="128.6" r="2.3" fill="#b9bdca" opacity="0.5"/><circle cx="270.9" cy="128.6" r="2.3" fill="#b9bdca" opacity="0.5"/><circle cx="271.6" cy="256.6" r="2.3" fill="#b9bdca" opacity="0.5"/><circle cx="272.4" cy="254.6" r="2.3" fill="#b9bdca" opacity="0.5"/><circle cx="273.7" cy="128.6" r="2.3" fill="#b9bdca" opacity="0.5"/><circle cx="277.0" cy="250.1" r="2.3" fill="#b9bdca" opacity="0.5"/><circle cx="277.3" cy="161.4" r="2.3" fill="#b9bdca" opacity="0.5"/><circle cx="277.6" cy="206.6" r="2.3" fill="#b9bdca" opacity="0.5"/><circle cx="280.7" cy="113.5" r="2.3" fill="#b9bdca" opacity="0.5"/><circle cx="281.7" cy="89.6" r="2.3" fill="#b9bdca" opacity="0.5"/><circle cx="282.4" cy="90.2" r="2.3" fill="#b9bdca" opacity="0.5"/><circle cx="284.3" cy="89.3" r="2.3" fill="#b9bdca" opacity="0.5"/><circle cx="284.8" cy="87.6" r="2.3" fill="#b9bdca" opacity="0.5"/><circle cx="285.5" cy="185.0" r="2.3" fill="#b9bdca" opacity="0.5"/><circle cx="286.2" cy="131.6" r="2.3" fill="#b9bdca" opacity="0.5"/><circle cx="286.7" cy="87.8" r="2.3" fill="#b9bdca" opacity="0.5"/><circle cx="287.5" cy="85.4" r="2.3" fill="#b9bdca" opacity="0.5"/><circle cx="288.9" cy="86.8" r="2.3" fill="#b9bdca" opacity="0.5"/><circle cx="290.3" cy="88.4" r="2.3" fill="#b9bdca" opacity="0.5"/><circle cx="296.0" cy="89.5" r="2.3" fill="#b9bdca" opacity="0.5"/><circle cx="296.0" cy="155.6" r="2.3" fill="#b9bdca" opacity="0.5"/><circle cx="296.0" cy="84.4" r="2.3" fill="#b9bdca" opacity="0.5"/><circle cx="302.8" cy="89.2" r="2.3" fill="#b9bdca" opacity="0.5"/><circle cx="302.9" cy="90.5" r="2.3" fill="#b9bdca" opacity="0.5"/><circle cx="304.8" cy="87.7" r="2.3" fill="#b9bdca" opacity="0.5"/><circle cx="305.5" cy="367.9" r="2.3" fill="#b9bdca" opacity="0.5"/><circle cx="308.2" cy="164.3" r="2.3" fill="#b9bdca" opacity="0.5"/><circle cx="309.6" cy="94.6" r="2.3" fill="#b9bdca" opacity="0.5"/><circle cx="310.1" cy="89.6" r="2.3" fill="#b9bdca" opacity="0.5"/><circle cx="316.0" cy="124.6" r="2.3" fill="#b9bdca" opacity="0.5"/><circle cx="322.2" cy="146.2" r="2.3" fill="#b9bdca" opacity="0.5"/><circle cx="322.4" cy="90.5" r="2.3" fill="#b9bdca" opacity="0.5"/><circle cx="322.9" cy="87.7" r="2.3" fill="#b9bdca" opacity="0.5"/><circle cx="323.3" cy="87.7" r="2.3" fill="#b9bdca" opacity="0.5"/><circle cx="323.3" cy="89.6" r="2.3" fill="#b9bdca" opacity="0.5"/><circle cx="327.7" cy="93.0" r="2.3" fill="#b9bdca" opacity="0.5"/><circle cx="329.3" cy="85.5" r="2.3" fill="#b9bdca" opacity="0.5"/><circle cx="342.4" cy="334.8" r="2.3" fill="#b9bdca" opacity="0.5"/><circle cx="343.9" cy="86.3" r="2.3" fill="#b9bdca" opacity="0.5"/><circle cx="348.3" cy="85.5" r="2.3" fill="#b9bdca" opacity="0.5"/><circle cx="349.1" cy="84.6" r="2.3" fill="#b9bdca" opacity="0.5"/><circle cx="351.0" cy="87.8" r="2.3" fill="#b9bdca" opacity="0.5"/><circle cx="351.7" cy="84.4" r="2.3" fill="#b9bdca" opacity="0.5"/><circle cx="352.1" cy="84.8" r="2.3" fill="#b9bdca" opacity="0.5"/><circle cx="353.4" cy="87.4" r="2.3" fill="#b9bdca" opacity="0.5"/><circle cx="360.5" cy="84.4" r="2.3" fill="#b9bdca" opacity="0.5"/><circle cx="391.4" cy="89.3" r="2.3" fill="#b9bdca" opacity="0.5"/><circle cx="397.0" cy="88.6" r="2.3" fill="#b9bdca" opacity="0.5"/><circle cx="397.0" cy="92.1" r="2.3" fill="#b9bdca" opacity="0.5"/><circle cx="398.2" cy="156.8" r="2.3" fill="#b9bdca" opacity="0.5"/><circle cx="416.0" cy="201.6" r="2.3" fill="#b9bdca" opacity="0.5"/><circle cx="429.0" cy="315.6" r="2.3" fill="#b9bdca" opacity="0.5"/><circle cx="464.6" cy="87.7" r="2.3" fill="#b9bdca" opacity="0.5"/><circle cx="475.4" cy="87.6" r="2.3" fill="#b9bdca" opacity="0.5"/><circle cx="485.0" cy="87.2" r="2.3" fill="#b9bdca" opacity="0.5"/><circle cx="487.2" cy="88.8" r="2.3" fill="#b9bdca" opacity="0.5"/><circle cx="488.0" cy="89.2" r="2.3" fill="#b9bdca" opacity="0.5"/><circle cx="488.5" cy="90.9" r="2.3" fill="#b9bdca" opacity="0.5"/><circle cx="491.2" cy="87.7" r="2.3" fill="#b9bdca" opacity="0.5"/><circle cx="500.9" cy="88.6" r="2.3" fill="#b9bdca" opacity="0.5"/><circle cx="502.1" cy="89.7" r="2.3" fill="#b9bdca" opacity="0.5"/><circle cx="502.9" cy="88.2" r="2.3" fill="#b9bdca" opacity="0.5"/><circle cx="521.0" cy="75.8" r="2.3" fill="#b9bdca" opacity="0.5"/><circle cx="522.4" cy="75.7" r="2.3" fill="#b9bdca" opacity="0.5"/><circle cx="523.5" cy="76.7" r="2.3" fill="#b9bdca" opacity="0.5"/><circle cx="523.5" cy="75.8" r="2.3" fill="#b9bdca" opacity="0.5"/><circle cx="524.1" cy="75.3" r="2.3" fill="#b9bdca" opacity="0.5"/><circle cx="524.4" cy="74.7" r="2.3" fill="#b9bdca" opacity="0.5"/><circle cx="524.5" cy="83.4" r="2.3" fill="#b9bdca" opacity="0.5"/><circle cx="525.0" cy="76.2" r="2.3" fill="#b9bdca" opacity="0.5"/><circle cx="525.4" cy="78.1" r="2.3" fill="#b9bdca" opacity="0.5"/><circle cx="525.8" cy="74.7" r="2.3" fill="#b9bdca" opacity="0.5"/><circle cx="528.8" cy="89.3" r="2.3" fill="#b9bdca" opacity="0.5"/><circle cx="534.9" cy="74.4" r="2.3" fill="#b9bdca" opacity="0.5"/><circle cx="544.4" cy="74.4" r="2.3" fill="#b9bdca" opacity="0.5"/><circle cx="546.0" cy="335.1" r="2.3" fill="#b9bdca" opacity="0.5"/><circle cx="546.0" cy="81.7" r="2.3" fill="#b9bdca" opacity="0.5"/><circle cx="547.2" cy="74.6" r="2.3" fill="#b9bdca" opacity="0.5"/><circle cx="547.2" cy="82.1" r="2.3" fill="#b9bdca" opacity="0.5"/><circle cx="547.2" cy="73.9" r="2.3" fill="#b9bdca" opacity="0.5"/><circle cx="549.9" cy="76.2" r="2.3" fill="#b9bdca" opacity="0.5"/><circle cx="550.4" cy="82.1" r="2.3" fill="#b9bdca" opacity="0.5"/><circle cx="550.8" cy="74.2" r="2.3" fill="#b9bdca" opacity="0.5"/><circle cx="550.8" cy="75.0" r="2.3" fill="#b9bdca" opacity="0.5"/><circle cx="551.4" cy="73.6" r="2.3" fill="#b9bdca" opacity="0.5"/><circle cx="551.4" cy="83.3" r="2.3" fill="#b9bdca" opacity="0.5"/><circle cx="551.4" cy="83.8" r="2.3" fill="#b9bdca" opacity="0.5"/><circle cx="551.4" cy="78.1" r="2.3" fill="#b9bdca" opacity="0.5"/><circle cx="551.4" cy="81.5" r="2.3" fill="#b9bdca" opacity="0.5"/><circle cx="551.4" cy="83.0" r="2.3" fill="#b9bdca" opacity="0.5"/><circle cx="551.4" cy="83.7" r="2.3" fill="#b9bdca" opacity="0.5"/><circle cx="555.2" cy="82.7" r="2.3" fill="#b9bdca" opacity="0.5"/><circle cx="556.1" cy="77.8" r="2.3" fill="#b9bdca" opacity="0.5"/><circle cx="558.1" cy="69.8" r="2.3" fill="#b9bdca" opacity="0.5"/><circle cx="558.7" cy="75.9" r="2.3" fill="#b9bdca" opacity="0.5"/><circle cx="559.0" cy="74.3" r="2.3" fill="#b9bdca" opacity="0.5"/><circle cx="559.0" cy="77.4" r="2.3" fill="#b9bdca" opacity="0.5"/><circle cx="559.0" cy="80.6" r="2.3" fill="#b9bdca" opacity="0.5"/><circle cx="559.0" cy="81.8" r="2.3" fill="#b9bdca" opacity="0.5"/><circle cx="560.4" cy="76.9" r="2.3" fill="#b9bdca" opacity="0.5"/><circle cx="560.4" cy="82.8" r="2.3" fill="#b9bdca" opacity="0.5"/><circle cx="560.4" cy="83.0" r="2.3" fill="#b9bdca" opacity="0.5"/><circle cx="560.4" cy="83.1" r="2.3" fill="#b9bdca" opacity="0.5"/><circle cx="561.0" cy="69.1" r="2.3" fill="#b9bdca" opacity="0.5"/><circle cx="562.5" cy="75.5" r="2.3" fill="#b9bdca" opacity="0.5"/><circle cx="563.4" cy="74.3" r="2.3" fill="#b9bdca" opacity="0.5"/><circle cx="587.7" cy="74.0" r="2.3" fill="#b9bdca" opacity="0.5"/><circle cx="616.5" cy="73.4" r="2.3" fill="#b9bdca" opacity="0.5"/><circle cx="616.7" cy="75.9" r="2.3" fill="#b9bdca" opacity="0.5"/><circle cx="616.7" cy="76.3" r="2.3" fill="#b9bdca" opacity="0.5"/><circle cx="616.9" cy="76.0" r="2.3" fill="#b9bdca" opacity="0.5"/><circle cx="616.9" cy="76.8" r="2.3" fill="#b9bdca" opacity="0.5"/><circle cx="616.9" cy="81.2" r="2.3" fill="#b9bdca" opacity="0.5"/><circle cx="616.9" cy="83.4" r="2.3" fill="#b9bdca" opacity="0.5"/><circle cx="637.3" cy="76.6" r="2.3" fill="#b9bdca" opacity="0.5"/><circle cx="638.7" cy="76.7" r="2.3" fill="#b9bdca" opacity="0.5"/><circle cx="638.7" cy="82.8" r="2.3" fill="#b9bdca" opacity="0.5"/><circle cx="638.7" cy="82.8" r="2.3" fill="#b9bdca" opacity="0.5"/><circle cx="638.7" cy="83.3" r="2.3" fill="#b9bdca" opacity="0.5"/><circle cx="642.9" cy="233.4" r="2.3" fill="#b9bdca" opacity="0.5"/><circle cx="644.2" cy="228.9" r="2.3" fill="#b9bdca" opacity="0.5"/><circle cx="645.5" cy="198.3" r="2.3" fill="#b9bdca" opacity="0.5"/><circle cx="672.0" cy="73.4" r="2.3" fill="#b9bdca" opacity="0.5"/><circle cx="679.4" cy="192.4" r="2.3" fill="#b9bdca" opacity="0.5"/><circle cx="682.0" cy="75.3" r="2.3" fill="#b9bdca" opacity="0.5"/><circle cx="682.7" cy="74.0" r="2.3" fill="#b9bdca" opacity="0.5"/><circle cx="684.3" cy="194.4" r="2.3" fill="#b9bdca" opacity="0.5"/><circle cx="686.9" cy="168.6" r="2.3" fill="#b9bdca" opacity="0.5"/><circle cx="688.5" cy="77.1" r="2.3" fill="#b9bdca" opacity="0.5"/><circle cx="688.5" cy="99.5" r="2.3" fill="#b9bdca" opacity="0.5"/><circle cx="708.9" cy="71.4" r="2.3" fill="#b9bdca" opacity="0.5"/><circle cx="708.9" cy="73.5" r="2.3" fill="#b9bdca" opacity="0.5"/><circle cx="716.2" cy="72.4" r="2.3" fill="#b9bdca" opacity="0.5"/><circle cx="746.1" cy="83.0" r="2.3" fill="#b9bdca" opacity="0.5"/><circle cx="746.5" cy="72.1" r="2.3" fill="#b9bdca" opacity="0.5"/><circle cx="746.9" cy="71.6" r="2.3" fill="#b9bdca" opacity="0.5"/><circle cx="747.8" cy="75.5" r="2.3" fill="#b9bdca" opacity="0.5"/><circle cx="748.3" cy="73.7" r="2.3" fill="#b9bdca" opacity="0.5"/><circle cx="749.6" cy="72.9" r="2.3" fill="#b9bdca" opacity="0.5"/><circle cx="750.1" cy="73.4" r="2.3" fill="#b9bdca" opacity="0.5"/><circle cx="808.5" cy="85.2" r="2.3" fill="#b9bdca" opacity="0.5"/><circle cx="808.5" cy="256.6" r="2.3" fill="#b9bdca" opacity="0.5"/><circle cx="808.5" cy="335.3" r="2.3" fill="#b9bdca" opacity="0.5"/><circle cx="808.9" cy="86.8" r="2.3" fill="#b9bdca" opacity="0.5"/><circle cx="809.4" cy="71.5" r="2.3" fill="#b9bdca" opacity="0.5"/><circle cx="811.0" cy="71.0" r="2.3" fill="#b9bdca" opacity="0.5"/><circle cx="811.8" cy="71.5" r="2.3" fill="#b9bdca" opacity="0.5"/><circle cx="812.0" cy="55.0" r="2.3" fill="#b9bdca" opacity="0.5"/><circle cx="820.1" cy="83.1" r="2.3" fill="#b9bdca" opacity="0.5"/><circle cx="822.1" cy="74.7" r="2.3" fill="#b9bdca" opacity="0.5"/><circle cx="822.2" cy="59.3" r="2.3" fill="#b9bdca" opacity="0.5"/><circle cx="822.2" cy="79.9" r="2.3" fill="#b9bdca" opacity="0.5"/><circle cx="822.4" cy="74.1" r="2.3" fill="#b9bdca" opacity="0.5"/><circle cx="822.8" cy="72.7" r="2.3" fill="#b9bdca" opacity="0.5"/><circle cx="822.9" cy="73.8" r="2.3" fill="#b9bdca" opacity="0.5"/><circle cx="822.9" cy="75.9" r="2.3" fill="#b9bdca" opacity="0.5"/><circle cx="823.3" cy="74.1" r="2.3" fill="#b9bdca" opacity="0.5"/><circle cx="823.7" cy="73.5" r="2.3" fill="#b9bdca" opacity="0.5"/><circle cx="824.2" cy="74.2" r="2.3" fill="#b9bdca" opacity="0.5"/><circle cx="824.6" cy="71.5" r="2.3" fill="#b9bdca" opacity="0.5"/><circle cx="825.8" cy="74.3" r="2.3" fill="#b9bdca" opacity="0.5"/><circle cx="832.4" cy="73.2" r="2.3" fill="#b9bdca" opacity="0.5"/><circle cx="832.4" cy="73.6" r="2.3" fill="#b9bdca" opacity="0.5"/><circle cx="832.4" cy="73.8" r="2.3" fill="#b9bdca" opacity="0.5"/><circle cx="845.0" cy="73.3" r="2.3" fill="#b9bdca" opacity="0.5"/><circle cx="845.0" cy="73.4" r="2.3" fill="#b9bdca" opacity="0.5"/><circle cx="873.7" cy="96.1" r="2.3" fill="#b9bdca" opacity="0.5"/><circle cx="991.2" cy="95.6" r="2.3" fill="#b9bdca" opacity="0.5"/><circle cx="1030.1" cy="74.8" r="2.3" fill="#b9bdca" opacity="0.5"/><circle cx="1032.0" cy="72.3" r="2.3" fill="#b9bdca" opacity="0.5"/><path d="M182.2 152.3L185.8 155.9L182.2 159.5L178.6 155.9Z" fill="#2b3a7a" opacity="0.8" stroke="none" stroke-width="0"/><path d="M190.1 138.2L193.7 141.8L190.1 145.4L186.5 141.8Z" fill="#2b3a7a" opacity="0.8" stroke="none" stroke-width="0"/><path d="M191.1 128.1L194.7 131.7L191.1 135.3L187.5 131.7Z" fill="#2b3a7a" opacity="0.8" stroke="none" stroke-width="0"/><path d="M191.3 130.5L194.9 134.1L191.3 137.7L187.7 134.1Z" fill="#2b3a7a" opacity="0.8" stroke="none" stroke-width="0"/><path d="M192.1 127.3L195.7 130.9L192.1 134.5L188.5 130.9Z" fill="#2b3a7a" opacity="0.8" stroke="none" stroke-width="0"/><path d="M192.5 125.9L196.1 129.5L192.5 133.1L188.9 129.5Z" fill="#2b3a7a" opacity="0.8" stroke="none" stroke-width="0"/><path d="M192.6 127.3L196.2 130.9L192.6 134.5L189.0 130.9Z" fill="#2b3a7a" opacity="0.8" stroke="none" stroke-width="0"/><path d="M217.2 125.9L220.8 129.5L217.2 133.1L213.6 129.5Z" fill="#2b3a7a" opacity="0.8" stroke="none" stroke-width="0"/><path d="M220.9 125.3L224.5 128.9L220.9 132.5L217.3 128.9Z" fill="#2b3a7a" opacity="0.8" stroke="none" stroke-width="0"/><path d="M224.4 124.8L228.0 128.4L224.4 132.0L220.8 128.4Z" fill="#2b3a7a" opacity="0.8" stroke="none" stroke-width="0"/><path d="M226.9 124.6L230.5 128.2L226.9 131.8L223.3 128.2Z" fill="#2b3a7a" opacity="0.8" stroke="none" stroke-width="0"/><path d="M238.0 124.4L241.6 128.0L238.0 131.6L234.4 128.0Z" fill="#2b3a7a" opacity="0.8" stroke="none" stroke-width="0"/><path d="M249.7 109.2L253.3 112.8L249.7 116.4L246.1 112.8Z" fill="#2b3a7a" opacity="0.8" stroke="none" stroke-width="0"/><path d="M255.2 108.0L258.8 111.6L255.2 115.2L251.6 111.6Z" fill="#2b3a7a" opacity="0.8" stroke="none" stroke-width="0"/><path d="M256.8 101.9L260.4 105.5L256.8 109.1L253.2 105.5Z" fill="#2b3a7a" opacity="0.8" stroke="none" stroke-width="0"/><path d="M257.1 104.9L260.7 108.5L257.1 112.1L253.5 108.5Z" fill="#2b3a7a" opacity="0.8" stroke="none" stroke-width="0"/><path d="M257.7 101.5L261.3 105.1L257.7 108.7L254.1 105.1Z" fill="#2b3a7a" opacity="0.8" stroke="none" stroke-width="0"/><path d="M258.5 100.2L262.1 103.8L258.5 107.4L254.9 103.8Z" fill="#2b3a7a" opacity="0.8" stroke="none" stroke-width="0"/><path d="M266.5 99.9L270.1 103.5L266.5 107.1L262.9 103.5Z" fill="#2b3a7a" opacity="0.8" stroke="none" stroke-width="0"/><path d="M281.7 86.0L285.3 89.6L281.7 93.2L278.1 89.6Z" fill="#2b3a7a" opacity="0.8" stroke="none" stroke-width="0"/><path d="M284.3 85.7L287.9 89.3L284.3 92.9L280.7 89.3Z" fill="#2b3a7a" opacity="0.8" stroke="none" stroke-width="0"/><path d="M284.8 84.0L288.4 87.6L284.8 91.2L281.2 87.6Z" fill="#2b3a7a" opacity="0.8" stroke="none" stroke-width="0"/><path d="M287.5 81.8L291.1 85.4L287.5 89.0L283.9 85.4Z" fill="#2b3a7a" opacity="0.8" stroke="none" stroke-width="0"/><path d="M296.0 80.8L299.6 84.4L296.0 88.0L292.4 84.4Z" fill="#2b3a7a" opacity="0.8" stroke="none" stroke-width="0"/><path d="M360.5 80.8L364.1 84.4L360.5 88.0L356.9 84.4Z" fill="#2b3a7a" opacity="0.8" stroke="none" stroke-width="0"/><path d="M521.0 72.2L524.6 75.8L521.0 79.4L517.4 75.8Z" fill="#2b3a7a" opacity="0.8" stroke="none" stroke-width="0"/><path d="M522.4 72.1L526.0 75.7L522.4 79.3L518.8 75.7Z" fill="#2b3a7a" opacity="0.8" stroke="none" stroke-width="0"/><path d="M524.1 71.7L527.7 75.3L524.1 78.9L520.5 75.3Z" fill="#2b3a7a" opacity="0.8" stroke="none" stroke-width="0"/><path d="M524.4 71.1L528.0 74.7L524.4 78.3L520.8 74.7Z" fill="#2b3a7a" opacity="0.8" stroke="none" stroke-width="0"/><path d="M525.8 71.1L529.4 74.7L525.8 78.3L522.2 74.7Z" fill="#2b3a7a" opacity="0.8" stroke="none" stroke-width="0"/><path d="M534.9 70.8L538.5 74.4L534.9 78.0L531.3 74.4Z" fill="#2b3a7a" opacity="0.8" stroke="none" stroke-width="0"/><path d="M547.2 70.3L550.8 73.9L547.2 77.5L543.6 73.9Z" fill="#2b3a7a" opacity="0.8" stroke="none" stroke-width="0"/><path d="M551.4 70.0L555.0 73.6L551.4 77.2L547.8 73.6Z" fill="#2b3a7a" opacity="0.8" stroke="none" stroke-width="0"/><path d="M616.5 69.8L620.1 73.4L616.5 77.0L612.9 73.4Z" fill="#2b3a7a" opacity="0.8" stroke="none" stroke-width="0"/><path d="M672.0 69.8L675.6 73.4L672.0 77.0L668.4 73.4Z" fill="#2b3a7a" opacity="0.8" stroke="none" stroke-width="0"/><path d="M708.9 67.8L712.5 71.4L708.9 75.0L705.3 71.4Z" fill="#2b3a7a" opacity="0.8" stroke="none" stroke-width="0"/><path d="M60.0 335.3L62.0 335.3L62.0 335.1L64.8 335.1L64.8 320.7L70.3 320.7L70.3 319.9L72.4 319.9L72.4 315.3L72.9 315.3L72.9 314.9L73.8 314.9L73.8 314.9L106.8 314.9L106.8 238.7L107.3 238.7L107.3 229.0L107.8 229.0L107.8 222.3L108.5 222.3L108.5 220.6L108.6 220.6L108.6 220.5L109.0 220.5L109.0 214.2L110.2 214.2L110.2 214.1L110.6 214.1L110.6 213.7L110.8 213.7L110.8 213.5L111.2 213.5L111.2 212.7L112.8 212.7L112.8 212.1L113.3 212.1L113.3 212.0L117.7 212.0L117.7 206.7L122.6 206.7L122.6 204.9L124.4 204.9L124.4 204.6L125.6 204.6L125.6 201.9L127.8 201.9L127.8 201.8L128.9 201.8L128.9 201.0L129.6 201.0L129.6 200.0L132.8 200.0L132.8 200.0L134.1 200.0L134.1 199.7L144.9 199.7L144.9 195.5L152.9 195.5L152.9 187.4L153.2 187.4L153.2 186.2L153.7 186.2L153.7 184.5L167.8 184.5L167.8 183.9L174.7 183.9L174.7 169.3L177.0 169.3L177.0 168.8L177.2 168.8L177.2 167.7L178.5 167.7L178.5 165.0L179.1 165.0L179.1 163.7L179.2 163.7L179.2 163.6L182.2 163.6L182.2 155.9L185.8 155.9L185.8 155.8L187.2 155.8L187.2 141.9L190.1 141.9L190.1 141.8L191.1 141.8L191.1 131.7L192.1 131.7L192.1 130.9L192.5 130.9L192.5 129.5L217.2 129.5L217.2 129.5L220.9 129.5L220.9 128.9L224.4 128.9L224.4 128.4L226.9 128.4L226.9 128.2L238.0 128.2L238.0 128.0L249.7 128.0L249.7 112.8L252.3 112.8L252.3 110.2L256.8 110.2L256.8 105.5L257.7 105.5L257.7 105.1L258.5 105.1L258.5 103.8L266.5 103.8L266.5 103.5L281.7 103.5L281.7 89.6L284.3 89.6L284.3 89.3L284.8 89.3L284.8 87.6L287.5 87.6L287.5 85.4L296.0 85.4L296.0 84.4L360.5 84.4L360.5 84.4L521.0 84.4L521.0 75.8L522.4 75.8L522.4 75.7L524.1 75.7L524.1 75.3L524.4 75.3L524.4 74.7L525.8 74.7L525.8 74.7L534.9 74.7L534.9 74.4L547.2 74.4L547.2 73.9L551.4 73.9L551.4 73.6L558.1 73.6L558.1 69.8L561.0 69.8L561.0 69.1L812.0 69.1L812.0 55.0L1032.0 55.0" fill="none" stroke="#6675b0" stroke-width="1.6" stroke-dasharray="5 3" opacity="0.75"/><path d="M182.2 155.9L190.1 155.9L190.1 141.8L191.1 141.8L191.1 131.7L192.1 131.7L192.1 130.9L192.5 130.9L192.5 129.5L217.2 129.5L217.2 129.5L220.9 129.5L220.9 128.9L224.4 128.9L224.4 128.4L226.9 128.4L226.9 128.2L238.0 128.2L238.0 128.0L249.7 128.0L249.7 112.8L255.2 112.8L255.2 111.6L256.8 111.6L256.8 105.5L257.7 105.5L257.7 105.1L258.5 105.1L258.5 103.8L266.5 103.8L266.5 103.5L281.7 103.5L281.7 89.6L284.3 89.6L284.3 89.3L284.8 89.3L284.8 87.6L287.5 87.6L287.5 85.4L296.0 85.4L296.0 84.4L360.5 84.4L360.5 84.4L521.0 84.4L521.0 75.8L522.4 75.8L522.4 75.7L524.1 75.7L524.1 75.3L524.4 75.3L524.4 74.7L525.8 74.7L525.8 74.7L534.9 74.7L534.9 74.4L547.2 74.4L547.2 73.9L551.4 73.9L551.4 73.6L558.1 73.6L558.1 73.5L616.5 73.5L616.5 73.4L672.0 73.4L672.0 73.4L708.9 73.4L708.9 71.4L1032.0 71.4" fill="none" stroke="#2b3a7a" stroke-width="2.6"/><path d="M469.0 246.9L475.5 253.4L469.0 259.9L462.5 253.4Z" fill="#c5961a" opacity="1.0" stroke="#ffffff" stroke-width="1.4"/><path d="M548.8 206.5L555.3 213.0L548.8 219.5L542.3 213.0Z" fill="#c5961a" opacity="1.0" stroke="#ffffff" stroke-width="1.4"/><path d="M558.1 67.0L564.6 73.5L558.1 80.0L551.6 73.5Z" fill="#c5961a" opacity="1.0" stroke="#ffffff" stroke-width="1.4"/><path d="M626.5 240.8L633.0 247.3L626.5 253.8L620.0 247.3Z" fill="#c5961a" opacity="1.0" stroke="#ffffff" stroke-width="1.4"/><path d="M627.0 238.0L633.5 244.5L627.0 251.0L620.5 244.5Z" fill="#c5961a" opacity="1.0" stroke="#ffffff" stroke-width="1.4"/><text x="1042" y="53.0" font-size="11.5" fill="#6675b0">– – raw best 535.9</text><text x="1042" y="67.0" font-size="10" fill="#8a8fa3">unverified (pending)</text><path d="M708.9 64.9L715.4 71.4L708.9 77.9L702.4 71.4Z" fill="#2b3a7a" opacity="1.0" stroke="#ffffff" stroke-width="1.4"/><text x="1042" y="99.4" font-size="12.5" fill="#2b3a7a" font-weight="bold">◆ verified 510.1</text><text x="1042" y="115.4" font-size="10.5" fill="#3a3f55">top verified</text><text x="60" y="24" font-size="13" font-weight="bold" fill="#3a3f55" letter-spacing="1.2">SCORE EVOLUTION — gemma-challenge (tok/s)</text><circle cx="452" cy="20" r="3" fill="#b9bdca"/><text x="460" y="24" font-size="10.5" fill="#8a8fa3">all results</text><path d="M544.0 16.4L547.6 20.0L544.0 23.6L540.4 20.0Z" fill="#2b3a7a" opacity="1.0" stroke="none" stroke-width="0"/><text x="552" y="24" font-size="10.5" fill="#8a8fa3">verified</text><path d="M620.0 15.5L624.5 20.0L620.0 24.5L615.5 20.0Z" fill="#c5961a" opacity="1.0" stroke="#fff" stroke-width="1"/><text x="629" y="24" font-size="10.5" fill="#8a8fa3">mikasa-inbound (us)</text></svg>