<svg viewBox="0 0 1200 440" xmlns="http://www.w3.org/2000/svg" font-family="ui-sans-serif,system-ui,-apple-system,sans-serif"><rect x="0" y="0" width="1200" height="440" fill="#ffffff"/><rect x="60" y="46" width="972" height="350" fill="#f3f4fb"/><line x1="60" y1="396.0" x2="1032" y2="396.0" stroke="#e3e5ef" stroke-width="1"/><text x="52" y="400.0" text-anchor="end" font-size="11" fill="#8a8fa3">0</text><line x1="60" y1="332.4" x2="1032" y2="332.4" stroke="#e3e5ef" stroke-width="1"/><text x="52" y="336.4" text-anchor="end" font-size="11" fill="#8a8fa3">100</text><line x1="60" y1="268.7" x2="1032" y2="268.7" stroke="#e3e5ef" stroke-width="1"/><text x="52" y="272.7" text-anchor="end" font-size="11" fill="#8a8fa3">200</text><line x1="60" y1="205.1" x2="1032" y2="205.1" stroke="#e3e5ef" stroke-width="1"/><text x="52" y="209.1" text-anchor="end" font-size="11" fill="#8a8fa3">300</text><line x1="60" y1="141.5" x2="1032" y2="141.5" stroke="#e3e5ef" stroke-width="1"/><text x="52" y="145.5" text-anchor="end" font-size="11" fill="#8a8fa3">400</text><line x1="60" y1="77.8" x2="1032" y2="77.8" stroke="#e3e5ef" stroke-width="1"/><text x="52" y="81.8" text-anchor="end" font-size="11" fill="#8a8fa3">500</text><line x1="108.2" y1="46" x2="108.2" y2="396" stroke="#e3e5ef" stroke-width="1"/><text x="108.2" y="414.0" text-anchor="middle" font-size="11" fill="#8a8fa3">Jun 10</text><line x1="176.9" y1="46" x2="176.9" y2="396" stroke="#e3e5ef" stroke-width="1"/><text x="176.9" y="414.0" text-anchor="middle" font-size="11" fill="#8a8fa3">Jun 12</text><line x1="245.6" y1="46" x2="245.6" y2="396" stroke="#e3e5ef" stroke-width="1"/><text x="245.6" y="414.0" text-anchor="middle" font-size="11" fill="#8a8fa3">Jun 14</text><line x1="314.3" y1="46" x2="314.3" y2="396" stroke="#e3e5ef" stroke-width="1"/><text x="314.3" y="414.0" text-anchor="middle" font-size="11" fill="#8a8fa3">Jun 16</text><line x1="383.0" y1="46" x2="383.0" y2="396" stroke="#e3e5ef" stroke-width="1"/><text x="383.0" y="414.0" text-anchor="middle" font-size="11" fill="#8a8fa3">Jun 18</text><line x1="451.7" y1="46" x2="451.7" y2="396" stroke="#e3e5ef" stroke-width="1"/><text x="451.7" y="414.0" text-anchor="middle" font-size="11" fill="#8a8fa3">Jun 20</text><line x1="520.4" y1="46" x2="520.4" y2="396" stroke="#e3e5ef" stroke-width="1"/><text x="520.4" y="414.0" text-anchor="middle" font-size="11" fill="#8a8fa3">Jun 22</text><line x1="589.1" y1="46" x2="589.1" y2="396" stroke="#e3e5ef" stroke-width="1"/><text x="589.1" y="414.0" text-anchor="middle" font-size="11" fill="#8a8fa3">Jun 24</text><line x1="657.8" y1="46" x2="657.8" y2="396" stroke="#e3e5ef" stroke-width="1"/><text x="657.8" y="414.0" text-anchor="middle" font-size="11" fill="#8a8fa3">Jun 26</text><line x1="726.5" y1="46" x2="726.5" y2="396" stroke="#e3e5ef" stroke-width="1"/><text x="726.5" y="414.0" text-anchor="middle" font-size="11" fill="#8a8fa3">Jun 28</text><line x1="795.2" y1="46" x2="795.2" y2="396" stroke="#e3e5ef" stroke-width="1"/><text x="795.2" y="414.0" text-anchor="middle" font-size="11" fill="#8a8fa3">Jun 30</text><line x1="863.9" y1="46" x2="863.9" y2="396" stroke="#e3e5ef" stroke-width="1"/><text x="863.9" y="414.0" text-anchor="middle" font-size="11" fill="#8a8fa3">Jul 2</text><line x1="932.6" y1="46" x2="932.6" y2="396" stroke="#e3e5ef" stroke-width="1"/><text x="932.6" y="414.0" text-anchor="middle" font-size="11" fill="#8a8fa3">Jul 4</text><line x1="1001.3" y1="46" x2="1001.3" y2="396" stroke="#e3e5ef" stroke-width="1"/><text x="1001.3" y="414.0" text-anchor="middle" font-size="11" fill="#8a8fa3">Jul 6</text><circle cx="60.0" cy="335.3" r="2.3" fill="#b9bdca" opacity="0.5"/><circle cx="61.6" cy="335.1" r="2.3" fill="#b9bdca" opacity="0.5"/><circle cx="63.3" cy="368.0" r="2.3" fill="#b9bdca" opacity="0.5"/><circle cx="64.0" cy="320.7" r="2.3" fill="#b9bdca" opacity="0.5"/><circle cx="68.5" cy="319.9" r="2.3" fill="#b9bdca" opacity="0.5"/><circle cx="68.8" cy="320.6" r="2.3" fill="#b9bdca" opacity="0.5"/><circle cx="70.3" cy="315.3" r="2.3" fill="#b9bdca" opacity="0.5"/><circle cx="70.6" cy="319.7" r="2.3" fill="#b9bdca" opacity="0.5"/><circle cx="70.7" cy="314.9" r="2.3" fill="#b9bdca" opacity="0.5"/><circle cx="71.3" cy="315.5" r="2.3" fill="#b9bdca" opacity="0.5"/><circle cx="71.5" cy="314.9" r="2.3" fill="#b9bdca" opacity="0.5"/><circle cx="71.9" cy="315.4" r="2.3" fill="#b9bdca" opacity="0.5"/><circle cx="72.8" cy="315.0" r="2.3" fill="#b9bdca" opacity="0.5"/><circle cx="98.8" cy="238.7" r="2.3" fill="#b9bdca" opacity="0.5"/><circle cx="99.0" cy="315.0" r="2.3" fill="#b9bdca" opacity="0.5"/><circle cx="99.2" cy="229.0" r="2.3" fill="#b9bdca" opacity="0.5"/><circle cx="99.7" cy="222.3" r="2.3" fill="#b9bdca" opacity="0.5"/><circle cx="100.1" cy="228.0" r="2.3" fill="#b9bdca" opacity="0.5"/><circle cx="100.1" cy="223.3" r="2.3" fill="#b9bdca" opacity="0.5"/><circle cx="100.2" cy="220.6" r="2.3" fill="#b9bdca" opacity="0.5"/><circle cx="100.3" cy="220.5" r="2.3" fill="#b9bdca" opacity="0.5"/><circle cx="100.4" cy="223.2" r="2.3" fill="#b9bdca" opacity="0.5"/><circle cx="100.6" cy="214.2" r="2.3" fill="#b9bdca" opacity="0.5"/><circle cx="100.7" cy="222.1" r="2.3" fill="#b9bdca" opacity="0.5"/><circle cx="100.9" cy="220.7" r="2.3" fill="#b9bdca" opacity="0.5"/><circle cx="101.1" cy="218.5" r="2.3" fill="#b9bdca" opacity="0.5"/><circle cx="101.2" cy="215.2" r="2.3" fill="#b9bdca" opacity="0.5"/><circle cx="101.4" cy="214.3" r="2.3" fill="#b9bdca" opacity="0.5"/><circle cx="101.5" cy="219.2" r="2.3" fill="#b9bdca" opacity="0.5"/><circle cx="101.6" cy="214.1" r="2.3" fill="#b9bdca" opacity="0.5"/><circle cx="101.8" cy="215.2" r="2.3" fill="#b9bdca" opacity="0.5"/><circle cx="102.0" cy="213.7" r="2.3" fill="#b9bdca" opacity="0.5"/><circle cx="102.2" cy="213.5" r="2.3" fill="#b9bdca" opacity="0.5"/><circle cx="102.4" cy="214.8" r="2.3" fill="#b9bdca" opacity="0.5"/><circle cx="102.4" cy="217.7" r="2.3" fill="#b9bdca" opacity="0.5"/><circle cx="102.5" cy="212.7" r="2.3" fill="#b9bdca" opacity="0.5"/><circle cx="102.9" cy="213.3" r="2.3" fill="#b9bdca" opacity="0.5"/><circle cx="103.4" cy="212.7" r="2.3" fill="#b9bdca" opacity="0.5"/><circle cx="103.4" cy="213.6" r="2.3" fill="#b9bdca" opacity="0.5"/><circle cx="103.5" cy="213.0" r="2.3" fill="#b9bdca" opacity="0.5"/><circle cx="103.8" cy="212.1" r="2.3" fill="#b9bdca" opacity="0.5"/><circle cx="103.9" cy="213.3" r="2.3" fill="#b9bdca" opacity="0.5"/><circle cx="104.2" cy="212.0" r="2.3" fill="#b9bdca" opacity="0.5"/><circle cx="104.7" cy="212.1" r="2.3" fill="#b9bdca" opacity="0.5"/><circle cx="104.7" cy="212.8" r="2.3" fill="#b9bdca" opacity="0.5"/><circle cx="107.8" cy="206.7" r="2.3" fill="#b9bdca" opacity="0.5"/><circle cx="108.3" cy="206.8" r="2.3" fill="#b9bdca" opacity="0.5"/><circle cx="108.3" cy="212.5" r="2.3" fill="#b9bdca" opacity="0.5"/><circle cx="108.5" cy="207.2" r="2.3" fill="#b9bdca" opacity="0.5"/><circle cx="109.5" cy="207.0" r="2.3" fill="#b9bdca" opacity="0.5"/><circle cx="111.9" cy="204.9" r="2.3" fill="#b9bdca" opacity="0.5"/><circle cx="113.4" cy="204.6" r="2.3" fill="#b9bdca" opacity="0.5"/><circle cx="113.6" cy="212.3" r="2.3" fill="#b9bdca" opacity="0.5"/><circle cx="113.8" cy="204.6" r="2.3" fill="#b9bdca" opacity="0.5"/><circle cx="113.8" cy="204.6" r="2.3" fill="#b9bdca" opacity="0.5"/><circle cx="113.8" cy="204.9" r="2.3" fill="#b9bdca" opacity="0.5"/><circle cx="113.8" cy="204.9" r="2.3" fill="#b9bdca" opacity="0.5"/><circle cx="114.4" cy="201.9" r="2.3" fill="#b9bdca" opacity="0.5"/><circle cx="115.4" cy="206.5" r="2.3" fill="#b9bdca" opacity="0.5"/><circle cx="115.8" cy="205.8" r="2.3" fill="#b9bdca" opacity="0.5"/><circle cx="115.8" cy="335.1" r="2.3" fill="#b9bdca" opacity="0.5"/><circle cx="116.3" cy="201.8" r="2.3" fill="#b9bdca" opacity="0.5"/><circle cx="116.3" cy="202.2" r="2.3" fill="#b9bdca" opacity="0.5"/><circle cx="117.2" cy="201.0" r="2.3" fill="#b9bdca" opacity="0.5"/><circle cx="117.5" cy="203.1" r="2.3" fill="#b9bdca" opacity="0.5"/><circle cx="117.7" cy="200.0" r="2.3" fill="#b9bdca" opacity="0.5"/><circle cx="117.8" cy="204.6" r="2.3" fill="#b9bdca" opacity="0.5"/><circle cx="118.3" cy="202.3" r="2.3" fill="#b9bdca" opacity="0.5"/><circle cx="119.5" cy="200.4" r="2.3" fill="#b9bdca" opacity="0.5"/><circle cx="119.9" cy="200.7" r="2.3" fill="#b9bdca" opacity="0.5"/><circle cx="120.4" cy="200.0" r="2.3" fill="#b9bdca" opacity="0.5"/><circle cx="121.4" cy="199.7" r="2.3" fill="#b9bdca" opacity="0.5"/><circle cx="128.0" cy="200.6" r="2.3" fill="#b9bdca" opacity="0.5"/><circle cx="128.6" cy="201.8" r="2.3" fill="#b9bdca" opacity="0.5"/><circle cx="129.5" cy="208.4" r="2.3" fill="#b9bdca" opacity="0.5"/><circle cx="129.5" cy="200.8" r="2.3" fill="#b9bdca" opacity="0.5"/><circle cx="130.2" cy="200.7" r="2.3" fill="#b9bdca" opacity="0.5"/><circle cx="130.2" cy="201.9" r="2.3" fill="#b9bdca" opacity="0.5"/><circle cx="130.4" cy="195.5" r="2.3" fill="#b9bdca" opacity="0.5"/><circle cx="131.0" cy="196.9" r="2.3" fill="#b9bdca" opacity="0.5"/><circle cx="131.3" cy="197.9" r="2.3" fill="#b9bdca" opacity="0.5"/><circle cx="131.9" cy="196.1" r="2.3" fill="#b9bdca" opacity="0.5"/><circle cx="133.9" cy="197.3" r="2.3" fill="#b9bdca" opacity="0.5"/><circle cx="134.4" cy="195.9" r="2.3" fill="#b9bdca" opacity="0.5"/><circle cx="134.6" cy="201.0" r="2.3" fill="#b9bdca" opacity="0.5"/><circle cx="134.8" cy="197.5" r="2.3" fill="#b9bdca" opacity="0.5"/><circle cx="135.3" cy="196.9" r="2.3" fill="#b9bdca" opacity="0.5"/><circle cx="135.3" cy="197.1" r="2.3" fill="#b9bdca" opacity="0.5"/><circle cx="135.3" cy="197.0" r="2.3" fill="#b9bdca" opacity="0.5"/><circle cx="135.8" cy="196.0" r="2.3" fill="#b9bdca" opacity="0.5"/><circle cx="135.8" cy="196.0" r="2.3" fill="#b9bdca" opacity="0.5"/><circle cx="135.8" cy="197.9" r="2.3" fill="#b9bdca" opacity="0.5"/><circle cx="136.2" cy="197.8" r="2.3" fill="#b9bdca" opacity="0.5"/><circle cx="136.5" cy="196.2" r="2.3" fill="#b9bdca" opacity="0.5"/><circle cx="136.5" cy="197.5" r="2.3" fill="#b9bdca" opacity="0.5"/><circle cx="136.6" cy="196.9" r="2.3" fill="#b9bdca" opacity="0.5"/><circle cx="136.6" cy="195.5" r="2.3" fill="#b9bdca" opacity="0.5"/><circle cx="137.0" cy="198.1" r="2.3" fill="#b9bdca" opacity="0.5"/><circle cx="137.1" cy="187.4" r="2.3" fill="#b9bdca" opacity="0.5"/><circle cx="137.3" cy="186.2" r="2.3" fill="#b9bdca" opacity="0.5"/><circle cx="137.3" cy="196.3" r="2.3" fill="#b9bdca" opacity="0.5"/><circle cx="137.3" cy="197.2" r="2.3" fill="#b9bdca" opacity="0.5"/><circle cx="137.3" cy="197.8" r="2.3" fill="#b9bdca" opacity="0.5"/><circle cx="137.3" cy="368.0" r="2.3" fill="#b9bdca" opacity="0.5"/><circle cx="137.7" cy="184.5" r="2.3" fill="#b9bdca" opacity="0.5"/><circle cx="139.5" cy="184.6" r="2.3" fill="#b9bdca" opacity="0.5"/><circle cx="140.2" cy="185.6" r="2.3" fill="#b9bdca" opacity="0.5"/><circle cx="142.8" cy="188.7" r="2.3" fill="#b9bdca" opacity="0.5"/><circle cx="146.3" cy="185.4" r="2.3" fill="#b9bdca" opacity="0.5"/><circle cx="147.1" cy="185.2" r="2.3" fill="#b9bdca" opacity="0.5"/><circle cx="147.3" cy="186.6" r="2.3" fill="#b9bdca" opacity="0.5"/><circle cx="147.4" cy="185.3" r="2.3" fill="#b9bdca" opacity="0.5"/><circle cx="148.0" cy="185.3" r="2.3" fill="#b9bdca" opacity="0.5"/><circle cx="148.3" cy="185.0" r="2.3" fill="#b9bdca" opacity="0.5"/><circle cx="148.9" cy="184.9" r="2.3" fill="#b9bdca" opacity="0.5"/><circle cx="149.3" cy="185.1" r="2.3" fill="#b9bdca" opacity="0.5"/><circle cx="149.3" cy="185.2" r="2.3" fill="#b9bdca" opacity="0.5"/><circle cx="149.3" cy="186.4" r="2.3" fill="#b9bdca" opacity="0.5"/><circle cx="149.4" cy="183.9" r="2.3" fill="#b9bdca" opacity="0.5"/><circle cx="152.6" cy="184.4" r="2.3" fill="#b9bdca" opacity="0.5"/><circle cx="153.1" cy="184.2" r="2.3" fill="#b9bdca" opacity="0.5"/><circle cx="155.2" cy="169.3" r="2.3" fill="#b9bdca" opacity="0.5"/><circle cx="157.1" cy="168.8" r="2.3" fill="#b9bdca" opacity="0.5"/><circle cx="157.2" cy="167.7" r="2.3" fill="#b9bdca" opacity="0.5"/><circle cx="158.1" cy="201.4" r="2.3" fill="#b9bdca" opacity="0.5"/><circle cx="158.3" cy="165.0" r="2.3" fill="#b9bdca" opacity="0.5"/><circle cx="158.5" cy="198.2" r="2.3" fill="#b9bdca" opacity="0.5"/><circle cx="158.8" cy="163.7" r="2.3" fill="#b9bdca" opacity="0.5"/><circle cx="158.9" cy="163.6" r="2.3" fill="#b9bdca" opacity="0.5"/><circle cx="159.2" cy="165.9" r="2.3" fill="#b9bdca" opacity="0.5"/><circle cx="161.0" cy="165.1" r="2.3" fill="#b9bdca" opacity="0.5"/><circle cx="161.3" cy="155.9" r="2.3" fill="#b9bdca" opacity="0.5"/><circle cx="163.0" cy="196.5" r="2.3" fill="#b9bdca" opacity="0.5"/><circle cx="163.7" cy="157.4" r="2.3" fill="#b9bdca" opacity="0.5"/><circle cx="164.4" cy="155.8" r="2.3" fill="#b9bdca" opacity="0.5"/><circle cx="165.5" cy="141.9" r="2.3" fill="#b9bdca" opacity="0.5"/><circle cx="167.8" cy="156.1" r="2.3" fill="#b9bdca" opacity="0.5"/><circle cx="167.8" cy="156.4" r="2.3" fill="#b9bdca" opacity="0.5"/><circle cx="167.9" cy="141.8" r="2.3" fill="#b9bdca" opacity="0.5"/><circle cx="168.0" cy="196.0" r="2.3" fill="#b9bdca" opacity="0.5"/><circle cx="168.8" cy="131.7" r="2.3" fill="#b9bdca" opacity="0.5"/><circle cx="168.9" cy="134.1" r="2.3" fill="#b9bdca" opacity="0.5"/><circle cx="169.1" cy="141.1" r="2.3" fill="#b9bdca" opacity="0.5"/><circle cx="169.5" cy="134.0" r="2.3" fill="#b9bdca" opacity="0.5"/><circle cx="169.6" cy="130.9" r="2.3" fill="#b9bdca" opacity="0.5"/><circle cx="169.6" cy="154.2" r="2.3" fill="#b9bdca" opacity="0.5"/><circle cx="169.8" cy="133.6" r="2.3" fill="#b9bdca" opacity="0.5"/><circle cx="169.9" cy="129.5" r="2.3" fill="#b9bdca" opacity="0.5"/><circle cx="169.9" cy="130.9" r="2.3" fill="#b9bdca" opacity="0.5"/><circle cx="169.9" cy="133.4" r="2.3" fill="#b9bdca" opacity="0.5"/><circle cx="170.1" cy="131.2" r="2.3" fill="#b9bdca" opacity="0.5"/><circle cx="171.5" cy="189.8" r="2.3" fill="#b9bdca" opacity="0.5"/><circle cx="171.6" cy="133.2" r="2.3" fill="#b9bdca" opacity="0.5"/><circle cx="171.8" cy="133.5" r="2.3" fill="#b9bdca" opacity="0.5"/><circle cx="172.4" cy="130.1" r="2.3" fill="#b9bdca" opacity="0.5"/><circle cx="173.8" cy="130.3" r="2.3" fill="#b9bdca" opacity="0.5"/><circle cx="174.4" cy="303.1" r="2.3" fill="#b9bdca" opacity="0.5"/><circle cx="175.6" cy="133.2" r="2.3" fill="#b9bdca" opacity="0.5"/><circle cx="177.1" cy="144.2" r="2.3" fill="#b9bdca" opacity="0.5"/><circle cx="177.4" cy="135.3" r="2.3" fill="#b9bdca" opacity="0.5"/><circle cx="178.4" cy="133.4" r="2.3" fill="#b9bdca" opacity="0.5"/><circle cx="178.5" cy="159.9" r="2.3" fill="#b9bdca" opacity="0.5"/><circle cx="178.7" cy="130.8" r="2.3" fill="#b9bdca" opacity="0.5"/><circle cx="179.1" cy="133.2" r="2.3" fill="#b9bdca" opacity="0.5"/><circle cx="182.6" cy="130.9" r="2.3" fill="#b9bdca" opacity="0.5"/><circle cx="183.0" cy="130.9" r="2.3" fill="#b9bdca" opacity="0.5"/><circle cx="183.0" cy="133.8" r="2.3" fill="#b9bdca" opacity="0.5"/><circle cx="183.5" cy="130.4" r="2.3" fill="#b9bdca" opacity="0.5"/><circle cx="183.9" cy="153.7" r="2.3" fill="#b9bdca" opacity="0.5"/><circle cx="184.6" cy="133.3" r="2.3" fill="#b9bdca" opacity="0.5"/><circle cx="185.6" cy="156.5" r="2.3" fill="#b9bdca" opacity="0.5"/><circle cx="185.9" cy="132.3" r="2.3" fill="#b9bdca" opacity="0.5"/><circle cx="187.1" cy="147.2" r="2.3" fill="#b9bdca" opacity="0.5"/><circle cx="187.4" cy="133.6" r="2.3" fill="#b9bdca" opacity="0.5"/><circle cx="187.8" cy="129.5" r="2.3" fill="#b9bdca" opacity="0.5"/><circle cx="187.8" cy="133.3" r="2.3" fill="#b9bdca" opacity="0.5"/><circle cx="189.4" cy="133.3" r="2.3" fill="#b9bdca" opacity="0.5"/><circle cx="190.4" cy="129.5" r="2.3" fill="#b9bdca" opacity="0.5"/><circle cx="192.2" cy="130.6" r="2.3" fill="#b9bdca" opacity="0.5"/><circle cx="193.5" cy="128.9" r="2.3" fill="#b9bdca" opacity="0.5"/><circle cx="193.7" cy="132.7" r="2.3" fill="#b9bdca" opacity="0.5"/><circle cx="193.7" cy="133.1" r="2.3" fill="#b9bdca" opacity="0.5"/><circle cx="195.7" cy="129.8" r="2.3" fill="#b9bdca" opacity="0.5"/><circle cx="196.2" cy="333.8" r="2.3" fill="#b9bdca" opacity="0.5"/><circle cx="196.4" cy="128.4" r="2.3" fill="#b9bdca" opacity="0.5"/><circle cx="197.3" cy="129.8" r="2.3" fill="#b9bdca" opacity="0.5"/><circle cx="197.7" cy="128.9" r="2.3" fill="#b9bdca" opacity="0.5"/><circle cx="197.8" cy="128.9" r="2.3" fill="#b9bdca" opacity="0.5"/><circle cx="198.4" cy="128.2" r="2.3" fill="#b9bdca" opacity="0.5"/><circle cx="198.9" cy="129.7" r="2.3" fill="#b9bdca" opacity="0.5"/><circle cx="199.1" cy="142.3" r="2.3" fill="#b9bdca" opacity="0.5"/><circle cx="201.0" cy="128.8" r="2.3" fill="#b9bdca" opacity="0.5"/><circle cx="202.1" cy="161.1" r="2.3" fill="#b9bdca" opacity="0.5"/><circle cx="204.2" cy="164.4" r="2.3" fill="#b9bdca" opacity="0.5"/><circle cx="204.4" cy="248.3" r="2.3" fill="#b9bdca" opacity="0.5"/><circle cx="207.4" cy="135.4" r="2.3" fill="#b9bdca" opacity="0.5"/><circle cx="207.7" cy="128.0" r="2.3" fill="#b9bdca" opacity="0.5"/><circle cx="208.6" cy="229.0" r="2.3" fill="#b9bdca" opacity="0.5"/><circle cx="210.7" cy="128.1" r="2.3" fill="#b9bdca" opacity="0.5"/><circle cx="211.2" cy="128.6" r="2.3" fill="#b9bdca" opacity="0.5"/><circle cx="213.2" cy="128.8" r="2.3" fill="#b9bdca" opacity="0.5"/><circle cx="213.2" cy="129.6" r="2.3" fill="#b9bdca" opacity="0.5"/><circle cx="213.2" cy="130.9" r="2.3" fill="#b9bdca" opacity="0.5"/><circle cx="217.3" cy="112.8" r="2.3" fill="#b9bdca" opacity="0.5"/><circle cx="219.5" cy="110.2" r="2.3" fill="#b9bdca" opacity="0.5"/><circle cx="219.5" cy="111.6" r="2.3" fill="#b9bdca" opacity="0.5"/><circle cx="220.9" cy="111.0" r="2.3" fill="#b9bdca" opacity="0.5"/><circle cx="221.5" cy="335.1" r="2.3" fill="#b9bdca" opacity="0.5"/><circle cx="221.9" cy="111.6" r="2.3" fill="#b9bdca" opacity="0.5"/><circle cx="223.2" cy="105.5" r="2.3" fill="#b9bdca" opacity="0.5"/><circle cx="223.5" cy="108.5" r="2.3" fill="#b9bdca" opacity="0.5"/><circle cx="224.0" cy="105.1" r="2.3" fill="#b9bdca" opacity="0.5"/><circle cx="224.6" cy="103.8" r="2.3" fill="#b9bdca" opacity="0.5"/><circle cx="225.4" cy="125.8" r="2.3" fill="#b9bdca" opacity="0.5"/><circle cx="231.3" cy="103.5" r="2.3" fill="#b9bdca" opacity="0.5"/><circle cx="232.8" cy="127.8" r="2.3" fill="#b9bdca" opacity="0.5"/><circle cx="233.5" cy="334.3" r="2.3" fill="#b9bdca" opacity="0.5"/><circle cx="234.4" cy="128.6" r="2.3" fill="#b9bdca" opacity="0.5"/><circle cx="234.9" cy="128.6" r="2.3" fill="#b9bdca" opacity="0.5"/><circle cx="234.9" cy="128.6" r="2.3" fill="#b9bdca" opacity="0.5"/><circle cx="235.5" cy="256.6" r="2.3" fill="#b9bdca" opacity="0.5"/><circle cx="236.2" cy="254.6" r="2.3" fill="#b9bdca" opacity="0.5"/><circle cx="237.3" cy="128.6" r="2.3" fill="#b9bdca" opacity="0.5"/><circle cx="240.0" cy="250.1" r="2.3" fill="#b9bdca" opacity="0.5"/><circle cx="240.2" cy="161.4" r="2.3" fill="#b9bdca" opacity="0.5"/><circle cx="240.5" cy="206.6" r="2.3" fill="#b9bdca" opacity="0.5"/><circle cx="243.0" cy="113.5" r="2.3" fill="#b9bdca" opacity="0.5"/><circle cx="243.9" cy="89.6" r="2.3" fill="#b9bdca" opacity="0.5"/><circle cx="244.5" cy="90.2" r="2.3" fill="#b9bdca" opacity="0.5"/><circle cx="246.1" cy="89.3" r="2.3" fill="#b9bdca" opacity="0.5"/><circle cx="246.5" cy="87.6" r="2.3" fill="#b9bdca" opacity="0.5"/><circle cx="247.0" cy="185.0" r="2.3" fill="#b9bdca" opacity="0.5"/><circle cx="247.6" cy="131.6" r="2.3" fill="#b9bdca" opacity="0.5"/><circle cx="248.0" cy="87.8" r="2.3" fill="#b9bdca" opacity="0.5"/><circle cx="248.7" cy="85.4" r="2.3" fill="#b9bdca" opacity="0.5"/><circle cx="249.9" cy="86.8" r="2.3" fill="#b9bdca" opacity="0.5"/><circle cx="251.0" cy="88.4" r="2.3" fill="#b9bdca" opacity="0.5"/><circle cx="255.7" cy="89.5" r="2.3" fill="#b9bdca" opacity="0.5"/><circle cx="255.7" cy="155.6" r="2.3" fill="#b9bdca" opacity="0.5"/><circle cx="255.8" cy="84.4" r="2.3" fill="#b9bdca" opacity="0.5"/><circle cx="261.4" cy="89.2" r="2.3" fill="#b9bdca" opacity="0.5"/><circle cx="261.5" cy="90.5" r="2.3" fill="#b9bdca" opacity="0.5"/><circle cx="263.1" cy="87.7" r="2.3" fill="#b9bdca" opacity="0.5"/><circle cx="263.6" cy="367.9" r="2.3" fill="#b9bdca" opacity="0.5"/><circle cx="265.9" cy="164.3" r="2.3" fill="#b9bdca" opacity="0.5"/><circle cx="267.0" cy="94.6" r="2.3" fill="#b9bdca" opacity="0.5"/><circle cx="267.5" cy="89.6" r="2.3" fill="#b9bdca" opacity="0.5"/><circle cx="272.3" cy="124.6" r="2.3" fill="#b9bdca" opacity="0.5"/><circle cx="277.5" cy="146.2" r="2.3" fill="#b9bdca" opacity="0.5"/><circle cx="277.6" cy="90.5" r="2.3" fill="#b9bdca" opacity="0.5"/><circle cx="278.1" cy="87.7" r="2.3" fill="#b9bdca" opacity="0.5"/><circle cx="278.4" cy="87.7" r="2.3" fill="#b9bdca" opacity="0.5"/><circle cx="278.4" cy="89.6" r="2.3" fill="#b9bdca" opacity="0.5"/><circle cx="282.1" cy="93.0" r="2.3" fill="#b9bdca" opacity="0.5"/><circle cx="283.4" cy="85.5" r="2.3" fill="#b9bdca" opacity="0.5"/><circle cx="294.3" cy="334.8" r="2.3" fill="#b9bdca" opacity="0.5"/><circle cx="295.5" cy="86.3" r="2.3" fill="#b9bdca" opacity="0.5"/><circle cx="299.2" cy="85.5" r="2.3" fill="#b9bdca" opacity="0.5"/><circle cx="299.8" cy="84.6" r="2.3" fill="#b9bdca" opacity="0.5"/><circle cx="301.3" cy="87.8" r="2.3" fill="#b9bdca" opacity="0.5"/><circle cx="302.0" cy="84.4" r="2.3" fill="#b9bdca" opacity="0.5"/><circle cx="302.3" cy="84.8" r="2.3" fill="#b9bdca" opacity="0.5"/><circle cx="303.4" cy="87.4" r="2.3" fill="#b9bdca" opacity="0.5"/><circle cx="309.2" cy="84.4" r="2.3" fill="#b9bdca" opacity="0.5"/><circle cx="334.9" cy="89.3" r="2.3" fill="#b9bdca" opacity="0.5"/><circle cx="339.5" cy="88.6" r="2.3" fill="#b9bdca" opacity="0.5"/><circle cx="339.5" cy="92.1" r="2.3" fill="#b9bdca" opacity="0.5"/><circle cx="340.5" cy="156.8" r="2.3" fill="#b9bdca" opacity="0.5"/><circle cx="355.3" cy="201.6" r="2.3" fill="#b9bdca" opacity="0.5"/><circle cx="366.1" cy="315.6" r="2.3" fill="#b9bdca" opacity="0.5"/><circle cx="395.6" cy="87.7" r="2.3" fill="#b9bdca" opacity="0.5"/><circle cx="404.6" cy="87.6" r="2.3" fill="#b9bdca" opacity="0.5"/><circle cx="412.5" cy="87.2" r="2.3" fill="#b9bdca" opacity="0.5"/><circle cx="414.3" cy="88.8" r="2.3" fill="#b9bdca" opacity="0.5"/><circle cx="415.0" cy="89.2" r="2.3" fill="#b9bdca" opacity="0.5"/><circle cx="415.4" cy="90.9" r="2.3" fill="#b9bdca" opacity="0.5"/><circle cx="417.7" cy="87.7" r="2.3" fill="#b9bdca" opacity="0.5"/><circle cx="425.7" cy="88.6" r="2.3" fill="#b9bdca" opacity="0.5"/><circle cx="426.7" cy="89.7" r="2.3" fill="#b9bdca" opacity="0.5"/><circle cx="427.4" cy="88.2" r="2.3" fill="#b9bdca" opacity="0.5"/><circle cx="442.4" cy="75.8" r="2.3" fill="#b9bdca" opacity="0.5"/><circle cx="443.6" cy="75.7" r="2.3" fill="#b9bdca" opacity="0.5"/><circle cx="444.4" cy="76.7" r="2.3" fill="#b9bdca" opacity="0.5"/><circle cx="444.5" cy="75.8" r="2.3" fill="#b9bdca" opacity="0.5"/><circle cx="444.9" cy="75.3" r="2.3" fill="#b9bdca" opacity="0.5"/><circle cx="445.2" cy="74.7" r="2.3" fill="#b9bdca" opacity="0.5"/><circle cx="445.3" cy="83.4" r="2.3" fill="#b9bdca" opacity="0.5"/><circle cx="445.7" cy="76.2" r="2.3" fill="#b9bdca" opacity="0.5"/><circle cx="446.0" cy="78.1" r="2.3" fill="#b9bdca" opacity="0.5"/><circle cx="446.4" cy="74.7" r="2.3" fill="#b9bdca" opacity="0.5"/><circle cx="448.9" cy="89.3" r="2.3" fill="#b9bdca" opacity="0.5"/><circle cx="453.9" cy="74.4" r="2.3" fill="#b9bdca" opacity="0.5"/><circle cx="461.8" cy="74.4" r="2.3" fill="#b9bdca" opacity="0.5"/><circle cx="463.1" cy="335.1" r="2.3" fill="#b9bdca" opacity="0.5"/><circle cx="463.1" cy="81.7" r="2.3" fill="#b9bdca" opacity="0.5"/><circle cx="464.1" cy="74.6" r="2.3" fill="#b9bdca" opacity="0.5"/><circle cx="464.1" cy="82.1" r="2.3" fill="#b9bdca" opacity="0.5"/><circle cx="464.1" cy="73.9" r="2.3" fill="#b9bdca" opacity="0.5"/><circle cx="466.4" cy="76.2" r="2.3" fill="#b9bdca" opacity="0.5"/><circle cx="466.7" cy="82.1" r="2.3" fill="#b9bdca" opacity="0.5"/><circle cx="467.1" cy="74.2" r="2.3" fill="#b9bdca" opacity="0.5"/><circle cx="467.1" cy="75.0" r="2.3" fill="#b9bdca" opacity="0.5"/><circle cx="467.6" cy="73.6" r="2.3" fill="#b9bdca" opacity="0.5"/><circle cx="467.6" cy="83.3" r="2.3" fill="#b9bdca" opacity="0.5"/><circle cx="467.6" cy="83.8" r="2.3" fill="#b9bdca" opacity="0.5"/><circle cx="467.6" cy="78.1" r="2.3" fill="#b9bdca" opacity="0.5"/><circle cx="467.6" cy="81.5" r="2.3" fill="#b9bdca" opacity="0.5"/><circle cx="467.6" cy="83.0" r="2.3" fill="#b9bdca" opacity="0.5"/><circle cx="467.6" cy="83.7" r="2.3" fill="#b9bdca" opacity="0.5"/><circle cx="470.8" cy="82.7" r="2.3" fill="#b9bdca" opacity="0.5"/><circle cx="471.5" cy="77.8" r="2.3" fill="#b9bdca" opacity="0.5"/><circle cx="473.1" cy="69.8" r="2.3" fill="#b9bdca" opacity="0.5"/><circle cx="473.7" cy="75.9" r="2.3" fill="#b9bdca" opacity="0.5"/><circle cx="473.9" cy="74.3" r="2.3" fill="#b9bdca" opacity="0.5"/><circle cx="473.9" cy="77.4" r="2.3" fill="#b9bdca" opacity="0.5"/><circle cx="473.9" cy="80.6" r="2.3" fill="#b9bdca" opacity="0.5"/><circle cx="473.9" cy="81.8" r="2.3" fill="#b9bdca" opacity="0.5"/><circle cx="475.0" cy="76.9" r="2.3" fill="#b9bdca" opacity="0.5"/><circle cx="475.0" cy="82.8" r="2.3" fill="#b9bdca" opacity="0.5"/><circle cx="475.0" cy="83.0" r="2.3" fill="#b9bdca" opacity="0.5"/><circle cx="475.0" cy="83.1" r="2.3" fill="#b9bdca" opacity="0.5"/><circle cx="475.5" cy="69.1" r="2.3" fill="#b9bdca" opacity="0.5"/><circle cx="476.8" cy="75.5" r="2.3" fill="#b9bdca" opacity="0.5"/><circle cx="477.5" cy="74.3" r="2.3" fill="#b9bdca" opacity="0.5"/><circle cx="497.7" cy="74.0" r="2.3" fill="#b9bdca" opacity="0.5"/><circle cx="521.6" cy="73.4" r="2.3" fill="#b9bdca" opacity="0.5"/><circle cx="521.8" cy="75.9" r="2.3" fill="#b9bdca" opacity="0.5"/><circle cx="521.8" cy="76.3" r="2.3" fill="#b9bdca" opacity="0.5"/><circle cx="522.0" cy="76.0" r="2.3" fill="#b9bdca" opacity="0.5"/><circle cx="522.0" cy="76.8" r="2.3" fill="#b9bdca" opacity="0.5"/><circle cx="522.0" cy="81.2" r="2.3" fill="#b9bdca" opacity="0.5"/><circle cx="522.0" cy="83.4" r="2.3" fill="#b9bdca" opacity="0.5"/><circle cx="538.9" cy="76.6" r="2.3" fill="#b9bdca" opacity="0.5"/><circle cx="540.0" cy="76.7" r="2.3" fill="#b9bdca" opacity="0.5"/><circle cx="540.0" cy="82.8" r="2.3" fill="#b9bdca" opacity="0.5"/><circle cx="540.0" cy="82.8" r="2.3" fill="#b9bdca" opacity="0.5"/><circle cx="540.0" cy="83.3" r="2.3" fill="#b9bdca" opacity="0.5"/><circle cx="543.5" cy="233.4" r="2.3" fill="#b9bdca" opacity="0.5"/><circle cx="544.6" cy="228.9" r="2.3" fill="#b9bdca" opacity="0.5"/><circle cx="545.6" cy="198.3" r="2.3" fill="#b9bdca" opacity="0.5"/><circle cx="567.6" cy="73.4" r="2.3" fill="#b9bdca" opacity="0.5"/><circle cx="573.8" cy="192.4" r="2.3" fill="#b9bdca" opacity="0.5"/><circle cx="575.9" cy="75.3" r="2.3" fill="#b9bdca" opacity="0.5"/><circle cx="576.5" cy="74.0" r="2.3" fill="#b9bdca" opacity="0.5"/><circle cx="577.8" cy="194.4" r="2.3" fill="#b9bdca" opacity="0.5"/><circle cx="580.0" cy="168.6" r="2.3" fill="#b9bdca" opacity="0.5"/><circle cx="581.3" cy="77.1" r="2.3" fill="#b9bdca" opacity="0.5"/><circle cx="581.3" cy="99.5" r="2.3" fill="#b9bdca" opacity="0.5"/><circle cx="598.3" cy="71.4" r="2.3" fill="#b9bdca" opacity="0.5"/><circle cx="598.3" cy="73.5" r="2.3" fill="#b9bdca" opacity="0.5"/><circle cx="604.3" cy="72.4" r="2.3" fill="#b9bdca" opacity="0.5"/><circle cx="629.1" cy="83.0" r="2.3" fill="#b9bdca" opacity="0.5"/><circle cx="629.4" cy="72.1" r="2.3" fill="#b9bdca" opacity="0.5"/><circle cx="629.8" cy="71.6" r="2.3" fill="#b9bdca" opacity="0.5"/><circle cx="630.5" cy="75.5" r="2.3" fill="#b9bdca" opacity="0.5"/><circle cx="631.0" cy="73.7" r="2.3" fill="#b9bdca" opacity="0.5"/><circle cx="632.0" cy="72.9" r="2.3" fill="#b9bdca" opacity="0.5"/><circle cx="632.4" cy="73.4" r="2.3" fill="#b9bdca" opacity="0.5"/><circle cx="680.8" cy="85.2" r="2.3" fill="#b9bdca" opacity="0.5"/><circle cx="680.8" cy="256.6" r="2.3" fill="#b9bdca" opacity="0.5"/><circle cx="680.8" cy="335.3" r="2.3" fill="#b9bdca" opacity="0.5"/><circle cx="681.1" cy="86.8" r="2.3" fill="#b9bdca" opacity="0.5"/><circle cx="681.6" cy="71.5" r="2.3" fill="#b9bdca" opacity="0.5"/><circle cx="682.9" cy="71.0" r="2.3" fill="#b9bdca" opacity="0.5"/><circle cx="683.6" cy="71.5" r="2.3" fill="#b9bdca" opacity="0.5"/><circle cx="683.7" cy="55.0" r="2.3" fill="#b9bdca" opacity="0.5"/><circle cx="690.5" cy="83.1" r="2.3" fill="#b9bdca" opacity="0.5"/><circle cx="692.1" cy="74.7" r="2.3" fill="#b9bdca" opacity="0.5"/><circle cx="692.2" cy="59.3" r="2.3" fill="#b9bdca" opacity="0.5"/><circle cx="692.2" cy="79.9" r="2.3" fill="#b9bdca" opacity="0.5"/><circle cx="692.4" cy="74.1" r="2.3" fill="#b9bdca" opacity="0.5"/><circle cx="692.7" cy="72.7" r="2.3" fill="#b9bdca" opacity="0.5"/><circle cx="692.8" cy="73.8" r="2.3" fill="#b9bdca" opacity="0.5"/><circle cx="692.8" cy="75.9" r="2.3" fill="#b9bdca" opacity="0.5"/><circle cx="693.1" cy="74.1" r="2.3" fill="#b9bdca" opacity="0.5"/><circle cx="693.5" cy="73.5" r="2.3" fill="#b9bdca" opacity="0.5"/><circle cx="693.9" cy="74.2" r="2.3" fill="#b9bdca" opacity="0.5"/><circle cx="694.2" cy="71.5" r="2.3" fill="#b9bdca" opacity="0.5"/><circle cx="695.2" cy="74.3" r="2.3" fill="#b9bdca" opacity="0.5"/><circle cx="700.6" cy="73.2" r="2.3" fill="#b9bdca" opacity="0.5"/><circle cx="700.6" cy="73.6" r="2.3" fill="#b9bdca" opacity="0.5"/><circle cx="700.6" cy="73.8" r="2.3" fill="#b9bdca" opacity="0.5"/><circle cx="711.1" cy="73.3" r="2.3" fill="#b9bdca" opacity="0.5"/><circle cx="711.1" cy="73.4" r="2.3" fill="#b9bdca" opacity="0.5"/><circle cx="734.9" cy="96.1" r="2.3" fill="#b9bdca" opacity="0.5"/><circle cx="832.4" cy="95.6" r="2.3" fill="#b9bdca" opacity="0.5"/><circle cx="864.7" cy="74.8" r="2.3" fill="#b9bdca" opacity="0.5"/><circle cx="866.2" cy="72.3" r="2.3" fill="#b9bdca" opacity="0.5"/><circle cx="875.5" cy="79.9" r="2.3" fill="#b9bdca" opacity="0.5"/><circle cx="875.5" cy="80.6" r="2.3" fill="#b9bdca" opacity="0.5"/><circle cx="893.9" cy="73.3" r="2.3" fill="#b9bdca" opacity="0.5"/><circle cx="894.0" cy="72.8" r="2.3" fill="#b9bdca" opacity="0.5"/><circle cx="894.0" cy="73.0" r="2.3" fill="#b9bdca" opacity="0.5"/><circle cx="894.0" cy="73.2" r="2.3" fill="#b9bdca" opacity="0.5"/><circle cx="894.0" cy="73.5" r="2.3" fill="#b9bdca" opacity="0.5"/><circle cx="894.0" cy="73.6" r="2.3" fill="#b9bdca" opacity="0.5"/><circle cx="894.0" cy="73.7" r="2.3" fill="#b9bdca" opacity="0.5"/><circle cx="894.5" cy="73.1" r="2.3" fill="#b9bdca" opacity="0.5"/><circle cx="894.5" cy="73.2" r="2.3" fill="#b9bdca" opacity="0.5"/><circle cx="894.5" cy="74.3" r="2.3" fill="#b9bdca" opacity="0.5"/><circle cx="894.5" cy="74.5" r="2.3" fill="#b9bdca" opacity="0.5"/><circle cx="894.5" cy="72.8" r="2.3" fill="#b9bdca" opacity="0.5"/><circle cx="894.9" cy="74.7" r="2.3" fill="#b9bdca" opacity="0.5"/><circle cx="939.5" cy="332.5" r="2.3" fill="#b9bdca" opacity="0.5"/><circle cx="992.9" cy="117.5" r="2.3" fill="#b9bdca" opacity="0.5"/><circle cx="992.9" cy="211.0" r="2.3" fill="#b9bdca" opacity="0.5"/><circle cx="1006.4" cy="93.9" r="2.3" fill="#b9bdca" opacity="0.5"/><circle cx="1027.2" cy="74.9" r="2.3" fill="#b9bdca" opacity="0.5"/><circle cx="1027.6" cy="73.4" r="2.3" fill="#b9bdca" opacity="0.5"/><circle cx="1027.9" cy="72.9" r="2.3" fill="#b9bdca" opacity="0.5"/><circle cx="1028.3" cy="74.2" r="2.3" fill="#b9bdca" opacity="0.5"/><circle cx="1028.4" cy="74.9" r="2.3" fill="#b9bdca" opacity="0.5"/><circle cx="1028.7" cy="74.9" r="2.3" fill="#b9bdca" opacity="0.5"/><circle cx="1029.1" cy="73.6" r="2.3" fill="#b9bdca" opacity="0.5"/><circle cx="1029.2" cy="74.5" r="2.3" fill="#b9bdca" opacity="0.5"/><circle cx="1029.4" cy="73.6" r="2.3" fill="#b9bdca" opacity="0.5"/><circle cx="1029.9" cy="74.2" r="2.3" fill="#b9bdca" opacity="0.5"/><circle cx="1030.7" cy="72.3" r="2.3" fill="#b9bdca" opacity="0.5"/><circle cx="1031.1" cy="70.5" r="2.3" fill="#b9bdca" opacity="0.5"/><circle cx="1031.5" cy="73.5" r="2.3" fill="#b9bdca" opacity="0.5"/><circle cx="1031.6" cy="72.7" r="2.3" fill="#b9bdca" opacity="0.5"/><circle cx="1031.9" cy="74.4" r="2.3" fill="#b9bdca" opacity="0.5"/><circle cx="1032.0" cy="71.2" r="2.3" fill="#b9bdca" opacity="0.5"/><path d="M161.3 152.3L164.9 155.9L161.3 159.5L157.7 155.9Z" fill="#2b3a7a" opacity="0.8" stroke="none" stroke-width="0"/><path d="M167.9 138.2L171.5 141.8L167.9 145.4L164.3 141.8Z" fill="#2b3a7a" opacity="0.8" stroke="none" stroke-width="0"/><path d="M168.8 128.1L172.4 131.7L168.8 135.3L165.2 131.7Z" fill="#2b3a7a" opacity="0.8" stroke="none" stroke-width="0"/><path d="M168.9 130.5L172.5 134.1L168.9 137.7L165.3 134.1Z" fill="#2b3a7a" opacity="0.8" stroke="none" stroke-width="0"/><path d="M169.6 127.3L173.2 130.9L169.6 134.5L166.0 130.9Z" fill="#2b3a7a" opacity="0.8" stroke="none" stroke-width="0"/><path d="M169.9 125.9L173.5 129.5L169.9 133.1L166.3 129.5Z" fill="#2b3a7a" opacity="0.8" stroke="none" stroke-width="0"/><path d="M169.9 127.3L173.5 130.9L169.9 134.5L166.3 130.9Z" fill="#2b3a7a" opacity="0.8" stroke="none" stroke-width="0"/><path d="M190.4 125.9L194.0 129.5L190.4 133.1L186.8 129.5Z" fill="#2b3a7a" opacity="0.8" stroke="none" stroke-width="0"/><path d="M193.5 125.3L197.1 128.9L193.5 132.5L189.9 128.9Z" fill="#2b3a7a" opacity="0.8" stroke="none" stroke-width="0"/><path d="M196.4 124.8L200.0 128.4L196.4 132.0L192.8 128.4Z" fill="#2b3a7a" opacity="0.8" stroke="none" stroke-width="0"/><path d="M198.4 124.6L202.0 128.2L198.4 131.8L194.8 128.2Z" fill="#2b3a7a" opacity="0.8" stroke="none" stroke-width="0"/><path d="M207.7 124.4L211.3 128.0L207.7 131.6L204.1 128.0Z" fill="#2b3a7a" opacity="0.8" stroke="none" stroke-width="0"/><path d="M217.3 109.2L220.9 112.8L217.3 116.4L213.7 112.8Z" fill="#2b3a7a" opacity="0.8" stroke="none" stroke-width="0"/><path d="M221.9 108.0L225.5 111.6L221.9 115.2L218.3 111.6Z" fill="#2b3a7a" opacity="0.8" stroke="none" stroke-width="0"/><path d="M223.2 101.9L226.8 105.5L223.2 109.1L219.6 105.5Z" fill="#2b3a7a" opacity="0.8" stroke="none" stroke-width="0"/><path d="M223.5 104.9L227.1 108.5L223.5 112.1L219.9 108.5Z" fill="#2b3a7a" opacity="0.8" stroke="none" stroke-width="0"/><path d="M224.0 101.5L227.6 105.1L224.0 108.7L220.4 105.1Z" fill="#2b3a7a" opacity="0.8" stroke="none" stroke-width="0"/><path d="M224.6 100.2L228.2 103.8L224.6 107.4L221.0 103.8Z" fill="#2b3a7a" opacity="0.8" stroke="none" stroke-width="0"/><path d="M231.3 99.9L234.9 103.5L231.3 107.1L227.7 103.5Z" fill="#2b3a7a" opacity="0.8" stroke="none" stroke-width="0"/><path d="M243.9 86.0L247.5 89.6L243.9 93.2L240.3 89.6Z" fill="#2b3a7a" opacity="0.8" stroke="none" stroke-width="0"/><path d="M246.1 85.7L249.7 89.3L246.1 92.9L242.5 89.3Z" fill="#2b3a7a" opacity="0.8" stroke="none" stroke-width="0"/><path d="M246.5 84.0L250.1 87.6L246.5 91.2L242.9 87.6Z" fill="#2b3a7a" opacity="0.8" stroke="none" stroke-width="0"/><path d="M248.7 81.8L252.3 85.4L248.7 89.0L245.1 85.4Z" fill="#2b3a7a" opacity="0.8" stroke="none" stroke-width="0"/><path d="M255.8 80.8L259.4 84.4L255.8 88.0L252.2 84.4Z" fill="#2b3a7a" opacity="0.8" stroke="none" stroke-width="0"/><path d="M309.2 80.8L312.8 84.4L309.2 88.0L305.6 84.4Z" fill="#2b3a7a" opacity="0.8" stroke="none" stroke-width="0"/><path d="M442.4 72.2L446.0 75.8L442.4 79.4L438.8 75.8Z" fill="#2b3a7a" opacity="0.8" stroke="none" stroke-width="0"/><path d="M443.6 72.1L447.2 75.7L443.6 79.3L440.0 75.7Z" fill="#2b3a7a" opacity="0.8" stroke="none" stroke-width="0"/><path d="M444.9 71.7L448.5 75.3L444.9 78.9L441.3 75.3Z" fill="#2b3a7a" opacity="0.8" stroke="none" stroke-width="0"/><path d="M445.2 71.1L448.8 74.7L445.2 78.3L441.6 74.7Z" fill="#2b3a7a" opacity="0.8" stroke="none" stroke-width="0"/><path d="M446.4 71.1L450.0 74.7L446.4 78.3L442.8 74.7Z" fill="#2b3a7a" opacity="0.8" stroke="none" stroke-width="0"/><path d="M453.9 70.8L457.5 74.4L453.9 78.0L450.3 74.4Z" fill="#2b3a7a" opacity="0.8" stroke="none" stroke-width="0"/><path d="M464.1 70.3L467.7 73.9L464.1 77.5L460.5 73.9Z" fill="#2b3a7a" opacity="0.8" stroke="none" stroke-width="0"/><path d="M467.6 70.0L471.2 73.6L467.6 77.2L464.0 73.6Z" fill="#2b3a7a" opacity="0.8" stroke="none" stroke-width="0"/><path d="M521.6 69.8L525.2 73.4L521.6 77.0L518.0 73.4Z" fill="#2b3a7a" opacity="0.8" stroke="none" stroke-width="0"/><path d="M567.6 69.8L571.2 73.4L567.6 77.0L564.0 73.4Z" fill="#2b3a7a" opacity="0.8" stroke="none" stroke-width="0"/><path d="M598.3 67.8L601.9 71.4L598.3 75.0L594.7 71.4Z" fill="#2b3a7a" opacity="0.8" stroke="none" stroke-width="0"/><path d="M60.0 335.3L61.6 335.3L61.6 335.1L64.0 335.1L64.0 320.7L68.5 320.7L68.5 319.9L70.3 319.9L70.3 315.3L70.7 315.3L70.7 314.9L71.5 314.9L71.5 314.9L98.8 314.9L98.8 238.7L99.2 238.7L99.2 229.0L99.7 229.0L99.7 222.3L100.2 222.3L100.2 220.6L100.3 220.6L100.3 220.5L100.6 220.5L100.6 214.2L101.6 214.2L101.6 214.1L102.0 214.1L102.0 213.7L102.2 213.7L102.2 213.5L102.5 213.5L102.5 212.7L103.8 212.7L103.8 212.1L104.2 212.1L104.2 212.0L107.8 212.0L107.8 206.7L111.9 206.7L111.9 204.9L113.4 204.9L113.4 204.6L114.4 204.6L114.4 201.9L116.3 201.9L116.3 201.8L117.2 201.8L117.2 201.0L117.7 201.0L117.7 200.0L120.4 200.0L120.4 200.0L121.4 200.0L121.4 199.7L130.4 199.7L130.4 195.5L137.1 195.5L137.1 187.4L137.3 187.4L137.3 186.2L137.7 186.2L137.7 184.5L149.4 184.5L149.4 183.9L155.2 183.9L155.2 169.3L157.1 169.3L157.1 168.8L157.2 168.8L157.2 167.7L158.3 167.7L158.3 165.0L158.8 165.0L158.8 163.7L158.9 163.7L158.9 163.6L161.3 163.6L161.3 155.9L164.4 155.9L164.4 155.8L165.5 155.8L165.5 141.9L167.9 141.9L167.9 141.8L168.8 141.8L168.8 131.7L169.6 131.7L169.6 130.9L169.9 130.9L169.9 129.5L190.4 129.5L190.4 129.5L193.5 129.5L193.5 128.9L196.4 128.9L196.4 128.4L198.4 128.4L198.4 128.2L207.7 128.2L207.7 128.0L217.3 128.0L217.3 112.8L219.5 112.8L219.5 110.2L223.2 110.2L223.2 105.5L224.0 105.5L224.0 105.1L224.6 105.1L224.6 103.8L231.3 103.8L231.3 103.5L243.9 103.5L243.9 89.6L246.1 89.6L246.1 89.3L246.5 89.3L246.5 87.6L248.7 87.6L248.7 85.4L255.8 85.4L255.8 84.4L309.2 84.4L309.2 84.4L442.4 84.4L442.4 75.8L443.6 75.8L443.6 75.7L444.9 75.7L444.9 75.3L445.2 75.3L445.2 74.7L446.4 74.7L446.4 74.7L453.9 74.7L453.9 74.4L464.1 74.4L464.1 73.9L467.6 73.9L467.6 73.6L473.1 73.6L473.1 69.8L475.5 69.8L475.5 69.1L683.7 69.1L683.7 55.0L1032.0 55.0" fill="none" stroke="#6675b0" stroke-width="1.6" stroke-dasharray="5 3" opacity="0.75"/><path d="M161.3 155.9L167.9 155.9L167.9 141.8L168.8 141.8L168.8 131.7L169.6 131.7L169.6 130.9L169.9 130.9L169.9 129.5L190.4 129.5L190.4 129.5L193.5 129.5L193.5 128.9L196.4 128.9L196.4 128.4L198.4 128.4L198.4 128.2L207.7 128.2L207.7 128.0L217.3 128.0L217.3 112.8L221.9 112.8L221.9 111.6L223.2 111.6L223.2 105.5L224.0 105.5L224.0 105.1L224.6 105.1L224.6 103.8L231.3 103.8L231.3 103.5L243.9 103.5L243.9 89.6L246.1 89.6L246.1 89.3L246.5 89.3L246.5 87.6L248.7 87.6L248.7 85.4L255.8 85.4L255.8 84.4L309.2 84.4L309.2 84.4L442.4 84.4L442.4 75.8L443.6 75.8L443.6 75.7L444.9 75.7L444.9 75.3L445.2 75.3L445.2 74.7L446.4 74.7L446.4 74.7L453.9 74.7L453.9 74.4L464.1 74.4L464.1 73.9L467.6 73.9L467.6 73.6L473.1 73.6L473.1 73.5L521.6 73.5L521.6 73.4L567.6 73.4L567.6 73.4L598.3 73.4L598.3 71.4L1032.0 71.4" fill="none" stroke="#2b3a7a" stroke-width="2.6"/><path d="M399.2 246.9L405.7 253.4L399.2 259.9L392.7 253.4Z" fill="#c5961a" opacity="1.0" stroke="#ffffff" stroke-width="1.4"/><path d="M465.5 206.5L472.0 213.0L465.5 219.5L459.0 213.0Z" fill="#c5961a" opacity="1.0" stroke="#ffffff" stroke-width="1.4"/><path d="M473.1 67.0L479.6 73.5L473.1 80.0L466.6 73.5Z" fill="#c5961a" opacity="1.0" stroke="#ffffff" stroke-width="1.4"/><path d="M529.9 240.8L536.4 247.3L529.9 253.8L523.4 247.3Z" fill="#c5961a" opacity="1.0" stroke="#ffffff" stroke-width="1.4"/><path d="M530.3 238.0L536.8 244.5L530.3 251.0L523.8 244.5Z" fill="#c5961a" opacity="1.0" stroke="#ffffff" stroke-width="1.4"/><text x="1042" y="53.0" font-size="11.5" fill="#6675b0">– – raw best 535.9</text><text x="1042" y="67.0" font-size="10" fill="#8a8fa3">unverified (pending)</text><path d="M598.3 64.9L604.8 71.4L598.3 77.9L591.8 71.4Z" fill="#2b3a7a" opacity="1.0" stroke="#ffffff" stroke-width="1.4"/><text x="1042" y="99.4" font-size="12.5" fill="#2b3a7a" font-weight="bold">◆ verified 510.1</text><text x="1042" y="115.4" font-size="10.5" fill="#3a3f55">top verified</text><text x="60" y="24" font-size="13" font-weight="bold" fill="#3a3f55" letter-spacing="1.2">SCORE EVOLUTION — gemma-challenge (tok/s)</text><circle cx="452" cy="20" r="3" fill="#b9bdca"/><text x="460" y="24" font-size="10.5" fill="#8a8fa3">all results</text><path d="M544.0 16.4L547.6 20.0L544.0 23.6L540.4 20.0Z" fill="#2b3a7a" opacity="1.0" stroke="none" stroke-width="0"/><text x="552" y="24" font-size="10.5" fill="#8a8fa3">verified</text><path d="M620.0 15.5L624.5 20.0L620.0 24.5L615.5 20.0Z" fill="#c5961a" opacity="1.0" stroke="#fff" stroke-width="1"/><text x="629" y="24" font-size="10.5" fill="#8a8fa3">mikasa-inbound (us)</text></svg>