<svg viewBox="0 0 1200 440" xmlns="http://www.w3.org/2000/svg" font-family="ui-sans-serif,system-ui,-apple-system,sans-serif"><rect x="0" y="0" width="1200" height="440" fill="#ffffff"/><rect x="60" y="46" width="972" height="350" fill="#f3f4fb"/><line x1="60" y1="396.0" x2="1032" y2="396.0" stroke="#e3e5ef" stroke-width="1"/><text x="52" y="400.0" text-anchor="end" font-size="11" fill="#8a8fa3">0</text><line x1="60" y1="332.4" x2="1032" y2="332.4" stroke="#e3e5ef" stroke-width="1"/><text x="52" y="336.4" text-anchor="end" font-size="11" fill="#8a8fa3">100</text><line x1="60" y1="268.7" x2="1032" y2="268.7" stroke="#e3e5ef" stroke-width="1"/><text x="52" y="272.7" text-anchor="end" font-size="11" fill="#8a8fa3">200</text><line x1="60" y1="205.1" x2="1032" y2="205.1" stroke="#e3e5ef" stroke-width="1"/><text x="52" y="209.1" text-anchor="end" font-size="11" fill="#8a8fa3">300</text><line x1="60" y1="141.5" x2="1032" y2="141.5" stroke="#e3e5ef" stroke-width="1"/><text x="52" y="145.5" text-anchor="end" font-size="11" fill="#8a8fa3">400</text><line x1="60" y1="77.8" x2="1032" y2="77.8" stroke="#e3e5ef" stroke-width="1"/><text x="52" y="81.8" text-anchor="end" font-size="11" fill="#8a8fa3">500</text><line x1="150.0" y1="46" x2="150.0" y2="396" stroke="#e3e5ef" stroke-width="1"/><text x="150.0" y="414.0" text-anchor="middle" font-size="11" fill="#8a8fa3">Jun 10</text><line x1="278.5" y1="46" x2="278.5" y2="396" stroke="#e3e5ef" stroke-width="1"/><text x="278.5" y="414.0" text-anchor="middle" font-size="11" fill="#8a8fa3">Jun 12</text><line x1="406.9" y1="46" x2="406.9" y2="396" stroke="#e3e5ef" stroke-width="1"/><text x="406.9" y="414.0" text-anchor="middle" font-size="11" fill="#8a8fa3">Jun 14</text><line x1="535.3" y1="46" x2="535.3" y2="396" stroke="#e3e5ef" stroke-width="1"/><text x="535.3" y="414.0" text-anchor="middle" font-size="11" fill="#8a8fa3">Jun 16</text><line x1="663.7" y1="46" x2="663.7" y2="396" stroke="#e3e5ef" stroke-width="1"/><text x="663.7" y="414.0" text-anchor="middle" font-size="11" fill="#8a8fa3">Jun 18</text><line x1="792.1" y1="46" x2="792.1" y2="396" stroke="#e3e5ef" stroke-width="1"/><text x="792.1" y="414.0" text-anchor="middle" font-size="11" fill="#8a8fa3">Jun 20</text><line x1="920.6" y1="46" x2="920.6" y2="396" stroke="#e3e5ef" stroke-width="1"/><text x="920.6" y="414.0" text-anchor="middle" font-size="11" fill="#8a8fa3">Jun 22</text><circle cx="60.0" cy="335.3" r="2.3" fill="#b9bdca" opacity="0.5"/><circle cx="63.1" cy="335.1" r="2.3" fill="#b9bdca" opacity="0.5"/><circle cx="66.2" cy="368.0" r="2.3" fill="#b9bdca" opacity="0.5"/><circle cx="67.4" cy="320.7" r="2.3" fill="#b9bdca" opacity="0.5"/><circle cx="76.0" cy="319.9" r="2.3" fill="#b9bdca" opacity="0.5"/><circle cx="76.5" cy="320.6" r="2.3" fill="#b9bdca" opacity="0.5"/><circle cx="79.2" cy="315.3" r="2.3" fill="#b9bdca" opacity="0.5"/><circle cx="79.8" cy="319.7" r="2.3" fill="#b9bdca" opacity="0.5"/><circle cx="80.0" cy="314.9" r="2.3" fill="#b9bdca" opacity="0.5"/><circle cx="81.0" cy="315.5" r="2.3" fill="#b9bdca" opacity="0.5"/><circle cx="81.4" cy="314.9" r="2.3" fill="#b9bdca" opacity="0.5"/><circle cx="82.3" cy="315.4" r="2.3" fill="#b9bdca" opacity="0.5"/><circle cx="83.9" cy="315.0" r="2.3" fill="#b9bdca" opacity="0.5"/><circle cx="132.5" cy="238.7" r="2.3" fill="#b9bdca" opacity="0.5"/><circle cx="132.9" cy="315.0" r="2.3" fill="#b9bdca" opacity="0.5"/><circle cx="133.4" cy="229.0" r="2.3" fill="#b9bdca" opacity="0.5"/><circle cx="134.2" cy="222.3" r="2.3" fill="#b9bdca" opacity="0.5"/><circle cx="134.9" cy="228.0" r="2.3" fill="#b9bdca" opacity="0.5"/><circle cx="135.0" cy="223.3" r="2.3" fill="#b9bdca" opacity="0.5"/><circle cx="135.2" cy="220.6" r="2.3" fill="#b9bdca" opacity="0.5"/><circle cx="135.4" cy="220.5" r="2.3" fill="#b9bdca" opacity="0.5"/><circle cx="135.5" cy="223.2" r="2.3" fill="#b9bdca" opacity="0.5"/><circle cx="135.9" cy="214.2" r="2.3" fill="#b9bdca" opacity="0.5"/><circle cx="136.0" cy="222.1" r="2.3" fill="#b9bdca" opacity="0.5"/><circle cx="136.4" cy="220.7" r="2.3" fill="#b9bdca" opacity="0.5"/><circle cx="136.9" cy="218.5" r="2.3" fill="#b9bdca" opacity="0.5"/><circle cx="137.1" cy="215.2" r="2.3" fill="#b9bdca" opacity="0.5"/><circle cx="137.5" cy="214.3" r="2.3" fill="#b9bdca" opacity="0.5"/><circle cx="137.5" cy="219.2" r="2.3" fill="#b9bdca" opacity="0.5"/><circle cx="137.9" cy="214.1" r="2.3" fill="#b9bdca" opacity="0.5"/><circle cx="138.2" cy="215.2" r="2.3" fill="#b9bdca" opacity="0.5"/><circle cx="138.4" cy="213.7" r="2.3" fill="#b9bdca" opacity="0.5"/><circle cx="138.8" cy="213.5" r="2.3" fill="#b9bdca" opacity="0.5"/><circle cx="139.2" cy="214.8" r="2.3" fill="#b9bdca" opacity="0.5"/><circle cx="139.2" cy="217.7" r="2.3" fill="#b9bdca" opacity="0.5"/><circle cx="139.4" cy="212.7" r="2.3" fill="#b9bdca" opacity="0.5"/><circle cx="140.2" cy="213.3" r="2.3" fill="#b9bdca" opacity="0.5"/><circle cx="141.1" cy="212.7" r="2.3" fill="#b9bdca" opacity="0.5"/><circle cx="141.1" cy="213.6" r="2.3" fill="#b9bdca" opacity="0.5"/><circle cx="141.4" cy="213.0" r="2.3" fill="#b9bdca" opacity="0.5"/><circle cx="141.9" cy="212.1" r="2.3" fill="#b9bdca" opacity="0.5"/><circle cx="142.0" cy="213.3" r="2.3" fill="#b9bdca" opacity="0.5"/><circle cx="142.6" cy="212.0" r="2.3" fill="#b9bdca" opacity="0.5"/><circle cx="143.5" cy="212.1" r="2.3" fill="#b9bdca" opacity="0.5"/><circle cx="143.5" cy="212.8" r="2.3" fill="#b9bdca" opacity="0.5"/><circle cx="149.4" cy="206.7" r="2.3" fill="#b9bdca" opacity="0.5"/><circle cx="150.2" cy="206.8" r="2.3" fill="#b9bdca" opacity="0.5"/><circle cx="150.2" cy="212.5" r="2.3" fill="#b9bdca" opacity="0.5"/><circle cx="150.7" cy="207.2" r="2.3" fill="#b9bdca" opacity="0.5"/><circle cx="152.6" cy="207.0" r="2.3" fill="#b9bdca" opacity="0.5"/><circle cx="157.0" cy="204.9" r="2.3" fill="#b9bdca" opacity="0.5"/><circle cx="159.9" cy="204.6" r="2.3" fill="#b9bdca" opacity="0.5"/><circle cx="160.2" cy="212.3" r="2.3" fill="#b9bdca" opacity="0.5"/><circle cx="160.6" cy="204.6" r="2.3" fill="#b9bdca" opacity="0.5"/><circle cx="160.6" cy="204.6" r="2.3" fill="#b9bdca" opacity="0.5"/><circle cx="160.6" cy="204.9" r="2.3" fill="#b9bdca" opacity="0.5"/><circle cx="160.6" cy="204.9" r="2.3" fill="#b9bdca" opacity="0.5"/><circle cx="161.8" cy="201.9" r="2.3" fill="#b9bdca" opacity="0.5"/><circle cx="163.5" cy="206.5" r="2.3" fill="#b9bdca" opacity="0.5"/><circle cx="164.3" cy="205.8" r="2.3" fill="#b9bdca" opacity="0.5"/><circle cx="164.3" cy="335.1" r="2.3" fill="#b9bdca" opacity="0.5"/><circle cx="165.2" cy="201.8" r="2.3" fill="#b9bdca" opacity="0.5"/><circle cx="165.2" cy="202.2" r="2.3" fill="#b9bdca" opacity="0.5"/><circle cx="166.9" cy="201.0" r="2.3" fill="#b9bdca" opacity="0.5"/><circle cx="167.6" cy="203.1" r="2.3" fill="#b9bdca" opacity="0.5"/><circle cx="167.9" cy="200.0" r="2.3" fill="#b9bdca" opacity="0.5"/><circle cx="168.0" cy="204.6" r="2.3" fill="#b9bdca" opacity="0.5"/><circle cx="169.0" cy="202.3" r="2.3" fill="#b9bdca" opacity="0.5"/><circle cx="171.2" cy="200.4" r="2.3" fill="#b9bdca" opacity="0.5"/><circle cx="172.0" cy="200.7" r="2.3" fill="#b9bdca" opacity="0.5"/><circle cx="172.9" cy="200.0" r="2.3" fill="#b9bdca" opacity="0.5"/><circle cx="174.9" cy="199.7" r="2.3" fill="#b9bdca" opacity="0.5"/><circle cx="187.1" cy="200.6" r="2.3" fill="#b9bdca" opacity="0.5"/><circle cx="188.2" cy="201.8" r="2.3" fill="#b9bdca" opacity="0.5"/><circle cx="189.8" cy="208.4" r="2.3" fill="#b9bdca" opacity="0.5"/><circle cx="189.9" cy="200.8" r="2.3" fill="#b9bdca" opacity="0.5"/><circle cx="191.1" cy="200.7" r="2.3" fill="#b9bdca" opacity="0.5"/><circle cx="191.1" cy="201.9" r="2.3" fill="#b9bdca" opacity="0.5"/><circle cx="191.6" cy="195.5" r="2.3" fill="#b9bdca" opacity="0.5"/><circle cx="192.7" cy="196.9" r="2.3" fill="#b9bdca" opacity="0.5"/><circle cx="193.3" cy="197.9" r="2.3" fill="#b9bdca" opacity="0.5"/><circle cx="194.4" cy="196.1" r="2.3" fill="#b9bdca" opacity="0.5"/><circle cx="198.1" cy="197.3" r="2.3" fill="#b9bdca" opacity="0.5"/><circle cx="199.2" cy="195.9" r="2.3" fill="#b9bdca" opacity="0.5"/><circle cx="199.5" cy="201.0" r="2.3" fill="#b9bdca" opacity="0.5"/><circle cx="199.8" cy="197.5" r="2.3" fill="#b9bdca" opacity="0.5"/><circle cx="200.7" cy="196.9" r="2.3" fill="#b9bdca" opacity="0.5"/><circle cx="200.7" cy="197.1" r="2.3" fill="#b9bdca" opacity="0.5"/><circle cx="200.8" cy="197.0" r="2.3" fill="#b9bdca" opacity="0.5"/><circle cx="201.7" cy="196.0" r="2.3" fill="#b9bdca" opacity="0.5"/><circle cx="201.7" cy="196.0" r="2.3" fill="#b9bdca" opacity="0.5"/><circle cx="201.8" cy="197.9" r="2.3" fill="#b9bdca" opacity="0.5"/><circle cx="202.4" cy="197.8" r="2.3" fill="#b9bdca" opacity="0.5"/><circle cx="202.9" cy="196.2" r="2.3" fill="#b9bdca" opacity="0.5"/><circle cx="203.0" cy="197.5" r="2.3" fill="#b9bdca" opacity="0.5"/><circle cx="203.1" cy="196.9" r="2.3" fill="#b9bdca" opacity="0.5"/><circle cx="203.2" cy="195.5" r="2.3" fill="#b9bdca" opacity="0.5"/><circle cx="204.0" cy="198.1" r="2.3" fill="#b9bdca" opacity="0.5"/><circle cx="204.1" cy="187.4" r="2.3" fill="#b9bdca" opacity="0.5"/><circle cx="204.4" cy="186.2" r="2.3" fill="#b9bdca" opacity="0.5"/><circle cx="204.4" cy="196.3" r="2.3" fill="#b9bdca" opacity="0.5"/><circle cx="204.4" cy="197.2" r="2.3" fill="#b9bdca" opacity="0.5"/><circle cx="204.4" cy="197.8" r="2.3" fill="#b9bdca" opacity="0.5"/><circle cx="204.4" cy="368.0" r="2.3" fill="#b9bdca" opacity="0.5"/><circle cx="205.3" cy="184.5" r="2.3" fill="#b9bdca" opacity="0.5"/><circle cx="208.6" cy="184.6" r="2.3" fill="#b9bdca" opacity="0.5"/><circle cx="210.0" cy="185.6" r="2.3" fill="#b9bdca" opacity="0.5"/><circle cx="214.8" cy="188.7" r="2.3" fill="#b9bdca" opacity="0.5"/><circle cx="221.3" cy="185.4" r="2.3" fill="#b9bdca" opacity="0.5"/><circle cx="222.8" cy="185.2" r="2.3" fill="#b9bdca" opacity="0.5"/><circle cx="223.2" cy="186.6" r="2.3" fill="#b9bdca" opacity="0.5"/><circle cx="223.4" cy="185.3" r="2.3" fill="#b9bdca" opacity="0.5"/><circle cx="224.5" cy="185.3" r="2.3" fill="#b9bdca" opacity="0.5"/><circle cx="225.1" cy="185.0" r="2.3" fill="#b9bdca" opacity="0.5"/><circle cx="226.2" cy="184.9" r="2.3" fill="#b9bdca" opacity="0.5"/><circle cx="226.9" cy="185.1" r="2.3" fill="#b9bdca" opacity="0.5"/><circle cx="226.9" cy="185.2" r="2.3" fill="#b9bdca" opacity="0.5"/><circle cx="226.9" cy="186.4" r="2.3" fill="#b9bdca" opacity="0.5"/><circle cx="227.1" cy="183.9" r="2.3" fill="#b9bdca" opacity="0.5"/><circle cx="233.1" cy="184.4" r="2.3" fill="#b9bdca" opacity="0.5"/><circle cx="234.1" cy="184.2" r="2.3" fill="#b9bdca" opacity="0.5"/><circle cx="237.9" cy="169.3" r="2.3" fill="#b9bdca" opacity="0.5"/><circle cx="241.5" cy="168.8" r="2.3" fill="#b9bdca" opacity="0.5"/><circle cx="241.8" cy="167.7" r="2.3" fill="#b9bdca" opacity="0.5"/><circle cx="243.3" cy="201.4" r="2.3" fill="#b9bdca" opacity="0.5"/><circle cx="243.8" cy="165.0" r="2.3" fill="#b9bdca" opacity="0.5"/><circle cx="244.1" cy="198.2" r="2.3" fill="#b9bdca" opacity="0.5"/><circle cx="244.6" cy="163.7" r="2.3" fill="#b9bdca" opacity="0.5"/><circle cx="244.8" cy="163.6" r="2.3" fill="#b9bdca" opacity="0.5"/><circle cx="245.5" cy="165.9" r="2.3" fill="#b9bdca" opacity="0.5"/><circle cx="248.7" cy="165.1" r="2.3" fill="#b9bdca" opacity="0.5"/><circle cx="249.4" cy="155.9" r="2.3" fill="#b9bdca" opacity="0.5"/><circle cx="252.6" cy="196.5" r="2.3" fill="#b9bdca" opacity="0.5"/><circle cx="253.9" cy="157.4" r="2.3" fill="#b9bdca" opacity="0.5"/><circle cx="255.1" cy="155.8" r="2.3" fill="#b9bdca" opacity="0.5"/><circle cx="257.2" cy="141.9" r="2.3" fill="#b9bdca" opacity="0.5"/><circle cx="261.5" cy="156.1" r="2.3" fill="#b9bdca" opacity="0.5"/><circle cx="261.5" cy="156.4" r="2.3" fill="#b9bdca" opacity="0.5"/><circle cx="261.7" cy="141.8" r="2.3" fill="#b9bdca" opacity="0.5"/><circle cx="261.9" cy="196.0" r="2.3" fill="#b9bdca" opacity="0.5"/><circle cx="263.3" cy="131.7" r="2.3" fill="#b9bdca" opacity="0.5"/><circle cx="263.5" cy="134.1" r="2.3" fill="#b9bdca" opacity="0.5"/><circle cx="264.0" cy="141.1" r="2.3" fill="#b9bdca" opacity="0.5"/><circle cx="264.7" cy="134.0" r="2.3" fill="#b9bdca" opacity="0.5"/><circle cx="264.9" cy="130.9" r="2.3" fill="#b9bdca" opacity="0.5"/><circle cx="264.9" cy="154.2" r="2.3" fill="#b9bdca" opacity="0.5"/><circle cx="265.2" cy="133.6" r="2.3" fill="#b9bdca" opacity="0.5"/><circle cx="265.5" cy="129.5" r="2.3" fill="#b9bdca" opacity="0.5"/><circle cx="265.5" cy="130.9" r="2.3" fill="#b9bdca" opacity="0.5"/><circle cx="265.5" cy="133.4" r="2.3" fill="#b9bdca" opacity="0.5"/><circle cx="265.8" cy="131.2" r="2.3" fill="#b9bdca" opacity="0.5"/><circle cx="268.5" cy="189.8" r="2.3" fill="#b9bdca" opacity="0.5"/><circle cx="268.6" cy="133.2" r="2.3" fill="#b9bdca" opacity="0.5"/><circle cx="269.0" cy="133.5" r="2.3" fill="#b9bdca" opacity="0.5"/><circle cx="270.0" cy="130.1" r="2.3" fill="#b9bdca" opacity="0.5"/><circle cx="272.7" cy="130.3" r="2.3" fill="#b9bdca" opacity="0.5"/><circle cx="273.9" cy="303.1" r="2.3" fill="#b9bdca" opacity="0.5"/><circle cx="276.0" cy="133.2" r="2.3" fill="#b9bdca" opacity="0.5"/><circle cx="278.9" cy="144.2" r="2.3" fill="#b9bdca" opacity="0.5"/><circle cx="279.5" cy="135.3" r="2.3" fill="#b9bdca" opacity="0.5"/><circle cx="281.3" cy="133.4" r="2.3" fill="#b9bdca" opacity="0.5"/><circle cx="281.5" cy="159.9" r="2.3" fill="#b9bdca" opacity="0.5"/><circle cx="281.9" cy="130.8" r="2.3" fill="#b9bdca" opacity="0.5"/><circle cx="282.6" cy="133.2" r="2.3" fill="#b9bdca" opacity="0.5"/><circle cx="289.1" cy="130.9" r="2.3" fill="#b9bdca" opacity="0.5"/><circle cx="289.9" cy="130.9" r="2.3" fill="#b9bdca" opacity="0.5"/><circle cx="289.9" cy="133.8" r="2.3" fill="#b9bdca" opacity="0.5"/><circle cx="290.9" cy="130.4" r="2.3" fill="#b9bdca" opacity="0.5"/><circle cx="291.7" cy="153.7" r="2.3" fill="#b9bdca" opacity="0.5"/><circle cx="292.9" cy="133.3" r="2.3" fill="#b9bdca" opacity="0.5"/><circle cx="294.9" cy="156.5" r="2.3" fill="#b9bdca" opacity="0.5"/><circle cx="295.3" cy="132.3" r="2.3" fill="#b9bdca" opacity="0.5"/><circle cx="297.6" cy="147.2" r="2.3" fill="#b9bdca" opacity="0.5"/><circle cx="298.1" cy="133.6" r="2.3" fill="#b9bdca" opacity="0.5"/><circle cx="298.9" cy="129.5" r="2.3" fill="#b9bdca" opacity="0.5"/><circle cx="298.9" cy="133.3" r="2.3" fill="#b9bdca" opacity="0.5"/><circle cx="301.8" cy="133.3" r="2.3" fill="#b9bdca" opacity="0.5"/><circle cx="303.7" cy="129.5" r="2.3" fill="#b9bdca" opacity="0.5"/><circle cx="307.0" cy="130.6" r="2.3" fill="#b9bdca" opacity="0.5"/><circle cx="309.5" cy="128.9" r="2.3" fill="#b9bdca" opacity="0.5"/><circle cx="310.0" cy="132.7" r="2.3" fill="#b9bdca" opacity="0.5"/><circle cx="310.0" cy="133.1" r="2.3" fill="#b9bdca" opacity="0.5"/><circle cx="313.7" cy="129.8" r="2.3" fill="#b9bdca" opacity="0.5"/><circle cx="314.7" cy="333.8" r="2.3" fill="#b9bdca" opacity="0.5"/><circle cx="315.0" cy="128.4" r="2.3" fill="#b9bdca" opacity="0.5"/><circle cx="316.7" cy="129.8" r="2.3" fill="#b9bdca" opacity="0.5"/><circle cx="317.3" cy="128.9" r="2.3" fill="#b9bdca" opacity="0.5"/><circle cx="317.5" cy="128.9" r="2.3" fill="#b9bdca" opacity="0.5"/><circle cx="318.8" cy="128.2" r="2.3" fill="#b9bdca" opacity="0.5"/><circle cx="319.7" cy="129.7" r="2.3" fill="#b9bdca" opacity="0.5"/><circle cx="320.0" cy="142.3" r="2.3" fill="#b9bdca" opacity="0.5"/><circle cx="323.5" cy="128.8" r="2.3" fill="#b9bdca" opacity="0.5"/><circle cx="325.5" cy="161.1" r="2.3" fill="#b9bdca" opacity="0.5"/><circle cx="329.5" cy="164.4" r="2.3" fill="#b9bdca" opacity="0.5"/><circle cx="329.9" cy="248.3" r="2.3" fill="#b9bdca" opacity="0.5"/><circle cx="335.5" cy="135.4" r="2.3" fill="#b9bdca" opacity="0.5"/><circle cx="336.0" cy="128.0" r="2.3" fill="#b9bdca" opacity="0.5"/><circle cx="337.8" cy="229.0" r="2.3" fill="#b9bdca" opacity="0.5"/><circle cx="341.7" cy="128.1" r="2.3" fill="#b9bdca" opacity="0.5"/><circle cx="342.7" cy="128.6" r="2.3" fill="#b9bdca" opacity="0.5"/><circle cx="346.4" cy="128.8" r="2.3" fill="#b9bdca" opacity="0.5"/><circle cx="346.4" cy="129.6" r="2.3" fill="#b9bdca" opacity="0.5"/><circle cx="346.4" cy="130.9" r="2.3" fill="#b9bdca" opacity="0.5"/><circle cx="354.1" cy="112.8" r="2.3" fill="#b9bdca" opacity="0.5"/><circle cx="358.1" cy="110.2" r="2.3" fill="#b9bdca" opacity="0.5"/><circle cx="358.2" cy="111.6" r="2.3" fill="#b9bdca" opacity="0.5"/><circle cx="360.7" cy="111.0" r="2.3" fill="#b9bdca" opacity="0.5"/><circle cx="362.0" cy="335.1" r="2.3" fill="#b9bdca" opacity="0.5"/><circle cx="362.6" cy="111.6" r="2.3" fill="#b9bdca" opacity="0.5"/><circle cx="365.1" cy="105.5" r="2.3" fill="#b9bdca" opacity="0.5"/><circle cx="365.5" cy="108.5" r="2.3" fill="#b9bdca" opacity="0.5"/><circle cx="366.6" cy="105.1" r="2.3" fill="#b9bdca" opacity="0.5"/><circle cx="367.8" cy="103.8" r="2.3" fill="#b9bdca" opacity="0.5"/><circle cx="369.1" cy="125.8" r="2.3" fill="#b9bdca" opacity="0.5"/><circle cx="380.2" cy="103.5" r="2.3" fill="#b9bdca" opacity="0.5"/><circle cx="383.1" cy="127.8" r="2.3" fill="#b9bdca" opacity="0.5"/><circle cx="384.3" cy="334.3" r="2.3" fill="#b9bdca" opacity="0.5"/><circle cx="386.1" cy="128.6" r="2.3" fill="#b9bdca" opacity="0.5"/><circle cx="386.9" cy="128.6" r="2.3" fill="#b9bdca" opacity="0.5"/><circle cx="387.0" cy="128.6" r="2.3" fill="#b9bdca" opacity="0.5"/><circle cx="388.0" cy="256.6" r="2.3" fill="#b9bdca" opacity="0.5"/><circle cx="389.3" cy="254.6" r="2.3" fill="#b9bdca" opacity="0.5"/><circle cx="391.4" cy="128.6" r="2.3" fill="#b9bdca" opacity="0.5"/><circle cx="396.4" cy="250.1" r="2.3" fill="#b9bdca" opacity="0.5"/><circle cx="396.9" cy="161.4" r="2.3" fill="#b9bdca" opacity="0.5"/><circle cx="397.4" cy="206.6" r="2.3" fill="#b9bdca" opacity="0.5"/><circle cx="402.1" cy="113.5" r="2.3" fill="#b9bdca" opacity="0.5"/><circle cx="403.7" cy="89.6" r="2.3" fill="#b9bdca" opacity="0.5"/><circle cx="404.9" cy="90.2" r="2.3" fill="#b9bdca" opacity="0.5"/><circle cx="407.8" cy="89.3" r="2.3" fill="#b9bdca" opacity="0.5"/><circle cx="408.6" cy="87.6" r="2.3" fill="#b9bdca" opacity="0.5"/><circle cx="409.6" cy="185.0" r="2.3" fill="#b9bdca" opacity="0.5"/><circle cx="410.7" cy="131.6" r="2.3" fill="#b9bdca" opacity="0.5"/><circle cx="411.5" cy="87.8" r="2.3" fill="#b9bdca" opacity="0.5"/><circle cx="412.8" cy="85.4" r="2.3" fill="#b9bdca" opacity="0.5"/><circle cx="414.9" cy="86.8" r="2.3" fill="#b9bdca" opacity="0.5"/><circle cx="417.0" cy="88.4" r="2.3" fill="#b9bdca" opacity="0.5"/><circle cx="425.9" cy="89.5" r="2.3" fill="#b9bdca" opacity="0.5"/><circle cx="425.9" cy="155.6" r="2.3" fill="#b9bdca" opacity="0.5"/><circle cx="426.0" cy="84.4" r="2.3" fill="#b9bdca" opacity="0.5"/><circle cx="436.4" cy="89.2" r="2.3" fill="#b9bdca" opacity="0.5"/><circle cx="436.6" cy="90.5" r="2.3" fill="#b9bdca" opacity="0.5"/><circle cx="439.6" cy="87.7" r="2.3" fill="#b9bdca" opacity="0.5"/><circle cx="440.6" cy="367.9" r="2.3" fill="#b9bdca" opacity="0.5"/><circle cx="444.9" cy="164.3" r="2.3" fill="#b9bdca" opacity="0.5"/><circle cx="447.0" cy="94.6" r="2.3" fill="#b9bdca" opacity="0.5"/><circle cx="447.8" cy="89.6" r="2.3" fill="#b9bdca" opacity="0.5"/><circle cx="456.9" cy="124.6" r="2.3" fill="#b9bdca" opacity="0.5"/><circle cx="466.5" cy="146.2" r="2.3" fill="#b9bdca" opacity="0.5"/><circle cx="466.8" cy="90.5" r="2.3" fill="#b9bdca" opacity="0.5"/><circle cx="467.7" cy="87.7" r="2.3" fill="#b9bdca" opacity="0.5"/><circle cx="468.2" cy="87.7" r="2.3" fill="#b9bdca" opacity="0.5"/><circle cx="468.2" cy="89.6" r="2.3" fill="#b9bdca" opacity="0.5"/><circle cx="475.1" cy="93.0" r="2.3" fill="#b9bdca" opacity="0.5"/><circle cx="477.6" cy="85.5" r="2.3" fill="#b9bdca" opacity="0.5"/><circle cx="497.9" cy="334.8" r="2.3" fill="#b9bdca" opacity="0.5"/><circle cx="500.2" cy="86.3" r="2.3" fill="#b9bdca" opacity="0.5"/><circle cx="507.1" cy="85.5" r="2.3" fill="#b9bdca" opacity="0.5"/><circle cx="508.3" cy="84.6" r="2.3" fill="#b9bdca" opacity="0.5"/><circle cx="511.1" cy="87.8" r="2.3" fill="#b9bdca" opacity="0.5"/><circle cx="512.3" cy="84.4" r="2.3" fill="#b9bdca" opacity="0.5"/><circle cx="513.0" cy="84.8" r="2.3" fill="#b9bdca" opacity="0.5"/><circle cx="515.0" cy="87.4" r="2.3" fill="#b9bdca" opacity="0.5"/><circle cx="525.9" cy="84.4" r="2.3" fill="#b9bdca" opacity="0.5"/><circle cx="573.8" cy="89.3" r="2.3" fill="#b9bdca" opacity="0.5"/><circle cx="582.5" cy="88.6" r="2.3" fill="#b9bdca" opacity="0.5"/><circle cx="582.5" cy="92.1" r="2.3" fill="#b9bdca" opacity="0.5"/><circle cx="584.3" cy="156.8" r="2.3" fill="#b9bdca" opacity="0.5"/><circle cx="612.0" cy="201.6" r="2.3" fill="#b9bdca" opacity="0.5"/><circle cx="632.2" cy="315.6" r="2.3" fill="#b9bdca" opacity="0.5"/><circle cx="687.4" cy="87.7" r="2.3" fill="#b9bdca" opacity="0.5"/><circle cx="704.1" cy="87.6" r="2.3" fill="#b9bdca" opacity="0.5"/><circle cx="719.0" cy="87.2" r="2.3" fill="#b9bdca" opacity="0.5"/><circle cx="722.4" cy="88.8" r="2.3" fill="#b9bdca" opacity="0.5"/><circle cx="723.7" cy="89.2" r="2.3" fill="#b9bdca" opacity="0.5"/><circle cx="724.4" cy="90.9" r="2.3" fill="#b9bdca" opacity="0.5"/><circle cx="728.6" cy="87.7" r="2.3" fill="#b9bdca" opacity="0.5"/><circle cx="743.6" cy="88.6" r="2.3" fill="#b9bdca" opacity="0.5"/><circle cx="745.5" cy="89.7" r="2.3" fill="#b9bdca" opacity="0.5"/><circle cx="746.8" cy="88.2" r="2.3" fill="#b9bdca" opacity="0.5"/><circle cx="774.8" cy="75.8" r="2.3" fill="#b9bdca" opacity="0.5"/><circle cx="777.0" cy="75.7" r="2.3" fill="#b9bdca" opacity="0.5"/><circle cx="778.6" cy="76.7" r="2.3" fill="#b9bdca" opacity="0.5"/><circle cx="778.7" cy="75.8" r="2.3" fill="#b9bdca" opacity="0.5"/><circle cx="779.6" cy="75.3" r="2.3" fill="#b9bdca" opacity="0.5"/><circle cx="780.0" cy="74.7" r="2.3" fill="#b9bdca" opacity="0.5"/><circle cx="780.3" cy="83.4" r="2.3" fill="#b9bdca" opacity="0.5"/><circle cx="781.0" cy="76.2" r="2.3" fill="#b9bdca" opacity="0.5"/><circle cx="781.6" cy="78.1" r="2.3" fill="#b9bdca" opacity="0.5"/><circle cx="782.3" cy="74.7" r="2.3" fill="#b9bdca" opacity="0.5"/><circle cx="786.9" cy="89.3" r="2.3" fill="#b9bdca" opacity="0.5"/><circle cx="796.3" cy="74.4" r="2.3" fill="#b9bdca" opacity="0.5"/><circle cx="811.1" cy="74.4" r="2.3" fill="#b9bdca" opacity="0.5"/><circle cx="813.5" cy="335.1" r="2.3" fill="#b9bdca" opacity="0.5"/><circle cx="813.6" cy="81.7" r="2.3" fill="#b9bdca" opacity="0.5"/><circle cx="815.4" cy="74.6" r="2.3" fill="#b9bdca" opacity="0.5"/><circle cx="815.4" cy="82.1" r="2.3" fill="#b9bdca" opacity="0.5"/><circle cx="815.4" cy="73.9" r="2.3" fill="#b9bdca" opacity="0.5"/><circle cx="819.7" cy="76.2" r="2.3" fill="#b9bdca" opacity="0.5"/><circle cx="820.3" cy="82.1" r="2.3" fill="#b9bdca" opacity="0.5"/><circle cx="820.9" cy="74.2" r="2.3" fill="#b9bdca" opacity="0.5"/><circle cx="821.0" cy="75.0" r="2.3" fill="#b9bdca" opacity="0.5"/><circle cx="821.9" cy="73.6" r="2.3" fill="#b9bdca" opacity="0.5"/><circle cx="821.9" cy="83.3" r="2.3" fill="#b9bdca" opacity="0.5"/><circle cx="821.9" cy="83.8" r="2.3" fill="#b9bdca" opacity="0.5"/><circle cx="822.0" cy="78.1" r="2.3" fill="#b9bdca" opacity="0.5"/><circle cx="822.0" cy="81.5" r="2.3" fill="#b9bdca" opacity="0.5"/><circle cx="822.0" cy="83.0" r="2.3" fill="#b9bdca" opacity="0.5"/><circle cx="822.0" cy="83.7" r="2.3" fill="#b9bdca" opacity="0.5"/><circle cx="827.9" cy="82.7" r="2.3" fill="#b9bdca" opacity="0.5"/><circle cx="829.2" cy="77.8" r="2.3" fill="#b9bdca" opacity="0.5"/><circle cx="832.2" cy="69.8" r="2.3" fill="#b9bdca" opacity="0.5"/><circle cx="833.3" cy="75.9" r="2.3" fill="#b9bdca" opacity="0.5"/><circle cx="833.7" cy="74.3" r="2.3" fill="#b9bdca" opacity="0.5"/><circle cx="833.7" cy="77.4" r="2.3" fill="#b9bdca" opacity="0.5"/><circle cx="833.7" cy="80.6" r="2.3" fill="#b9bdca" opacity="0.5"/><circle cx="833.7" cy="81.8" r="2.3" fill="#b9bdca" opacity="0.5"/><circle cx="835.8" cy="76.9" r="2.3" fill="#b9bdca" opacity="0.5"/><circle cx="835.8" cy="82.8" r="2.3" fill="#b9bdca" opacity="0.5"/><circle cx="835.8" cy="83.0" r="2.3" fill="#b9bdca" opacity="0.5"/><circle cx="835.8" cy="83.1" r="2.3" fill="#b9bdca" opacity="0.5"/><circle cx="836.7" cy="69.1" r="2.3" fill="#b9bdca" opacity="0.5"/><circle cx="839.2" cy="75.5" r="2.3" fill="#b9bdca" opacity="0.5"/><circle cx="840.5" cy="74.3" r="2.3" fill="#b9bdca" opacity="0.5"/><circle cx="878.2" cy="74.0" r="2.3" fill="#b9bdca" opacity="0.5"/><circle cx="922.8" cy="73.4" r="2.3" fill="#b9bdca" opacity="0.5"/><circle cx="923.2" cy="75.9" r="2.3" fill="#b9bdca" opacity="0.5"/><circle cx="923.2" cy="76.3" r="2.3" fill="#b9bdca" opacity="0.5"/><circle cx="923.6" cy="76.0" r="2.3" fill="#b9bdca" opacity="0.5"/><circle cx="923.6" cy="76.8" r="2.3" fill="#b9bdca" opacity="0.5"/><circle cx="923.6" cy="81.2" r="2.3" fill="#b9bdca" opacity="0.5"/><circle cx="923.6" cy="83.4" r="2.3" fill="#b9bdca" opacity="0.5"/><circle cx="955.1" cy="76.6" r="2.3" fill="#b9bdca" opacity="0.5"/><circle cx="957.3" cy="76.7" r="2.3" fill="#b9bdca" opacity="0.5"/><circle cx="957.3" cy="82.8" r="2.3" fill="#b9bdca" opacity="0.5"/><circle cx="957.3" cy="82.8" r="2.3" fill="#b9bdca" opacity="0.5"/><circle cx="957.3" cy="83.3" r="2.3" fill="#b9bdca" opacity="0.5"/><circle cx="963.9" cy="233.4" r="2.3" fill="#b9bdca" opacity="0.5"/><circle cx="965.8" cy="228.9" r="2.3" fill="#b9bdca" opacity="0.5"/><circle cx="967.8" cy="198.3" r="2.3" fill="#b9bdca" opacity="0.5"/><circle cx="1008.9" cy="73.4" r="2.3" fill="#b9bdca" opacity="0.5"/><circle cx="1020.4" cy="192.4" r="2.3" fill="#b9bdca" opacity="0.5"/><circle cx="1024.4" cy="75.3" r="2.3" fill="#b9bdca" opacity="0.5"/><circle cx="1025.4" cy="74.0" r="2.3" fill="#b9bdca" opacity="0.5"/><circle cx="1028.0" cy="194.4" r="2.3" fill="#b9bdca" opacity="0.5"/><circle cx="1032.0" cy="168.6" r="2.3" fill="#b9bdca" opacity="0.5"/><path d="M249.4 152.3L253.0 155.9L249.4 159.5L245.8 155.9Z" fill="#2b3a7a" opacity="0.8" stroke="none" stroke-width="0"/><path d="M261.7 138.2L265.3 141.8L261.7 145.4L258.1 141.8Z" fill="#2b3a7a" opacity="0.8" stroke="none" stroke-width="0"/><path d="M263.3 128.1L266.9 131.7L263.3 135.3L259.7 131.7Z" fill="#2b3a7a" opacity="0.8" stroke="none" stroke-width="0"/><path d="M263.5 130.5L267.1 134.1L263.5 137.7L259.9 134.1Z" fill="#2b3a7a" opacity="0.8" stroke="none" stroke-width="0"/><path d="M264.9 127.3L268.5 130.9L264.9 134.5L261.3 130.9Z" fill="#2b3a7a" opacity="0.8" stroke="none" stroke-width="0"/><path d="M265.5 125.9L269.1 129.5L265.5 133.1L261.9 129.5Z" fill="#2b3a7a" opacity="0.8" stroke="none" stroke-width="0"/><path d="M265.5 127.3L269.1 130.9L265.5 134.5L261.9 130.9Z" fill="#2b3a7a" opacity="0.8" stroke="none" stroke-width="0"/><path d="M303.7 125.9L307.3 129.5L303.7 133.1L300.1 129.5Z" fill="#2b3a7a" opacity="0.8" stroke="none" stroke-width="0"/><path d="M309.5 125.3L313.1 128.9L309.5 132.5L305.9 128.9Z" fill="#2b3a7a" opacity="0.8" stroke="none" stroke-width="0"/><path d="M315.0 124.8L318.6 128.4L315.0 132.0L311.4 128.4Z" fill="#2b3a7a" opacity="0.8" stroke="none" stroke-width="0"/><path d="M318.8 124.6L322.4 128.2L318.8 131.8L315.2 128.2Z" fill="#2b3a7a" opacity="0.8" stroke="none" stroke-width="0"/><path d="M336.0 124.4L339.6 128.0L336.0 131.6L332.4 128.0Z" fill="#2b3a7a" opacity="0.8" stroke="none" stroke-width="0"/><path d="M354.1 109.2L357.7 112.8L354.1 116.4L350.5 112.8Z" fill="#2b3a7a" opacity="0.8" stroke="none" stroke-width="0"/><path d="M362.6 108.0L366.2 111.6L362.6 115.2L359.0 111.6Z" fill="#2b3a7a" opacity="0.8" stroke="none" stroke-width="0"/><path d="M365.1 101.9L368.7 105.5L365.1 109.1L361.5 105.5Z" fill="#2b3a7a" opacity="0.8" stroke="none" stroke-width="0"/><path d="M365.5 104.9L369.1 108.5L365.5 112.1L361.9 108.5Z" fill="#2b3a7a" opacity="0.8" stroke="none" stroke-width="0"/><path d="M366.6 101.5L370.2 105.1L366.6 108.7L363.0 105.1Z" fill="#2b3a7a" opacity="0.8" stroke="none" stroke-width="0"/><path d="M367.8 100.2L371.4 103.8L367.8 107.4L364.2 103.8Z" fill="#2b3a7a" opacity="0.8" stroke="none" stroke-width="0"/><path d="M380.2 99.9L383.8 103.5L380.2 107.1L376.6 103.5Z" fill="#2b3a7a" opacity="0.8" stroke="none" stroke-width="0"/><path d="M403.7 86.0L407.3 89.6L403.7 93.2L400.1 89.6Z" fill="#2b3a7a" opacity="0.8" stroke="none" stroke-width="0"/><path d="M407.8 85.7L411.4 89.3L407.8 92.9L404.2 89.3Z" fill="#2b3a7a" opacity="0.8" stroke="none" stroke-width="0"/><path d="M408.6 84.0L412.2 87.6L408.6 91.2L405.0 87.6Z" fill="#2b3a7a" opacity="0.8" stroke="none" stroke-width="0"/><path d="M412.8 81.8L416.4 85.4L412.8 89.0L409.2 85.4Z" fill="#2b3a7a" opacity="0.8" stroke="none" stroke-width="0"/><path d="M426.0 80.8L429.6 84.4L426.0 88.0L422.4 84.4Z" fill="#2b3a7a" opacity="0.8" stroke="none" stroke-width="0"/><path d="M525.9 80.8L529.5 84.4L525.9 88.0L522.3 84.4Z" fill="#2b3a7a" opacity="0.8" stroke="none" stroke-width="0"/><path d="M774.8 72.2L778.4 75.8L774.8 79.4L771.2 75.8Z" fill="#2b3a7a" opacity="0.8" stroke="none" stroke-width="0"/><path d="M777.0 72.1L780.6 75.7L777.0 79.3L773.4 75.7Z" fill="#2b3a7a" opacity="0.8" stroke="none" stroke-width="0"/><path d="M779.6 71.7L783.2 75.3L779.6 78.9L776.0 75.3Z" fill="#2b3a7a" opacity="0.8" stroke="none" stroke-width="0"/><path d="M780.0 71.1L783.6 74.7L780.0 78.3L776.4 74.7Z" fill="#2b3a7a" opacity="0.8" stroke="none" stroke-width="0"/><path d="M782.3 71.1L785.9 74.7L782.3 78.3L778.7 74.7Z" fill="#2b3a7a" opacity="0.8" stroke="none" stroke-width="0"/><path d="M796.3 70.8L799.9 74.4L796.3 78.0L792.7 74.4Z" fill="#2b3a7a" opacity="0.8" stroke="none" stroke-width="0"/><path d="M815.4 70.3L819.0 73.9L815.4 77.5L811.8 73.9Z" fill="#2b3a7a" opacity="0.8" stroke="none" stroke-width="0"/><path d="M821.9 70.0L825.5 73.6L821.9 77.2L818.3 73.6Z" fill="#2b3a7a" opacity="0.8" stroke="none" stroke-width="0"/><path d="M922.8 69.8L926.4 73.4L922.8 77.0L919.2 73.4Z" fill="#2b3a7a" opacity="0.8" stroke="none" stroke-width="0"/><path d="M1008.9 69.8L1012.5 73.4L1008.9 77.0L1005.3 73.4Z" fill="#2b3a7a" opacity="0.8" stroke="none" stroke-width="0"/><path d="M60.0 335.3L63.1 335.3L63.1 335.1L67.4 335.1L67.4 320.7L76.0 320.7L76.0 319.9L79.2 319.9L79.2 315.3L80.0 315.3L80.0 314.9L81.4 314.9L81.4 314.9L132.5 314.9L132.5 238.7L133.4 238.7L133.4 229.0L134.2 229.0L134.2 222.3L135.2 222.3L135.2 220.6L135.4 220.6L135.4 220.5L135.9 220.5L135.9 214.2L137.9 214.2L137.9 214.1L138.4 214.1L138.4 213.7L138.8 213.7L138.8 213.5L139.4 213.5L139.4 212.7L141.9 212.7L141.9 212.1L142.6 212.1L142.6 212.0L149.4 212.0L149.4 206.7L157.0 206.7L157.0 204.9L159.9 204.9L159.9 204.6L161.8 204.6L161.8 201.9L165.2 201.9L165.2 201.8L166.9 201.8L166.9 201.0L167.9 201.0L167.9 200.0L172.9 200.0L172.9 200.0L174.9 200.0L174.9 199.7L191.6 199.7L191.6 195.5L204.1 195.5L204.1 187.4L204.4 187.4L204.4 186.2L205.3 186.2L205.3 184.5L227.1 184.5L227.1 183.9L237.9 183.9L237.9 169.3L241.5 169.3L241.5 168.8L241.8 168.8L241.8 167.7L243.8 167.7L243.8 165.0L244.6 165.0L244.6 163.7L244.8 163.7L244.8 163.6L249.4 163.6L249.4 155.9L255.1 155.9L255.1 155.8L257.2 155.8L257.2 141.9L261.7 141.9L261.7 141.8L263.3 141.8L263.3 131.7L264.9 131.7L264.9 130.9L265.5 130.9L265.5 129.5L303.7 129.5L303.7 129.5L309.5 129.5L309.5 128.9L315.0 128.9L315.0 128.4L318.8 128.4L318.8 128.2L336.0 128.2L336.0 128.0L354.1 128.0L354.1 112.8L358.1 112.8L358.1 110.2L365.1 110.2L365.1 105.5L366.6 105.5L366.6 105.1L367.8 105.1L367.8 103.8L380.2 103.8L380.2 103.5L403.7 103.5L403.7 89.6L407.8 89.6L407.8 89.3L408.6 89.3L408.6 87.6L412.8 87.6L412.8 85.4L426.0 85.4L426.0 84.4L525.9 84.4L525.9 84.4L774.8 84.4L774.8 75.8L777.0 75.8L777.0 75.7L779.6 75.7L779.6 75.3L780.0 75.3L780.0 74.7L782.3 74.7L782.3 74.7L796.3 74.7L796.3 74.4L815.4 74.4L815.4 73.9L821.9 73.9L821.9 73.6L832.2 73.6L832.2 69.8L836.7 69.8L836.7 69.1L1032.0 69.1" fill="none" stroke="#6675b0" stroke-width="1.6" stroke-dasharray="5 3" opacity="0.75"/><path d="M249.4 155.9L261.7 155.9L261.7 141.8L263.3 141.8L263.3 131.7L264.9 131.7L264.9 130.9L265.5 130.9L265.5 129.5L303.7 129.5L303.7 129.5L309.5 129.5L309.5 128.9L315.0 128.9L315.0 128.4L318.8 128.4L318.8 128.2L336.0 128.2L336.0 128.0L354.1 128.0L354.1 112.8L362.6 112.8L362.6 111.6L365.1 111.6L365.1 105.5L366.6 105.5L366.6 105.1L367.8 105.1L367.8 103.8L380.2 103.8L380.2 103.5L403.7 103.5L403.7 89.6L407.8 89.6L407.8 89.3L408.6 89.3L408.6 87.6L412.8 87.6L412.8 85.4L426.0 85.4L426.0 84.4L525.9 84.4L525.9 84.4L774.8 84.4L774.8 75.8L777.0 75.8L777.0 75.7L779.6 75.7L779.6 75.3L780.0 75.3L780.0 74.7L782.3 74.7L782.3 74.7L796.3 74.7L796.3 74.4L815.4 74.4L815.4 73.9L821.9 73.9L821.9 73.6L832.3 73.6L832.3 73.5L922.8 73.5L922.8 73.4L1008.9 73.4L1008.9 73.4L1032.0 73.4" fill="none" stroke="#2b3a7a" stroke-width="2.6"/><path d="M694.1 246.9L700.6 253.4L694.1 259.9L687.6 253.4Z" fill="#c5961a" opacity="1.0" stroke="#ffffff" stroke-width="1.4"/><path d="M818.0 206.5L824.5 213.0L818.0 219.5L811.5 213.0Z" fill="#c5961a" opacity="1.0" stroke="#ffffff" stroke-width="1.4"/><path d="M832.3 67.0L838.8 73.5L832.3 80.0L825.8 73.5Z" fill="#c5961a" opacity="1.0" stroke="#ffffff" stroke-width="1.4"/><path d="M938.4 240.8L944.9 247.3L938.4 253.8L931.9 247.3Z" fill="#c5961a" opacity="1.0" stroke="#ffffff" stroke-width="1.4"/><path d="M939.2 238.0L945.7 244.5L939.2 251.0L932.7 244.5Z" fill="#c5961a" opacity="1.0" stroke="#ffffff" stroke-width="1.4"/><text x="1042" y="67.1" font-size="11.5" fill="#6675b0">– – raw best 513.8</text><text x="1042" y="81.1" font-size="10" fill="#8a8fa3">unverified (pending)</text><path d="M1008.9 66.9L1015.4 73.4L1008.9 79.9L1002.4 73.4Z" fill="#2b3a7a" opacity="1.0" stroke="#ffffff" stroke-width="1.4"/><text x="1042" y="101.4" font-size="12.5" fill="#2b3a7a" font-weight="bold">◆ verified 507.0</text><text x="1042" y="117.4" font-size="10.5" fill="#3a3f55">top verified</text><text x="60" y="24" font-size="13" font-weight="bold" fill="#3a3f55" letter-spacing="1.2">SCORE EVOLUTION — gemma-challenge (tok/s)</text><circle cx="452" cy="20" r="3" fill="#b9bdca"/><text x="460" y="24" font-size="10.5" fill="#8a8fa3">all results</text><path d="M544.0 16.4L547.6 20.0L544.0 23.6L540.4 20.0Z" fill="#2b3a7a" opacity="1.0" stroke="none" stroke-width="0"/><text x="552" y="24" font-size="10.5" fill="#8a8fa3">verified</text><path d="M620.0 15.5L624.5 20.0L620.0 24.5L615.5 20.0Z" fill="#c5961a" opacity="1.0" stroke="#fff" stroke-width="1"/><text x="629" y="24" font-size="10.5" fill="#8a8fa3">mikasa-inbound (us)</text></svg>