<svg viewBox="0 0 1200 440" xmlns="http://www.w3.org/2000/svg" font-family="ui-sans-serif,system-ui,-apple-system,sans-serif"><rect x="0" y="0" width="1200" height="440" fill="#ffffff"/><rect x="60" y="46" width="972" height="350" fill="#f3f4fb"/><line x1="60" y1="396.0" x2="1032" y2="396.0" stroke="#e3e5ef" stroke-width="1"/><text x="52" y="400.0" text-anchor="end" font-size="11" fill="#8a8fa3">0</text><line x1="60" y1="332.4" x2="1032" y2="332.4" stroke="#e3e5ef" stroke-width="1"/><text x="52" y="336.4" text-anchor="end" font-size="11" fill="#8a8fa3">100</text><line x1="60" y1="268.7" x2="1032" y2="268.7" stroke="#e3e5ef" stroke-width="1"/><text x="52" y="272.7" text-anchor="end" font-size="11" fill="#8a8fa3">200</text><line x1="60" y1="205.1" x2="1032" y2="205.1" stroke="#e3e5ef" stroke-width="1"/><text x="52" y="209.1" text-anchor="end" font-size="11" fill="#8a8fa3">300</text><line x1="60" y1="141.5" x2="1032" y2="141.5" stroke="#e3e5ef" stroke-width="1"/><text x="52" y="145.5" text-anchor="end" font-size="11" fill="#8a8fa3">400</text><line x1="60" y1="77.8" x2="1032" y2="77.8" stroke="#e3e5ef" stroke-width="1"/><text x="52" y="81.8" text-anchor="end" font-size="11" fill="#8a8fa3">500</text><line x1="142.0" y1="46" x2="142.0" y2="396" stroke="#e3e5ef" stroke-width="1"/><text x="142.0" y="414.0" text-anchor="middle" font-size="11" fill="#8a8fa3">Jun 10</text><line x1="258.9" y1="46" x2="258.9" y2="396" stroke="#e3e5ef" stroke-width="1"/><text x="258.9" y="414.0" text-anchor="middle" font-size="11" fill="#8a8fa3">Jun 12</text><line x1="375.9" y1="46" x2="375.9" y2="396" stroke="#e3e5ef" stroke-width="1"/><text x="375.9" y="414.0" text-anchor="middle" font-size="11" fill="#8a8fa3">Jun 14</text><line x1="492.9" y1="46" x2="492.9" y2="396" stroke="#e3e5ef" stroke-width="1"/><text x="492.9" y="414.0" text-anchor="middle" font-size="11" fill="#8a8fa3">Jun 16</text><line x1="609.8" y1="46" x2="609.8" y2="396" stroke="#e3e5ef" stroke-width="1"/><text x="609.8" y="414.0" text-anchor="middle" font-size="11" fill="#8a8fa3">Jun 18</text><line x1="726.8" y1="46" x2="726.8" y2="396" stroke="#e3e5ef" stroke-width="1"/><text x="726.8" y="414.0" text-anchor="middle" font-size="11" fill="#8a8fa3">Jun 20</text><line x1="843.7" y1="46" x2="843.7" y2="396" stroke="#e3e5ef" stroke-width="1"/><text x="843.7" y="414.0" text-anchor="middle" font-size="11" fill="#8a8fa3">Jun 22</text><line x1="960.7" y1="46" x2="960.7" y2="396" stroke="#e3e5ef" stroke-width="1"/><text x="960.7" y="414.0" text-anchor="middle" font-size="11" fill="#8a8fa3">Jun 24</text><circle cx="60.0" cy="335.3" r="2.3" fill="#b9bdca" opacity="0.5"/><circle cx="62.8" cy="335.1" r="2.3" fill="#b9bdca" opacity="0.5"/><circle cx="65.6" cy="368.0" r="2.3" fill="#b9bdca" opacity="0.5"/><circle cx="66.7" cy="320.7" r="2.3" fill="#b9bdca" opacity="0.5"/><circle cx="74.5" cy="319.9" r="2.3" fill="#b9bdca" opacity="0.5"/><circle cx="75.0" cy="320.6" r="2.3" fill="#b9bdca" opacity="0.5"/><circle cx="77.5" cy="315.3" r="2.3" fill="#b9bdca" opacity="0.5"/><circle cx="78.0" cy="319.7" r="2.3" fill="#b9bdca" opacity="0.5"/><circle cx="78.2" cy="314.9" r="2.3" fill="#b9bdca" opacity="0.5"/><circle cx="79.2" cy="315.5" r="2.3" fill="#b9bdca" opacity="0.5"/><circle cx="79.5" cy="314.9" r="2.3" fill="#b9bdca" opacity="0.5"/><circle cx="80.3" cy="315.4" r="2.3" fill="#b9bdca" opacity="0.5"/><circle cx="81.7" cy="315.0" r="2.3" fill="#b9bdca" opacity="0.5"/><circle cx="126.0" cy="238.7" r="2.3" fill="#b9bdca" opacity="0.5"/><circle cx="126.4" cy="315.0" r="2.3" fill="#b9bdca" opacity="0.5"/><circle cx="126.8" cy="229.0" r="2.3" fill="#b9bdca" opacity="0.5"/><circle cx="127.5" cy="222.3" r="2.3" fill="#b9bdca" opacity="0.5"/><circle cx="128.2" cy="228.0" r="2.3" fill="#b9bdca" opacity="0.5"/><circle cx="128.3" cy="223.3" r="2.3" fill="#b9bdca" opacity="0.5"/><circle cx="128.5" cy="220.6" r="2.3" fill="#b9bdca" opacity="0.5"/><circle cx="128.6" cy="220.5" r="2.3" fill="#b9bdca" opacity="0.5"/><circle cx="128.8" cy="223.2" r="2.3" fill="#b9bdca" opacity="0.5"/><circle cx="129.2" cy="214.2" r="2.3" fill="#b9bdca" opacity="0.5"/><circle cx="129.2" cy="222.1" r="2.3" fill="#b9bdca" opacity="0.5"/><circle cx="129.6" cy="220.7" r="2.3" fill="#b9bdca" opacity="0.5"/><circle cx="130.1" cy="218.5" r="2.3" fill="#b9bdca" opacity="0.5"/><circle cx="130.2" cy="215.2" r="2.3" fill="#b9bdca" opacity="0.5"/><circle cx="130.5" cy="214.3" r="2.3" fill="#b9bdca" opacity="0.5"/><circle cx="130.6" cy="219.2" r="2.3" fill="#b9bdca" opacity="0.5"/><circle cx="130.9" cy="214.1" r="2.3" fill="#b9bdca" opacity="0.5"/><circle cx="131.2" cy="215.2" r="2.3" fill="#b9bdca" opacity="0.5"/><circle cx="131.4" cy="213.7" r="2.3" fill="#b9bdca" opacity="0.5"/><circle cx="131.8" cy="213.5" r="2.3" fill="#b9bdca" opacity="0.5"/><circle cx="132.1" cy="214.8" r="2.3" fill="#b9bdca" opacity="0.5"/><circle cx="132.1" cy="217.7" r="2.3" fill="#b9bdca" opacity="0.5"/><circle cx="132.3" cy="212.7" r="2.3" fill="#b9bdca" opacity="0.5"/><circle cx="133.0" cy="213.3" r="2.3" fill="#b9bdca" opacity="0.5"/><circle cx="133.8" cy="212.7" r="2.3" fill="#b9bdca" opacity="0.5"/><circle cx="133.8" cy="213.6" r="2.3" fill="#b9bdca" opacity="0.5"/><circle cx="134.1" cy="213.0" r="2.3" fill="#b9bdca" opacity="0.5"/><circle cx="134.6" cy="212.1" r="2.3" fill="#b9bdca" opacity="0.5"/><circle cx="134.7" cy="213.3" r="2.3" fill="#b9bdca" opacity="0.5"/><circle cx="135.2" cy="212.0" r="2.3" fill="#b9bdca" opacity="0.5"/><circle cx="136.1" cy="212.1" r="2.3" fill="#b9bdca" opacity="0.5"/><circle cx="136.1" cy="212.8" r="2.3" fill="#b9bdca" opacity="0.5"/><circle cx="141.4" cy="206.7" r="2.3" fill="#b9bdca" opacity="0.5"/><circle cx="142.2" cy="206.8" r="2.3" fill="#b9bdca" opacity="0.5"/><circle cx="142.2" cy="212.5" r="2.3" fill="#b9bdca" opacity="0.5"/><circle cx="142.6" cy="207.2" r="2.3" fill="#b9bdca" opacity="0.5"/><circle cx="144.3" cy="207.0" r="2.3" fill="#b9bdca" opacity="0.5"/><circle cx="148.4" cy="204.9" r="2.3" fill="#b9bdca" opacity="0.5"/><circle cx="151.0" cy="204.6" r="2.3" fill="#b9bdca" opacity="0.5"/><circle cx="151.2" cy="212.3" r="2.3" fill="#b9bdca" opacity="0.5"/><circle cx="151.7" cy="204.6" r="2.3" fill="#b9bdca" opacity="0.5"/><circle cx="151.7" cy="204.6" r="2.3" fill="#b9bdca" opacity="0.5"/><circle cx="151.7" cy="204.9" r="2.3" fill="#b9bdca" opacity="0.5"/><circle cx="151.7" cy="204.9" r="2.3" fill="#b9bdca" opacity="0.5"/><circle cx="152.7" cy="201.9" r="2.3" fill="#b9bdca" opacity="0.5"/><circle cx="154.3" cy="206.5" r="2.3" fill="#b9bdca" opacity="0.5"/><circle cx="154.9" cy="205.8" r="2.3" fill="#b9bdca" opacity="0.5"/><circle cx="154.9" cy="335.1" r="2.3" fill="#b9bdca" opacity="0.5"/><circle cx="155.8" cy="201.8" r="2.3" fill="#b9bdca" opacity="0.5"/><circle cx="155.8" cy="202.2" r="2.3" fill="#b9bdca" opacity="0.5"/><circle cx="157.3" cy="201.0" r="2.3" fill="#b9bdca" opacity="0.5"/><circle cx="158.0" cy="203.1" r="2.3" fill="#b9bdca" opacity="0.5"/><circle cx="158.3" cy="200.0" r="2.3" fill="#b9bdca" opacity="0.5"/><circle cx="158.3" cy="204.6" r="2.3" fill="#b9bdca" opacity="0.5"/><circle cx="159.3" cy="202.3" r="2.3" fill="#b9bdca" opacity="0.5"/><circle cx="161.2" cy="200.4" r="2.3" fill="#b9bdca" opacity="0.5"/><circle cx="162.0" cy="200.7" r="2.3" fill="#b9bdca" opacity="0.5"/><circle cx="162.8" cy="200.0" r="2.3" fill="#b9bdca" opacity="0.5"/><circle cx="164.6" cy="199.7" r="2.3" fill="#b9bdca" opacity="0.5"/><circle cx="175.8" cy="200.6" r="2.3" fill="#b9bdca" opacity="0.5"/><circle cx="176.8" cy="201.8" r="2.3" fill="#b9bdca" opacity="0.5"/><circle cx="178.3" cy="208.4" r="2.3" fill="#b9bdca" opacity="0.5"/><circle cx="178.3" cy="200.8" r="2.3" fill="#b9bdca" opacity="0.5"/><circle cx="179.4" cy="200.7" r="2.3" fill="#b9bdca" opacity="0.5"/><circle cx="179.4" cy="201.9" r="2.3" fill="#b9bdca" opacity="0.5"/><circle cx="179.8" cy="195.5" r="2.3" fill="#b9bdca" opacity="0.5"/><circle cx="180.9" cy="196.9" r="2.3" fill="#b9bdca" opacity="0.5"/><circle cx="181.4" cy="197.9" r="2.3" fill="#b9bdca" opacity="0.5"/><circle cx="182.4" cy="196.1" r="2.3" fill="#b9bdca" opacity="0.5"/><circle cx="185.8" cy="197.3" r="2.3" fill="#b9bdca" opacity="0.5"/><circle cx="186.7" cy="195.9" r="2.3" fill="#b9bdca" opacity="0.5"/><circle cx="187.1" cy="201.0" r="2.3" fill="#b9bdca" opacity="0.5"/><circle cx="187.4" cy="197.5" r="2.3" fill="#b9bdca" opacity="0.5"/><circle cx="188.1" cy="196.9" r="2.3" fill="#b9bdca" opacity="0.5"/><circle cx="188.2" cy="197.1" r="2.3" fill="#b9bdca" opacity="0.5"/><circle cx="188.2" cy="197.0" r="2.3" fill="#b9bdca" opacity="0.5"/><circle cx="189.0" cy="196.0" r="2.3" fill="#b9bdca" opacity="0.5"/><circle cx="189.0" cy="196.0" r="2.3" fill="#b9bdca" opacity="0.5"/><circle cx="189.1" cy="197.9" r="2.3" fill="#b9bdca" opacity="0.5"/><circle cx="189.7" cy="197.8" r="2.3" fill="#b9bdca" opacity="0.5"/><circle cx="190.2" cy="196.2" r="2.3" fill="#b9bdca" opacity="0.5"/><circle cx="190.2" cy="197.5" r="2.3" fill="#b9bdca" opacity="0.5"/><circle cx="190.4" cy="196.9" r="2.3" fill="#b9bdca" opacity="0.5"/><circle cx="190.4" cy="195.5" r="2.3" fill="#b9bdca" opacity="0.5"/><circle cx="191.1" cy="198.1" r="2.3" fill="#b9bdca" opacity="0.5"/><circle cx="191.2" cy="187.4" r="2.3" fill="#b9bdca" opacity="0.5"/><circle cx="191.5" cy="186.2" r="2.3" fill="#b9bdca" opacity="0.5"/><circle cx="191.5" cy="196.3" r="2.3" fill="#b9bdca" opacity="0.5"/><circle cx="191.5" cy="197.2" r="2.3" fill="#b9bdca" opacity="0.5"/><circle cx="191.5" cy="197.8" r="2.3" fill="#b9bdca" opacity="0.5"/><circle cx="191.5" cy="368.0" r="2.3" fill="#b9bdca" opacity="0.5"/><circle cx="192.3" cy="184.5" r="2.3" fill="#b9bdca" opacity="0.5"/><circle cx="195.3" cy="184.6" r="2.3" fill="#b9bdca" opacity="0.5"/><circle cx="196.6" cy="185.6" r="2.3" fill="#b9bdca" opacity="0.5"/><circle cx="201.0" cy="188.7" r="2.3" fill="#b9bdca" opacity="0.5"/><circle cx="206.9" cy="185.4" r="2.3" fill="#b9bdca" opacity="0.5"/><circle cx="208.2" cy="185.2" r="2.3" fill="#b9bdca" opacity="0.5"/><circle cx="208.7" cy="186.6" r="2.3" fill="#b9bdca" opacity="0.5"/><circle cx="208.8" cy="185.3" r="2.3" fill="#b9bdca" opacity="0.5"/><circle cx="209.9" cy="185.3" r="2.3" fill="#b9bdca" opacity="0.5"/><circle cx="210.3" cy="185.0" r="2.3" fill="#b9bdca" opacity="0.5"/><circle cx="211.4" cy="184.9" r="2.3" fill="#b9bdca" opacity="0.5"/><circle cx="212.0" cy="185.1" r="2.3" fill="#b9bdca" opacity="0.5"/><circle cx="212.0" cy="185.2" r="2.3" fill="#b9bdca" opacity="0.5"/><circle cx="212.0" cy="186.4" r="2.3" fill="#b9bdca" opacity="0.5"/><circle cx="212.2" cy="183.9" r="2.3" fill="#b9bdca" opacity="0.5"/><circle cx="217.6" cy="184.4" r="2.3" fill="#b9bdca" opacity="0.5"/><circle cx="218.5" cy="184.2" r="2.3" fill="#b9bdca" opacity="0.5"/><circle cx="222.0" cy="169.3" r="2.3" fill="#b9bdca" opacity="0.5"/><circle cx="225.3" cy="168.8" r="2.3" fill="#b9bdca" opacity="0.5"/><circle cx="225.5" cy="167.7" r="2.3" fill="#b9bdca" opacity="0.5"/><circle cx="226.9" cy="201.4" r="2.3" fill="#b9bdca" opacity="0.5"/><circle cx="227.4" cy="165.0" r="2.3" fill="#b9bdca" opacity="0.5"/><circle cx="227.6" cy="198.2" r="2.3" fill="#b9bdca" opacity="0.5"/><circle cx="228.1" cy="163.7" r="2.3" fill="#b9bdca" opacity="0.5"/><circle cx="228.3" cy="163.6" r="2.3" fill="#b9bdca" opacity="0.5"/><circle cx="228.9" cy="165.9" r="2.3" fill="#b9bdca" opacity="0.5"/><circle cx="231.9" cy="165.1" r="2.3" fill="#b9bdca" opacity="0.5"/><circle cx="232.5" cy="155.9" r="2.3" fill="#b9bdca" opacity="0.5"/><circle cx="235.4" cy="196.5" r="2.3" fill="#b9bdca" opacity="0.5"/><circle cx="236.6" cy="157.4" r="2.3" fill="#b9bdca" opacity="0.5"/><circle cx="237.7" cy="155.8" r="2.3" fill="#b9bdca" opacity="0.5"/><circle cx="239.6" cy="141.9" r="2.3" fill="#b9bdca" opacity="0.5"/><circle cx="243.5" cy="156.1" r="2.3" fill="#b9bdca" opacity="0.5"/><circle cx="243.5" cy="156.4" r="2.3" fill="#b9bdca" opacity="0.5"/><circle cx="243.7" cy="141.8" r="2.3" fill="#b9bdca" opacity="0.5"/><circle cx="243.8" cy="196.0" r="2.3" fill="#b9bdca" opacity="0.5"/><circle cx="245.2" cy="131.7" r="2.3" fill="#b9bdca" opacity="0.5"/><circle cx="245.3" cy="134.1" r="2.3" fill="#b9bdca" opacity="0.5"/><circle cx="245.8" cy="141.1" r="2.3" fill="#b9bdca" opacity="0.5"/><circle cx="246.4" cy="134.0" r="2.3" fill="#b9bdca" opacity="0.5"/><circle cx="246.6" cy="130.9" r="2.3" fill="#b9bdca" opacity="0.5"/><circle cx="246.6" cy="154.2" r="2.3" fill="#b9bdca" opacity="0.5"/><circle cx="246.8" cy="133.6" r="2.3" fill="#b9bdca" opacity="0.5"/><circle cx="247.1" cy="129.5" r="2.3" fill="#b9bdca" opacity="0.5"/><circle cx="247.2" cy="130.9" r="2.3" fill="#b9bdca" opacity="0.5"/><circle cx="247.2" cy="133.4" r="2.3" fill="#b9bdca" opacity="0.5"/><circle cx="247.5" cy="131.2" r="2.3" fill="#b9bdca" opacity="0.5"/><circle cx="249.9" cy="189.8" r="2.3" fill="#b9bdca" opacity="0.5"/><circle cx="250.0" cy="133.2" r="2.3" fill="#b9bdca" opacity="0.5"/><circle cx="250.4" cy="133.5" r="2.3" fill="#b9bdca" opacity="0.5"/><circle cx="251.3" cy="130.1" r="2.3" fill="#b9bdca" opacity="0.5"/><circle cx="253.7" cy="130.3" r="2.3" fill="#b9bdca" opacity="0.5"/><circle cx="254.8" cy="303.1" r="2.3" fill="#b9bdca" opacity="0.5"/><circle cx="256.7" cy="133.2" r="2.3" fill="#b9bdca" opacity="0.5"/><circle cx="259.3" cy="144.2" r="2.3" fill="#b9bdca" opacity="0.5"/><circle cx="259.9" cy="135.3" r="2.3" fill="#b9bdca" opacity="0.5"/><circle cx="261.5" cy="133.4" r="2.3" fill="#b9bdca" opacity="0.5"/><circle cx="261.7" cy="159.9" r="2.3" fill="#b9bdca" opacity="0.5"/><circle cx="262.1" cy="130.8" r="2.3" fill="#b9bdca" opacity="0.5"/><circle cx="262.7" cy="133.2" r="2.3" fill="#b9bdca" opacity="0.5"/><circle cx="268.7" cy="130.9" r="2.3" fill="#b9bdca" opacity="0.5"/><circle cx="269.3" cy="130.9" r="2.3" fill="#b9bdca" opacity="0.5"/><circle cx="269.3" cy="133.8" r="2.3" fill="#b9bdca" opacity="0.5"/><circle cx="270.3" cy="130.4" r="2.3" fill="#b9bdca" opacity="0.5"/><circle cx="271.0" cy="153.7" r="2.3" fill="#b9bdca" opacity="0.5"/><circle cx="272.1" cy="133.3" r="2.3" fill="#b9bdca" opacity="0.5"/><circle cx="273.9" cy="156.5" r="2.3" fill="#b9bdca" opacity="0.5"/><circle cx="274.3" cy="132.3" r="2.3" fill="#b9bdca" opacity="0.5"/><circle cx="276.4" cy="147.2" r="2.3" fill="#b9bdca" opacity="0.5"/><circle cx="276.8" cy="133.6" r="2.3" fill="#b9bdca" opacity="0.5"/><circle cx="277.6" cy="129.5" r="2.3" fill="#b9bdca" opacity="0.5"/><circle cx="277.6" cy="133.3" r="2.3" fill="#b9bdca" opacity="0.5"/><circle cx="280.2" cy="133.3" r="2.3" fill="#b9bdca" opacity="0.5"/><circle cx="282.0" cy="129.5" r="2.3" fill="#b9bdca" opacity="0.5"/><circle cx="285.0" cy="130.6" r="2.3" fill="#b9bdca" opacity="0.5"/><circle cx="287.2" cy="128.9" r="2.3" fill="#b9bdca" opacity="0.5"/><circle cx="287.7" cy="132.7" r="2.3" fill="#b9bdca" opacity="0.5"/><circle cx="287.7" cy="133.1" r="2.3" fill="#b9bdca" opacity="0.5"/><circle cx="291.0" cy="129.8" r="2.3" fill="#b9bdca" opacity="0.5"/><circle cx="291.9" cy="333.8" r="2.3" fill="#b9bdca" opacity="0.5"/><circle cx="292.2" cy="128.4" r="2.3" fill="#b9bdca" opacity="0.5"/><circle cx="293.8" cy="129.8" r="2.3" fill="#b9bdca" opacity="0.5"/><circle cx="294.4" cy="128.9" r="2.3" fill="#b9bdca" opacity="0.5"/><circle cx="294.5" cy="128.9" r="2.3" fill="#b9bdca" opacity="0.5"/><circle cx="295.7" cy="128.2" r="2.3" fill="#b9bdca" opacity="0.5"/><circle cx="296.5" cy="129.7" r="2.3" fill="#b9bdca" opacity="0.5"/><circle cx="296.8" cy="142.3" r="2.3" fill="#b9bdca" opacity="0.5"/><circle cx="300.0" cy="128.8" r="2.3" fill="#b9bdca" opacity="0.5"/><circle cx="301.8" cy="161.1" r="2.3" fill="#b9bdca" opacity="0.5"/><circle cx="305.4" cy="164.4" r="2.3" fill="#b9bdca" opacity="0.5"/><circle cx="305.8" cy="248.3" r="2.3" fill="#b9bdca" opacity="0.5"/><circle cx="310.9" cy="135.4" r="2.3" fill="#b9bdca" opacity="0.5"/><circle cx="311.4" cy="128.0" r="2.3" fill="#b9bdca" opacity="0.5"/><circle cx="313.0" cy="229.0" r="2.3" fill="#b9bdca" opacity="0.5"/><circle cx="316.5" cy="128.1" r="2.3" fill="#b9bdca" opacity="0.5"/><circle cx="317.5" cy="128.6" r="2.3" fill="#b9bdca" opacity="0.5"/><circle cx="320.8" cy="128.8" r="2.3" fill="#b9bdca" opacity="0.5"/><circle cx="320.8" cy="129.6" r="2.3" fill="#b9bdca" opacity="0.5"/><circle cx="320.8" cy="130.9" r="2.3" fill="#b9bdca" opacity="0.5"/><circle cx="327.8" cy="112.8" r="2.3" fill="#b9bdca" opacity="0.5"/><circle cx="331.5" cy="110.2" r="2.3" fill="#b9bdca" opacity="0.5"/><circle cx="331.6" cy="111.6" r="2.3" fill="#b9bdca" opacity="0.5"/><circle cx="333.9" cy="111.0" r="2.3" fill="#b9bdca" opacity="0.5"/><circle cx="335.0" cy="335.1" r="2.3" fill="#b9bdca" opacity="0.5"/><circle cx="335.6" cy="111.6" r="2.3" fill="#b9bdca" opacity="0.5"/><circle cx="337.9" cy="105.5" r="2.3" fill="#b9bdca" opacity="0.5"/><circle cx="338.3" cy="108.5" r="2.3" fill="#b9bdca" opacity="0.5"/><circle cx="339.2" cy="105.1" r="2.3" fill="#b9bdca" opacity="0.5"/><circle cx="340.3" cy="103.8" r="2.3" fill="#b9bdca" opacity="0.5"/><circle cx="341.5" cy="125.8" r="2.3" fill="#b9bdca" opacity="0.5"/><circle cx="351.6" cy="103.5" r="2.3" fill="#b9bdca" opacity="0.5"/><circle cx="354.2" cy="127.8" r="2.3" fill="#b9bdca" opacity="0.5"/><circle cx="355.4" cy="334.3" r="2.3" fill="#b9bdca" opacity="0.5"/><circle cx="356.9" cy="128.6" r="2.3" fill="#b9bdca" opacity="0.5"/><circle cx="357.7" cy="128.6" r="2.3" fill="#b9bdca" opacity="0.5"/><circle cx="357.8" cy="128.6" r="2.3" fill="#b9bdca" opacity="0.5"/><circle cx="358.7" cy="256.6" r="2.3" fill="#b9bdca" opacity="0.5"/><circle cx="359.9" cy="254.6" r="2.3" fill="#b9bdca" opacity="0.5"/><circle cx="361.8" cy="128.6" r="2.3" fill="#b9bdca" opacity="0.5"/><circle cx="366.4" cy="250.1" r="2.3" fill="#b9bdca" opacity="0.5"/><circle cx="366.8" cy="161.4" r="2.3" fill="#b9bdca" opacity="0.5"/><circle cx="367.3" cy="206.6" r="2.3" fill="#b9bdca" opacity="0.5"/><circle cx="371.6" cy="113.5" r="2.3" fill="#b9bdca" opacity="0.5"/><circle cx="373.0" cy="89.6" r="2.3" fill="#b9bdca" opacity="0.5"/><circle cx="374.1" cy="90.2" r="2.3" fill="#b9bdca" opacity="0.5"/><circle cx="376.8" cy="89.3" r="2.3" fill="#b9bdca" opacity="0.5"/><circle cx="377.5" cy="87.6" r="2.3" fill="#b9bdca" opacity="0.5"/><circle cx="378.4" cy="185.0" r="2.3" fill="#b9bdca" opacity="0.5"/><circle cx="379.4" cy="131.6" r="2.3" fill="#b9bdca" opacity="0.5"/><circle cx="380.1" cy="87.8" r="2.3" fill="#b9bdca" opacity="0.5"/><circle cx="381.3" cy="85.4" r="2.3" fill="#b9bdca" opacity="0.5"/><circle cx="383.2" cy="86.8" r="2.3" fill="#b9bdca" opacity="0.5"/><circle cx="385.2" cy="88.4" r="2.3" fill="#b9bdca" opacity="0.5"/><circle cx="393.2" cy="89.5" r="2.3" fill="#b9bdca" opacity="0.5"/><circle cx="393.2" cy="155.6" r="2.3" fill="#b9bdca" opacity="0.5"/><circle cx="393.3" cy="84.4" r="2.3" fill="#b9bdca" opacity="0.5"/><circle cx="402.8" cy="89.2" r="2.3" fill="#b9bdca" opacity="0.5"/><circle cx="403.0" cy="90.5" r="2.3" fill="#b9bdca" opacity="0.5"/><circle cx="405.7" cy="87.7" r="2.3" fill="#b9bdca" opacity="0.5"/><circle cx="406.6" cy="367.9" r="2.3" fill="#b9bdca" opacity="0.5"/><circle cx="410.5" cy="164.3" r="2.3" fill="#b9bdca" opacity="0.5"/><circle cx="412.4" cy="94.6" r="2.3" fill="#b9bdca" opacity="0.5"/><circle cx="413.2" cy="89.6" r="2.3" fill="#b9bdca" opacity="0.5"/><circle cx="421.4" cy="124.6" r="2.3" fill="#b9bdca" opacity="0.5"/><circle cx="430.2" cy="146.2" r="2.3" fill="#b9bdca" opacity="0.5"/><circle cx="430.5" cy="90.5" r="2.3" fill="#b9bdca" opacity="0.5"/><circle cx="431.3" cy="87.7" r="2.3" fill="#b9bdca" opacity="0.5"/><circle cx="431.7" cy="87.7" r="2.3" fill="#b9bdca" opacity="0.5"/><circle cx="431.8" cy="89.6" r="2.3" fill="#b9bdca" opacity="0.5"/><circle cx="438.0" cy="93.0" r="2.3" fill="#b9bdca" opacity="0.5"/><circle cx="440.3" cy="85.5" r="2.3" fill="#b9bdca" opacity="0.5"/><circle cx="458.8" cy="334.8" r="2.3" fill="#b9bdca" opacity="0.5"/><circle cx="460.9" cy="86.3" r="2.3" fill="#b9bdca" opacity="0.5"/><circle cx="467.2" cy="85.5" r="2.3" fill="#b9bdca" opacity="0.5"/><circle cx="468.3" cy="84.6" r="2.3" fill="#b9bdca" opacity="0.5"/><circle cx="470.9" cy="87.8" r="2.3" fill="#b9bdca" opacity="0.5"/><circle cx="471.9" cy="84.4" r="2.3" fill="#b9bdca" opacity="0.5"/><circle cx="472.5" cy="84.8" r="2.3" fill="#b9bdca" opacity="0.5"/><circle cx="474.3" cy="87.4" r="2.3" fill="#b9bdca" opacity="0.5"/><circle cx="484.3" cy="84.4" r="2.3" fill="#b9bdca" opacity="0.5"/><circle cx="527.9" cy="89.3" r="2.3" fill="#b9bdca" opacity="0.5"/><circle cx="535.8" cy="88.6" r="2.3" fill="#b9bdca" opacity="0.5"/><circle cx="535.8" cy="92.1" r="2.3" fill="#b9bdca" opacity="0.5"/><circle cx="537.5" cy="156.8" r="2.3" fill="#b9bdca" opacity="0.5"/><circle cx="562.7" cy="201.6" r="2.3" fill="#b9bdca" opacity="0.5"/><circle cx="581.1" cy="315.6" r="2.3" fill="#b9bdca" opacity="0.5"/><circle cx="631.4" cy="87.7" r="2.3" fill="#b9bdca" opacity="0.5"/><circle cx="646.6" cy="87.6" r="2.3" fill="#b9bdca" opacity="0.5"/><circle cx="660.1" cy="87.2" r="2.3" fill="#b9bdca" opacity="0.5"/><circle cx="663.2" cy="88.8" r="2.3" fill="#b9bdca" opacity="0.5"/><circle cx="664.4" cy="89.2" r="2.3" fill="#b9bdca" opacity="0.5"/><circle cx="665.1" cy="90.9" r="2.3" fill="#b9bdca" opacity="0.5"/><circle cx="668.9" cy="87.7" r="2.3" fill="#b9bdca" opacity="0.5"/><circle cx="682.6" cy="88.6" r="2.3" fill="#b9bdca" opacity="0.5"/><circle cx="684.3" cy="89.7" r="2.3" fill="#b9bdca" opacity="0.5"/><circle cx="685.5" cy="88.2" r="2.3" fill="#b9bdca" opacity="0.5"/><circle cx="711.0" cy="75.8" r="2.3" fill="#b9bdca" opacity="0.5"/><circle cx="713.0" cy="75.7" r="2.3" fill="#b9bdca" opacity="0.5"/><circle cx="714.4" cy="76.7" r="2.3" fill="#b9bdca" opacity="0.5"/><circle cx="714.6" cy="75.8" r="2.3" fill="#b9bdca" opacity="0.5"/><circle cx="715.3" cy="75.3" r="2.3" fill="#b9bdca" opacity="0.5"/><circle cx="715.7" cy="74.7" r="2.3" fill="#b9bdca" opacity="0.5"/><circle cx="716.0" cy="83.4" r="2.3" fill="#b9bdca" opacity="0.5"/><circle cx="716.6" cy="76.2" r="2.3" fill="#b9bdca" opacity="0.5"/><circle cx="717.2" cy="78.1" r="2.3" fill="#b9bdca" opacity="0.5"/><circle cx="717.8" cy="74.7" r="2.3" fill="#b9bdca" opacity="0.5"/><circle cx="722.0" cy="89.3" r="2.3" fill="#b9bdca" opacity="0.5"/><circle cx="730.6" cy="74.4" r="2.3" fill="#b9bdca" opacity="0.5"/><circle cx="744.1" cy="74.4" r="2.3" fill="#b9bdca" opacity="0.5"/><circle cx="746.3" cy="335.1" r="2.3" fill="#b9bdca" opacity="0.5"/><circle cx="746.3" cy="81.7" r="2.3" fill="#b9bdca" opacity="0.5"/><circle cx="747.9" cy="74.6" r="2.3" fill="#b9bdca" opacity="0.5"/><circle cx="747.9" cy="82.1" r="2.3" fill="#b9bdca" opacity="0.5"/><circle cx="748.0" cy="73.9" r="2.3" fill="#b9bdca" opacity="0.5"/><circle cx="751.8" cy="76.2" r="2.3" fill="#b9bdca" opacity="0.5"/><circle cx="752.4" cy="82.1" r="2.3" fill="#b9bdca" opacity="0.5"/><circle cx="753.0" cy="74.2" r="2.3" fill="#b9bdca" opacity="0.5"/><circle cx="753.1" cy="75.0" r="2.3" fill="#b9bdca" opacity="0.5"/><circle cx="753.9" cy="73.6" r="2.3" fill="#b9bdca" opacity="0.5"/><circle cx="753.9" cy="83.3" r="2.3" fill="#b9bdca" opacity="0.5"/><circle cx="753.9" cy="83.8" r="2.3" fill="#b9bdca" opacity="0.5"/><circle cx="753.9" cy="78.1" r="2.3" fill="#b9bdca" opacity="0.5"/><circle cx="753.9" cy="81.5" r="2.3" fill="#b9bdca" opacity="0.5"/><circle cx="753.9" cy="83.0" r="2.3" fill="#b9bdca" opacity="0.5"/><circle cx="753.9" cy="83.7" r="2.3" fill="#b9bdca" opacity="0.5"/><circle cx="759.3" cy="82.7" r="2.3" fill="#b9bdca" opacity="0.5"/><circle cx="760.5" cy="77.8" r="2.3" fill="#b9bdca" opacity="0.5"/><circle cx="763.3" cy="69.8" r="2.3" fill="#b9bdca" opacity="0.5"/><circle cx="764.2" cy="75.9" r="2.3" fill="#b9bdca" opacity="0.5"/><circle cx="764.6" cy="74.3" r="2.3" fill="#b9bdca" opacity="0.5"/><circle cx="764.6" cy="77.4" r="2.3" fill="#b9bdca" opacity="0.5"/><circle cx="764.6" cy="80.6" r="2.3" fill="#b9bdca" opacity="0.5"/><circle cx="764.6" cy="81.8" r="2.3" fill="#b9bdca" opacity="0.5"/><circle cx="766.5" cy="76.9" r="2.3" fill="#b9bdca" opacity="0.5"/><circle cx="766.5" cy="82.8" r="2.3" fill="#b9bdca" opacity="0.5"/><circle cx="766.5" cy="83.0" r="2.3" fill="#b9bdca" opacity="0.5"/><circle cx="766.5" cy="83.1" r="2.3" fill="#b9bdca" opacity="0.5"/><circle cx="767.4" cy="69.1" r="2.3" fill="#b9bdca" opacity="0.5"/><circle cx="769.6" cy="75.5" r="2.3" fill="#b9bdca" opacity="0.5"/><circle cx="770.8" cy="74.3" r="2.3" fill="#b9bdca" opacity="0.5"/><circle cx="805.1" cy="74.0" r="2.3" fill="#b9bdca" opacity="0.5"/><circle cx="845.8" cy="73.4" r="2.3" fill="#b9bdca" opacity="0.5"/><circle cx="846.1" cy="75.9" r="2.3" fill="#b9bdca" opacity="0.5"/><circle cx="846.1" cy="76.3" r="2.3" fill="#b9bdca" opacity="0.5"/><circle cx="846.5" cy="76.0" r="2.3" fill="#b9bdca" opacity="0.5"/><circle cx="846.5" cy="76.8" r="2.3" fill="#b9bdca" opacity="0.5"/><circle cx="846.5" cy="81.2" r="2.3" fill="#b9bdca" opacity="0.5"/><circle cx="846.5" cy="83.4" r="2.3" fill="#b9bdca" opacity="0.5"/><circle cx="875.2" cy="76.6" r="2.3" fill="#b9bdca" opacity="0.5"/><circle cx="877.2" cy="76.7" r="2.3" fill="#b9bdca" opacity="0.5"/><circle cx="877.2" cy="82.8" r="2.3" fill="#b9bdca" opacity="0.5"/><circle cx="877.2" cy="82.8" r="2.3" fill="#b9bdca" opacity="0.5"/><circle cx="877.2" cy="83.3" r="2.3" fill="#b9bdca" opacity="0.5"/><circle cx="883.2" cy="233.4" r="2.3" fill="#b9bdca" opacity="0.5"/><circle cx="885.0" cy="228.9" r="2.3" fill="#b9bdca" opacity="0.5"/><circle cx="886.7" cy="198.3" r="2.3" fill="#b9bdca" opacity="0.5"/><circle cx="924.1" cy="73.4" r="2.3" fill="#b9bdca" opacity="0.5"/><circle cx="934.6" cy="192.4" r="2.3" fill="#b9bdca" opacity="0.5"/><circle cx="938.3" cy="75.3" r="2.3" fill="#b9bdca" opacity="0.5"/><circle cx="939.2" cy="74.0" r="2.3" fill="#b9bdca" opacity="0.5"/><circle cx="941.6" cy="194.4" r="2.3" fill="#b9bdca" opacity="0.5"/><circle cx="945.2" cy="168.6" r="2.3" fill="#b9bdca" opacity="0.5"/><circle cx="947.5" cy="77.1" r="2.3" fill="#b9bdca" opacity="0.5"/><circle cx="947.5" cy="99.5" r="2.3" fill="#b9bdca" opacity="0.5"/><circle cx="976.4" cy="71.4" r="2.3" fill="#b9bdca" opacity="0.5"/><circle cx="976.4" cy="73.5" r="2.3" fill="#b9bdca" opacity="0.5"/><circle cx="986.6" cy="72.4" r="2.3" fill="#b9bdca" opacity="0.5"/><circle cx="1028.8" cy="83.0" r="2.3" fill="#b9bdca" opacity="0.5"/><circle cx="1029.4" cy="72.1" r="2.3" fill="#b9bdca" opacity="0.5"/><circle cx="1030.0" cy="71.6" r="2.3" fill="#b9bdca" opacity="0.5"/><circle cx="1031.2" cy="75.5" r="2.3" fill="#b9bdca" opacity="0.5"/><circle cx="1032.0" cy="73.7" r="2.3" fill="#b9bdca" opacity="0.5"/><path d="M232.5 152.3L236.1 155.9L232.5 159.5L228.9 155.9Z" fill="#2b3a7a" opacity="0.8" stroke="none" stroke-width="0"/><path d="M243.7 138.2L247.3 141.8L243.7 145.4L240.1 141.8Z" fill="#2b3a7a" opacity="0.8" stroke="none" stroke-width="0"/><path d="M245.2 128.1L248.8 131.7L245.2 135.3L241.6 131.7Z" fill="#2b3a7a" opacity="0.8" stroke="none" stroke-width="0"/><path d="M245.3 130.5L248.9 134.1L245.3 137.7L241.7 134.1Z" fill="#2b3a7a" opacity="0.8" stroke="none" stroke-width="0"/><path d="M246.6 127.3L250.2 130.9L246.6 134.5L243.0 130.9Z" fill="#2b3a7a" opacity="0.8" stroke="none" stroke-width="0"/><path d="M247.1 125.9L250.7 129.5L247.1 133.1L243.5 129.5Z" fill="#2b3a7a" opacity="0.8" stroke="none" stroke-width="0"/><path d="M247.2 127.3L250.8 130.9L247.2 134.5L243.6 130.9Z" fill="#2b3a7a" opacity="0.8" stroke="none" stroke-width="0"/><path d="M282.0 125.9L285.6 129.5L282.0 133.1L278.4 129.5Z" fill="#2b3a7a" opacity="0.8" stroke="none" stroke-width="0"/><path d="M287.2 125.3L290.8 128.9L287.2 132.5L283.6 128.9Z" fill="#2b3a7a" opacity="0.8" stroke="none" stroke-width="0"/><path d="M292.2 124.8L295.8 128.4L292.2 132.0L288.6 128.4Z" fill="#2b3a7a" opacity="0.8" stroke="none" stroke-width="0"/><path d="M295.7 124.6L299.3 128.2L295.7 131.8L292.1 128.2Z" fill="#2b3a7a" opacity="0.8" stroke="none" stroke-width="0"/><path d="M311.4 124.4L315.0 128.0L311.4 131.6L307.8 128.0Z" fill="#2b3a7a" opacity="0.8" stroke="none" stroke-width="0"/><path d="M327.8 109.2L331.4 112.8L327.8 116.4L324.2 112.8Z" fill="#2b3a7a" opacity="0.8" stroke="none" stroke-width="0"/><path d="M335.6 108.0L339.2 111.6L335.6 115.2L332.0 111.6Z" fill="#2b3a7a" opacity="0.8" stroke="none" stroke-width="0"/><path d="M337.9 101.9L341.5 105.5L337.9 109.1L334.3 105.5Z" fill="#2b3a7a" opacity="0.8" stroke="none" stroke-width="0"/><path d="M338.3 104.9L341.9 108.5L338.3 112.1L334.7 108.5Z" fill="#2b3a7a" opacity="0.8" stroke="none" stroke-width="0"/><path d="M339.2 101.5L342.8 105.1L339.2 108.7L335.6 105.1Z" fill="#2b3a7a" opacity="0.8" stroke="none" stroke-width="0"/><path d="M340.3 100.2L343.9 103.8L340.3 107.4L336.7 103.8Z" fill="#2b3a7a" opacity="0.8" stroke="none" stroke-width="0"/><path d="M351.6 99.9L355.2 103.5L351.6 107.1L348.0 103.5Z" fill="#2b3a7a" opacity="0.8" stroke="none" stroke-width="0"/><path d="M373.0 86.0L376.6 89.6L373.0 93.2L369.4 89.6Z" fill="#2b3a7a" opacity="0.8" stroke="none" stroke-width="0"/><path d="M376.8 85.7L380.4 89.3L376.8 92.9L373.2 89.3Z" fill="#2b3a7a" opacity="0.8" stroke="none" stroke-width="0"/><path d="M377.5 84.0L381.1 87.6L377.5 91.2L373.9 87.6Z" fill="#2b3a7a" opacity="0.8" stroke="none" stroke-width="0"/><path d="M381.3 81.8L384.9 85.4L381.3 89.0L377.7 85.4Z" fill="#2b3a7a" opacity="0.8" stroke="none" stroke-width="0"/><path d="M393.3 80.8L396.9 84.4L393.3 88.0L389.7 84.4Z" fill="#2b3a7a" opacity="0.8" stroke="none" stroke-width="0"/><path d="M484.3 80.8L487.9 84.4L484.3 88.0L480.7 84.4Z" fill="#2b3a7a" opacity="0.8" stroke="none" stroke-width="0"/><path d="M711.0 72.2L714.6 75.8L711.0 79.4L707.4 75.8Z" fill="#2b3a7a" opacity="0.8" stroke="none" stroke-width="0"/><path d="M713.0 72.1L716.6 75.7L713.0 79.3L709.4 75.7Z" fill="#2b3a7a" opacity="0.8" stroke="none" stroke-width="0"/><path d="M715.3 71.7L718.9 75.3L715.3 78.9L711.7 75.3Z" fill="#2b3a7a" opacity="0.8" stroke="none" stroke-width="0"/><path d="M715.7 71.1L719.3 74.7L715.7 78.3L712.1 74.7Z" fill="#2b3a7a" opacity="0.8" stroke="none" stroke-width="0"/><path d="M717.8 71.1L721.4 74.7L717.8 78.3L714.2 74.7Z" fill="#2b3a7a" opacity="0.8" stroke="none" stroke-width="0"/><path d="M730.6 70.8L734.2 74.4L730.6 78.0L727.0 74.4Z" fill="#2b3a7a" opacity="0.8" stroke="none" stroke-width="0"/><path d="M748.0 70.3L751.6 73.9L748.0 77.5L744.4 73.9Z" fill="#2b3a7a" opacity="0.8" stroke="none" stroke-width="0"/><path d="M753.9 70.0L757.5 73.6L753.9 77.2L750.3 73.6Z" fill="#2b3a7a" opacity="0.8" stroke="none" stroke-width="0"/><path d="M845.8 69.8L849.4 73.4L845.8 77.0L842.2 73.4Z" fill="#2b3a7a" opacity="0.8" stroke="none" stroke-width="0"/><path d="M924.1 69.8L927.7 73.4L924.1 77.0L920.5 73.4Z" fill="#2b3a7a" opacity="0.8" stroke="none" stroke-width="0"/><path d="M976.4 67.8L980.0 71.4L976.4 75.0L972.8 71.4Z" fill="#2b3a7a" opacity="0.8" stroke="none" stroke-width="0"/><path d="M60.0 335.3L62.8 335.3L62.8 335.1L66.7 335.1L66.7 320.7L74.5 320.7L74.5 319.9L77.5 319.9L77.5 315.3L78.2 315.3L78.2 314.9L79.5 314.9L79.5 314.9L126.0 314.9L126.0 238.7L126.8 238.7L126.8 229.0L127.5 229.0L127.5 222.3L128.5 222.3L128.5 220.6L128.6 220.6L128.6 220.5L129.2 220.5L129.2 214.2L130.9 214.2L130.9 214.1L131.4 214.1L131.4 213.7L131.8 213.7L131.8 213.5L132.3 213.5L132.3 212.7L134.6 212.7L134.6 212.1L135.2 212.1L135.2 212.0L141.4 212.0L141.4 206.7L148.4 206.7L148.4 204.9L151.0 204.9L151.0 204.6L152.7 204.6L152.7 201.9L155.8 201.9L155.8 201.8L157.3 201.8L157.3 201.0L158.3 201.0L158.3 200.0L162.8 200.0L162.8 200.0L164.6 200.0L164.6 199.7L179.8 199.7L179.8 195.5L191.2 195.5L191.2 187.4L191.5 187.4L191.5 186.2L192.3 186.2L192.3 184.5L212.2 184.5L212.2 183.9L222.0 183.9L222.0 169.3L225.3 169.3L225.3 168.8L225.5 168.8L225.5 167.7L227.4 167.7L227.4 165.0L228.1 165.0L228.1 163.7L228.3 163.7L228.3 163.6L232.5 163.6L232.5 155.9L237.7 155.9L237.7 155.8L239.6 155.8L239.6 141.9L243.7 141.9L243.7 141.8L245.2 141.8L245.2 131.7L246.6 131.7L246.6 130.9L247.1 130.9L247.1 129.5L282.0 129.5L282.0 129.5L287.2 129.5L287.2 128.9L292.2 128.9L292.2 128.4L295.7 128.4L295.7 128.2L311.4 128.2L311.4 128.0L327.8 128.0L327.8 112.8L331.5 112.8L331.5 110.2L337.9 110.2L337.9 105.5L339.2 105.5L339.2 105.1L340.3 105.1L340.3 103.8L351.6 103.8L351.6 103.5L373.0 103.5L373.0 89.6L376.8 89.6L376.8 89.3L377.5 89.3L377.5 87.6L381.3 87.6L381.3 85.4L393.3 85.4L393.3 84.4L484.3 84.4L484.3 84.4L711.0 84.4L711.0 75.8L713.0 75.8L713.0 75.7L715.3 75.7L715.3 75.3L715.7 75.3L715.7 74.7L717.8 74.7L717.8 74.7L730.6 74.7L730.6 74.4L748.0 74.4L748.0 73.9L753.9 73.9L753.9 73.6L763.3 73.6L763.3 69.8L767.4 69.8L767.4 69.1L1032.0 69.1" fill="none" stroke="#6675b0" stroke-width="1.6" stroke-dasharray="5 3" opacity="0.75"/><path d="M232.5 155.9L243.7 155.9L243.7 141.8L245.2 141.8L245.2 131.7L246.6 131.7L246.6 130.9L247.1 130.9L247.1 129.5L282.0 129.5L282.0 129.5L287.2 129.5L287.2 128.9L292.2 128.9L292.2 128.4L295.7 128.4L295.7 128.2L311.4 128.2L311.4 128.0L327.8 128.0L327.8 112.8L335.6 112.8L335.6 111.6L337.9 111.6L337.9 105.5L339.2 105.5L339.2 105.1L340.3 105.1L340.3 103.8L351.6 103.8L351.6 103.5L373.0 103.5L373.0 89.6L376.8 89.6L376.8 89.3L377.5 89.3L377.5 87.6L381.3 87.6L381.3 85.4L393.3 85.4L393.3 84.4L484.3 84.4L484.3 84.4L711.0 84.4L711.0 75.8L713.0 75.8L713.0 75.7L715.3 75.7L715.3 75.3L715.7 75.3L715.7 74.7L717.8 74.7L717.8 74.7L730.6 74.7L730.6 74.4L748.0 74.4L748.0 73.9L753.9 73.9L753.9 73.6L763.3 73.6L763.3 73.5L845.8 73.5L845.8 73.4L924.1 73.4L924.1 73.4L976.4 73.4L976.4 71.4L1032.0 71.4" fill="none" stroke="#2b3a7a" stroke-width="2.6"/><path d="M637.5 246.9L644.0 253.4L637.5 259.9L631.0 253.4Z" fill="#c5961a" opacity="1.0" stroke="#ffffff" stroke-width="1.4"/><path d="M750.3 206.5L756.8 213.0L750.3 219.5L743.8 213.0Z" fill="#c5961a" opacity="1.0" stroke="#ffffff" stroke-width="1.4"/><path d="M763.3 67.0L769.8 73.5L763.3 80.0L756.8 73.5Z" fill="#c5961a" opacity="1.0" stroke="#ffffff" stroke-width="1.4"/><path d="M860.0 240.8L866.5 247.3L860.0 253.8L853.5 247.3Z" fill="#c5961a" opacity="1.0" stroke="#ffffff" stroke-width="1.4"/><path d="M860.7 238.0L867.2 244.5L860.7 251.0L854.2 244.5Z" fill="#c5961a" opacity="1.0" stroke="#ffffff" stroke-width="1.4"/><text x="1042" y="67.1" font-size="11.5" fill="#6675b0">– – raw best 513.8</text><text x="1042" y="81.1" font-size="10" fill="#8a8fa3">unverified (pending)</text><path d="M976.4 64.9L982.9 71.4L976.4 77.9L969.9 71.4Z" fill="#2b3a7a" opacity="1.0" stroke="#ffffff" stroke-width="1.4"/><text x="1042" y="99.4" font-size="12.5" fill="#2b3a7a" font-weight="bold">◆ verified 510.1</text><text x="1042" y="115.4" font-size="10.5" fill="#3a3f55">top verified</text><text x="60" y="24" font-size="13" font-weight="bold" fill="#3a3f55" letter-spacing="1.2">SCORE EVOLUTION — gemma-challenge (tok/s)</text><circle cx="452" cy="20" r="3" fill="#b9bdca"/><text x="460" y="24" font-size="10.5" fill="#8a8fa3">all results</text><path d="M544.0 16.4L547.6 20.0L544.0 23.6L540.4 20.0Z" fill="#2b3a7a" opacity="1.0" stroke="none" stroke-width="0"/><text x="552" y="24" font-size="10.5" fill="#8a8fa3">verified</text><path d="M620.0 15.5L624.5 20.0L620.0 24.5L615.5 20.0Z" fill="#c5961a" opacity="1.0" stroke="#fff" stroke-width="1"/><text x="629" y="24" font-size="10.5" fill="#8a8fa3">mikasa-inbound (us)</text></svg>