<svg viewBox="0 0 1200 440" xmlns="http://www.w3.org/2000/svg" font-family="ui-sans-serif,system-ui,-apple-system,sans-serif"><rect x="0" y="0" width="1200" height="440" fill="#ffffff"/><rect x="60" y="46" width="972" height="350" fill="#f3f4fb"/><line x1="60" y1="396.0" x2="1032" y2="396.0" stroke="#e3e5ef" stroke-width="1"/><text x="52" y="400.0" text-anchor="end" font-size="11" fill="#8a8fa3">0</text><line x1="60" y1="332.4" x2="1032" y2="332.4" stroke="#e3e5ef" stroke-width="1"/><text x="52" y="336.4" text-anchor="end" font-size="11" fill="#8a8fa3">100</text><line x1="60" y1="268.7" x2="1032" y2="268.7" stroke="#e3e5ef" stroke-width="1"/><text x="52" y="272.7" text-anchor="end" font-size="11" fill="#8a8fa3">200</text><line x1="60" y1="205.1" x2="1032" y2="205.1" stroke="#e3e5ef" stroke-width="1"/><text x="52" y="209.1" text-anchor="end" font-size="11" fill="#8a8fa3">300</text><line x1="60" y1="141.5" x2="1032" y2="141.5" stroke="#e3e5ef" stroke-width="1"/><text x="52" y="145.5" text-anchor="end" font-size="11" fill="#8a8fa3">400</text><line x1="60" y1="77.8" x2="1032" y2="77.8" stroke="#e3e5ef" stroke-width="1"/><text x="52" y="81.8" text-anchor="end" font-size="11" fill="#8a8fa3">500</text><line x1="146.8" y1="46" x2="146.8" y2="396" stroke="#e3e5ef" stroke-width="1"/><text x="146.8" y="414.0" text-anchor="middle" font-size="11" fill="#8a8fa3">Jun 10</text><line x1="270.5" y1="46" x2="270.5" y2="396" stroke="#e3e5ef" stroke-width="1"/><text x="270.5" y="414.0" text-anchor="middle" font-size="11" fill="#8a8fa3">Jun 12</text><line x1="394.3" y1="46" x2="394.3" y2="396" stroke="#e3e5ef" stroke-width="1"/><text x="394.3" y="414.0" text-anchor="middle" font-size="11" fill="#8a8fa3">Jun 14</text><line x1="518.0" y1="46" x2="518.0" y2="396" stroke="#e3e5ef" stroke-width="1"/><text x="518.0" y="414.0" text-anchor="middle" font-size="11" fill="#8a8fa3">Jun 16</text><line x1="641.8" y1="46" x2="641.8" y2="396" stroke="#e3e5ef" stroke-width="1"/><text x="641.8" y="414.0" text-anchor="middle" font-size="11" fill="#8a8fa3">Jun 18</text><line x1="765.5" y1="46" x2="765.5" y2="396" stroke="#e3e5ef" stroke-width="1"/><text x="765.5" y="414.0" text-anchor="middle" font-size="11" fill="#8a8fa3">Jun 20</text><line x1="889.3" y1="46" x2="889.3" y2="396" stroke="#e3e5ef" stroke-width="1"/><text x="889.3" y="414.0" text-anchor="middle" font-size="11" fill="#8a8fa3">Jun 22</text><line x1="1013.0" y1="46" x2="1013.0" y2="396" stroke="#e3e5ef" stroke-width="1"/><text x="1013.0" y="414.0" text-anchor="middle" font-size="11" fill="#8a8fa3">Jun 24</text><circle cx="60.0" cy="335.3" r="2.3" fill="#b9bdca" opacity="0.5"/><circle cx="63.0" cy="335.1" r="2.3" fill="#b9bdca" opacity="0.5"/><circle cx="66.0" cy="368.0" r="2.3" fill="#b9bdca" opacity="0.5"/><circle cx="67.1" cy="320.7" r="2.3" fill="#b9bdca" opacity="0.5"/><circle cx="75.4" cy="319.9" r="2.3" fill="#b9bdca" opacity="0.5"/><circle cx="75.9" cy="320.6" r="2.3" fill="#b9bdca" opacity="0.5"/><circle cx="78.5" cy="315.3" r="2.3" fill="#b9bdca" opacity="0.5"/><circle cx="79.0" cy="319.7" r="2.3" fill="#b9bdca" opacity="0.5"/><circle cx="79.3" cy="314.9" r="2.3" fill="#b9bdca" opacity="0.5"/><circle cx="80.3" cy="315.5" r="2.3" fill="#b9bdca" opacity="0.5"/><circle cx="80.6" cy="314.9" r="2.3" fill="#b9bdca" opacity="0.5"/><circle cx="81.4" cy="315.4" r="2.3" fill="#b9bdca" opacity="0.5"/><circle cx="83.0" cy="315.0" r="2.3" fill="#b9bdca" opacity="0.5"/><circle cx="129.9" cy="238.7" r="2.3" fill="#b9bdca" opacity="0.5"/><circle cx="130.3" cy="315.0" r="2.3" fill="#b9bdca" opacity="0.5"/><circle cx="130.7" cy="229.0" r="2.3" fill="#b9bdca" opacity="0.5"/><circle cx="131.5" cy="222.3" r="2.3" fill="#b9bdca" opacity="0.5"/><circle cx="132.2" cy="228.0" r="2.3" fill="#b9bdca" opacity="0.5"/><circle cx="132.3" cy="223.3" r="2.3" fill="#b9bdca" opacity="0.5"/><circle cx="132.4" cy="220.6" r="2.3" fill="#b9bdca" opacity="0.5"/><circle cx="132.6" cy="220.5" r="2.3" fill="#b9bdca" opacity="0.5"/><circle cx="132.8" cy="223.2" r="2.3" fill="#b9bdca" opacity="0.5"/><circle cx="133.2" cy="214.2" r="2.3" fill="#b9bdca" opacity="0.5"/><circle cx="133.3" cy="222.1" r="2.3" fill="#b9bdca" opacity="0.5"/><circle cx="133.6" cy="220.7" r="2.3" fill="#b9bdca" opacity="0.5"/><circle cx="134.1" cy="218.5" r="2.3" fill="#b9bdca" opacity="0.5"/><circle cx="134.3" cy="215.2" r="2.3" fill="#b9bdca" opacity="0.5"/><circle cx="134.6" cy="214.3" r="2.3" fill="#b9bdca" opacity="0.5"/><circle cx="134.7" cy="219.2" r="2.3" fill="#b9bdca" opacity="0.5"/><circle cx="135.0" cy="214.1" r="2.3" fill="#b9bdca" opacity="0.5"/><circle cx="135.3" cy="215.2" r="2.3" fill="#b9bdca" opacity="0.5"/><circle cx="135.6" cy="213.7" r="2.3" fill="#b9bdca" opacity="0.5"/><circle cx="136.0" cy="213.5" r="2.3" fill="#b9bdca" opacity="0.5"/><circle cx="136.3" cy="214.8" r="2.3" fill="#b9bdca" opacity="0.5"/><circle cx="136.3" cy="217.7" r="2.3" fill="#b9bdca" opacity="0.5"/><circle cx="136.5" cy="212.7" r="2.3" fill="#b9bdca" opacity="0.5"/><circle cx="137.3" cy="213.3" r="2.3" fill="#b9bdca" opacity="0.5"/><circle cx="138.1" cy="212.7" r="2.3" fill="#b9bdca" opacity="0.5"/><circle cx="138.1" cy="213.6" r="2.3" fill="#b9bdca" opacity="0.5"/><circle cx="138.4" cy="213.0" r="2.3" fill="#b9bdca" opacity="0.5"/><circle cx="138.9" cy="212.1" r="2.3" fill="#b9bdca" opacity="0.5"/><circle cx="139.1" cy="213.3" r="2.3" fill="#b9bdca" opacity="0.5"/><circle cx="139.6" cy="212.0" r="2.3" fill="#b9bdca" opacity="0.5"/><circle cx="140.5" cy="212.1" r="2.3" fill="#b9bdca" opacity="0.5"/><circle cx="140.5" cy="212.8" r="2.3" fill="#b9bdca" opacity="0.5"/><circle cx="146.2" cy="206.7" r="2.3" fill="#b9bdca" opacity="0.5"/><circle cx="146.9" cy="206.8" r="2.3" fill="#b9bdca" opacity="0.5"/><circle cx="146.9" cy="212.5" r="2.3" fill="#b9bdca" opacity="0.5"/><circle cx="147.4" cy="207.2" r="2.3" fill="#b9bdca" opacity="0.5"/><circle cx="149.2" cy="207.0" r="2.3" fill="#b9bdca" opacity="0.5"/><circle cx="153.5" cy="204.9" r="2.3" fill="#b9bdca" opacity="0.5"/><circle cx="156.3" cy="204.6" r="2.3" fill="#b9bdca" opacity="0.5"/><circle cx="156.5" cy="212.3" r="2.3" fill="#b9bdca" opacity="0.5"/><circle cx="157.0" cy="204.6" r="2.3" fill="#b9bdca" opacity="0.5"/><circle cx="157.0" cy="204.6" r="2.3" fill="#b9bdca" opacity="0.5"/><circle cx="157.0" cy="204.9" r="2.3" fill="#b9bdca" opacity="0.5"/><circle cx="157.0" cy="204.9" r="2.3" fill="#b9bdca" opacity="0.5"/><circle cx="158.1" cy="201.9" r="2.3" fill="#b9bdca" opacity="0.5"/><circle cx="159.8" cy="206.5" r="2.3" fill="#b9bdca" opacity="0.5"/><circle cx="160.5" cy="205.8" r="2.3" fill="#b9bdca" opacity="0.5"/><circle cx="160.5" cy="335.1" r="2.3" fill="#b9bdca" opacity="0.5"/><circle cx="161.4" cy="201.8" r="2.3" fill="#b9bdca" opacity="0.5"/><circle cx="161.4" cy="202.2" r="2.3" fill="#b9bdca" opacity="0.5"/><circle cx="163.0" cy="201.0" r="2.3" fill="#b9bdca" opacity="0.5"/><circle cx="163.6" cy="203.1" r="2.3" fill="#b9bdca" opacity="0.5"/><circle cx="164.0" cy="200.0" r="2.3" fill="#b9bdca" opacity="0.5"/><circle cx="164.0" cy="204.6" r="2.3" fill="#b9bdca" opacity="0.5"/><circle cx="165.0" cy="202.3" r="2.3" fill="#b9bdca" opacity="0.5"/><circle cx="167.1" cy="200.4" r="2.3" fill="#b9bdca" opacity="0.5"/><circle cx="167.9" cy="200.7" r="2.3" fill="#b9bdca" opacity="0.5"/><circle cx="168.8" cy="200.0" r="2.3" fill="#b9bdca" opacity="0.5"/><circle cx="170.7" cy="199.7" r="2.3" fill="#b9bdca" opacity="0.5"/><circle cx="182.5" cy="200.6" r="2.3" fill="#b9bdca" opacity="0.5"/><circle cx="183.5" cy="201.8" r="2.3" fill="#b9bdca" opacity="0.5"/><circle cx="185.1" cy="208.4" r="2.3" fill="#b9bdca" opacity="0.5"/><circle cx="185.2" cy="200.8" r="2.3" fill="#b9bdca" opacity="0.5"/><circle cx="186.4" cy="200.7" r="2.3" fill="#b9bdca" opacity="0.5"/><circle cx="186.4" cy="201.9" r="2.3" fill="#b9bdca" opacity="0.5"/><circle cx="186.8" cy="195.5" r="2.3" fill="#b9bdca" opacity="0.5"/><circle cx="187.9" cy="196.9" r="2.3" fill="#b9bdca" opacity="0.5"/><circle cx="188.4" cy="197.9" r="2.3" fill="#b9bdca" opacity="0.5"/><circle cx="189.5" cy="196.1" r="2.3" fill="#b9bdca" opacity="0.5"/><circle cx="193.1" cy="197.3" r="2.3" fill="#b9bdca" opacity="0.5"/><circle cx="194.1" cy="195.9" r="2.3" fill="#b9bdca" opacity="0.5"/><circle cx="194.4" cy="201.0" r="2.3" fill="#b9bdca" opacity="0.5"/><circle cx="194.8" cy="197.5" r="2.3" fill="#b9bdca" opacity="0.5"/><circle cx="195.6" cy="196.9" r="2.3" fill="#b9bdca" opacity="0.5"/><circle cx="195.6" cy="197.1" r="2.3" fill="#b9bdca" opacity="0.5"/><circle cx="195.7" cy="197.0" r="2.3" fill="#b9bdca" opacity="0.5"/><circle cx="196.5" cy="196.0" r="2.3" fill="#b9bdca" opacity="0.5"/><circle cx="196.5" cy="196.0" r="2.3" fill="#b9bdca" opacity="0.5"/><circle cx="196.6" cy="197.9" r="2.3" fill="#b9bdca" opacity="0.5"/><circle cx="197.2" cy="197.8" r="2.3" fill="#b9bdca" opacity="0.5"/><circle cx="197.7" cy="196.2" r="2.3" fill="#b9bdca" opacity="0.5"/><circle cx="197.8" cy="197.5" r="2.3" fill="#b9bdca" opacity="0.5"/><circle cx="197.9" cy="196.9" r="2.3" fill="#b9bdca" opacity="0.5"/><circle cx="198.0" cy="195.5" r="2.3" fill="#b9bdca" opacity="0.5"/><circle cx="198.7" cy="198.1" r="2.3" fill="#b9bdca" opacity="0.5"/><circle cx="198.8" cy="187.4" r="2.3" fill="#b9bdca" opacity="0.5"/><circle cx="199.2" cy="186.2" r="2.3" fill="#b9bdca" opacity="0.5"/><circle cx="199.2" cy="196.3" r="2.3" fill="#b9bdca" opacity="0.5"/><circle cx="199.2" cy="197.2" r="2.3" fill="#b9bdca" opacity="0.5"/><circle cx="199.2" cy="197.8" r="2.3" fill="#b9bdca" opacity="0.5"/><circle cx="199.2" cy="368.0" r="2.3" fill="#b9bdca" opacity="0.5"/><circle cx="200.0" cy="184.5" r="2.3" fill="#b9bdca" opacity="0.5"/><circle cx="203.2" cy="184.6" r="2.3" fill="#b9bdca" opacity="0.5"/><circle cx="204.5" cy="185.6" r="2.3" fill="#b9bdca" opacity="0.5"/><circle cx="209.2" cy="188.7" r="2.3" fill="#b9bdca" opacity="0.5"/><circle cx="215.5" cy="185.4" r="2.3" fill="#b9bdca" opacity="0.5"/><circle cx="216.8" cy="185.2" r="2.3" fill="#b9bdca" opacity="0.5"/><circle cx="217.3" cy="186.6" r="2.3" fill="#b9bdca" opacity="0.5"/><circle cx="217.5" cy="185.3" r="2.3" fill="#b9bdca" opacity="0.5"/><circle cx="218.6" cy="185.3" r="2.3" fill="#b9bdca" opacity="0.5"/><circle cx="219.1" cy="185.0" r="2.3" fill="#b9bdca" opacity="0.5"/><circle cx="220.1" cy="184.9" r="2.3" fill="#b9bdca" opacity="0.5"/><circle cx="220.9" cy="185.1" r="2.3" fill="#b9bdca" opacity="0.5"/><circle cx="220.9" cy="185.2" r="2.3" fill="#b9bdca" opacity="0.5"/><circle cx="220.9" cy="186.4" r="2.3" fill="#b9bdca" opacity="0.5"/><circle cx="221.0" cy="183.9" r="2.3" fill="#b9bdca" opacity="0.5"/><circle cx="226.8" cy="184.4" r="2.3" fill="#b9bdca" opacity="0.5"/><circle cx="227.8" cy="184.2" r="2.3" fill="#b9bdca" opacity="0.5"/><circle cx="231.4" cy="169.3" r="2.3" fill="#b9bdca" opacity="0.5"/><circle cx="234.9" cy="168.8" r="2.3" fill="#b9bdca" opacity="0.5"/><circle cx="235.1" cy="167.7" r="2.3" fill="#b9bdca" opacity="0.5"/><circle cx="236.6" cy="201.4" r="2.3" fill="#b9bdca" opacity="0.5"/><circle cx="237.1" cy="165.0" r="2.3" fill="#b9bdca" opacity="0.5"/><circle cx="237.4" cy="198.2" r="2.3" fill="#b9bdca" opacity="0.5"/><circle cx="237.9" cy="163.7" r="2.3" fill="#b9bdca" opacity="0.5"/><circle cx="238.1" cy="163.6" r="2.3" fill="#b9bdca" opacity="0.5"/><circle cx="238.7" cy="165.9" r="2.3" fill="#b9bdca" opacity="0.5"/><circle cx="241.8" cy="165.1" r="2.3" fill="#b9bdca" opacity="0.5"/><circle cx="242.5" cy="155.9" r="2.3" fill="#b9bdca" opacity="0.5"/><circle cx="245.6" cy="196.5" r="2.3" fill="#b9bdca" opacity="0.5"/><circle cx="246.8" cy="157.4" r="2.3" fill="#b9bdca" opacity="0.5"/><circle cx="248.0" cy="155.8" r="2.3" fill="#b9bdca" opacity="0.5"/><circle cx="250.0" cy="141.9" r="2.3" fill="#b9bdca" opacity="0.5"/><circle cx="254.1" cy="156.1" r="2.3" fill="#b9bdca" opacity="0.5"/><circle cx="254.1" cy="156.4" r="2.3" fill="#b9bdca" opacity="0.5"/><circle cx="254.3" cy="141.8" r="2.3" fill="#b9bdca" opacity="0.5"/><circle cx="254.5" cy="196.0" r="2.3" fill="#b9bdca" opacity="0.5"/><circle cx="255.9" cy="131.7" r="2.3" fill="#b9bdca" opacity="0.5"/><circle cx="256.1" cy="134.1" r="2.3" fill="#b9bdca" opacity="0.5"/><circle cx="256.6" cy="141.1" r="2.3" fill="#b9bdca" opacity="0.5"/><circle cx="257.3" cy="134.0" r="2.3" fill="#b9bdca" opacity="0.5"/><circle cx="257.4" cy="130.9" r="2.3" fill="#b9bdca" opacity="0.5"/><circle cx="257.4" cy="154.2" r="2.3" fill="#b9bdca" opacity="0.5"/><circle cx="257.7" cy="133.6" r="2.3" fill="#b9bdca" opacity="0.5"/><circle cx="258.0" cy="129.5" r="2.3" fill="#b9bdca" opacity="0.5"/><circle cx="258.0" cy="130.9" r="2.3" fill="#b9bdca" opacity="0.5"/><circle cx="258.0" cy="133.4" r="2.3" fill="#b9bdca" opacity="0.5"/><circle cx="258.3" cy="131.2" r="2.3" fill="#b9bdca" opacity="0.5"/><circle cx="260.9" cy="189.8" r="2.3" fill="#b9bdca" opacity="0.5"/><circle cx="261.1" cy="133.2" r="2.3" fill="#b9bdca" opacity="0.5"/><circle cx="261.4" cy="133.5" r="2.3" fill="#b9bdca" opacity="0.5"/><circle cx="262.4" cy="130.1" r="2.3" fill="#b9bdca" opacity="0.5"/><circle cx="264.9" cy="130.3" r="2.3" fill="#b9bdca" opacity="0.5"/><circle cx="266.1" cy="303.1" r="2.3" fill="#b9bdca" opacity="0.5"/><circle cx="268.1" cy="133.2" r="2.3" fill="#b9bdca" opacity="0.5"/><circle cx="270.9" cy="144.2" r="2.3" fill="#b9bdca" opacity="0.5"/><circle cx="271.5" cy="135.3" r="2.3" fill="#b9bdca" opacity="0.5"/><circle cx="273.3" cy="133.4" r="2.3" fill="#b9bdca" opacity="0.5"/><circle cx="273.4" cy="159.9" r="2.3" fill="#b9bdca" opacity="0.5"/><circle cx="273.9" cy="130.8" r="2.3" fill="#b9bdca" opacity="0.5"/><circle cx="274.5" cy="133.2" r="2.3" fill="#b9bdca" opacity="0.5"/><circle cx="280.8" cy="130.9" r="2.3" fill="#b9bdca" opacity="0.5"/><circle cx="281.5" cy="130.9" r="2.3" fill="#b9bdca" opacity="0.5"/><circle cx="281.5" cy="133.8" r="2.3" fill="#b9bdca" opacity="0.5"/><circle cx="282.5" cy="130.4" r="2.3" fill="#b9bdca" opacity="0.5"/><circle cx="283.2" cy="153.7" r="2.3" fill="#b9bdca" opacity="0.5"/><circle cx="284.4" cy="133.3" r="2.3" fill="#b9bdca" opacity="0.5"/><circle cx="286.3" cy="156.5" r="2.3" fill="#b9bdca" opacity="0.5"/><circle cx="286.7" cy="132.3" r="2.3" fill="#b9bdca" opacity="0.5"/><circle cx="289.0" cy="147.2" r="2.3" fill="#b9bdca" opacity="0.5"/><circle cx="289.4" cy="133.6" r="2.3" fill="#b9bdca" opacity="0.5"/><circle cx="290.2" cy="129.5" r="2.3" fill="#b9bdca" opacity="0.5"/><circle cx="290.2" cy="133.3" r="2.3" fill="#b9bdca" opacity="0.5"/><circle cx="293.0" cy="133.3" r="2.3" fill="#b9bdca" opacity="0.5"/><circle cx="294.9" cy="129.5" r="2.3" fill="#b9bdca" opacity="0.5"/><circle cx="298.0" cy="130.6" r="2.3" fill="#b9bdca" opacity="0.5"/><circle cx="300.4" cy="128.9" r="2.3" fill="#b9bdca" opacity="0.5"/><circle cx="300.9" cy="132.7" r="2.3" fill="#b9bdca" opacity="0.5"/><circle cx="300.9" cy="133.1" r="2.3" fill="#b9bdca" opacity="0.5"/><circle cx="304.5" cy="129.8" r="2.3" fill="#b9bdca" opacity="0.5"/><circle cx="305.4" cy="333.8" r="2.3" fill="#b9bdca" opacity="0.5"/><circle cx="305.7" cy="128.4" r="2.3" fill="#b9bdca" opacity="0.5"/><circle cx="307.3" cy="129.8" r="2.3" fill="#b9bdca" opacity="0.5"/><circle cx="308.0" cy="128.9" r="2.3" fill="#b9bdca" opacity="0.5"/><circle cx="308.1" cy="128.9" r="2.3" fill="#b9bdca" opacity="0.5"/><circle cx="309.3" cy="128.2" r="2.3" fill="#b9bdca" opacity="0.5"/><circle cx="310.3" cy="129.7" r="2.3" fill="#b9bdca" opacity="0.5"/><circle cx="310.6" cy="142.3" r="2.3" fill="#b9bdca" opacity="0.5"/><circle cx="313.9" cy="128.8" r="2.3" fill="#b9bdca" opacity="0.5"/><circle cx="315.9" cy="161.1" r="2.3" fill="#b9bdca" opacity="0.5"/><circle cx="319.7" cy="164.4" r="2.3" fill="#b9bdca" opacity="0.5"/><circle cx="320.0" cy="248.3" r="2.3" fill="#b9bdca" opacity="0.5"/><circle cx="325.5" cy="135.4" r="2.3" fill="#b9bdca" opacity="0.5"/><circle cx="326.0" cy="128.0" r="2.3" fill="#b9bdca" opacity="0.5"/><circle cx="327.7" cy="229.0" r="2.3" fill="#b9bdca" opacity="0.5"/><circle cx="331.4" cy="128.1" r="2.3" fill="#b9bdca" opacity="0.5"/><circle cx="332.4" cy="128.6" r="2.3" fill="#b9bdca" opacity="0.5"/><circle cx="335.9" cy="128.8" r="2.3" fill="#b9bdca" opacity="0.5"/><circle cx="335.9" cy="129.6" r="2.3" fill="#b9bdca" opacity="0.5"/><circle cx="335.9" cy="130.9" r="2.3" fill="#b9bdca" opacity="0.5"/><circle cx="343.4" cy="112.8" r="2.3" fill="#b9bdca" opacity="0.5"/><circle cx="347.2" cy="110.2" r="2.3" fill="#b9bdca" opacity="0.5"/><circle cx="347.4" cy="111.6" r="2.3" fill="#b9bdca" opacity="0.5"/><circle cx="349.8" cy="111.0" r="2.3" fill="#b9bdca" opacity="0.5"/><circle cx="351.0" cy="335.1" r="2.3" fill="#b9bdca" opacity="0.5"/><circle cx="351.6" cy="111.6" r="2.3" fill="#b9bdca" opacity="0.5"/><circle cx="354.0" cy="105.5" r="2.3" fill="#b9bdca" opacity="0.5"/><circle cx="354.4" cy="108.5" r="2.3" fill="#b9bdca" opacity="0.5"/><circle cx="355.5" cy="105.1" r="2.3" fill="#b9bdca" opacity="0.5"/><circle cx="356.6" cy="103.8" r="2.3" fill="#b9bdca" opacity="0.5"/><circle cx="357.9" cy="125.8" r="2.3" fill="#b9bdca" opacity="0.5"/><circle cx="368.6" cy="103.5" r="2.3" fill="#b9bdca" opacity="0.5"/><circle cx="371.3" cy="127.8" r="2.3" fill="#b9bdca" opacity="0.5"/><circle cx="372.5" cy="334.3" r="2.3" fill="#b9bdca" opacity="0.5"/><circle cx="374.2" cy="128.6" r="2.3" fill="#b9bdca" opacity="0.5"/><circle cx="375.0" cy="128.6" r="2.3" fill="#b9bdca" opacity="0.5"/><circle cx="375.1" cy="128.6" r="2.3" fill="#b9bdca" opacity="0.5"/><circle cx="376.1" cy="256.6" r="2.3" fill="#b9bdca" opacity="0.5"/><circle cx="377.3" cy="254.6" r="2.3" fill="#b9bdca" opacity="0.5"/><circle cx="379.3" cy="128.6" r="2.3" fill="#b9bdca" opacity="0.5"/><circle cx="384.2" cy="250.1" r="2.3" fill="#b9bdca" opacity="0.5"/><circle cx="384.6" cy="161.4" r="2.3" fill="#b9bdca" opacity="0.5"/><circle cx="385.1" cy="206.6" r="2.3" fill="#b9bdca" opacity="0.5"/><circle cx="389.7" cy="113.5" r="2.3" fill="#b9bdca" opacity="0.5"/><circle cx="391.2" cy="89.6" r="2.3" fill="#b9bdca" opacity="0.5"/><circle cx="392.3" cy="90.2" r="2.3" fill="#b9bdca" opacity="0.5"/><circle cx="395.2" cy="89.3" r="2.3" fill="#b9bdca" opacity="0.5"/><circle cx="395.9" cy="87.6" r="2.3" fill="#b9bdca" opacity="0.5"/><circle cx="396.9" cy="185.0" r="2.3" fill="#b9bdca" opacity="0.5"/><circle cx="397.9" cy="131.6" r="2.3" fill="#b9bdca" opacity="0.5"/><circle cx="398.7" cy="87.8" r="2.3" fill="#b9bdca" opacity="0.5"/><circle cx="400.0" cy="85.4" r="2.3" fill="#b9bdca" opacity="0.5"/><circle cx="402.0" cy="86.8" r="2.3" fill="#b9bdca" opacity="0.5"/><circle cx="404.1" cy="88.4" r="2.3" fill="#b9bdca" opacity="0.5"/><circle cx="412.6" cy="89.5" r="2.3" fill="#b9bdca" opacity="0.5"/><circle cx="412.6" cy="155.6" r="2.3" fill="#b9bdca" opacity="0.5"/><circle cx="412.6" cy="84.4" r="2.3" fill="#b9bdca" opacity="0.5"/><circle cx="422.7" cy="89.2" r="2.3" fill="#b9bdca" opacity="0.5"/><circle cx="422.9" cy="90.5" r="2.3" fill="#b9bdca" opacity="0.5"/><circle cx="425.8" cy="87.7" r="2.3" fill="#b9bdca" opacity="0.5"/><circle cx="426.7" cy="367.9" r="2.3" fill="#b9bdca" opacity="0.5"/><circle cx="430.9" cy="164.3" r="2.3" fill="#b9bdca" opacity="0.5"/><circle cx="432.9" cy="94.6" r="2.3" fill="#b9bdca" opacity="0.5"/><circle cx="433.7" cy="89.6" r="2.3" fill="#b9bdca" opacity="0.5"/><circle cx="442.4" cy="124.6" r="2.3" fill="#b9bdca" opacity="0.5"/><circle cx="451.7" cy="146.2" r="2.3" fill="#b9bdca" opacity="0.5"/><circle cx="452.0" cy="90.5" r="2.3" fill="#b9bdca" opacity="0.5"/><circle cx="452.9" cy="87.7" r="2.3" fill="#b9bdca" opacity="0.5"/><circle cx="453.3" cy="87.7" r="2.3" fill="#b9bdca" opacity="0.5"/><circle cx="453.4" cy="89.6" r="2.3" fill="#b9bdca" opacity="0.5"/><circle cx="460.0" cy="93.0" r="2.3" fill="#b9bdca" opacity="0.5"/><circle cx="462.4" cy="85.5" r="2.3" fill="#b9bdca" opacity="0.5"/><circle cx="482.0" cy="334.8" r="2.3" fill="#b9bdca" opacity="0.5"/><circle cx="484.2" cy="86.3" r="2.3" fill="#b9bdca" opacity="0.5"/><circle cx="490.8" cy="85.5" r="2.3" fill="#b9bdca" opacity="0.5"/><circle cx="492.0" cy="84.6" r="2.3" fill="#b9bdca" opacity="0.5"/><circle cx="494.7" cy="87.8" r="2.3" fill="#b9bdca" opacity="0.5"/><circle cx="495.8" cy="84.4" r="2.3" fill="#b9bdca" opacity="0.5"/><circle cx="496.5" cy="84.8" r="2.3" fill="#b9bdca" opacity="0.5"/><circle cx="498.4" cy="87.4" r="2.3" fill="#b9bdca" opacity="0.5"/><circle cx="508.9" cy="84.4" r="2.3" fill="#b9bdca" opacity="0.5"/><circle cx="555.1" cy="89.3" r="2.3" fill="#b9bdca" opacity="0.5"/><circle cx="563.5" cy="88.6" r="2.3" fill="#b9bdca" opacity="0.5"/><circle cx="563.5" cy="92.1" r="2.3" fill="#b9bdca" opacity="0.5"/><circle cx="565.3" cy="156.8" r="2.3" fill="#b9bdca" opacity="0.5"/><circle cx="591.9" cy="201.6" r="2.3" fill="#b9bdca" opacity="0.5"/><circle cx="611.3" cy="315.6" r="2.3" fill="#b9bdca" opacity="0.5"/><circle cx="664.6" cy="87.7" r="2.3" fill="#b9bdca" opacity="0.5"/><circle cx="680.7" cy="87.6" r="2.3" fill="#b9bdca" opacity="0.5"/><circle cx="695.0" cy="87.2" r="2.3" fill="#b9bdca" opacity="0.5"/><circle cx="698.3" cy="88.8" r="2.3" fill="#b9bdca" opacity="0.5"/><circle cx="699.5" cy="89.2" r="2.3" fill="#b9bdca" opacity="0.5"/><circle cx="700.2" cy="90.9" r="2.3" fill="#b9bdca" opacity="0.5"/><circle cx="704.3" cy="87.7" r="2.3" fill="#b9bdca" opacity="0.5"/><circle cx="718.7" cy="88.6" r="2.3" fill="#b9bdca" opacity="0.5"/><circle cx="720.6" cy="89.7" r="2.3" fill="#b9bdca" opacity="0.5"/><circle cx="721.8" cy="88.2" r="2.3" fill="#b9bdca" opacity="0.5"/><circle cx="748.8" cy="75.8" r="2.3" fill="#b9bdca" opacity="0.5"/><circle cx="750.9" cy="75.7" r="2.3" fill="#b9bdca" opacity="0.5"/><circle cx="752.4" cy="76.7" r="2.3" fill="#b9bdca" opacity="0.5"/><circle cx="752.6" cy="75.8" r="2.3" fill="#b9bdca" opacity="0.5"/><circle cx="753.4" cy="75.3" r="2.3" fill="#b9bdca" opacity="0.5"/><circle cx="753.8" cy="74.7" r="2.3" fill="#b9bdca" opacity="0.5"/><circle cx="754.1" cy="83.4" r="2.3" fill="#b9bdca" opacity="0.5"/><circle cx="754.7" cy="76.2" r="2.3" fill="#b9bdca" opacity="0.5"/><circle cx="755.4" cy="78.1" r="2.3" fill="#b9bdca" opacity="0.5"/><circle cx="756.0" cy="74.7" r="2.3" fill="#b9bdca" opacity="0.5"/><circle cx="760.5" cy="89.3" r="2.3" fill="#b9bdca" opacity="0.5"/><circle cx="769.5" cy="74.4" r="2.3" fill="#b9bdca" opacity="0.5"/><circle cx="783.8" cy="74.4" r="2.3" fill="#b9bdca" opacity="0.5"/><circle cx="786.1" cy="335.1" r="2.3" fill="#b9bdca" opacity="0.5"/><circle cx="786.2" cy="81.7" r="2.3" fill="#b9bdca" opacity="0.5"/><circle cx="787.9" cy="74.6" r="2.3" fill="#b9bdca" opacity="0.5"/><circle cx="787.9" cy="82.1" r="2.3" fill="#b9bdca" opacity="0.5"/><circle cx="787.9" cy="73.9" r="2.3" fill="#b9bdca" opacity="0.5"/><circle cx="792.0" cy="76.2" r="2.3" fill="#b9bdca" opacity="0.5"/><circle cx="792.7" cy="82.1" r="2.3" fill="#b9bdca" opacity="0.5"/><circle cx="793.3" cy="74.2" r="2.3" fill="#b9bdca" opacity="0.5"/><circle cx="793.3" cy="75.0" r="2.3" fill="#b9bdca" opacity="0.5"/><circle cx="794.2" cy="73.6" r="2.3" fill="#b9bdca" opacity="0.5"/><circle cx="794.2" cy="83.3" r="2.3" fill="#b9bdca" opacity="0.5"/><circle cx="794.2" cy="83.8" r="2.3" fill="#b9bdca" opacity="0.5"/><circle cx="794.3" cy="78.1" r="2.3" fill="#b9bdca" opacity="0.5"/><circle cx="794.3" cy="81.5" r="2.3" fill="#b9bdca" opacity="0.5"/><circle cx="794.3" cy="83.0" r="2.3" fill="#b9bdca" opacity="0.5"/><circle cx="794.3" cy="83.7" r="2.3" fill="#b9bdca" opacity="0.5"/><circle cx="799.9" cy="82.7" r="2.3" fill="#b9bdca" opacity="0.5"/><circle cx="801.2" cy="77.8" r="2.3" fill="#b9bdca" opacity="0.5"/><circle cx="804.1" cy="69.8" r="2.3" fill="#b9bdca" opacity="0.5"/><circle cx="805.1" cy="75.9" r="2.3" fill="#b9bdca" opacity="0.5"/><circle cx="805.5" cy="74.3" r="2.3" fill="#b9bdca" opacity="0.5"/><circle cx="805.5" cy="77.4" r="2.3" fill="#b9bdca" opacity="0.5"/><circle cx="805.5" cy="80.6" r="2.3" fill="#b9bdca" opacity="0.5"/><circle cx="805.5" cy="81.8" r="2.3" fill="#b9bdca" opacity="0.5"/><circle cx="807.6" cy="76.9" r="2.3" fill="#b9bdca" opacity="0.5"/><circle cx="807.6" cy="82.8" r="2.3" fill="#b9bdca" opacity="0.5"/><circle cx="807.6" cy="83.0" r="2.3" fill="#b9bdca" opacity="0.5"/><circle cx="807.6" cy="83.1" r="2.3" fill="#b9bdca" opacity="0.5"/><circle cx="808.5" cy="69.1" r="2.3" fill="#b9bdca" opacity="0.5"/><circle cx="810.8" cy="75.5" r="2.3" fill="#b9bdca" opacity="0.5"/><circle cx="812.1" cy="74.3" r="2.3" fill="#b9bdca" opacity="0.5"/><circle cx="848.4" cy="74.0" r="2.3" fill="#b9bdca" opacity="0.5"/><circle cx="891.4" cy="73.4" r="2.3" fill="#b9bdca" opacity="0.5"/><circle cx="891.8" cy="75.9" r="2.3" fill="#b9bdca" opacity="0.5"/><circle cx="891.8" cy="76.3" r="2.3" fill="#b9bdca" opacity="0.5"/><circle cx="892.1" cy="76.0" r="2.3" fill="#b9bdca" opacity="0.5"/><circle cx="892.1" cy="76.8" r="2.3" fill="#b9bdca" opacity="0.5"/><circle cx="892.1" cy="81.2" r="2.3" fill="#b9bdca" opacity="0.5"/><circle cx="892.1" cy="83.4" r="2.3" fill="#b9bdca" opacity="0.5"/><circle cx="922.6" cy="76.6" r="2.3" fill="#b9bdca" opacity="0.5"/><circle cx="924.6" cy="76.7" r="2.3" fill="#b9bdca" opacity="0.5"/><circle cx="924.6" cy="82.8" r="2.3" fill="#b9bdca" opacity="0.5"/><circle cx="924.6" cy="82.8" r="2.3" fill="#b9bdca" opacity="0.5"/><circle cx="924.6" cy="83.3" r="2.3" fill="#b9bdca" opacity="0.5"/><circle cx="931.0" cy="233.4" r="2.3" fill="#b9bdca" opacity="0.5"/><circle cx="932.9" cy="228.9" r="2.3" fill="#b9bdca" opacity="0.5"/><circle cx="934.8" cy="198.3" r="2.3" fill="#b9bdca" opacity="0.5"/><circle cx="974.3" cy="73.4" r="2.3" fill="#b9bdca" opacity="0.5"/><circle cx="985.4" cy="192.4" r="2.3" fill="#b9bdca" opacity="0.5"/><circle cx="989.3" cy="75.3" r="2.3" fill="#b9bdca" opacity="0.5"/><circle cx="990.3" cy="74.0" r="2.3" fill="#b9bdca" opacity="0.5"/><circle cx="992.8" cy="194.4" r="2.3" fill="#b9bdca" opacity="0.5"/><circle cx="996.6" cy="168.6" r="2.3" fill="#b9bdca" opacity="0.5"/><circle cx="999.0" cy="77.1" r="2.3" fill="#b9bdca" opacity="0.5"/><circle cx="999.0" cy="99.5" r="2.3" fill="#b9bdca" opacity="0.5"/><circle cx="1029.6" cy="71.4" r="2.3" fill="#b9bdca" opacity="0.5"/><circle cx="1029.6" cy="73.5" r="2.3" fill="#b9bdca" opacity="0.5"/><circle cx="1032.0" cy="71.2" r="2.3" fill="#b9bdca" opacity="0.5"/><path d="M242.5 152.3L246.1 155.9L242.5 159.5L238.9 155.9Z" fill="#2b3a7a" opacity="0.8" stroke="none" stroke-width="0"/><path d="M254.3 138.2L257.9 141.8L254.3 145.4L250.7 141.8Z" fill="#2b3a7a" opacity="0.8" stroke="none" stroke-width="0"/><path d="M255.9 128.1L259.5 131.7L255.9 135.3L252.3 131.7Z" fill="#2b3a7a" opacity="0.8" stroke="none" stroke-width="0"/><path d="M256.1 130.5L259.7 134.1L256.1 137.7L252.5 134.1Z" fill="#2b3a7a" opacity="0.8" stroke="none" stroke-width="0"/><path d="M257.4 127.3L261.0 130.9L257.4 134.5L253.8 130.9Z" fill="#2b3a7a" opacity="0.8" stroke="none" stroke-width="0"/><path d="M258.0 125.9L261.6 129.5L258.0 133.1L254.4 129.5Z" fill="#2b3a7a" opacity="0.8" stroke="none" stroke-width="0"/><path d="M258.0 127.3L261.6 130.9L258.0 134.5L254.4 130.9Z" fill="#2b3a7a" opacity="0.8" stroke="none" stroke-width="0"/><path d="M294.9 125.9L298.5 129.5L294.9 133.1L291.3 129.5Z" fill="#2b3a7a" opacity="0.8" stroke="none" stroke-width="0"/><path d="M300.4 125.3L304.0 128.9L300.4 132.5L296.8 128.9Z" fill="#2b3a7a" opacity="0.8" stroke="none" stroke-width="0"/><path d="M305.7 124.8L309.3 128.4L305.7 132.0L302.1 128.4Z" fill="#2b3a7a" opacity="0.8" stroke="none" stroke-width="0"/><path d="M309.3 124.6L312.9 128.2L309.3 131.8L305.7 128.2Z" fill="#2b3a7a" opacity="0.8" stroke="none" stroke-width="0"/><path d="M326.0 124.4L329.6 128.0L326.0 131.6L322.4 128.0Z" fill="#2b3a7a" opacity="0.8" stroke="none" stroke-width="0"/><path d="M343.4 109.2L347.0 112.8L343.4 116.4L339.8 112.8Z" fill="#2b3a7a" opacity="0.8" stroke="none" stroke-width="0"/><path d="M351.6 108.0L355.2 111.6L351.6 115.2L348.0 111.6Z" fill="#2b3a7a" opacity="0.8" stroke="none" stroke-width="0"/><path d="M354.0 101.9L357.6 105.5L354.0 109.1L350.4 105.5Z" fill="#2b3a7a" opacity="0.8" stroke="none" stroke-width="0"/><path d="M354.4 104.9L358.0 108.5L354.4 112.1L350.8 108.5Z" fill="#2b3a7a" opacity="0.8" stroke="none" stroke-width="0"/><path d="M355.5 101.5L359.1 105.1L355.5 108.7L351.9 105.1Z" fill="#2b3a7a" opacity="0.8" stroke="none" stroke-width="0"/><path d="M356.6 100.2L360.2 103.8L356.6 107.4L353.0 103.8Z" fill="#2b3a7a" opacity="0.8" stroke="none" stroke-width="0"/><path d="M368.6 99.9L372.2 103.5L368.6 107.1L365.0 103.5Z" fill="#2b3a7a" opacity="0.8" stroke="none" stroke-width="0"/><path d="M391.2 86.0L394.8 89.6L391.2 93.2L387.6 89.6Z" fill="#2b3a7a" opacity="0.8" stroke="none" stroke-width="0"/><path d="M395.2 85.7L398.8 89.3L395.2 92.9L391.6 89.3Z" fill="#2b3a7a" opacity="0.8" stroke="none" stroke-width="0"/><path d="M395.9 84.0L399.5 87.6L395.9 91.2L392.3 87.6Z" fill="#2b3a7a" opacity="0.8" stroke="none" stroke-width="0"/><path d="M400.0 81.8L403.6 85.4L400.0 89.0L396.4 85.4Z" fill="#2b3a7a" opacity="0.8" stroke="none" stroke-width="0"/><path d="M412.6 80.8L416.2 84.4L412.6 88.0L409.0 84.4Z" fill="#2b3a7a" opacity="0.8" stroke="none" stroke-width="0"/><path d="M508.9 80.8L512.5 84.4L508.9 88.0L505.3 84.4Z" fill="#2b3a7a" opacity="0.8" stroke="none" stroke-width="0"/><path d="M748.8 72.2L752.4 75.8L748.8 79.4L745.2 75.8Z" fill="#2b3a7a" opacity="0.8" stroke="none" stroke-width="0"/><path d="M750.9 72.1L754.5 75.7L750.9 79.3L747.3 75.7Z" fill="#2b3a7a" opacity="0.8" stroke="none" stroke-width="0"/><path d="M753.4 71.7L757.0 75.3L753.4 78.9L749.8 75.3Z" fill="#2b3a7a" opacity="0.8" stroke="none" stroke-width="0"/><path d="M753.8 71.1L757.4 74.7L753.8 78.3L750.2 74.7Z" fill="#2b3a7a" opacity="0.8" stroke="none" stroke-width="0"/><path d="M756.0 71.1L759.6 74.7L756.0 78.3L752.4 74.7Z" fill="#2b3a7a" opacity="0.8" stroke="none" stroke-width="0"/><path d="M769.5 70.8L773.1 74.4L769.5 78.0L765.9 74.4Z" fill="#2b3a7a" opacity="0.8" stroke="none" stroke-width="0"/><path d="M787.9 70.3L791.5 73.9L787.9 77.5L784.3 73.9Z" fill="#2b3a7a" opacity="0.8" stroke="none" stroke-width="0"/><path d="M794.2 70.0L797.8 73.6L794.2 77.2L790.6 73.6Z" fill="#2b3a7a" opacity="0.8" stroke="none" stroke-width="0"/><path d="M891.4 69.8L895.0 73.4L891.4 77.0L887.8 73.4Z" fill="#2b3a7a" opacity="0.8" stroke="none" stroke-width="0"/><path d="M974.3 69.8L977.9 73.4L974.3 77.0L970.7 73.4Z" fill="#2b3a7a" opacity="0.8" stroke="none" stroke-width="0"/><path d="M1029.6 67.8L1033.2 71.4L1029.6 75.0L1026.0 71.4Z" fill="#2b3a7a" opacity="0.8" stroke="none" stroke-width="0"/><path d="M60.0 335.3L63.0 335.3L63.0 335.1L67.1 335.1L67.1 320.7L75.4 320.7L75.4 319.9L78.5 319.9L78.5 315.3L79.3 315.3L79.3 314.9L80.6 314.9L80.6 314.9L129.9 314.9L129.9 238.7L130.7 238.7L130.7 229.0L131.5 229.0L131.5 222.3L132.4 222.3L132.4 220.6L132.6 220.6L132.6 220.5L133.2 220.5L133.2 214.2L135.0 214.2L135.0 214.1L135.6 214.1L135.6 213.7L136.0 213.7L136.0 213.5L136.5 213.5L136.5 212.7L138.9 212.7L138.9 212.1L139.6 212.1L139.6 212.0L146.2 212.0L146.2 206.7L153.5 206.7L153.5 204.9L156.3 204.9L156.3 204.6L158.1 204.6L158.1 201.9L161.4 201.9L161.4 201.8L163.0 201.8L163.0 201.0L164.0 201.0L164.0 200.0L168.8 200.0L168.8 200.0L170.7 200.0L170.7 199.7L186.8 199.7L186.8 195.5L198.8 195.5L198.8 187.4L199.2 187.4L199.2 186.2L200.0 186.2L200.0 184.5L221.0 184.5L221.0 183.9L231.4 183.9L231.4 169.3L234.9 169.3L234.9 168.8L235.1 168.8L235.1 167.7L237.1 167.7L237.1 165.0L237.9 165.0L237.9 163.7L238.1 163.7L238.1 163.6L242.5 163.6L242.5 155.9L248.0 155.9L248.0 155.8L250.0 155.8L250.0 141.9L254.3 141.9L254.3 141.8L255.9 141.8L255.9 131.7L257.4 131.7L257.4 130.9L258.0 130.9L258.0 129.5L294.9 129.5L294.9 129.5L300.4 129.5L300.4 128.9L305.7 128.9L305.7 128.4L309.3 128.4L309.3 128.2L326.0 128.2L326.0 128.0L343.4 128.0L343.4 112.8L347.2 112.8L347.2 110.2L354.0 110.2L354.0 105.5L355.5 105.5L355.5 105.1L356.6 105.1L356.6 103.8L368.6 103.8L368.6 103.5L391.2 103.5L391.2 89.6L395.2 89.6L395.2 89.3L395.9 89.3L395.9 87.6L400.0 87.6L400.0 85.4L412.6 85.4L412.6 84.4L508.9 84.4L508.9 84.4L748.8 84.4L748.8 75.8L750.9 75.8L750.9 75.7L753.4 75.7L753.4 75.3L753.8 75.3L753.8 74.7L756.0 74.7L756.0 74.7L769.5 74.7L769.5 74.4L787.9 74.4L787.9 73.9L794.2 73.9L794.2 73.6L804.1 73.6L804.1 69.8L808.5 69.8L808.5 69.1L1032.0 69.1" fill="none" stroke="#6675b0" stroke-width="1.6" stroke-dasharray="5 3" opacity="0.75"/><path d="M242.5 155.9L254.3 155.9L254.3 141.8L255.9 141.8L255.9 131.7L257.4 131.7L257.4 130.9L258.0 130.9L258.0 129.5L294.9 129.5L294.9 129.5L300.4 129.5L300.4 128.9L305.7 128.9L305.7 128.4L309.3 128.4L309.3 128.2L326.0 128.2L326.0 128.0L343.4 128.0L343.4 112.8L351.6 112.8L351.6 111.6L354.0 111.6L354.0 105.5L355.5 105.5L355.5 105.1L356.6 105.1L356.6 103.8L368.6 103.8L368.6 103.5L391.2 103.5L391.2 89.6L395.2 89.6L395.2 89.3L395.9 89.3L395.9 87.6L400.0 87.6L400.0 85.4L412.6 85.4L412.6 84.4L508.9 84.4L508.9 84.4L748.8 84.4L748.8 75.8L750.9 75.8L750.9 75.7L753.4 75.7L753.4 75.3L753.8 75.3L753.8 74.7L756.0 74.7L756.0 74.7L769.5 74.7L769.5 74.4L787.9 74.4L787.9 73.9L794.2 73.9L794.2 73.6L804.2 73.6L804.2 73.5L891.4 73.5L891.4 73.4L974.3 73.4L974.3 73.4L1029.6 73.4L1029.6 71.4L1032.0 71.4" fill="none" stroke="#2b3a7a" stroke-width="2.6"/><path d="M671.0 246.9L677.5 253.4L671.0 259.9L664.5 253.4Z" fill="#c5961a" opacity="1.0" stroke="#ffffff" stroke-width="1.4"/><path d="M790.4 206.5L796.9 213.0L790.4 219.5L783.9 213.0Z" fill="#c5961a" opacity="1.0" stroke="#ffffff" stroke-width="1.4"/><path d="M804.2 67.0L810.7 73.5L804.2 80.0L797.7 73.5Z" fill="#c5961a" opacity="1.0" stroke="#ffffff" stroke-width="1.4"/><path d="M906.4 240.8L912.9 247.3L906.4 253.8L899.9 247.3Z" fill="#c5961a" opacity="1.0" stroke="#ffffff" stroke-width="1.4"/><path d="M907.2 238.0L913.7 244.5L907.2 251.0L900.7 244.5Z" fill="#c5961a" opacity="1.0" stroke="#ffffff" stroke-width="1.4"/><text x="1042" y="67.1" font-size="11.5" fill="#6675b0">– – raw best 513.8</text><text x="1042" y="81.1" font-size="10" fill="#8a8fa3">unverified (pending)</text><path d="M1029.6 64.9L1036.1 71.4L1029.6 77.9L1023.1 71.4Z" fill="#2b3a7a" opacity="1.0" stroke="#ffffff" stroke-width="1.4"/><text x="1042" y="99.4" font-size="12.5" fill="#2b3a7a" font-weight="bold">◆ verified 510.1</text><text x="1042" y="115.4" font-size="10.5" fill="#3a3f55">top verified</text><text x="60" y="24" font-size="13" font-weight="bold" fill="#3a3f55" letter-spacing="1.2">SCORE EVOLUTION — gemma-challenge (tok/s)</text><circle cx="452" cy="20" r="3" fill="#b9bdca"/><text x="460" y="24" font-size="10.5" fill="#8a8fa3">all results</text><path d="M544.0 16.4L547.6 20.0L544.0 23.6L540.4 20.0Z" fill="#2b3a7a" opacity="1.0" stroke="none" stroke-width="0"/><text x="552" y="24" font-size="10.5" fill="#8a8fa3">verified</text><path d="M620.0 15.5L624.5 20.0L620.0 24.5L615.5 20.0Z" fill="#c5961a" opacity="1.0" stroke="#fff" stroke-width="1"/><text x="629" y="24" font-size="10.5" fill="#8a8fa3">mikasa-inbound (us)</text></svg>