<svg viewBox="0 0 1200 440" xmlns="http://www.w3.org/2000/svg" font-family="ui-sans-serif,system-ui,-apple-system,sans-serif"><rect x="0" y="0" width="1200" height="440" fill="#ffffff"/><rect x="60" y="46" width="972" height="350" fill="#f3f4fb"/><line x1="60" y1="396.0" x2="1032" y2="396.0" stroke="#e3e5ef" stroke-width="1"/><text x="52" y="400.0" text-anchor="end" font-size="11" fill="#8a8fa3">0</text><line x1="60" y1="332.4" x2="1032" y2="332.4" stroke="#e3e5ef" stroke-width="1"/><text x="52" y="336.4" text-anchor="end" font-size="11" fill="#8a8fa3">100</text><line x1="60" y1="268.7" x2="1032" y2="268.7" stroke="#e3e5ef" stroke-width="1"/><text x="52" y="272.7" text-anchor="end" font-size="11" fill="#8a8fa3">200</text><line x1="60" y1="205.1" x2="1032" y2="205.1" stroke="#e3e5ef" stroke-width="1"/><text x="52" y="209.1" text-anchor="end" font-size="11" fill="#8a8fa3">300</text><line x1="60" y1="141.5" x2="1032" y2="141.5" stroke="#e3e5ef" stroke-width="1"/><text x="52" y="145.5" text-anchor="end" font-size="11" fill="#8a8fa3">400</text><line x1="60" y1="77.8" x2="1032" y2="77.8" stroke="#e3e5ef" stroke-width="1"/><text x="52" y="81.8" text-anchor="end" font-size="11" fill="#8a8fa3">500</text><line x1="150.7" y1="46" x2="150.7" y2="396" stroke="#e3e5ef" stroke-width="1"/><text x="150.7" y="414.0" text-anchor="middle" font-size="11" fill="#8a8fa3">Jun 10</text><line x1="280.2" y1="46" x2="280.2" y2="396" stroke="#e3e5ef" stroke-width="1"/><text x="280.2" y="414.0" text-anchor="middle" font-size="11" fill="#8a8fa3">Jun 12</text><line x1="409.6" y1="46" x2="409.6" y2="396" stroke="#e3e5ef" stroke-width="1"/><text x="409.6" y="414.0" text-anchor="middle" font-size="11" fill="#8a8fa3">Jun 14</text><line x1="539.0" y1="46" x2="539.0" y2="396" stroke="#e3e5ef" stroke-width="1"/><text x="539.0" y="414.0" text-anchor="middle" font-size="11" fill="#8a8fa3">Jun 16</text><line x1="668.5" y1="46" x2="668.5" y2="396" stroke="#e3e5ef" stroke-width="1"/><text x="668.5" y="414.0" text-anchor="middle" font-size="11" fill="#8a8fa3">Jun 18</text><line x1="797.9" y1="46" x2="797.9" y2="396" stroke="#e3e5ef" stroke-width="1"/><text x="797.9" y="414.0" text-anchor="middle" font-size="11" fill="#8a8fa3">Jun 20</text><line x1="927.3" y1="46" x2="927.3" y2="396" stroke="#e3e5ef" stroke-width="1"/><text x="927.3" y="414.0" text-anchor="middle" font-size="11" fill="#8a8fa3">Jun 22</text><circle cx="60.0" cy="335.3" r="2.3" fill="#b9bdca" opacity="0.5"/><circle cx="63.1" cy="335.1" r="2.3" fill="#b9bdca" opacity="0.5"/><circle cx="66.2" cy="368.0" r="2.3" fill="#b9bdca" opacity="0.5"/><circle cx="67.5" cy="320.7" r="2.3" fill="#b9bdca" opacity="0.5"/><circle cx="76.1" cy="319.9" r="2.3" fill="#b9bdca" opacity="0.5"/><circle cx="76.6" cy="320.6" r="2.3" fill="#b9bdca" opacity="0.5"/><circle cx="79.3" cy="315.3" r="2.3" fill="#b9bdca" opacity="0.5"/><circle cx="79.9" cy="319.7" r="2.3" fill="#b9bdca" opacity="0.5"/><circle cx="80.2" cy="314.9" r="2.3" fill="#b9bdca" opacity="0.5"/><circle cx="81.2" cy="315.5" r="2.3" fill="#b9bdca" opacity="0.5"/><circle cx="81.6" cy="314.9" r="2.3" fill="#b9bdca" opacity="0.5"/><circle cx="82.4" cy="315.4" r="2.3" fill="#b9bdca" opacity="0.5"/><circle cx="84.0" cy="315.0" r="2.3" fill="#b9bdca" opacity="0.5"/><circle cx="133.1" cy="238.7" r="2.3" fill="#b9bdca" opacity="0.5"/><circle cx="133.5" cy="315.0" r="2.3" fill="#b9bdca" opacity="0.5"/><circle cx="133.9" cy="229.0" r="2.3" fill="#b9bdca" opacity="0.5"/><circle cx="134.7" cy="222.3" r="2.3" fill="#b9bdca" opacity="0.5"/><circle cx="135.5" cy="228.0" r="2.3" fill="#b9bdca" opacity="0.5"/><circle cx="135.6" cy="223.3" r="2.3" fill="#b9bdca" opacity="0.5"/><circle cx="135.8" cy="220.6" r="2.3" fill="#b9bdca" opacity="0.5"/><circle cx="136.0" cy="220.5" r="2.3" fill="#b9bdca" opacity="0.5"/><circle cx="136.1" cy="223.2" r="2.3" fill="#b9bdca" opacity="0.5"/><circle cx="136.5" cy="214.2" r="2.3" fill="#b9bdca" opacity="0.5"/><circle cx="136.6" cy="222.1" r="2.3" fill="#b9bdca" opacity="0.5"/><circle cx="137.0" cy="220.7" r="2.3" fill="#b9bdca" opacity="0.5"/><circle cx="137.5" cy="218.5" r="2.3" fill="#b9bdca" opacity="0.5"/><circle cx="137.7" cy="215.2" r="2.3" fill="#b9bdca" opacity="0.5"/><circle cx="138.1" cy="214.3" r="2.3" fill="#b9bdca" opacity="0.5"/><circle cx="138.1" cy="219.2" r="2.3" fill="#b9bdca" opacity="0.5"/><circle cx="138.5" cy="214.1" r="2.3" fill="#b9bdca" opacity="0.5"/><circle cx="138.8" cy="215.2" r="2.3" fill="#b9bdca" opacity="0.5"/><circle cx="139.1" cy="213.7" r="2.3" fill="#b9bdca" opacity="0.5"/><circle cx="139.5" cy="213.5" r="2.3" fill="#b9bdca" opacity="0.5"/><circle cx="139.8" cy="214.8" r="2.3" fill="#b9bdca" opacity="0.5"/><circle cx="139.8" cy="217.7" r="2.3" fill="#b9bdca" opacity="0.5"/><circle cx="140.0" cy="212.7" r="2.3" fill="#b9bdca" opacity="0.5"/><circle cx="140.8" cy="213.3" r="2.3" fill="#b9bdca" opacity="0.5"/><circle cx="141.7" cy="212.7" r="2.3" fill="#b9bdca" opacity="0.5"/><circle cx="141.7" cy="213.6" r="2.3" fill="#b9bdca" opacity="0.5"/><circle cx="142.0" cy="213.0" r="2.3" fill="#b9bdca" opacity="0.5"/><circle cx="142.6" cy="212.1" r="2.3" fill="#b9bdca" opacity="0.5"/><circle cx="142.7" cy="213.3" r="2.3" fill="#b9bdca" opacity="0.5"/><circle cx="143.2" cy="212.0" r="2.3" fill="#b9bdca" opacity="0.5"/><circle cx="144.2" cy="212.1" r="2.3" fill="#b9bdca" opacity="0.5"/><circle cx="144.2" cy="212.8" r="2.3" fill="#b9bdca" opacity="0.5"/><circle cx="150.1" cy="206.7" r="2.3" fill="#b9bdca" opacity="0.5"/><circle cx="150.9" cy="206.8" r="2.3" fill="#b9bdca" opacity="0.5"/><circle cx="150.9" cy="212.5" r="2.3" fill="#b9bdca" opacity="0.5"/><circle cx="151.4" cy="207.2" r="2.3" fill="#b9bdca" opacity="0.5"/><circle cx="153.3" cy="207.0" r="2.3" fill="#b9bdca" opacity="0.5"/><circle cx="157.8" cy="204.9" r="2.3" fill="#b9bdca" opacity="0.5"/><circle cx="160.7" cy="204.6" r="2.3" fill="#b9bdca" opacity="0.5"/><circle cx="160.9" cy="212.3" r="2.3" fill="#b9bdca" opacity="0.5"/><circle cx="161.4" cy="204.6" r="2.3" fill="#b9bdca" opacity="0.5"/><circle cx="161.4" cy="204.6" r="2.3" fill="#b9bdca" opacity="0.5"/><circle cx="161.4" cy="204.9" r="2.3" fill="#b9bdca" opacity="0.5"/><circle cx="161.4" cy="204.9" r="2.3" fill="#b9bdca" opacity="0.5"/><circle cx="162.6" cy="201.9" r="2.3" fill="#b9bdca" opacity="0.5"/><circle cx="164.4" cy="206.5" r="2.3" fill="#b9bdca" opacity="0.5"/><circle cx="165.1" cy="205.8" r="2.3" fill="#b9bdca" opacity="0.5"/><circle cx="165.1" cy="335.1" r="2.3" fill="#b9bdca" opacity="0.5"/><circle cx="166.0" cy="201.8" r="2.3" fill="#b9bdca" opacity="0.5"/><circle cx="166.1" cy="202.2" r="2.3" fill="#b9bdca" opacity="0.5"/><circle cx="167.7" cy="201.0" r="2.3" fill="#b9bdca" opacity="0.5"/><circle cx="168.4" cy="203.1" r="2.3" fill="#b9bdca" opacity="0.5"/><circle cx="168.8" cy="200.0" r="2.3" fill="#b9bdca" opacity="0.5"/><circle cx="168.8" cy="204.6" r="2.3" fill="#b9bdca" opacity="0.5"/><circle cx="169.8" cy="202.3" r="2.3" fill="#b9bdca" opacity="0.5"/><circle cx="172.0" cy="200.4" r="2.3" fill="#b9bdca" opacity="0.5"/><circle cx="172.8" cy="200.7" r="2.3" fill="#b9bdca" opacity="0.5"/><circle cx="173.7" cy="200.0" r="2.3" fill="#b9bdca" opacity="0.5"/><circle cx="175.8" cy="199.7" r="2.3" fill="#b9bdca" opacity="0.5"/><circle cx="188.1" cy="200.6" r="2.3" fill="#b9bdca" opacity="0.5"/><circle cx="189.2" cy="201.8" r="2.3" fill="#b9bdca" opacity="0.5"/><circle cx="190.9" cy="208.4" r="2.3" fill="#b9bdca" opacity="0.5"/><circle cx="191.0" cy="200.8" r="2.3" fill="#b9bdca" opacity="0.5"/><circle cx="192.2" cy="200.7" r="2.3" fill="#b9bdca" opacity="0.5"/><circle cx="192.2" cy="201.9" r="2.3" fill="#b9bdca" opacity="0.5"/><circle cx="192.6" cy="195.5" r="2.3" fill="#b9bdca" opacity="0.5"/><circle cx="193.7" cy="196.9" r="2.3" fill="#b9bdca" opacity="0.5"/><circle cx="194.3" cy="197.9" r="2.3" fill="#b9bdca" opacity="0.5"/><circle cx="195.4" cy="196.1" r="2.3" fill="#b9bdca" opacity="0.5"/><circle cx="199.2" cy="197.3" r="2.3" fill="#b9bdca" opacity="0.5"/><circle cx="200.3" cy="195.9" r="2.3" fill="#b9bdca" opacity="0.5"/><circle cx="200.6" cy="201.0" r="2.3" fill="#b9bdca" opacity="0.5"/><circle cx="200.9" cy="197.5" r="2.3" fill="#b9bdca" opacity="0.5"/><circle cx="201.8" cy="196.9" r="2.3" fill="#b9bdca" opacity="0.5"/><circle cx="201.8" cy="197.1" r="2.3" fill="#b9bdca" opacity="0.5"/><circle cx="201.9" cy="197.0" r="2.3" fill="#b9bdca" opacity="0.5"/><circle cx="202.8" cy="196.0" r="2.3" fill="#b9bdca" opacity="0.5"/><circle cx="202.8" cy="196.0" r="2.3" fill="#b9bdca" opacity="0.5"/><circle cx="202.9" cy="197.9" r="2.3" fill="#b9bdca" opacity="0.5"/><circle cx="203.5" cy="197.8" r="2.3" fill="#b9bdca" opacity="0.5"/><circle cx="204.0" cy="196.2" r="2.3" fill="#b9bdca" opacity="0.5"/><circle cx="204.1" cy="197.5" r="2.3" fill="#b9bdca" opacity="0.5"/><circle cx="204.3" cy="196.9" r="2.3" fill="#b9bdca" opacity="0.5"/><circle cx="204.4" cy="195.5" r="2.3" fill="#b9bdca" opacity="0.5"/><circle cx="205.1" cy="198.1" r="2.3" fill="#b9bdca" opacity="0.5"/><circle cx="205.2" cy="187.4" r="2.3" fill="#b9bdca" opacity="0.5"/><circle cx="205.6" cy="186.2" r="2.3" fill="#b9bdca" opacity="0.5"/><circle cx="205.6" cy="196.3" r="2.3" fill="#b9bdca" opacity="0.5"/><circle cx="205.6" cy="197.2" r="2.3" fill="#b9bdca" opacity="0.5"/><circle cx="205.6" cy="197.8" r="2.3" fill="#b9bdca" opacity="0.5"/><circle cx="205.6" cy="368.0" r="2.3" fill="#b9bdca" opacity="0.5"/><circle cx="206.4" cy="184.5" r="2.3" fill="#b9bdca" opacity="0.5"/><circle cx="209.7" cy="184.6" r="2.3" fill="#b9bdca" opacity="0.5"/><circle cx="211.2" cy="185.6" r="2.3" fill="#b9bdca" opacity="0.5"/><circle cx="216.0" cy="188.7" r="2.3" fill="#b9bdca" opacity="0.5"/><circle cx="222.6" cy="185.4" r="2.3" fill="#b9bdca" opacity="0.5"/><circle cx="224.0" cy="185.2" r="2.3" fill="#b9bdca" opacity="0.5"/><circle cx="224.5" cy="186.6" r="2.3" fill="#b9bdca" opacity="0.5"/><circle cx="224.7" cy="185.3" r="2.3" fill="#b9bdca" opacity="0.5"/><circle cx="225.8" cy="185.3" r="2.3" fill="#b9bdca" opacity="0.5"/><circle cx="226.4" cy="185.0" r="2.3" fill="#b9bdca" opacity="0.5"/><circle cx="227.5" cy="184.9" r="2.3" fill="#b9bdca" opacity="0.5"/><circle cx="228.3" cy="185.1" r="2.3" fill="#b9bdca" opacity="0.5"/><circle cx="228.3" cy="185.2" r="2.3" fill="#b9bdca" opacity="0.5"/><circle cx="228.3" cy="186.4" r="2.3" fill="#b9bdca" opacity="0.5"/><circle cx="228.4" cy="183.9" r="2.3" fill="#b9bdca" opacity="0.5"/><circle cx="234.4" cy="184.4" r="2.3" fill="#b9bdca" opacity="0.5"/><circle cx="235.5" cy="184.2" r="2.3" fill="#b9bdca" opacity="0.5"/><circle cx="239.3" cy="169.3" r="2.3" fill="#b9bdca" opacity="0.5"/><circle cx="242.9" cy="168.8" r="2.3" fill="#b9bdca" opacity="0.5"/><circle cx="243.2" cy="167.7" r="2.3" fill="#b9bdca" opacity="0.5"/><circle cx="244.8" cy="201.4" r="2.3" fill="#b9bdca" opacity="0.5"/><circle cx="245.2" cy="165.0" r="2.3" fill="#b9bdca" opacity="0.5"/><circle cx="245.5" cy="198.2" r="2.3" fill="#b9bdca" opacity="0.5"/><circle cx="246.1" cy="163.7" r="2.3" fill="#b9bdca" opacity="0.5"/><circle cx="246.3" cy="163.6" r="2.3" fill="#b9bdca" opacity="0.5"/><circle cx="246.9" cy="165.9" r="2.3" fill="#b9bdca" opacity="0.5"/><circle cx="250.2" cy="165.1" r="2.3" fill="#b9bdca" opacity="0.5"/><circle cx="250.9" cy="155.9" r="2.3" fill="#b9bdca" opacity="0.5"/><circle cx="254.1" cy="196.5" r="2.3" fill="#b9bdca" opacity="0.5"/><circle cx="255.4" cy="157.4" r="2.3" fill="#b9bdca" opacity="0.5"/><circle cx="256.6" cy="155.8" r="2.3" fill="#b9bdca" opacity="0.5"/><circle cx="258.7" cy="141.9" r="2.3" fill="#b9bdca" opacity="0.5"/><circle cx="263.0" cy="156.1" r="2.3" fill="#b9bdca" opacity="0.5"/><circle cx="263.0" cy="156.4" r="2.3" fill="#b9bdca" opacity="0.5"/><circle cx="263.3" cy="141.8" r="2.3" fill="#b9bdca" opacity="0.5"/><circle cx="263.5" cy="196.0" r="2.3" fill="#b9bdca" opacity="0.5"/><circle cx="264.9" cy="131.7" r="2.3" fill="#b9bdca" opacity="0.5"/><circle cx="265.1" cy="134.1" r="2.3" fill="#b9bdca" opacity="0.5"/><circle cx="265.6" cy="141.1" r="2.3" fill="#b9bdca" opacity="0.5"/><circle cx="266.3" cy="134.0" r="2.3" fill="#b9bdca" opacity="0.5"/><circle cx="266.5" cy="130.9" r="2.3" fill="#b9bdca" opacity="0.5"/><circle cx="266.5" cy="154.2" r="2.3" fill="#b9bdca" opacity="0.5"/><circle cx="266.8" cy="133.6" r="2.3" fill="#b9bdca" opacity="0.5"/><circle cx="267.1" cy="129.5" r="2.3" fill="#b9bdca" opacity="0.5"/><circle cx="267.1" cy="130.9" r="2.3" fill="#b9bdca" opacity="0.5"/><circle cx="267.1" cy="133.4" r="2.3" fill="#b9bdca" opacity="0.5"/><circle cx="267.5" cy="131.2" r="2.3" fill="#b9bdca" opacity="0.5"/><circle cx="270.1" cy="189.8" r="2.3" fill="#b9bdca" opacity="0.5"/><circle cx="270.3" cy="133.2" r="2.3" fill="#b9bdca" opacity="0.5"/><circle cx="270.7" cy="133.5" r="2.3" fill="#b9bdca" opacity="0.5"/><circle cx="271.7" cy="130.1" r="2.3" fill="#b9bdca" opacity="0.5"/><circle cx="274.3" cy="130.3" r="2.3" fill="#b9bdca" opacity="0.5"/><circle cx="275.5" cy="303.1" r="2.3" fill="#b9bdca" opacity="0.5"/><circle cx="277.7" cy="133.2" r="2.3" fill="#b9bdca" opacity="0.5"/><circle cx="280.6" cy="144.2" r="2.3" fill="#b9bdca" opacity="0.5"/><circle cx="281.2" cy="135.3" r="2.3" fill="#b9bdca" opacity="0.5"/><circle cx="283.0" cy="133.4" r="2.3" fill="#b9bdca" opacity="0.5"/><circle cx="283.2" cy="159.9" r="2.3" fill="#b9bdca" opacity="0.5"/><circle cx="283.7" cy="130.8" r="2.3" fill="#b9bdca" opacity="0.5"/><circle cx="284.3" cy="133.2" r="2.3" fill="#b9bdca" opacity="0.5"/><circle cx="290.9" cy="130.9" r="2.3" fill="#b9bdca" opacity="0.5"/><circle cx="291.7" cy="130.9" r="2.3" fill="#b9bdca" opacity="0.5"/><circle cx="291.7" cy="133.8" r="2.3" fill="#b9bdca" opacity="0.5"/><circle cx="292.8" cy="130.4" r="2.3" fill="#b9bdca" opacity="0.5"/><circle cx="293.5" cy="153.7" r="2.3" fill="#b9bdca" opacity="0.5"/><circle cx="294.7" cy="133.3" r="2.3" fill="#b9bdca" opacity="0.5"/><circle cx="296.7" cy="156.5" r="2.3" fill="#b9bdca" opacity="0.5"/><circle cx="297.1" cy="132.3" r="2.3" fill="#b9bdca" opacity="0.5"/><circle cx="299.5" cy="147.2" r="2.3" fill="#b9bdca" opacity="0.5"/><circle cx="299.9" cy="133.6" r="2.3" fill="#b9bdca" opacity="0.5"/><circle cx="300.8" cy="129.5" r="2.3" fill="#b9bdca" opacity="0.5"/><circle cx="300.8" cy="133.3" r="2.3" fill="#b9bdca" opacity="0.5"/><circle cx="303.7" cy="133.3" r="2.3" fill="#b9bdca" opacity="0.5"/><circle cx="305.7" cy="129.5" r="2.3" fill="#b9bdca" opacity="0.5"/><circle cx="309.0" cy="130.6" r="2.3" fill="#b9bdca" opacity="0.5"/><circle cx="311.4" cy="128.9" r="2.3" fill="#b9bdca" opacity="0.5"/><circle cx="311.9" cy="132.7" r="2.3" fill="#b9bdca" opacity="0.5"/><circle cx="311.9" cy="133.1" r="2.3" fill="#b9bdca" opacity="0.5"/><circle cx="315.7" cy="129.8" r="2.3" fill="#b9bdca" opacity="0.5"/><circle cx="316.7" cy="333.8" r="2.3" fill="#b9bdca" opacity="0.5"/><circle cx="317.0" cy="128.4" r="2.3" fill="#b9bdca" opacity="0.5"/><circle cx="318.7" cy="129.8" r="2.3" fill="#b9bdca" opacity="0.5"/><circle cx="319.4" cy="128.9" r="2.3" fill="#b9bdca" opacity="0.5"/><circle cx="319.5" cy="128.9" r="2.3" fill="#b9bdca" opacity="0.5"/><circle cx="320.8" cy="128.2" r="2.3" fill="#b9bdca" opacity="0.5"/><circle cx="321.7" cy="129.7" r="2.3" fill="#b9bdca" opacity="0.5"/><circle cx="322.1" cy="142.3" r="2.3" fill="#b9bdca" opacity="0.5"/><circle cx="325.6" cy="128.8" r="2.3" fill="#b9bdca" opacity="0.5"/><circle cx="327.6" cy="161.1" r="2.3" fill="#b9bdca" opacity="0.5"/><circle cx="331.6" cy="164.4" r="2.3" fill="#b9bdca" opacity="0.5"/><circle cx="332.0" cy="248.3" r="2.3" fill="#b9bdca" opacity="0.5"/><circle cx="337.7" cy="135.4" r="2.3" fill="#b9bdca" opacity="0.5"/><circle cx="338.2" cy="128.0" r="2.3" fill="#b9bdca" opacity="0.5"/><circle cx="339.9" cy="229.0" r="2.3" fill="#b9bdca" opacity="0.5"/><circle cx="343.9" cy="128.1" r="2.3" fill="#b9bdca" opacity="0.5"/><circle cx="344.9" cy="128.6" r="2.3" fill="#b9bdca" opacity="0.5"/><circle cx="348.6" cy="128.8" r="2.3" fill="#b9bdca" opacity="0.5"/><circle cx="348.6" cy="129.6" r="2.3" fill="#b9bdca" opacity="0.5"/><circle cx="348.6" cy="130.9" r="2.3" fill="#b9bdca" opacity="0.5"/><circle cx="356.4" cy="112.8" r="2.3" fill="#b9bdca" opacity="0.5"/><circle cx="360.4" cy="110.2" r="2.3" fill="#b9bdca" opacity="0.5"/><circle cx="360.6" cy="111.6" r="2.3" fill="#b9bdca" opacity="0.5"/><circle cx="363.1" cy="111.0" r="2.3" fill="#b9bdca" opacity="0.5"/><circle cx="364.3" cy="335.1" r="2.3" fill="#b9bdca" opacity="0.5"/><circle cx="365.0" cy="111.6" r="2.3" fill="#b9bdca" opacity="0.5"/><circle cx="367.5" cy="105.5" r="2.3" fill="#b9bdca" opacity="0.5"/><circle cx="367.9" cy="108.5" r="2.3" fill="#b9bdca" opacity="0.5"/><circle cx="369.0" cy="105.1" r="2.3" fill="#b9bdca" opacity="0.5"/><circle cx="370.2" cy="103.8" r="2.3" fill="#b9bdca" opacity="0.5"/><circle cx="371.5" cy="125.8" r="2.3" fill="#b9bdca" opacity="0.5"/><circle cx="382.7" cy="103.5" r="2.3" fill="#b9bdca" opacity="0.5"/><circle cx="385.6" cy="127.8" r="2.3" fill="#b9bdca" opacity="0.5"/><circle cx="386.9" cy="334.3" r="2.3" fill="#b9bdca" opacity="0.5"/><circle cx="388.6" cy="128.6" r="2.3" fill="#b9bdca" opacity="0.5"/><circle cx="389.4" cy="128.6" r="2.3" fill="#b9bdca" opacity="0.5"/><circle cx="389.6" cy="128.6" r="2.3" fill="#b9bdca" opacity="0.5"/><circle cx="390.6" cy="256.6" r="2.3" fill="#b9bdca" opacity="0.5"/><circle cx="391.9" cy="254.6" r="2.3" fill="#b9bdca" opacity="0.5"/><circle cx="394.0" cy="128.6" r="2.3" fill="#b9bdca" opacity="0.5"/><circle cx="399.1" cy="250.1" r="2.3" fill="#b9bdca" opacity="0.5"/><circle cx="399.5" cy="161.4" r="2.3" fill="#b9bdca" opacity="0.5"/><circle cx="400.1" cy="206.6" r="2.3" fill="#b9bdca" opacity="0.5"/><circle cx="404.8" cy="113.5" r="2.3" fill="#b9bdca" opacity="0.5"/><circle cx="406.4" cy="89.6" r="2.3" fill="#b9bdca" opacity="0.5"/><circle cx="407.6" cy="90.2" r="2.3" fill="#b9bdca" opacity="0.5"/><circle cx="410.5" cy="89.3" r="2.3" fill="#b9bdca" opacity="0.5"/><circle cx="411.4" cy="87.6" r="2.3" fill="#b9bdca" opacity="0.5"/><circle cx="412.3" cy="185.0" r="2.3" fill="#b9bdca" opacity="0.5"/><circle cx="413.4" cy="131.6" r="2.3" fill="#b9bdca" opacity="0.5"/><circle cx="414.2" cy="87.8" r="2.3" fill="#b9bdca" opacity="0.5"/><circle cx="415.6" cy="85.4" r="2.3" fill="#b9bdca" opacity="0.5"/><circle cx="417.7" cy="86.8" r="2.3" fill="#b9bdca" opacity="0.5"/><circle cx="419.8" cy="88.4" r="2.3" fill="#b9bdca" opacity="0.5"/><circle cx="428.7" cy="89.5" r="2.3" fill="#b9bdca" opacity="0.5"/><circle cx="428.7" cy="155.6" r="2.3" fill="#b9bdca" opacity="0.5"/><circle cx="428.8" cy="84.4" r="2.3" fill="#b9bdca" opacity="0.5"/><circle cx="439.4" cy="89.2" r="2.3" fill="#b9bdca" opacity="0.5"/><circle cx="439.6" cy="90.5" r="2.3" fill="#b9bdca" opacity="0.5"/><circle cx="442.6" cy="87.7" r="2.3" fill="#b9bdca" opacity="0.5"/><circle cx="443.6" cy="367.9" r="2.3" fill="#b9bdca" opacity="0.5"/><circle cx="447.9" cy="164.3" r="2.3" fill="#b9bdca" opacity="0.5"/><circle cx="450.0" cy="94.6" r="2.3" fill="#b9bdca" opacity="0.5"/><circle cx="450.9" cy="89.6" r="2.3" fill="#b9bdca" opacity="0.5"/><circle cx="460.0" cy="124.6" r="2.3" fill="#b9bdca" opacity="0.5"/><circle cx="469.7" cy="146.2" r="2.3" fill="#b9bdca" opacity="0.5"/><circle cx="470.0" cy="90.5" r="2.3" fill="#b9bdca" opacity="0.5"/><circle cx="470.9" cy="87.7" r="2.3" fill="#b9bdca" opacity="0.5"/><circle cx="471.4" cy="87.7" r="2.3" fill="#b9bdca" opacity="0.5"/><circle cx="471.4" cy="89.6" r="2.3" fill="#b9bdca" opacity="0.5"/><circle cx="478.4" cy="93.0" r="2.3" fill="#b9bdca" opacity="0.5"/><circle cx="480.8" cy="85.5" r="2.3" fill="#b9bdca" opacity="0.5"/><circle cx="501.3" cy="334.8" r="2.3" fill="#b9bdca" opacity="0.5"/><circle cx="503.7" cy="86.3" r="2.3" fill="#b9bdca" opacity="0.5"/><circle cx="510.6" cy="85.5" r="2.3" fill="#b9bdca" opacity="0.5"/><circle cx="511.8" cy="84.6" r="2.3" fill="#b9bdca" opacity="0.5"/><circle cx="514.7" cy="87.8" r="2.3" fill="#b9bdca" opacity="0.5"/><circle cx="515.8" cy="84.4" r="2.3" fill="#b9bdca" opacity="0.5"/><circle cx="516.5" cy="84.8" r="2.3" fill="#b9bdca" opacity="0.5"/><circle cx="518.5" cy="87.4" r="2.3" fill="#b9bdca" opacity="0.5"/><circle cx="529.6" cy="84.4" r="2.3" fill="#b9bdca" opacity="0.5"/><circle cx="577.9" cy="89.3" r="2.3" fill="#b9bdca" opacity="0.5"/><circle cx="586.6" cy="88.6" r="2.3" fill="#b9bdca" opacity="0.5"/><circle cx="586.6" cy="92.1" r="2.3" fill="#b9bdca" opacity="0.5"/><circle cx="588.5" cy="156.8" r="2.3" fill="#b9bdca" opacity="0.5"/><circle cx="616.3" cy="201.6" r="2.3" fill="#b9bdca" opacity="0.5"/><circle cx="636.6" cy="315.6" r="2.3" fill="#b9bdca" opacity="0.5"/><circle cx="692.3" cy="87.7" r="2.3" fill="#b9bdca" opacity="0.5"/><circle cx="709.2" cy="87.6" r="2.3" fill="#b9bdca" opacity="0.5"/><circle cx="724.1" cy="87.2" r="2.3" fill="#b9bdca" opacity="0.5"/><circle cx="727.6" cy="88.8" r="2.3" fill="#b9bdca" opacity="0.5"/><circle cx="728.9" cy="89.2" r="2.3" fill="#b9bdca" opacity="0.5"/><circle cx="729.6" cy="90.9" r="2.3" fill="#b9bdca" opacity="0.5"/><circle cx="733.9" cy="87.7" r="2.3" fill="#b9bdca" opacity="0.5"/><circle cx="749.0" cy="88.6" r="2.3" fill="#b9bdca" opacity="0.5"/><circle cx="750.9" cy="89.7" r="2.3" fill="#b9bdca" opacity="0.5"/><circle cx="752.2" cy="88.2" r="2.3" fill="#b9bdca" opacity="0.5"/><circle cx="780.4" cy="75.8" r="2.3" fill="#b9bdca" opacity="0.5"/><circle cx="782.6" cy="75.7" r="2.3" fill="#b9bdca" opacity="0.5"/><circle cx="784.2" cy="76.7" r="2.3" fill="#b9bdca" opacity="0.5"/><circle cx="784.4" cy="75.8" r="2.3" fill="#b9bdca" opacity="0.5"/><circle cx="785.2" cy="75.3" r="2.3" fill="#b9bdca" opacity="0.5"/><circle cx="785.7" cy="74.7" r="2.3" fill="#b9bdca" opacity="0.5"/><circle cx="785.9" cy="83.4" r="2.3" fill="#b9bdca" opacity="0.5"/><circle cx="786.6" cy="76.2" r="2.3" fill="#b9bdca" opacity="0.5"/><circle cx="787.3" cy="78.1" r="2.3" fill="#b9bdca" opacity="0.5"/><circle cx="788.0" cy="74.7" r="2.3" fill="#b9bdca" opacity="0.5"/><circle cx="792.6" cy="89.3" r="2.3" fill="#b9bdca" opacity="0.5"/><circle cx="802.1" cy="74.4" r="2.3" fill="#b9bdca" opacity="0.5"/><circle cx="817.0" cy="74.4" r="2.3" fill="#b9bdca" opacity="0.5"/><circle cx="819.5" cy="335.1" r="2.3" fill="#b9bdca" opacity="0.5"/><circle cx="819.5" cy="81.7" r="2.3" fill="#b9bdca" opacity="0.5"/><circle cx="821.3" cy="74.6" r="2.3" fill="#b9bdca" opacity="0.5"/><circle cx="821.3" cy="82.1" r="2.3" fill="#b9bdca" opacity="0.5"/><circle cx="821.4" cy="73.9" r="2.3" fill="#b9bdca" opacity="0.5"/><circle cx="825.6" cy="76.2" r="2.3" fill="#b9bdca" opacity="0.5"/><circle cx="826.3" cy="82.1" r="2.3" fill="#b9bdca" opacity="0.5"/><circle cx="826.9" cy="74.2" r="2.3" fill="#b9bdca" opacity="0.5"/><circle cx="827.0" cy="75.0" r="2.3" fill="#b9bdca" opacity="0.5"/><circle cx="827.9" cy="73.6" r="2.3" fill="#b9bdca" opacity="0.5"/><circle cx="827.9" cy="83.3" r="2.3" fill="#b9bdca" opacity="0.5"/><circle cx="827.9" cy="83.8" r="2.3" fill="#b9bdca" opacity="0.5"/><circle cx="828.0" cy="78.1" r="2.3" fill="#b9bdca" opacity="0.5"/><circle cx="828.0" cy="81.5" r="2.3" fill="#b9bdca" opacity="0.5"/><circle cx="828.0" cy="83.0" r="2.3" fill="#b9bdca" opacity="0.5"/><circle cx="828.0" cy="83.7" r="2.3" fill="#b9bdca" opacity="0.5"/><circle cx="833.9" cy="82.7" r="2.3" fill="#b9bdca" opacity="0.5"/><circle cx="835.2" cy="77.8" r="2.3" fill="#b9bdca" opacity="0.5"/><circle cx="838.3" cy="69.8" r="2.3" fill="#b9bdca" opacity="0.5"/><circle cx="839.3" cy="75.9" r="2.3" fill="#b9bdca" opacity="0.5"/><circle cx="839.7" cy="74.3" r="2.3" fill="#b9bdca" opacity="0.5"/><circle cx="839.7" cy="77.4" r="2.3" fill="#b9bdca" opacity="0.5"/><circle cx="839.7" cy="80.6" r="2.3" fill="#b9bdca" opacity="0.5"/><circle cx="839.7" cy="81.8" r="2.3" fill="#b9bdca" opacity="0.5"/><circle cx="841.9" cy="76.9" r="2.3" fill="#b9bdca" opacity="0.5"/><circle cx="841.9" cy="82.8" r="2.3" fill="#b9bdca" opacity="0.5"/><circle cx="841.9" cy="83.0" r="2.3" fill="#b9bdca" opacity="0.5"/><circle cx="841.9" cy="83.1" r="2.3" fill="#b9bdca" opacity="0.5"/><circle cx="842.8" cy="69.1" r="2.3" fill="#b9bdca" opacity="0.5"/><circle cx="845.3" cy="75.5" r="2.3" fill="#b9bdca" opacity="0.5"/><circle cx="846.7" cy="74.3" r="2.3" fill="#b9bdca" opacity="0.5"/><circle cx="884.6" cy="74.0" r="2.3" fill="#b9bdca" opacity="0.5"/><circle cx="929.6" cy="73.4" r="2.3" fill="#b9bdca" opacity="0.5"/><circle cx="930.0" cy="75.9" r="2.3" fill="#b9bdca" opacity="0.5"/><circle cx="930.0" cy="76.3" r="2.3" fill="#b9bdca" opacity="0.5"/><circle cx="930.3" cy="76.0" r="2.3" fill="#b9bdca" opacity="0.5"/><circle cx="930.3" cy="76.8" r="2.3" fill="#b9bdca" opacity="0.5"/><circle cx="930.3" cy="81.2" r="2.3" fill="#b9bdca" opacity="0.5"/><circle cx="930.3" cy="83.4" r="2.3" fill="#b9bdca" opacity="0.5"/><circle cx="962.2" cy="76.6" r="2.3" fill="#b9bdca" opacity="0.5"/><circle cx="964.3" cy="76.7" r="2.3" fill="#b9bdca" opacity="0.5"/><circle cx="964.3" cy="82.8" r="2.3" fill="#b9bdca" opacity="0.5"/><circle cx="964.3" cy="82.8" r="2.3" fill="#b9bdca" opacity="0.5"/><circle cx="964.3" cy="83.3" r="2.3" fill="#b9bdca" opacity="0.5"/><circle cx="971.0" cy="233.4" r="2.3" fill="#b9bdca" opacity="0.5"/><circle cx="972.9" cy="228.9" r="2.3" fill="#b9bdca" opacity="0.5"/><circle cx="974.9" cy="198.3" r="2.3" fill="#b9bdca" opacity="0.5"/><circle cx="1016.3" cy="73.4" r="2.3" fill="#b9bdca" opacity="0.5"/><circle cx="1027.9" cy="192.4" r="2.3" fill="#b9bdca" opacity="0.5"/><circle cx="1032.0" cy="75.3" r="2.3" fill="#b9bdca" opacity="0.5"/><path d="M250.9 152.3L254.5 155.9L250.9 159.5L247.3 155.9Z" fill="#2b3a7a" opacity="0.8" stroke="none" stroke-width="0"/><path d="M263.3 138.2L266.9 141.8L263.3 145.4L259.7 141.8Z" fill="#2b3a7a" opacity="0.8" stroke="none" stroke-width="0"/><path d="M264.9 128.1L268.5 131.7L264.9 135.3L261.3 131.7Z" fill="#2b3a7a" opacity="0.8" stroke="none" stroke-width="0"/><path d="M265.1 130.5L268.7 134.1L265.1 137.7L261.5 134.1Z" fill="#2b3a7a" opacity="0.8" stroke="none" stroke-width="0"/><path d="M266.5 127.3L270.1 130.9L266.5 134.5L262.9 130.9Z" fill="#2b3a7a" opacity="0.8" stroke="none" stroke-width="0"/><path d="M267.1 125.9L270.7 129.5L267.1 133.1L263.5 129.5Z" fill="#2b3a7a" opacity="0.8" stroke="none" stroke-width="0"/><path d="M267.1 127.3L270.7 130.9L267.1 134.5L263.5 130.9Z" fill="#2b3a7a" opacity="0.8" stroke="none" stroke-width="0"/><path d="M305.7 125.9L309.3 129.5L305.7 133.1L302.1 129.5Z" fill="#2b3a7a" opacity="0.8" stroke="none" stroke-width="0"/><path d="M311.4 125.3L315.0 128.9L311.4 132.5L307.8 128.9Z" fill="#2b3a7a" opacity="0.8" stroke="none" stroke-width="0"/><path d="M317.0 124.8L320.6 128.4L317.0 132.0L313.4 128.4Z" fill="#2b3a7a" opacity="0.8" stroke="none" stroke-width="0"/><path d="M320.8 124.6L324.4 128.2L320.8 131.8L317.2 128.2Z" fill="#2b3a7a" opacity="0.8" stroke="none" stroke-width="0"/><path d="M338.2 124.4L341.8 128.0L338.2 131.6L334.6 128.0Z" fill="#2b3a7a" opacity="0.8" stroke="none" stroke-width="0"/><path d="M356.4 109.2L360.0 112.8L356.4 116.4L352.8 112.8Z" fill="#2b3a7a" opacity="0.8" stroke="none" stroke-width="0"/><path d="M365.0 108.0L368.6 111.6L365.0 115.2L361.4 111.6Z" fill="#2b3a7a" opacity="0.8" stroke="none" stroke-width="0"/><path d="M367.5 101.9L371.1 105.5L367.5 109.1L363.9 105.5Z" fill="#2b3a7a" opacity="0.8" stroke="none" stroke-width="0"/><path d="M367.9 104.9L371.5 108.5L367.9 112.1L364.3 108.5Z" fill="#2b3a7a" opacity="0.8" stroke="none" stroke-width="0"/><path d="M369.0 101.5L372.6 105.1L369.0 108.7L365.4 105.1Z" fill="#2b3a7a" opacity="0.8" stroke="none" stroke-width="0"/><path d="M370.2 100.2L373.8 103.8L370.2 107.4L366.6 103.8Z" fill="#2b3a7a" opacity="0.8" stroke="none" stroke-width="0"/><path d="M382.7 99.9L386.3 103.5L382.7 107.1L379.1 103.5Z" fill="#2b3a7a" opacity="0.8" stroke="none" stroke-width="0"/><path d="M406.4 86.0L410.0 89.6L406.4 93.2L402.8 89.6Z" fill="#2b3a7a" opacity="0.8" stroke="none" stroke-width="0"/><path d="M410.5 85.7L414.1 89.3L410.5 92.9L406.9 89.3Z" fill="#2b3a7a" opacity="0.8" stroke="none" stroke-width="0"/><path d="M411.4 84.0L415.0 87.6L411.4 91.2L407.8 87.6Z" fill="#2b3a7a" opacity="0.8" stroke="none" stroke-width="0"/><path d="M415.6 81.8L419.2 85.4L415.6 89.0L412.0 85.4Z" fill="#2b3a7a" opacity="0.8" stroke="none" stroke-width="0"/><path d="M428.8 80.8L432.4 84.4L428.8 88.0L425.2 84.4Z" fill="#2b3a7a" opacity="0.8" stroke="none" stroke-width="0"/><path d="M529.6 80.8L533.2 84.4L529.6 88.0L526.0 84.4Z" fill="#2b3a7a" opacity="0.8" stroke="none" stroke-width="0"/><path d="M780.4 72.2L784.0 75.8L780.4 79.4L776.8 75.8Z" fill="#2b3a7a" opacity="0.8" stroke="none" stroke-width="0"/><path d="M782.6 72.1L786.2 75.7L782.6 79.3L779.0 75.7Z" fill="#2b3a7a" opacity="0.8" stroke="none" stroke-width="0"/><path d="M785.2 71.7L788.8 75.3L785.2 78.9L781.6 75.3Z" fill="#2b3a7a" opacity="0.8" stroke="none" stroke-width="0"/><path d="M785.7 71.1L789.3 74.7L785.7 78.3L782.1 74.7Z" fill="#2b3a7a" opacity="0.8" stroke="none" stroke-width="0"/><path d="M788.0 71.1L791.6 74.7L788.0 78.3L784.4 74.7Z" fill="#2b3a7a" opacity="0.8" stroke="none" stroke-width="0"/><path d="M802.1 70.8L805.7 74.4L802.1 78.0L798.5 74.4Z" fill="#2b3a7a" opacity="0.8" stroke="none" stroke-width="0"/><path d="M821.4 70.3L825.0 73.9L821.4 77.5L817.8 73.9Z" fill="#2b3a7a" opacity="0.8" stroke="none" stroke-width="0"/><path d="M827.9 70.0L831.5 73.6L827.9 77.2L824.3 73.6Z" fill="#2b3a7a" opacity="0.8" stroke="none" stroke-width="0"/><path d="M929.6 69.8L933.2 73.4L929.6 77.0L926.0 73.4Z" fill="#2b3a7a" opacity="0.8" stroke="none" stroke-width="0"/><path d="M1016.3 69.8L1019.9 73.4L1016.3 77.0L1012.7 73.4Z" fill="#2b3a7a" opacity="0.8" stroke="none" stroke-width="0"/><path d="M60.0 335.3L63.1 335.3L63.1 335.1L67.5 335.1L67.5 320.7L76.1 320.7L76.1 319.9L79.3 319.9L79.3 315.3L80.2 315.3L80.2 314.9L81.6 314.9L81.6 314.9L133.1 314.9L133.1 238.7L133.9 238.7L133.9 229.0L134.7 229.0L134.7 222.3L135.8 222.3L135.8 220.6L136.0 220.6L136.0 220.5L136.5 220.5L136.5 214.2L138.5 214.2L138.5 214.1L139.1 214.1L139.1 213.7L139.5 213.7L139.5 213.5L140.0 213.5L140.0 212.7L142.6 212.7L142.6 212.1L143.2 212.1L143.2 212.0L150.1 212.0L150.1 206.7L157.8 206.7L157.8 204.9L160.7 204.9L160.7 204.6L162.6 204.6L162.6 201.9L166.0 201.9L166.0 201.8L167.7 201.8L167.7 201.0L168.8 201.0L168.8 200.0L173.7 200.0L173.7 200.0L175.8 200.0L175.8 199.7L192.6 199.7L192.6 195.5L205.2 195.5L205.2 187.4L205.6 187.4L205.6 186.2L206.4 186.2L206.4 184.5L228.4 184.5L228.4 183.9L239.3 183.9L239.3 169.3L242.9 169.3L242.9 168.8L243.2 168.8L243.2 167.7L245.2 167.7L245.2 165.0L246.1 165.0L246.1 163.7L246.3 163.7L246.3 163.6L250.9 163.6L250.9 155.9L256.6 155.9L256.6 155.8L258.7 155.8L258.7 141.9L263.3 141.9L263.3 141.8L264.9 141.8L264.9 131.7L266.5 131.7L266.5 130.9L267.1 130.9L267.1 129.5L305.7 129.5L305.7 129.5L311.4 129.5L311.4 128.9L317.0 128.9L317.0 128.4L320.8 128.4L320.8 128.2L338.2 128.2L338.2 128.0L356.4 128.0L356.4 112.8L360.4 112.8L360.4 110.2L367.5 110.2L367.5 105.5L369.0 105.5L369.0 105.1L370.2 105.1L370.2 103.8L382.7 103.8L382.7 103.5L406.4 103.5L406.4 89.6L410.5 89.6L410.5 89.3L411.4 89.3L411.4 87.6L415.6 87.6L415.6 85.4L428.8 85.4L428.8 84.4L529.6 84.4L529.6 84.4L780.4 84.4L780.4 75.8L782.6 75.8L782.6 75.7L785.2 75.7L785.2 75.3L785.7 75.3L785.7 74.7L788.0 74.7L788.0 74.7L802.1 74.7L802.1 74.4L821.4 74.4L821.4 73.9L827.9 73.9L827.9 73.6L838.3 73.6L838.3 69.8L842.8 69.8L842.8 69.1L1032.0 69.1" fill="none" stroke="#6675b0" stroke-width="1.6" stroke-dasharray="5 3" opacity="0.75"/><path d="M250.9 155.9L263.3 155.9L263.3 141.8L264.9 141.8L264.9 131.7L266.5 131.7L266.5 130.9L267.1 130.9L267.1 129.5L305.7 129.5L305.7 129.5L311.4 129.5L311.4 128.9L317.0 128.9L317.0 128.4L320.8 128.4L320.8 128.2L338.2 128.2L338.2 128.0L356.4 128.0L356.4 112.8L365.0 112.8L365.0 111.6L367.5 111.6L367.5 105.5L369.0 105.5L369.0 105.1L370.2 105.1L370.2 103.8L382.7 103.8L382.7 103.5L406.4 103.5L406.4 89.6L410.5 89.6L410.5 89.3L411.4 89.3L411.4 87.6L415.6 87.6L415.6 85.4L428.8 85.4L428.8 84.4L529.6 84.4L529.6 84.4L780.4 84.4L780.4 75.8L782.6 75.8L782.6 75.7L785.2 75.7L785.2 75.3L785.7 75.3L785.7 74.7L788.0 74.7L788.0 74.7L802.1 74.7L802.1 74.4L821.4 74.4L821.4 73.9L827.9 73.9L827.9 73.6L838.3 73.6L838.3 73.5L929.6 73.5L929.6 73.4L1016.3 73.4L1016.3 73.4L1032.0 73.4" fill="none" stroke="#2b3a7a" stroke-width="2.6"/><path d="M699.1 246.9L705.6 253.4L699.1 259.9L692.6 253.4Z" fill="#c5961a" opacity="1.0" stroke="#ffffff" stroke-width="1.4"/><path d="M823.9 206.5L830.4 213.0L823.9 219.5L817.4 213.0Z" fill="#c5961a" opacity="1.0" stroke="#ffffff" stroke-width="1.4"/><path d="M838.3 67.0L844.8 73.5L838.3 80.0L831.8 73.5Z" fill="#c5961a" opacity="1.0" stroke="#ffffff" stroke-width="1.4"/><path d="M945.3 240.8L951.8 247.3L945.3 253.8L938.8 247.3Z" fill="#c5961a" opacity="1.0" stroke="#ffffff" stroke-width="1.4"/><path d="M946.1 238.0L952.6 244.5L946.1 251.0L939.6 244.5Z" fill="#c5961a" opacity="1.0" stroke="#ffffff" stroke-width="1.4"/><text x="1042" y="67.1" font-size="11.5" fill="#6675b0">– – raw best 513.8</text><text x="1042" y="81.1" font-size="10" fill="#8a8fa3">unverified (pending)</text><path d="M1016.3 66.9L1022.8 73.4L1016.3 79.9L1009.8 73.4Z" fill="#2b3a7a" opacity="1.0" stroke="#ffffff" stroke-width="1.4"/><text x="1042" y="101.4" font-size="12.5" fill="#2b3a7a" font-weight="bold">◆ verified 507.0</text><text x="1042" y="117.4" font-size="10.5" fill="#3a3f55">top verified</text><text x="60" y="24" font-size="13" font-weight="bold" fill="#3a3f55" letter-spacing="1.2">SCORE EVOLUTION — gemma-challenge (tok/s)</text><circle cx="452" cy="20" r="3" fill="#b9bdca"/><text x="460" y="24" font-size="10.5" fill="#8a8fa3">all results</text><path d="M544.0 16.4L547.6 20.0L544.0 23.6L540.4 20.0Z" fill="#2b3a7a" opacity="1.0" stroke="none" stroke-width="0"/><text x="552" y="24" font-size="10.5" fill="#8a8fa3">verified</text><path d="M620.0 15.5L624.5 20.0L620.0 24.5L615.5 20.0Z" fill="#c5961a" opacity="1.0" stroke="#fff" stroke-width="1"/><text x="629" y="24" font-size="10.5" fill="#8a8fa3">mikasa-inbound (us)</text></svg>