<svg viewBox="0 0 1200 440" xmlns="http://www.w3.org/2000/svg" font-family="ui-sans-serif,system-ui,-apple-system,sans-serif"><rect x="0" y="0" width="1200" height="440" fill="#ffffff"/><rect x="60" y="46" width="972" height="350" fill="#f3f4fb"/><line x1="60" y1="396.0" x2="1032" y2="396.0" stroke="#e3e5ef" stroke-width="1"/><text x="52" y="400.0" text-anchor="end" font-size="11" fill="#8a8fa3">0</text><line x1="60" y1="332.4" x2="1032" y2="332.4" stroke="#e3e5ef" stroke-width="1"/><text x="52" y="336.4" text-anchor="end" font-size="11" fill="#8a8fa3">100</text><line x1="60" y1="268.7" x2="1032" y2="268.7" stroke="#e3e5ef" stroke-width="1"/><text x="52" y="272.7" text-anchor="end" font-size="11" fill="#8a8fa3">200</text><line x1="60" y1="205.1" x2="1032" y2="205.1" stroke="#e3e5ef" stroke-width="1"/><text x="52" y="209.1" text-anchor="end" font-size="11" fill="#8a8fa3">300</text><line x1="60" y1="141.5" x2="1032" y2="141.5" stroke="#e3e5ef" stroke-width="1"/><text x="52" y="145.5" text-anchor="end" font-size="11" fill="#8a8fa3">400</text><line x1="60" y1="77.8" x2="1032" y2="77.8" stroke="#e3e5ef" stroke-width="1"/><text x="52" y="81.8" text-anchor="end" font-size="11" fill="#8a8fa3">500</text><line x1="109.5" y1="46" x2="109.5" y2="396" stroke="#e3e5ef" stroke-width="1"/><text x="109.5" y="414.0" text-anchor="middle" font-size="11" fill="#8a8fa3">Jun 10</text><line x1="180.0" y1="46" x2="180.0" y2="396" stroke="#e3e5ef" stroke-width="1"/><text x="180.0" y="414.0" text-anchor="middle" font-size="11" fill="#8a8fa3">Jun 12</text><line x1="250.6" y1="46" x2="250.6" y2="396" stroke="#e3e5ef" stroke-width="1"/><text x="250.6" y="414.0" text-anchor="middle" font-size="11" fill="#8a8fa3">Jun 14</text><line x1="321.1" y1="46" x2="321.1" y2="396" stroke="#e3e5ef" stroke-width="1"/><text x="321.1" y="414.0" text-anchor="middle" font-size="11" fill="#8a8fa3">Jun 16</text><line x1="391.7" y1="46" x2="391.7" y2="396" stroke="#e3e5ef" stroke-width="1"/><text x="391.7" y="414.0" text-anchor="middle" font-size="11" fill="#8a8fa3">Jun 18</text><line x1="462.3" y1="46" x2="462.3" y2="396" stroke="#e3e5ef" stroke-width="1"/><text x="462.3" y="414.0" text-anchor="middle" font-size="11" fill="#8a8fa3">Jun 20</text><line x1="532.8" y1="46" x2="532.8" y2="396" stroke="#e3e5ef" stroke-width="1"/><text x="532.8" y="414.0" text-anchor="middle" font-size="11" fill="#8a8fa3">Jun 22</text><line x1="603.4" y1="46" x2="603.4" y2="396" stroke="#e3e5ef" stroke-width="1"/><text x="603.4" y="414.0" text-anchor="middle" font-size="11" fill="#8a8fa3">Jun 24</text><line x1="674.0" y1="46" x2="674.0" y2="396" stroke="#e3e5ef" stroke-width="1"/><text x="674.0" y="414.0" text-anchor="middle" font-size="11" fill="#8a8fa3">Jun 26</text><line x1="744.5" y1="46" x2="744.5" y2="396" stroke="#e3e5ef" stroke-width="1"/><text x="744.5" y="414.0" text-anchor="middle" font-size="11" fill="#8a8fa3">Jun 28</text><line x1="815.1" y1="46" x2="815.1" y2="396" stroke="#e3e5ef" stroke-width="1"/><text x="815.1" y="414.0" text-anchor="middle" font-size="11" fill="#8a8fa3">Jun 30</text><line x1="885.6" y1="46" x2="885.6" y2="396" stroke="#e3e5ef" stroke-width="1"/><text x="885.6" y="414.0" text-anchor="middle" font-size="11" fill="#8a8fa3">Jul 2</text><line x1="956.2" y1="46" x2="956.2" y2="396" stroke="#e3e5ef" stroke-width="1"/><text x="956.2" y="414.0" text-anchor="middle" font-size="11" fill="#8a8fa3">Jul 4</text><line x1="1026.8" y1="46" x2="1026.8" y2="396" stroke="#e3e5ef" stroke-width="1"/><text x="1026.8" y="414.0" text-anchor="middle" font-size="11" fill="#8a8fa3">Jul 6</text><circle cx="60.0" cy="335.3" r="2.3" fill="#b9bdca" opacity="0.5"/><circle cx="61.7" cy="335.1" r="2.3" fill="#b9bdca" opacity="0.5"/><circle cx="63.4" cy="368.0" r="2.3" fill="#b9bdca" opacity="0.5"/><circle cx="64.1" cy="320.7" r="2.3" fill="#b9bdca" opacity="0.5"/><circle cx="68.8" cy="319.9" r="2.3" fill="#b9bdca" opacity="0.5"/><circle cx="69.0" cy="320.6" r="2.3" fill="#b9bdca" opacity="0.5"/><circle cx="70.5" cy="315.3" r="2.3" fill="#b9bdca" opacity="0.5"/><circle cx="70.9" cy="319.7" r="2.3" fill="#b9bdca" opacity="0.5"/><circle cx="71.0" cy="314.9" r="2.3" fill="#b9bdca" opacity="0.5"/><circle cx="71.6" cy="315.5" r="2.3" fill="#b9bdca" opacity="0.5"/><circle cx="71.8" cy="314.9" r="2.3" fill="#b9bdca" opacity="0.5"/><circle cx="72.2" cy="315.4" r="2.3" fill="#b9bdca" opacity="0.5"/><circle cx="73.1" cy="315.0" r="2.3" fill="#b9bdca" opacity="0.5"/><circle cx="99.8" cy="238.7" r="2.3" fill="#b9bdca" opacity="0.5"/><circle cx="100.1" cy="315.0" r="2.3" fill="#b9bdca" opacity="0.5"/><circle cx="100.3" cy="229.0" r="2.3" fill="#b9bdca" opacity="0.5"/><circle cx="100.7" cy="222.3" r="2.3" fill="#b9bdca" opacity="0.5"/><circle cx="101.2" cy="228.0" r="2.3" fill="#b9bdca" opacity="0.5"/><circle cx="101.2" cy="223.3" r="2.3" fill="#b9bdca" opacity="0.5"/><circle cx="101.3" cy="220.6" r="2.3" fill="#b9bdca" opacity="0.5"/><circle cx="101.4" cy="220.5" r="2.3" fill="#b9bdca" opacity="0.5"/><circle cx="101.5" cy="223.2" r="2.3" fill="#b9bdca" opacity="0.5"/><circle cx="101.7" cy="214.2" r="2.3" fill="#b9bdca" opacity="0.5"/><circle cx="101.8" cy="222.1" r="2.3" fill="#b9bdca" opacity="0.5"/><circle cx="102.0" cy="220.7" r="2.3" fill="#b9bdca" opacity="0.5"/><circle cx="102.3" cy="218.5" r="2.3" fill="#b9bdca" opacity="0.5"/><circle cx="102.4" cy="215.2" r="2.3" fill="#b9bdca" opacity="0.5"/><circle cx="102.6" cy="214.3" r="2.3" fill="#b9bdca" opacity="0.5"/><circle cx="102.6" cy="219.2" r="2.3" fill="#b9bdca" opacity="0.5"/><circle cx="102.8" cy="214.1" r="2.3" fill="#b9bdca" opacity="0.5"/><circle cx="102.9" cy="215.2" r="2.3" fill="#b9bdca" opacity="0.5"/><circle cx="103.1" cy="213.7" r="2.3" fill="#b9bdca" opacity="0.5"/><circle cx="103.3" cy="213.5" r="2.3" fill="#b9bdca" opacity="0.5"/><circle cx="103.5" cy="214.8" r="2.3" fill="#b9bdca" opacity="0.5"/><circle cx="103.5" cy="217.7" r="2.3" fill="#b9bdca" opacity="0.5"/><circle cx="103.6" cy="212.7" r="2.3" fill="#b9bdca" opacity="0.5"/><circle cx="104.1" cy="213.3" r="2.3" fill="#b9bdca" opacity="0.5"/><circle cx="104.5" cy="212.7" r="2.3" fill="#b9bdca" opacity="0.5"/><circle cx="104.5" cy="213.6" r="2.3" fill="#b9bdca" opacity="0.5"/><circle cx="104.7" cy="213.0" r="2.3" fill="#b9bdca" opacity="0.5"/><circle cx="105.0" cy="212.1" r="2.3" fill="#b9bdca" opacity="0.5"/><circle cx="105.1" cy="213.3" r="2.3" fill="#b9bdca" opacity="0.5"/><circle cx="105.4" cy="212.0" r="2.3" fill="#b9bdca" opacity="0.5"/><circle cx="105.9" cy="212.1" r="2.3" fill="#b9bdca" opacity="0.5"/><circle cx="105.9" cy="212.8" r="2.3" fill="#b9bdca" opacity="0.5"/><circle cx="109.1" cy="206.7" r="2.3" fill="#b9bdca" opacity="0.5"/><circle cx="109.6" cy="206.8" r="2.3" fill="#b9bdca" opacity="0.5"/><circle cx="109.6" cy="212.5" r="2.3" fill="#b9bdca" opacity="0.5"/><circle cx="109.8" cy="207.2" r="2.3" fill="#b9bdca" opacity="0.5"/><circle cx="110.9" cy="207.0" r="2.3" fill="#b9bdca" opacity="0.5"/><circle cx="113.3" cy="204.9" r="2.3" fill="#b9bdca" opacity="0.5"/><circle cx="114.9" cy="204.6" r="2.3" fill="#b9bdca" opacity="0.5"/><circle cx="115.0" cy="212.3" r="2.3" fill="#b9bdca" opacity="0.5"/><circle cx="115.3" cy="204.6" r="2.3" fill="#b9bdca" opacity="0.5"/><circle cx="115.3" cy="204.6" r="2.3" fill="#b9bdca" opacity="0.5"/><circle cx="115.3" cy="204.9" r="2.3" fill="#b9bdca" opacity="0.5"/><circle cx="115.3" cy="204.9" r="2.3" fill="#b9bdca" opacity="0.5"/><circle cx="115.9" cy="201.9" r="2.3" fill="#b9bdca" opacity="0.5"/><circle cx="116.9" cy="206.5" r="2.3" fill="#b9bdca" opacity="0.5"/><circle cx="117.3" cy="205.8" r="2.3" fill="#b9bdca" opacity="0.5"/><circle cx="117.3" cy="335.1" r="2.3" fill="#b9bdca" opacity="0.5"/><circle cx="117.8" cy="201.8" r="2.3" fill="#b9bdca" opacity="0.5"/><circle cx="117.8" cy="202.2" r="2.3" fill="#b9bdca" opacity="0.5"/><circle cx="118.7" cy="201.0" r="2.3" fill="#b9bdca" opacity="0.5"/><circle cx="119.1" cy="203.1" r="2.3" fill="#b9bdca" opacity="0.5"/><circle cx="119.3" cy="200.0" r="2.3" fill="#b9bdca" opacity="0.5"/><circle cx="119.3" cy="204.6" r="2.3" fill="#b9bdca" opacity="0.5"/><circle cx="119.9" cy="202.3" r="2.3" fill="#b9bdca" opacity="0.5"/><circle cx="121.1" cy="200.4" r="2.3" fill="#b9bdca" opacity="0.5"/><circle cx="121.5" cy="200.7" r="2.3" fill="#b9bdca" opacity="0.5"/><circle cx="122.0" cy="200.0" r="2.3" fill="#b9bdca" opacity="0.5"/><circle cx="123.1" cy="199.7" r="2.3" fill="#b9bdca" opacity="0.5"/><circle cx="129.9" cy="200.6" r="2.3" fill="#b9bdca" opacity="0.5"/><circle cx="130.4" cy="201.8" r="2.3" fill="#b9bdca" opacity="0.5"/><circle cx="131.3" cy="208.4" r="2.3" fill="#b9bdca" opacity="0.5"/><circle cx="131.4" cy="200.8" r="2.3" fill="#b9bdca" opacity="0.5"/><circle cx="132.1" cy="200.7" r="2.3" fill="#b9bdca" opacity="0.5"/><circle cx="132.1" cy="201.9" r="2.3" fill="#b9bdca" opacity="0.5"/><circle cx="132.3" cy="195.5" r="2.3" fill="#b9bdca" opacity="0.5"/><circle cx="132.9" cy="196.9" r="2.3" fill="#b9bdca" opacity="0.5"/><circle cx="133.2" cy="197.9" r="2.3" fill="#b9bdca" opacity="0.5"/><circle cx="133.8" cy="196.1" r="2.3" fill="#b9bdca" opacity="0.5"/><circle cx="135.9" cy="197.3" r="2.3" fill="#b9bdca" opacity="0.5"/><circle cx="136.5" cy="195.9" r="2.3" fill="#b9bdca" opacity="0.5"/><circle cx="136.7" cy="201.0" r="2.3" fill="#b9bdca" opacity="0.5"/><circle cx="136.8" cy="197.5" r="2.3" fill="#b9bdca" opacity="0.5"/><circle cx="137.3" cy="196.9" r="2.3" fill="#b9bdca" opacity="0.5"/><circle cx="137.3" cy="197.1" r="2.3" fill="#b9bdca" opacity="0.5"/><circle cx="137.4" cy="197.0" r="2.3" fill="#b9bdca" opacity="0.5"/><circle cx="137.8" cy="196.0" r="2.3" fill="#b9bdca" opacity="0.5"/><circle cx="137.8" cy="196.0" r="2.3" fill="#b9bdca" opacity="0.5"/><circle cx="137.9" cy="197.9" r="2.3" fill="#b9bdca" opacity="0.5"/><circle cx="138.2" cy="197.8" r="2.3" fill="#b9bdca" opacity="0.5"/><circle cx="138.5" cy="196.2" r="2.3" fill="#b9bdca" opacity="0.5"/><circle cx="138.5" cy="197.5" r="2.3" fill="#b9bdca" opacity="0.5"/><circle cx="138.6" cy="196.9" r="2.3" fill="#b9bdca" opacity="0.5"/><circle cx="138.7" cy="195.5" r="2.3" fill="#b9bdca" opacity="0.5"/><circle cx="139.1" cy="198.1" r="2.3" fill="#b9bdca" opacity="0.5"/><circle cx="139.2" cy="187.4" r="2.3" fill="#b9bdca" opacity="0.5"/><circle cx="139.4" cy="186.2" r="2.3" fill="#b9bdca" opacity="0.5"/><circle cx="139.4" cy="196.3" r="2.3" fill="#b9bdca" opacity="0.5"/><circle cx="139.4" cy="197.2" r="2.3" fill="#b9bdca" opacity="0.5"/><circle cx="139.4" cy="197.8" r="2.3" fill="#b9bdca" opacity="0.5"/><circle cx="139.4" cy="368.0" r="2.3" fill="#b9bdca" opacity="0.5"/><circle cx="139.8" cy="184.5" r="2.3" fill="#b9bdca" opacity="0.5"/><circle cx="141.6" cy="184.6" r="2.3" fill="#b9bdca" opacity="0.5"/><circle cx="142.4" cy="185.6" r="2.3" fill="#b9bdca" opacity="0.5"/><circle cx="145.1" cy="188.7" r="2.3" fill="#b9bdca" opacity="0.5"/><circle cx="148.6" cy="185.4" r="2.3" fill="#b9bdca" opacity="0.5"/><circle cx="149.4" cy="185.2" r="2.3" fill="#b9bdca" opacity="0.5"/><circle cx="149.7" cy="186.6" r="2.3" fill="#b9bdca" opacity="0.5"/><circle cx="149.8" cy="185.3" r="2.3" fill="#b9bdca" opacity="0.5"/><circle cx="150.4" cy="185.3" r="2.3" fill="#b9bdca" opacity="0.5"/><circle cx="150.7" cy="185.0" r="2.3" fill="#b9bdca" opacity="0.5"/><circle cx="151.3" cy="184.9" r="2.3" fill="#b9bdca" opacity="0.5"/><circle cx="151.7" cy="185.1" r="2.3" fill="#b9bdca" opacity="0.5"/><circle cx="151.7" cy="185.2" r="2.3" fill="#b9bdca" opacity="0.5"/><circle cx="151.7" cy="186.4" r="2.3" fill="#b9bdca" opacity="0.5"/><circle cx="151.8" cy="183.9" r="2.3" fill="#b9bdca" opacity="0.5"/><circle cx="155.1" cy="184.4" r="2.3" fill="#b9bdca" opacity="0.5"/><circle cx="155.6" cy="184.2" r="2.3" fill="#b9bdca" opacity="0.5"/><circle cx="157.7" cy="169.3" r="2.3" fill="#b9bdca" opacity="0.5"/><circle cx="159.7" cy="168.8" r="2.3" fill="#b9bdca" opacity="0.5"/><circle cx="159.9" cy="167.7" r="2.3" fill="#b9bdca" opacity="0.5"/><circle cx="160.7" cy="201.4" r="2.3" fill="#b9bdca" opacity="0.5"/><circle cx="161.0" cy="165.0" r="2.3" fill="#b9bdca" opacity="0.5"/><circle cx="161.1" cy="198.2" r="2.3" fill="#b9bdca" opacity="0.5"/><circle cx="161.4" cy="163.7" r="2.3" fill="#b9bdca" opacity="0.5"/><circle cx="161.6" cy="163.6" r="2.3" fill="#b9bdca" opacity="0.5"/><circle cx="161.9" cy="165.9" r="2.3" fill="#b9bdca" opacity="0.5"/><circle cx="163.7" cy="165.1" r="2.3" fill="#b9bdca" opacity="0.5"/><circle cx="164.1" cy="155.9" r="2.3" fill="#b9bdca" opacity="0.5"/><circle cx="165.8" cy="196.5" r="2.3" fill="#b9bdca" opacity="0.5"/><circle cx="166.5" cy="157.4" r="2.3" fill="#b9bdca" opacity="0.5"/><circle cx="167.2" cy="155.8" r="2.3" fill="#b9bdca" opacity="0.5"/><circle cx="168.3" cy="141.9" r="2.3" fill="#b9bdca" opacity="0.5"/><circle cx="170.7" cy="156.1" r="2.3" fill="#b9bdca" opacity="0.5"/><circle cx="170.7" cy="156.4" r="2.3" fill="#b9bdca" opacity="0.5"/><circle cx="170.8" cy="141.8" r="2.3" fill="#b9bdca" opacity="0.5"/><circle cx="170.9" cy="196.0" r="2.3" fill="#b9bdca" opacity="0.5"/><circle cx="171.7" cy="131.7" r="2.3" fill="#b9bdca" opacity="0.5"/><circle cx="171.8" cy="134.1" r="2.3" fill="#b9bdca" opacity="0.5"/><circle cx="172.1" cy="141.1" r="2.3" fill="#b9bdca" opacity="0.5"/><circle cx="172.5" cy="134.0" r="2.3" fill="#b9bdca" opacity="0.5"/><circle cx="172.6" cy="130.9" r="2.3" fill="#b9bdca" opacity="0.5"/><circle cx="172.6" cy="154.2" r="2.3" fill="#b9bdca" opacity="0.5"/><circle cx="172.7" cy="133.6" r="2.3" fill="#b9bdca" opacity="0.5"/><circle cx="172.9" cy="129.5" r="2.3" fill="#b9bdca" opacity="0.5"/><circle cx="172.9" cy="130.9" r="2.3" fill="#b9bdca" opacity="0.5"/><circle cx="172.9" cy="133.4" r="2.3" fill="#b9bdca" opacity="0.5"/><circle cx="173.1" cy="131.2" r="2.3" fill="#b9bdca" opacity="0.5"/><circle cx="174.6" cy="189.8" r="2.3" fill="#b9bdca" opacity="0.5"/><circle cx="174.6" cy="133.2" r="2.3" fill="#b9bdca" opacity="0.5"/><circle cx="174.9" cy="133.5" r="2.3" fill="#b9bdca" opacity="0.5"/><circle cx="175.4" cy="130.1" r="2.3" fill="#b9bdca" opacity="0.5"/><circle cx="176.8" cy="130.3" r="2.3" fill="#b9bdca" opacity="0.5"/><circle cx="177.5" cy="303.1" r="2.3" fill="#b9bdca" opacity="0.5"/><circle cx="178.7" cy="133.2" r="2.3" fill="#b9bdca" opacity="0.5"/><circle cx="180.2" cy="144.2" r="2.3" fill="#b9bdca" opacity="0.5"/><circle cx="180.6" cy="135.3" r="2.3" fill="#b9bdca" opacity="0.5"/><circle cx="181.6" cy="133.4" r="2.3" fill="#b9bdca" opacity="0.5"/><circle cx="181.7" cy="159.9" r="2.3" fill="#b9bdca" opacity="0.5"/><circle cx="181.9" cy="130.8" r="2.3" fill="#b9bdca" opacity="0.5"/><circle cx="182.3" cy="133.2" r="2.3" fill="#b9bdca" opacity="0.5"/><circle cx="185.9" cy="130.9" r="2.3" fill="#b9bdca" opacity="0.5"/><circle cx="186.3" cy="130.9" r="2.3" fill="#b9bdca" opacity="0.5"/><circle cx="186.3" cy="133.8" r="2.3" fill="#b9bdca" opacity="0.5"/><circle cx="186.9" cy="130.4" r="2.3" fill="#b9bdca" opacity="0.5"/><circle cx="187.3" cy="153.7" r="2.3" fill="#b9bdca" opacity="0.5"/><circle cx="187.9" cy="133.3" r="2.3" fill="#b9bdca" opacity="0.5"/><circle cx="189.0" cy="156.5" r="2.3" fill="#b9bdca" opacity="0.5"/><circle cx="189.3" cy="132.3" r="2.3" fill="#b9bdca" opacity="0.5"/><circle cx="190.6" cy="147.2" r="2.3" fill="#b9bdca" opacity="0.5"/><circle cx="190.8" cy="133.6" r="2.3" fill="#b9bdca" opacity="0.5"/><circle cx="191.3" cy="129.5" r="2.3" fill="#b9bdca" opacity="0.5"/><circle cx="191.3" cy="133.3" r="2.3" fill="#b9bdca" opacity="0.5"/><circle cx="192.9" cy="133.3" r="2.3" fill="#b9bdca" opacity="0.5"/><circle cx="193.9" cy="129.5" r="2.3" fill="#b9bdca" opacity="0.5"/><circle cx="195.7" cy="130.6" r="2.3" fill="#b9bdca" opacity="0.5"/><circle cx="197.1" cy="128.9" r="2.3" fill="#b9bdca" opacity="0.5"/><circle cx="197.3" cy="132.7" r="2.3" fill="#b9bdca" opacity="0.5"/><circle cx="197.3" cy="133.1" r="2.3" fill="#b9bdca" opacity="0.5"/><circle cx="199.4" cy="129.8" r="2.3" fill="#b9bdca" opacity="0.5"/><circle cx="199.9" cy="333.8" r="2.3" fill="#b9bdca" opacity="0.5"/><circle cx="200.1" cy="128.4" r="2.3" fill="#b9bdca" opacity="0.5"/><circle cx="201.0" cy="129.8" r="2.3" fill="#b9bdca" opacity="0.5"/><circle cx="201.4" cy="128.9" r="2.3" fill="#b9bdca" opacity="0.5"/><circle cx="201.5" cy="128.9" r="2.3" fill="#b9bdca" opacity="0.5"/><circle cx="202.2" cy="128.2" r="2.3" fill="#b9bdca" opacity="0.5"/><circle cx="202.7" cy="129.7" r="2.3" fill="#b9bdca" opacity="0.5"/><circle cx="202.9" cy="142.3" r="2.3" fill="#b9bdca" opacity="0.5"/><circle cx="204.8" cy="128.8" r="2.3" fill="#b9bdca" opacity="0.5"/><circle cx="205.9" cy="161.1" r="2.3" fill="#b9bdca" opacity="0.5"/><circle cx="208.1" cy="164.4" r="2.3" fill="#b9bdca" opacity="0.5"/><circle cx="208.3" cy="248.3" r="2.3" fill="#b9bdca" opacity="0.5"/><circle cx="211.4" cy="135.4" r="2.3" fill="#b9bdca" opacity="0.5"/><circle cx="211.7" cy="128.0" r="2.3" fill="#b9bdca" opacity="0.5"/><circle cx="212.6" cy="229.0" r="2.3" fill="#b9bdca" opacity="0.5"/><circle cx="214.8" cy="128.1" r="2.3" fill="#b9bdca" opacity="0.5"/><circle cx="215.3" cy="128.6" r="2.3" fill="#b9bdca" opacity="0.5"/><circle cx="217.3" cy="128.8" r="2.3" fill="#b9bdca" opacity="0.5"/><circle cx="217.3" cy="129.6" r="2.3" fill="#b9bdca" opacity="0.5"/><circle cx="217.3" cy="130.9" r="2.3" fill="#b9bdca" opacity="0.5"/><circle cx="221.6" cy="112.8" r="2.3" fill="#b9bdca" opacity="0.5"/><circle cx="223.8" cy="110.2" r="2.3" fill="#b9bdca" opacity="0.5"/><circle cx="223.9" cy="111.6" r="2.3" fill="#b9bdca" opacity="0.5"/><circle cx="225.2" cy="111.0" r="2.3" fill="#b9bdca" opacity="0.5"/><circle cx="225.9" cy="335.1" r="2.3" fill="#b9bdca" opacity="0.5"/><circle cx="226.3" cy="111.6" r="2.3" fill="#b9bdca" opacity="0.5"/><circle cx="227.7" cy="105.5" r="2.3" fill="#b9bdca" opacity="0.5"/><circle cx="227.9" cy="108.5" r="2.3" fill="#b9bdca" opacity="0.5"/><circle cx="228.5" cy="105.1" r="2.3" fill="#b9bdca" opacity="0.5"/><circle cx="229.1" cy="103.8" r="2.3" fill="#b9bdca" opacity="0.5"/><circle cx="229.8" cy="125.8" r="2.3" fill="#b9bdca" opacity="0.5"/><circle cx="235.9" cy="103.5" r="2.3" fill="#b9bdca" opacity="0.5"/><circle cx="237.5" cy="127.8" r="2.3" fill="#b9bdca" opacity="0.5"/><circle cx="238.2" cy="334.3" r="2.3" fill="#b9bdca" opacity="0.5"/><circle cx="239.1" cy="128.6" r="2.3" fill="#b9bdca" opacity="0.5"/><circle cx="239.6" cy="128.6" r="2.3" fill="#b9bdca" opacity="0.5"/><circle cx="239.7" cy="128.6" r="2.3" fill="#b9bdca" opacity="0.5"/><circle cx="240.2" cy="256.6" r="2.3" fill="#b9bdca" opacity="0.5"/><circle cx="240.9" cy="254.6" r="2.3" fill="#b9bdca" opacity="0.5"/><circle cx="242.1" cy="128.6" r="2.3" fill="#b9bdca" opacity="0.5"/><circle cx="244.9" cy="250.1" r="2.3" fill="#b9bdca" opacity="0.5"/><circle cx="245.1" cy="161.4" r="2.3" fill="#b9bdca" opacity="0.5"/><circle cx="245.4" cy="206.6" r="2.3" fill="#b9bdca" opacity="0.5"/><circle cx="248.0" cy="113.5" r="2.3" fill="#b9bdca" opacity="0.5"/><circle cx="248.8" cy="89.6" r="2.3" fill="#b9bdca" opacity="0.5"/><circle cx="249.5" cy="90.2" r="2.3" fill="#b9bdca" opacity="0.5"/><circle cx="251.1" cy="89.3" r="2.3" fill="#b9bdca" opacity="0.5"/><circle cx="251.5" cy="87.6" r="2.3" fill="#b9bdca" opacity="0.5"/><circle cx="252.1" cy="185.0" r="2.3" fill="#b9bdca" opacity="0.5"/><circle cx="252.7" cy="131.6" r="2.3" fill="#b9bdca" opacity="0.5"/><circle cx="253.1" cy="87.8" r="2.3" fill="#b9bdca" opacity="0.5"/><circle cx="253.8" cy="85.4" r="2.3" fill="#b9bdca" opacity="0.5"/><circle cx="255.0" cy="86.8" r="2.3" fill="#b9bdca" opacity="0.5"/><circle cx="256.2" cy="88.4" r="2.3" fill="#b9bdca" opacity="0.5"/><circle cx="261.0" cy="89.5" r="2.3" fill="#b9bdca" opacity="0.5"/><circle cx="261.0" cy="155.6" r="2.3" fill="#b9bdca" opacity="0.5"/><circle cx="261.1" cy="84.4" r="2.3" fill="#b9bdca" opacity="0.5"/><circle cx="266.8" cy="89.2" r="2.3" fill="#b9bdca" opacity="0.5"/><circle cx="266.9" cy="90.5" r="2.3" fill="#b9bdca" opacity="0.5"/><circle cx="268.6" cy="87.7" r="2.3" fill="#b9bdca" opacity="0.5"/><circle cx="269.1" cy="367.9" r="2.3" fill="#b9bdca" opacity="0.5"/><circle cx="271.5" cy="164.3" r="2.3" fill="#b9bdca" opacity="0.5"/><circle cx="272.6" cy="94.6" r="2.3" fill="#b9bdca" opacity="0.5"/><circle cx="273.1" cy="89.6" r="2.3" fill="#b9bdca" opacity="0.5"/><circle cx="278.1" cy="124.6" r="2.3" fill="#b9bdca" opacity="0.5"/><circle cx="283.4" cy="146.2" r="2.3" fill="#b9bdca" opacity="0.5"/><circle cx="283.5" cy="90.5" r="2.3" fill="#b9bdca" opacity="0.5"/><circle cx="284.0" cy="87.7" r="2.3" fill="#b9bdca" opacity="0.5"/><circle cx="284.3" cy="87.7" r="2.3" fill="#b9bdca" opacity="0.5"/><circle cx="284.3" cy="89.6" r="2.3" fill="#b9bdca" opacity="0.5"/><circle cx="288.1" cy="93.0" r="2.3" fill="#b9bdca" opacity="0.5"/><circle cx="289.4" cy="85.5" r="2.3" fill="#b9bdca" opacity="0.5"/><circle cx="300.6" cy="334.8" r="2.3" fill="#b9bdca" opacity="0.5"/><circle cx="301.9" cy="86.3" r="2.3" fill="#b9bdca" opacity="0.5"/><circle cx="305.6" cy="85.5" r="2.3" fill="#b9bdca" opacity="0.5"/><circle cx="306.3" cy="84.6" r="2.3" fill="#b9bdca" opacity="0.5"/><circle cx="307.9" cy="87.8" r="2.3" fill="#b9bdca" opacity="0.5"/><circle cx="308.5" cy="84.4" r="2.3" fill="#b9bdca" opacity="0.5"/><circle cx="308.9" cy="84.8" r="2.3" fill="#b9bdca" opacity="0.5"/><circle cx="310.0" cy="87.4" r="2.3" fill="#b9bdca" opacity="0.5"/><circle cx="316.0" cy="84.4" r="2.3" fill="#b9bdca" opacity="0.5"/><circle cx="342.3" cy="89.3" r="2.3" fill="#b9bdca" opacity="0.5"/><circle cx="347.1" cy="88.6" r="2.3" fill="#b9bdca" opacity="0.5"/><circle cx="347.1" cy="92.1" r="2.3" fill="#b9bdca" opacity="0.5"/><circle cx="348.1" cy="156.8" r="2.3" fill="#b9bdca" opacity="0.5"/><circle cx="363.3" cy="201.6" r="2.3" fill="#b9bdca" opacity="0.5"/><circle cx="374.4" cy="315.6" r="2.3" fill="#b9bdca" opacity="0.5"/><circle cx="404.7" cy="87.7" r="2.3" fill="#b9bdca" opacity="0.5"/><circle cx="413.9" cy="87.6" r="2.3" fill="#b9bdca" opacity="0.5"/><circle cx="422.1" cy="87.2" r="2.3" fill="#b9bdca" opacity="0.5"/><circle cx="423.9" cy="88.8" r="2.3" fill="#b9bdca" opacity="0.5"/><circle cx="424.6" cy="89.2" r="2.3" fill="#b9bdca" opacity="0.5"/><circle cx="425.1" cy="90.9" r="2.3" fill="#b9bdca" opacity="0.5"/><circle cx="427.4" cy="87.7" r="2.3" fill="#b9bdca" opacity="0.5"/><circle cx="435.6" cy="88.6" r="2.3" fill="#b9bdca" opacity="0.5"/><circle cx="436.6" cy="89.7" r="2.3" fill="#b9bdca" opacity="0.5"/><circle cx="437.4" cy="88.2" r="2.3" fill="#b9bdca" opacity="0.5"/><circle cx="452.7" cy="75.8" r="2.3" fill="#b9bdca" opacity="0.5"/><circle cx="453.9" cy="75.7" r="2.3" fill="#b9bdca" opacity="0.5"/><circle cx="454.8" cy="76.7" r="2.3" fill="#b9bdca" opacity="0.5"/><circle cx="454.9" cy="75.8" r="2.3" fill="#b9bdca" opacity="0.5"/><circle cx="455.4" cy="75.3" r="2.3" fill="#b9bdca" opacity="0.5"/><circle cx="455.6" cy="74.7" r="2.3" fill="#b9bdca" opacity="0.5"/><circle cx="455.8" cy="83.4" r="2.3" fill="#b9bdca" opacity="0.5"/><circle cx="456.1" cy="76.2" r="2.3" fill="#b9bdca" opacity="0.5"/><circle cx="456.5" cy="78.1" r="2.3" fill="#b9bdca" opacity="0.5"/><circle cx="456.9" cy="74.7" r="2.3" fill="#b9bdca" opacity="0.5"/><circle cx="459.4" cy="89.3" r="2.3" fill="#b9bdca" opacity="0.5"/><circle cx="464.5" cy="74.4" r="2.3" fill="#b9bdca" opacity="0.5"/><circle cx="472.7" cy="74.4" r="2.3" fill="#b9bdca" opacity="0.5"/><circle cx="474.0" cy="335.1" r="2.3" fill="#b9bdca" opacity="0.5"/><circle cx="474.1" cy="81.7" r="2.3" fill="#b9bdca" opacity="0.5"/><circle cx="475.0" cy="74.6" r="2.3" fill="#b9bdca" opacity="0.5"/><circle cx="475.0" cy="82.1" r="2.3" fill="#b9bdca" opacity="0.5"/><circle cx="475.1" cy="73.9" r="2.3" fill="#b9bdca" opacity="0.5"/><circle cx="477.4" cy="76.2" r="2.3" fill="#b9bdca" opacity="0.5"/><circle cx="477.8" cy="82.1" r="2.3" fill="#b9bdca" opacity="0.5"/><circle cx="478.1" cy="74.2" r="2.3" fill="#b9bdca" opacity="0.5"/><circle cx="478.1" cy="75.0" r="2.3" fill="#b9bdca" opacity="0.5"/><circle cx="478.6" cy="73.6" r="2.3" fill="#b9bdca" opacity="0.5"/><circle cx="478.6" cy="83.3" r="2.3" fill="#b9bdca" opacity="0.5"/><circle cx="478.6" cy="83.8" r="2.3" fill="#b9bdca" opacity="0.5"/><circle cx="478.7" cy="78.1" r="2.3" fill="#b9bdca" opacity="0.5"/><circle cx="478.7" cy="81.5" r="2.3" fill="#b9bdca" opacity="0.5"/><circle cx="478.7" cy="83.0" r="2.3" fill="#b9bdca" opacity="0.5"/><circle cx="478.7" cy="83.7" r="2.3" fill="#b9bdca" opacity="0.5"/><circle cx="481.9" cy="82.7" r="2.3" fill="#b9bdca" opacity="0.5"/><circle cx="482.6" cy="77.8" r="2.3" fill="#b9bdca" opacity="0.5"/><circle cx="484.3" cy="69.8" r="2.3" fill="#b9bdca" opacity="0.5"/><circle cx="484.9" cy="75.9" r="2.3" fill="#b9bdca" opacity="0.5"/><circle cx="485.1" cy="74.3" r="2.3" fill="#b9bdca" opacity="0.5"/><circle cx="485.1" cy="77.4" r="2.3" fill="#b9bdca" opacity="0.5"/><circle cx="485.1" cy="80.6" r="2.3" fill="#b9bdca" opacity="0.5"/><circle cx="485.1" cy="81.8" r="2.3" fill="#b9bdca" opacity="0.5"/><circle cx="486.3" cy="76.9" r="2.3" fill="#b9bdca" opacity="0.5"/><circle cx="486.3" cy="82.8" r="2.3" fill="#b9bdca" opacity="0.5"/><circle cx="486.3" cy="83.0" r="2.3" fill="#b9bdca" opacity="0.5"/><circle cx="486.3" cy="83.1" r="2.3" fill="#b9bdca" opacity="0.5"/><circle cx="486.8" cy="69.1" r="2.3" fill="#b9bdca" opacity="0.5"/><circle cx="488.1" cy="75.5" r="2.3" fill="#b9bdca" opacity="0.5"/><circle cx="488.9" cy="74.3" r="2.3" fill="#b9bdca" opacity="0.5"/><circle cx="509.5" cy="74.0" r="2.3" fill="#b9bdca" opacity="0.5"/><circle cx="534.1" cy="73.4" r="2.3" fill="#b9bdca" opacity="0.5"/><circle cx="534.3" cy="75.9" r="2.3" fill="#b9bdca" opacity="0.5"/><circle cx="534.3" cy="76.3" r="2.3" fill="#b9bdca" opacity="0.5"/><circle cx="534.5" cy="76.0" r="2.3" fill="#b9bdca" opacity="0.5"/><circle cx="534.5" cy="76.8" r="2.3" fill="#b9bdca" opacity="0.5"/><circle cx="534.5" cy="81.2" r="2.3" fill="#b9bdca" opacity="0.5"/><circle cx="534.5" cy="83.4" r="2.3" fill="#b9bdca" opacity="0.5"/><circle cx="551.8" cy="76.6" r="2.3" fill="#b9bdca" opacity="0.5"/><circle cx="553.0" cy="76.7" r="2.3" fill="#b9bdca" opacity="0.5"/><circle cx="553.0" cy="82.8" r="2.3" fill="#b9bdca" opacity="0.5"/><circle cx="553.0" cy="82.8" r="2.3" fill="#b9bdca" opacity="0.5"/><circle cx="553.0" cy="83.3" r="2.3" fill="#b9bdca" opacity="0.5"/><circle cx="556.6" cy="233.4" r="2.3" fill="#b9bdca" opacity="0.5"/><circle cx="557.7" cy="228.9" r="2.3" fill="#b9bdca" opacity="0.5"/><circle cx="558.8" cy="198.3" r="2.3" fill="#b9bdca" opacity="0.5"/><circle cx="581.3" cy="73.4" r="2.3" fill="#b9bdca" opacity="0.5"/><circle cx="587.7" cy="192.4" r="2.3" fill="#b9bdca" opacity="0.5"/><circle cx="589.9" cy="75.3" r="2.3" fill="#b9bdca" opacity="0.5"/><circle cx="590.5" cy="74.0" r="2.3" fill="#b9bdca" opacity="0.5"/><circle cx="591.9" cy="194.4" r="2.3" fill="#b9bdca" opacity="0.5"/><circle cx="594.1" cy="168.6" r="2.3" fill="#b9bdca" opacity="0.5"/><circle cx="595.4" cy="77.1" r="2.3" fill="#b9bdca" opacity="0.5"/><circle cx="595.4" cy="99.5" r="2.3" fill="#b9bdca" opacity="0.5"/><circle cx="612.8" cy="71.4" r="2.3" fill="#b9bdca" opacity="0.5"/><circle cx="612.8" cy="73.5" r="2.3" fill="#b9bdca" opacity="0.5"/><circle cx="619.0" cy="72.4" r="2.3" fill="#b9bdca" opacity="0.5"/><circle cx="644.5" cy="83.0" r="2.3" fill="#b9bdca" opacity="0.5"/><circle cx="644.8" cy="72.1" r="2.3" fill="#b9bdca" opacity="0.5"/><circle cx="645.2" cy="71.6" r="2.3" fill="#b9bdca" opacity="0.5"/><circle cx="645.9" cy="75.5" r="2.3" fill="#b9bdca" opacity="0.5"/><circle cx="646.4" cy="73.7" r="2.3" fill="#b9bdca" opacity="0.5"/><circle cx="647.5" cy="72.9" r="2.3" fill="#b9bdca" opacity="0.5"/><circle cx="647.9" cy="73.4" r="2.3" fill="#b9bdca" opacity="0.5"/><circle cx="697.6" cy="85.2" r="2.3" fill="#b9bdca" opacity="0.5"/><circle cx="697.6" cy="256.6" r="2.3" fill="#b9bdca" opacity="0.5"/><circle cx="697.6" cy="335.3" r="2.3" fill="#b9bdca" opacity="0.5"/><circle cx="698.0" cy="86.8" r="2.3" fill="#b9bdca" opacity="0.5"/><circle cx="698.4" cy="71.5" r="2.3" fill="#b9bdca" opacity="0.5"/><circle cx="699.8" cy="71.0" r="2.3" fill="#b9bdca" opacity="0.5"/><circle cx="700.5" cy="71.5" r="2.3" fill="#b9bdca" opacity="0.5"/><circle cx="700.6" cy="55.0" r="2.3" fill="#b9bdca" opacity="0.5"/><circle cx="707.5" cy="83.1" r="2.3" fill="#b9bdca" opacity="0.5"/><circle cx="709.2" cy="74.7" r="2.3" fill="#b9bdca" opacity="0.5"/><circle cx="709.4" cy="59.3" r="2.3" fill="#b9bdca" opacity="0.5"/><circle cx="709.4" cy="79.9" r="2.3" fill="#b9bdca" opacity="0.5"/><circle cx="709.5" cy="74.1" r="2.3" fill="#b9bdca" opacity="0.5"/><circle cx="709.9" cy="72.7" r="2.3" fill="#b9bdca" opacity="0.5"/><circle cx="709.9" cy="73.8" r="2.3" fill="#b9bdca" opacity="0.5"/><circle cx="709.9" cy="75.9" r="2.3" fill="#b9bdca" opacity="0.5"/><circle cx="710.3" cy="74.1" r="2.3" fill="#b9bdca" opacity="0.5"/><circle cx="710.6" cy="73.5" r="2.3" fill="#b9bdca" opacity="0.5"/><circle cx="711.0" cy="74.2" r="2.3" fill="#b9bdca" opacity="0.5"/><circle cx="711.4" cy="71.5" r="2.3" fill="#b9bdca" opacity="0.5"/><circle cx="712.4" cy="74.3" r="2.3" fill="#b9bdca" opacity="0.5"/><circle cx="718.0" cy="73.2" r="2.3" fill="#b9bdca" opacity="0.5"/><circle cx="718.0" cy="73.6" r="2.3" fill="#b9bdca" opacity="0.5"/><circle cx="718.0" cy="73.8" r="2.3" fill="#b9bdca" opacity="0.5"/><circle cx="728.7" cy="73.3" r="2.3" fill="#b9bdca" opacity="0.5"/><circle cx="728.7" cy="73.4" r="2.3" fill="#b9bdca" opacity="0.5"/><circle cx="753.2" cy="96.1" r="2.3" fill="#b9bdca" opacity="0.5"/><circle cx="853.3" cy="95.6" r="2.3" fill="#b9bdca" opacity="0.5"/><circle cx="886.4" cy="74.8" r="2.3" fill="#b9bdca" opacity="0.5"/><circle cx="888.1" cy="72.3" r="2.3" fill="#b9bdca" opacity="0.5"/><circle cx="897.6" cy="79.9" r="2.3" fill="#b9bdca" opacity="0.5"/><circle cx="897.6" cy="80.6" r="2.3" fill="#b9bdca" opacity="0.5"/><circle cx="916.5" cy="73.3" r="2.3" fill="#b9bdca" opacity="0.5"/><circle cx="916.5" cy="72.8" r="2.3" fill="#b9bdca" opacity="0.5"/><circle cx="916.5" cy="73.0" r="2.3" fill="#b9bdca" opacity="0.5"/><circle cx="916.5" cy="73.2" r="2.3" fill="#b9bdca" opacity="0.5"/><circle cx="916.5" cy="73.5" r="2.3" fill="#b9bdca" opacity="0.5"/><circle cx="916.5" cy="73.6" r="2.3" fill="#b9bdca" opacity="0.5"/><circle cx="916.5" cy="73.7" r="2.3" fill="#b9bdca" opacity="0.5"/><circle cx="917.0" cy="73.1" r="2.3" fill="#b9bdca" opacity="0.5"/><circle cx="917.0" cy="73.2" r="2.3" fill="#b9bdca" opacity="0.5"/><circle cx="917.0" cy="74.3" r="2.3" fill="#b9bdca" opacity="0.5"/><circle cx="917.0" cy="74.5" r="2.3" fill="#b9bdca" opacity="0.5"/><circle cx="917.1" cy="72.8" r="2.3" fill="#b9bdca" opacity="0.5"/><circle cx="917.5" cy="74.7" r="2.3" fill="#b9bdca" opacity="0.5"/><circle cx="963.3" cy="332.5" r="2.3" fill="#b9bdca" opacity="0.5"/><circle cx="1018.1" cy="117.5" r="2.3" fill="#b9bdca" opacity="0.5"/><circle cx="1018.1" cy="211.0" r="2.3" fill="#b9bdca" opacity="0.5"/><circle cx="1032.0" cy="93.9" r="2.3" fill="#b9bdca" opacity="0.5"/><path d="M164.1 152.3L167.7 155.9L164.1 159.5L160.5 155.9Z" fill="#2b3a7a" opacity="0.8" stroke="none" stroke-width="0"/><path d="M170.8 138.2L174.4 141.8L170.8 145.4L167.2 141.8Z" fill="#2b3a7a" opacity="0.8" stroke="none" stroke-width="0"/><path d="M171.7 128.1L175.3 131.7L171.7 135.3L168.1 131.7Z" fill="#2b3a7a" opacity="0.8" stroke="none" stroke-width="0"/><path d="M171.8 130.5L175.4 134.1L171.8 137.7L168.2 134.1Z" fill="#2b3a7a" opacity="0.8" stroke="none" stroke-width="0"/><path d="M172.6 127.3L176.2 130.9L172.6 134.5L169.0 130.9Z" fill="#2b3a7a" opacity="0.8" stroke="none" stroke-width="0"/><path d="M172.9 125.9L176.5 129.5L172.9 133.1L169.3 129.5Z" fill="#2b3a7a" opacity="0.8" stroke="none" stroke-width="0"/><path d="M172.9 127.3L176.5 130.9L172.9 134.5L169.3 130.9Z" fill="#2b3a7a" opacity="0.8" stroke="none" stroke-width="0"/><path d="M193.9 125.9L197.5 129.5L193.9 133.1L190.3 129.5Z" fill="#2b3a7a" opacity="0.8" stroke="none" stroke-width="0"/><path d="M197.1 125.3L200.7 128.9L197.1 132.5L193.5 128.9Z" fill="#2b3a7a" opacity="0.8" stroke="none" stroke-width="0"/><path d="M200.1 124.8L203.7 128.4L200.1 132.0L196.5 128.4Z" fill="#2b3a7a" opacity="0.8" stroke="none" stroke-width="0"/><path d="M202.2 124.6L205.8 128.2L202.2 131.8L198.6 128.2Z" fill="#2b3a7a" opacity="0.8" stroke="none" stroke-width="0"/><path d="M211.7 124.4L215.3 128.0L211.7 131.6L208.1 128.0Z" fill="#2b3a7a" opacity="0.8" stroke="none" stroke-width="0"/><path d="M221.6 109.2L225.2 112.8L221.6 116.4L218.0 112.8Z" fill="#2b3a7a" opacity="0.8" stroke="none" stroke-width="0"/><path d="M226.3 108.0L229.9 111.6L226.3 115.2L222.7 111.6Z" fill="#2b3a7a" opacity="0.8" stroke="none" stroke-width="0"/><path d="M227.7 101.9L231.3 105.5L227.7 109.1L224.1 105.5Z" fill="#2b3a7a" opacity="0.8" stroke="none" stroke-width="0"/><path d="M227.9 104.9L231.5 108.5L227.9 112.1L224.3 108.5Z" fill="#2b3a7a" opacity="0.8" stroke="none" stroke-width="0"/><path d="M228.5 101.5L232.1 105.1L228.5 108.7L224.9 105.1Z" fill="#2b3a7a" opacity="0.8" stroke="none" stroke-width="0"/><path d="M229.1 100.2L232.7 103.8L229.1 107.4L225.5 103.8Z" fill="#2b3a7a" opacity="0.8" stroke="none" stroke-width="0"/><path d="M235.9 99.9L239.5 103.5L235.9 107.1L232.3 103.5Z" fill="#2b3a7a" opacity="0.8" stroke="none" stroke-width="0"/><path d="M248.8 86.0L252.4 89.6L248.8 93.2L245.2 89.6Z" fill="#2b3a7a" opacity="0.8" stroke="none" stroke-width="0"/><path d="M251.1 85.7L254.7 89.3L251.1 92.9L247.5 89.3Z" fill="#2b3a7a" opacity="0.8" stroke="none" stroke-width="0"/><path d="M251.5 84.0L255.1 87.6L251.5 91.2L247.9 87.6Z" fill="#2b3a7a" opacity="0.8" stroke="none" stroke-width="0"/><path d="M253.8 81.8L257.4 85.4L253.8 89.0L250.2 85.4Z" fill="#2b3a7a" opacity="0.8" stroke="none" stroke-width="0"/><path d="M261.1 80.8L264.7 84.4L261.1 88.0L257.5 84.4Z" fill="#2b3a7a" opacity="0.8" stroke="none" stroke-width="0"/><path d="M316.0 80.8L319.6 84.4L316.0 88.0L312.4 84.4Z" fill="#2b3a7a" opacity="0.8" stroke="none" stroke-width="0"/><path d="M452.7 72.2L456.3 75.8L452.7 79.4L449.1 75.8Z" fill="#2b3a7a" opacity="0.8" stroke="none" stroke-width="0"/><path d="M453.9 72.1L457.5 75.7L453.9 79.3L450.3 75.7Z" fill="#2b3a7a" opacity="0.8" stroke="none" stroke-width="0"/><path d="M455.4 71.7L459.0 75.3L455.4 78.9L451.8 75.3Z" fill="#2b3a7a" opacity="0.8" stroke="none" stroke-width="0"/><path d="M455.6 71.1L459.2 74.7L455.6 78.3L452.0 74.7Z" fill="#2b3a7a" opacity="0.8" stroke="none" stroke-width="0"/><path d="M456.9 71.1L460.5 74.7L456.9 78.3L453.3 74.7Z" fill="#2b3a7a" opacity="0.8" stroke="none" stroke-width="0"/><path d="M464.5 70.8L468.1 74.4L464.5 78.0L460.9 74.4Z" fill="#2b3a7a" opacity="0.8" stroke="none" stroke-width="0"/><path d="M475.1 70.3L478.7 73.9L475.1 77.5L471.5 73.9Z" fill="#2b3a7a" opacity="0.8" stroke="none" stroke-width="0"/><path d="M478.6 70.0L482.2 73.6L478.6 77.2L475.0 73.6Z" fill="#2b3a7a" opacity="0.8" stroke="none" stroke-width="0"/><path d="M534.1 69.8L537.7 73.4L534.1 77.0L530.5 73.4Z" fill="#2b3a7a" opacity="0.8" stroke="none" stroke-width="0"/><path d="M581.3 69.8L584.9 73.4L581.3 77.0L577.7 73.4Z" fill="#2b3a7a" opacity="0.8" stroke="none" stroke-width="0"/><path d="M612.8 67.8L616.4 71.4L612.8 75.0L609.2 71.4Z" fill="#2b3a7a" opacity="0.8" stroke="none" stroke-width="0"/><path d="M60.0 335.3L61.7 335.3L61.7 335.1L64.1 335.1L64.1 320.7L68.8 320.7L68.8 319.9L70.5 319.9L70.5 315.3L71.0 315.3L71.0 314.9L71.8 314.9L71.8 314.9L99.8 314.9L99.8 238.7L100.3 238.7L100.3 229.0L100.7 229.0L100.7 222.3L101.3 222.3L101.3 220.6L101.4 220.6L101.4 220.5L101.7 220.5L101.7 214.2L102.8 214.2L102.8 214.1L103.1 214.1L103.1 213.7L103.3 213.7L103.3 213.5L103.6 213.5L103.6 212.7L105.0 212.7L105.0 212.1L105.4 212.1L105.4 212.0L109.1 212.0L109.1 206.7L113.3 206.7L113.3 204.9L114.9 204.9L114.9 204.6L115.9 204.6L115.9 201.9L117.8 201.9L117.8 201.8L118.7 201.8L118.7 201.0L119.3 201.0L119.3 200.0L122.0 200.0L122.0 200.0L123.1 200.0L123.1 199.7L132.3 199.7L132.3 195.5L139.2 195.5L139.2 187.4L139.4 187.4L139.4 186.2L139.8 186.2L139.8 184.5L151.8 184.5L151.8 183.9L157.7 183.9L157.7 169.3L159.7 169.3L159.7 168.8L159.9 168.8L159.9 167.7L161.0 167.7L161.0 165.0L161.4 165.0L161.4 163.7L161.6 163.7L161.6 163.6L164.1 163.6L164.1 155.9L167.2 155.9L167.2 155.8L168.3 155.8L168.3 141.9L170.8 141.9L170.8 141.8L171.7 141.8L171.7 131.7L172.6 131.7L172.6 130.9L172.9 130.9L172.9 129.5L193.9 129.5L193.9 129.5L197.1 129.5L197.1 128.9L200.1 128.9L200.1 128.4L202.2 128.4L202.2 128.2L211.7 128.2L211.7 128.0L221.6 128.0L221.6 112.8L223.8 112.8L223.8 110.2L227.7 110.2L227.7 105.5L228.5 105.5L228.5 105.1L229.1 105.1L229.1 103.8L235.9 103.8L235.9 103.5L248.8 103.5L248.8 89.6L251.1 89.6L251.1 89.3L251.5 89.3L251.5 87.6L253.8 87.6L253.8 85.4L261.1 85.4L261.1 84.4L316.0 84.4L316.0 84.4L452.7 84.4L452.7 75.8L453.9 75.8L453.9 75.7L455.4 75.7L455.4 75.3L455.6 75.3L455.6 74.7L456.9 74.7L456.9 74.7L464.5 74.7L464.5 74.4L475.1 74.4L475.1 73.9L478.6 73.9L478.6 73.6L484.3 73.6L484.3 69.8L486.8 69.8L486.8 69.1L700.6 69.1L700.6 55.0L1032.0 55.0" fill="none" stroke="#6675b0" stroke-width="1.6" stroke-dasharray="5 3" opacity="0.75"/><path d="M164.1 155.9L170.8 155.9L170.8 141.8L171.7 141.8L171.7 131.7L172.6 131.7L172.6 130.9L172.9 130.9L172.9 129.5L193.9 129.5L193.9 129.5L197.1 129.5L197.1 128.9L200.1 128.9L200.1 128.4L202.2 128.4L202.2 128.2L211.7 128.2L211.7 128.0L221.6 128.0L221.6 112.8L226.3 112.8L226.3 111.6L227.7 111.6L227.7 105.5L228.5 105.5L228.5 105.1L229.1 105.1L229.1 103.8L235.9 103.8L235.9 103.5L248.8 103.5L248.8 89.6L251.1 89.6L251.1 89.3L251.5 89.3L251.5 87.6L253.8 87.6L253.8 85.4L261.1 85.4L261.1 84.4L316.0 84.4L316.0 84.4L452.7 84.4L452.7 75.8L453.9 75.8L453.9 75.7L455.4 75.7L455.4 75.3L455.6 75.3L455.6 74.7L456.9 74.7L456.9 74.7L464.5 74.7L464.5 74.4L475.1 74.4L475.1 73.9L478.6 73.9L478.6 73.6L484.3 73.6L484.3 73.5L534.1 73.5L534.1 73.4L581.3 73.4L581.3 73.4L612.8 73.4L612.8 71.4L1032.0 71.4" fill="none" stroke="#2b3a7a" stroke-width="2.6"/><path d="M408.4 246.9L414.9 253.4L408.4 259.9L401.9 253.4Z" fill="#c5961a" opacity="1.0" stroke="#ffffff" stroke-width="1.4"/><path d="M476.5 206.5L483.0 213.0L476.5 219.5L470.0 213.0Z" fill="#c5961a" opacity="1.0" stroke="#ffffff" stroke-width="1.4"/><path d="M484.3 67.0L490.8 73.5L484.3 80.0L477.8 73.5Z" fill="#c5961a" opacity="1.0" stroke="#ffffff" stroke-width="1.4"/><path d="M542.6 240.8L549.1 247.3L542.6 253.8L536.1 247.3Z" fill="#c5961a" opacity="1.0" stroke="#ffffff" stroke-width="1.4"/><path d="M543.0 238.0L549.5 244.5L543.0 251.0L536.5 244.5Z" fill="#c5961a" opacity="1.0" stroke="#ffffff" stroke-width="1.4"/><text x="1042" y="53.0" font-size="11.5" fill="#6675b0">– – raw best 535.9</text><text x="1042" y="67.0" font-size="10" fill="#8a8fa3">unverified (pending)</text><path d="M612.8 64.9L619.3 71.4L612.8 77.9L606.3 71.4Z" fill="#2b3a7a" opacity="1.0" stroke="#ffffff" stroke-width="1.4"/><text x="1042" y="99.4" font-size="12.5" fill="#2b3a7a" font-weight="bold">◆ verified 510.1</text><text x="1042" y="115.4" font-size="10.5" fill="#3a3f55">top verified</text><text x="60" y="24" font-size="13" font-weight="bold" fill="#3a3f55" letter-spacing="1.2">SCORE EVOLUTION — gemma-challenge (tok/s)</text><circle cx="452" cy="20" r="3" fill="#b9bdca"/><text x="460" y="24" font-size="10.5" fill="#8a8fa3">all results</text><path d="M544.0 16.4L547.6 20.0L544.0 23.6L540.4 20.0Z" fill="#2b3a7a" opacity="1.0" stroke="none" stroke-width="0"/><text x="552" y="24" font-size="10.5" fill="#8a8fa3">verified</text><path d="M620.0 15.5L624.5 20.0L620.0 24.5L615.5 20.0Z" fill="#c5961a" opacity="1.0" stroke="#fff" stroke-width="1"/><text x="629" y="24" font-size="10.5" fill="#8a8fa3">mikasa-inbound (us)</text></svg>