<svg viewBox="0 0 1200 440" xmlns="http://www.w3.org/2000/svg" font-family="ui-sans-serif,system-ui,-apple-system,sans-serif"><rect x="0" y="0" width="1200" height="440" fill="#ffffff"/><rect x="60" y="46" width="972" height="350" fill="#f3f4fb"/><line x1="60" y1="396.0" x2="1032" y2="396.0" stroke="#e3e5ef" stroke-width="1"/><text x="52" y="400.0" text-anchor="end" font-size="11" fill="#8a8fa3">0</text><line x1="60" y1="332.4" x2="1032" y2="332.4" stroke="#e3e5ef" stroke-width="1"/><text x="52" y="336.4" text-anchor="end" font-size="11" fill="#8a8fa3">100</text><line x1="60" y1="268.7" x2="1032" y2="268.7" stroke="#e3e5ef" stroke-width="1"/><text x="52" y="272.7" text-anchor="end" font-size="11" fill="#8a8fa3">200</text><line x1="60" y1="205.1" x2="1032" y2="205.1" stroke="#e3e5ef" stroke-width="1"/><text x="52" y="209.1" text-anchor="end" font-size="11" fill="#8a8fa3">300</text><line x1="60" y1="141.5" x2="1032" y2="141.5" stroke="#e3e5ef" stroke-width="1"/><text x="52" y="145.5" text-anchor="end" font-size="11" fill="#8a8fa3">400</text><line x1="60" y1="77.8" x2="1032" y2="77.8" stroke="#e3e5ef" stroke-width="1"/><text x="52" y="81.8" text-anchor="end" font-size="11" fill="#8a8fa3">500</text><line x1="150.4" y1="46" x2="150.4" y2="396" stroke="#e3e5ef" stroke-width="1"/><text x="150.4" y="414.0" text-anchor="middle" font-size="11" fill="#8a8fa3">Jun 10</text><line x1="279.4" y1="46" x2="279.4" y2="396" stroke="#e3e5ef" stroke-width="1"/><text x="279.4" y="414.0" text-anchor="middle" font-size="11" fill="#8a8fa3">Jun 12</text><line x1="408.3" y1="46" x2="408.3" y2="396" stroke="#e3e5ef" stroke-width="1"/><text x="408.3" y="414.0" text-anchor="middle" font-size="11" fill="#8a8fa3">Jun 14</text><line x1="537.3" y1="46" x2="537.3" y2="396" stroke="#e3e5ef" stroke-width="1"/><text x="537.3" y="414.0" text-anchor="middle" font-size="11" fill="#8a8fa3">Jun 16</text><line x1="666.2" y1="46" x2="666.2" y2="396" stroke="#e3e5ef" stroke-width="1"/><text x="666.2" y="414.0" text-anchor="middle" font-size="11" fill="#8a8fa3">Jun 18</text><line x1="795.2" y1="46" x2="795.2" y2="396" stroke="#e3e5ef" stroke-width="1"/><text x="795.2" y="414.0" text-anchor="middle" font-size="11" fill="#8a8fa3">Jun 20</text><line x1="924.1" y1="46" x2="924.1" y2="396" stroke="#e3e5ef" stroke-width="1"/><text x="924.1" y="414.0" text-anchor="middle" font-size="11" fill="#8a8fa3">Jun 22</text><circle cx="60.0" cy="335.3" r="2.3" fill="#b9bdca" opacity="0.5"/><circle cx="63.1" cy="335.1" r="2.3" fill="#b9bdca" opacity="0.5"/><circle cx="66.2" cy="368.0" r="2.3" fill="#b9bdca" opacity="0.5"/><circle cx="67.4" cy="320.7" r="2.3" fill="#b9bdca" opacity="0.5"/><circle cx="76.0" cy="319.9" r="2.3" fill="#b9bdca" opacity="0.5"/><circle cx="76.5" cy="320.6" r="2.3" fill="#b9bdca" opacity="0.5"/><circle cx="79.3" cy="315.3" r="2.3" fill="#b9bdca" opacity="0.5"/><circle cx="79.8" cy="319.7" r="2.3" fill="#b9bdca" opacity="0.5"/><circle cx="80.1" cy="314.9" r="2.3" fill="#b9bdca" opacity="0.5"/><circle cx="81.1" cy="315.5" r="2.3" fill="#b9bdca" opacity="0.5"/><circle cx="81.5" cy="314.9" r="2.3" fill="#b9bdca" opacity="0.5"/><circle cx="82.3" cy="315.4" r="2.3" fill="#b9bdca" opacity="0.5"/><circle cx="84.0" cy="315.0" r="2.3" fill="#b9bdca" opacity="0.5"/><circle cx="132.8" cy="238.7" r="2.3" fill="#b9bdca" opacity="0.5"/><circle cx="133.2" cy="315.0" r="2.3" fill="#b9bdca" opacity="0.5"/><circle cx="133.7" cy="229.0" r="2.3" fill="#b9bdca" opacity="0.5"/><circle cx="134.5" cy="222.3" r="2.3" fill="#b9bdca" opacity="0.5"/><circle cx="135.2" cy="228.0" r="2.3" fill="#b9bdca" opacity="0.5"/><circle cx="135.4" cy="223.3" r="2.3" fill="#b9bdca" opacity="0.5"/><circle cx="135.5" cy="220.6" r="2.3" fill="#b9bdca" opacity="0.5"/><circle cx="135.7" cy="220.5" r="2.3" fill="#b9bdca" opacity="0.5"/><circle cx="135.9" cy="223.2" r="2.3" fill="#b9bdca" opacity="0.5"/><circle cx="136.3" cy="214.2" r="2.3" fill="#b9bdca" opacity="0.5"/><circle cx="136.3" cy="222.1" r="2.3" fill="#b9bdca" opacity="0.5"/><circle cx="136.7" cy="220.7" r="2.3" fill="#b9bdca" opacity="0.5"/><circle cx="137.2" cy="218.5" r="2.3" fill="#b9bdca" opacity="0.5"/><circle cx="137.4" cy="215.2" r="2.3" fill="#b9bdca" opacity="0.5"/><circle cx="137.8" cy="214.3" r="2.3" fill="#b9bdca" opacity="0.5"/><circle cx="137.8" cy="219.2" r="2.3" fill="#b9bdca" opacity="0.5"/><circle cx="138.2" cy="214.1" r="2.3" fill="#b9bdca" opacity="0.5"/><circle cx="138.5" cy="215.2" r="2.3" fill="#b9bdca" opacity="0.5"/><circle cx="138.8" cy="213.7" r="2.3" fill="#b9bdca" opacity="0.5"/><circle cx="139.2" cy="213.5" r="2.3" fill="#b9bdca" opacity="0.5"/><circle cx="139.5" cy="214.8" r="2.3" fill="#b9bdca" opacity="0.5"/><circle cx="139.5" cy="217.7" r="2.3" fill="#b9bdca" opacity="0.5"/><circle cx="139.7" cy="212.7" r="2.3" fill="#b9bdca" opacity="0.5"/><circle cx="140.5" cy="213.3" r="2.3" fill="#b9bdca" opacity="0.5"/><circle cx="141.4" cy="212.7" r="2.3" fill="#b9bdca" opacity="0.5"/><circle cx="141.4" cy="213.6" r="2.3" fill="#b9bdca" opacity="0.5"/><circle cx="141.7" cy="213.0" r="2.3" fill="#b9bdca" opacity="0.5"/><circle cx="142.3" cy="212.1" r="2.3" fill="#b9bdca" opacity="0.5"/><circle cx="142.4" cy="213.3" r="2.3" fill="#b9bdca" opacity="0.5"/><circle cx="142.9" cy="212.0" r="2.3" fill="#b9bdca" opacity="0.5"/><circle cx="143.9" cy="212.1" r="2.3" fill="#b9bdca" opacity="0.5"/><circle cx="143.9" cy="212.8" r="2.3" fill="#b9bdca" opacity="0.5"/><circle cx="149.8" cy="206.7" r="2.3" fill="#b9bdca" opacity="0.5"/><circle cx="150.6" cy="206.8" r="2.3" fill="#b9bdca" opacity="0.5"/><circle cx="150.6" cy="212.5" r="2.3" fill="#b9bdca" opacity="0.5"/><circle cx="151.1" cy="207.2" r="2.3" fill="#b9bdca" opacity="0.5"/><circle cx="153.0" cy="207.0" r="2.3" fill="#b9bdca" opacity="0.5"/><circle cx="157.4" cy="204.9" r="2.3" fill="#b9bdca" opacity="0.5"/><circle cx="160.3" cy="204.6" r="2.3" fill="#b9bdca" opacity="0.5"/><circle cx="160.6" cy="212.3" r="2.3" fill="#b9bdca" opacity="0.5"/><circle cx="161.1" cy="204.6" r="2.3" fill="#b9bdca" opacity="0.5"/><circle cx="161.1" cy="204.6" r="2.3" fill="#b9bdca" opacity="0.5"/><circle cx="161.1" cy="204.9" r="2.3" fill="#b9bdca" opacity="0.5"/><circle cx="161.1" cy="204.9" r="2.3" fill="#b9bdca" opacity="0.5"/><circle cx="162.2" cy="201.9" r="2.3" fill="#b9bdca" opacity="0.5"/><circle cx="164.0" cy="206.5" r="2.3" fill="#b9bdca" opacity="0.5"/><circle cx="164.7" cy="205.8" r="2.3" fill="#b9bdca" opacity="0.5"/><circle cx="164.7" cy="335.1" r="2.3" fill="#b9bdca" opacity="0.5"/><circle cx="165.6" cy="201.8" r="2.3" fill="#b9bdca" opacity="0.5"/><circle cx="165.7" cy="202.2" r="2.3" fill="#b9bdca" opacity="0.5"/><circle cx="167.3" cy="201.0" r="2.3" fill="#b9bdca" opacity="0.5"/><circle cx="168.0" cy="203.1" r="2.3" fill="#b9bdca" opacity="0.5"/><circle cx="168.4" cy="200.0" r="2.3" fill="#b9bdca" opacity="0.5"/><circle cx="168.4" cy="204.6" r="2.3" fill="#b9bdca" opacity="0.5"/><circle cx="169.4" cy="202.3" r="2.3" fill="#b9bdca" opacity="0.5"/><circle cx="171.6" cy="200.4" r="2.3" fill="#b9bdca" opacity="0.5"/><circle cx="172.4" cy="200.7" r="2.3" fill="#b9bdca" opacity="0.5"/><circle cx="173.3" cy="200.0" r="2.3" fill="#b9bdca" opacity="0.5"/><circle cx="175.3" cy="199.7" r="2.3" fill="#b9bdca" opacity="0.5"/><circle cx="187.7" cy="200.6" r="2.3" fill="#b9bdca" opacity="0.5"/><circle cx="188.7" cy="201.8" r="2.3" fill="#b9bdca" opacity="0.5"/><circle cx="190.4" cy="208.4" r="2.3" fill="#b9bdca" opacity="0.5"/><circle cx="190.5" cy="200.8" r="2.3" fill="#b9bdca" opacity="0.5"/><circle cx="191.7" cy="200.7" r="2.3" fill="#b9bdca" opacity="0.5"/><circle cx="191.7" cy="201.9" r="2.3" fill="#b9bdca" opacity="0.5"/><circle cx="192.1" cy="195.5" r="2.3" fill="#b9bdca" opacity="0.5"/><circle cx="193.3" cy="196.9" r="2.3" fill="#b9bdca" opacity="0.5"/><circle cx="193.8" cy="197.9" r="2.3" fill="#b9bdca" opacity="0.5"/><circle cx="194.9" cy="196.1" r="2.3" fill="#b9bdca" opacity="0.5"/><circle cx="198.7" cy="197.3" r="2.3" fill="#b9bdca" opacity="0.5"/><circle cx="199.7" cy="195.9" r="2.3" fill="#b9bdca" opacity="0.5"/><circle cx="200.1" cy="201.0" r="2.3" fill="#b9bdca" opacity="0.5"/><circle cx="200.4" cy="197.5" r="2.3" fill="#b9bdca" opacity="0.5"/><circle cx="201.3" cy="196.9" r="2.3" fill="#b9bdca" opacity="0.5"/><circle cx="201.3" cy="197.1" r="2.3" fill="#b9bdca" opacity="0.5"/><circle cx="201.4" cy="197.0" r="2.3" fill="#b9bdca" opacity="0.5"/><circle cx="202.3" cy="196.0" r="2.3" fill="#b9bdca" opacity="0.5"/><circle cx="202.3" cy="196.0" r="2.3" fill="#b9bdca" opacity="0.5"/><circle cx="202.3" cy="197.9" r="2.3" fill="#b9bdca" opacity="0.5"/><circle cx="203.0" cy="197.8" r="2.3" fill="#b9bdca" opacity="0.5"/><circle cx="203.5" cy="196.2" r="2.3" fill="#b9bdca" opacity="0.5"/><circle cx="203.6" cy="197.5" r="2.3" fill="#b9bdca" opacity="0.5"/><circle cx="203.7" cy="196.9" r="2.3" fill="#b9bdca" opacity="0.5"/><circle cx="203.8" cy="195.5" r="2.3" fill="#b9bdca" opacity="0.5"/><circle cx="204.6" cy="198.1" r="2.3" fill="#b9bdca" opacity="0.5"/><circle cx="204.7" cy="187.4" r="2.3" fill="#b9bdca" opacity="0.5"/><circle cx="205.0" cy="186.2" r="2.3" fill="#b9bdca" opacity="0.5"/><circle cx="205.0" cy="196.3" r="2.3" fill="#b9bdca" opacity="0.5"/><circle cx="205.0" cy="197.2" r="2.3" fill="#b9bdca" opacity="0.5"/><circle cx="205.0" cy="197.8" r="2.3" fill="#b9bdca" opacity="0.5"/><circle cx="205.0" cy="368.0" r="2.3" fill="#b9bdca" opacity="0.5"/><circle cx="205.9" cy="184.5" r="2.3" fill="#b9bdca" opacity="0.5"/><circle cx="209.2" cy="184.6" r="2.3" fill="#b9bdca" opacity="0.5"/><circle cx="210.6" cy="185.6" r="2.3" fill="#b9bdca" opacity="0.5"/><circle cx="215.5" cy="188.7" r="2.3" fill="#b9bdca" opacity="0.5"/><circle cx="222.0" cy="185.4" r="2.3" fill="#b9bdca" opacity="0.5"/><circle cx="223.4" cy="185.2" r="2.3" fill="#b9bdca" opacity="0.5"/><circle cx="223.9" cy="186.6" r="2.3" fill="#b9bdca" opacity="0.5"/><circle cx="224.1" cy="185.3" r="2.3" fill="#b9bdca" opacity="0.5"/><circle cx="225.2" cy="185.3" r="2.3" fill="#b9bdca" opacity="0.5"/><circle cx="225.8" cy="185.0" r="2.3" fill="#b9bdca" opacity="0.5"/><circle cx="226.9" cy="184.9" r="2.3" fill="#b9bdca" opacity="0.5"/><circle cx="227.6" cy="185.1" r="2.3" fill="#b9bdca" opacity="0.5"/><circle cx="227.6" cy="185.2" r="2.3" fill="#b9bdca" opacity="0.5"/><circle cx="227.6" cy="186.4" r="2.3" fill="#b9bdca" opacity="0.5"/><circle cx="227.8" cy="183.9" r="2.3" fill="#b9bdca" opacity="0.5"/><circle cx="233.8" cy="184.4" r="2.3" fill="#b9bdca" opacity="0.5"/><circle cx="234.8" cy="184.2" r="2.3" fill="#b9bdca" opacity="0.5"/><circle cx="238.6" cy="169.3" r="2.3" fill="#b9bdca" opacity="0.5"/><circle cx="242.2" cy="168.8" r="2.3" fill="#b9bdca" opacity="0.5"/><circle cx="242.5" cy="167.7" r="2.3" fill="#b9bdca" opacity="0.5"/><circle cx="244.1" cy="201.4" r="2.3" fill="#b9bdca" opacity="0.5"/><circle cx="244.6" cy="165.0" r="2.3" fill="#b9bdca" opacity="0.5"/><circle cx="244.8" cy="198.2" r="2.3" fill="#b9bdca" opacity="0.5"/><circle cx="245.4" cy="163.7" r="2.3" fill="#b9bdca" opacity="0.5"/><circle cx="245.6" cy="163.6" r="2.3" fill="#b9bdca" opacity="0.5"/><circle cx="246.2" cy="165.9" r="2.3" fill="#b9bdca" opacity="0.5"/><circle cx="249.5" cy="165.1" r="2.3" fill="#b9bdca" opacity="0.5"/><circle cx="250.2" cy="155.9" r="2.3" fill="#b9bdca" opacity="0.5"/><circle cx="253.4" cy="196.5" r="2.3" fill="#b9bdca" opacity="0.5"/><circle cx="254.7" cy="157.4" r="2.3" fill="#b9bdca" opacity="0.5"/><circle cx="255.9" cy="155.8" r="2.3" fill="#b9bdca" opacity="0.5"/><circle cx="258.0" cy="141.9" r="2.3" fill="#b9bdca" opacity="0.5"/><circle cx="262.3" cy="156.1" r="2.3" fill="#b9bdca" opacity="0.5"/><circle cx="262.3" cy="156.4" r="2.3" fill="#b9bdca" opacity="0.5"/><circle cx="262.5" cy="141.8" r="2.3" fill="#b9bdca" opacity="0.5"/><circle cx="262.7" cy="196.0" r="2.3" fill="#b9bdca" opacity="0.5"/><circle cx="264.2" cy="131.7" r="2.3" fill="#b9bdca" opacity="0.5"/><circle cx="264.4" cy="134.1" r="2.3" fill="#b9bdca" opacity="0.5"/><circle cx="264.9" cy="141.1" r="2.3" fill="#b9bdca" opacity="0.5"/><circle cx="265.6" cy="134.0" r="2.3" fill="#b9bdca" opacity="0.5"/><circle cx="265.7" cy="130.9" r="2.3" fill="#b9bdca" opacity="0.5"/><circle cx="265.7" cy="154.2" r="2.3" fill="#b9bdca" opacity="0.5"/><circle cx="266.0" cy="133.6" r="2.3" fill="#b9bdca" opacity="0.5"/><circle cx="266.3" cy="129.5" r="2.3" fill="#b9bdca" opacity="0.5"/><circle cx="266.4" cy="130.9" r="2.3" fill="#b9bdca" opacity="0.5"/><circle cx="266.4" cy="133.4" r="2.3" fill="#b9bdca" opacity="0.5"/><circle cx="266.7" cy="131.2" r="2.3" fill="#b9bdca" opacity="0.5"/><circle cx="269.4" cy="189.8" r="2.3" fill="#b9bdca" opacity="0.5"/><circle cx="269.5" cy="133.2" r="2.3" fill="#b9bdca" opacity="0.5"/><circle cx="269.9" cy="133.5" r="2.3" fill="#b9bdca" opacity="0.5"/><circle cx="270.9" cy="130.1" r="2.3" fill="#b9bdca" opacity="0.5"/><circle cx="273.5" cy="130.3" r="2.3" fill="#b9bdca" opacity="0.5"/><circle cx="274.7" cy="303.1" r="2.3" fill="#b9bdca" opacity="0.5"/><circle cx="276.9" cy="133.2" r="2.3" fill="#b9bdca" opacity="0.5"/><circle cx="279.8" cy="144.2" r="2.3" fill="#b9bdca" opacity="0.5"/><circle cx="280.4" cy="135.3" r="2.3" fill="#b9bdca" opacity="0.5"/><circle cx="282.2" cy="133.4" r="2.3" fill="#b9bdca" opacity="0.5"/><circle cx="282.4" cy="159.9" r="2.3" fill="#b9bdca" opacity="0.5"/><circle cx="282.9" cy="130.8" r="2.3" fill="#b9bdca" opacity="0.5"/><circle cx="283.5" cy="133.2" r="2.3" fill="#b9bdca" opacity="0.5"/><circle cx="290.1" cy="130.9" r="2.3" fill="#b9bdca" opacity="0.5"/><circle cx="290.8" cy="130.9" r="2.3" fill="#b9bdca" opacity="0.5"/><circle cx="290.8" cy="133.8" r="2.3" fill="#b9bdca" opacity="0.5"/><circle cx="291.9" cy="130.4" r="2.3" fill="#b9bdca" opacity="0.5"/><circle cx="292.6" cy="153.7" r="2.3" fill="#b9bdca" opacity="0.5"/><circle cx="293.8" cy="133.3" r="2.3" fill="#b9bdca" opacity="0.5"/><circle cx="295.8" cy="156.5" r="2.3" fill="#b9bdca" opacity="0.5"/><circle cx="296.2" cy="132.3" r="2.3" fill="#b9bdca" opacity="0.5"/><circle cx="298.6" cy="147.2" r="2.3" fill="#b9bdca" opacity="0.5"/><circle cx="299.1" cy="133.6" r="2.3" fill="#b9bdca" opacity="0.5"/><circle cx="299.9" cy="129.5" r="2.3" fill="#b9bdca" opacity="0.5"/><circle cx="299.9" cy="133.3" r="2.3" fill="#b9bdca" opacity="0.5"/><circle cx="302.8" cy="133.3" r="2.3" fill="#b9bdca" opacity="0.5"/><circle cx="304.7" cy="129.5" r="2.3" fill="#b9bdca" opacity="0.5"/><circle cx="308.1" cy="130.6" r="2.3" fill="#b9bdca" opacity="0.5"/><circle cx="310.5" cy="128.9" r="2.3" fill="#b9bdca" opacity="0.5"/><circle cx="311.0" cy="132.7" r="2.3" fill="#b9bdca" opacity="0.5"/><circle cx="311.0" cy="133.1" r="2.3" fill="#b9bdca" opacity="0.5"/><circle cx="314.7" cy="129.8" r="2.3" fill="#b9bdca" opacity="0.5"/><circle cx="315.7" cy="333.8" r="2.3" fill="#b9bdca" opacity="0.5"/><circle cx="316.0" cy="128.4" r="2.3" fill="#b9bdca" opacity="0.5"/><circle cx="317.7" cy="129.8" r="2.3" fill="#b9bdca" opacity="0.5"/><circle cx="318.4" cy="128.9" r="2.3" fill="#b9bdca" opacity="0.5"/><circle cx="318.6" cy="128.9" r="2.3" fill="#b9bdca" opacity="0.5"/><circle cx="319.8" cy="128.2" r="2.3" fill="#b9bdca" opacity="0.5"/><circle cx="320.8" cy="129.7" r="2.3" fill="#b9bdca" opacity="0.5"/><circle cx="321.1" cy="142.3" r="2.3" fill="#b9bdca" opacity="0.5"/><circle cx="324.6" cy="128.8" r="2.3" fill="#b9bdca" opacity="0.5"/><circle cx="326.6" cy="161.1" r="2.3" fill="#b9bdca" opacity="0.5"/><circle cx="330.6" cy="164.4" r="2.3" fill="#b9bdca" opacity="0.5"/><circle cx="331.0" cy="248.3" r="2.3" fill="#b9bdca" opacity="0.5"/><circle cx="336.7" cy="135.4" r="2.3" fill="#b9bdca" opacity="0.5"/><circle cx="337.2" cy="128.0" r="2.3" fill="#b9bdca" opacity="0.5"/><circle cx="338.9" cy="229.0" r="2.3" fill="#b9bdca" opacity="0.5"/><circle cx="342.9" cy="128.1" r="2.3" fill="#b9bdca" opacity="0.5"/><circle cx="343.9" cy="128.6" r="2.3" fill="#b9bdca" opacity="0.5"/><circle cx="347.6" cy="128.8" r="2.3" fill="#b9bdca" opacity="0.5"/><circle cx="347.6" cy="129.6" r="2.3" fill="#b9bdca" opacity="0.5"/><circle cx="347.6" cy="130.9" r="2.3" fill="#b9bdca" opacity="0.5"/><circle cx="355.3" cy="112.8" r="2.3" fill="#b9bdca" opacity="0.5"/><circle cx="359.3" cy="110.2" r="2.3" fill="#b9bdca" opacity="0.5"/><circle cx="359.5" cy="111.6" r="2.3" fill="#b9bdca" opacity="0.5"/><circle cx="362.0" cy="111.0" r="2.3" fill="#b9bdca" opacity="0.5"/><circle cx="363.2" cy="335.1" r="2.3" fill="#b9bdca" opacity="0.5"/><circle cx="363.9" cy="111.6" r="2.3" fill="#b9bdca" opacity="0.5"/><circle cx="366.4" cy="105.5" r="2.3" fill="#b9bdca" opacity="0.5"/><circle cx="366.8" cy="108.5" r="2.3" fill="#b9bdca" opacity="0.5"/><circle cx="367.9" cy="105.1" r="2.3" fill="#b9bdca" opacity="0.5"/><circle cx="369.0" cy="103.8" r="2.3" fill="#b9bdca" opacity="0.5"/><circle cx="370.4" cy="125.8" r="2.3" fill="#b9bdca" opacity="0.5"/><circle cx="381.5" cy="103.5" r="2.3" fill="#b9bdca" opacity="0.5"/><circle cx="384.4" cy="127.8" r="2.3" fill="#b9bdca" opacity="0.5"/><circle cx="385.7" cy="334.3" r="2.3" fill="#b9bdca" opacity="0.5"/><circle cx="387.4" cy="128.6" r="2.3" fill="#b9bdca" opacity="0.5"/><circle cx="388.2" cy="128.6" r="2.3" fill="#b9bdca" opacity="0.5"/><circle cx="388.4" cy="128.6" r="2.3" fill="#b9bdca" opacity="0.5"/><circle cx="389.4" cy="256.6" r="2.3" fill="#b9bdca" opacity="0.5"/><circle cx="390.7" cy="254.6" r="2.3" fill="#b9bdca" opacity="0.5"/><circle cx="392.7" cy="128.6" r="2.3" fill="#b9bdca" opacity="0.5"/><circle cx="397.8" cy="250.1" r="2.3" fill="#b9bdca" opacity="0.5"/><circle cx="398.3" cy="161.4" r="2.3" fill="#b9bdca" opacity="0.5"/><circle cx="398.8" cy="206.6" r="2.3" fill="#b9bdca" opacity="0.5"/><circle cx="403.6" cy="113.5" r="2.3" fill="#b9bdca" opacity="0.5"/><circle cx="405.1" cy="89.6" r="2.3" fill="#b9bdca" opacity="0.5"/><circle cx="406.3" cy="90.2" r="2.3" fill="#b9bdca" opacity="0.5"/><circle cx="409.3" cy="89.3" r="2.3" fill="#b9bdca" opacity="0.5"/><circle cx="410.1" cy="87.6" r="2.3" fill="#b9bdca" opacity="0.5"/><circle cx="411.0" cy="185.0" r="2.3" fill="#b9bdca" opacity="0.5"/><circle cx="412.1" cy="131.6" r="2.3" fill="#b9bdca" opacity="0.5"/><circle cx="412.9" cy="87.8" r="2.3" fill="#b9bdca" opacity="0.5"/><circle cx="414.3" cy="85.4" r="2.3" fill="#b9bdca" opacity="0.5"/><circle cx="416.4" cy="86.8" r="2.3" fill="#b9bdca" opacity="0.5"/><circle cx="418.5" cy="88.4" r="2.3" fill="#b9bdca" opacity="0.5"/><circle cx="427.4" cy="89.5" r="2.3" fill="#b9bdca" opacity="0.5"/><circle cx="427.4" cy="155.6" r="2.3" fill="#b9bdca" opacity="0.5"/><circle cx="427.5" cy="84.4" r="2.3" fill="#b9bdca" opacity="0.5"/><circle cx="438.0" cy="89.2" r="2.3" fill="#b9bdca" opacity="0.5"/><circle cx="438.2" cy="90.5" r="2.3" fill="#b9bdca" opacity="0.5"/><circle cx="441.2" cy="87.7" r="2.3" fill="#b9bdca" opacity="0.5"/><circle cx="442.2" cy="367.9" r="2.3" fill="#b9bdca" opacity="0.5"/><circle cx="446.5" cy="164.3" r="2.3" fill="#b9bdca" opacity="0.5"/><circle cx="448.6" cy="94.6" r="2.3" fill="#b9bdca" opacity="0.5"/><circle cx="449.4" cy="89.6" r="2.3" fill="#b9bdca" opacity="0.5"/><circle cx="458.5" cy="124.6" r="2.3" fill="#b9bdca" opacity="0.5"/><circle cx="468.2" cy="146.2" r="2.3" fill="#b9bdca" opacity="0.5"/><circle cx="468.5" cy="90.5" r="2.3" fill="#b9bdca" opacity="0.5"/><circle cx="469.4" cy="87.7" r="2.3" fill="#b9bdca" opacity="0.5"/><circle cx="469.9" cy="87.7" r="2.3" fill="#b9bdca" opacity="0.5"/><circle cx="469.9" cy="89.6" r="2.3" fill="#b9bdca" opacity="0.5"/><circle cx="476.8" cy="93.0" r="2.3" fill="#b9bdca" opacity="0.5"/><circle cx="479.3" cy="85.5" r="2.3" fill="#b9bdca" opacity="0.5"/><circle cx="499.7" cy="334.8" r="2.3" fill="#b9bdca" opacity="0.5"/><circle cx="502.0" cy="86.3" r="2.3" fill="#b9bdca" opacity="0.5"/><circle cx="508.9" cy="85.5" r="2.3" fill="#b9bdca" opacity="0.5"/><circle cx="510.1" cy="84.6" r="2.3" fill="#b9bdca" opacity="0.5"/><circle cx="513.0" cy="87.8" r="2.3" fill="#b9bdca" opacity="0.5"/><circle cx="514.2" cy="84.4" r="2.3" fill="#b9bdca" opacity="0.5"/><circle cx="514.8" cy="84.8" r="2.3" fill="#b9bdca" opacity="0.5"/><circle cx="516.9" cy="87.4" r="2.3" fill="#b9bdca" opacity="0.5"/><circle cx="527.8" cy="84.4" r="2.3" fill="#b9bdca" opacity="0.5"/><circle cx="576.0" cy="89.3" r="2.3" fill="#b9bdca" opacity="0.5"/><circle cx="584.6" cy="88.6" r="2.3" fill="#b9bdca" opacity="0.5"/><circle cx="584.6" cy="92.1" r="2.3" fill="#b9bdca" opacity="0.5"/><circle cx="586.5" cy="156.8" r="2.3" fill="#b9bdca" opacity="0.5"/><circle cx="614.3" cy="201.6" r="2.3" fill="#b9bdca" opacity="0.5"/><circle cx="634.5" cy="315.6" r="2.3" fill="#b9bdca" opacity="0.5"/><circle cx="690.0" cy="87.7" r="2.3" fill="#b9bdca" opacity="0.5"/><circle cx="706.8" cy="87.6" r="2.3" fill="#b9bdca" opacity="0.5"/><circle cx="721.7" cy="87.2" r="2.3" fill="#b9bdca" opacity="0.5"/><circle cx="725.1" cy="88.8" r="2.3" fill="#b9bdca" opacity="0.5"/><circle cx="726.4" cy="89.2" r="2.3" fill="#b9bdca" opacity="0.5"/><circle cx="727.2" cy="90.9" r="2.3" fill="#b9bdca" opacity="0.5"/><circle cx="731.4" cy="87.7" r="2.3" fill="#b9bdca" opacity="0.5"/><circle cx="746.4" cy="88.6" r="2.3" fill="#b9bdca" opacity="0.5"/><circle cx="748.3" cy="89.7" r="2.3" fill="#b9bdca" opacity="0.5"/><circle cx="749.6" cy="88.2" r="2.3" fill="#b9bdca" opacity="0.5"/><circle cx="777.8" cy="75.8" r="2.3" fill="#b9bdca" opacity="0.5"/><circle cx="780.0" cy="75.7" r="2.3" fill="#b9bdca" opacity="0.5"/><circle cx="781.6" cy="76.7" r="2.3" fill="#b9bdca" opacity="0.5"/><circle cx="781.7" cy="75.8" r="2.3" fill="#b9bdca" opacity="0.5"/><circle cx="782.6" cy="75.3" r="2.3" fill="#b9bdca" opacity="0.5"/><circle cx="783.0" cy="74.7" r="2.3" fill="#b9bdca" opacity="0.5"/><circle cx="783.3" cy="83.4" r="2.3" fill="#b9bdca" opacity="0.5"/><circle cx="783.9" cy="76.2" r="2.3" fill="#b9bdca" opacity="0.5"/><circle cx="784.6" cy="78.1" r="2.3" fill="#b9bdca" opacity="0.5"/><circle cx="785.3" cy="74.7" r="2.3" fill="#b9bdca" opacity="0.5"/><circle cx="789.9" cy="89.3" r="2.3" fill="#b9bdca" opacity="0.5"/><circle cx="799.3" cy="74.4" r="2.3" fill="#b9bdca" opacity="0.5"/><circle cx="814.3" cy="74.4" r="2.3" fill="#b9bdca" opacity="0.5"/><circle cx="816.7" cy="335.1" r="2.3" fill="#b9bdca" opacity="0.5"/><circle cx="816.7" cy="81.7" r="2.3" fill="#b9bdca" opacity="0.5"/><circle cx="818.5" cy="74.6" r="2.3" fill="#b9bdca" opacity="0.5"/><circle cx="818.5" cy="82.1" r="2.3" fill="#b9bdca" opacity="0.5"/><circle cx="818.6" cy="73.9" r="2.3" fill="#b9bdca" opacity="0.5"/><circle cx="822.8" cy="76.2" r="2.3" fill="#b9bdca" opacity="0.5"/><circle cx="823.5" cy="82.1" r="2.3" fill="#b9bdca" opacity="0.5"/><circle cx="824.1" cy="74.2" r="2.3" fill="#b9bdca" opacity="0.5"/><circle cx="824.1" cy="75.0" r="2.3" fill="#b9bdca" opacity="0.5"/><circle cx="825.0" cy="73.6" r="2.3" fill="#b9bdca" opacity="0.5"/><circle cx="825.1" cy="83.3" r="2.3" fill="#b9bdca" opacity="0.5"/><circle cx="825.1" cy="83.8" r="2.3" fill="#b9bdca" opacity="0.5"/><circle cx="825.1" cy="78.1" r="2.3" fill="#b9bdca" opacity="0.5"/><circle cx="825.1" cy="81.5" r="2.3" fill="#b9bdca" opacity="0.5"/><circle cx="825.1" cy="83.0" r="2.3" fill="#b9bdca" opacity="0.5"/><circle cx="825.1" cy="83.7" r="2.3" fill="#b9bdca" opacity="0.5"/><circle cx="831.0" cy="82.7" r="2.3" fill="#b9bdca" opacity="0.5"/><circle cx="832.3" cy="77.8" r="2.3" fill="#b9bdca" opacity="0.5"/><circle cx="835.4" cy="69.8" r="2.3" fill="#b9bdca" opacity="0.5"/><circle cx="836.5" cy="75.9" r="2.3" fill="#b9bdca" opacity="0.5"/><circle cx="836.9" cy="74.3" r="2.3" fill="#b9bdca" opacity="0.5"/><circle cx="836.9" cy="77.4" r="2.3" fill="#b9bdca" opacity="0.5"/><circle cx="836.9" cy="80.6" r="2.3" fill="#b9bdca" opacity="0.5"/><circle cx="836.9" cy="81.8" r="2.3" fill="#b9bdca" opacity="0.5"/><circle cx="839.0" cy="76.9" r="2.3" fill="#b9bdca" opacity="0.5"/><circle cx="839.0" cy="82.8" r="2.3" fill="#b9bdca" opacity="0.5"/><circle cx="839.0" cy="83.0" r="2.3" fill="#b9bdca" opacity="0.5"/><circle cx="839.0" cy="83.1" r="2.3" fill="#b9bdca" opacity="0.5"/><circle cx="840.0" cy="69.1" r="2.3" fill="#b9bdca" opacity="0.5"/><circle cx="842.4" cy="75.5" r="2.3" fill="#b9bdca" opacity="0.5"/><circle cx="843.8" cy="74.3" r="2.3" fill="#b9bdca" opacity="0.5"/><circle cx="881.6" cy="74.0" r="2.3" fill="#b9bdca" opacity="0.5"/><circle cx="926.4" cy="73.4" r="2.3" fill="#b9bdca" opacity="0.5"/><circle cx="926.8" cy="75.9" r="2.3" fill="#b9bdca" opacity="0.5"/><circle cx="926.8" cy="76.3" r="2.3" fill="#b9bdca" opacity="0.5"/><circle cx="927.1" cy="76.0" r="2.3" fill="#b9bdca" opacity="0.5"/><circle cx="927.1" cy="76.8" r="2.3" fill="#b9bdca" opacity="0.5"/><circle cx="927.1" cy="81.2" r="2.3" fill="#b9bdca" opacity="0.5"/><circle cx="927.1" cy="83.4" r="2.3" fill="#b9bdca" opacity="0.5"/><circle cx="958.8" cy="76.6" r="2.3" fill="#b9bdca" opacity="0.5"/><circle cx="961.0" cy="76.7" r="2.3" fill="#b9bdca" opacity="0.5"/><circle cx="961.0" cy="82.8" r="2.3" fill="#b9bdca" opacity="0.5"/><circle cx="961.0" cy="82.8" r="2.3" fill="#b9bdca" opacity="0.5"/><circle cx="961.0" cy="83.3" r="2.3" fill="#b9bdca" opacity="0.5"/><circle cx="967.6" cy="233.4" r="2.3" fill="#b9bdca" opacity="0.5"/><circle cx="969.6" cy="228.9" r="2.3" fill="#b9bdca" opacity="0.5"/><circle cx="971.6" cy="198.3" r="2.3" fill="#b9bdca" opacity="0.5"/><circle cx="1012.8" cy="73.4" r="2.3" fill="#b9bdca" opacity="0.5"/><circle cx="1024.3" cy="192.4" r="2.3" fill="#b9bdca" opacity="0.5"/><circle cx="1028.4" cy="75.3" r="2.3" fill="#b9bdca" opacity="0.5"/><circle cx="1029.4" cy="74.0" r="2.3" fill="#b9bdca" opacity="0.5"/><circle cx="1032.0" cy="194.4" r="2.3" fill="#b9bdca" opacity="0.5"/><path d="M250.2 152.3L253.8 155.9L250.2 159.5L246.6 155.9Z" fill="#2b3a7a" opacity="0.8" stroke="none" stroke-width="0"/><path d="M262.5 138.2L266.1 141.8L262.5 145.4L258.9 141.8Z" fill="#2b3a7a" opacity="0.8" stroke="none" stroke-width="0"/><path d="M264.2 128.1L267.8 131.7L264.2 135.3L260.6 131.7Z" fill="#2b3a7a" opacity="0.8" stroke="none" stroke-width="0"/><path d="M264.4 130.5L268.0 134.1L264.4 137.7L260.8 134.1Z" fill="#2b3a7a" opacity="0.8" stroke="none" stroke-width="0"/><path d="M265.7 127.3L269.3 130.9L265.7 134.5L262.1 130.9Z" fill="#2b3a7a" opacity="0.8" stroke="none" stroke-width="0"/><path d="M266.3 125.9L269.9 129.5L266.3 133.1L262.7 129.5Z" fill="#2b3a7a" opacity="0.8" stroke="none" stroke-width="0"/><path d="M266.4 127.3L270.0 130.9L266.4 134.5L262.8 130.9Z" fill="#2b3a7a" opacity="0.8" stroke="none" stroke-width="0"/><path d="M304.7 125.9L308.3 129.5L304.7 133.1L301.1 129.5Z" fill="#2b3a7a" opacity="0.8" stroke="none" stroke-width="0"/><path d="M310.5 125.3L314.1 128.9L310.5 132.5L306.9 128.9Z" fill="#2b3a7a" opacity="0.8" stroke="none" stroke-width="0"/><path d="M316.0 124.8L319.6 128.4L316.0 132.0L312.4 128.4Z" fill="#2b3a7a" opacity="0.8" stroke="none" stroke-width="0"/><path d="M319.8 124.6L323.4 128.2L319.8 131.8L316.2 128.2Z" fill="#2b3a7a" opacity="0.8" stroke="none" stroke-width="0"/><path d="M337.2 124.4L340.8 128.0L337.2 131.6L333.6 128.0Z" fill="#2b3a7a" opacity="0.8" stroke="none" stroke-width="0"/><path d="M355.3 109.2L358.9 112.8L355.3 116.4L351.7 112.8Z" fill="#2b3a7a" opacity="0.8" stroke="none" stroke-width="0"/><path d="M363.9 108.0L367.5 111.6L363.9 115.2L360.3 111.6Z" fill="#2b3a7a" opacity="0.8" stroke="none" stroke-width="0"/><path d="M366.4 101.9L370.0 105.5L366.4 109.1L362.8 105.5Z" fill="#2b3a7a" opacity="0.8" stroke="none" stroke-width="0"/><path d="M366.8 104.9L370.4 108.5L366.8 112.1L363.2 108.5Z" fill="#2b3a7a" opacity="0.8" stroke="none" stroke-width="0"/><path d="M367.9 101.5L371.5 105.1L367.9 108.7L364.3 105.1Z" fill="#2b3a7a" opacity="0.8" stroke="none" stroke-width="0"/><path d="M369.0 100.2L372.6 103.8L369.0 107.4L365.4 103.8Z" fill="#2b3a7a" opacity="0.8" stroke="none" stroke-width="0"/><path d="M381.5 99.9L385.1 103.5L381.5 107.1L377.9 103.5Z" fill="#2b3a7a" opacity="0.8" stroke="none" stroke-width="0"/><path d="M405.1 86.0L408.7 89.6L405.1 93.2L401.5 89.6Z" fill="#2b3a7a" opacity="0.8" stroke="none" stroke-width="0"/><path d="M409.3 85.7L412.9 89.3L409.3 92.9L405.7 89.3Z" fill="#2b3a7a" opacity="0.8" stroke="none" stroke-width="0"/><path d="M410.1 84.0L413.7 87.6L410.1 91.2L406.5 87.6Z" fill="#2b3a7a" opacity="0.8" stroke="none" stroke-width="0"/><path d="M414.3 81.8L417.9 85.4L414.3 89.0L410.7 85.4Z" fill="#2b3a7a" opacity="0.8" stroke="none" stroke-width="0"/><path d="M427.5 80.8L431.1 84.4L427.5 88.0L423.9 84.4Z" fill="#2b3a7a" opacity="0.8" stroke="none" stroke-width="0"/><path d="M527.8 80.8L531.4 84.4L527.8 88.0L524.2 84.4Z" fill="#2b3a7a" opacity="0.8" stroke="none" stroke-width="0"/><path d="M777.8 72.2L781.4 75.8L777.8 79.4L774.2 75.8Z" fill="#2b3a7a" opacity="0.8" stroke="none" stroke-width="0"/><path d="M780.0 72.1L783.6 75.7L780.0 79.3L776.4 75.7Z" fill="#2b3a7a" opacity="0.8" stroke="none" stroke-width="0"/><path d="M782.6 71.7L786.2 75.3L782.6 78.9L779.0 75.3Z" fill="#2b3a7a" opacity="0.8" stroke="none" stroke-width="0"/><path d="M783.0 71.1L786.6 74.7L783.0 78.3L779.4 74.7Z" fill="#2b3a7a" opacity="0.8" stroke="none" stroke-width="0"/><path d="M785.3 71.1L788.9 74.7L785.3 78.3L781.7 74.7Z" fill="#2b3a7a" opacity="0.8" stroke="none" stroke-width="0"/><path d="M799.3 70.8L802.9 74.4L799.3 78.0L795.7 74.4Z" fill="#2b3a7a" opacity="0.8" stroke="none" stroke-width="0"/><path d="M818.6 70.3L822.2 73.9L818.6 77.5L815.0 73.9Z" fill="#2b3a7a" opacity="0.8" stroke="none" stroke-width="0"/><path d="M825.0 70.0L828.6 73.6L825.0 77.2L821.4 73.6Z" fill="#2b3a7a" opacity="0.8" stroke="none" stroke-width="0"/><path d="M926.4 69.8L930.0 73.4L926.4 77.0L922.8 73.4Z" fill="#2b3a7a" opacity="0.8" stroke="none" stroke-width="0"/><path d="M1012.8 69.8L1016.4 73.4L1012.8 77.0L1009.2 73.4Z" fill="#2b3a7a" opacity="0.8" stroke="none" stroke-width="0"/><path d="M60.0 335.3L63.1 335.3L63.1 335.1L67.4 335.1L67.4 320.7L76.0 320.7L76.0 319.9L79.3 319.9L79.3 315.3L80.1 315.3L80.1 314.9L81.5 314.9L81.5 314.9L132.8 314.9L132.8 238.7L133.7 238.7L133.7 229.0L134.5 229.0L134.5 222.3L135.5 222.3L135.5 220.6L135.7 220.6L135.7 220.5L136.3 220.5L136.3 214.2L138.2 214.2L138.2 214.1L138.8 214.1L138.8 213.7L139.2 213.7L139.2 213.5L139.7 213.5L139.7 212.7L142.3 212.7L142.3 212.1L142.9 212.1L142.9 212.0L149.8 212.0L149.8 206.7L157.4 206.7L157.4 204.9L160.3 204.9L160.3 204.6L162.2 204.6L162.2 201.9L165.6 201.9L165.6 201.8L167.3 201.8L167.3 201.0L168.4 201.0L168.4 200.0L173.3 200.0L173.3 200.0L175.3 200.0L175.3 199.7L192.1 199.7L192.1 195.5L204.7 195.5L204.7 187.4L205.0 187.4L205.0 186.2L205.9 186.2L205.9 184.5L227.8 184.5L227.8 183.9L238.6 183.9L238.6 169.3L242.2 169.3L242.2 168.8L242.5 168.8L242.5 167.7L244.6 167.7L244.6 165.0L245.4 165.0L245.4 163.7L245.6 163.7L245.6 163.6L250.2 163.6L250.2 155.9L255.9 155.9L255.9 155.8L258.0 155.8L258.0 141.9L262.5 141.9L262.5 141.8L264.2 141.8L264.2 131.7L265.7 131.7L265.7 130.9L266.3 130.9L266.3 129.5L304.7 129.5L304.7 129.5L310.5 129.5L310.5 128.9L316.0 128.9L316.0 128.4L319.8 128.4L319.8 128.2L337.2 128.2L337.2 128.0L355.3 128.0L355.3 112.8L359.3 112.8L359.3 110.2L366.4 110.2L366.4 105.5L367.9 105.5L367.9 105.1L369.0 105.1L369.0 103.8L381.5 103.8L381.5 103.5L405.1 103.5L405.1 89.6L409.3 89.6L409.3 89.3L410.1 89.3L410.1 87.6L414.3 87.6L414.3 85.4L427.5 85.4L427.5 84.4L527.8 84.4L527.8 84.4L777.8 84.4L777.8 75.8L780.0 75.8L780.0 75.7L782.6 75.7L782.6 75.3L783.0 75.3L783.0 74.7L785.3 74.7L785.3 74.7L799.3 74.7L799.3 74.4L818.6 74.4L818.6 73.9L825.0 73.9L825.0 73.6L835.4 73.6L835.4 69.8L840.0 69.8L840.0 69.1L1032.0 69.1" fill="none" stroke="#6675b0" stroke-width="1.6" stroke-dasharray="5 3" opacity="0.75"/><path d="M250.2 155.9L262.5 155.9L262.5 141.8L264.2 141.8L264.2 131.7L265.7 131.7L265.7 130.9L266.3 130.9L266.3 129.5L304.7 129.5L304.7 129.5L310.5 129.5L310.5 128.9L316.0 128.9L316.0 128.4L319.8 128.4L319.8 128.2L337.2 128.2L337.2 128.0L355.3 128.0L355.3 112.8L363.9 112.8L363.9 111.6L366.4 111.6L366.4 105.5L367.9 105.5L367.9 105.1L369.0 105.1L369.0 103.8L381.5 103.8L381.5 103.5L405.1 103.5L405.1 89.6L409.3 89.6L409.3 89.3L410.1 89.3L410.1 87.6L414.3 87.6L414.3 85.4L427.5 85.4L427.5 84.4L527.8 84.4L527.8 84.4L777.8 84.4L777.8 75.8L780.0 75.8L780.0 75.7L782.6 75.7L782.6 75.3L783.0 75.3L783.0 74.7L785.3 74.7L785.3 74.7L799.3 74.7L799.3 74.4L818.6 74.4L818.6 73.9L825.0 73.9L825.0 73.6L835.5 73.6L835.5 73.5L926.4 73.5L926.4 73.4L1012.8 73.4L1012.8 73.4L1032.0 73.4" fill="none" stroke="#2b3a7a" stroke-width="2.6"/><path d="M696.7 246.9L703.2 253.4L696.7 259.9L690.2 253.4Z" fill="#c5961a" opacity="1.0" stroke="#ffffff" stroke-width="1.4"/><path d="M821.1 206.5L827.6 213.0L821.1 219.5L814.6 213.0Z" fill="#c5961a" opacity="1.0" stroke="#ffffff" stroke-width="1.4"/><path d="M835.5 67.0L842.0 73.5L835.5 80.0L829.0 73.5Z" fill="#c5961a" opacity="1.0" stroke="#ffffff" stroke-width="1.4"/><path d="M942.0 240.8L948.5 247.3L942.0 253.8L935.5 247.3Z" fill="#c5961a" opacity="1.0" stroke="#ffffff" stroke-width="1.4"/><path d="M942.8 238.0L949.3 244.5L942.8 251.0L936.3 244.5Z" fill="#c5961a" opacity="1.0" stroke="#ffffff" stroke-width="1.4"/><text x="1042" y="67.1" font-size="11.5" fill="#6675b0">– – raw best 513.8</text><text x="1042" y="81.1" font-size="10" fill="#8a8fa3">unverified (pending)</text><path d="M1012.8 66.9L1019.3 73.4L1012.8 79.9L1006.3 73.4Z" fill="#2b3a7a" opacity="1.0" stroke="#ffffff" stroke-width="1.4"/><text x="1042" y="101.4" font-size="12.5" fill="#2b3a7a" font-weight="bold">◆ verified 507.0</text><text x="1042" y="117.4" font-size="10.5" fill="#3a3f55">top verified</text><text x="60" y="24" font-size="13" font-weight="bold" fill="#3a3f55" letter-spacing="1.2">SCORE EVOLUTION — gemma-challenge (tok/s)</text><circle cx="452" cy="20" r="3" fill="#b9bdca"/><text x="460" y="24" font-size="10.5" fill="#8a8fa3">all results</text><path d="M544.0 16.4L547.6 20.0L544.0 23.6L540.4 20.0Z" fill="#2b3a7a" opacity="1.0" stroke="none" stroke-width="0"/><text x="552" y="24" font-size="10.5" fill="#8a8fa3">verified</text><path d="M620.0 15.5L624.5 20.0L620.0 24.5L615.5 20.0Z" fill="#c5961a" opacity="1.0" stroke="#fff" stroke-width="1"/><text x="629" y="24" font-size="10.5" fill="#8a8fa3">mikasa-inbound (us)</text></svg>