<svg viewBox="0 0 1200 440" xmlns="http://www.w3.org/2000/svg" font-family="ui-sans-serif,system-ui,-apple-system,sans-serif"><rect x="0" y="0" width="1200" height="440" fill="#ffffff"/><rect x="60" y="46" width="972" height="350" fill="#f3f4fb"/><line x1="60" y1="396.0" x2="1032" y2="396.0" stroke="#e3e5ef" stroke-width="1"/><text x="52" y="400.0" text-anchor="end" font-size="11" fill="#8a8fa3">0</text><line x1="60" y1="332.4" x2="1032" y2="332.4" stroke="#e3e5ef" stroke-width="1"/><text x="52" y="336.4" text-anchor="end" font-size="11" fill="#8a8fa3">100</text><line x1="60" y1="268.7" x2="1032" y2="268.7" stroke="#e3e5ef" stroke-width="1"/><text x="52" y="272.7" text-anchor="end" font-size="11" fill="#8a8fa3">200</text><line x1="60" y1="205.1" x2="1032" y2="205.1" stroke="#e3e5ef" stroke-width="1"/><text x="52" y="209.1" text-anchor="end" font-size="11" fill="#8a8fa3">300</text><line x1="60" y1="141.5" x2="1032" y2="141.5" stroke="#e3e5ef" stroke-width="1"/><text x="52" y="145.5" text-anchor="end" font-size="11" fill="#8a8fa3">400</text><line x1="60" y1="77.8" x2="1032" y2="77.8" stroke="#e3e5ef" stroke-width="1"/><text x="52" y="81.8" text-anchor="end" font-size="11" fill="#8a8fa3">500</text><line x1="90.4" y1="46" x2="90.4" y2="396" stroke="#e3e5ef" stroke-width="1"/><text x="90.4" y="414.0" text-anchor="middle" font-size="11" fill="#8a8fa3">Jun 10</text><line x1="133.8" y1="46" x2="133.8" y2="396" stroke="#e3e5ef" stroke-width="1"/><text x="133.8" y="414.0" text-anchor="middle" font-size="11" fill="#8a8fa3">Jun 12</text><line x1="177.2" y1="46" x2="177.2" y2="396" stroke="#e3e5ef" stroke-width="1"/><text x="177.2" y="414.0" text-anchor="middle" font-size="11" fill="#8a8fa3">Jun 14</text><line x1="220.6" y1="46" x2="220.6" y2="396" stroke="#e3e5ef" stroke-width="1"/><text x="220.6" y="414.0" text-anchor="middle" font-size="11" fill="#8a8fa3">Jun 16</text><line x1="264.0" y1="46" x2="264.0" y2="396" stroke="#e3e5ef" stroke-width="1"/><text x="264.0" y="414.0" text-anchor="middle" font-size="11" fill="#8a8fa3">Jun 18</text><line x1="307.4" y1="46" x2="307.4" y2="396" stroke="#e3e5ef" stroke-width="1"/><text x="307.4" y="414.0" text-anchor="middle" font-size="11" fill="#8a8fa3">Jun 20</text><line x1="350.7" y1="46" x2="350.7" y2="396" stroke="#e3e5ef" stroke-width="1"/><text x="350.7" y="414.0" text-anchor="middle" font-size="11" fill="#8a8fa3">Jun 22</text><line x1="394.1" y1="46" x2="394.1" y2="396" stroke="#e3e5ef" stroke-width="1"/><text x="394.1" y="414.0" text-anchor="middle" font-size="11" fill="#8a8fa3">Jun 24</text><line x1="437.5" y1="46" x2="437.5" y2="396" stroke="#e3e5ef" stroke-width="1"/><text x="437.5" y="414.0" text-anchor="middle" font-size="11" fill="#8a8fa3">Jun 26</text><line x1="480.9" y1="46" x2="480.9" y2="396" stroke="#e3e5ef" stroke-width="1"/><text x="480.9" y="414.0" text-anchor="middle" font-size="11" fill="#8a8fa3">Jun 28</text><line x1="524.3" y1="46" x2="524.3" y2="396" stroke="#e3e5ef" stroke-width="1"/><text x="524.3" y="414.0" text-anchor="middle" font-size="11" fill="#8a8fa3">Jun 30</text><line x1="567.7" y1="46" x2="567.7" y2="396" stroke="#e3e5ef" stroke-width="1"/><text x="567.7" y="414.0" text-anchor="middle" font-size="11" fill="#8a8fa3">Jul 2</text><line x1="611.1" y1="46" x2="611.1" y2="396" stroke="#e3e5ef" stroke-width="1"/><text x="611.1" y="414.0" text-anchor="middle" font-size="11" fill="#8a8fa3">Jul 4</text><line x1="654.5" y1="46" x2="654.5" y2="396" stroke="#e3e5ef" stroke-width="1"/><text x="654.5" y="414.0" text-anchor="middle" font-size="11" fill="#8a8fa3">Jul 6</text><line x1="697.9" y1="46" x2="697.9" y2="396" stroke="#e3e5ef" stroke-width="1"/><text x="697.9" y="414.0" text-anchor="middle" font-size="11" fill="#8a8fa3">Jul 8</text><line x1="741.2" y1="46" x2="741.2" y2="396" stroke="#e3e5ef" stroke-width="1"/><text x="741.2" y="414.0" text-anchor="middle" font-size="11" fill="#8a8fa3">Jul 10</text><line x1="784.6" y1="46" x2="784.6" y2="396" stroke="#e3e5ef" stroke-width="1"/><text x="784.6" y="414.0" text-anchor="middle" font-size="11" fill="#8a8fa3">Jul 12</text><line x1="828.0" y1="46" x2="828.0" y2="396" stroke="#e3e5ef" stroke-width="1"/><text x="828.0" y="414.0" text-anchor="middle" font-size="11" fill="#8a8fa3">Jul 14</text><line x1="871.4" y1="46" x2="871.4" y2="396" stroke="#e3e5ef" stroke-width="1"/><text x="871.4" y="414.0" text-anchor="middle" font-size="11" fill="#8a8fa3">Jul 16</text><line x1="914.8" y1="46" x2="914.8" y2="396" stroke="#e3e5ef" stroke-width="1"/><text x="914.8" y="414.0" text-anchor="middle" font-size="11" fill="#8a8fa3">Jul 18</text><line x1="958.2" y1="46" x2="958.2" y2="396" stroke="#e3e5ef" stroke-width="1"/><text x="958.2" y="414.0" text-anchor="middle" font-size="11" fill="#8a8fa3">Jul 20</text><line x1="1001.6" y1="46" x2="1001.6" y2="396" stroke="#e3e5ef" stroke-width="1"/><text x="1001.6" y="414.0" text-anchor="middle" font-size="11" fill="#8a8fa3">Jul 22</text><circle cx="60.0" cy="335.3" r="2.3" fill="#b9bdca" opacity="0.5"/><circle cx="61.0" cy="335.1" r="2.3" fill="#b9bdca" opacity="0.5"/><circle cx="62.1" cy="368.0" r="2.3" fill="#b9bdca" opacity="0.5"/><circle cx="62.5" cy="320.7" r="2.3" fill="#b9bdca" opacity="0.5"/><circle cx="65.4" cy="319.9" r="2.3" fill="#b9bdca" opacity="0.5"/><circle cx="65.6" cy="320.6" r="2.3" fill="#b9bdca" opacity="0.5"/><circle cx="66.5" cy="315.3" r="2.3" fill="#b9bdca" opacity="0.5"/><circle cx="66.7" cy="319.7" r="2.3" fill="#b9bdca" opacity="0.5"/><circle cx="66.8" cy="314.9" r="2.3" fill="#b9bdca" opacity="0.5"/><circle cx="67.1" cy="315.5" r="2.3" fill="#b9bdca" opacity="0.5"/><circle cx="67.2" cy="314.9" r="2.3" fill="#b9bdca" opacity="0.5"/><circle cx="67.5" cy="315.4" r="2.3" fill="#b9bdca" opacity="0.5"/><circle cx="68.1" cy="315.0" r="2.3" fill="#b9bdca" opacity="0.5"/><circle cx="84.5" cy="238.7" r="2.3" fill="#b9bdca" opacity="0.5"/><circle cx="84.6" cy="315.0" r="2.3" fill="#b9bdca" opacity="0.5"/><circle cx="84.8" cy="229.0" r="2.3" fill="#b9bdca" opacity="0.5"/><circle cx="85.1" cy="222.3" r="2.3" fill="#b9bdca" opacity="0.5"/><circle cx="85.3" cy="228.0" r="2.3" fill="#b9bdca" opacity="0.5"/><circle cx="85.4" cy="223.3" r="2.3" fill="#b9bdca" opacity="0.5"/><circle cx="85.4" cy="220.6" r="2.3" fill="#b9bdca" opacity="0.5"/><circle cx="85.5" cy="220.5" r="2.3" fill="#b9bdca" opacity="0.5"/><circle cx="85.5" cy="223.2" r="2.3" fill="#b9bdca" opacity="0.5"/><circle cx="85.7" cy="214.2" r="2.3" fill="#b9bdca" opacity="0.5"/><circle cx="85.7" cy="222.1" r="2.3" fill="#b9bdca" opacity="0.5"/><circle cx="85.8" cy="220.7" r="2.3" fill="#b9bdca" opacity="0.5"/><circle cx="86.0" cy="218.5" r="2.3" fill="#b9bdca" opacity="0.5"/><circle cx="86.0" cy="215.2" r="2.3" fill="#b9bdca" opacity="0.5"/><circle cx="86.2" cy="214.3" r="2.3" fill="#b9bdca" opacity="0.5"/><circle cx="86.2" cy="219.2" r="2.3" fill="#b9bdca" opacity="0.5"/><circle cx="86.3" cy="214.1" r="2.3" fill="#b9bdca" opacity="0.5"/><circle cx="86.4" cy="215.2" r="2.3" fill="#b9bdca" opacity="0.5"/><circle cx="86.5" cy="213.7" r="2.3" fill="#b9bdca" opacity="0.5"/><circle cx="86.6" cy="213.5" r="2.3" fill="#b9bdca" opacity="0.5"/><circle cx="86.8" cy="214.8" r="2.3" fill="#b9bdca" opacity="0.5"/><circle cx="86.8" cy="217.7" r="2.3" fill="#b9bdca" opacity="0.5"/><circle cx="86.8" cy="212.7" r="2.3" fill="#b9bdca" opacity="0.5"/><circle cx="87.1" cy="213.3" r="2.3" fill="#b9bdca" opacity="0.5"/><circle cx="87.4" cy="212.7" r="2.3" fill="#b9bdca" opacity="0.5"/><circle cx="87.4" cy="213.6" r="2.3" fill="#b9bdca" opacity="0.5"/><circle cx="87.5" cy="213.0" r="2.3" fill="#b9bdca" opacity="0.5"/><circle cx="87.7" cy="212.1" r="2.3" fill="#b9bdca" opacity="0.5"/><circle cx="87.7" cy="213.3" r="2.3" fill="#b9bdca" opacity="0.5"/><circle cx="87.9" cy="212.0" r="2.3" fill="#b9bdca" opacity="0.5"/><circle cx="88.2" cy="212.1" r="2.3" fill="#b9bdca" opacity="0.5"/><circle cx="88.2" cy="212.8" r="2.3" fill="#b9bdca" opacity="0.5"/><circle cx="90.2" cy="206.7" r="2.3" fill="#b9bdca" opacity="0.5"/><circle cx="90.5" cy="206.8" r="2.3" fill="#b9bdca" opacity="0.5"/><circle cx="90.5" cy="212.5" r="2.3" fill="#b9bdca" opacity="0.5"/><circle cx="90.6" cy="207.2" r="2.3" fill="#b9bdca" opacity="0.5"/><circle cx="91.3" cy="207.0" r="2.3" fill="#b9bdca" opacity="0.5"/><circle cx="92.8" cy="204.9" r="2.3" fill="#b9bdca" opacity="0.5"/><circle cx="93.7" cy="204.6" r="2.3" fill="#b9bdca" opacity="0.5"/><circle cx="93.8" cy="212.3" r="2.3" fill="#b9bdca" opacity="0.5"/><circle cx="94.0" cy="204.6" r="2.3" fill="#b9bdca" opacity="0.5"/><circle cx="94.0" cy="204.6" r="2.3" fill="#b9bdca" opacity="0.5"/><circle cx="94.0" cy="204.9" r="2.3" fill="#b9bdca" opacity="0.5"/><circle cx="94.0" cy="204.9" r="2.3" fill="#b9bdca" opacity="0.5"/><circle cx="94.4" cy="201.9" r="2.3" fill="#b9bdca" opacity="0.5"/><circle cx="95.0" cy="206.5" r="2.3" fill="#b9bdca" opacity="0.5"/><circle cx="95.2" cy="205.8" r="2.3" fill="#b9bdca" opacity="0.5"/><circle cx="95.2" cy="335.1" r="2.3" fill="#b9bdca" opacity="0.5"/><circle cx="95.5" cy="201.8" r="2.3" fill="#b9bdca" opacity="0.5"/><circle cx="95.6" cy="202.2" r="2.3" fill="#b9bdca" opacity="0.5"/><circle cx="96.1" cy="201.0" r="2.3" fill="#b9bdca" opacity="0.5"/><circle cx="96.3" cy="203.1" r="2.3" fill="#b9bdca" opacity="0.5"/><circle cx="96.5" cy="200.0" r="2.3" fill="#b9bdca" opacity="0.5"/><circle cx="96.5" cy="204.6" r="2.3" fill="#b9bdca" opacity="0.5"/><circle cx="96.8" cy="202.3" r="2.3" fill="#b9bdca" opacity="0.5"/><circle cx="97.6" cy="200.4" r="2.3" fill="#b9bdca" opacity="0.5"/><circle cx="97.8" cy="200.7" r="2.3" fill="#b9bdca" opacity="0.5"/><circle cx="98.1" cy="200.0" r="2.3" fill="#b9bdca" opacity="0.5"/><circle cx="98.8" cy="199.7" r="2.3" fill="#b9bdca" opacity="0.5"/><circle cx="103.0" cy="200.6" r="2.3" fill="#b9bdca" opacity="0.5"/><circle cx="103.3" cy="201.8" r="2.3" fill="#b9bdca" opacity="0.5"/><circle cx="103.9" cy="208.4" r="2.3" fill="#b9bdca" opacity="0.5"/><circle cx="103.9" cy="200.8" r="2.3" fill="#b9bdca" opacity="0.5"/><circle cx="104.3" cy="200.7" r="2.3" fill="#b9bdca" opacity="0.5"/><circle cx="104.3" cy="201.9" r="2.3" fill="#b9bdca" opacity="0.5"/><circle cx="104.5" cy="195.5" r="2.3" fill="#b9bdca" opacity="0.5"/><circle cx="104.8" cy="196.9" r="2.3" fill="#b9bdca" opacity="0.5"/><circle cx="105.0" cy="197.9" r="2.3" fill="#b9bdca" opacity="0.5"/><circle cx="105.4" cy="196.1" r="2.3" fill="#b9bdca" opacity="0.5"/><circle cx="106.7" cy="197.3" r="2.3" fill="#b9bdca" opacity="0.5"/><circle cx="107.0" cy="195.9" r="2.3" fill="#b9bdca" opacity="0.5"/><circle cx="107.1" cy="201.0" r="2.3" fill="#b9bdca" opacity="0.5"/><circle cx="107.2" cy="197.5" r="2.3" fill="#b9bdca" opacity="0.5"/><circle cx="107.5" cy="196.9" r="2.3" fill="#b9bdca" opacity="0.5"/><circle cx="107.5" cy="197.1" r="2.3" fill="#b9bdca" opacity="0.5"/><circle cx="107.6" cy="197.0" r="2.3" fill="#b9bdca" opacity="0.5"/><circle cx="107.9" cy="196.0" r="2.3" fill="#b9bdca" opacity="0.5"/><circle cx="107.9" cy="196.0" r="2.3" fill="#b9bdca" opacity="0.5"/><circle cx="107.9" cy="197.9" r="2.3" fill="#b9bdca" opacity="0.5"/><circle cx="108.1" cy="197.8" r="2.3" fill="#b9bdca" opacity="0.5"/><circle cx="108.3" cy="196.2" r="2.3" fill="#b9bdca" opacity="0.5"/><circle cx="108.3" cy="197.5" r="2.3" fill="#b9bdca" opacity="0.5"/><circle cx="108.4" cy="196.9" r="2.3" fill="#b9bdca" opacity="0.5"/><circle cx="108.4" cy="195.5" r="2.3" fill="#b9bdca" opacity="0.5"/><circle cx="108.6" cy="198.1" r="2.3" fill="#b9bdca" opacity="0.5"/><circle cx="108.7" cy="187.4" r="2.3" fill="#b9bdca" opacity="0.5"/><circle cx="108.8" cy="186.2" r="2.3" fill="#b9bdca" opacity="0.5"/><circle cx="108.8" cy="196.3" r="2.3" fill="#b9bdca" opacity="0.5"/><circle cx="108.8" cy="197.2" r="2.3" fill="#b9bdca" opacity="0.5"/><circle cx="108.8" cy="197.8" r="2.3" fill="#b9bdca" opacity="0.5"/><circle cx="108.8" cy="368.0" r="2.3" fill="#b9bdca" opacity="0.5"/><circle cx="109.1" cy="184.5" r="2.3" fill="#b9bdca" opacity="0.5"/><circle cx="110.2" cy="184.6" r="2.3" fill="#b9bdca" opacity="0.5"/><circle cx="110.7" cy="185.6" r="2.3" fill="#b9bdca" opacity="0.5"/><circle cx="112.3" cy="188.7" r="2.3" fill="#b9bdca" opacity="0.5"/><circle cx="114.5" cy="185.4" r="2.3" fill="#b9bdca" opacity="0.5"/><circle cx="115.0" cy="185.2" r="2.3" fill="#b9bdca" opacity="0.5"/><circle cx="115.2" cy="186.6" r="2.3" fill="#b9bdca" opacity="0.5"/><circle cx="115.2" cy="185.3" r="2.3" fill="#b9bdca" opacity="0.5"/><circle cx="115.6" cy="185.3" r="2.3" fill="#b9bdca" opacity="0.5"/><circle cx="115.8" cy="185.0" r="2.3" fill="#b9bdca" opacity="0.5"/><circle cx="116.1" cy="184.9" r="2.3" fill="#b9bdca" opacity="0.5"/><circle cx="116.4" cy="185.1" r="2.3" fill="#b9bdca" opacity="0.5"/><circle cx="116.4" cy="185.2" r="2.3" fill="#b9bdca" opacity="0.5"/><circle cx="116.4" cy="186.4" r="2.3" fill="#b9bdca" opacity="0.5"/><circle cx="116.4" cy="183.9" r="2.3" fill="#b9bdca" opacity="0.5"/><circle cx="118.5" cy="184.4" r="2.3" fill="#b9bdca" opacity="0.5"/><circle cx="118.8" cy="184.2" r="2.3" fill="#b9bdca" opacity="0.5"/><circle cx="120.1" cy="169.3" r="2.3" fill="#b9bdca" opacity="0.5"/><circle cx="121.3" cy="168.8" r="2.3" fill="#b9bdca" opacity="0.5"/><circle cx="121.4" cy="167.7" r="2.3" fill="#b9bdca" opacity="0.5"/><circle cx="121.9" cy="201.4" r="2.3" fill="#b9bdca" opacity="0.5"/><circle cx="122.1" cy="165.0" r="2.3" fill="#b9bdca" opacity="0.5"/><circle cx="122.2" cy="198.2" r="2.3" fill="#b9bdca" opacity="0.5"/><circle cx="122.4" cy="163.7" r="2.3" fill="#b9bdca" opacity="0.5"/><circle cx="122.4" cy="163.6" r="2.3" fill="#b9bdca" opacity="0.5"/><circle cx="122.7" cy="165.9" r="2.3" fill="#b9bdca" opacity="0.5"/><circle cx="123.8" cy="165.1" r="2.3" fill="#b9bdca" opacity="0.5"/><circle cx="124.0" cy="155.9" r="2.3" fill="#b9bdca" opacity="0.5"/><circle cx="125.1" cy="196.5" r="2.3" fill="#b9bdca" opacity="0.5"/><circle cx="125.5" cy="157.4" r="2.3" fill="#b9bdca" opacity="0.5"/><circle cx="125.9" cy="155.8" r="2.3" fill="#b9bdca" opacity="0.5"/><circle cx="126.6" cy="141.9" r="2.3" fill="#b9bdca" opacity="0.5"/><circle cx="128.1" cy="156.1" r="2.3" fill="#b9bdca" opacity="0.5"/><circle cx="128.1" cy="156.4" r="2.3" fill="#b9bdca" opacity="0.5"/><circle cx="128.1" cy="141.8" r="2.3" fill="#b9bdca" opacity="0.5"/><circle cx="128.2" cy="196.0" r="2.3" fill="#b9bdca" opacity="0.5"/><circle cx="128.7" cy="131.7" r="2.3" fill="#b9bdca" opacity="0.5"/><circle cx="128.8" cy="134.1" r="2.3" fill="#b9bdca" opacity="0.5"/><circle cx="128.9" cy="141.1" r="2.3" fill="#b9bdca" opacity="0.5"/><circle cx="129.2" cy="134.0" r="2.3" fill="#b9bdca" opacity="0.5"/><circle cx="129.2" cy="130.9" r="2.3" fill="#b9bdca" opacity="0.5"/><circle cx="129.2" cy="154.2" r="2.3" fill="#b9bdca" opacity="0.5"/><circle cx="129.3" cy="133.6" r="2.3" fill="#b9bdca" opacity="0.5"/><circle cx="129.4" cy="129.5" r="2.3" fill="#b9bdca" opacity="0.5"/><circle cx="129.4" cy="130.9" r="2.3" fill="#b9bdca" opacity="0.5"/><circle cx="129.4" cy="133.4" r="2.3" fill="#b9bdca" opacity="0.5"/><circle cx="129.5" cy="131.2" r="2.3" fill="#b9bdca" opacity="0.5"/><circle cx="130.4" cy="189.8" r="2.3" fill="#b9bdca" opacity="0.5"/><circle cx="130.5" cy="133.2" r="2.3" fill="#b9bdca" opacity="0.5"/><circle cx="130.6" cy="133.5" r="2.3" fill="#b9bdca" opacity="0.5"/><circle cx="131.0" cy="130.1" r="2.3" fill="#b9bdca" opacity="0.5"/><circle cx="131.8" cy="130.3" r="2.3" fill="#b9bdca" opacity="0.5"/><circle cx="132.3" cy="303.1" r="2.3" fill="#b9bdca" opacity="0.5"/><circle cx="133.0" cy="133.2" r="2.3" fill="#b9bdca" opacity="0.5"/><circle cx="133.9" cy="144.2" r="2.3" fill="#b9bdca" opacity="0.5"/><circle cx="134.2" cy="135.3" r="2.3" fill="#b9bdca" opacity="0.5"/><circle cx="134.8" cy="133.4" r="2.3" fill="#b9bdca" opacity="0.5"/><circle cx="134.8" cy="159.9" r="2.3" fill="#b9bdca" opacity="0.5"/><circle cx="135.0" cy="130.8" r="2.3" fill="#b9bdca" opacity="0.5"/><circle cx="135.2" cy="133.2" r="2.3" fill="#b9bdca" opacity="0.5"/><circle cx="137.4" cy="130.9" r="2.3" fill="#b9bdca" opacity="0.5"/><circle cx="137.7" cy="130.9" r="2.3" fill="#b9bdca" opacity="0.5"/><circle cx="137.7" cy="133.8" r="2.3" fill="#b9bdca" opacity="0.5"/><circle cx="138.0" cy="130.4" r="2.3" fill="#b9bdca" opacity="0.5"/><circle cx="138.3" cy="153.7" r="2.3" fill="#b9bdca" opacity="0.5"/><circle cx="138.7" cy="133.3" r="2.3" fill="#b9bdca" opacity="0.5"/><circle cx="139.3" cy="156.5" r="2.3" fill="#b9bdca" opacity="0.5"/><circle cx="139.5" cy="132.3" r="2.3" fill="#b9bdca" opacity="0.5"/><circle cx="140.3" cy="147.2" r="2.3" fill="#b9bdca" opacity="0.5"/><circle cx="140.4" cy="133.6" r="2.3" fill="#b9bdca" opacity="0.5"/><circle cx="140.7" cy="129.5" r="2.3" fill="#b9bdca" opacity="0.5"/><circle cx="140.7" cy="133.3" r="2.3" fill="#b9bdca" opacity="0.5"/><circle cx="141.7" cy="133.3" r="2.3" fill="#b9bdca" opacity="0.5"/><circle cx="142.3" cy="129.5" r="2.3" fill="#b9bdca" opacity="0.5"/><circle cx="143.5" cy="130.6" r="2.3" fill="#b9bdca" opacity="0.5"/><circle cx="144.3" cy="128.9" r="2.3" fill="#b9bdca" opacity="0.5"/><circle cx="144.5" cy="132.7" r="2.3" fill="#b9bdca" opacity="0.5"/><circle cx="144.5" cy="133.1" r="2.3" fill="#b9bdca" opacity="0.5"/><circle cx="145.7" cy="129.8" r="2.3" fill="#b9bdca" opacity="0.5"/><circle cx="146.0" cy="333.8" r="2.3" fill="#b9bdca" opacity="0.5"/><circle cx="146.1" cy="128.4" r="2.3" fill="#b9bdca" opacity="0.5"/><circle cx="146.7" cy="129.8" r="2.3" fill="#b9bdca" opacity="0.5"/><circle cx="146.9" cy="128.9" r="2.3" fill="#b9bdca" opacity="0.5"/><circle cx="147.0" cy="128.9" r="2.3" fill="#b9bdca" opacity="0.5"/><circle cx="147.4" cy="128.2" r="2.3" fill="#b9bdca" opacity="0.5"/><circle cx="147.7" cy="129.7" r="2.3" fill="#b9bdca" opacity="0.5"/><circle cx="147.8" cy="142.3" r="2.3" fill="#b9bdca" opacity="0.5"/><circle cx="149.0" cy="128.8" r="2.3" fill="#b9bdca" opacity="0.5"/><circle cx="149.7" cy="161.1" r="2.3" fill="#b9bdca" opacity="0.5"/><circle cx="151.0" cy="164.4" r="2.3" fill="#b9bdca" opacity="0.5"/><circle cx="151.2" cy="248.3" r="2.3" fill="#b9bdca" opacity="0.5"/><circle cx="153.1" cy="135.4" r="2.3" fill="#b9bdca" opacity="0.5"/><circle cx="153.3" cy="128.0" r="2.3" fill="#b9bdca" opacity="0.5"/><circle cx="153.8" cy="229.0" r="2.3" fill="#b9bdca" opacity="0.5"/><circle cx="155.2" cy="128.1" r="2.3" fill="#b9bdca" opacity="0.5"/><circle cx="155.5" cy="128.6" r="2.3" fill="#b9bdca" opacity="0.5"/><circle cx="156.7" cy="128.8" r="2.3" fill="#b9bdca" opacity="0.5"/><circle cx="156.7" cy="129.6" r="2.3" fill="#b9bdca" opacity="0.5"/><circle cx="156.7" cy="130.9" r="2.3" fill="#b9bdca" opacity="0.5"/><circle cx="159.4" cy="112.8" r="2.3" fill="#b9bdca" opacity="0.5"/><circle cx="160.7" cy="110.2" r="2.3" fill="#b9bdca" opacity="0.5"/><circle cx="160.8" cy="111.6" r="2.3" fill="#b9bdca" opacity="0.5"/><circle cx="161.6" cy="111.0" r="2.3" fill="#b9bdca" opacity="0.5"/><circle cx="162.0" cy="335.1" r="2.3" fill="#b9bdca" opacity="0.5"/><circle cx="162.2" cy="111.6" r="2.3" fill="#b9bdca" opacity="0.5"/><circle cx="163.1" cy="105.5" r="2.3" fill="#b9bdca" opacity="0.5"/><circle cx="163.2" cy="108.5" r="2.3" fill="#b9bdca" opacity="0.5"/><circle cx="163.6" cy="105.1" r="2.3" fill="#b9bdca" opacity="0.5"/><circle cx="164.0" cy="103.8" r="2.3" fill="#b9bdca" opacity="0.5"/><circle cx="164.4" cy="125.8" r="2.3" fill="#b9bdca" opacity="0.5"/><circle cx="168.2" cy="103.5" r="2.3" fill="#b9bdca" opacity="0.5"/><circle cx="169.1" cy="127.8" r="2.3" fill="#b9bdca" opacity="0.5"/><circle cx="169.6" cy="334.3" r="2.3" fill="#b9bdca" opacity="0.5"/><circle cx="170.2" cy="128.6" r="2.3" fill="#b9bdca" opacity="0.5"/><circle cx="170.4" cy="128.6" r="2.3" fill="#b9bdca" opacity="0.5"/><circle cx="170.5" cy="128.6" r="2.3" fill="#b9bdca" opacity="0.5"/><circle cx="170.8" cy="256.6" r="2.3" fill="#b9bdca" opacity="0.5"/><circle cx="171.3" cy="254.6" r="2.3" fill="#b9bdca" opacity="0.5"/><circle cx="172.0" cy="128.6" r="2.3" fill="#b9bdca" opacity="0.5"/><circle cx="173.7" cy="250.1" r="2.3" fill="#b9bdca" opacity="0.5"/><circle cx="173.8" cy="161.4" r="2.3" fill="#b9bdca" opacity="0.5"/><circle cx="174.0" cy="206.6" r="2.3" fill="#b9bdca" opacity="0.5"/><circle cx="175.6" cy="113.5" r="2.3" fill="#b9bdca" opacity="0.5"/><circle cx="176.1" cy="89.6" r="2.3" fill="#b9bdca" opacity="0.5"/><circle cx="176.5" cy="90.2" r="2.3" fill="#b9bdca" opacity="0.5"/><circle cx="177.5" cy="89.3" r="2.3" fill="#b9bdca" opacity="0.5"/><circle cx="177.8" cy="87.6" r="2.3" fill="#b9bdca" opacity="0.5"/><circle cx="178.1" cy="185.0" r="2.3" fill="#b9bdca" opacity="0.5"/><circle cx="178.5" cy="131.6" r="2.3" fill="#b9bdca" opacity="0.5"/><circle cx="178.7" cy="87.8" r="2.3" fill="#b9bdca" opacity="0.5"/><circle cx="179.2" cy="85.4" r="2.3" fill="#b9bdca" opacity="0.5"/><circle cx="179.9" cy="86.8" r="2.3" fill="#b9bdca" opacity="0.5"/><circle cx="180.6" cy="88.4" r="2.3" fill="#b9bdca" opacity="0.5"/><circle cx="183.6" cy="89.5" r="2.3" fill="#b9bdca" opacity="0.5"/><circle cx="183.6" cy="155.6" r="2.3" fill="#b9bdca" opacity="0.5"/><circle cx="183.6" cy="84.4" r="2.3" fill="#b9bdca" opacity="0.5"/><circle cx="187.2" cy="89.2" r="2.3" fill="#b9bdca" opacity="0.5"/><circle cx="187.2" cy="90.5" r="2.3" fill="#b9bdca" opacity="0.5"/><circle cx="188.3" cy="87.7" r="2.3" fill="#b9bdca" opacity="0.5"/><circle cx="188.6" cy="367.9" r="2.3" fill="#b9bdca" opacity="0.5"/><circle cx="190.0" cy="164.3" r="2.3" fill="#b9bdca" opacity="0.5"/><circle cx="190.7" cy="94.6" r="2.3" fill="#b9bdca" opacity="0.5"/><circle cx="191.0" cy="89.6" r="2.3" fill="#b9bdca" opacity="0.5"/><circle cx="194.1" cy="124.6" r="2.3" fill="#b9bdca" opacity="0.5"/><circle cx="197.4" cy="146.2" r="2.3" fill="#b9bdca" opacity="0.5"/><circle cx="197.4" cy="90.5" r="2.3" fill="#b9bdca" opacity="0.5"/><circle cx="197.7" cy="87.7" r="2.3" fill="#b9bdca" opacity="0.5"/><circle cx="197.9" cy="87.7" r="2.3" fill="#b9bdca" opacity="0.5"/><circle cx="197.9" cy="89.6" r="2.3" fill="#b9bdca" opacity="0.5"/><circle cx="200.2" cy="93.0" r="2.3" fill="#b9bdca" opacity="0.5"/><circle cx="201.1" cy="85.5" r="2.3" fill="#b9bdca" opacity="0.5"/><circle cx="207.9" cy="334.8" r="2.3" fill="#b9bdca" opacity="0.5"/><circle cx="208.7" cy="86.3" r="2.3" fill="#b9bdca" opacity="0.5"/><circle cx="211.0" cy="85.5" r="2.3" fill="#b9bdca" opacity="0.5"/><circle cx="211.5" cy="84.6" r="2.3" fill="#b9bdca" opacity="0.5"/><circle cx="212.4" cy="87.8" r="2.3" fill="#b9bdca" opacity="0.5"/><circle cx="212.8" cy="84.4" r="2.3" fill="#b9bdca" opacity="0.5"/><circle cx="213.0" cy="84.8" r="2.3" fill="#b9bdca" opacity="0.5"/><circle cx="213.7" cy="87.4" r="2.3" fill="#b9bdca" opacity="0.5"/><circle cx="217.4" cy="84.4" r="2.3" fill="#b9bdca" opacity="0.5"/><circle cx="233.6" cy="89.3" r="2.3" fill="#b9bdca" opacity="0.5"/><circle cx="236.5" cy="88.6" r="2.3" fill="#b9bdca" opacity="0.5"/><circle cx="236.5" cy="92.1" r="2.3" fill="#b9bdca" opacity="0.5"/><circle cx="237.2" cy="156.8" r="2.3" fill="#b9bdca" opacity="0.5"/><circle cx="246.5" cy="201.6" r="2.3" fill="#b9bdca" opacity="0.5"/><circle cx="253.3" cy="315.6" r="2.3" fill="#b9bdca" opacity="0.5"/><circle cx="272.0" cy="87.7" r="2.3" fill="#b9bdca" opacity="0.5"/><circle cx="277.6" cy="87.6" r="2.3" fill="#b9bdca" opacity="0.5"/><circle cx="282.6" cy="87.2" r="2.3" fill="#b9bdca" opacity="0.5"/><circle cx="283.8" cy="88.8" r="2.3" fill="#b9bdca" opacity="0.5"/><circle cx="284.2" cy="89.2" r="2.3" fill="#b9bdca" opacity="0.5"/><circle cx="284.5" cy="90.9" r="2.3" fill="#b9bdca" opacity="0.5"/><circle cx="285.9" cy="87.7" r="2.3" fill="#b9bdca" opacity="0.5"/><circle cx="291.0" cy="88.6" r="2.3" fill="#b9bdca" opacity="0.5"/><circle cx="291.6" cy="89.7" r="2.3" fill="#b9bdca" opacity="0.5"/><circle cx="292.0" cy="88.2" r="2.3" fill="#b9bdca" opacity="0.5"/><circle cx="301.5" cy="75.8" r="2.3" fill="#b9bdca" opacity="0.5"/><circle cx="302.2" cy="75.7" r="2.3" fill="#b9bdca" opacity="0.5"/><circle cx="302.8" cy="76.7" r="2.3" fill="#b9bdca" opacity="0.5"/><circle cx="302.8" cy="75.8" r="2.3" fill="#b9bdca" opacity="0.5"/><circle cx="303.1" cy="75.3" r="2.3" fill="#b9bdca" opacity="0.5"/><circle cx="303.3" cy="74.7" r="2.3" fill="#b9bdca" opacity="0.5"/><circle cx="303.4" cy="83.4" r="2.3" fill="#b9bdca" opacity="0.5"/><circle cx="303.6" cy="76.2" r="2.3" fill="#b9bdca" opacity="0.5"/><circle cx="303.8" cy="78.1" r="2.3" fill="#b9bdca" opacity="0.5"/><circle cx="304.0" cy="74.7" r="2.3" fill="#b9bdca" opacity="0.5"/><circle cx="305.6" cy="89.3" r="2.3" fill="#b9bdca" opacity="0.5"/><circle cx="308.8" cy="74.4" r="2.3" fill="#b9bdca" opacity="0.5"/><circle cx="313.8" cy="74.4" r="2.3" fill="#b9bdca" opacity="0.5"/><circle cx="314.6" cy="335.1" r="2.3" fill="#b9bdca" opacity="0.5"/><circle cx="314.6" cy="81.7" r="2.3" fill="#b9bdca" opacity="0.5"/><circle cx="315.2" cy="74.6" r="2.3" fill="#b9bdca" opacity="0.5"/><circle cx="315.2" cy="82.1" r="2.3" fill="#b9bdca" opacity="0.5"/><circle cx="315.2" cy="73.9" r="2.3" fill="#b9bdca" opacity="0.5"/><circle cx="316.7" cy="76.2" r="2.3" fill="#b9bdca" opacity="0.5"/><circle cx="316.9" cy="82.1" r="2.3" fill="#b9bdca" opacity="0.5"/><circle cx="317.1" cy="74.2" r="2.3" fill="#b9bdca" opacity="0.5"/><circle cx="317.1" cy="75.0" r="2.3" fill="#b9bdca" opacity="0.5"/><circle cx="317.4" cy="73.6" r="2.3" fill="#b9bdca" opacity="0.5"/><circle cx="317.4" cy="83.3" r="2.3" fill="#b9bdca" opacity="0.5"/><circle cx="317.4" cy="83.8" r="2.3" fill="#b9bdca" opacity="0.5"/><circle cx="317.4" cy="78.1" r="2.3" fill="#b9bdca" opacity="0.5"/><circle cx="317.4" cy="81.5" r="2.3" fill="#b9bdca" opacity="0.5"/><circle cx="317.4" cy="83.0" r="2.3" fill="#b9bdca" opacity="0.5"/><circle cx="317.4" cy="83.7" r="2.3" fill="#b9bdca" opacity="0.5"/><circle cx="319.4" cy="82.7" r="2.3" fill="#b9bdca" opacity="0.5"/><circle cx="319.9" cy="77.8" r="2.3" fill="#b9bdca" opacity="0.5"/><circle cx="320.9" cy="69.8" r="2.3" fill="#b9bdca" opacity="0.5"/><circle cx="321.2" cy="75.9" r="2.3" fill="#b9bdca" opacity="0.5"/><circle cx="321.4" cy="74.3" r="2.3" fill="#b9bdca" opacity="0.5"/><circle cx="321.4" cy="77.4" r="2.3" fill="#b9bdca" opacity="0.5"/><circle cx="321.4" cy="80.6" r="2.3" fill="#b9bdca" opacity="0.5"/><circle cx="321.4" cy="81.8" r="2.3" fill="#b9bdca" opacity="0.5"/><circle cx="322.1" cy="76.9" r="2.3" fill="#b9bdca" opacity="0.5"/><circle cx="322.1" cy="82.8" r="2.3" fill="#b9bdca" opacity="0.5"/><circle cx="322.1" cy="83.0" r="2.3" fill="#b9bdca" opacity="0.5"/><circle cx="322.1" cy="83.1" r="2.3" fill="#b9bdca" opacity="0.5"/><circle cx="322.4" cy="69.1" r="2.3" fill="#b9bdca" opacity="0.5"/><circle cx="323.3" cy="75.5" r="2.3" fill="#b9bdca" opacity="0.5"/><circle cx="323.7" cy="74.3" r="2.3" fill="#b9bdca" opacity="0.5"/><circle cx="336.4" cy="74.0" r="2.3" fill="#b9bdca" opacity="0.5"/><circle cx="351.5" cy="73.4" r="2.3" fill="#b9bdca" opacity="0.5"/><circle cx="351.6" cy="75.9" r="2.3" fill="#b9bdca" opacity="0.5"/><circle cx="351.6" cy="76.3" r="2.3" fill="#b9bdca" opacity="0.5"/><circle cx="351.8" cy="76.0" r="2.3" fill="#b9bdca" opacity="0.5"/><circle cx="351.8" cy="76.8" r="2.3" fill="#b9bdca" opacity="0.5"/><circle cx="351.8" cy="81.2" r="2.3" fill="#b9bdca" opacity="0.5"/><circle cx="351.8" cy="83.4" r="2.3" fill="#b9bdca" opacity="0.5"/><circle cx="362.4" cy="76.6" r="2.3" fill="#b9bdca" opacity="0.5"/><circle cx="363.1" cy="76.7" r="2.3" fill="#b9bdca" opacity="0.5"/><circle cx="363.1" cy="82.8" r="2.3" fill="#b9bdca" opacity="0.5"/><circle cx="363.1" cy="82.8" r="2.3" fill="#b9bdca" opacity="0.5"/><circle cx="363.1" cy="83.3" r="2.3" fill="#b9bdca" opacity="0.5"/><circle cx="365.4" cy="233.4" r="2.3" fill="#b9bdca" opacity="0.5"/><circle cx="366.0" cy="228.9" r="2.3" fill="#b9bdca" opacity="0.5"/><circle cx="366.7" cy="198.3" r="2.3" fill="#b9bdca" opacity="0.5"/><circle cx="380.6" cy="73.4" r="2.3" fill="#b9bdca" opacity="0.5"/><circle cx="384.5" cy="192.4" r="2.3" fill="#b9bdca" opacity="0.5"/><circle cx="385.8" cy="75.3" r="2.3" fill="#b9bdca" opacity="0.5"/><circle cx="386.2" cy="74.0" r="2.3" fill="#b9bdca" opacity="0.5"/><circle cx="387.0" cy="194.4" r="2.3" fill="#b9bdca" opacity="0.5"/><circle cx="388.4" cy="168.6" r="2.3" fill="#b9bdca" opacity="0.5"/><circle cx="389.2" cy="77.1" r="2.3" fill="#b9bdca" opacity="0.5"/><circle cx="389.2" cy="99.5" r="2.3" fill="#b9bdca" opacity="0.5"/><circle cx="399.9" cy="71.4" r="2.3" fill="#b9bdca" opacity="0.5"/><circle cx="399.9" cy="73.5" r="2.3" fill="#b9bdca" opacity="0.5"/><circle cx="403.8" cy="72.4" r="2.3" fill="#b9bdca" opacity="0.5"/><circle cx="419.4" cy="83.0" r="2.3" fill="#b9bdca" opacity="0.5"/><circle cx="419.6" cy="72.1" r="2.3" fill="#b9bdca" opacity="0.5"/><circle cx="419.8" cy="71.6" r="2.3" fill="#b9bdca" opacity="0.5"/><circle cx="420.3" cy="75.5" r="2.3" fill="#b9bdca" opacity="0.5"/><circle cx="420.6" cy="73.7" r="2.3" fill="#b9bdca" opacity="0.5"/><circle cx="421.2" cy="72.9" r="2.3" fill="#b9bdca" opacity="0.5"/><circle cx="421.5" cy="73.4" r="2.3" fill="#b9bdca" opacity="0.5"/><circle cx="452.1" cy="85.2" r="2.3" fill="#b9bdca" opacity="0.5"/><circle cx="452.1" cy="256.6" r="2.3" fill="#b9bdca" opacity="0.5"/><circle cx="452.1" cy="335.3" r="2.3" fill="#b9bdca" opacity="0.5"/><circle cx="452.3" cy="86.8" r="2.3" fill="#b9bdca" opacity="0.5"/><circle cx="452.6" cy="71.5" r="2.3" fill="#b9bdca" opacity="0.5"/><circle cx="453.4" cy="71.0" r="2.3" fill="#b9bdca" opacity="0.5"/><circle cx="453.8" cy="71.5" r="2.3" fill="#b9bdca" opacity="0.5"/><circle cx="453.9" cy="55.0" r="2.3" fill="#b9bdca" opacity="0.5"/><circle cx="458.2" cy="83.1" r="2.3" fill="#b9bdca" opacity="0.5"/><circle cx="459.2" cy="74.7" r="2.3" fill="#b9bdca" opacity="0.5"/><circle cx="459.3" cy="59.3" r="2.3" fill="#b9bdca" opacity="0.5"/><circle cx="459.3" cy="79.9" r="2.3" fill="#b9bdca" opacity="0.5"/><circle cx="459.4" cy="74.1" r="2.3" fill="#b9bdca" opacity="0.5"/><circle cx="459.6" cy="72.7" r="2.3" fill="#b9bdca" opacity="0.5"/><circle cx="459.6" cy="73.8" r="2.3" fill="#b9bdca" opacity="0.5"/><circle cx="459.6" cy="75.9" r="2.3" fill="#b9bdca" opacity="0.5"/><circle cx="459.8" cy="74.1" r="2.3" fill="#b9bdca" opacity="0.5"/><circle cx="460.1" cy="73.5" r="2.3" fill="#b9bdca" opacity="0.5"/><circle cx="460.3" cy="74.2" r="2.3" fill="#b9bdca" opacity="0.5"/><circle cx="460.5" cy="71.5" r="2.3" fill="#b9bdca" opacity="0.5"/><circle cx="461.2" cy="74.3" r="2.3" fill="#b9bdca" opacity="0.5"/><circle cx="464.6" cy="73.2" r="2.3" fill="#b9bdca" opacity="0.5"/><circle cx="464.6" cy="73.6" r="2.3" fill="#b9bdca" opacity="0.5"/><circle cx="464.6" cy="73.8" r="2.3" fill="#b9bdca" opacity="0.5"/><circle cx="471.2" cy="73.3" r="2.3" fill="#b9bdca" opacity="0.5"/><circle cx="471.2" cy="73.4" r="2.3" fill="#b9bdca" opacity="0.5"/><circle cx="486.2" cy="96.1" r="2.3" fill="#b9bdca" opacity="0.5"/><circle cx="547.8" cy="95.6" r="2.3" fill="#b9bdca" opacity="0.5"/><circle cx="568.2" cy="74.8" r="2.3" fill="#b9bdca" opacity="0.5"/><circle cx="569.2" cy="72.3" r="2.3" fill="#b9bdca" opacity="0.5"/><circle cx="575.0" cy="79.9" r="2.3" fill="#b9bdca" opacity="0.5"/><circle cx="575.0" cy="80.6" r="2.3" fill="#b9bdca" opacity="0.5"/><circle cx="586.7" cy="73.3" r="2.3" fill="#b9bdca" opacity="0.5"/><circle cx="586.7" cy="72.8" r="2.3" fill="#b9bdca" opacity="0.5"/><circle cx="586.7" cy="73.0" r="2.3" fill="#b9bdca" opacity="0.5"/><circle cx="586.7" cy="73.2" r="2.3" fill="#b9bdca" opacity="0.5"/><circle cx="586.7" cy="73.5" r="2.3" fill="#b9bdca" opacity="0.5"/><circle cx="586.7" cy="73.6" r="2.3" fill="#b9bdca" opacity="0.5"/><circle cx="586.7" cy="73.7" r="2.3" fill="#b9bdca" opacity="0.5"/><circle cx="587.0" cy="73.1" r="2.3" fill="#b9bdca" opacity="0.5"/><circle cx="587.0" cy="73.2" r="2.3" fill="#b9bdca" opacity="0.5"/><circle cx="587.0" cy="74.3" r="2.3" fill="#b9bdca" opacity="0.5"/><circle cx="587.0" cy="74.5" r="2.3" fill="#b9bdca" opacity="0.5"/><circle cx="587.0" cy="72.8" r="2.3" fill="#b9bdca" opacity="0.5"/><circle cx="587.3" cy="74.7" r="2.3" fill="#b9bdca" opacity="0.5"/><circle cx="615.4" cy="332.5" r="2.3" fill="#b9bdca" opacity="0.5"/><circle cx="649.2" cy="117.5" r="2.3" fill="#b9bdca" opacity="0.5"/><circle cx="649.2" cy="211.0" r="2.3" fill="#b9bdca" opacity="0.5"/><circle cx="657.7" cy="93.9" r="2.3" fill="#b9bdca" opacity="0.5"/><circle cx="670.9" cy="74.9" r="2.3" fill="#b9bdca" opacity="0.5"/><circle cx="671.1" cy="73.4" r="2.3" fill="#b9bdca" opacity="0.5"/><circle cx="671.3" cy="72.9" r="2.3" fill="#b9bdca" opacity="0.5"/><circle cx="671.5" cy="74.2" r="2.3" fill="#b9bdca" opacity="0.5"/><circle cx="671.6" cy="74.9" r="2.3" fill="#b9bdca" opacity="0.5"/><circle cx="671.8" cy="74.9" r="2.3" fill="#b9bdca" opacity="0.5"/><circle cx="672.0" cy="73.6" r="2.3" fill="#b9bdca" opacity="0.5"/><circle cx="672.1" cy="74.5" r="2.3" fill="#b9bdca" opacity="0.5"/><circle cx="672.2" cy="73.6" r="2.3" fill="#b9bdca" opacity="0.5"/><circle cx="672.6" cy="74.2" r="2.3" fill="#b9bdca" opacity="0.5"/><circle cx="673.1" cy="72.3" r="2.3" fill="#b9bdca" opacity="0.5"/><circle cx="673.3" cy="70.5" r="2.3" fill="#b9bdca" opacity="0.5"/><circle cx="673.5" cy="73.5" r="2.3" fill="#b9bdca" opacity="0.5"/><circle cx="673.6" cy="72.7" r="2.3" fill="#b9bdca" opacity="0.5"/><circle cx="673.8" cy="74.4" r="2.3" fill="#b9bdca" opacity="0.5"/><circle cx="688.3" cy="172.8" r="2.3" fill="#b9bdca" opacity="0.5"/><circle cx="688.4" cy="172.8" r="2.3" fill="#b9bdca" opacity="0.5"/><circle cx="689.0" cy="94.2" r="2.3" fill="#b9bdca" opacity="0.5"/><circle cx="992.2" cy="335.0" r="2.3" fill="#b9bdca" opacity="0.5"/><circle cx="1032.0" cy="75.0" r="2.3" fill="#b9bdca" opacity="0.5"/><path d="M124.0 152.3L127.6 155.9L124.0 159.5L120.4 155.9Z" fill="#2b3a7a" opacity="0.8" stroke="none" stroke-width="0"/><path d="M128.1 138.2L131.7 141.8L128.1 145.4L124.5 141.8Z" fill="#2b3a7a" opacity="0.8" stroke="none" stroke-width="0"/><path d="M128.7 128.1L132.3 131.7L128.7 135.3L125.1 131.7Z" fill="#2b3a7a" opacity="0.8" stroke="none" stroke-width="0"/><path d="M128.8 130.5L132.4 134.1L128.8 137.7L125.2 134.1Z" fill="#2b3a7a" opacity="0.8" stroke="none" stroke-width="0"/><path d="M129.2 127.3L132.8 130.9L129.2 134.5L125.6 130.9Z" fill="#2b3a7a" opacity="0.8" stroke="none" stroke-width="0"/><path d="M129.4 125.9L133.0 129.5L129.4 133.1L125.8 129.5Z" fill="#2b3a7a" opacity="0.8" stroke="none" stroke-width="0"/><path d="M129.4 127.3L133.0 130.9L129.4 134.5L125.8 130.9Z" fill="#2b3a7a" opacity="0.8" stroke="none" stroke-width="0"/><path d="M142.3 125.9L145.9 129.5L142.3 133.1L138.7 129.5Z" fill="#2b3a7a" opacity="0.8" stroke="none" stroke-width="0"/><path d="M144.3 125.3L147.9 128.9L144.3 132.5L140.7 128.9Z" fill="#2b3a7a" opacity="0.8" stroke="none" stroke-width="0"/><path d="M146.1 124.8L149.7 128.4L146.1 132.0L142.5 128.4Z" fill="#2b3a7a" opacity="0.8" stroke="none" stroke-width="0"/><path d="M147.4 124.6L151.0 128.2L147.4 131.8L143.8 128.2Z" fill="#2b3a7a" opacity="0.8" stroke="none" stroke-width="0"/><path d="M153.3 124.4L156.9 128.0L153.3 131.6L149.7 128.0Z" fill="#2b3a7a" opacity="0.8" stroke="none" stroke-width="0"/><path d="M159.4 109.2L163.0 112.8L159.4 116.4L155.8 112.8Z" fill="#2b3a7a" opacity="0.8" stroke="none" stroke-width="0"/><path d="M162.2 108.0L165.8 111.6L162.2 115.2L158.6 111.6Z" fill="#2b3a7a" opacity="0.8" stroke="none" stroke-width="0"/><path d="M163.1 101.9L166.7 105.5L163.1 109.1L159.5 105.5Z" fill="#2b3a7a" opacity="0.8" stroke="none" stroke-width="0"/><path d="M163.2 104.9L166.8 108.5L163.2 112.1L159.6 108.5Z" fill="#2b3a7a" opacity="0.8" stroke="none" stroke-width="0"/><path d="M163.6 101.5L167.2 105.1L163.6 108.7L160.0 105.1Z" fill="#2b3a7a" opacity="0.8" stroke="none" stroke-width="0"/><path d="M164.0 100.2L167.6 103.8L164.0 107.4L160.4 103.8Z" fill="#2b3a7a" opacity="0.8" stroke="none" stroke-width="0"/><path d="M168.2 99.9L171.8 103.5L168.2 107.1L164.6 103.5Z" fill="#2b3a7a" opacity="0.8" stroke="none" stroke-width="0"/><path d="M176.1 86.0L179.7 89.6L176.1 93.2L172.5 89.6Z" fill="#2b3a7a" opacity="0.8" stroke="none" stroke-width="0"/><path d="M177.5 85.7L181.1 89.3L177.5 92.9L173.9 89.3Z" fill="#2b3a7a" opacity="0.8" stroke="none" stroke-width="0"/><path d="M177.8 84.0L181.4 87.6L177.8 91.2L174.2 87.6Z" fill="#2b3a7a" opacity="0.8" stroke="none" stroke-width="0"/><path d="M179.2 81.8L182.8 85.4L179.2 89.0L175.6 85.4Z" fill="#2b3a7a" opacity="0.8" stroke="none" stroke-width="0"/><path d="M183.6 80.8L187.2 84.4L183.6 88.0L180.0 84.4Z" fill="#2b3a7a" opacity="0.8" stroke="none" stroke-width="0"/><path d="M217.4 80.8L221.0 84.4L217.4 88.0L213.8 84.4Z" fill="#2b3a7a" opacity="0.8" stroke="none" stroke-width="0"/><path d="M301.5 72.2L305.1 75.8L301.5 79.4L297.9 75.8Z" fill="#2b3a7a" opacity="0.8" stroke="none" stroke-width="0"/><path d="M302.2 72.1L305.8 75.7L302.2 79.3L298.6 75.7Z" fill="#2b3a7a" opacity="0.8" stroke="none" stroke-width="0"/><path d="M303.1 71.7L306.7 75.3L303.1 78.9L299.5 75.3Z" fill="#2b3a7a" opacity="0.8" stroke="none" stroke-width="0"/><path d="M303.3 71.1L306.9 74.7L303.3 78.3L299.7 74.7Z" fill="#2b3a7a" opacity="0.8" stroke="none" stroke-width="0"/><path d="M304.0 71.1L307.6 74.7L304.0 78.3L300.4 74.7Z" fill="#2b3a7a" opacity="0.8" stroke="none" stroke-width="0"/><path d="M308.8 70.8L312.4 74.4L308.8 78.0L305.2 74.4Z" fill="#2b3a7a" opacity="0.8" stroke="none" stroke-width="0"/><path d="M315.2 70.3L318.8 73.9L315.2 77.5L311.6 73.9Z" fill="#2b3a7a" opacity="0.8" stroke="none" stroke-width="0"/><path d="M317.4 70.0L321.0 73.6L317.4 77.2L313.8 73.6Z" fill="#2b3a7a" opacity="0.8" stroke="none" stroke-width="0"/><path d="M351.5 69.8L355.1 73.4L351.5 77.0L347.9 73.4Z" fill="#2b3a7a" opacity="0.8" stroke="none" stroke-width="0"/><path d="M380.6 69.8L384.2 73.4L380.6 77.0L377.0 73.4Z" fill="#2b3a7a" opacity="0.8" stroke="none" stroke-width="0"/><path d="M399.9 67.8L403.5 71.4L399.9 75.0L396.3 71.4Z" fill="#2b3a7a" opacity="0.8" stroke="none" stroke-width="0"/><path d="M60.0 335.3L61.0 335.3L61.0 335.1L62.5 335.1L62.5 320.7L65.4 320.7L65.4 319.9L66.5 319.9L66.5 315.3L66.8 315.3L66.8 314.9L67.2 314.9L67.2 314.9L84.5 314.9L84.5 238.7L84.8 238.7L84.8 229.0L85.1 229.0L85.1 222.3L85.4 222.3L85.4 220.6L85.5 220.6L85.5 220.5L85.7 220.5L85.7 214.2L86.3 214.2L86.3 214.1L86.5 214.1L86.5 213.7L86.6 213.7L86.6 213.5L86.8 213.5L86.8 212.7L87.7 212.7L87.7 212.1L87.9 212.1L87.9 212.0L90.2 212.0L90.2 206.7L92.8 206.7L92.8 204.9L93.7 204.9L93.7 204.6L94.4 204.6L94.4 201.9L95.5 201.9L95.5 201.8L96.1 201.8L96.1 201.0L96.5 201.0L96.5 200.0L98.1 200.0L98.1 200.0L98.8 200.0L98.8 199.7L104.5 199.7L104.5 195.5L108.7 195.5L108.7 187.4L108.8 187.4L108.8 186.2L109.1 186.2L109.1 184.5L116.4 184.5L116.4 183.9L120.1 183.9L120.1 169.3L121.3 169.3L121.3 168.8L121.4 168.8L121.4 167.7L122.1 167.7L122.1 165.0L122.4 165.0L122.4 163.7L122.4 163.7L122.4 163.6L124.0 163.6L124.0 155.9L125.9 155.9L125.9 155.8L126.6 155.8L126.6 141.9L128.1 141.9L128.1 141.8L128.7 141.8L128.7 131.7L129.2 131.7L129.2 130.9L129.4 130.9L129.4 129.5L142.3 129.5L142.3 129.5L144.3 129.5L144.3 128.9L146.1 128.9L146.1 128.4L147.4 128.4L147.4 128.2L153.3 128.2L153.3 128.0L159.4 128.0L159.4 112.8L160.7 112.8L160.7 110.2L163.1 110.2L163.1 105.5L163.6 105.5L163.6 105.1L164.0 105.1L164.0 103.8L168.2 103.8L168.2 103.5L176.1 103.5L176.1 89.6L177.5 89.6L177.5 89.3L177.8 89.3L177.8 87.6L179.2 87.6L179.2 85.4L183.6 85.4L183.6 84.4L217.4 84.4L217.4 84.4L301.5 84.4L301.5 75.8L302.2 75.8L302.2 75.7L303.1 75.7L303.1 75.3L303.3 75.3L303.3 74.7L304.0 74.7L304.0 74.7L308.8 74.7L308.8 74.4L315.2 74.4L315.2 73.9L317.4 73.9L317.4 73.6L320.9 73.6L320.9 69.8L322.4 69.8L322.4 69.1L453.9 69.1L453.9 55.0L1032.0 55.0" fill="none" stroke="#6675b0" stroke-width="1.6" stroke-dasharray="5 3" opacity="0.75"/><path d="M124.0 155.9L128.1 155.9L128.1 141.8L128.7 141.8L128.7 131.7L129.2 131.7L129.2 130.9L129.4 130.9L129.4 129.5L142.3 129.5L142.3 129.5L144.3 129.5L144.3 128.9L146.1 128.9L146.1 128.4L147.4 128.4L147.4 128.2L153.3 128.2L153.3 128.0L159.4 128.0L159.4 112.8L162.2 112.8L162.2 111.6L163.1 111.6L163.1 105.5L163.6 105.5L163.6 105.1L164.0 105.1L164.0 103.8L168.2 103.8L168.2 103.5L176.1 103.5L176.1 89.6L177.5 89.6L177.5 89.3L177.8 89.3L177.8 87.6L179.2 87.6L179.2 85.4L183.6 85.4L183.6 84.4L217.4 84.4L217.4 84.4L301.5 84.4L301.5 75.8L302.2 75.8L302.2 75.7L303.1 75.7L303.1 75.3L303.3 75.3L303.3 74.7L304.0 74.7L304.0 74.7L308.8 74.7L308.8 74.4L315.2 74.4L315.2 73.9L317.4 73.9L317.4 73.6L320.9 73.6L320.9 73.5L351.5 73.5L351.5 73.4L380.6 73.4L380.6 73.4L399.9 73.4L399.9 71.4L1032.0 71.4" fill="none" stroke="#2b3a7a" stroke-width="2.6"/><path d="M274.2 246.9L280.7 253.4L274.2 259.9L267.7 253.4Z" fill="#c5961a" opacity="1.0" stroke="#ffffff" stroke-width="1.4"/><path d="M316.1 206.5L322.6 213.0L316.1 219.5L309.6 213.0Z" fill="#c5961a" opacity="1.0" stroke="#ffffff" stroke-width="1.4"/><path d="M320.9 67.0L327.4 73.5L320.9 80.0L314.4 73.5Z" fill="#c5961a" opacity="1.0" stroke="#ffffff" stroke-width="1.4"/><path d="M356.8 240.8L363.3 247.3L356.8 253.8L350.3 247.3Z" fill="#c5961a" opacity="1.0" stroke="#ffffff" stroke-width="1.4"/><path d="M357.0 238.0L363.5 244.5L357.0 251.0L350.5 244.5Z" fill="#c5961a" opacity="1.0" stroke="#ffffff" stroke-width="1.4"/><path d="M807.6 66.6L814.1 73.1L807.6 79.6L801.1 73.1Z" fill="#c5961a" opacity="1.0" stroke="#ffffff" stroke-width="1.4"/><text x="1042" y="53.0" font-size="11.5" fill="#6675b0">– – raw best 535.9</text><text x="1042" y="67.0" font-size="10" fill="#8a8fa3">unverified (pending)</text><path d="M399.9 64.9L406.4 71.4L399.9 77.9L393.4 71.4Z" fill="#2b3a7a" opacity="1.0" stroke="#ffffff" stroke-width="1.4"/><text x="1042" y="99.4" font-size="12.5" fill="#2b3a7a" font-weight="bold">◆ verified 510.1</text><text x="1042" y="115.4" font-size="10.5" fill="#3a3f55">top verified</text><text x="60" y="24" font-size="13" font-weight="bold" fill="#3a3f55" letter-spacing="1.2">SCORE EVOLUTION — gemma-challenge (tok/s)</text><circle cx="452" cy="20" r="3" fill="#b9bdca"/><text x="460" y="24" font-size="10.5" fill="#8a8fa3">all results</text><path d="M544.0 16.4L547.6 20.0L544.0 23.6L540.4 20.0Z" fill="#2b3a7a" opacity="1.0" stroke="none" stroke-width="0"/><text x="552" y="24" font-size="10.5" fill="#8a8fa3">verified</text><path d="M620.0 15.5L624.5 20.0L620.0 24.5L615.5 20.0Z" fill="#c5961a" opacity="1.0" stroke="#fff" stroke-width="1"/><text x="629" y="24" font-size="10.5" fill="#8a8fa3">mikasa-inbound (us)</text></svg>