<svg viewBox="0 0 1200 440" xmlns="http://www.w3.org/2000/svg" font-family="ui-sans-serif,system-ui,-apple-system,sans-serif"><rect x="0" y="0" width="1200" height="440" fill="#ffffff"/><rect x="60" y="46" width="972" height="350" fill="#f3f4fb"/><line x1="60" y1="396.0" x2="1032" y2="396.0" stroke="#e3e5ef" stroke-width="1"/><text x="52" y="400.0" text-anchor="end" font-size="11" fill="#8a8fa3">0</text><line x1="60" y1="332.4" x2="1032" y2="332.4" stroke="#e3e5ef" stroke-width="1"/><text x="52" y="336.4" text-anchor="end" font-size="11" fill="#8a8fa3">100</text><line x1="60" y1="268.7" x2="1032" y2="268.7" stroke="#e3e5ef" stroke-width="1"/><text x="52" y="272.7" text-anchor="end" font-size="11" fill="#8a8fa3">200</text><line x1="60" y1="205.1" x2="1032" y2="205.1" stroke="#e3e5ef" stroke-width="1"/><text x="52" y="209.1" text-anchor="end" font-size="11" fill="#8a8fa3">300</text><line x1="60" y1="141.5" x2="1032" y2="141.5" stroke="#e3e5ef" stroke-width="1"/><text x="52" y="145.5" text-anchor="end" font-size="11" fill="#8a8fa3">400</text><line x1="60" y1="77.8" x2="1032" y2="77.8" stroke="#e3e5ef" stroke-width="1"/><text x="52" y="81.8" text-anchor="end" font-size="11" fill="#8a8fa3">500</text><line x1="99.5" y1="46" x2="99.5" y2="396" stroke="#e3e5ef" stroke-width="1"/><text x="99.5" y="414.0" text-anchor="middle" font-size="11" fill="#8a8fa3">Jun 10</text><line x1="156.0" y1="46" x2="156.0" y2="396" stroke="#e3e5ef" stroke-width="1"/><text x="156.0" y="414.0" text-anchor="middle" font-size="11" fill="#8a8fa3">Jun 12</text><line x1="212.4" y1="46" x2="212.4" y2="396" stroke="#e3e5ef" stroke-width="1"/><text x="212.4" y="414.0" text-anchor="middle" font-size="11" fill="#8a8fa3">Jun 14</text><line x1="268.8" y1="46" x2="268.8" y2="396" stroke="#e3e5ef" stroke-width="1"/><text x="268.8" y="414.0" text-anchor="middle" font-size="11" fill="#8a8fa3">Jun 16</text><line x1="325.2" y1="46" x2="325.2" y2="396" stroke="#e3e5ef" stroke-width="1"/><text x="325.2" y="414.0" text-anchor="middle" font-size="11" fill="#8a8fa3">Jun 18</text><line x1="381.6" y1="46" x2="381.6" y2="396" stroke="#e3e5ef" stroke-width="1"/><text x="381.6" y="414.0" text-anchor="middle" font-size="11" fill="#8a8fa3">Jun 20</text><line x1="438.0" y1="46" x2="438.0" y2="396" stroke="#e3e5ef" stroke-width="1"/><text x="438.0" y="414.0" text-anchor="middle" font-size="11" fill="#8a8fa3">Jun 22</text><line x1="494.4" y1="46" x2="494.4" y2="396" stroke="#e3e5ef" stroke-width="1"/><text x="494.4" y="414.0" text-anchor="middle" font-size="11" fill="#8a8fa3">Jun 24</text><line x1="550.8" y1="46" x2="550.8" y2="396" stroke="#e3e5ef" stroke-width="1"/><text x="550.8" y="414.0" text-anchor="middle" font-size="11" fill="#8a8fa3">Jun 26</text><line x1="607.2" y1="46" x2="607.2" y2="396" stroke="#e3e5ef" stroke-width="1"/><text x="607.2" y="414.0" text-anchor="middle" font-size="11" fill="#8a8fa3">Jun 28</text><line x1="663.6" y1="46" x2="663.6" y2="396" stroke="#e3e5ef" stroke-width="1"/><text x="663.6" y="414.0" text-anchor="middle" font-size="11" fill="#8a8fa3">Jun 30</text><line x1="720.0" y1="46" x2="720.0" y2="396" stroke="#e3e5ef" stroke-width="1"/><text x="720.0" y="414.0" text-anchor="middle" font-size="11" fill="#8a8fa3">Jul 2</text><line x1="776.5" y1="46" x2="776.5" y2="396" stroke="#e3e5ef" stroke-width="1"/><text x="776.5" y="414.0" text-anchor="middle" font-size="11" fill="#8a8fa3">Jul 4</text><line x1="832.9" y1="46" x2="832.9" y2="396" stroke="#e3e5ef" stroke-width="1"/><text x="832.9" y="414.0" text-anchor="middle" font-size="11" fill="#8a8fa3">Jul 6</text><line x1="889.3" y1="46" x2="889.3" y2="396" stroke="#e3e5ef" stroke-width="1"/><text x="889.3" y="414.0" text-anchor="middle" font-size="11" fill="#8a8fa3">Jul 8</text><line x1="945.7" y1="46" x2="945.7" y2="396" stroke="#e3e5ef" stroke-width="1"/><text x="945.7" y="414.0" text-anchor="middle" font-size="11" fill="#8a8fa3">Jul 10</text><line x1="1002.1" y1="46" x2="1002.1" y2="396" stroke="#e3e5ef" stroke-width="1"/><text x="1002.1" y="414.0" text-anchor="middle" font-size="11" fill="#8a8fa3">Jul 12</text><circle cx="60.0" cy="335.3" r="2.3" fill="#b9bdca" opacity="0.5"/><circle cx="61.4" cy="335.1" r="2.3" fill="#b9bdca" opacity="0.5"/><circle cx="62.7" cy="368.0" r="2.3" fill="#b9bdca" opacity="0.5"/><circle cx="63.3" cy="320.7" r="2.3" fill="#b9bdca" opacity="0.5"/><circle cx="67.0" cy="319.9" r="2.3" fill="#b9bdca" opacity="0.5"/><circle cx="67.2" cy="320.6" r="2.3" fill="#b9bdca" opacity="0.5"/><circle cx="68.4" cy="315.3" r="2.3" fill="#b9bdca" opacity="0.5"/><circle cx="68.7" cy="319.7" r="2.3" fill="#b9bdca" opacity="0.5"/><circle cx="68.8" cy="314.9" r="2.3" fill="#b9bdca" opacity="0.5"/><circle cx="69.2" cy="315.5" r="2.3" fill="#b9bdca" opacity="0.5"/><circle cx="69.4" cy="314.9" r="2.3" fill="#b9bdca" opacity="0.5"/><circle cx="69.8" cy="315.4" r="2.3" fill="#b9bdca" opacity="0.5"/><circle cx="70.5" cy="315.0" r="2.3" fill="#b9bdca" opacity="0.5"/><circle cx="91.8" cy="238.7" r="2.3" fill="#b9bdca" opacity="0.5"/><circle cx="92.0" cy="315.0" r="2.3" fill="#b9bdca" opacity="0.5"/><circle cx="92.2" cy="229.0" r="2.3" fill="#b9bdca" opacity="0.5"/><circle cx="92.6" cy="222.3" r="2.3" fill="#b9bdca" opacity="0.5"/><circle cx="92.9" cy="228.0" r="2.3" fill="#b9bdca" opacity="0.5"/><circle cx="93.0" cy="223.3" r="2.3" fill="#b9bdca" opacity="0.5"/><circle cx="93.0" cy="220.6" r="2.3" fill="#b9bdca" opacity="0.5"/><circle cx="93.1" cy="220.5" r="2.3" fill="#b9bdca" opacity="0.5"/><circle cx="93.2" cy="223.2" r="2.3" fill="#b9bdca" opacity="0.5"/><circle cx="93.4" cy="214.2" r="2.3" fill="#b9bdca" opacity="0.5"/><circle cx="93.4" cy="222.1" r="2.3" fill="#b9bdca" opacity="0.5"/><circle cx="93.6" cy="220.7" r="2.3" fill="#b9bdca" opacity="0.5"/><circle cx="93.8" cy="218.5" r="2.3" fill="#b9bdca" opacity="0.5"/><circle cx="93.9" cy="215.2" r="2.3" fill="#b9bdca" opacity="0.5"/><circle cx="94.0" cy="214.3" r="2.3" fill="#b9bdca" opacity="0.5"/><circle cx="94.0" cy="219.2" r="2.3" fill="#b9bdca" opacity="0.5"/><circle cx="94.2" cy="214.1" r="2.3" fill="#b9bdca" opacity="0.5"/><circle cx="94.3" cy="215.2" r="2.3" fill="#b9bdca" opacity="0.5"/><circle cx="94.5" cy="213.7" r="2.3" fill="#b9bdca" opacity="0.5"/><circle cx="94.6" cy="213.5" r="2.3" fill="#b9bdca" opacity="0.5"/><circle cx="94.8" cy="214.8" r="2.3" fill="#b9bdca" opacity="0.5"/><circle cx="94.8" cy="217.7" r="2.3" fill="#b9bdca" opacity="0.5"/><circle cx="94.9" cy="212.7" r="2.3" fill="#b9bdca" opacity="0.5"/><circle cx="95.2" cy="213.3" r="2.3" fill="#b9bdca" opacity="0.5"/><circle cx="95.6" cy="212.7" r="2.3" fill="#b9bdca" opacity="0.5"/><circle cx="95.6" cy="213.6" r="2.3" fill="#b9bdca" opacity="0.5"/><circle cx="95.7" cy="213.0" r="2.3" fill="#b9bdca" opacity="0.5"/><circle cx="96.0" cy="212.1" r="2.3" fill="#b9bdca" opacity="0.5"/><circle cx="96.0" cy="213.3" r="2.3" fill="#b9bdca" opacity="0.5"/><circle cx="96.3" cy="212.0" r="2.3" fill="#b9bdca" opacity="0.5"/><circle cx="96.7" cy="212.1" r="2.3" fill="#b9bdca" opacity="0.5"/><circle cx="96.7" cy="212.8" r="2.3" fill="#b9bdca" opacity="0.5"/><circle cx="99.3" cy="206.7" r="2.3" fill="#b9bdca" opacity="0.5"/><circle cx="99.6" cy="206.8" r="2.3" fill="#b9bdca" opacity="0.5"/><circle cx="99.6" cy="212.5" r="2.3" fill="#b9bdca" opacity="0.5"/><circle cx="99.8" cy="207.2" r="2.3" fill="#b9bdca" opacity="0.5"/><circle cx="100.7" cy="207.0" r="2.3" fill="#b9bdca" opacity="0.5"/><circle cx="102.6" cy="204.9" r="2.3" fill="#b9bdca" opacity="0.5"/><circle cx="103.9" cy="204.6" r="2.3" fill="#b9bdca" opacity="0.5"/><circle cx="104.0" cy="212.3" r="2.3" fill="#b9bdca" opacity="0.5"/><circle cx="104.2" cy="204.6" r="2.3" fill="#b9bdca" opacity="0.5"/><circle cx="104.2" cy="204.6" r="2.3" fill="#b9bdca" opacity="0.5"/><circle cx="104.2" cy="204.9" r="2.3" fill="#b9bdca" opacity="0.5"/><circle cx="104.2" cy="204.9" r="2.3" fill="#b9bdca" opacity="0.5"/><circle cx="104.7" cy="201.9" r="2.3" fill="#b9bdca" opacity="0.5"/><circle cx="105.5" cy="206.5" r="2.3" fill="#b9bdca" opacity="0.5"/><circle cx="105.8" cy="205.8" r="2.3" fill="#b9bdca" opacity="0.5"/><circle cx="105.8" cy="335.1" r="2.3" fill="#b9bdca" opacity="0.5"/><circle cx="106.2" cy="201.8" r="2.3" fill="#b9bdca" opacity="0.5"/><circle cx="106.2" cy="202.2" r="2.3" fill="#b9bdca" opacity="0.5"/><circle cx="106.9" cy="201.0" r="2.3" fill="#b9bdca" opacity="0.5"/><circle cx="107.2" cy="203.1" r="2.3" fill="#b9bdca" opacity="0.5"/><circle cx="107.4" cy="200.0" r="2.3" fill="#b9bdca" opacity="0.5"/><circle cx="107.4" cy="204.6" r="2.3" fill="#b9bdca" opacity="0.5"/><circle cx="107.9" cy="202.3" r="2.3" fill="#b9bdca" opacity="0.5"/><circle cx="108.8" cy="200.4" r="2.3" fill="#b9bdca" opacity="0.5"/><circle cx="109.2" cy="200.7" r="2.3" fill="#b9bdca" opacity="0.5"/><circle cx="109.6" cy="200.0" r="2.3" fill="#b9bdca" opacity="0.5"/><circle cx="110.5" cy="199.7" r="2.3" fill="#b9bdca" opacity="0.5"/><circle cx="115.8" cy="200.6" r="2.3" fill="#b9bdca" opacity="0.5"/><circle cx="116.3" cy="201.8" r="2.3" fill="#b9bdca" opacity="0.5"/><circle cx="117.0" cy="208.4" r="2.3" fill="#b9bdca" opacity="0.5"/><circle cx="117.1" cy="200.8" r="2.3" fill="#b9bdca" opacity="0.5"/><circle cx="117.6" cy="200.7" r="2.3" fill="#b9bdca" opacity="0.5"/><circle cx="117.6" cy="201.9" r="2.3" fill="#b9bdca" opacity="0.5"/><circle cx="117.8" cy="195.5" r="2.3" fill="#b9bdca" opacity="0.5"/><circle cx="118.3" cy="196.9" r="2.3" fill="#b9bdca" opacity="0.5"/><circle cx="118.5" cy="197.9" r="2.3" fill="#b9bdca" opacity="0.5"/><circle cx="119.0" cy="196.1" r="2.3" fill="#b9bdca" opacity="0.5"/><circle cx="120.7" cy="197.3" r="2.3" fill="#b9bdca" opacity="0.5"/><circle cx="121.1" cy="195.9" r="2.3" fill="#b9bdca" opacity="0.5"/><circle cx="121.3" cy="201.0" r="2.3" fill="#b9bdca" opacity="0.5"/><circle cx="121.4" cy="197.5" r="2.3" fill="#b9bdca" opacity="0.5"/><circle cx="121.8" cy="196.9" r="2.3" fill="#b9bdca" opacity="0.5"/><circle cx="121.8" cy="197.1" r="2.3" fill="#b9bdca" opacity="0.5"/><circle cx="121.9" cy="197.0" r="2.3" fill="#b9bdca" opacity="0.5"/><circle cx="122.2" cy="196.0" r="2.3" fill="#b9bdca" opacity="0.5"/><circle cx="122.2" cy="196.0" r="2.3" fill="#b9bdca" opacity="0.5"/><circle cx="122.3" cy="197.9" r="2.3" fill="#b9bdca" opacity="0.5"/><circle cx="122.5" cy="197.8" r="2.3" fill="#b9bdca" opacity="0.5"/><circle cx="122.8" cy="196.2" r="2.3" fill="#b9bdca" opacity="0.5"/><circle cx="122.8" cy="197.5" r="2.3" fill="#b9bdca" opacity="0.5"/><circle cx="122.9" cy="196.9" r="2.3" fill="#b9bdca" opacity="0.5"/><circle cx="122.9" cy="195.5" r="2.3" fill="#b9bdca" opacity="0.5"/><circle cx="123.2" cy="198.1" r="2.3" fill="#b9bdca" opacity="0.5"/><circle cx="123.3" cy="187.4" r="2.3" fill="#b9bdca" opacity="0.5"/><circle cx="123.4" cy="186.2" r="2.3" fill="#b9bdca" opacity="0.5"/><circle cx="123.4" cy="196.3" r="2.3" fill="#b9bdca" opacity="0.5"/><circle cx="123.4" cy="197.2" r="2.3" fill="#b9bdca" opacity="0.5"/><circle cx="123.4" cy="197.8" r="2.3" fill="#b9bdca" opacity="0.5"/><circle cx="123.4" cy="368.0" r="2.3" fill="#b9bdca" opacity="0.5"/><circle cx="123.8" cy="184.5" r="2.3" fill="#b9bdca" opacity="0.5"/><circle cx="125.3" cy="184.6" r="2.3" fill="#b9bdca" opacity="0.5"/><circle cx="125.9" cy="185.6" r="2.3" fill="#b9bdca" opacity="0.5"/><circle cx="128.0" cy="188.7" r="2.3" fill="#b9bdca" opacity="0.5"/><circle cx="130.9" cy="185.4" r="2.3" fill="#b9bdca" opacity="0.5"/><circle cx="131.5" cy="185.2" r="2.3" fill="#b9bdca" opacity="0.5"/><circle cx="131.7" cy="186.6" r="2.3" fill="#b9bdca" opacity="0.5"/><circle cx="131.8" cy="185.3" r="2.3" fill="#b9bdca" opacity="0.5"/><circle cx="132.3" cy="185.3" r="2.3" fill="#b9bdca" opacity="0.5"/><circle cx="132.5" cy="185.0" r="2.3" fill="#b9bdca" opacity="0.5"/><circle cx="133.0" cy="184.9" r="2.3" fill="#b9bdca" opacity="0.5"/><circle cx="133.3" cy="185.1" r="2.3" fill="#b9bdca" opacity="0.5"/><circle cx="133.3" cy="185.2" r="2.3" fill="#b9bdca" opacity="0.5"/><circle cx="133.3" cy="186.4" r="2.3" fill="#b9bdca" opacity="0.5"/><circle cx="133.4" cy="183.9" r="2.3" fill="#b9bdca" opacity="0.5"/><circle cx="136.0" cy="184.4" r="2.3" fill="#b9bdca" opacity="0.5"/><circle cx="136.5" cy="184.2" r="2.3" fill="#b9bdca" opacity="0.5"/><circle cx="138.1" cy="169.3" r="2.3" fill="#b9bdca" opacity="0.5"/><circle cx="139.7" cy="168.8" r="2.3" fill="#b9bdca" opacity="0.5"/><circle cx="139.8" cy="167.7" r="2.3" fill="#b9bdca" opacity="0.5"/><circle cx="140.5" cy="201.4" r="2.3" fill="#b9bdca" opacity="0.5"/><circle cx="140.7" cy="165.0" r="2.3" fill="#b9bdca" opacity="0.5"/><circle cx="140.9" cy="198.2" r="2.3" fill="#b9bdca" opacity="0.5"/><circle cx="141.1" cy="163.7" r="2.3" fill="#b9bdca" opacity="0.5"/><circle cx="141.2" cy="163.6" r="2.3" fill="#b9bdca" opacity="0.5"/><circle cx="141.5" cy="165.9" r="2.3" fill="#b9bdca" opacity="0.5"/><circle cx="142.9" cy="165.1" r="2.3" fill="#b9bdca" opacity="0.5"/><circle cx="143.2" cy="155.9" r="2.3" fill="#b9bdca" opacity="0.5"/><circle cx="144.6" cy="196.5" r="2.3" fill="#b9bdca" opacity="0.5"/><circle cx="145.2" cy="157.4" r="2.3" fill="#b9bdca" opacity="0.5"/><circle cx="145.7" cy="155.8" r="2.3" fill="#b9bdca" opacity="0.5"/><circle cx="146.6" cy="141.9" r="2.3" fill="#b9bdca" opacity="0.5"/><circle cx="148.5" cy="156.1" r="2.3" fill="#b9bdca" opacity="0.5"/><circle cx="148.5" cy="156.4" r="2.3" fill="#b9bdca" opacity="0.5"/><circle cx="148.6" cy="141.8" r="2.3" fill="#b9bdca" opacity="0.5"/><circle cx="148.7" cy="196.0" r="2.3" fill="#b9bdca" opacity="0.5"/><circle cx="149.3" cy="131.7" r="2.3" fill="#b9bdca" opacity="0.5"/><circle cx="149.4" cy="134.1" r="2.3" fill="#b9bdca" opacity="0.5"/><circle cx="149.6" cy="141.1" r="2.3" fill="#b9bdca" opacity="0.5"/><circle cx="149.9" cy="134.0" r="2.3" fill="#b9bdca" opacity="0.5"/><circle cx="150.0" cy="130.9" r="2.3" fill="#b9bdca" opacity="0.5"/><circle cx="150.0" cy="154.2" r="2.3" fill="#b9bdca" opacity="0.5"/><circle cx="150.1" cy="133.6" r="2.3" fill="#b9bdca" opacity="0.5"/><circle cx="150.3" cy="129.5" r="2.3" fill="#b9bdca" opacity="0.5"/><circle cx="150.3" cy="130.9" r="2.3" fill="#b9bdca" opacity="0.5"/><circle cx="150.3" cy="133.4" r="2.3" fill="#b9bdca" opacity="0.5"/><circle cx="150.4" cy="131.2" r="2.3" fill="#b9bdca" opacity="0.5"/><circle cx="151.6" cy="189.8" r="2.3" fill="#b9bdca" opacity="0.5"/><circle cx="151.6" cy="133.2" r="2.3" fill="#b9bdca" opacity="0.5"/><circle cx="151.8" cy="133.5" r="2.3" fill="#b9bdca" opacity="0.5"/><circle cx="152.3" cy="130.1" r="2.3" fill="#b9bdca" opacity="0.5"/><circle cx="153.4" cy="130.3" r="2.3" fill="#b9bdca" opacity="0.5"/><circle cx="153.9" cy="303.1" r="2.3" fill="#b9bdca" opacity="0.5"/><circle cx="154.9" cy="133.2" r="2.3" fill="#b9bdca" opacity="0.5"/><circle cx="156.1" cy="144.2" r="2.3" fill="#b9bdca" opacity="0.5"/><circle cx="156.4" cy="135.3" r="2.3" fill="#b9bdca" opacity="0.5"/><circle cx="157.2" cy="133.4" r="2.3" fill="#b9bdca" opacity="0.5"/><circle cx="157.3" cy="159.9" r="2.3" fill="#b9bdca" opacity="0.5"/><circle cx="157.5" cy="130.8" r="2.3" fill="#b9bdca" opacity="0.5"/><circle cx="157.8" cy="133.2" r="2.3" fill="#b9bdca" opacity="0.5"/><circle cx="160.6" cy="130.9" r="2.3" fill="#b9bdca" opacity="0.5"/><circle cx="161.0" cy="130.9" r="2.3" fill="#b9bdca" opacity="0.5"/><circle cx="161.0" cy="133.8" r="2.3" fill="#b9bdca" opacity="0.5"/><circle cx="161.4" cy="130.4" r="2.3" fill="#b9bdca" opacity="0.5"/><circle cx="161.8" cy="153.7" r="2.3" fill="#b9bdca" opacity="0.5"/><circle cx="162.3" cy="133.3" r="2.3" fill="#b9bdca" opacity="0.5"/><circle cx="163.2" cy="156.5" r="2.3" fill="#b9bdca" opacity="0.5"/><circle cx="163.3" cy="132.3" r="2.3" fill="#b9bdca" opacity="0.5"/><circle cx="164.4" cy="147.2" r="2.3" fill="#b9bdca" opacity="0.5"/><circle cx="164.6" cy="133.6" r="2.3" fill="#b9bdca" opacity="0.5"/><circle cx="164.9" cy="129.5" r="2.3" fill="#b9bdca" opacity="0.5"/><circle cx="164.9" cy="133.3" r="2.3" fill="#b9bdca" opacity="0.5"/><circle cx="166.2" cy="133.3" r="2.3" fill="#b9bdca" opacity="0.5"/><circle cx="167.1" cy="129.5" r="2.3" fill="#b9bdca" opacity="0.5"/><circle cx="168.5" cy="130.6" r="2.3" fill="#b9bdca" opacity="0.5"/><circle cx="169.6" cy="128.9" r="2.3" fill="#b9bdca" opacity="0.5"/><circle cx="169.8" cy="132.7" r="2.3" fill="#b9bdca" opacity="0.5"/><circle cx="169.8" cy="133.1" r="2.3" fill="#b9bdca" opacity="0.5"/><circle cx="171.4" cy="129.8" r="2.3" fill="#b9bdca" opacity="0.5"/><circle cx="171.9" cy="333.8" r="2.3" fill="#b9bdca" opacity="0.5"/><circle cx="172.0" cy="128.4" r="2.3" fill="#b9bdca" opacity="0.5"/><circle cx="172.7" cy="129.8" r="2.3" fill="#b9bdca" opacity="0.5"/><circle cx="173.0" cy="128.9" r="2.3" fill="#b9bdca" opacity="0.5"/><circle cx="173.1" cy="128.9" r="2.3" fill="#b9bdca" opacity="0.5"/><circle cx="173.7" cy="128.2" r="2.3" fill="#b9bdca" opacity="0.5"/><circle cx="174.1" cy="129.7" r="2.3" fill="#b9bdca" opacity="0.5"/><circle cx="174.2" cy="142.3" r="2.3" fill="#b9bdca" opacity="0.5"/><circle cx="175.7" cy="128.8" r="2.3" fill="#b9bdca" opacity="0.5"/><circle cx="176.6" cy="161.1" r="2.3" fill="#b9bdca" opacity="0.5"/><circle cx="178.4" cy="164.4" r="2.3" fill="#b9bdca" opacity="0.5"/><circle cx="178.5" cy="248.3" r="2.3" fill="#b9bdca" opacity="0.5"/><circle cx="181.0" cy="135.4" r="2.3" fill="#b9bdca" opacity="0.5"/><circle cx="181.2" cy="128.0" r="2.3" fill="#b9bdca" opacity="0.5"/><circle cx="182.0" cy="229.0" r="2.3" fill="#b9bdca" opacity="0.5"/><circle cx="183.7" cy="128.1" r="2.3" fill="#b9bdca" opacity="0.5"/><circle cx="184.2" cy="128.6" r="2.3" fill="#b9bdca" opacity="0.5"/><circle cx="185.8" cy="128.8" r="2.3" fill="#b9bdca" opacity="0.5"/><circle cx="185.8" cy="129.6" r="2.3" fill="#b9bdca" opacity="0.5"/><circle cx="185.8" cy="130.9" r="2.3" fill="#b9bdca" opacity="0.5"/><circle cx="189.2" cy="112.8" r="2.3" fill="#b9bdca" opacity="0.5"/><circle cx="190.9" cy="110.2" r="2.3" fill="#b9bdca" opacity="0.5"/><circle cx="191.0" cy="111.6" r="2.3" fill="#b9bdca" opacity="0.5"/><circle cx="192.1" cy="111.0" r="2.3" fill="#b9bdca" opacity="0.5"/><circle cx="192.6" cy="335.1" r="2.3" fill="#b9bdca" opacity="0.5"/><circle cx="192.9" cy="111.6" r="2.3" fill="#b9bdca" opacity="0.5"/><circle cx="194.0" cy="105.5" r="2.3" fill="#b9bdca" opacity="0.5"/><circle cx="194.2" cy="108.5" r="2.3" fill="#b9bdca" opacity="0.5"/><circle cx="194.7" cy="105.1" r="2.3" fill="#b9bdca" opacity="0.5"/><circle cx="195.2" cy="103.8" r="2.3" fill="#b9bdca" opacity="0.5"/><circle cx="195.8" cy="125.8" r="2.3" fill="#b9bdca" opacity="0.5"/><circle cx="200.7" cy="103.5" r="2.3" fill="#b9bdca" opacity="0.5"/><circle cx="201.9" cy="127.8" r="2.3" fill="#b9bdca" opacity="0.5"/><circle cx="202.5" cy="334.3" r="2.3" fill="#b9bdca" opacity="0.5"/><circle cx="203.2" cy="128.6" r="2.3" fill="#b9bdca" opacity="0.5"/><circle cx="203.6" cy="128.6" r="2.3" fill="#b9bdca" opacity="0.5"/><circle cx="203.6" cy="128.6" r="2.3" fill="#b9bdca" opacity="0.5"/><circle cx="204.1" cy="256.6" r="2.3" fill="#b9bdca" opacity="0.5"/><circle cx="204.6" cy="254.6" r="2.3" fill="#b9bdca" opacity="0.5"/><circle cx="205.5" cy="128.6" r="2.3" fill="#b9bdca" opacity="0.5"/><circle cx="207.8" cy="250.1" r="2.3" fill="#b9bdca" opacity="0.5"/><circle cx="208.0" cy="161.4" r="2.3" fill="#b9bdca" opacity="0.5"/><circle cx="208.2" cy="206.6" r="2.3" fill="#b9bdca" opacity="0.5"/><circle cx="210.3" cy="113.5" r="2.3" fill="#b9bdca" opacity="0.5"/><circle cx="211.0" cy="89.6" r="2.3" fill="#b9bdca" opacity="0.5"/><circle cx="211.5" cy="90.2" r="2.3" fill="#b9bdca" opacity="0.5"/><circle cx="212.8" cy="89.3" r="2.3" fill="#b9bdca" opacity="0.5"/><circle cx="213.1" cy="87.6" r="2.3" fill="#b9bdca" opacity="0.5"/><circle cx="213.6" cy="185.0" r="2.3" fill="#b9bdca" opacity="0.5"/><circle cx="214.0" cy="131.6" r="2.3" fill="#b9bdca" opacity="0.5"/><circle cx="214.4" cy="87.8" r="2.3" fill="#b9bdca" opacity="0.5"/><circle cx="215.0" cy="85.4" r="2.3" fill="#b9bdca" opacity="0.5"/><circle cx="215.9" cy="86.8" r="2.3" fill="#b9bdca" opacity="0.5"/><circle cx="216.8" cy="88.4" r="2.3" fill="#b9bdca" opacity="0.5"/><circle cx="220.7" cy="89.5" r="2.3" fill="#b9bdca" opacity="0.5"/><circle cx="220.7" cy="155.6" r="2.3" fill="#b9bdca" opacity="0.5"/><circle cx="220.7" cy="84.4" r="2.3" fill="#b9bdca" opacity="0.5"/><circle cx="225.3" cy="89.2" r="2.3" fill="#b9bdca" opacity="0.5"/><circle cx="225.4" cy="90.5" r="2.3" fill="#b9bdca" opacity="0.5"/><circle cx="226.7" cy="87.7" r="2.3" fill="#b9bdca" opacity="0.5"/><circle cx="227.2" cy="367.9" r="2.3" fill="#b9bdca" opacity="0.5"/><circle cx="229.1" cy="164.3" r="2.3" fill="#b9bdca" opacity="0.5"/><circle cx="230.0" cy="94.6" r="2.3" fill="#b9bdca" opacity="0.5"/><circle cx="230.3" cy="89.6" r="2.3" fill="#b9bdca" opacity="0.5"/><circle cx="234.3" cy="124.6" r="2.3" fill="#b9bdca" opacity="0.5"/><circle cx="238.6" cy="146.2" r="2.3" fill="#b9bdca" opacity="0.5"/><circle cx="238.7" cy="90.5" r="2.3" fill="#b9bdca" opacity="0.5"/><circle cx="239.1" cy="87.7" r="2.3" fill="#b9bdca" opacity="0.5"/><circle cx="239.3" cy="87.7" r="2.3" fill="#b9bdca" opacity="0.5"/><circle cx="239.3" cy="89.6" r="2.3" fill="#b9bdca" opacity="0.5"/><circle cx="242.3" cy="93.0" r="2.3" fill="#b9bdca" opacity="0.5"/><circle cx="243.4" cy="85.5" r="2.3" fill="#b9bdca" opacity="0.5"/><circle cx="252.3" cy="334.8" r="2.3" fill="#b9bdca" opacity="0.5"/><circle cx="253.4" cy="86.3" r="2.3" fill="#b9bdca" opacity="0.5"/><circle cx="256.4" cy="85.5" r="2.3" fill="#b9bdca" opacity="0.5"/><circle cx="256.9" cy="84.6" r="2.3" fill="#b9bdca" opacity="0.5"/><circle cx="258.2" cy="87.8" r="2.3" fill="#b9bdca" opacity="0.5"/><circle cx="258.7" cy="84.4" r="2.3" fill="#b9bdca" opacity="0.5"/><circle cx="259.0" cy="84.8" r="2.3" fill="#b9bdca" opacity="0.5"/><circle cx="259.8" cy="87.4" r="2.3" fill="#b9bdca" opacity="0.5"/><circle cx="264.6" cy="84.4" r="2.3" fill="#b9bdca" opacity="0.5"/><circle cx="285.7" cy="89.3" r="2.3" fill="#b9bdca" opacity="0.5"/><circle cx="289.5" cy="88.6" r="2.3" fill="#b9bdca" opacity="0.5"/><circle cx="289.5" cy="92.1" r="2.3" fill="#b9bdca" opacity="0.5"/><circle cx="290.3" cy="156.8" r="2.3" fill="#b9bdca" opacity="0.5"/><circle cx="302.5" cy="201.6" r="2.3" fill="#b9bdca" opacity="0.5"/><circle cx="311.3" cy="315.6" r="2.3" fill="#b9bdca" opacity="0.5"/><circle cx="335.6" cy="87.7" r="2.3" fill="#b9bdca" opacity="0.5"/><circle cx="342.9" cy="87.6" r="2.3" fill="#b9bdca" opacity="0.5"/><circle cx="349.4" cy="87.2" r="2.3" fill="#b9bdca" opacity="0.5"/><circle cx="350.9" cy="88.8" r="2.3" fill="#b9bdca" opacity="0.5"/><circle cx="351.5" cy="89.2" r="2.3" fill="#b9bdca" opacity="0.5"/><circle cx="351.8" cy="90.9" r="2.3" fill="#b9bdca" opacity="0.5"/><circle cx="353.7" cy="87.7" r="2.3" fill="#b9bdca" opacity="0.5"/><circle cx="360.3" cy="88.6" r="2.3" fill="#b9bdca" opacity="0.5"/><circle cx="361.1" cy="89.7" r="2.3" fill="#b9bdca" opacity="0.5"/><circle cx="361.7" cy="88.2" r="2.3" fill="#b9bdca" opacity="0.5"/><circle cx="374.0" cy="75.8" r="2.3" fill="#b9bdca" opacity="0.5"/><circle cx="374.9" cy="75.7" r="2.3" fill="#b9bdca" opacity="0.5"/><circle cx="375.6" cy="76.7" r="2.3" fill="#b9bdca" opacity="0.5"/><circle cx="375.7" cy="75.8" r="2.3" fill="#b9bdca" opacity="0.5"/><circle cx="376.1" cy="75.3" r="2.3" fill="#b9bdca" opacity="0.5"/><circle cx="376.3" cy="74.7" r="2.3" fill="#b9bdca" opacity="0.5"/><circle cx="376.4" cy="83.4" r="2.3" fill="#b9bdca" opacity="0.5"/><circle cx="376.7" cy="76.2" r="2.3" fill="#b9bdca" opacity="0.5"/><circle cx="377.0" cy="78.1" r="2.3" fill="#b9bdca" opacity="0.5"/><circle cx="377.3" cy="74.7" r="2.3" fill="#b9bdca" opacity="0.5"/><circle cx="379.3" cy="89.3" r="2.3" fill="#b9bdca" opacity="0.5"/><circle cx="383.4" cy="74.4" r="2.3" fill="#b9bdca" opacity="0.5"/><circle cx="389.9" cy="74.4" r="2.3" fill="#b9bdca" opacity="0.5"/><circle cx="391.0" cy="335.1" r="2.3" fill="#b9bdca" opacity="0.5"/><circle cx="391.0" cy="81.7" r="2.3" fill="#b9bdca" opacity="0.5"/><circle cx="391.8" cy="74.6" r="2.3" fill="#b9bdca" opacity="0.5"/><circle cx="391.8" cy="82.1" r="2.3" fill="#b9bdca" opacity="0.5"/><circle cx="391.8" cy="73.9" r="2.3" fill="#b9bdca" opacity="0.5"/><circle cx="393.7" cy="76.2" r="2.3" fill="#b9bdca" opacity="0.5"/><circle cx="394.0" cy="82.1" r="2.3" fill="#b9bdca" opacity="0.5"/><circle cx="394.2" cy="74.2" r="2.3" fill="#b9bdca" opacity="0.5"/><circle cx="394.3" cy="75.0" r="2.3" fill="#b9bdca" opacity="0.5"/><circle cx="394.7" cy="73.6" r="2.3" fill="#b9bdca" opacity="0.5"/><circle cx="394.7" cy="83.3" r="2.3" fill="#b9bdca" opacity="0.5"/><circle cx="394.7" cy="83.8" r="2.3" fill="#b9bdca" opacity="0.5"/><circle cx="394.7" cy="78.1" r="2.3" fill="#b9bdca" opacity="0.5"/><circle cx="394.7" cy="81.5" r="2.3" fill="#b9bdca" opacity="0.5"/><circle cx="394.7" cy="83.0" r="2.3" fill="#b9bdca" opacity="0.5"/><circle cx="394.7" cy="83.7" r="2.3" fill="#b9bdca" opacity="0.5"/><circle cx="397.3" cy="82.7" r="2.3" fill="#b9bdca" opacity="0.5"/><circle cx="397.8" cy="77.8" r="2.3" fill="#b9bdca" opacity="0.5"/><circle cx="399.2" cy="69.8" r="2.3" fill="#b9bdca" opacity="0.5"/><circle cx="399.6" cy="75.9" r="2.3" fill="#b9bdca" opacity="0.5"/><circle cx="399.8" cy="74.3" r="2.3" fill="#b9bdca" opacity="0.5"/><circle cx="399.8" cy="77.4" r="2.3" fill="#b9bdca" opacity="0.5"/><circle cx="399.8" cy="80.6" r="2.3" fill="#b9bdca" opacity="0.5"/><circle cx="399.8" cy="81.8" r="2.3" fill="#b9bdca" opacity="0.5"/><circle cx="400.8" cy="76.9" r="2.3" fill="#b9bdca" opacity="0.5"/><circle cx="400.8" cy="82.8" r="2.3" fill="#b9bdca" opacity="0.5"/><circle cx="400.8" cy="83.0" r="2.3" fill="#b9bdca" opacity="0.5"/><circle cx="400.8" cy="83.1" r="2.3" fill="#b9bdca" opacity="0.5"/><circle cx="401.2" cy="69.1" r="2.3" fill="#b9bdca" opacity="0.5"/><circle cx="402.3" cy="75.5" r="2.3" fill="#b9bdca" opacity="0.5"/><circle cx="402.8" cy="74.3" r="2.3" fill="#b9bdca" opacity="0.5"/><circle cx="419.4" cy="74.0" r="2.3" fill="#b9bdca" opacity="0.5"/><circle cx="439.0" cy="73.4" r="2.3" fill="#b9bdca" opacity="0.5"/><circle cx="439.2" cy="75.9" r="2.3" fill="#b9bdca" opacity="0.5"/><circle cx="439.2" cy="76.3" r="2.3" fill="#b9bdca" opacity="0.5"/><circle cx="439.3" cy="76.0" r="2.3" fill="#b9bdca" opacity="0.5"/><circle cx="439.3" cy="76.8" r="2.3" fill="#b9bdca" opacity="0.5"/><circle cx="439.3" cy="81.2" r="2.3" fill="#b9bdca" opacity="0.5"/><circle cx="439.3" cy="83.4" r="2.3" fill="#b9bdca" opacity="0.5"/><circle cx="453.2" cy="76.6" r="2.3" fill="#b9bdca" opacity="0.5"/><circle cx="454.1" cy="76.7" r="2.3" fill="#b9bdca" opacity="0.5"/><circle cx="454.1" cy="82.8" r="2.3" fill="#b9bdca" opacity="0.5"/><circle cx="454.1" cy="82.8" r="2.3" fill="#b9bdca" opacity="0.5"/><circle cx="454.1" cy="83.3" r="2.3" fill="#b9bdca" opacity="0.5"/><circle cx="457.0" cy="233.4" r="2.3" fill="#b9bdca" opacity="0.5"/><circle cx="457.9" cy="228.9" r="2.3" fill="#b9bdca" opacity="0.5"/><circle cx="458.7" cy="198.3" r="2.3" fill="#b9bdca" opacity="0.5"/><circle cx="476.8" cy="73.4" r="2.3" fill="#b9bdca" opacity="0.5"/><circle cx="481.8" cy="192.4" r="2.3" fill="#b9bdca" opacity="0.5"/><circle cx="483.6" cy="75.3" r="2.3" fill="#b9bdca" opacity="0.5"/><circle cx="484.1" cy="74.0" r="2.3" fill="#b9bdca" opacity="0.5"/><circle cx="485.2" cy="194.4" r="2.3" fill="#b9bdca" opacity="0.5"/><circle cx="486.9" cy="168.6" r="2.3" fill="#b9bdca" opacity="0.5"/><circle cx="488.0" cy="77.1" r="2.3" fill="#b9bdca" opacity="0.5"/><circle cx="488.0" cy="99.5" r="2.3" fill="#b9bdca" opacity="0.5"/><circle cx="502.0" cy="71.4" r="2.3" fill="#b9bdca" opacity="0.5"/><circle cx="502.0" cy="73.5" r="2.3" fill="#b9bdca" opacity="0.5"/><circle cx="506.9" cy="72.4" r="2.3" fill="#b9bdca" opacity="0.5"/><circle cx="527.3" cy="83.0" r="2.3" fill="#b9bdca" opacity="0.5"/><circle cx="527.5" cy="72.1" r="2.3" fill="#b9bdca" opacity="0.5"/><circle cx="527.8" cy="71.6" r="2.3" fill="#b9bdca" opacity="0.5"/><circle cx="528.4" cy="75.5" r="2.3" fill="#b9bdca" opacity="0.5"/><circle cx="528.8" cy="73.7" r="2.3" fill="#b9bdca" opacity="0.5"/><circle cx="529.6" cy="72.9" r="2.3" fill="#b9bdca" opacity="0.5"/><circle cx="530.0" cy="73.4" r="2.3" fill="#b9bdca" opacity="0.5"/><circle cx="569.7" cy="85.2" r="2.3" fill="#b9bdca" opacity="0.5"/><circle cx="569.7" cy="256.6" r="2.3" fill="#b9bdca" opacity="0.5"/><circle cx="569.8" cy="335.3" r="2.3" fill="#b9bdca" opacity="0.5"/><circle cx="570.0" cy="86.8" r="2.3" fill="#b9bdca" opacity="0.5"/><circle cx="570.4" cy="71.5" r="2.3" fill="#b9bdca" opacity="0.5"/><circle cx="571.4" cy="71.0" r="2.3" fill="#b9bdca" opacity="0.5"/><circle cx="572.0" cy="71.5" r="2.3" fill="#b9bdca" opacity="0.5"/><circle cx="572.1" cy="55.0" r="2.3" fill="#b9bdca" opacity="0.5"/><circle cx="577.7" cy="83.1" r="2.3" fill="#b9bdca" opacity="0.5"/><circle cx="579.0" cy="74.7" r="2.3" fill="#b9bdca" opacity="0.5"/><circle cx="579.1" cy="59.3" r="2.3" fill="#b9bdca" opacity="0.5"/><circle cx="579.1" cy="79.9" r="2.3" fill="#b9bdca" opacity="0.5"/><circle cx="579.3" cy="74.1" r="2.3" fill="#b9bdca" opacity="0.5"/><circle cx="579.5" cy="72.7" r="2.3" fill="#b9bdca" opacity="0.5"/><circle cx="579.6" cy="73.8" r="2.3" fill="#b9bdca" opacity="0.5"/><circle cx="579.6" cy="75.9" r="2.3" fill="#b9bdca" opacity="0.5"/><circle cx="579.8" cy="74.1" r="2.3" fill="#b9bdca" opacity="0.5"/><circle cx="580.1" cy="73.5" r="2.3" fill="#b9bdca" opacity="0.5"/><circle cx="580.5" cy="74.2" r="2.3" fill="#b9bdca" opacity="0.5"/><circle cx="580.7" cy="71.5" r="2.3" fill="#b9bdca" opacity="0.5"/><circle cx="581.6" cy="74.3" r="2.3" fill="#b9bdca" opacity="0.5"/><circle cx="586.0" cy="73.2" r="2.3" fill="#b9bdca" opacity="0.5"/><circle cx="586.0" cy="73.6" r="2.3" fill="#b9bdca" opacity="0.5"/><circle cx="586.0" cy="73.8" r="2.3" fill="#b9bdca" opacity="0.5"/><circle cx="594.6" cy="73.3" r="2.3" fill="#b9bdca" opacity="0.5"/><circle cx="594.6" cy="73.4" r="2.3" fill="#b9bdca" opacity="0.5"/><circle cx="614.2" cy="96.1" r="2.3" fill="#b9bdca" opacity="0.5"/><circle cx="694.2" cy="95.6" r="2.3" fill="#b9bdca" opacity="0.5"/><circle cx="720.7" cy="74.8" r="2.3" fill="#b9bdca" opacity="0.5"/><circle cx="722.0" cy="72.3" r="2.3" fill="#b9bdca" opacity="0.5"/><circle cx="729.6" cy="79.9" r="2.3" fill="#b9bdca" opacity="0.5"/><circle cx="729.6" cy="80.6" r="2.3" fill="#b9bdca" opacity="0.5"/><circle cx="744.7" cy="73.3" r="2.3" fill="#b9bdca" opacity="0.5"/><circle cx="744.7" cy="72.8" r="2.3" fill="#b9bdca" opacity="0.5"/><circle cx="744.7" cy="73.0" r="2.3" fill="#b9bdca" opacity="0.5"/><circle cx="744.7" cy="73.2" r="2.3" fill="#b9bdca" opacity="0.5"/><circle cx="744.7" cy="73.5" r="2.3" fill="#b9bdca" opacity="0.5"/><circle cx="744.7" cy="73.6" r="2.3" fill="#b9bdca" opacity="0.5"/><circle cx="744.7" cy="73.7" r="2.3" fill="#b9bdca" opacity="0.5"/><circle cx="745.2" cy="73.1" r="2.3" fill="#b9bdca" opacity="0.5"/><circle cx="745.2" cy="73.2" r="2.3" fill="#b9bdca" opacity="0.5"/><circle cx="745.2" cy="74.3" r="2.3" fill="#b9bdca" opacity="0.5"/><circle cx="745.2" cy="74.5" r="2.3" fill="#b9bdca" opacity="0.5"/><circle cx="745.2" cy="72.8" r="2.3" fill="#b9bdca" opacity="0.5"/><circle cx="745.5" cy="74.7" r="2.3" fill="#b9bdca" opacity="0.5"/><circle cx="782.1" cy="332.5" r="2.3" fill="#b9bdca" opacity="0.5"/><circle cx="826.0" cy="117.5" r="2.3" fill="#b9bdca" opacity="0.5"/><circle cx="826.0" cy="211.0" r="2.3" fill="#b9bdca" opacity="0.5"/><circle cx="837.1" cy="93.9" r="2.3" fill="#b9bdca" opacity="0.5"/><circle cx="854.2" cy="74.9" r="2.3" fill="#b9bdca" opacity="0.5"/><circle cx="854.5" cy="73.4" r="2.3" fill="#b9bdca" opacity="0.5"/><circle cx="854.8" cy="72.9" r="2.3" fill="#b9bdca" opacity="0.5"/><circle cx="855.1" cy="74.2" r="2.3" fill="#b9bdca" opacity="0.5"/><circle cx="855.2" cy="74.9" r="2.3" fill="#b9bdca" opacity="0.5"/><circle cx="855.4" cy="74.9" r="2.3" fill="#b9bdca" opacity="0.5"/><circle cx="855.7" cy="73.6" r="2.3" fill="#b9bdca" opacity="0.5"/><circle cx="855.8" cy="74.5" r="2.3" fill="#b9bdca" opacity="0.5"/><circle cx="856.0" cy="73.6" r="2.3" fill="#b9bdca" opacity="0.5"/><circle cx="856.4" cy="74.2" r="2.3" fill="#b9bdca" opacity="0.5"/><circle cx="857.0" cy="72.3" r="2.3" fill="#b9bdca" opacity="0.5"/><circle cx="857.3" cy="70.5" r="2.3" fill="#b9bdca" opacity="0.5"/><circle cx="857.6" cy="73.5" r="2.3" fill="#b9bdca" opacity="0.5"/><circle cx="857.8" cy="72.7" r="2.3" fill="#b9bdca" opacity="0.5"/><circle cx="858.0" cy="74.4" r="2.3" fill="#b9bdca" opacity="0.5"/><circle cx="876.8" cy="172.8" r="2.3" fill="#b9bdca" opacity="0.5"/><circle cx="877.0" cy="172.8" r="2.3" fill="#b9bdca" opacity="0.5"/><circle cx="877.8" cy="94.2" r="2.3" fill="#b9bdca" opacity="0.5"/><path d="M143.2 152.3L146.8 155.9L143.2 159.5L139.6 155.9Z" fill="#2b3a7a" opacity="0.8" stroke="none" stroke-width="0"/><path d="M148.6 138.2L152.2 141.8L148.6 145.4L145.0 141.8Z" fill="#2b3a7a" opacity="0.8" stroke="none" stroke-width="0"/><path d="M149.3 128.1L152.9 131.7L149.3 135.3L145.7 131.7Z" fill="#2b3a7a" opacity="0.8" stroke="none" stroke-width="0"/><path d="M149.4 130.5L153.0 134.1L149.4 137.7L145.8 134.1Z" fill="#2b3a7a" opacity="0.8" stroke="none" stroke-width="0"/><path d="M150.0 127.3L153.6 130.9L150.0 134.5L146.4 130.9Z" fill="#2b3a7a" opacity="0.8" stroke="none" stroke-width="0"/><path d="M150.3 125.9L153.9 129.5L150.3 133.1L146.7 129.5Z" fill="#2b3a7a" opacity="0.8" stroke="none" stroke-width="0"/><path d="M150.3 127.3L153.9 130.9L150.3 134.5L146.7 130.9Z" fill="#2b3a7a" opacity="0.8" stroke="none" stroke-width="0"/><path d="M167.1 125.9L170.7 129.5L167.1 133.1L163.5 129.5Z" fill="#2b3a7a" opacity="0.8" stroke="none" stroke-width="0"/><path d="M169.6 125.3L173.2 128.9L169.6 132.5L166.0 128.9Z" fill="#2b3a7a" opacity="0.8" stroke="none" stroke-width="0"/><path d="M172.0 124.8L175.6 128.4L172.0 132.0L168.4 128.4Z" fill="#2b3a7a" opacity="0.8" stroke="none" stroke-width="0"/><path d="M173.7 124.6L177.3 128.2L173.7 131.8L170.1 128.2Z" fill="#2b3a7a" opacity="0.8" stroke="none" stroke-width="0"/><path d="M181.2 124.4L184.8 128.0L181.2 131.6L177.6 128.0Z" fill="#2b3a7a" opacity="0.8" stroke="none" stroke-width="0"/><path d="M189.2 109.2L192.8 112.8L189.2 116.4L185.6 112.8Z" fill="#2b3a7a" opacity="0.8" stroke="none" stroke-width="0"/><path d="M192.9 108.0L196.5 111.6L192.9 115.2L189.3 111.6Z" fill="#2b3a7a" opacity="0.8" stroke="none" stroke-width="0"/><path d="M194.0 101.9L197.6 105.5L194.0 109.1L190.4 105.5Z" fill="#2b3a7a" opacity="0.8" stroke="none" stroke-width="0"/><path d="M194.2 104.9L197.8 108.5L194.2 112.1L190.6 108.5Z" fill="#2b3a7a" opacity="0.8" stroke="none" stroke-width="0"/><path d="M194.7 101.5L198.3 105.1L194.7 108.7L191.1 105.1Z" fill="#2b3a7a" opacity="0.8" stroke="none" stroke-width="0"/><path d="M195.2 100.2L198.8 103.8L195.2 107.4L191.6 103.8Z" fill="#2b3a7a" opacity="0.8" stroke="none" stroke-width="0"/><path d="M200.7 99.9L204.3 103.5L200.7 107.1L197.1 103.5Z" fill="#2b3a7a" opacity="0.8" stroke="none" stroke-width="0"/><path d="M211.0 86.0L214.6 89.6L211.0 93.2L207.4 89.6Z" fill="#2b3a7a" opacity="0.8" stroke="none" stroke-width="0"/><path d="M212.8 85.7L216.4 89.3L212.8 92.9L209.2 89.3Z" fill="#2b3a7a" opacity="0.8" stroke="none" stroke-width="0"/><path d="M213.1 84.0L216.7 87.6L213.1 91.2L209.5 87.6Z" fill="#2b3a7a" opacity="0.8" stroke="none" stroke-width="0"/><path d="M215.0 81.8L218.6 85.4L215.0 89.0L211.4 85.4Z" fill="#2b3a7a" opacity="0.8" stroke="none" stroke-width="0"/><path d="M220.7 80.8L224.3 84.4L220.7 88.0L217.1 84.4Z" fill="#2b3a7a" opacity="0.8" stroke="none" stroke-width="0"/><path d="M264.6 80.8L268.2 84.4L264.6 88.0L261.0 84.4Z" fill="#2b3a7a" opacity="0.8" stroke="none" stroke-width="0"/><path d="M374.0 72.2L377.6 75.8L374.0 79.4L370.4 75.8Z" fill="#2b3a7a" opacity="0.8" stroke="none" stroke-width="0"/><path d="M374.9 72.1L378.5 75.7L374.9 79.3L371.3 75.7Z" fill="#2b3a7a" opacity="0.8" stroke="none" stroke-width="0"/><path d="M376.1 71.7L379.7 75.3L376.1 78.9L372.5 75.3Z" fill="#2b3a7a" opacity="0.8" stroke="none" stroke-width="0"/><path d="M376.3 71.1L379.9 74.7L376.3 78.3L372.7 74.7Z" fill="#2b3a7a" opacity="0.8" stroke="none" stroke-width="0"/><path d="M377.3 71.1L380.9 74.7L377.3 78.3L373.7 74.7Z" fill="#2b3a7a" opacity="0.8" stroke="none" stroke-width="0"/><path d="M383.4 70.8L387.0 74.4L383.4 78.0L379.8 74.4Z" fill="#2b3a7a" opacity="0.8" stroke="none" stroke-width="0"/><path d="M391.8 70.3L395.4 73.9L391.8 77.5L388.2 73.9Z" fill="#2b3a7a" opacity="0.8" stroke="none" stroke-width="0"/><path d="M394.7 70.0L398.3 73.6L394.7 77.2L391.1 73.6Z" fill="#2b3a7a" opacity="0.8" stroke="none" stroke-width="0"/><path d="M439.0 69.8L442.6 73.4L439.0 77.0L435.4 73.4Z" fill="#2b3a7a" opacity="0.8" stroke="none" stroke-width="0"/><path d="M476.8 69.8L480.4 73.4L476.8 77.0L473.2 73.4Z" fill="#2b3a7a" opacity="0.8" stroke="none" stroke-width="0"/><path d="M502.0 67.8L505.6 71.4L502.0 75.0L498.4 71.4Z" fill="#2b3a7a" opacity="0.8" stroke="none" stroke-width="0"/><path d="M60.0 335.3L61.4 335.3L61.4 335.1L63.3 335.1L63.3 320.7L67.0 320.7L67.0 319.9L68.4 319.9L68.4 315.3L68.8 315.3L68.8 314.9L69.4 314.9L69.4 314.9L91.8 314.9L91.8 238.7L92.2 238.7L92.2 229.0L92.6 229.0L92.6 222.3L93.0 222.3L93.0 220.6L93.1 220.6L93.1 220.5L93.4 220.5L93.4 214.2L94.2 214.2L94.2 214.1L94.5 214.1L94.5 213.7L94.6 213.7L94.6 213.5L94.9 213.5L94.9 212.7L96.0 212.7L96.0 212.1L96.3 212.1L96.3 212.0L99.3 212.0L99.3 206.7L102.6 206.7L102.6 204.9L103.9 204.9L103.9 204.6L104.7 204.6L104.7 201.9L106.2 201.9L106.2 201.8L106.9 201.8L106.9 201.0L107.4 201.0L107.4 200.0L109.6 200.0L109.6 200.0L110.5 200.0L110.5 199.7L117.8 199.7L117.8 195.5L123.3 195.5L123.3 187.4L123.4 187.4L123.4 186.2L123.8 186.2L123.8 184.5L133.4 184.5L133.4 183.9L138.1 183.9L138.1 169.3L139.7 169.3L139.7 168.8L139.8 168.8L139.8 167.7L140.7 167.7L140.7 165.0L141.1 165.0L141.1 163.7L141.2 163.7L141.2 163.6L143.2 163.6L143.2 155.9L145.7 155.9L145.7 155.8L146.6 155.8L146.6 141.9L148.6 141.9L148.6 141.8L149.3 141.8L149.3 131.7L150.0 131.7L150.0 130.9L150.3 130.9L150.3 129.5L167.1 129.5L167.1 129.5L169.6 129.5L169.6 128.9L172.0 128.9L172.0 128.4L173.7 128.4L173.7 128.2L181.2 128.2L181.2 128.0L189.2 128.0L189.2 112.8L190.9 112.8L190.9 110.2L194.0 110.2L194.0 105.5L194.7 105.5L194.7 105.1L195.2 105.1L195.2 103.8L200.7 103.8L200.7 103.5L211.0 103.5L211.0 89.6L212.8 89.6L212.8 89.3L213.1 89.3L213.1 87.6L215.0 87.6L215.0 85.4L220.7 85.4L220.7 84.4L264.6 84.4L264.6 84.4L374.0 84.4L374.0 75.8L374.9 75.8L374.9 75.7L376.1 75.7L376.1 75.3L376.3 75.3L376.3 74.7L377.3 74.7L377.3 74.7L383.4 74.7L383.4 74.4L391.8 74.4L391.8 73.9L394.7 73.9L394.7 73.6L399.2 73.6L399.2 69.8L401.2 69.8L401.2 69.1L572.1 69.1L572.1 55.0L1032.0 55.0" fill="none" stroke="#6675b0" stroke-width="1.6" stroke-dasharray="5 3" opacity="0.75"/><path d="M143.2 155.9L148.6 155.9L148.6 141.8L149.3 141.8L149.3 131.7L150.0 131.7L150.0 130.9L150.3 130.9L150.3 129.5L167.1 129.5L167.1 129.5L169.6 129.5L169.6 128.9L172.0 128.9L172.0 128.4L173.7 128.4L173.7 128.2L181.2 128.2L181.2 128.0L189.2 128.0L189.2 112.8L192.9 112.8L192.9 111.6L194.0 111.6L194.0 105.5L194.7 105.5L194.7 105.1L195.2 105.1L195.2 103.8L200.7 103.8L200.7 103.5L211.0 103.5L211.0 89.6L212.8 89.6L212.8 89.3L213.1 89.3L213.1 87.6L215.0 87.6L215.0 85.4L220.7 85.4L220.7 84.4L264.6 84.4L264.6 84.4L374.0 84.4L374.0 75.8L374.9 75.8L374.9 75.7L376.1 75.7L376.1 75.3L376.3 75.3L376.3 74.7L377.3 74.7L377.3 74.7L383.4 74.7L383.4 74.4L391.8 74.4L391.8 73.9L394.7 73.9L394.7 73.6L399.2 73.6L399.2 73.5L439.0 73.5L439.0 73.4L476.8 73.4L476.8 73.4L502.0 73.4L502.0 71.4L1032.0 71.4" fill="none" stroke="#2b3a7a" stroke-width="2.6"/><path d="M338.5 246.9L345.0 253.4L338.5 259.9L332.0 253.4Z" fill="#c5961a" opacity="1.0" stroke="#ffffff" stroke-width="1.4"/><path d="M392.9 206.5L399.4 213.0L392.9 219.5L386.4 213.0Z" fill="#c5961a" opacity="1.0" stroke="#ffffff" stroke-width="1.4"/><path d="M399.2 67.0L405.7 73.5L399.2 80.0L392.7 73.5Z" fill="#c5961a" opacity="1.0" stroke="#ffffff" stroke-width="1.4"/><path d="M445.8 240.8L452.3 247.3L445.8 253.8L439.3 247.3Z" fill="#c5961a" opacity="1.0" stroke="#ffffff" stroke-width="1.4"/><path d="M446.2 238.0L452.7 244.5L446.2 251.0L439.7 244.5Z" fill="#c5961a" opacity="1.0" stroke="#ffffff" stroke-width="1.4"/><path d="M1032.0 66.6L1038.5 73.1L1032.0 79.6L1025.5 73.1Z" fill="#c5961a" opacity="1.0" stroke="#ffffff" stroke-width="1.4"/><text x="1042" y="53.0" font-size="11.5" fill="#6675b0">– – raw best 535.9</text><text x="1042" y="67.0" font-size="10" fill="#8a8fa3">unverified (pending)</text><path d="M502.0 64.9L508.5 71.4L502.0 77.9L495.5 71.4Z" fill="#2b3a7a" opacity="1.0" stroke="#ffffff" stroke-width="1.4"/><text x="1042" y="99.4" font-size="12.5" fill="#2b3a7a" font-weight="bold">◆ verified 510.1</text><text x="1042" y="115.4" font-size="10.5" fill="#3a3f55">top verified</text><text x="60" y="24" font-size="13" font-weight="bold" fill="#3a3f55" letter-spacing="1.2">SCORE EVOLUTION — gemma-challenge (tok/s)</text><circle cx="452" cy="20" r="3" fill="#b9bdca"/><text x="460" y="24" font-size="10.5" fill="#8a8fa3">all results</text><path d="M544.0 16.4L547.6 20.0L544.0 23.6L540.4 20.0Z" fill="#2b3a7a" opacity="1.0" stroke="none" stroke-width="0"/><text x="552" y="24" font-size="10.5" fill="#8a8fa3">verified</text><path d="M620.0 15.5L624.5 20.0L620.0 24.5L615.5 20.0Z" fill="#c5961a" opacity="1.0" stroke="#fff" stroke-width="1"/><text x="629" y="24" font-size="10.5" fill="#8a8fa3">mikasa-inbound (us)</text></svg>