<svg viewBox="0 0 1200 440" xmlns="http://www.w3.org/2000/svg" font-family="ui-sans-serif,system-ui,-apple-system,sans-serif"><rect x="0" y="0" width="1200" height="440" fill="#ffffff"/><rect x="60" y="46" width="972" height="350" fill="#f3f4fb"/><line x1="60" y1="396.0" x2="1032" y2="396.0" stroke="#e3e5ef" stroke-width="1"/><text x="52" y="400.0" text-anchor="end" font-size="11" fill="#8a8fa3">0</text><line x1="60" y1="332.4" x2="1032" y2="332.4" stroke="#e3e5ef" stroke-width="1"/><text x="52" y="336.4" text-anchor="end" font-size="11" fill="#8a8fa3">100</text><line x1="60" y1="268.7" x2="1032" y2="268.7" stroke="#e3e5ef" stroke-width="1"/><text x="52" y="272.7" text-anchor="end" font-size="11" fill="#8a8fa3">200</text><line x1="60" y1="205.1" x2="1032" y2="205.1" stroke="#e3e5ef" stroke-width="1"/><text x="52" y="209.1" text-anchor="end" font-size="11" fill="#8a8fa3">300</text><line x1="60" y1="141.5" x2="1032" y2="141.5" stroke="#e3e5ef" stroke-width="1"/><text x="52" y="145.5" text-anchor="end" font-size="11" fill="#8a8fa3">400</text><line x1="60" y1="77.8" x2="1032" y2="77.8" stroke="#e3e5ef" stroke-width="1"/><text x="52" y="81.8" text-anchor="end" font-size="11" fill="#8a8fa3">500</text><line x1="135.1" y1="46" x2="135.1" y2="396" stroke="#e3e5ef" stroke-width="1"/><text x="135.1" y="414.0" text-anchor="middle" font-size="11" fill="#8a8fa3">Jun 10</text><line x1="242.1" y1="46" x2="242.1" y2="396" stroke="#e3e5ef" stroke-width="1"/><text x="242.1" y="414.0" text-anchor="middle" font-size="11" fill="#8a8fa3">Jun 12</text><line x1="349.2" y1="46" x2="349.2" y2="396" stroke="#e3e5ef" stroke-width="1"/><text x="349.2" y="414.0" text-anchor="middle" font-size="11" fill="#8a8fa3">Jun 14</text><line x1="456.2" y1="46" x2="456.2" y2="396" stroke="#e3e5ef" stroke-width="1"/><text x="456.2" y="414.0" text-anchor="middle" font-size="11" fill="#8a8fa3">Jun 16</text><line x1="563.3" y1="46" x2="563.3" y2="396" stroke="#e3e5ef" stroke-width="1"/><text x="563.3" y="414.0" text-anchor="middle" font-size="11" fill="#8a8fa3">Jun 18</text><line x1="670.4" y1="46" x2="670.4" y2="396" stroke="#e3e5ef" stroke-width="1"/><text x="670.4" y="414.0" text-anchor="middle" font-size="11" fill="#8a8fa3">Jun 20</text><line x1="777.4" y1="46" x2="777.4" y2="396" stroke="#e3e5ef" stroke-width="1"/><text x="777.4" y="414.0" text-anchor="middle" font-size="11" fill="#8a8fa3">Jun 22</text><line x1="884.5" y1="46" x2="884.5" y2="396" stroke="#e3e5ef" stroke-width="1"/><text x="884.5" y="414.0" text-anchor="middle" font-size="11" fill="#8a8fa3">Jun 24</text><line x1="991.6" y1="46" x2="991.6" y2="396" stroke="#e3e5ef" stroke-width="1"/><text x="991.6" y="414.0" text-anchor="middle" font-size="11" fill="#8a8fa3">Jun 26</text><circle cx="60.0" cy="335.3" r="2.3" fill="#b9bdca" opacity="0.5"/><circle cx="62.6" cy="335.1" r="2.3" fill="#b9bdca" opacity="0.5"/><circle cx="65.2" cy="368.0" r="2.3" fill="#b9bdca" opacity="0.5"/><circle cx="66.2" cy="320.7" r="2.3" fill="#b9bdca" opacity="0.5"/><circle cx="73.3" cy="319.9" r="2.3" fill="#b9bdca" opacity="0.5"/><circle cx="73.7" cy="320.6" r="2.3" fill="#b9bdca" opacity="0.5"/><circle cx="76.0" cy="315.3" r="2.3" fill="#b9bdca" opacity="0.5"/><circle cx="76.5" cy="319.7" r="2.3" fill="#b9bdca" opacity="0.5"/><circle cx="76.7" cy="314.9" r="2.3" fill="#b9bdca" opacity="0.5"/><circle cx="77.5" cy="315.5" r="2.3" fill="#b9bdca" opacity="0.5"/><circle cx="77.8" cy="314.9" r="2.3" fill="#b9bdca" opacity="0.5"/><circle cx="78.6" cy="315.4" r="2.3" fill="#b9bdca" opacity="0.5"/><circle cx="79.9" cy="315.0" r="2.3" fill="#b9bdca" opacity="0.5"/><circle cx="120.4" cy="238.7" r="2.3" fill="#b9bdca" opacity="0.5"/><circle cx="120.8" cy="315.0" r="2.3" fill="#b9bdca" opacity="0.5"/><circle cx="121.2" cy="229.0" r="2.3" fill="#b9bdca" opacity="0.5"/><circle cx="121.8" cy="222.3" r="2.3" fill="#b9bdca" opacity="0.5"/><circle cx="122.5" cy="228.0" r="2.3" fill="#b9bdca" opacity="0.5"/><circle cx="122.6" cy="223.3" r="2.3" fill="#b9bdca" opacity="0.5"/><circle cx="122.7" cy="220.6" r="2.3" fill="#b9bdca" opacity="0.5"/><circle cx="122.8" cy="220.5" r="2.3" fill="#b9bdca" opacity="0.5"/><circle cx="123.0" cy="223.2" r="2.3" fill="#b9bdca" opacity="0.5"/><circle cx="123.3" cy="214.2" r="2.3" fill="#b9bdca" opacity="0.5"/><circle cx="123.4" cy="222.1" r="2.3" fill="#b9bdca" opacity="0.5"/><circle cx="123.7" cy="220.7" r="2.3" fill="#b9bdca" opacity="0.5"/><circle cx="124.1" cy="218.5" r="2.3" fill="#b9bdca" opacity="0.5"/><circle cx="124.3" cy="215.2" r="2.3" fill="#b9bdca" opacity="0.5"/><circle cx="124.6" cy="214.3" r="2.3" fill="#b9bdca" opacity="0.5"/><circle cx="124.6" cy="219.2" r="2.3" fill="#b9bdca" opacity="0.5"/><circle cx="124.9" cy="214.1" r="2.3" fill="#b9bdca" opacity="0.5"/><circle cx="125.2" cy="215.2" r="2.3" fill="#b9bdca" opacity="0.5"/><circle cx="125.4" cy="213.7" r="2.3" fill="#b9bdca" opacity="0.5"/><circle cx="125.7" cy="213.5" r="2.3" fill="#b9bdca" opacity="0.5"/><circle cx="126.0" cy="214.8" r="2.3" fill="#b9bdca" opacity="0.5"/><circle cx="126.0" cy="217.7" r="2.3" fill="#b9bdca" opacity="0.5"/><circle cx="126.2" cy="212.7" r="2.3" fill="#b9bdca" opacity="0.5"/><circle cx="126.8" cy="213.3" r="2.3" fill="#b9bdca" opacity="0.5"/><circle cx="127.6" cy="212.7" r="2.3" fill="#b9bdca" opacity="0.5"/><circle cx="127.6" cy="213.6" r="2.3" fill="#b9bdca" opacity="0.5"/><circle cx="127.8" cy="213.0" r="2.3" fill="#b9bdca" opacity="0.5"/><circle cx="128.3" cy="212.1" r="2.3" fill="#b9bdca" opacity="0.5"/><circle cx="128.4" cy="213.3" r="2.3" fill="#b9bdca" opacity="0.5"/><circle cx="128.8" cy="212.0" r="2.3" fill="#b9bdca" opacity="0.5"/><circle cx="129.6" cy="212.1" r="2.3" fill="#b9bdca" opacity="0.5"/><circle cx="129.6" cy="212.8" r="2.3" fill="#b9bdca" opacity="0.5"/><circle cx="134.5" cy="206.7" r="2.3" fill="#b9bdca" opacity="0.5"/><circle cx="135.2" cy="206.8" r="2.3" fill="#b9bdca" opacity="0.5"/><circle cx="135.2" cy="212.5" r="2.3" fill="#b9bdca" opacity="0.5"/><circle cx="135.6" cy="207.2" r="2.3" fill="#b9bdca" opacity="0.5"/><circle cx="137.2" cy="207.0" r="2.3" fill="#b9bdca" opacity="0.5"/><circle cx="140.9" cy="204.9" r="2.3" fill="#b9bdca" opacity="0.5"/><circle cx="143.3" cy="204.6" r="2.3" fill="#b9bdca" opacity="0.5"/><circle cx="143.5" cy="212.3" r="2.3" fill="#b9bdca" opacity="0.5"/><circle cx="143.9" cy="204.6" r="2.3" fill="#b9bdca" opacity="0.5"/><circle cx="143.9" cy="204.6" r="2.3" fill="#b9bdca" opacity="0.5"/><circle cx="143.9" cy="204.9" r="2.3" fill="#b9bdca" opacity="0.5"/><circle cx="143.9" cy="204.9" r="2.3" fill="#b9bdca" opacity="0.5"/><circle cx="144.8" cy="201.9" r="2.3" fill="#b9bdca" opacity="0.5"/><circle cx="146.3" cy="206.5" r="2.3" fill="#b9bdca" opacity="0.5"/><circle cx="146.9" cy="205.8" r="2.3" fill="#b9bdca" opacity="0.5"/><circle cx="146.9" cy="335.1" r="2.3" fill="#b9bdca" opacity="0.5"/><circle cx="147.7" cy="201.8" r="2.3" fill="#b9bdca" opacity="0.5"/><circle cx="147.7" cy="202.2" r="2.3" fill="#b9bdca" opacity="0.5"/><circle cx="149.1" cy="201.0" r="2.3" fill="#b9bdca" opacity="0.5"/><circle cx="149.7" cy="203.1" r="2.3" fill="#b9bdca" opacity="0.5"/><circle cx="150.0" cy="200.0" r="2.3" fill="#b9bdca" opacity="0.5"/><circle cx="150.0" cy="204.6" r="2.3" fill="#b9bdca" opacity="0.5"/><circle cx="150.9" cy="202.3" r="2.3" fill="#b9bdca" opacity="0.5"/><circle cx="152.7" cy="200.4" r="2.3" fill="#b9bdca" opacity="0.5"/><circle cx="153.3" cy="200.7" r="2.3" fill="#b9bdca" opacity="0.5"/><circle cx="154.1" cy="200.0" r="2.3" fill="#b9bdca" opacity="0.5"/><circle cx="155.8" cy="199.7" r="2.3" fill="#b9bdca" opacity="0.5"/><circle cx="166.0" cy="200.6" r="2.3" fill="#b9bdca" opacity="0.5"/><circle cx="166.9" cy="201.8" r="2.3" fill="#b9bdca" opacity="0.5"/><circle cx="168.3" cy="208.4" r="2.3" fill="#b9bdca" opacity="0.5"/><circle cx="168.3" cy="200.8" r="2.3" fill="#b9bdca" opacity="0.5"/><circle cx="169.3" cy="200.7" r="2.3" fill="#b9bdca" opacity="0.5"/><circle cx="169.3" cy="201.9" r="2.3" fill="#b9bdca" opacity="0.5"/><circle cx="169.7" cy="195.5" r="2.3" fill="#b9bdca" opacity="0.5"/><circle cx="170.6" cy="196.9" r="2.3" fill="#b9bdca" opacity="0.5"/><circle cx="171.1" cy="197.9" r="2.3" fill="#b9bdca" opacity="0.5"/><circle cx="172.0" cy="196.1" r="2.3" fill="#b9bdca" opacity="0.5"/><circle cx="175.2" cy="197.3" r="2.3" fill="#b9bdca" opacity="0.5"/><circle cx="176.0" cy="195.9" r="2.3" fill="#b9bdca" opacity="0.5"/><circle cx="176.3" cy="201.0" r="2.3" fill="#b9bdca" opacity="0.5"/><circle cx="176.6" cy="197.5" r="2.3" fill="#b9bdca" opacity="0.5"/><circle cx="177.3" cy="196.9" r="2.3" fill="#b9bdca" opacity="0.5"/><circle cx="177.3" cy="197.1" r="2.3" fill="#b9bdca" opacity="0.5"/><circle cx="177.4" cy="197.0" r="2.3" fill="#b9bdca" opacity="0.5"/><circle cx="178.1" cy="196.0" r="2.3" fill="#b9bdca" opacity="0.5"/><circle cx="178.1" cy="196.0" r="2.3" fill="#b9bdca" opacity="0.5"/><circle cx="178.2" cy="197.9" r="2.3" fill="#b9bdca" opacity="0.5"/><circle cx="178.7" cy="197.8" r="2.3" fill="#b9bdca" opacity="0.5"/><circle cx="179.1" cy="196.2" r="2.3" fill="#b9bdca" opacity="0.5"/><circle cx="179.2" cy="197.5" r="2.3" fill="#b9bdca" opacity="0.5"/><circle cx="179.3" cy="196.9" r="2.3" fill="#b9bdca" opacity="0.5"/><circle cx="179.4" cy="195.5" r="2.3" fill="#b9bdca" opacity="0.5"/><circle cx="180.0" cy="198.1" r="2.3" fill="#b9bdca" opacity="0.5"/><circle cx="180.1" cy="187.4" r="2.3" fill="#b9bdca" opacity="0.5"/><circle cx="180.4" cy="186.2" r="2.3" fill="#b9bdca" opacity="0.5"/><circle cx="180.4" cy="196.3" r="2.3" fill="#b9bdca" opacity="0.5"/><circle cx="180.4" cy="197.2" r="2.3" fill="#b9bdca" opacity="0.5"/><circle cx="180.4" cy="197.8" r="2.3" fill="#b9bdca" opacity="0.5"/><circle cx="180.4" cy="368.0" r="2.3" fill="#b9bdca" opacity="0.5"/><circle cx="181.1" cy="184.5" r="2.3" fill="#b9bdca" opacity="0.5"/><circle cx="183.9" cy="184.6" r="2.3" fill="#b9bdca" opacity="0.5"/><circle cx="185.1" cy="185.6" r="2.3" fill="#b9bdca" opacity="0.5"/><circle cx="189.1" cy="188.7" r="2.3" fill="#b9bdca" opacity="0.5"/><circle cx="194.5" cy="185.4" r="2.3" fill="#b9bdca" opacity="0.5"/><circle cx="195.7" cy="185.2" r="2.3" fill="#b9bdca" opacity="0.5"/><circle cx="196.1" cy="186.6" r="2.3" fill="#b9bdca" opacity="0.5"/><circle cx="196.2" cy="185.3" r="2.3" fill="#b9bdca" opacity="0.5"/><circle cx="197.2" cy="185.3" r="2.3" fill="#b9bdca" opacity="0.5"/><circle cx="197.6" cy="185.0" r="2.3" fill="#b9bdca" opacity="0.5"/><circle cx="198.5" cy="184.9" r="2.3" fill="#b9bdca" opacity="0.5"/><circle cx="199.2" cy="185.1" r="2.3" fill="#b9bdca" opacity="0.5"/><circle cx="199.2" cy="185.2" r="2.3" fill="#b9bdca" opacity="0.5"/><circle cx="199.2" cy="186.4" r="2.3" fill="#b9bdca" opacity="0.5"/><circle cx="199.3" cy="183.9" r="2.3" fill="#b9bdca" opacity="0.5"/><circle cx="204.3" cy="184.4" r="2.3" fill="#b9bdca" opacity="0.5"/><circle cx="205.1" cy="184.2" r="2.3" fill="#b9bdca" opacity="0.5"/><circle cx="208.3" cy="169.3" r="2.3" fill="#b9bdca" opacity="0.5"/><circle cx="211.3" cy="168.8" r="2.3" fill="#b9bdca" opacity="0.5"/><circle cx="211.5" cy="167.7" r="2.3" fill="#b9bdca" opacity="0.5"/><circle cx="212.8" cy="201.4" r="2.3" fill="#b9bdca" opacity="0.5"/><circle cx="213.2" cy="165.0" r="2.3" fill="#b9bdca" opacity="0.5"/><circle cx="213.5" cy="198.2" r="2.3" fill="#b9bdca" opacity="0.5"/><circle cx="213.9" cy="163.7" r="2.3" fill="#b9bdca" opacity="0.5"/><circle cx="214.1" cy="163.6" r="2.3" fill="#b9bdca" opacity="0.5"/><circle cx="214.6" cy="165.9" r="2.3" fill="#b9bdca" opacity="0.5"/><circle cx="217.3" cy="165.1" r="2.3" fill="#b9bdca" opacity="0.5"/><circle cx="217.9" cy="155.9" r="2.3" fill="#b9bdca" opacity="0.5"/><circle cx="220.6" cy="196.5" r="2.3" fill="#b9bdca" opacity="0.5"/><circle cx="221.6" cy="157.4" r="2.3" fill="#b9bdca" opacity="0.5"/><circle cx="222.6" cy="155.8" r="2.3" fill="#b9bdca" opacity="0.5"/><circle cx="224.4" cy="141.9" r="2.3" fill="#b9bdca" opacity="0.5"/><circle cx="228.0" cy="156.1" r="2.3" fill="#b9bdca" opacity="0.5"/><circle cx="228.0" cy="156.4" r="2.3" fill="#b9bdca" opacity="0.5"/><circle cx="228.1" cy="141.8" r="2.3" fill="#b9bdca" opacity="0.5"/><circle cx="228.3" cy="196.0" r="2.3" fill="#b9bdca" opacity="0.5"/><circle cx="229.5" cy="131.7" r="2.3" fill="#b9bdca" opacity="0.5"/><circle cx="229.7" cy="134.1" r="2.3" fill="#b9bdca" opacity="0.5"/><circle cx="230.1" cy="141.1" r="2.3" fill="#b9bdca" opacity="0.5"/><circle cx="230.7" cy="134.0" r="2.3" fill="#b9bdca" opacity="0.5"/><circle cx="230.8" cy="130.9" r="2.3" fill="#b9bdca" opacity="0.5"/><circle cx="230.8" cy="154.2" r="2.3" fill="#b9bdca" opacity="0.5"/><circle cx="231.0" cy="133.6" r="2.3" fill="#b9bdca" opacity="0.5"/><circle cx="231.3" cy="129.5" r="2.3" fill="#b9bdca" opacity="0.5"/><circle cx="231.3" cy="130.9" r="2.3" fill="#b9bdca" opacity="0.5"/><circle cx="231.3" cy="133.4" r="2.3" fill="#b9bdca" opacity="0.5"/><circle cx="231.6" cy="131.2" r="2.3" fill="#b9bdca" opacity="0.5"/><circle cx="233.8" cy="189.8" r="2.3" fill="#b9bdca" opacity="0.5"/><circle cx="233.9" cy="133.2" r="2.3" fill="#b9bdca" opacity="0.5"/><circle cx="234.3" cy="133.5" r="2.3" fill="#b9bdca" opacity="0.5"/><circle cx="235.1" cy="130.1" r="2.3" fill="#b9bdca" opacity="0.5"/><circle cx="237.3" cy="130.3" r="2.3" fill="#b9bdca" opacity="0.5"/><circle cx="238.3" cy="303.1" r="2.3" fill="#b9bdca" opacity="0.5"/><circle cx="240.1" cy="133.2" r="2.3" fill="#b9bdca" opacity="0.5"/><circle cx="242.5" cy="144.2" r="2.3" fill="#b9bdca" opacity="0.5"/><circle cx="243.0" cy="135.3" r="2.3" fill="#b9bdca" opacity="0.5"/><circle cx="244.5" cy="133.4" r="2.3" fill="#b9bdca" opacity="0.5"/><circle cx="244.6" cy="159.9" r="2.3" fill="#b9bdca" opacity="0.5"/><circle cx="245.0" cy="130.8" r="2.3" fill="#b9bdca" opacity="0.5"/><circle cx="245.6" cy="133.2" r="2.3" fill="#b9bdca" opacity="0.5"/><circle cx="251.0" cy="130.9" r="2.3" fill="#b9bdca" opacity="0.5"/><circle cx="251.6" cy="130.9" r="2.3" fill="#b9bdca" opacity="0.5"/><circle cx="251.6" cy="133.8" r="2.3" fill="#b9bdca" opacity="0.5"/><circle cx="252.5" cy="130.4" r="2.3" fill="#b9bdca" opacity="0.5"/><circle cx="253.1" cy="153.7" r="2.3" fill="#b9bdca" opacity="0.5"/><circle cx="254.1" cy="133.3" r="2.3" fill="#b9bdca" opacity="0.5"/><circle cx="255.8" cy="156.5" r="2.3" fill="#b9bdca" opacity="0.5"/><circle cx="256.1" cy="132.3" r="2.3" fill="#b9bdca" opacity="0.5"/><circle cx="258.1" cy="147.2" r="2.3" fill="#b9bdca" opacity="0.5"/><circle cx="258.5" cy="133.6" r="2.3" fill="#b9bdca" opacity="0.5"/><circle cx="259.2" cy="129.5" r="2.3" fill="#b9bdca" opacity="0.5"/><circle cx="259.2" cy="133.3" r="2.3" fill="#b9bdca" opacity="0.5"/><circle cx="261.6" cy="133.3" r="2.3" fill="#b9bdca" opacity="0.5"/><circle cx="263.2" cy="129.5" r="2.3" fill="#b9bdca" opacity="0.5"/><circle cx="265.9" cy="130.6" r="2.3" fill="#b9bdca" opacity="0.5"/><circle cx="268.0" cy="128.9" r="2.3" fill="#b9bdca" opacity="0.5"/><circle cx="268.4" cy="132.7" r="2.3" fill="#b9bdca" opacity="0.5"/><circle cx="268.4" cy="133.1" r="2.3" fill="#b9bdca" opacity="0.5"/><circle cx="271.5" cy="129.8" r="2.3" fill="#b9bdca" opacity="0.5"/><circle cx="272.3" cy="333.8" r="2.3" fill="#b9bdca" opacity="0.5"/><circle cx="272.6" cy="128.4" r="2.3" fill="#b9bdca" opacity="0.5"/><circle cx="274.0" cy="129.8" r="2.3" fill="#b9bdca" opacity="0.5"/><circle cx="274.5" cy="128.9" r="2.3" fill="#b9bdca" opacity="0.5"/><circle cx="274.7" cy="128.9" r="2.3" fill="#b9bdca" opacity="0.5"/><circle cx="275.7" cy="128.2" r="2.3" fill="#b9bdca" opacity="0.5"/><circle cx="276.5" cy="129.7" r="2.3" fill="#b9bdca" opacity="0.5"/><circle cx="276.8" cy="142.3" r="2.3" fill="#b9bdca" opacity="0.5"/><circle cx="279.7" cy="128.8" r="2.3" fill="#b9bdca" opacity="0.5"/><circle cx="281.4" cy="161.1" r="2.3" fill="#b9bdca" opacity="0.5"/><circle cx="284.6" cy="164.4" r="2.3" fill="#b9bdca" opacity="0.5"/><circle cx="285.0" cy="248.3" r="2.3" fill="#b9bdca" opacity="0.5"/><circle cx="289.7" cy="135.4" r="2.3" fill="#b9bdca" opacity="0.5"/><circle cx="290.1" cy="128.0" r="2.3" fill="#b9bdca" opacity="0.5"/><circle cx="291.6" cy="229.0" r="2.3" fill="#b9bdca" opacity="0.5"/><circle cx="294.8" cy="128.1" r="2.3" fill="#b9bdca" opacity="0.5"/><circle cx="295.7" cy="128.6" r="2.3" fill="#b9bdca" opacity="0.5"/><circle cx="298.7" cy="128.8" r="2.3" fill="#b9bdca" opacity="0.5"/><circle cx="298.7" cy="129.6" r="2.3" fill="#b9bdca" opacity="0.5"/><circle cx="298.7" cy="130.9" r="2.3" fill="#b9bdca" opacity="0.5"/><circle cx="305.2" cy="112.8" r="2.3" fill="#b9bdca" opacity="0.5"/><circle cx="308.5" cy="110.2" r="2.3" fill="#b9bdca" opacity="0.5"/><circle cx="308.6" cy="111.6" r="2.3" fill="#b9bdca" opacity="0.5"/><circle cx="310.7" cy="111.0" r="2.3" fill="#b9bdca" opacity="0.5"/><circle cx="311.7" cy="335.1" r="2.3" fill="#b9bdca" opacity="0.5"/><circle cx="312.3" cy="111.6" r="2.3" fill="#b9bdca" opacity="0.5"/><circle cx="314.4" cy="105.5" r="2.3" fill="#b9bdca" opacity="0.5"/><circle cx="314.7" cy="108.5" r="2.3" fill="#b9bdca" opacity="0.5"/><circle cx="315.6" cy="105.1" r="2.3" fill="#b9bdca" opacity="0.5"/><circle cx="316.6" cy="103.8" r="2.3" fill="#b9bdca" opacity="0.5"/><circle cx="317.7" cy="125.8" r="2.3" fill="#b9bdca" opacity="0.5"/><circle cx="326.9" cy="103.5" r="2.3" fill="#b9bdca" opacity="0.5"/><circle cx="329.3" cy="127.8" r="2.3" fill="#b9bdca" opacity="0.5"/><circle cx="330.4" cy="334.3" r="2.3" fill="#b9bdca" opacity="0.5"/><circle cx="331.8" cy="128.6" r="2.3" fill="#b9bdca" opacity="0.5"/><circle cx="332.5" cy="128.6" r="2.3" fill="#b9bdca" opacity="0.5"/><circle cx="332.6" cy="128.6" r="2.3" fill="#b9bdca" opacity="0.5"/><circle cx="333.5" cy="256.6" r="2.3" fill="#b9bdca" opacity="0.5"/><circle cx="334.5" cy="254.6" r="2.3" fill="#b9bdca" opacity="0.5"/><circle cx="336.2" cy="128.6" r="2.3" fill="#b9bdca" opacity="0.5"/><circle cx="340.5" cy="250.1" r="2.3" fill="#b9bdca" opacity="0.5"/><circle cx="340.9" cy="161.4" r="2.3" fill="#b9bdca" opacity="0.5"/><circle cx="341.3" cy="206.6" r="2.3" fill="#b9bdca" opacity="0.5"/><circle cx="345.2" cy="113.5" r="2.3" fill="#b9bdca" opacity="0.5"/><circle cx="346.5" cy="89.6" r="2.3" fill="#b9bdca" opacity="0.5"/><circle cx="347.5" cy="90.2" r="2.3" fill="#b9bdca" opacity="0.5"/><circle cx="350.0" cy="89.3" r="2.3" fill="#b9bdca" opacity="0.5"/><circle cx="350.6" cy="87.6" r="2.3" fill="#b9bdca" opacity="0.5"/><circle cx="351.4" cy="185.0" r="2.3" fill="#b9bdca" opacity="0.5"/><circle cx="352.3" cy="131.6" r="2.3" fill="#b9bdca" opacity="0.5"/><circle cx="353.0" cy="87.8" r="2.3" fill="#b9bdca" opacity="0.5"/><circle cx="354.1" cy="85.4" r="2.3" fill="#b9bdca" opacity="0.5"/><circle cx="355.9" cy="86.8" r="2.3" fill="#b9bdca" opacity="0.5"/><circle cx="357.7" cy="88.4" r="2.3" fill="#b9bdca" opacity="0.5"/><circle cx="365.0" cy="89.5" r="2.3" fill="#b9bdca" opacity="0.5"/><circle cx="365.0" cy="155.6" r="2.3" fill="#b9bdca" opacity="0.5"/><circle cx="365.1" cy="84.4" r="2.3" fill="#b9bdca" opacity="0.5"/><circle cx="373.8" cy="89.2" r="2.3" fill="#b9bdca" opacity="0.5"/><circle cx="374.0" cy="90.5" r="2.3" fill="#b9bdca" opacity="0.5"/><circle cx="376.5" cy="87.7" r="2.3" fill="#b9bdca" opacity="0.5"/><circle cx="377.3" cy="367.9" r="2.3" fill="#b9bdca" opacity="0.5"/><circle cx="380.9" cy="164.3" r="2.3" fill="#b9bdca" opacity="0.5"/><circle cx="382.6" cy="94.6" r="2.3" fill="#b9bdca" opacity="0.5"/><circle cx="383.3" cy="89.6" r="2.3" fill="#b9bdca" opacity="0.5"/><circle cx="390.9" cy="124.6" r="2.3" fill="#b9bdca" opacity="0.5"/><circle cx="398.9" cy="146.2" r="2.3" fill="#b9bdca" opacity="0.5"/><circle cx="399.1" cy="90.5" r="2.3" fill="#b9bdca" opacity="0.5"/><circle cx="399.9" cy="87.7" r="2.3" fill="#b9bdca" opacity="0.5"/><circle cx="400.3" cy="87.7" r="2.3" fill="#b9bdca" opacity="0.5"/><circle cx="400.3" cy="89.6" r="2.3" fill="#b9bdca" opacity="0.5"/><circle cx="406.1" cy="93.0" r="2.3" fill="#b9bdca" opacity="0.5"/><circle cx="408.1" cy="85.5" r="2.3" fill="#b9bdca" opacity="0.5"/><circle cx="425.1" cy="334.8" r="2.3" fill="#b9bdca" opacity="0.5"/><circle cx="427.0" cy="86.3" r="2.3" fill="#b9bdca" opacity="0.5"/><circle cx="432.7" cy="85.5" r="2.3" fill="#b9bdca" opacity="0.5"/><circle cx="433.7" cy="84.6" r="2.3" fill="#b9bdca" opacity="0.5"/><circle cx="436.1" cy="87.8" r="2.3" fill="#b9bdca" opacity="0.5"/><circle cx="437.1" cy="84.4" r="2.3" fill="#b9bdca" opacity="0.5"/><circle cx="437.6" cy="84.8" r="2.3" fill="#b9bdca" opacity="0.5"/><circle cx="439.3" cy="87.4" r="2.3" fill="#b9bdca" opacity="0.5"/><circle cx="448.4" cy="84.4" r="2.3" fill="#b9bdca" opacity="0.5"/><circle cx="488.4" cy="89.3" r="2.3" fill="#b9bdca" opacity="0.5"/><circle cx="495.6" cy="88.6" r="2.3" fill="#b9bdca" opacity="0.5"/><circle cx="495.6" cy="92.1" r="2.3" fill="#b9bdca" opacity="0.5"/><circle cx="497.1" cy="156.8" r="2.3" fill="#b9bdca" opacity="0.5"/><circle cx="520.2" cy="201.6" r="2.3" fill="#b9bdca" opacity="0.5"/><circle cx="537.0" cy="315.6" r="2.3" fill="#b9bdca" opacity="0.5"/><circle cx="583.0" cy="87.7" r="2.3" fill="#b9bdca" opacity="0.5"/><circle cx="597.0" cy="87.6" r="2.3" fill="#b9bdca" opacity="0.5"/><circle cx="609.4" cy="87.2" r="2.3" fill="#b9bdca" opacity="0.5"/><circle cx="612.2" cy="88.8" r="2.3" fill="#b9bdca" opacity="0.5"/><circle cx="613.3" cy="89.2" r="2.3" fill="#b9bdca" opacity="0.5"/><circle cx="613.9" cy="90.9" r="2.3" fill="#b9bdca" opacity="0.5"/><circle cx="617.4" cy="87.7" r="2.3" fill="#b9bdca" opacity="0.5"/><circle cx="629.9" cy="88.6" r="2.3" fill="#b9bdca" opacity="0.5"/><circle cx="631.5" cy="89.7" r="2.3" fill="#b9bdca" opacity="0.5"/><circle cx="632.6" cy="88.2" r="2.3" fill="#b9bdca" opacity="0.5"/><circle cx="655.9" cy="75.8" r="2.3" fill="#b9bdca" opacity="0.5"/><circle cx="657.7" cy="75.7" r="2.3" fill="#b9bdca" opacity="0.5"/><circle cx="659.1" cy="76.7" r="2.3" fill="#b9bdca" opacity="0.5"/><circle cx="659.2" cy="75.8" r="2.3" fill="#b9bdca" opacity="0.5"/><circle cx="659.9" cy="75.3" r="2.3" fill="#b9bdca" opacity="0.5"/><circle cx="660.3" cy="74.7" r="2.3" fill="#b9bdca" opacity="0.5"/><circle cx="660.5" cy="83.4" r="2.3" fill="#b9bdca" opacity="0.5"/><circle cx="661.0" cy="76.2" r="2.3" fill="#b9bdca" opacity="0.5"/><circle cx="661.6" cy="78.1" r="2.3" fill="#b9bdca" opacity="0.5"/><circle cx="662.2" cy="74.7" r="2.3" fill="#b9bdca" opacity="0.5"/><circle cx="666.0" cy="89.3" r="2.3" fill="#b9bdca" opacity="0.5"/><circle cx="673.8" cy="74.4" r="2.3" fill="#b9bdca" opacity="0.5"/><circle cx="686.2" cy="74.4" r="2.3" fill="#b9bdca" opacity="0.5"/><circle cx="688.2" cy="335.1" r="2.3" fill="#b9bdca" opacity="0.5"/><circle cx="688.2" cy="81.7" r="2.3" fill="#b9bdca" opacity="0.5"/><circle cx="689.7" cy="74.6" r="2.3" fill="#b9bdca" opacity="0.5"/><circle cx="689.7" cy="82.1" r="2.3" fill="#b9bdca" opacity="0.5"/><circle cx="689.8" cy="73.9" r="2.3" fill="#b9bdca" opacity="0.5"/><circle cx="693.3" cy="76.2" r="2.3" fill="#b9bdca" opacity="0.5"/><circle cx="693.9" cy="82.1" r="2.3" fill="#b9bdca" opacity="0.5"/><circle cx="694.4" cy="74.2" r="2.3" fill="#b9bdca" opacity="0.5"/><circle cx="694.4" cy="75.0" r="2.3" fill="#b9bdca" opacity="0.5"/><circle cx="695.2" cy="73.6" r="2.3" fill="#b9bdca" opacity="0.5"/><circle cx="695.2" cy="83.3" r="2.3" fill="#b9bdca" opacity="0.5"/><circle cx="695.2" cy="83.8" r="2.3" fill="#b9bdca" opacity="0.5"/><circle cx="695.2" cy="78.1" r="2.3" fill="#b9bdca" opacity="0.5"/><circle cx="695.2" cy="81.5" r="2.3" fill="#b9bdca" opacity="0.5"/><circle cx="695.2" cy="83.0" r="2.3" fill="#b9bdca" opacity="0.5"/><circle cx="695.2" cy="83.7" r="2.3" fill="#b9bdca" opacity="0.5"/><circle cx="700.1" cy="82.7" r="2.3" fill="#b9bdca" opacity="0.5"/><circle cx="701.2" cy="77.8" r="2.3" fill="#b9bdca" opacity="0.5"/><circle cx="703.8" cy="69.8" r="2.3" fill="#b9bdca" opacity="0.5"/><circle cx="704.6" cy="75.9" r="2.3" fill="#b9bdca" opacity="0.5"/><circle cx="705.0" cy="74.3" r="2.3" fill="#b9bdca" opacity="0.5"/><circle cx="705.0" cy="77.4" r="2.3" fill="#b9bdca" opacity="0.5"/><circle cx="705.0" cy="80.6" r="2.3" fill="#b9bdca" opacity="0.5"/><circle cx="705.0" cy="81.8" r="2.3" fill="#b9bdca" opacity="0.5"/><circle cx="706.8" cy="76.9" r="2.3" fill="#b9bdca" opacity="0.5"/><circle cx="706.8" cy="82.8" r="2.3" fill="#b9bdca" opacity="0.5"/><circle cx="706.8" cy="83.0" r="2.3" fill="#b9bdca" opacity="0.5"/><circle cx="706.8" cy="83.1" r="2.3" fill="#b9bdca" opacity="0.5"/><circle cx="707.5" cy="69.1" r="2.3" fill="#b9bdca" opacity="0.5"/><circle cx="709.6" cy="75.5" r="2.3" fill="#b9bdca" opacity="0.5"/><circle cx="710.7" cy="74.3" r="2.3" fill="#b9bdca" opacity="0.5"/><circle cx="742.1" cy="74.0" r="2.3" fill="#b9bdca" opacity="0.5"/><circle cx="779.3" cy="73.4" r="2.3" fill="#b9bdca" opacity="0.5"/><circle cx="779.6" cy="75.9" r="2.3" fill="#b9bdca" opacity="0.5"/><circle cx="779.6" cy="76.3" r="2.3" fill="#b9bdca" opacity="0.5"/><circle cx="779.9" cy="76.0" r="2.3" fill="#b9bdca" opacity="0.5"/><circle cx="779.9" cy="76.8" r="2.3" fill="#b9bdca" opacity="0.5"/><circle cx="779.9" cy="81.2" r="2.3" fill="#b9bdca" opacity="0.5"/><circle cx="779.9" cy="83.4" r="2.3" fill="#b9bdca" opacity="0.5"/><circle cx="806.2" cy="76.6" r="2.3" fill="#b9bdca" opacity="0.5"/><circle cx="808.0" cy="76.7" r="2.3" fill="#b9bdca" opacity="0.5"/><circle cx="808.0" cy="82.8" r="2.3" fill="#b9bdca" opacity="0.5"/><circle cx="808.0" cy="82.8" r="2.3" fill="#b9bdca" opacity="0.5"/><circle cx="808.0" cy="83.3" r="2.3" fill="#b9bdca" opacity="0.5"/><circle cx="813.5" cy="233.4" r="2.3" fill="#b9bdca" opacity="0.5"/><circle cx="815.2" cy="228.9" r="2.3" fill="#b9bdca" opacity="0.5"/><circle cx="816.8" cy="198.3" r="2.3" fill="#b9bdca" opacity="0.5"/><circle cx="851.0" cy="73.4" r="2.3" fill="#b9bdca" opacity="0.5"/><circle cx="860.6" cy="192.4" r="2.3" fill="#b9bdca" opacity="0.5"/><circle cx="864.0" cy="75.3" r="2.3" fill="#b9bdca" opacity="0.5"/><circle cx="864.9" cy="74.0" r="2.3" fill="#b9bdca" opacity="0.5"/><circle cx="867.0" cy="194.4" r="2.3" fill="#b9bdca" opacity="0.5"/><circle cx="870.3" cy="168.6" r="2.3" fill="#b9bdca" opacity="0.5"/><circle cx="872.4" cy="77.1" r="2.3" fill="#b9bdca" opacity="0.5"/><circle cx="872.4" cy="99.5" r="2.3" fill="#b9bdca" opacity="0.5"/><circle cx="898.8" cy="71.4" r="2.3" fill="#b9bdca" opacity="0.5"/><circle cx="898.8" cy="73.5" r="2.3" fill="#b9bdca" opacity="0.5"/><circle cx="908.2" cy="72.4" r="2.3" fill="#b9bdca" opacity="0.5"/><circle cx="946.8" cy="83.0" r="2.3" fill="#b9bdca" opacity="0.5"/><circle cx="947.4" cy="72.1" r="2.3" fill="#b9bdca" opacity="0.5"/><circle cx="947.9" cy="71.6" r="2.3" fill="#b9bdca" opacity="0.5"/><circle cx="949.1" cy="75.5" r="2.3" fill="#b9bdca" opacity="0.5"/><circle cx="949.8" cy="73.7" r="2.3" fill="#b9bdca" opacity="0.5"/><circle cx="951.4" cy="72.9" r="2.3" fill="#b9bdca" opacity="0.5"/><circle cx="952.1" cy="73.4" r="2.3" fill="#b9bdca" opacity="0.5"/><circle cx="1027.5" cy="85.2" r="2.3" fill="#b9bdca" opacity="0.5"/><circle cx="1027.5" cy="256.6" r="2.3" fill="#b9bdca" opacity="0.5"/><circle cx="1027.5" cy="335.3" r="2.3" fill="#b9bdca" opacity="0.5"/><circle cx="1028.0" cy="86.8" r="2.3" fill="#b9bdca" opacity="0.5"/><circle cx="1028.7" cy="71.5" r="2.3" fill="#b9bdca" opacity="0.5"/><circle cx="1030.7" cy="71.0" r="2.3" fill="#b9bdca" opacity="0.5"/><circle cx="1031.8" cy="71.5" r="2.3" fill="#b9bdca" opacity="0.5"/><circle cx="1032.0" cy="55.0" r="2.3" fill="#b9bdca" opacity="0.5"/><path d="M217.9 152.3L221.5 155.9L217.9 159.5L214.3 155.9Z" fill="#2b3a7a" opacity="0.8" stroke="none" stroke-width="0"/><path d="M228.1 138.2L231.7 141.8L228.1 145.4L224.5 141.8Z" fill="#2b3a7a" opacity="0.8" stroke="none" stroke-width="0"/><path d="M229.5 128.1L233.1 131.7L229.5 135.3L225.9 131.7Z" fill="#2b3a7a" opacity="0.8" stroke="none" stroke-width="0"/><path d="M229.7 130.5L233.3 134.1L229.7 137.7L226.1 134.1Z" fill="#2b3a7a" opacity="0.8" stroke="none" stroke-width="0"/><path d="M230.8 127.3L234.4 130.9L230.8 134.5L227.2 130.9Z" fill="#2b3a7a" opacity="0.8" stroke="none" stroke-width="0"/><path d="M231.3 125.9L234.9 129.5L231.3 133.1L227.7 129.5Z" fill="#2b3a7a" opacity="0.8" stroke="none" stroke-width="0"/><path d="M231.3 127.3L234.9 130.9L231.3 134.5L227.7 130.9Z" fill="#2b3a7a" opacity="0.8" stroke="none" stroke-width="0"/><path d="M263.2 125.9L266.8 129.5L263.2 133.1L259.6 129.5Z" fill="#2b3a7a" opacity="0.8" stroke="none" stroke-width="0"/><path d="M268.0 125.3L271.6 128.9L268.0 132.5L264.4 128.9Z" fill="#2b3a7a" opacity="0.8" stroke="none" stroke-width="0"/><path d="M272.6 124.8L276.2 128.4L272.6 132.0L269.0 128.4Z" fill="#2b3a7a" opacity="0.8" stroke="none" stroke-width="0"/><path d="M275.7 124.6L279.3 128.2L275.7 131.8L272.1 128.2Z" fill="#2b3a7a" opacity="0.8" stroke="none" stroke-width="0"/><path d="M290.1 124.4L293.7 128.0L290.1 131.6L286.5 128.0Z" fill="#2b3a7a" opacity="0.8" stroke="none" stroke-width="0"/><path d="M305.2 109.2L308.8 112.8L305.2 116.4L301.6 112.8Z" fill="#2b3a7a" opacity="0.8" stroke="none" stroke-width="0"/><path d="M312.3 108.0L315.9 111.6L312.3 115.2L308.7 111.6Z" fill="#2b3a7a" opacity="0.8" stroke="none" stroke-width="0"/><path d="M314.4 101.9L318.0 105.5L314.4 109.1L310.8 105.5Z" fill="#2b3a7a" opacity="0.8" stroke="none" stroke-width="0"/><path d="M314.7 104.9L318.3 108.5L314.7 112.1L311.1 108.5Z" fill="#2b3a7a" opacity="0.8" stroke="none" stroke-width="0"/><path d="M315.6 101.5L319.2 105.1L315.6 108.7L312.0 105.1Z" fill="#2b3a7a" opacity="0.8" stroke="none" stroke-width="0"/><path d="M316.6 100.2L320.2 103.8L316.6 107.4L313.0 103.8Z" fill="#2b3a7a" opacity="0.8" stroke="none" stroke-width="0"/><path d="M326.9 99.9L330.5 103.5L326.9 107.1L323.3 103.5Z" fill="#2b3a7a" opacity="0.8" stroke="none" stroke-width="0"/><path d="M346.5 86.0L350.1 89.6L346.5 93.2L342.9 89.6Z" fill="#2b3a7a" opacity="0.8" stroke="none" stroke-width="0"/><path d="M350.0 85.7L353.6 89.3L350.0 92.9L346.4 89.3Z" fill="#2b3a7a" opacity="0.8" stroke="none" stroke-width="0"/><path d="M350.6 84.0L354.2 87.6L350.6 91.2L347.0 87.6Z" fill="#2b3a7a" opacity="0.8" stroke="none" stroke-width="0"/><path d="M354.1 81.8L357.7 85.4L354.1 89.0L350.5 85.4Z" fill="#2b3a7a" opacity="0.8" stroke="none" stroke-width="0"/><path d="M365.1 80.8L368.7 84.4L365.1 88.0L361.5 84.4Z" fill="#2b3a7a" opacity="0.8" stroke="none" stroke-width="0"/><path d="M448.4 80.8L452.0 84.4L448.4 88.0L444.8 84.4Z" fill="#2b3a7a" opacity="0.8" stroke="none" stroke-width="0"/><path d="M655.9 72.2L659.5 75.8L655.9 79.4L652.3 75.8Z" fill="#2b3a7a" opacity="0.8" stroke="none" stroke-width="0"/><path d="M657.7 72.1L661.3 75.7L657.7 79.3L654.1 75.7Z" fill="#2b3a7a" opacity="0.8" stroke="none" stroke-width="0"/><path d="M659.9 71.7L663.5 75.3L659.9 78.9L656.3 75.3Z" fill="#2b3a7a" opacity="0.8" stroke="none" stroke-width="0"/><path d="M660.3 71.1L663.9 74.7L660.3 78.3L656.7 74.7Z" fill="#2b3a7a" opacity="0.8" stroke="none" stroke-width="0"/><path d="M662.2 71.1L665.8 74.7L662.2 78.3L658.6 74.7Z" fill="#2b3a7a" opacity="0.8" stroke="none" stroke-width="0"/><path d="M673.8 70.8L677.4 74.4L673.8 78.0L670.2 74.4Z" fill="#2b3a7a" opacity="0.8" stroke="none" stroke-width="0"/><path d="M689.8 70.3L693.4 73.9L689.8 77.5L686.2 73.9Z" fill="#2b3a7a" opacity="0.8" stroke="none" stroke-width="0"/><path d="M695.2 70.0L698.8 73.6L695.2 77.2L691.6 73.6Z" fill="#2b3a7a" opacity="0.8" stroke="none" stroke-width="0"/><path d="M779.3 69.8L782.9 73.4L779.3 77.0L775.7 73.4Z" fill="#2b3a7a" opacity="0.8" stroke="none" stroke-width="0"/><path d="M851.0 69.8L854.6 73.4L851.0 77.0L847.4 73.4Z" fill="#2b3a7a" opacity="0.8" stroke="none" stroke-width="0"/><path d="M898.8 67.8L902.4 71.4L898.8 75.0L895.2 71.4Z" fill="#2b3a7a" opacity="0.8" stroke="none" stroke-width="0"/><path d="M60.0 335.3L62.6 335.3L62.6 335.1L66.2 335.1L66.2 320.7L73.3 320.7L73.3 319.9L76.0 319.9L76.0 315.3L76.7 315.3L76.7 314.9L77.8 314.9L77.8 314.9L120.4 314.9L120.4 238.7L121.2 238.7L121.2 229.0L121.8 229.0L121.8 222.3L122.7 222.3L122.7 220.6L122.8 220.6L122.8 220.5L123.3 220.5L123.3 214.2L124.9 214.2L124.9 214.1L125.4 214.1L125.4 213.7L125.7 213.7L125.7 213.5L126.2 213.5L126.2 212.7L128.3 212.7L128.3 212.1L128.8 212.1L128.8 212.0L134.5 212.0L134.5 206.7L140.9 206.7L140.9 204.9L143.3 204.9L143.3 204.6L144.8 204.6L144.8 201.9L147.7 201.9L147.7 201.8L149.1 201.8L149.1 201.0L150.0 201.0L150.0 200.0L154.1 200.0L154.1 200.0L155.8 200.0L155.8 199.7L169.7 199.7L169.7 195.5L180.1 195.5L180.1 187.4L180.4 187.4L180.4 186.2L181.1 186.2L181.1 184.5L199.3 184.5L199.3 183.9L208.3 183.9L208.3 169.3L211.3 169.3L211.3 168.8L211.5 168.8L211.5 167.7L213.2 167.7L213.2 165.0L213.9 165.0L213.9 163.7L214.1 163.7L214.1 163.6L217.9 163.6L217.9 155.9L222.6 155.9L222.6 155.8L224.4 155.8L224.4 141.9L228.1 141.9L228.1 141.8L229.5 141.8L229.5 131.7L230.8 131.7L230.8 130.9L231.3 130.9L231.3 129.5L263.2 129.5L263.2 129.5L268.0 129.5L268.0 128.9L272.6 128.9L272.6 128.4L275.7 128.4L275.7 128.2L290.1 128.2L290.1 128.0L305.2 128.0L305.2 112.8L308.5 112.8L308.5 110.2L314.4 110.2L314.4 105.5L315.6 105.5L315.6 105.1L316.6 105.1L316.6 103.8L326.9 103.8L326.9 103.5L346.5 103.5L346.5 89.6L350.0 89.6L350.0 89.3L350.6 89.3L350.6 87.6L354.1 87.6L354.1 85.4L365.1 85.4L365.1 84.4L448.4 84.4L448.4 84.4L655.9 84.4L655.9 75.8L657.7 75.8L657.7 75.7L659.9 75.7L659.9 75.3L660.3 75.3L660.3 74.7L662.2 74.7L662.2 74.7L673.8 74.7L673.8 74.4L689.8 74.4L689.8 73.9L695.2 73.9L695.2 73.6L703.8 73.6L703.8 69.8L707.5 69.8L707.5 69.1L1032.0 69.1L1032.0 55.0L1032.0 55.0" fill="none" stroke="#6675b0" stroke-width="1.6" stroke-dasharray="5 3" opacity="0.75"/><path d="M217.9 155.9L228.1 155.9L228.1 141.8L229.5 141.8L229.5 131.7L230.8 131.7L230.8 130.9L231.3 130.9L231.3 129.5L263.2 129.5L263.2 129.5L268.0 129.5L268.0 128.9L272.6 128.9L272.6 128.4L275.7 128.4L275.7 128.2L290.1 128.2L290.1 128.0L305.2 128.0L305.2 112.8L312.3 112.8L312.3 111.6L314.4 111.6L314.4 105.5L315.6 105.5L315.6 105.1L316.6 105.1L316.6 103.8L326.9 103.8L326.9 103.5L346.5 103.5L346.5 89.6L350.0 89.6L350.0 89.3L350.6 89.3L350.6 87.6L354.1 87.6L354.1 85.4L365.1 85.4L365.1 84.4L448.4 84.4L448.4 84.4L655.9 84.4L655.9 75.8L657.7 75.8L657.7 75.7L659.9 75.7L659.9 75.3L660.3 75.3L660.3 74.7L662.2 74.7L662.2 74.7L673.8 74.7L673.8 74.4L689.8 74.4L689.8 73.9L695.2 73.9L695.2 73.6L703.8 73.6L703.8 73.5L779.3 73.5L779.3 73.4L851.0 73.4L851.0 73.4L898.8 73.4L898.8 71.4L1032.0 71.4" fill="none" stroke="#2b3a7a" stroke-width="2.6"/><path d="M588.6 246.9L595.1 253.4L588.6 259.9L582.1 253.4Z" fill="#c5961a" opacity="1.0" stroke="#ffffff" stroke-width="1.4"/><path d="M691.9 206.5L698.4 213.0L691.9 219.5L685.4 213.0Z" fill="#c5961a" opacity="1.0" stroke="#ffffff" stroke-width="1.4"/><path d="M703.8 67.0L710.3 73.5L703.8 80.0L697.3 73.5Z" fill="#c5961a" opacity="1.0" stroke="#ffffff" stroke-width="1.4"/><path d="M792.3 240.8L798.8 247.3L792.3 253.8L785.8 247.3Z" fill="#c5961a" opacity="1.0" stroke="#ffffff" stroke-width="1.4"/><path d="M792.9 238.0L799.4 244.5L792.9 251.0L786.4 244.5Z" fill="#c5961a" opacity="1.0" stroke="#ffffff" stroke-width="1.4"/><text x="1042" y="53.0" font-size="11.5" fill="#6675b0">– – raw best 535.9</text><text x="1042" y="67.0" font-size="10" fill="#8a8fa3">unverified (pending)</text><path d="M898.8 64.9L905.3 71.4L898.8 77.9L892.3 71.4Z" fill="#2b3a7a" opacity="1.0" stroke="#ffffff" stroke-width="1.4"/><text x="1042" y="99.4" font-size="12.5" fill="#2b3a7a" font-weight="bold">◆ verified 510.1</text><text x="1042" y="115.4" font-size="10.5" fill="#3a3f55">top verified</text><text x="60" y="24" font-size="13" font-weight="bold" fill="#3a3f55" letter-spacing="1.2">SCORE EVOLUTION — gemma-challenge (tok/s)</text><circle cx="452" cy="20" r="3" fill="#b9bdca"/><text x="460" y="24" font-size="10.5" fill="#8a8fa3">all results</text><path d="M544.0 16.4L547.6 20.0L544.0 23.6L540.4 20.0Z" fill="#2b3a7a" opacity="1.0" stroke="none" stroke-width="0"/><text x="552" y="24" font-size="10.5" fill="#8a8fa3">verified</text><path d="M620.0 15.5L624.5 20.0L620.0 24.5L615.5 20.0Z" fill="#c5961a" opacity="1.0" stroke="#fff" stroke-width="1"/><text x="629" y="24" font-size="10.5" fill="#8a8fa3">mikasa-inbound (us)</text></svg>