<svg viewBox="0 0 1200 440" xmlns="http://www.w3.org/2000/svg" font-family="ui-sans-serif,system-ui,-apple-system,sans-serif"><rect x="0" y="0" width="1200" height="440" fill="#ffffff"/><rect x="60" y="46" width="972" height="350" fill="#f3f4fb"/><line x1="60" y1="396.0" x2="1032" y2="396.0" stroke="#e3e5ef" stroke-width="1"/><text x="52" y="400.0" text-anchor="end" font-size="11" fill="#8a8fa3">0</text><line x1="60" y1="332.4" x2="1032" y2="332.4" stroke="#e3e5ef" stroke-width="1"/><text x="52" y="336.4" text-anchor="end" font-size="11" fill="#8a8fa3">100</text><line x1="60" y1="268.7" x2="1032" y2="268.7" stroke="#e3e5ef" stroke-width="1"/><text x="52" y="272.7" text-anchor="end" font-size="11" fill="#8a8fa3">200</text><line x1="60" y1="205.1" x2="1032" y2="205.1" stroke="#e3e5ef" stroke-width="1"/><text x="52" y="209.1" text-anchor="end" font-size="11" fill="#8a8fa3">300</text><line x1="60" y1="141.5" x2="1032" y2="141.5" stroke="#e3e5ef" stroke-width="1"/><text x="52" y="145.5" text-anchor="end" font-size="11" fill="#8a8fa3">400</text><line x1="60" y1="77.8" x2="1032" y2="77.8" stroke="#e3e5ef" stroke-width="1"/><text x="52" y="81.8" text-anchor="end" font-size="11" fill="#8a8fa3">500</text><line x1="133.9" y1="46" x2="133.9" y2="396" stroke="#e3e5ef" stroke-width="1"/><text x="133.9" y="414.0" text-anchor="middle" font-size="11" fill="#8a8fa3">Jun 10</text><line x1="239.3" y1="46" x2="239.3" y2="396" stroke="#e3e5ef" stroke-width="1"/><text x="239.3" y="414.0" text-anchor="middle" font-size="11" fill="#8a8fa3">Jun 12</text><line x1="344.7" y1="46" x2="344.7" y2="396" stroke="#e3e5ef" stroke-width="1"/><text x="344.7" y="414.0" text-anchor="middle" font-size="11" fill="#8a8fa3">Jun 14</text><line x1="450.1" y1="46" x2="450.1" y2="396" stroke="#e3e5ef" stroke-width="1"/><text x="450.1" y="414.0" text-anchor="middle" font-size="11" fill="#8a8fa3">Jun 16</text><line x1="555.6" y1="46" x2="555.6" y2="396" stroke="#e3e5ef" stroke-width="1"/><text x="555.6" y="414.0" text-anchor="middle" font-size="11" fill="#8a8fa3">Jun 18</text><line x1="661.0" y1="46" x2="661.0" y2="396" stroke="#e3e5ef" stroke-width="1"/><text x="661.0" y="414.0" text-anchor="middle" font-size="11" fill="#8a8fa3">Jun 20</text><line x1="766.4" y1="46" x2="766.4" y2="396" stroke="#e3e5ef" stroke-width="1"/><text x="766.4" y="414.0" text-anchor="middle" font-size="11" fill="#8a8fa3">Jun 22</text><line x1="871.8" y1="46" x2="871.8" y2="396" stroke="#e3e5ef" stroke-width="1"/><text x="871.8" y="414.0" text-anchor="middle" font-size="11" fill="#8a8fa3">Jun 24</text><line x1="977.2" y1="46" x2="977.2" y2="396" stroke="#e3e5ef" stroke-width="1"/><text x="977.2" y="414.0" text-anchor="middle" font-size="11" fill="#8a8fa3">Jun 26</text><circle cx="60.0" cy="335.3" r="2.3" fill="#b9bdca" opacity="0.5"/><circle cx="62.5" cy="335.1" r="2.3" fill="#b9bdca" opacity="0.5"/><circle cx="65.1" cy="368.0" r="2.3" fill="#b9bdca" opacity="0.5"/><circle cx="66.1" cy="320.7" r="2.3" fill="#b9bdca" opacity="0.5"/><circle cx="73.1" cy="319.9" r="2.3" fill="#b9bdca" opacity="0.5"/><circle cx="73.5" cy="320.6" r="2.3" fill="#b9bdca" opacity="0.5"/><circle cx="75.7" cy="315.3" r="2.3" fill="#b9bdca" opacity="0.5"/><circle cx="76.2" cy="319.7" r="2.3" fill="#b9bdca" opacity="0.5"/><circle cx="76.4" cy="314.9" r="2.3" fill="#b9bdca" opacity="0.5"/><circle cx="77.3" cy="315.5" r="2.3" fill="#b9bdca" opacity="0.5"/><circle cx="77.6" cy="314.9" r="2.3" fill="#b9bdca" opacity="0.5"/><circle cx="78.3" cy="315.4" r="2.3" fill="#b9bdca" opacity="0.5"/><circle cx="79.6" cy="315.0" r="2.3" fill="#b9bdca" opacity="0.5"/><circle cx="119.5" cy="238.7" r="2.3" fill="#b9bdca" opacity="0.5"/><circle cx="119.8" cy="315.0" r="2.3" fill="#b9bdca" opacity="0.5"/><circle cx="120.2" cy="229.0" r="2.3" fill="#b9bdca" opacity="0.5"/><circle cx="120.9" cy="222.3" r="2.3" fill="#b9bdca" opacity="0.5"/><circle cx="121.5" cy="228.0" r="2.3" fill="#b9bdca" opacity="0.5"/><circle cx="121.6" cy="223.3" r="2.3" fill="#b9bdca" opacity="0.5"/><circle cx="121.7" cy="220.6" r="2.3" fill="#b9bdca" opacity="0.5"/><circle cx="121.9" cy="220.5" r="2.3" fill="#b9bdca" opacity="0.5"/><circle cx="122.0" cy="223.2" r="2.3" fill="#b9bdca" opacity="0.5"/><circle cx="122.3" cy="214.2" r="2.3" fill="#b9bdca" opacity="0.5"/><circle cx="122.4" cy="222.1" r="2.3" fill="#b9bdca" opacity="0.5"/><circle cx="122.7" cy="220.7" r="2.3" fill="#b9bdca" opacity="0.5"/><circle cx="123.1" cy="218.5" r="2.3" fill="#b9bdca" opacity="0.5"/><circle cx="123.3" cy="215.2" r="2.3" fill="#b9bdca" opacity="0.5"/><circle cx="123.6" cy="214.3" r="2.3" fill="#b9bdca" opacity="0.5"/><circle cx="123.6" cy="219.2" r="2.3" fill="#b9bdca" opacity="0.5"/><circle cx="123.9" cy="214.1" r="2.3" fill="#b9bdca" opacity="0.5"/><circle cx="124.2" cy="215.2" r="2.3" fill="#b9bdca" opacity="0.5"/><circle cx="124.4" cy="213.7" r="2.3" fill="#b9bdca" opacity="0.5"/><circle cx="124.7" cy="213.5" r="2.3" fill="#b9bdca" opacity="0.5"/><circle cx="125.0" cy="214.8" r="2.3" fill="#b9bdca" opacity="0.5"/><circle cx="125.0" cy="217.7" r="2.3" fill="#b9bdca" opacity="0.5"/><circle cx="125.2" cy="212.7" r="2.3" fill="#b9bdca" opacity="0.5"/><circle cx="125.8" cy="213.3" r="2.3" fill="#b9bdca" opacity="0.5"/><circle cx="126.5" cy="212.7" r="2.3" fill="#b9bdca" opacity="0.5"/><circle cx="126.5" cy="213.6" r="2.3" fill="#b9bdca" opacity="0.5"/><circle cx="126.8" cy="213.0" r="2.3" fill="#b9bdca" opacity="0.5"/><circle cx="127.2" cy="212.1" r="2.3" fill="#b9bdca" opacity="0.5"/><circle cx="127.3" cy="213.3" r="2.3" fill="#b9bdca" opacity="0.5"/><circle cx="127.8" cy="212.0" r="2.3" fill="#b9bdca" opacity="0.5"/><circle cx="128.6" cy="212.1" r="2.3" fill="#b9bdca" opacity="0.5"/><circle cx="128.6" cy="212.8" r="2.3" fill="#b9bdca" opacity="0.5"/><circle cx="133.4" cy="206.7" r="2.3" fill="#b9bdca" opacity="0.5"/><circle cx="134.0" cy="206.8" r="2.3" fill="#b9bdca" opacity="0.5"/><circle cx="134.0" cy="212.5" r="2.3" fill="#b9bdca" opacity="0.5"/><circle cx="134.4" cy="207.2" r="2.3" fill="#b9bdca" opacity="0.5"/><circle cx="136.0" cy="207.0" r="2.3" fill="#b9bdca" opacity="0.5"/><circle cx="139.6" cy="204.9" r="2.3" fill="#b9bdca" opacity="0.5"/><circle cx="142.0" cy="204.6" r="2.3" fill="#b9bdca" opacity="0.5"/><circle cx="142.2" cy="212.3" r="2.3" fill="#b9bdca" opacity="0.5"/><circle cx="142.6" cy="204.6" r="2.3" fill="#b9bdca" opacity="0.5"/><circle cx="142.6" cy="204.6" r="2.3" fill="#b9bdca" opacity="0.5"/><circle cx="142.6" cy="204.9" r="2.3" fill="#b9bdca" opacity="0.5"/><circle cx="142.6" cy="204.9" r="2.3" fill="#b9bdca" opacity="0.5"/><circle cx="143.5" cy="201.9" r="2.3" fill="#b9bdca" opacity="0.5"/><circle cx="145.0" cy="206.5" r="2.3" fill="#b9bdca" opacity="0.5"/><circle cx="145.6" cy="205.8" r="2.3" fill="#b9bdca" opacity="0.5"/><circle cx="145.6" cy="335.1" r="2.3" fill="#b9bdca" opacity="0.5"/><circle cx="146.3" cy="201.8" r="2.3" fill="#b9bdca" opacity="0.5"/><circle cx="146.4" cy="202.2" r="2.3" fill="#b9bdca" opacity="0.5"/><circle cx="147.7" cy="201.0" r="2.3" fill="#b9bdca" opacity="0.5"/><circle cx="148.3" cy="203.1" r="2.3" fill="#b9bdca" opacity="0.5"/><circle cx="148.6" cy="200.0" r="2.3" fill="#b9bdca" opacity="0.5"/><circle cx="148.6" cy="204.6" r="2.3" fill="#b9bdca" opacity="0.5"/><circle cx="149.5" cy="202.3" r="2.3" fill="#b9bdca" opacity="0.5"/><circle cx="151.2" cy="200.4" r="2.3" fill="#b9bdca" opacity="0.5"/><circle cx="151.9" cy="200.7" r="2.3" fill="#b9bdca" opacity="0.5"/><circle cx="152.6" cy="200.0" r="2.3" fill="#b9bdca" opacity="0.5"/><circle cx="154.3" cy="199.7" r="2.3" fill="#b9bdca" opacity="0.5"/><circle cx="164.4" cy="200.6" r="2.3" fill="#b9bdca" opacity="0.5"/><circle cx="165.2" cy="201.8" r="2.3" fill="#b9bdca" opacity="0.5"/><circle cx="166.6" cy="208.4" r="2.3" fill="#b9bdca" opacity="0.5"/><circle cx="166.7" cy="200.8" r="2.3" fill="#b9bdca" opacity="0.5"/><circle cx="167.6" cy="200.7" r="2.3" fill="#b9bdca" opacity="0.5"/><circle cx="167.6" cy="201.9" r="2.3" fill="#b9bdca" opacity="0.5"/><circle cx="168.0" cy="195.5" r="2.3" fill="#b9bdca" opacity="0.5"/><circle cx="168.9" cy="196.9" r="2.3" fill="#b9bdca" opacity="0.5"/><circle cx="169.4" cy="197.9" r="2.3" fill="#b9bdca" opacity="0.5"/><circle cx="170.3" cy="196.1" r="2.3" fill="#b9bdca" opacity="0.5"/><circle cx="173.4" cy="197.3" r="2.3" fill="#b9bdca" opacity="0.5"/><circle cx="174.2" cy="195.9" r="2.3" fill="#b9bdca" opacity="0.5"/><circle cx="174.5" cy="201.0" r="2.3" fill="#b9bdca" opacity="0.5"/><circle cx="174.8" cy="197.5" r="2.3" fill="#b9bdca" opacity="0.5"/><circle cx="175.5" cy="196.9" r="2.3" fill="#b9bdca" opacity="0.5"/><circle cx="175.5" cy="197.1" r="2.3" fill="#b9bdca" opacity="0.5"/><circle cx="175.6" cy="197.0" r="2.3" fill="#b9bdca" opacity="0.5"/><circle cx="176.3" cy="196.0" r="2.3" fill="#b9bdca" opacity="0.5"/><circle cx="176.3" cy="196.0" r="2.3" fill="#b9bdca" opacity="0.5"/><circle cx="176.4" cy="197.9" r="2.3" fill="#b9bdca" opacity="0.5"/><circle cx="176.9" cy="197.8" r="2.3" fill="#b9bdca" opacity="0.5"/><circle cx="177.3" cy="196.2" r="2.3" fill="#b9bdca" opacity="0.5"/><circle cx="177.3" cy="197.5" r="2.3" fill="#b9bdca" opacity="0.5"/><circle cx="177.5" cy="196.9" r="2.3" fill="#b9bdca" opacity="0.5"/><circle cx="177.6" cy="195.5" r="2.3" fill="#b9bdca" opacity="0.5"/><circle cx="178.2" cy="198.1" r="2.3" fill="#b9bdca" opacity="0.5"/><circle cx="178.3" cy="187.4" r="2.3" fill="#b9bdca" opacity="0.5"/><circle cx="178.6" cy="186.2" r="2.3" fill="#b9bdca" opacity="0.5"/><circle cx="178.6" cy="196.3" r="2.3" fill="#b9bdca" opacity="0.5"/><circle cx="178.6" cy="197.2" r="2.3" fill="#b9bdca" opacity="0.5"/><circle cx="178.6" cy="197.8" r="2.3" fill="#b9bdca" opacity="0.5"/><circle cx="178.6" cy="368.0" r="2.3" fill="#b9bdca" opacity="0.5"/><circle cx="179.2" cy="184.5" r="2.3" fill="#b9bdca" opacity="0.5"/><circle cx="182.0" cy="184.6" r="2.3" fill="#b9bdca" opacity="0.5"/><circle cx="183.1" cy="185.6" r="2.3" fill="#b9bdca" opacity="0.5"/><circle cx="187.1" cy="188.7" r="2.3" fill="#b9bdca" opacity="0.5"/><circle cx="192.4" cy="185.4" r="2.3" fill="#b9bdca" opacity="0.5"/><circle cx="193.6" cy="185.2" r="2.3" fill="#b9bdca" opacity="0.5"/><circle cx="194.0" cy="186.6" r="2.3" fill="#b9bdca" opacity="0.5"/><circle cx="194.1" cy="185.3" r="2.3" fill="#b9bdca" opacity="0.5"/><circle cx="195.1" cy="185.3" r="2.3" fill="#b9bdca" opacity="0.5"/><circle cx="195.5" cy="185.0" r="2.3" fill="#b9bdca" opacity="0.5"/><circle cx="196.4" cy="184.9" r="2.3" fill="#b9bdca" opacity="0.5"/><circle cx="197.0" cy="185.1" r="2.3" fill="#b9bdca" opacity="0.5"/><circle cx="197.0" cy="185.2" r="2.3" fill="#b9bdca" opacity="0.5"/><circle cx="197.0" cy="186.4" r="2.3" fill="#b9bdca" opacity="0.5"/><circle cx="197.1" cy="183.9" r="2.3" fill="#b9bdca" opacity="0.5"/><circle cx="202.1" cy="184.4" r="2.3" fill="#b9bdca" opacity="0.5"/><circle cx="202.9" cy="184.2" r="2.3" fill="#b9bdca" opacity="0.5"/><circle cx="206.0" cy="169.3" r="2.3" fill="#b9bdca" opacity="0.5"/><circle cx="209.0" cy="168.8" r="2.3" fill="#b9bdca" opacity="0.5"/><circle cx="209.2" cy="167.7" r="2.3" fill="#b9bdca" opacity="0.5"/><circle cx="210.5" cy="201.4" r="2.3" fill="#b9bdca" opacity="0.5"/><circle cx="210.9" cy="165.0" r="2.3" fill="#b9bdca" opacity="0.5"/><circle cx="211.1" cy="198.2" r="2.3" fill="#b9bdca" opacity="0.5"/><circle cx="211.5" cy="163.7" r="2.3" fill="#b9bdca" opacity="0.5"/><circle cx="211.7" cy="163.6" r="2.3" fill="#b9bdca" opacity="0.5"/><circle cx="212.2" cy="165.9" r="2.3" fill="#b9bdca" opacity="0.5"/><circle cx="214.9" cy="165.1" r="2.3" fill="#b9bdca" opacity="0.5"/><circle cx="215.5" cy="155.9" r="2.3" fill="#b9bdca" opacity="0.5"/><circle cx="218.1" cy="196.5" r="2.3" fill="#b9bdca" opacity="0.5"/><circle cx="219.1" cy="157.4" r="2.3" fill="#b9bdca" opacity="0.5"/><circle cx="220.1" cy="155.8" r="2.3" fill="#b9bdca" opacity="0.5"/><circle cx="221.9" cy="141.9" r="2.3" fill="#b9bdca" opacity="0.5"/><circle cx="225.4" cy="156.1" r="2.3" fill="#b9bdca" opacity="0.5"/><circle cx="225.4" cy="156.4" r="2.3" fill="#b9bdca" opacity="0.5"/><circle cx="225.6" cy="141.8" r="2.3" fill="#b9bdca" opacity="0.5"/><circle cx="225.7" cy="196.0" r="2.3" fill="#b9bdca" opacity="0.5"/><circle cx="226.9" cy="131.7" r="2.3" fill="#b9bdca" opacity="0.5"/><circle cx="227.1" cy="134.1" r="2.3" fill="#b9bdca" opacity="0.5"/><circle cx="227.5" cy="141.1" r="2.3" fill="#b9bdca" opacity="0.5"/><circle cx="228.0" cy="134.0" r="2.3" fill="#b9bdca" opacity="0.5"/><circle cx="228.1" cy="130.9" r="2.3" fill="#b9bdca" opacity="0.5"/><circle cx="228.1" cy="154.2" r="2.3" fill="#b9bdca" opacity="0.5"/><circle cx="228.4" cy="133.6" r="2.3" fill="#b9bdca" opacity="0.5"/><circle cx="228.7" cy="129.5" r="2.3" fill="#b9bdca" opacity="0.5"/><circle cx="228.7" cy="130.9" r="2.3" fill="#b9bdca" opacity="0.5"/><circle cx="228.7" cy="133.4" r="2.3" fill="#b9bdca" opacity="0.5"/><circle cx="229.0" cy="131.2" r="2.3" fill="#b9bdca" opacity="0.5"/><circle cx="231.2" cy="189.8" r="2.3" fill="#b9bdca" opacity="0.5"/><circle cx="231.3" cy="133.2" r="2.3" fill="#b9bdca" opacity="0.5"/><circle cx="231.6" cy="133.5" r="2.3" fill="#b9bdca" opacity="0.5"/><circle cx="232.4" cy="130.1" r="2.3" fill="#b9bdca" opacity="0.5"/><circle cx="234.6" cy="130.3" r="2.3" fill="#b9bdca" opacity="0.5"/><circle cx="235.5" cy="303.1" r="2.3" fill="#b9bdca" opacity="0.5"/><circle cx="237.3" cy="133.2" r="2.3" fill="#b9bdca" opacity="0.5"/><circle cx="239.6" cy="144.2" r="2.3" fill="#b9bdca" opacity="0.5"/><circle cx="240.2" cy="135.3" r="2.3" fill="#b9bdca" opacity="0.5"/><circle cx="241.7" cy="133.4" r="2.3" fill="#b9bdca" opacity="0.5"/><circle cx="241.8" cy="159.9" r="2.3" fill="#b9bdca" opacity="0.5"/><circle cx="242.2" cy="130.8" r="2.3" fill="#b9bdca" opacity="0.5"/><circle cx="242.7" cy="133.2" r="2.3" fill="#b9bdca" opacity="0.5"/><circle cx="248.1" cy="130.9" r="2.3" fill="#b9bdca" opacity="0.5"/><circle cx="248.7" cy="130.9" r="2.3" fill="#b9bdca" opacity="0.5"/><circle cx="248.7" cy="133.8" r="2.3" fill="#b9bdca" opacity="0.5"/><circle cx="249.6" cy="130.4" r="2.3" fill="#b9bdca" opacity="0.5"/><circle cx="250.1" cy="153.7" r="2.3" fill="#b9bdca" opacity="0.5"/><circle cx="251.1" cy="133.3" r="2.3" fill="#b9bdca" opacity="0.5"/><circle cx="252.8" cy="156.5" r="2.3" fill="#b9bdca" opacity="0.5"/><circle cx="253.1" cy="132.3" r="2.3" fill="#b9bdca" opacity="0.5"/><circle cx="255.1" cy="147.2" r="2.3" fill="#b9bdca" opacity="0.5"/><circle cx="255.4" cy="133.6" r="2.3" fill="#b9bdca" opacity="0.5"/><circle cx="256.1" cy="129.5" r="2.3" fill="#b9bdca" opacity="0.5"/><circle cx="256.1" cy="133.3" r="2.3" fill="#b9bdca" opacity="0.5"/><circle cx="258.5" cy="133.3" r="2.3" fill="#b9bdca" opacity="0.5"/><circle cx="260.1" cy="129.5" r="2.3" fill="#b9bdca" opacity="0.5"/><circle cx="262.8" cy="130.6" r="2.3" fill="#b9bdca" opacity="0.5"/><circle cx="264.8" cy="128.9" r="2.3" fill="#b9bdca" opacity="0.5"/><circle cx="265.2" cy="132.7" r="2.3" fill="#b9bdca" opacity="0.5"/><circle cx="265.2" cy="133.1" r="2.3" fill="#b9bdca" opacity="0.5"/><circle cx="268.2" cy="129.8" r="2.3" fill="#b9bdca" opacity="0.5"/><circle cx="269.0" cy="333.8" r="2.3" fill="#b9bdca" opacity="0.5"/><circle cx="269.3" cy="128.4" r="2.3" fill="#b9bdca" opacity="0.5"/><circle cx="270.7" cy="129.8" r="2.3" fill="#b9bdca" opacity="0.5"/><circle cx="271.2" cy="128.9" r="2.3" fill="#b9bdca" opacity="0.5"/><circle cx="271.4" cy="128.9" r="2.3" fill="#b9bdca" opacity="0.5"/><circle cx="272.4" cy="128.2" r="2.3" fill="#b9bdca" opacity="0.5"/><circle cx="273.2" cy="129.7" r="2.3" fill="#b9bdca" opacity="0.5"/><circle cx="273.4" cy="142.3" r="2.3" fill="#b9bdca" opacity="0.5"/><circle cx="276.3" cy="128.8" r="2.3" fill="#b9bdca" opacity="0.5"/><circle cx="278.0" cy="161.1" r="2.3" fill="#b9bdca" opacity="0.5"/><circle cx="281.2" cy="164.4" r="2.3" fill="#b9bdca" opacity="0.5"/><circle cx="281.5" cy="248.3" r="2.3" fill="#b9bdca" opacity="0.5"/><circle cx="286.2" cy="135.4" r="2.3" fill="#b9bdca" opacity="0.5"/><circle cx="286.6" cy="128.0" r="2.3" fill="#b9bdca" opacity="0.5"/><circle cx="288.0" cy="229.0" r="2.3" fill="#b9bdca" opacity="0.5"/><circle cx="291.2" cy="128.1" r="2.3" fill="#b9bdca" opacity="0.5"/><circle cx="292.1" cy="128.6" r="2.3" fill="#b9bdca" opacity="0.5"/><circle cx="295.1" cy="128.8" r="2.3" fill="#b9bdca" opacity="0.5"/><circle cx="295.1" cy="129.6" r="2.3" fill="#b9bdca" opacity="0.5"/><circle cx="295.1" cy="130.9" r="2.3" fill="#b9bdca" opacity="0.5"/><circle cx="301.4" cy="112.8" r="2.3" fill="#b9bdca" opacity="0.5"/><circle cx="304.7" cy="110.2" r="2.3" fill="#b9bdca" opacity="0.5"/><circle cx="304.8" cy="111.6" r="2.3" fill="#b9bdca" opacity="0.5"/><circle cx="306.8" cy="111.0" r="2.3" fill="#b9bdca" opacity="0.5"/><circle cx="307.9" cy="335.1" r="2.3" fill="#b9bdca" opacity="0.5"/><circle cx="308.4" cy="111.6" r="2.3" fill="#b9bdca" opacity="0.5"/><circle cx="310.5" cy="105.5" r="2.3" fill="#b9bdca" opacity="0.5"/><circle cx="310.8" cy="108.5" r="2.3" fill="#b9bdca" opacity="0.5"/><circle cx="311.7" cy="105.1" r="2.3" fill="#b9bdca" opacity="0.5"/><circle cx="312.6" cy="103.8" r="2.3" fill="#b9bdca" opacity="0.5"/><circle cx="313.7" cy="125.8" r="2.3" fill="#b9bdca" opacity="0.5"/><circle cx="322.8" cy="103.5" r="2.3" fill="#b9bdca" opacity="0.5"/><circle cx="325.2" cy="127.8" r="2.3" fill="#b9bdca" opacity="0.5"/><circle cx="326.2" cy="334.3" r="2.3" fill="#b9bdca" opacity="0.5"/><circle cx="327.6" cy="128.6" r="2.3" fill="#b9bdca" opacity="0.5"/><circle cx="328.3" cy="128.6" r="2.3" fill="#b9bdca" opacity="0.5"/><circle cx="328.4" cy="128.6" r="2.3" fill="#b9bdca" opacity="0.5"/><circle cx="329.2" cy="256.6" r="2.3" fill="#b9bdca" opacity="0.5"/><circle cx="330.3" cy="254.6" r="2.3" fill="#b9bdca" opacity="0.5"/><circle cx="332.0" cy="128.6" r="2.3" fill="#b9bdca" opacity="0.5"/><circle cx="336.2" cy="250.1" r="2.3" fill="#b9bdca" opacity="0.5"/><circle cx="336.5" cy="161.4" r="2.3" fill="#b9bdca" opacity="0.5"/><circle cx="337.0" cy="206.6" r="2.3" fill="#b9bdca" opacity="0.5"/><circle cx="340.8" cy="113.5" r="2.3" fill="#b9bdca" opacity="0.5"/><circle cx="342.1" cy="89.6" r="2.3" fill="#b9bdca" opacity="0.5"/><circle cx="343.1" cy="90.2" r="2.3" fill="#b9bdca" opacity="0.5"/><circle cx="345.5" cy="89.3" r="2.3" fill="#b9bdca" opacity="0.5"/><circle cx="346.2" cy="87.6" r="2.3" fill="#b9bdca" opacity="0.5"/><circle cx="347.0" cy="185.0" r="2.3" fill="#b9bdca" opacity="0.5"/><circle cx="347.8" cy="131.6" r="2.3" fill="#b9bdca" opacity="0.5"/><circle cx="348.5" cy="87.8" r="2.3" fill="#b9bdca" opacity="0.5"/><circle cx="349.6" cy="85.4" r="2.3" fill="#b9bdca" opacity="0.5"/><circle cx="351.3" cy="86.8" r="2.3" fill="#b9bdca" opacity="0.5"/><circle cx="353.1" cy="88.4" r="2.3" fill="#b9bdca" opacity="0.5"/><circle cx="360.3" cy="89.5" r="2.3" fill="#b9bdca" opacity="0.5"/><circle cx="360.3" cy="155.6" r="2.3" fill="#b9bdca" opacity="0.5"/><circle cx="360.4" cy="84.4" r="2.3" fill="#b9bdca" opacity="0.5"/><circle cx="369.0" cy="89.2" r="2.3" fill="#b9bdca" opacity="0.5"/><circle cx="369.1" cy="90.5" r="2.3" fill="#b9bdca" opacity="0.5"/><circle cx="371.6" cy="87.7" r="2.3" fill="#b9bdca" opacity="0.5"/><circle cx="372.4" cy="367.9" r="2.3" fill="#b9bdca" opacity="0.5"/><circle cx="375.9" cy="164.3" r="2.3" fill="#b9bdca" opacity="0.5"/><circle cx="377.6" cy="94.6" r="2.3" fill="#b9bdca" opacity="0.5"/><circle cx="378.3" cy="89.6" r="2.3" fill="#b9bdca" opacity="0.5"/><circle cx="385.8" cy="124.6" r="2.3" fill="#b9bdca" opacity="0.5"/><circle cx="393.7" cy="146.2" r="2.3" fill="#b9bdca" opacity="0.5"/><circle cx="393.9" cy="90.5" r="2.3" fill="#b9bdca" opacity="0.5"/><circle cx="394.7" cy="87.7" r="2.3" fill="#b9bdca" opacity="0.5"/><circle cx="395.1" cy="87.7" r="2.3" fill="#b9bdca" opacity="0.5"/><circle cx="395.1" cy="89.6" r="2.3" fill="#b9bdca" opacity="0.5"/><circle cx="400.7" cy="93.0" r="2.3" fill="#b9bdca" opacity="0.5"/><circle cx="402.7" cy="85.5" r="2.3" fill="#b9bdca" opacity="0.5"/><circle cx="419.4" cy="334.8" r="2.3" fill="#b9bdca" opacity="0.5"/><circle cx="421.3" cy="86.3" r="2.3" fill="#b9bdca" opacity="0.5"/><circle cx="427.0" cy="85.5" r="2.3" fill="#b9bdca" opacity="0.5"/><circle cx="428.0" cy="84.6" r="2.3" fill="#b9bdca" opacity="0.5"/><circle cx="430.3" cy="87.8" r="2.3" fill="#b9bdca" opacity="0.5"/><circle cx="431.3" cy="84.4" r="2.3" fill="#b9bdca" opacity="0.5"/><circle cx="431.8" cy="84.8" r="2.3" fill="#b9bdca" opacity="0.5"/><circle cx="433.4" cy="87.4" r="2.3" fill="#b9bdca" opacity="0.5"/><circle cx="442.4" cy="84.4" r="2.3" fill="#b9bdca" opacity="0.5"/><circle cx="481.8" cy="89.3" r="2.3" fill="#b9bdca" opacity="0.5"/><circle cx="488.9" cy="88.6" r="2.3" fill="#b9bdca" opacity="0.5"/><circle cx="488.9" cy="92.1" r="2.3" fill="#b9bdca" opacity="0.5"/><circle cx="490.4" cy="156.8" r="2.3" fill="#b9bdca" opacity="0.5"/><circle cx="513.1" cy="201.6" r="2.3" fill="#b9bdca" opacity="0.5"/><circle cx="529.6" cy="315.6" r="2.3" fill="#b9bdca" opacity="0.5"/><circle cx="575.0" cy="87.7" r="2.3" fill="#b9bdca" opacity="0.5"/><circle cx="588.7" cy="87.6" r="2.3" fill="#b9bdca" opacity="0.5"/><circle cx="600.9" cy="87.2" r="2.3" fill="#b9bdca" opacity="0.5"/><circle cx="603.7" cy="88.8" r="2.3" fill="#b9bdca" opacity="0.5"/><circle cx="604.7" cy="89.2" r="2.3" fill="#b9bdca" opacity="0.5"/><circle cx="605.4" cy="90.9" r="2.3" fill="#b9bdca" opacity="0.5"/><circle cx="608.8" cy="87.7" r="2.3" fill="#b9bdca" opacity="0.5"/><circle cx="621.1" cy="88.6" r="2.3" fill="#b9bdca" opacity="0.5"/><circle cx="622.7" cy="89.7" r="2.3" fill="#b9bdca" opacity="0.5"/><circle cx="623.7" cy="88.2" r="2.3" fill="#b9bdca" opacity="0.5"/><circle cx="646.7" cy="75.8" r="2.3" fill="#b9bdca" opacity="0.5"/><circle cx="648.5" cy="75.7" r="2.3" fill="#b9bdca" opacity="0.5"/><circle cx="649.8" cy="76.7" r="2.3" fill="#b9bdca" opacity="0.5"/><circle cx="649.9" cy="75.8" r="2.3" fill="#b9bdca" opacity="0.5"/><circle cx="650.6" cy="75.3" r="2.3" fill="#b9bdca" opacity="0.5"/><circle cx="651.0" cy="74.7" r="2.3" fill="#b9bdca" opacity="0.5"/><circle cx="651.2" cy="83.4" r="2.3" fill="#b9bdca" opacity="0.5"/><circle cx="651.8" cy="76.2" r="2.3" fill="#b9bdca" opacity="0.5"/><circle cx="652.3" cy="78.1" r="2.3" fill="#b9bdca" opacity="0.5"/><circle cx="652.9" cy="74.7" r="2.3" fill="#b9bdca" opacity="0.5"/><circle cx="656.7" cy="89.3" r="2.3" fill="#b9bdca" opacity="0.5"/><circle cx="664.4" cy="74.4" r="2.3" fill="#b9bdca" opacity="0.5"/><circle cx="676.6" cy="74.4" r="2.3" fill="#b9bdca" opacity="0.5"/><circle cx="678.5" cy="335.1" r="2.3" fill="#b9bdca" opacity="0.5"/><circle cx="678.6" cy="81.7" r="2.3" fill="#b9bdca" opacity="0.5"/><circle cx="680.0" cy="74.6" r="2.3" fill="#b9bdca" opacity="0.5"/><circle cx="680.0" cy="82.1" r="2.3" fill="#b9bdca" opacity="0.5"/><circle cx="680.1" cy="73.9" r="2.3" fill="#b9bdca" opacity="0.5"/><circle cx="683.5" cy="76.2" r="2.3" fill="#b9bdca" opacity="0.5"/><circle cx="684.1" cy="82.1" r="2.3" fill="#b9bdca" opacity="0.5"/><circle cx="684.6" cy="74.2" r="2.3" fill="#b9bdca" opacity="0.5"/><circle cx="684.6" cy="75.0" r="2.3" fill="#b9bdca" opacity="0.5"/><circle cx="685.4" cy="73.6" r="2.3" fill="#b9bdca" opacity="0.5"/><circle cx="685.4" cy="83.3" r="2.3" fill="#b9bdca" opacity="0.5"/><circle cx="685.4" cy="83.8" r="2.3" fill="#b9bdca" opacity="0.5"/><circle cx="685.5" cy="78.1" r="2.3" fill="#b9bdca" opacity="0.5"/><circle cx="685.5" cy="81.5" r="2.3" fill="#b9bdca" opacity="0.5"/><circle cx="685.5" cy="83.0" r="2.3" fill="#b9bdca" opacity="0.5"/><circle cx="685.5" cy="83.7" r="2.3" fill="#b9bdca" opacity="0.5"/><circle cx="690.3" cy="82.7" r="2.3" fill="#b9bdca" opacity="0.5"/><circle cx="691.3" cy="77.8" r="2.3" fill="#b9bdca" opacity="0.5"/><circle cx="693.9" cy="69.8" r="2.3" fill="#b9bdca" opacity="0.5"/><circle cx="694.7" cy="75.9" r="2.3" fill="#b9bdca" opacity="0.5"/><circle cx="695.0" cy="74.3" r="2.3" fill="#b9bdca" opacity="0.5"/><circle cx="695.0" cy="77.4" r="2.3" fill="#b9bdca" opacity="0.5"/><circle cx="695.0" cy="80.6" r="2.3" fill="#b9bdca" opacity="0.5"/><circle cx="695.0" cy="81.8" r="2.3" fill="#b9bdca" opacity="0.5"/><circle cx="696.8" cy="76.9" r="2.3" fill="#b9bdca" opacity="0.5"/><circle cx="696.8" cy="82.8" r="2.3" fill="#b9bdca" opacity="0.5"/><circle cx="696.8" cy="83.0" r="2.3" fill="#b9bdca" opacity="0.5"/><circle cx="696.8" cy="83.1" r="2.3" fill="#b9bdca" opacity="0.5"/><circle cx="697.6" cy="69.1" r="2.3" fill="#b9bdca" opacity="0.5"/><circle cx="699.6" cy="75.5" r="2.3" fill="#b9bdca" opacity="0.5"/><circle cx="700.7" cy="74.3" r="2.3" fill="#b9bdca" opacity="0.5"/><circle cx="731.6" cy="74.0" r="2.3" fill="#b9bdca" opacity="0.5"/><circle cx="768.2" cy="73.4" r="2.3" fill="#b9bdca" opacity="0.5"/><circle cx="768.5" cy="75.9" r="2.3" fill="#b9bdca" opacity="0.5"/><circle cx="768.5" cy="76.3" r="2.3" fill="#b9bdca" opacity="0.5"/><circle cx="768.8" cy="76.0" r="2.3" fill="#b9bdca" opacity="0.5"/><circle cx="768.8" cy="76.8" r="2.3" fill="#b9bdca" opacity="0.5"/><circle cx="768.8" cy="81.2" r="2.3" fill="#b9bdca" opacity="0.5"/><circle cx="768.8" cy="83.4" r="2.3" fill="#b9bdca" opacity="0.5"/><circle cx="794.7" cy="76.6" r="2.3" fill="#b9bdca" opacity="0.5"/><circle cx="796.5" cy="76.7" r="2.3" fill="#b9bdca" opacity="0.5"/><circle cx="796.5" cy="82.8" r="2.3" fill="#b9bdca" opacity="0.5"/><circle cx="796.5" cy="82.8" r="2.3" fill="#b9bdca" opacity="0.5"/><circle cx="796.5" cy="83.3" r="2.3" fill="#b9bdca" opacity="0.5"/><circle cx="801.9" cy="233.4" r="2.3" fill="#b9bdca" opacity="0.5"/><circle cx="803.5" cy="228.9" r="2.3" fill="#b9bdca" opacity="0.5"/><circle cx="805.1" cy="198.3" r="2.3" fill="#b9bdca" opacity="0.5"/><circle cx="838.9" cy="73.4" r="2.3" fill="#b9bdca" opacity="0.5"/><circle cx="848.3" cy="192.4" r="2.3" fill="#b9bdca" opacity="0.5"/><circle cx="851.6" cy="75.3" r="2.3" fill="#b9bdca" opacity="0.5"/><circle cx="852.5" cy="74.0" r="2.3" fill="#b9bdca" opacity="0.5"/><circle cx="854.6" cy="194.4" r="2.3" fill="#b9bdca" opacity="0.5"/><circle cx="857.8" cy="168.6" r="2.3" fill="#b9bdca" opacity="0.5"/><circle cx="859.9" cy="77.1" r="2.3" fill="#b9bdca" opacity="0.5"/><circle cx="859.9" cy="99.5" r="2.3" fill="#b9bdca" opacity="0.5"/><circle cx="885.9" cy="71.4" r="2.3" fill="#b9bdca" opacity="0.5"/><circle cx="885.9" cy="73.5" r="2.3" fill="#b9bdca" opacity="0.5"/><circle cx="895.2" cy="72.4" r="2.3" fill="#b9bdca" opacity="0.5"/><circle cx="933.2" cy="83.0" r="2.3" fill="#b9bdca" opacity="0.5"/><circle cx="933.7" cy="72.1" r="2.3" fill="#b9bdca" opacity="0.5"/><circle cx="934.2" cy="71.6" r="2.3" fill="#b9bdca" opacity="0.5"/><circle cx="935.4" cy="75.5" r="2.3" fill="#b9bdca" opacity="0.5"/><circle cx="936.1" cy="73.7" r="2.3" fill="#b9bdca" opacity="0.5"/><circle cx="937.6" cy="72.9" r="2.3" fill="#b9bdca" opacity="0.5"/><circle cx="938.3" cy="73.4" r="2.3" fill="#b9bdca" opacity="0.5"/><circle cx="1012.6" cy="85.2" r="2.3" fill="#b9bdca" opacity="0.5"/><circle cx="1012.6" cy="256.6" r="2.3" fill="#b9bdca" opacity="0.5"/><circle cx="1012.6" cy="335.3" r="2.3" fill="#b9bdca" opacity="0.5"/><circle cx="1013.1" cy="86.8" r="2.3" fill="#b9bdca" opacity="0.5"/><circle cx="1013.7" cy="71.5" r="2.3" fill="#b9bdca" opacity="0.5"/><circle cx="1015.7" cy="71.0" r="2.3" fill="#b9bdca" opacity="0.5"/><circle cx="1016.8" cy="71.5" r="2.3" fill="#b9bdca" opacity="0.5"/><circle cx="1017.0" cy="55.0" r="2.3" fill="#b9bdca" opacity="0.5"/><circle cx="1027.4" cy="83.1" r="2.3" fill="#b9bdca" opacity="0.5"/><circle cx="1029.9" cy="74.7" r="2.3" fill="#b9bdca" opacity="0.5"/><circle cx="1030.1" cy="59.3" r="2.3" fill="#b9bdca" opacity="0.5"/><circle cx="1030.1" cy="79.9" r="2.3" fill="#b9bdca" opacity="0.5"/><circle cx="1030.4" cy="74.1" r="2.3" fill="#b9bdca" opacity="0.5"/><circle cx="1030.9" cy="72.7" r="2.3" fill="#b9bdca" opacity="0.5"/><circle cx="1030.9" cy="73.8" r="2.3" fill="#b9bdca" opacity="0.5"/><circle cx="1030.9" cy="75.9" r="2.3" fill="#b9bdca" opacity="0.5"/><circle cx="1031.5" cy="74.1" r="2.3" fill="#b9bdca" opacity="0.5"/><circle cx="1032.0" cy="73.5" r="2.3" fill="#b9bdca" opacity="0.5"/><path d="M215.5 152.3L219.1 155.9L215.5 159.5L211.9 155.9Z" fill="#2b3a7a" opacity="0.8" stroke="none" stroke-width="0"/><path d="M225.6 138.2L229.2 141.8L225.6 145.4L222.0 141.8Z" fill="#2b3a7a" opacity="0.8" stroke="none" stroke-width="0"/><path d="M226.9 128.1L230.5 131.7L226.9 135.3L223.3 131.7Z" fill="#2b3a7a" opacity="0.8" stroke="none" stroke-width="0"/><path d="M227.1 130.5L230.7 134.1L227.1 137.7L223.5 134.1Z" fill="#2b3a7a" opacity="0.8" stroke="none" stroke-width="0"/><path d="M228.1 127.3L231.7 130.9L228.1 134.5L224.5 130.9Z" fill="#2b3a7a" opacity="0.8" stroke="none" stroke-width="0"/><path d="M228.7 125.9L232.3 129.5L228.7 133.1L225.1 129.5Z" fill="#2b3a7a" opacity="0.8" stroke="none" stroke-width="0"/><path d="M228.7 127.3L232.3 130.9L228.7 134.5L225.1 130.9Z" fill="#2b3a7a" opacity="0.8" stroke="none" stroke-width="0"/><path d="M260.1 125.9L263.7 129.5L260.1 133.1L256.5 129.5Z" fill="#2b3a7a" opacity="0.8" stroke="none" stroke-width="0"/><path d="M264.8 125.3L268.4 128.9L264.8 132.5L261.2 128.9Z" fill="#2b3a7a" opacity="0.8" stroke="none" stroke-width="0"/><path d="M269.3 124.8L272.9 128.4L269.3 132.0L265.7 128.4Z" fill="#2b3a7a" opacity="0.8" stroke="none" stroke-width="0"/><path d="M272.4 124.6L276.0 128.2L272.4 131.8L268.8 128.2Z" fill="#2b3a7a" opacity="0.8" stroke="none" stroke-width="0"/><path d="M286.6 124.4L290.2 128.0L286.6 131.6L283.0 128.0Z" fill="#2b3a7a" opacity="0.8" stroke="none" stroke-width="0"/><path d="M301.4 109.2L305.0 112.8L301.4 116.4L297.8 112.8Z" fill="#2b3a7a" opacity="0.8" stroke="none" stroke-width="0"/><path d="M308.4 108.0L312.0 111.6L308.4 115.2L304.8 111.6Z" fill="#2b3a7a" opacity="0.8" stroke="none" stroke-width="0"/><path d="M310.5 101.9L314.1 105.5L310.5 109.1L306.9 105.5Z" fill="#2b3a7a" opacity="0.8" stroke="none" stroke-width="0"/><path d="M310.8 104.9L314.4 108.5L310.8 112.1L307.2 108.5Z" fill="#2b3a7a" opacity="0.8" stroke="none" stroke-width="0"/><path d="M311.7 101.5L315.3 105.1L311.7 108.7L308.1 105.1Z" fill="#2b3a7a" opacity="0.8" stroke="none" stroke-width="0"/><path d="M312.6 100.2L316.2 103.8L312.6 107.4L309.0 103.8Z" fill="#2b3a7a" opacity="0.8" stroke="none" stroke-width="0"/><path d="M322.8 99.9L326.4 103.5L322.8 107.1L319.2 103.5Z" fill="#2b3a7a" opacity="0.8" stroke="none" stroke-width="0"/><path d="M342.1 86.0L345.7 89.6L342.1 93.2L338.5 89.6Z" fill="#2b3a7a" opacity="0.8" stroke="none" stroke-width="0"/><path d="M345.5 85.7L349.1 89.3L345.5 92.9L341.9 89.3Z" fill="#2b3a7a" opacity="0.8" stroke="none" stroke-width="0"/><path d="M346.2 84.0L349.8 87.6L346.2 91.2L342.6 87.6Z" fill="#2b3a7a" opacity="0.8" stroke="none" stroke-width="0"/><path d="M349.6 81.8L353.2 85.4L349.6 89.0L346.0 85.4Z" fill="#2b3a7a" opacity="0.8" stroke="none" stroke-width="0"/><path d="M360.4 80.8L364.0 84.4L360.4 88.0L356.8 84.4Z" fill="#2b3a7a" opacity="0.8" stroke="none" stroke-width="0"/><path d="M442.4 80.8L446.0 84.4L442.4 88.0L438.8 84.4Z" fill="#2b3a7a" opacity="0.8" stroke="none" stroke-width="0"/><path d="M646.7 72.2L650.3 75.8L646.7 79.4L643.1 75.8Z" fill="#2b3a7a" opacity="0.8" stroke="none" stroke-width="0"/><path d="M648.5 72.1L652.1 75.7L648.5 79.3L644.9 75.7Z" fill="#2b3a7a" opacity="0.8" stroke="none" stroke-width="0"/><path d="M650.6 71.7L654.2 75.3L650.6 78.9L647.0 75.3Z" fill="#2b3a7a" opacity="0.8" stroke="none" stroke-width="0"/><path d="M651.0 71.1L654.6 74.7L651.0 78.3L647.4 74.7Z" fill="#2b3a7a" opacity="0.8" stroke="none" stroke-width="0"/><path d="M652.9 71.1L656.5 74.7L652.9 78.3L649.3 74.7Z" fill="#2b3a7a" opacity="0.8" stroke="none" stroke-width="0"/><path d="M664.4 70.8L668.0 74.4L664.4 78.0L660.8 74.4Z" fill="#2b3a7a" opacity="0.8" stroke="none" stroke-width="0"/><path d="M680.1 70.3L683.7 73.9L680.1 77.5L676.5 73.9Z" fill="#2b3a7a" opacity="0.8" stroke="none" stroke-width="0"/><path d="M685.4 70.0L689.0 73.6L685.4 77.2L681.8 73.6Z" fill="#2b3a7a" opacity="0.8" stroke="none" stroke-width="0"/><path d="M768.2 69.8L771.8 73.4L768.2 77.0L764.6 73.4Z" fill="#2b3a7a" opacity="0.8" stroke="none" stroke-width="0"/><path d="M838.9 69.8L842.5 73.4L838.9 77.0L835.3 73.4Z" fill="#2b3a7a" opacity="0.8" stroke="none" stroke-width="0"/><path d="M885.9 67.8L889.5 71.4L885.9 75.0L882.3 71.4Z" fill="#2b3a7a" opacity="0.8" stroke="none" stroke-width="0"/><path d="M60.0 335.3L62.5 335.3L62.5 335.1L66.1 335.1L66.1 320.7L73.1 320.7L73.1 319.9L75.7 319.9L75.7 315.3L76.4 315.3L76.4 314.9L77.6 314.9L77.6 314.9L119.5 314.9L119.5 238.7L120.2 238.7L120.2 229.0L120.9 229.0L120.9 222.3L121.7 222.3L121.7 220.6L121.9 220.6L121.9 220.5L122.3 220.5L122.3 214.2L123.9 214.2L123.9 214.1L124.4 214.1L124.4 213.7L124.7 213.7L124.7 213.5L125.2 213.5L125.2 212.7L127.2 212.7L127.2 212.1L127.8 212.1L127.8 212.0L133.4 212.0L133.4 206.7L139.6 206.7L139.6 204.9L142.0 204.9L142.0 204.6L143.5 204.6L143.5 201.9L146.3 201.9L146.3 201.8L147.7 201.8L147.7 201.0L148.6 201.0L148.6 200.0L152.6 200.0L152.6 200.0L154.3 200.0L154.3 199.7L168.0 199.7L168.0 195.5L178.3 195.5L178.3 187.4L178.6 187.4L178.6 186.2L179.2 186.2L179.2 184.5L197.1 184.5L197.1 183.9L206.0 183.9L206.0 169.3L209.0 169.3L209.0 168.8L209.2 168.8L209.2 167.7L210.9 167.7L210.9 165.0L211.5 165.0L211.5 163.7L211.7 163.7L211.7 163.6L215.5 163.6L215.5 155.9L220.1 155.9L220.1 155.8L221.9 155.8L221.9 141.9L225.6 141.9L225.6 141.8L226.9 141.8L226.9 131.7L228.1 131.7L228.1 130.9L228.7 130.9L228.7 129.5L260.1 129.5L260.1 129.5L264.8 129.5L264.8 128.9L269.3 128.9L269.3 128.4L272.4 128.4L272.4 128.2L286.6 128.2L286.6 128.0L301.4 128.0L301.4 112.8L304.7 112.8L304.7 110.2L310.5 110.2L310.5 105.5L311.7 105.5L311.7 105.1L312.6 105.1L312.6 103.8L322.8 103.8L322.8 103.5L342.1 103.5L342.1 89.6L345.5 89.6L345.5 89.3L346.2 89.3L346.2 87.6L349.6 87.6L349.6 85.4L360.4 85.4L360.4 84.4L442.4 84.4L442.4 84.4L646.7 84.4L646.7 75.8L648.5 75.8L648.5 75.7L650.6 75.7L650.6 75.3L651.0 75.3L651.0 74.7L652.9 74.7L652.9 74.7L664.4 74.7L664.4 74.4L680.1 74.4L680.1 73.9L685.4 73.9L685.4 73.6L693.9 73.6L693.9 69.8L697.6 69.8L697.6 69.1L1017.0 69.1L1017.0 55.0L1032.0 55.0" fill="none" stroke="#6675b0" stroke-width="1.6" stroke-dasharray="5 3" opacity="0.75"/><path d="M215.5 155.9L225.6 155.9L225.6 141.8L226.9 141.8L226.9 131.7L228.1 131.7L228.1 130.9L228.7 130.9L228.7 129.5L260.1 129.5L260.1 129.5L264.8 129.5L264.8 128.9L269.3 128.9L269.3 128.4L272.4 128.4L272.4 128.2L286.6 128.2L286.6 128.0L301.4 128.0L301.4 112.8L308.4 112.8L308.4 111.6L310.5 111.6L310.5 105.5L311.7 105.5L311.7 105.1L312.6 105.1L312.6 103.8L322.8 103.8L322.8 103.5L342.1 103.5L342.1 89.6L345.5 89.6L345.5 89.3L346.2 89.3L346.2 87.6L349.6 87.6L349.6 85.4L360.4 85.4L360.4 84.4L442.4 84.4L442.4 84.4L646.7 84.4L646.7 75.8L648.5 75.8L648.5 75.7L650.6 75.7L650.6 75.3L651.0 75.3L651.0 74.7L652.9 74.7L652.9 74.7L664.4 74.7L664.4 74.4L680.1 74.4L680.1 73.9L685.4 73.9L685.4 73.6L693.9 73.6L693.9 73.5L768.2 73.5L768.2 73.4L838.9 73.4L838.9 73.4L885.9 73.4L885.9 71.4L1032.0 71.4" fill="none" stroke="#2b3a7a" stroke-width="2.6"/><path d="M580.5 246.9L587.0 253.4L580.5 259.9L574.0 253.4Z" fill="#c5961a" opacity="1.0" stroke="#ffffff" stroke-width="1.4"/><path d="M682.2 206.5L688.7 213.0L682.2 219.5L675.7 213.0Z" fill="#c5961a" opacity="1.0" stroke="#ffffff" stroke-width="1.4"/><path d="M693.9 67.0L700.4 73.5L693.9 80.0L687.4 73.5Z" fill="#c5961a" opacity="1.0" stroke="#ffffff" stroke-width="1.4"/><path d="M781.0 240.8L787.5 247.3L781.0 253.8L774.5 247.3Z" fill="#c5961a" opacity="1.0" stroke="#ffffff" stroke-width="1.4"/><path d="M781.6 238.0L788.1 244.5L781.6 251.0L775.1 244.5Z" fill="#c5961a" opacity="1.0" stroke="#ffffff" stroke-width="1.4"/><text x="1042" y="53.0" font-size="11.5" fill="#6675b0">– – raw best 535.9</text><text x="1042" y="67.0" font-size="10" fill="#8a8fa3">unverified (pending)</text><path d="M885.9 64.9L892.4 71.4L885.9 77.9L879.4 71.4Z" fill="#2b3a7a" opacity="1.0" stroke="#ffffff" stroke-width="1.4"/><text x="1042" y="99.4" font-size="12.5" fill="#2b3a7a" font-weight="bold">◆ verified 510.1</text><text x="1042" y="115.4" font-size="10.5" fill="#3a3f55">top verified</text><text x="60" y="24" font-size="13" font-weight="bold" fill="#3a3f55" letter-spacing="1.2">SCORE EVOLUTION — gemma-challenge (tok/s)</text><circle cx="452" cy="20" r="3" fill="#b9bdca"/><text x="460" y="24" font-size="10.5" fill="#8a8fa3">all results</text><path d="M544.0 16.4L547.6 20.0L544.0 23.6L540.4 20.0Z" fill="#2b3a7a" opacity="1.0" stroke="none" stroke-width="0"/><text x="552" y="24" font-size="10.5" fill="#8a8fa3">verified</text><path d="M620.0 15.5L624.5 20.0L620.0 24.5L615.5 20.0Z" fill="#c5961a" opacity="1.0" stroke="#fff" stroke-width="1"/><text x="629" y="24" font-size="10.5" fill="#8a8fa3">mikasa-inbound (us)</text></svg>