<svg viewBox="0 0 1200 440" xmlns="http://www.w3.org/2000/svg" font-family="ui-sans-serif,system-ui,-apple-system,sans-serif"><rect x="0" y="0" width="1200" height="440" fill="#ffffff"/><rect x="60" y="46" width="972" height="350" fill="#f3f4fb"/><line x1="60" y1="396.0" x2="1032" y2="396.0" stroke="#e3e5ef" stroke-width="1"/><text x="52" y="400.0" text-anchor="end" font-size="11" fill="#8a8fa3">0</text><line x1="60" y1="332.4" x2="1032" y2="332.4" stroke="#e3e5ef" stroke-width="1"/><text x="52" y="336.4" text-anchor="end" font-size="11" fill="#8a8fa3">100</text><line x1="60" y1="268.7" x2="1032" y2="268.7" stroke="#e3e5ef" stroke-width="1"/><text x="52" y="272.7" text-anchor="end" font-size="11" fill="#8a8fa3">200</text><line x1="60" y1="205.1" x2="1032" y2="205.1" stroke="#e3e5ef" stroke-width="1"/><text x="52" y="209.1" text-anchor="end" font-size="11" fill="#8a8fa3">300</text><line x1="60" y1="141.5" x2="1032" y2="141.5" stroke="#e3e5ef" stroke-width="1"/><text x="52" y="145.5" text-anchor="end" font-size="11" fill="#8a8fa3">400</text><line x1="60" y1="77.8" x2="1032" y2="77.8" stroke="#e3e5ef" stroke-width="1"/><text x="52" y="81.8" text-anchor="end" font-size="11" fill="#8a8fa3">500</text><line x1="135.2" y1="46" x2="135.2" y2="396" stroke="#e3e5ef" stroke-width="1"/><text x="135.2" y="414.0" text-anchor="middle" font-size="11" fill="#8a8fa3">Jun 10</text><line x1="242.4" y1="46" x2="242.4" y2="396" stroke="#e3e5ef" stroke-width="1"/><text x="242.4" y="414.0" text-anchor="middle" font-size="11" fill="#8a8fa3">Jun 12</text><line x1="349.6" y1="46" x2="349.6" y2="396" stroke="#e3e5ef" stroke-width="1"/><text x="349.6" y="414.0" text-anchor="middle" font-size="11" fill="#8a8fa3">Jun 14</text><line x1="456.8" y1="46" x2="456.8" y2="396" stroke="#e3e5ef" stroke-width="1"/><text x="456.8" y="414.0" text-anchor="middle" font-size="11" fill="#8a8fa3">Jun 16</text><line x1="564.0" y1="46" x2="564.0" y2="396" stroke="#e3e5ef" stroke-width="1"/><text x="564.0" y="414.0" text-anchor="middle" font-size="11" fill="#8a8fa3">Jun 18</text><line x1="671.2" y1="46" x2="671.2" y2="396" stroke="#e3e5ef" stroke-width="1"/><text x="671.2" y="414.0" text-anchor="middle" font-size="11" fill="#8a8fa3">Jun 20</text><line x1="778.4" y1="46" x2="778.4" y2="396" stroke="#e3e5ef" stroke-width="1"/><text x="778.4" y="414.0" text-anchor="middle" font-size="11" fill="#8a8fa3">Jun 22</text><line x1="885.6" y1="46" x2="885.6" y2="396" stroke="#e3e5ef" stroke-width="1"/><text x="885.6" y="414.0" text-anchor="middle" font-size="11" fill="#8a8fa3">Jun 24</text><line x1="992.8" y1="46" x2="992.8" y2="396" stroke="#e3e5ef" stroke-width="1"/><text x="992.8" y="414.0" text-anchor="middle" font-size="11" fill="#8a8fa3">Jun 26</text><circle cx="60.0" cy="335.3" r="2.3" fill="#b9bdca" opacity="0.5"/><circle cx="62.6" cy="335.1" r="2.3" fill="#b9bdca" opacity="0.5"/><circle cx="65.2" cy="368.0" r="2.3" fill="#b9bdca" opacity="0.5"/><circle cx="66.2" cy="320.7" r="2.3" fill="#b9bdca" opacity="0.5"/><circle cx="73.3" cy="319.9" r="2.3" fill="#b9bdca" opacity="0.5"/><circle cx="73.7" cy="320.6" r="2.3" fill="#b9bdca" opacity="0.5"/><circle cx="76.0" cy="315.3" r="2.3" fill="#b9bdca" opacity="0.5"/><circle cx="76.5" cy="319.7" r="2.3" fill="#b9bdca" opacity="0.5"/><circle cx="76.7" cy="314.9" r="2.3" fill="#b9bdca" opacity="0.5"/><circle cx="77.6" cy="315.5" r="2.3" fill="#b9bdca" opacity="0.5"/><circle cx="77.9" cy="314.9" r="2.3" fill="#b9bdca" opacity="0.5"/><circle cx="78.6" cy="315.4" r="2.3" fill="#b9bdca" opacity="0.5"/><circle cx="79.9" cy="315.0" r="2.3" fill="#b9bdca" opacity="0.5"/><circle cx="120.5" cy="238.7" r="2.3" fill="#b9bdca" opacity="0.5"/><circle cx="120.9" cy="315.0" r="2.3" fill="#b9bdca" opacity="0.5"/><circle cx="121.2" cy="229.0" r="2.3" fill="#b9bdca" opacity="0.5"/><circle cx="121.9" cy="222.3" r="2.3" fill="#b9bdca" opacity="0.5"/><circle cx="122.5" cy="228.0" r="2.3" fill="#b9bdca" opacity="0.5"/><circle cx="122.6" cy="223.3" r="2.3" fill="#b9bdca" opacity="0.5"/><circle cx="122.8" cy="220.6" r="2.3" fill="#b9bdca" opacity="0.5"/><circle cx="122.9" cy="220.5" r="2.3" fill="#b9bdca" opacity="0.5"/><circle cx="123.1" cy="223.2" r="2.3" fill="#b9bdca" opacity="0.5"/><circle cx="123.4" cy="214.2" r="2.3" fill="#b9bdca" opacity="0.5"/><circle cx="123.5" cy="222.1" r="2.3" fill="#b9bdca" opacity="0.5"/><circle cx="123.8" cy="220.7" r="2.3" fill="#b9bdca" opacity="0.5"/><circle cx="124.2" cy="218.5" r="2.3" fill="#b9bdca" opacity="0.5"/><circle cx="124.4" cy="215.2" r="2.3" fill="#b9bdca" opacity="0.5"/><circle cx="124.7" cy="214.3" r="2.3" fill="#b9bdca" opacity="0.5"/><circle cx="124.7" cy="219.2" r="2.3" fill="#b9bdca" opacity="0.5"/><circle cx="125.0" cy="214.1" r="2.3" fill="#b9bdca" opacity="0.5"/><circle cx="125.3" cy="215.2" r="2.3" fill="#b9bdca" opacity="0.5"/><circle cx="125.5" cy="213.7" r="2.3" fill="#b9bdca" opacity="0.5"/><circle cx="125.8" cy="213.5" r="2.3" fill="#b9bdca" opacity="0.5"/><circle cx="126.1" cy="214.8" r="2.3" fill="#b9bdca" opacity="0.5"/><circle cx="126.1" cy="217.7" r="2.3" fill="#b9bdca" opacity="0.5"/><circle cx="126.3" cy="212.7" r="2.3" fill="#b9bdca" opacity="0.5"/><circle cx="126.9" cy="213.3" r="2.3" fill="#b9bdca" opacity="0.5"/><circle cx="127.7" cy="212.7" r="2.3" fill="#b9bdca" opacity="0.5"/><circle cx="127.7" cy="213.6" r="2.3" fill="#b9bdca" opacity="0.5"/><circle cx="127.9" cy="213.0" r="2.3" fill="#b9bdca" opacity="0.5"/><circle cx="128.4" cy="212.1" r="2.3" fill="#b9bdca" opacity="0.5"/><circle cx="128.5" cy="213.3" r="2.3" fill="#b9bdca" opacity="0.5"/><circle cx="128.9" cy="212.0" r="2.3" fill="#b9bdca" opacity="0.5"/><circle cx="129.7" cy="212.1" r="2.3" fill="#b9bdca" opacity="0.5"/><circle cx="129.7" cy="212.8" r="2.3" fill="#b9bdca" opacity="0.5"/><circle cx="134.6" cy="206.7" r="2.3" fill="#b9bdca" opacity="0.5"/><circle cx="135.3" cy="206.8" r="2.3" fill="#b9bdca" opacity="0.5"/><circle cx="135.3" cy="212.5" r="2.3" fill="#b9bdca" opacity="0.5"/><circle cx="135.7" cy="207.2" r="2.3" fill="#b9bdca" opacity="0.5"/><circle cx="137.3" cy="207.0" r="2.3" fill="#b9bdca" opacity="0.5"/><circle cx="141.0" cy="204.9" r="2.3" fill="#b9bdca" opacity="0.5"/><circle cx="143.4" cy="204.6" r="2.3" fill="#b9bdca" opacity="0.5"/><circle cx="143.6" cy="212.3" r="2.3" fill="#b9bdca" opacity="0.5"/><circle cx="144.0" cy="204.6" r="2.3" fill="#b9bdca" opacity="0.5"/><circle cx="144.0" cy="204.6" r="2.3" fill="#b9bdca" opacity="0.5"/><circle cx="144.0" cy="204.9" r="2.3" fill="#b9bdca" opacity="0.5"/><circle cx="144.0" cy="204.9" r="2.3" fill="#b9bdca" opacity="0.5"/><circle cx="144.9" cy="201.9" r="2.3" fill="#b9bdca" opacity="0.5"/><circle cx="146.4" cy="206.5" r="2.3" fill="#b9bdca" opacity="0.5"/><circle cx="147.0" cy="205.8" r="2.3" fill="#b9bdca" opacity="0.5"/><circle cx="147.0" cy="335.1" r="2.3" fill="#b9bdca" opacity="0.5"/><circle cx="147.8" cy="201.8" r="2.3" fill="#b9bdca" opacity="0.5"/><circle cx="147.8" cy="202.2" r="2.3" fill="#b9bdca" opacity="0.5"/><circle cx="149.2" cy="201.0" r="2.3" fill="#b9bdca" opacity="0.5"/><circle cx="149.8" cy="203.1" r="2.3" fill="#b9bdca" opacity="0.5"/><circle cx="150.1" cy="200.0" r="2.3" fill="#b9bdca" opacity="0.5"/><circle cx="150.1" cy="204.6" r="2.3" fill="#b9bdca" opacity="0.5"/><circle cx="151.0" cy="202.3" r="2.3" fill="#b9bdca" opacity="0.5"/><circle cx="152.8" cy="200.4" r="2.3" fill="#b9bdca" opacity="0.5"/><circle cx="153.5" cy="200.7" r="2.3" fill="#b9bdca" opacity="0.5"/><circle cx="154.2" cy="200.0" r="2.3" fill="#b9bdca" opacity="0.5"/><circle cx="155.9" cy="199.7" r="2.3" fill="#b9bdca" opacity="0.5"/><circle cx="166.1" cy="200.6" r="2.3" fill="#b9bdca" opacity="0.5"/><circle cx="167.0" cy="201.8" r="2.3" fill="#b9bdca" opacity="0.5"/><circle cx="168.4" cy="208.4" r="2.3" fill="#b9bdca" opacity="0.5"/><circle cx="168.5" cy="200.8" r="2.3" fill="#b9bdca" opacity="0.5"/><circle cx="169.5" cy="200.7" r="2.3" fill="#b9bdca" opacity="0.5"/><circle cx="169.5" cy="201.9" r="2.3" fill="#b9bdca" opacity="0.5"/><circle cx="169.8" cy="195.5" r="2.3" fill="#b9bdca" opacity="0.5"/><circle cx="170.8" cy="196.9" r="2.3" fill="#b9bdca" opacity="0.5"/><circle cx="171.3" cy="197.9" r="2.3" fill="#b9bdca" opacity="0.5"/><circle cx="172.2" cy="196.1" r="2.3" fill="#b9bdca" opacity="0.5"/><circle cx="175.3" cy="197.3" r="2.3" fill="#b9bdca" opacity="0.5"/><circle cx="176.2" cy="195.9" r="2.3" fill="#b9bdca" opacity="0.5"/><circle cx="176.5" cy="201.0" r="2.3" fill="#b9bdca" opacity="0.5"/><circle cx="176.7" cy="197.5" r="2.3" fill="#b9bdca" opacity="0.5"/><circle cx="177.4" cy="196.9" r="2.3" fill="#b9bdca" opacity="0.5"/><circle cx="177.5" cy="197.1" r="2.3" fill="#b9bdca" opacity="0.5"/><circle cx="177.6" cy="197.0" r="2.3" fill="#b9bdca" opacity="0.5"/><circle cx="178.3" cy="196.0" r="2.3" fill="#b9bdca" opacity="0.5"/><circle cx="178.3" cy="196.0" r="2.3" fill="#b9bdca" opacity="0.5"/><circle cx="178.3" cy="197.9" r="2.3" fill="#b9bdca" opacity="0.5"/><circle cx="178.9" cy="197.8" r="2.3" fill="#b9bdca" opacity="0.5"/><circle cx="179.3" cy="196.2" r="2.3" fill="#b9bdca" opacity="0.5"/><circle cx="179.3" cy="197.5" r="2.3" fill="#b9bdca" opacity="0.5"/><circle cx="179.5" cy="196.9" r="2.3" fill="#b9bdca" opacity="0.5"/><circle cx="179.6" cy="195.5" r="2.3" fill="#b9bdca" opacity="0.5"/><circle cx="180.2" cy="198.1" r="2.3" fill="#b9bdca" opacity="0.5"/><circle cx="180.3" cy="187.4" r="2.3" fill="#b9bdca" opacity="0.5"/><circle cx="180.6" cy="186.2" r="2.3" fill="#b9bdca" opacity="0.5"/><circle cx="180.6" cy="196.3" r="2.3" fill="#b9bdca" opacity="0.5"/><circle cx="180.6" cy="197.2" r="2.3" fill="#b9bdca" opacity="0.5"/><circle cx="180.6" cy="197.8" r="2.3" fill="#b9bdca" opacity="0.5"/><circle cx="180.6" cy="368.0" r="2.3" fill="#b9bdca" opacity="0.5"/><circle cx="181.3" cy="184.5" r="2.3" fill="#b9bdca" opacity="0.5"/><circle cx="184.0" cy="184.6" r="2.3" fill="#b9bdca" opacity="0.5"/><circle cx="185.2" cy="185.6" r="2.3" fill="#b9bdca" opacity="0.5"/><circle cx="189.2" cy="188.7" r="2.3" fill="#b9bdca" opacity="0.5"/><circle cx="194.7" cy="185.4" r="2.3" fill="#b9bdca" opacity="0.5"/><circle cx="195.9" cy="185.2" r="2.3" fill="#b9bdca" opacity="0.5"/><circle cx="196.3" cy="186.6" r="2.3" fill="#b9bdca" opacity="0.5"/><circle cx="196.4" cy="185.3" r="2.3" fill="#b9bdca" opacity="0.5"/><circle cx="197.4" cy="185.3" r="2.3" fill="#b9bdca" opacity="0.5"/><circle cx="197.8" cy="185.0" r="2.3" fill="#b9bdca" opacity="0.5"/><circle cx="198.7" cy="184.9" r="2.3" fill="#b9bdca" opacity="0.5"/><circle cx="199.4" cy="185.1" r="2.3" fill="#b9bdca" opacity="0.5"/><circle cx="199.4" cy="185.2" r="2.3" fill="#b9bdca" opacity="0.5"/><circle cx="199.4" cy="186.4" r="2.3" fill="#b9bdca" opacity="0.5"/><circle cx="199.5" cy="183.9" r="2.3" fill="#b9bdca" opacity="0.5"/><circle cx="204.5" cy="184.4" r="2.3" fill="#b9bdca" opacity="0.5"/><circle cx="205.3" cy="184.2" r="2.3" fill="#b9bdca" opacity="0.5"/><circle cx="208.5" cy="169.3" r="2.3" fill="#b9bdca" opacity="0.5"/><circle cx="211.5" cy="168.8" r="2.3" fill="#b9bdca" opacity="0.5"/><circle cx="211.7" cy="167.7" r="2.3" fill="#b9bdca" opacity="0.5"/><circle cx="213.0" cy="201.4" r="2.3" fill="#b9bdca" opacity="0.5"/><circle cx="213.4" cy="165.0" r="2.3" fill="#b9bdca" opacity="0.5"/><circle cx="213.7" cy="198.2" r="2.3" fill="#b9bdca" opacity="0.5"/><circle cx="214.1" cy="163.7" r="2.3" fill="#b9bdca" opacity="0.5"/><circle cx="214.3" cy="163.6" r="2.3" fill="#b9bdca" opacity="0.5"/><circle cx="214.8" cy="165.9" r="2.3" fill="#b9bdca" opacity="0.5"/><circle cx="217.5" cy="165.1" r="2.3" fill="#b9bdca" opacity="0.5"/><circle cx="218.1" cy="155.9" r="2.3" fill="#b9bdca" opacity="0.5"/><circle cx="220.8" cy="196.5" r="2.3" fill="#b9bdca" opacity="0.5"/><circle cx="221.9" cy="157.4" r="2.3" fill="#b9bdca" opacity="0.5"/><circle cx="222.9" cy="155.8" r="2.3" fill="#b9bdca" opacity="0.5"/><circle cx="224.6" cy="141.9" r="2.3" fill="#b9bdca" opacity="0.5"/><circle cx="228.2" cy="156.1" r="2.3" fill="#b9bdca" opacity="0.5"/><circle cx="228.2" cy="156.4" r="2.3" fill="#b9bdca" opacity="0.5"/><circle cx="228.4" cy="141.8" r="2.3" fill="#b9bdca" opacity="0.5"/><circle cx="228.5" cy="196.0" r="2.3" fill="#b9bdca" opacity="0.5"/><circle cx="229.7" cy="131.7" r="2.3" fill="#b9bdca" opacity="0.5"/><circle cx="229.9" cy="134.1" r="2.3" fill="#b9bdca" opacity="0.5"/><circle cx="230.3" cy="141.1" r="2.3" fill="#b9bdca" opacity="0.5"/><circle cx="230.9" cy="134.0" r="2.3" fill="#b9bdca" opacity="0.5"/><circle cx="231.0" cy="130.9" r="2.3" fill="#b9bdca" opacity="0.5"/><circle cx="231.0" cy="154.2" r="2.3" fill="#b9bdca" opacity="0.5"/><circle cx="231.3" cy="133.6" r="2.3" fill="#b9bdca" opacity="0.5"/><circle cx="231.5" cy="129.5" r="2.3" fill="#b9bdca" opacity="0.5"/><circle cx="231.6" cy="130.9" r="2.3" fill="#b9bdca" opacity="0.5"/><circle cx="231.6" cy="133.4" r="2.3" fill="#b9bdca" opacity="0.5"/><circle cx="231.8" cy="131.2" r="2.3" fill="#b9bdca" opacity="0.5"/><circle cx="234.1" cy="189.8" r="2.3" fill="#b9bdca" opacity="0.5"/><circle cx="234.2" cy="133.2" r="2.3" fill="#b9bdca" opacity="0.5"/><circle cx="234.5" cy="133.5" r="2.3" fill="#b9bdca" opacity="0.5"/><circle cx="235.3" cy="130.1" r="2.3" fill="#b9bdca" opacity="0.5"/><circle cx="237.5" cy="130.3" r="2.3" fill="#b9bdca" opacity="0.5"/><circle cx="238.5" cy="303.1" r="2.3" fill="#b9bdca" opacity="0.5"/><circle cx="240.3" cy="133.2" r="2.3" fill="#b9bdca" opacity="0.5"/><circle cx="242.7" cy="144.2" r="2.3" fill="#b9bdca" opacity="0.5"/><circle cx="243.2" cy="135.3" r="2.3" fill="#b9bdca" opacity="0.5"/><circle cx="244.7" cy="133.4" r="2.3" fill="#b9bdca" opacity="0.5"/><circle cx="244.9" cy="159.9" r="2.3" fill="#b9bdca" opacity="0.5"/><circle cx="245.3" cy="130.8" r="2.3" fill="#b9bdca" opacity="0.5"/><circle cx="245.8" cy="133.2" r="2.3" fill="#b9bdca" opacity="0.5"/><circle cx="251.3" cy="130.9" r="2.3" fill="#b9bdca" opacity="0.5"/><circle cx="251.9" cy="130.9" r="2.3" fill="#b9bdca" opacity="0.5"/><circle cx="251.9" cy="133.8" r="2.3" fill="#b9bdca" opacity="0.5"/><circle cx="252.8" cy="130.4" r="2.3" fill="#b9bdca" opacity="0.5"/><circle cx="253.4" cy="153.7" r="2.3" fill="#b9bdca" opacity="0.5"/><circle cx="254.4" cy="133.3" r="2.3" fill="#b9bdca" opacity="0.5"/><circle cx="256.1" cy="156.5" r="2.3" fill="#b9bdca" opacity="0.5"/><circle cx="256.4" cy="132.3" r="2.3" fill="#b9bdca" opacity="0.5"/><circle cx="258.4" cy="147.2" r="2.3" fill="#b9bdca" opacity="0.5"/><circle cx="258.7" cy="133.6" r="2.3" fill="#b9bdca" opacity="0.5"/><circle cx="259.4" cy="129.5" r="2.3" fill="#b9bdca" opacity="0.5"/><circle cx="259.4" cy="133.3" r="2.3" fill="#b9bdca" opacity="0.5"/><circle cx="261.9" cy="133.3" r="2.3" fill="#b9bdca" opacity="0.5"/><circle cx="263.5" cy="129.5" r="2.3" fill="#b9bdca" opacity="0.5"/><circle cx="266.2" cy="130.6" r="2.3" fill="#b9bdca" opacity="0.5"/><circle cx="268.3" cy="128.9" r="2.3" fill="#b9bdca" opacity="0.5"/><circle cx="268.7" cy="132.7" r="2.3" fill="#b9bdca" opacity="0.5"/><circle cx="268.7" cy="133.1" r="2.3" fill="#b9bdca" opacity="0.5"/><circle cx="271.8" cy="129.8" r="2.3" fill="#b9bdca" opacity="0.5"/><circle cx="272.6" cy="333.8" r="2.3" fill="#b9bdca" opacity="0.5"/><circle cx="272.8" cy="128.4" r="2.3" fill="#b9bdca" opacity="0.5"/><circle cx="274.3" cy="129.8" r="2.3" fill="#b9bdca" opacity="0.5"/><circle cx="274.8" cy="128.9" r="2.3" fill="#b9bdca" opacity="0.5"/><circle cx="275.0" cy="128.9" r="2.3" fill="#b9bdca" opacity="0.5"/><circle cx="276.0" cy="128.2" r="2.3" fill="#b9bdca" opacity="0.5"/><circle cx="276.8" cy="129.7" r="2.3" fill="#b9bdca" opacity="0.5"/><circle cx="277.1" cy="142.3" r="2.3" fill="#b9bdca" opacity="0.5"/><circle cx="280.0" cy="128.8" r="2.3" fill="#b9bdca" opacity="0.5"/><circle cx="281.7" cy="161.1" r="2.3" fill="#b9bdca" opacity="0.5"/><circle cx="284.9" cy="164.4" r="2.3" fill="#b9bdca" opacity="0.5"/><circle cx="285.3" cy="248.3" r="2.3" fill="#b9bdca" opacity="0.5"/><circle cx="290.0" cy="135.4" r="2.3" fill="#b9bdca" opacity="0.5"/><circle cx="290.4" cy="128.0" r="2.3" fill="#b9bdca" opacity="0.5"/><circle cx="291.9" cy="229.0" r="2.3" fill="#b9bdca" opacity="0.5"/><circle cx="295.1" cy="128.1" r="2.3" fill="#b9bdca" opacity="0.5"/><circle cx="296.0" cy="128.6" r="2.3" fill="#b9bdca" opacity="0.5"/><circle cx="299.1" cy="128.8" r="2.3" fill="#b9bdca" opacity="0.5"/><circle cx="299.1" cy="129.6" r="2.3" fill="#b9bdca" opacity="0.5"/><circle cx="299.1" cy="130.9" r="2.3" fill="#b9bdca" opacity="0.5"/><circle cx="305.5" cy="112.8" r="2.3" fill="#b9bdca" opacity="0.5"/><circle cx="308.8" cy="110.2" r="2.3" fill="#b9bdca" opacity="0.5"/><circle cx="309.0" cy="111.6" r="2.3" fill="#b9bdca" opacity="0.5"/><circle cx="311.0" cy="111.0" r="2.3" fill="#b9bdca" opacity="0.5"/><circle cx="312.1" cy="335.1" r="2.3" fill="#b9bdca" opacity="0.5"/><circle cx="312.6" cy="111.6" r="2.3" fill="#b9bdca" opacity="0.5"/><circle cx="314.7" cy="105.5" r="2.3" fill="#b9bdca" opacity="0.5"/><circle cx="315.1" cy="108.5" r="2.3" fill="#b9bdca" opacity="0.5"/><circle cx="316.0" cy="105.1" r="2.3" fill="#b9bdca" opacity="0.5"/><circle cx="316.9" cy="103.8" r="2.3" fill="#b9bdca" opacity="0.5"/><circle cx="318.0" cy="125.8" r="2.3" fill="#b9bdca" opacity="0.5"/><circle cx="327.3" cy="103.5" r="2.3" fill="#b9bdca" opacity="0.5"/><circle cx="329.7" cy="127.8" r="2.3" fill="#b9bdca" opacity="0.5"/><circle cx="330.7" cy="334.3" r="2.3" fill="#b9bdca" opacity="0.5"/><circle cx="332.2" cy="128.6" r="2.3" fill="#b9bdca" opacity="0.5"/><circle cx="332.9" cy="128.6" r="2.3" fill="#b9bdca" opacity="0.5"/><circle cx="333.0" cy="128.6" r="2.3" fill="#b9bdca" opacity="0.5"/><circle cx="333.8" cy="256.6" r="2.3" fill="#b9bdca" opacity="0.5"/><circle cx="334.9" cy="254.6" r="2.3" fill="#b9bdca" opacity="0.5"/><circle cx="336.6" cy="128.6" r="2.3" fill="#b9bdca" opacity="0.5"/><circle cx="340.9" cy="250.1" r="2.3" fill="#b9bdca" opacity="0.5"/><circle cx="341.2" cy="161.4" r="2.3" fill="#b9bdca" opacity="0.5"/><circle cx="341.7" cy="206.6" r="2.3" fill="#b9bdca" opacity="0.5"/><circle cx="345.6" cy="113.5" r="2.3" fill="#b9bdca" opacity="0.5"/><circle cx="346.9" cy="89.6" r="2.3" fill="#b9bdca" opacity="0.5"/><circle cx="347.9" cy="90.2" r="2.3" fill="#b9bdca" opacity="0.5"/><circle cx="350.3" cy="89.3" r="2.3" fill="#b9bdca" opacity="0.5"/><circle cx="351.0" cy="87.6" r="2.3" fill="#b9bdca" opacity="0.5"/><circle cx="351.8" cy="185.0" r="2.3" fill="#b9bdca" opacity="0.5"/><circle cx="352.7" cy="131.6" r="2.3" fill="#b9bdca" opacity="0.5"/><circle cx="353.4" cy="87.8" r="2.3" fill="#b9bdca" opacity="0.5"/><circle cx="354.5" cy="85.4" r="2.3" fill="#b9bdca" opacity="0.5"/><circle cx="356.3" cy="86.8" r="2.3" fill="#b9bdca" opacity="0.5"/><circle cx="358.1" cy="88.4" r="2.3" fill="#b9bdca" opacity="0.5"/><circle cx="365.4" cy="89.5" r="2.3" fill="#b9bdca" opacity="0.5"/><circle cx="365.4" cy="155.6" r="2.3" fill="#b9bdca" opacity="0.5"/><circle cx="365.5" cy="84.4" r="2.3" fill="#b9bdca" opacity="0.5"/><circle cx="374.2" cy="89.2" r="2.3" fill="#b9bdca" opacity="0.5"/><circle cx="374.4" cy="90.5" r="2.3" fill="#b9bdca" opacity="0.5"/><circle cx="376.9" cy="87.7" r="2.3" fill="#b9bdca" opacity="0.5"/><circle cx="377.7" cy="367.9" r="2.3" fill="#b9bdca" opacity="0.5"/><circle cx="381.3" cy="164.3" r="2.3" fill="#b9bdca" opacity="0.5"/><circle cx="383.0" cy="94.6" r="2.3" fill="#b9bdca" opacity="0.5"/><circle cx="383.7" cy="89.6" r="2.3" fill="#b9bdca" opacity="0.5"/><circle cx="391.3" cy="124.6" r="2.3" fill="#b9bdca" opacity="0.5"/><circle cx="399.4" cy="146.2" r="2.3" fill="#b9bdca" opacity="0.5"/><circle cx="399.6" cy="90.5" r="2.3" fill="#b9bdca" opacity="0.5"/><circle cx="400.3" cy="87.7" r="2.3" fill="#b9bdca" opacity="0.5"/><circle cx="400.8" cy="87.7" r="2.3" fill="#b9bdca" opacity="0.5"/><circle cx="400.8" cy="89.6" r="2.3" fill="#b9bdca" opacity="0.5"/><circle cx="406.5" cy="93.0" r="2.3" fill="#b9bdca" opacity="0.5"/><circle cx="408.6" cy="85.5" r="2.3" fill="#b9bdca" opacity="0.5"/><circle cx="425.5" cy="334.8" r="2.3" fill="#b9bdca" opacity="0.5"/><circle cx="427.5" cy="86.3" r="2.3" fill="#b9bdca" opacity="0.5"/><circle cx="433.2" cy="85.5" r="2.3" fill="#b9bdca" opacity="0.5"/><circle cx="434.2" cy="84.6" r="2.3" fill="#b9bdca" opacity="0.5"/><circle cx="436.6" cy="87.8" r="2.3" fill="#b9bdca" opacity="0.5"/><circle cx="437.6" cy="84.4" r="2.3" fill="#b9bdca" opacity="0.5"/><circle cx="438.1" cy="84.8" r="2.3" fill="#b9bdca" opacity="0.5"/><circle cx="439.8" cy="87.4" r="2.3" fill="#b9bdca" opacity="0.5"/><circle cx="448.9" cy="84.4" r="2.3" fill="#b9bdca" opacity="0.5"/><circle cx="488.9" cy="89.3" r="2.3" fill="#b9bdca" opacity="0.5"/><circle cx="496.2" cy="88.6" r="2.3" fill="#b9bdca" opacity="0.5"/><circle cx="496.2" cy="92.1" r="2.3" fill="#b9bdca" opacity="0.5"/><circle cx="497.7" cy="156.8" r="2.3" fill="#b9bdca" opacity="0.5"/><circle cx="520.8" cy="201.6" r="2.3" fill="#b9bdca" opacity="0.5"/><circle cx="537.6" cy="315.6" r="2.3" fill="#b9bdca" opacity="0.5"/><circle cx="583.7" cy="87.7" r="2.3" fill="#b9bdca" opacity="0.5"/><circle cx="597.7" cy="87.6" r="2.3" fill="#b9bdca" opacity="0.5"/><circle cx="610.1" cy="87.2" r="2.3" fill="#b9bdca" opacity="0.5"/><circle cx="612.9" cy="88.8" r="2.3" fill="#b9bdca" opacity="0.5"/><circle cx="614.0" cy="89.2" r="2.3" fill="#b9bdca" opacity="0.5"/><circle cx="614.6" cy="90.9" r="2.3" fill="#b9bdca" opacity="0.5"/><circle cx="618.2" cy="87.7" r="2.3" fill="#b9bdca" opacity="0.5"/><circle cx="630.6" cy="88.6" r="2.3" fill="#b9bdca" opacity="0.5"/><circle cx="632.2" cy="89.7" r="2.3" fill="#b9bdca" opacity="0.5"/><circle cx="633.3" cy="88.2" r="2.3" fill="#b9bdca" opacity="0.5"/><circle cx="656.7" cy="75.8" r="2.3" fill="#b9bdca" opacity="0.5"/><circle cx="658.5" cy="75.7" r="2.3" fill="#b9bdca" opacity="0.5"/><circle cx="659.9" cy="76.7" r="2.3" fill="#b9bdca" opacity="0.5"/><circle cx="660.0" cy="75.8" r="2.3" fill="#b9bdca" opacity="0.5"/><circle cx="660.7" cy="75.3" r="2.3" fill="#b9bdca" opacity="0.5"/><circle cx="661.1" cy="74.7" r="2.3" fill="#b9bdca" opacity="0.5"/><circle cx="661.3" cy="83.4" r="2.3" fill="#b9bdca" opacity="0.5"/><circle cx="661.8" cy="76.2" r="2.3" fill="#b9bdca" opacity="0.5"/><circle cx="662.4" cy="78.1" r="2.3" fill="#b9bdca" opacity="0.5"/><circle cx="663.0" cy="74.7" r="2.3" fill="#b9bdca" opacity="0.5"/><circle cx="666.8" cy="89.3" r="2.3" fill="#b9bdca" opacity="0.5"/><circle cx="674.6" cy="74.4" r="2.3" fill="#b9bdca" opacity="0.5"/><circle cx="687.0" cy="74.4" r="2.3" fill="#b9bdca" opacity="0.5"/><circle cx="689.1" cy="335.1" r="2.3" fill="#b9bdca" opacity="0.5"/><circle cx="689.1" cy="81.7" r="2.3" fill="#b9bdca" opacity="0.5"/><circle cx="690.6" cy="74.6" r="2.3" fill="#b9bdca" opacity="0.5"/><circle cx="690.6" cy="82.1" r="2.3" fill="#b9bdca" opacity="0.5"/><circle cx="690.6" cy="73.9" r="2.3" fill="#b9bdca" opacity="0.5"/><circle cx="694.2" cy="76.2" r="2.3" fill="#b9bdca" opacity="0.5"/><circle cx="694.7" cy="82.1" r="2.3" fill="#b9bdca" opacity="0.5"/><circle cx="695.2" cy="74.2" r="2.3" fill="#b9bdca" opacity="0.5"/><circle cx="695.3" cy="75.0" r="2.3" fill="#b9bdca" opacity="0.5"/><circle cx="696.0" cy="73.6" r="2.3" fill="#b9bdca" opacity="0.5"/><circle cx="696.1" cy="83.3" r="2.3" fill="#b9bdca" opacity="0.5"/><circle cx="696.1" cy="83.8" r="2.3" fill="#b9bdca" opacity="0.5"/><circle cx="696.1" cy="78.1" r="2.3" fill="#b9bdca" opacity="0.5"/><circle cx="696.1" cy="81.5" r="2.3" fill="#b9bdca" opacity="0.5"/><circle cx="696.1" cy="83.0" r="2.3" fill="#b9bdca" opacity="0.5"/><circle cx="696.1" cy="83.7" r="2.3" fill="#b9bdca" opacity="0.5"/><circle cx="701.0" cy="82.7" r="2.3" fill="#b9bdca" opacity="0.5"/><circle cx="702.1" cy="77.8" r="2.3" fill="#b9bdca" opacity="0.5"/><circle cx="704.6" cy="69.8" r="2.3" fill="#b9bdca" opacity="0.5"/><circle cx="705.5" cy="75.9" r="2.3" fill="#b9bdca" opacity="0.5"/><circle cx="705.8" cy="74.3" r="2.3" fill="#b9bdca" opacity="0.5"/><circle cx="705.8" cy="77.4" r="2.3" fill="#b9bdca" opacity="0.5"/><circle cx="705.8" cy="80.6" r="2.3" fill="#b9bdca" opacity="0.5"/><circle cx="705.8" cy="81.8" r="2.3" fill="#b9bdca" opacity="0.5"/><circle cx="707.6" cy="76.9" r="2.3" fill="#b9bdca" opacity="0.5"/><circle cx="707.6" cy="82.8" r="2.3" fill="#b9bdca" opacity="0.5"/><circle cx="707.6" cy="83.0" r="2.3" fill="#b9bdca" opacity="0.5"/><circle cx="707.6" cy="83.1" r="2.3" fill="#b9bdca" opacity="0.5"/><circle cx="708.4" cy="69.1" r="2.3" fill="#b9bdca" opacity="0.5"/><circle cx="710.5" cy="75.5" r="2.3" fill="#b9bdca" opacity="0.5"/><circle cx="711.6" cy="74.3" r="2.3" fill="#b9bdca" opacity="0.5"/><circle cx="743.0" cy="74.0" r="2.3" fill="#b9bdca" opacity="0.5"/><circle cx="780.3" cy="73.4" r="2.3" fill="#b9bdca" opacity="0.5"/><circle cx="780.6" cy="75.9" r="2.3" fill="#b9bdca" opacity="0.5"/><circle cx="780.6" cy="76.3" r="2.3" fill="#b9bdca" opacity="0.5"/><circle cx="780.9" cy="76.0" r="2.3" fill="#b9bdca" opacity="0.5"/><circle cx="780.9" cy="76.8" r="2.3" fill="#b9bdca" opacity="0.5"/><circle cx="780.9" cy="81.2" r="2.3" fill="#b9bdca" opacity="0.5"/><circle cx="780.9" cy="83.4" r="2.3" fill="#b9bdca" opacity="0.5"/><circle cx="807.2" cy="76.6" r="2.3" fill="#b9bdca" opacity="0.5"/><circle cx="809.0" cy="76.7" r="2.3" fill="#b9bdca" opacity="0.5"/><circle cx="809.0" cy="82.8" r="2.3" fill="#b9bdca" opacity="0.5"/><circle cx="809.0" cy="82.8" r="2.3" fill="#b9bdca" opacity="0.5"/><circle cx="809.0" cy="83.3" r="2.3" fill="#b9bdca" opacity="0.5"/><circle cx="814.5" cy="233.4" r="2.3" fill="#b9bdca" opacity="0.5"/><circle cx="816.2" cy="228.9" r="2.3" fill="#b9bdca" opacity="0.5"/><circle cx="817.8" cy="198.3" r="2.3" fill="#b9bdca" opacity="0.5"/><circle cx="852.1" cy="73.4" r="2.3" fill="#b9bdca" opacity="0.5"/><circle cx="861.7" cy="192.4" r="2.3" fill="#b9bdca" opacity="0.5"/><circle cx="865.1" cy="75.3" r="2.3" fill="#b9bdca" opacity="0.5"/><circle cx="865.9" cy="74.0" r="2.3" fill="#b9bdca" opacity="0.5"/><circle cx="868.1" cy="194.4" r="2.3" fill="#b9bdca" opacity="0.5"/><circle cx="871.4" cy="168.6" r="2.3" fill="#b9bdca" opacity="0.5"/><circle cx="873.5" cy="77.1" r="2.3" fill="#b9bdca" opacity="0.5"/><circle cx="873.5" cy="99.5" r="2.3" fill="#b9bdca" opacity="0.5"/><circle cx="900.0" cy="71.4" r="2.3" fill="#b9bdca" opacity="0.5"/><circle cx="900.0" cy="73.5" r="2.3" fill="#b9bdca" opacity="0.5"/><circle cx="909.4" cy="72.4" r="2.3" fill="#b9bdca" opacity="0.5"/><circle cx="948.0" cy="83.0" r="2.3" fill="#b9bdca" opacity="0.5"/><circle cx="948.5" cy="72.1" r="2.3" fill="#b9bdca" opacity="0.5"/><circle cx="949.1" cy="71.6" r="2.3" fill="#b9bdca" opacity="0.5"/><circle cx="950.3" cy="75.5" r="2.3" fill="#b9bdca" opacity="0.5"/><circle cx="951.0" cy="73.7" r="2.3" fill="#b9bdca" opacity="0.5"/><circle cx="952.6" cy="72.9" r="2.3" fill="#b9bdca" opacity="0.5"/><circle cx="953.3" cy="73.4" r="2.3" fill="#b9bdca" opacity="0.5"/><circle cx="1028.8" cy="85.2" r="2.3" fill="#b9bdca" opacity="0.5"/><circle cx="1028.8" cy="256.6" r="2.3" fill="#b9bdca" opacity="0.5"/><circle cx="1028.8" cy="335.3" r="2.3" fill="#b9bdca" opacity="0.5"/><circle cx="1029.3" cy="86.8" r="2.3" fill="#b9bdca" opacity="0.5"/><circle cx="1030.0" cy="71.5" r="2.3" fill="#b9bdca" opacity="0.5"/><circle cx="1032.0" cy="71.0" r="2.3" fill="#b9bdca" opacity="0.5"/><path d="M218.1 152.3L221.7 155.9L218.1 159.5L214.5 155.9Z" fill="#2b3a7a" opacity="0.8" stroke="none" stroke-width="0"/><path d="M228.4 138.2L232.0 141.8L228.4 145.4L224.8 141.8Z" fill="#2b3a7a" opacity="0.8" stroke="none" stroke-width="0"/><path d="M229.7 128.1L233.3 131.7L229.7 135.3L226.1 131.7Z" fill="#2b3a7a" opacity="0.8" stroke="none" stroke-width="0"/><path d="M229.9 130.5L233.5 134.1L229.9 137.7L226.3 134.1Z" fill="#2b3a7a" opacity="0.8" stroke="none" stroke-width="0"/><path d="M231.0 127.3L234.6 130.9L231.0 134.5L227.4 130.9Z" fill="#2b3a7a" opacity="0.8" stroke="none" stroke-width="0"/><path d="M231.5 125.9L235.1 129.5L231.5 133.1L227.9 129.5Z" fill="#2b3a7a" opacity="0.8" stroke="none" stroke-width="0"/><path d="M231.6 127.3L235.2 130.9L231.6 134.5L228.0 130.9Z" fill="#2b3a7a" opacity="0.8" stroke="none" stroke-width="0"/><path d="M263.5 125.9L267.1 129.5L263.5 133.1L259.9 129.5Z" fill="#2b3a7a" opacity="0.8" stroke="none" stroke-width="0"/><path d="M268.3 125.3L271.9 128.9L268.3 132.5L264.7 128.9Z" fill="#2b3a7a" opacity="0.8" stroke="none" stroke-width="0"/><path d="M272.8 124.8L276.4 128.4L272.8 132.0L269.2 128.4Z" fill="#2b3a7a" opacity="0.8" stroke="none" stroke-width="0"/><path d="M276.0 124.6L279.6 128.2L276.0 131.8L272.4 128.2Z" fill="#2b3a7a" opacity="0.8" stroke="none" stroke-width="0"/><path d="M290.4 124.4L294.0 128.0L290.4 131.6L286.8 128.0Z" fill="#2b3a7a" opacity="0.8" stroke="none" stroke-width="0"/><path d="M305.5 109.2L309.1 112.8L305.5 116.4L301.9 112.8Z" fill="#2b3a7a" opacity="0.8" stroke="none" stroke-width="0"/><path d="M312.6 108.0L316.2 111.6L312.6 115.2L309.0 111.6Z" fill="#2b3a7a" opacity="0.8" stroke="none" stroke-width="0"/><path d="M314.7 101.9L318.3 105.5L314.7 109.1L311.1 105.5Z" fill="#2b3a7a" opacity="0.8" stroke="none" stroke-width="0"/><path d="M315.1 104.9L318.7 108.5L315.1 112.1L311.5 108.5Z" fill="#2b3a7a" opacity="0.8" stroke="none" stroke-width="0"/><path d="M316.0 101.5L319.6 105.1L316.0 108.7L312.4 105.1Z" fill="#2b3a7a" opacity="0.8" stroke="none" stroke-width="0"/><path d="M316.9 100.2L320.5 103.8L316.9 107.4L313.3 103.8Z" fill="#2b3a7a" opacity="0.8" stroke="none" stroke-width="0"/><path d="M327.3 99.9L330.9 103.5L327.3 107.1L323.7 103.5Z" fill="#2b3a7a" opacity="0.8" stroke="none" stroke-width="0"/><path d="M346.9 86.0L350.5 89.6L346.9 93.2L343.3 89.6Z" fill="#2b3a7a" opacity="0.8" stroke="none" stroke-width="0"/><path d="M350.3 85.7L353.9 89.3L350.3 92.9L346.7 89.3Z" fill="#2b3a7a" opacity="0.8" stroke="none" stroke-width="0"/><path d="M351.0 84.0L354.6 87.6L351.0 91.2L347.4 87.6Z" fill="#2b3a7a" opacity="0.8" stroke="none" stroke-width="0"/><path d="M354.5 81.8L358.1 85.4L354.5 89.0L350.9 85.4Z" fill="#2b3a7a" opacity="0.8" stroke="none" stroke-width="0"/><path d="M365.5 80.8L369.1 84.4L365.5 88.0L361.9 84.4Z" fill="#2b3a7a" opacity="0.8" stroke="none" stroke-width="0"/><path d="M448.9 80.8L452.5 84.4L448.9 88.0L445.3 84.4Z" fill="#2b3a7a" opacity="0.8" stroke="none" stroke-width="0"/><path d="M656.7 72.2L660.3 75.8L656.7 79.4L653.1 75.8Z" fill="#2b3a7a" opacity="0.8" stroke="none" stroke-width="0"/><path d="M658.5 72.1L662.1 75.7L658.5 79.3L654.9 75.7Z" fill="#2b3a7a" opacity="0.8" stroke="none" stroke-width="0"/><path d="M660.7 71.7L664.3 75.3L660.7 78.9L657.1 75.3Z" fill="#2b3a7a" opacity="0.8" stroke="none" stroke-width="0"/><path d="M661.1 71.1L664.7 74.7L661.1 78.3L657.5 74.7Z" fill="#2b3a7a" opacity="0.8" stroke="none" stroke-width="0"/><path d="M663.0 71.1L666.6 74.7L663.0 78.3L659.4 74.7Z" fill="#2b3a7a" opacity="0.8" stroke="none" stroke-width="0"/><path d="M674.6 70.8L678.2 74.4L674.6 78.0L671.0 74.4Z" fill="#2b3a7a" opacity="0.8" stroke="none" stroke-width="0"/><path d="M690.6 70.3L694.2 73.9L690.6 77.5L687.0 73.9Z" fill="#2b3a7a" opacity="0.8" stroke="none" stroke-width="0"/><path d="M696.0 70.0L699.6 73.6L696.0 77.2L692.4 73.6Z" fill="#2b3a7a" opacity="0.8" stroke="none" stroke-width="0"/><path d="M780.3 69.8L783.9 73.4L780.3 77.0L776.7 73.4Z" fill="#2b3a7a" opacity="0.8" stroke="none" stroke-width="0"/><path d="M852.1 69.8L855.7 73.4L852.1 77.0L848.5 73.4Z" fill="#2b3a7a" opacity="0.8" stroke="none" stroke-width="0"/><path d="M900.0 67.8L903.6 71.4L900.0 75.0L896.4 71.4Z" fill="#2b3a7a" opacity="0.8" stroke="none" stroke-width="0"/><path d="M60.0 335.3L62.6 335.3L62.6 335.1L66.2 335.1L66.2 320.7L73.3 320.7L73.3 319.9L76.0 319.9L76.0 315.3L76.7 315.3L76.7 314.9L77.9 314.9L77.9 314.9L120.5 314.9L120.5 238.7L121.2 238.7L121.2 229.0L121.9 229.0L121.9 222.3L122.8 222.3L122.8 220.6L122.9 220.6L122.9 220.5L123.4 220.5L123.4 214.2L125.0 214.2L125.0 214.1L125.5 214.1L125.5 213.7L125.8 213.7L125.8 213.5L126.3 213.5L126.3 212.7L128.4 212.7L128.4 212.1L128.9 212.1L128.9 212.0L134.6 212.0L134.6 206.7L141.0 206.7L141.0 204.9L143.4 204.9L143.4 204.6L144.9 204.6L144.9 201.9L147.8 201.9L147.8 201.8L149.2 201.8L149.2 201.0L150.1 201.0L150.1 200.0L154.2 200.0L154.2 200.0L155.9 200.0L155.9 199.7L169.8 199.7L169.8 195.5L180.3 195.5L180.3 187.4L180.6 187.4L180.6 186.2L181.3 186.2L181.3 184.5L199.5 184.5L199.5 183.9L208.5 183.9L208.5 169.3L211.5 169.3L211.5 168.8L211.7 168.8L211.7 167.7L213.4 167.7L213.4 165.0L214.1 165.0L214.1 163.7L214.3 163.7L214.3 163.6L218.1 163.6L218.1 155.9L222.9 155.9L222.9 155.8L224.6 155.8L224.6 141.9L228.4 141.9L228.4 141.8L229.7 141.8L229.7 131.7L231.0 131.7L231.0 130.9L231.5 130.9L231.5 129.5L263.5 129.5L263.5 129.5L268.3 129.5L268.3 128.9L272.8 128.9L272.8 128.4L276.0 128.4L276.0 128.2L290.4 128.2L290.4 128.0L305.5 128.0L305.5 112.8L308.8 112.8L308.8 110.2L314.7 110.2L314.7 105.5L316.0 105.5L316.0 105.1L316.9 105.1L316.9 103.8L327.3 103.8L327.3 103.5L346.9 103.5L346.9 89.6L350.3 89.6L350.3 89.3L351.0 89.3L351.0 87.6L354.5 87.6L354.5 85.4L365.5 85.4L365.5 84.4L448.9 84.4L448.9 84.4L656.7 84.4L656.7 75.8L658.5 75.8L658.5 75.7L660.7 75.7L660.7 75.3L661.1 75.3L661.1 74.7L663.0 74.7L663.0 74.7L674.6 74.7L674.6 74.4L690.6 74.4L690.6 73.9L696.0 73.9L696.0 73.6L704.6 73.6L704.6 69.8L708.4 69.8L708.4 69.1L1032.0 69.1" fill="none" stroke="#6675b0" stroke-width="1.6" stroke-dasharray="5 3" opacity="0.75"/><path d="M218.1 155.9L228.4 155.9L228.4 141.8L229.7 141.8L229.7 131.7L231.0 131.7L231.0 130.9L231.5 130.9L231.5 129.5L263.5 129.5L263.5 129.5L268.3 129.5L268.3 128.9L272.8 128.9L272.8 128.4L276.0 128.4L276.0 128.2L290.4 128.2L290.4 128.0L305.5 128.0L305.5 112.8L312.6 112.8L312.6 111.6L314.7 111.6L314.7 105.5L316.0 105.5L316.0 105.1L316.9 105.1L316.9 103.8L327.3 103.8L327.3 103.5L346.9 103.5L346.9 89.6L350.3 89.6L350.3 89.3L351.0 89.3L351.0 87.6L354.5 87.6L354.5 85.4L365.5 85.4L365.5 84.4L448.9 84.4L448.9 84.4L656.7 84.4L656.7 75.8L658.5 75.8L658.5 75.7L660.7 75.7L660.7 75.3L661.1 75.3L661.1 74.7L663.0 74.7L663.0 74.7L674.6 74.7L674.6 74.4L690.6 74.4L690.6 73.9L696.0 73.9L696.0 73.6L704.7 73.6L704.7 73.5L780.3 73.5L780.3 73.4L852.1 73.4L852.1 73.4L900.0 73.4L900.0 71.4L1032.0 71.4" fill="none" stroke="#2b3a7a" stroke-width="2.6"/><path d="M589.3 246.9L595.8 253.4L589.3 259.9L582.8 253.4Z" fill="#c5961a" opacity="1.0" stroke="#ffffff" stroke-width="1.4"/><path d="M692.7 206.5L699.2 213.0L692.7 219.5L686.2 213.0Z" fill="#c5961a" opacity="1.0" stroke="#ffffff" stroke-width="1.4"/><path d="M704.7 67.0L711.2 73.5L704.7 80.0L698.2 73.5Z" fill="#c5961a" opacity="1.0" stroke="#ffffff" stroke-width="1.4"/><path d="M793.3 240.8L799.8 247.3L793.3 253.8L786.8 247.3Z" fill="#c5961a" opacity="1.0" stroke="#ffffff" stroke-width="1.4"/><path d="M793.9 238.0L800.4 244.5L793.9 251.0L787.4 244.5Z" fill="#c5961a" opacity="1.0" stroke="#ffffff" stroke-width="1.4"/><text x="1042" y="67.1" font-size="11.5" fill="#6675b0">– – raw best 513.8</text><text x="1042" y="81.1" font-size="10" fill="#8a8fa3">unverified (pending)</text><path d="M900.0 64.9L906.5 71.4L900.0 77.9L893.5 71.4Z" fill="#2b3a7a" opacity="1.0" stroke="#ffffff" stroke-width="1.4"/><text x="1042" y="99.4" font-size="12.5" fill="#2b3a7a" font-weight="bold">◆ verified 510.1</text><text x="1042" y="115.4" font-size="10.5" fill="#3a3f55">top verified</text><text x="60" y="24" font-size="13" font-weight="bold" fill="#3a3f55" letter-spacing="1.2">SCORE EVOLUTION — gemma-challenge (tok/s)</text><circle cx="452" cy="20" r="3" fill="#b9bdca"/><text x="460" y="24" font-size="10.5" fill="#8a8fa3">all results</text><path d="M544.0 16.4L547.6 20.0L544.0 23.6L540.4 20.0Z" fill="#2b3a7a" opacity="1.0" stroke="none" stroke-width="0"/><text x="552" y="24" font-size="10.5" fill="#8a8fa3">verified</text><path d="M620.0 15.5L624.5 20.0L620.0 24.5L615.5 20.0Z" fill="#c5961a" opacity="1.0" stroke="#fff" stroke-width="1"/><text x="629" y="24" font-size="10.5" fill="#8a8fa3">mikasa-inbound (us)</text></svg>