<svg viewBox="0 0 1200 440" xmlns="http://www.w3.org/2000/svg" font-family="ui-sans-serif,system-ui,-apple-system,sans-serif"><rect x="0" y="0" width="1200" height="440" fill="#ffffff"/><rect x="60" y="46" width="972" height="350" fill="#f3f4fb"/><line x1="60" y1="396.0" x2="1032" y2="396.0" stroke="#e3e5ef" stroke-width="1"/><text x="52" y="400.0" text-anchor="end" font-size="11" fill="#8a8fa3">0</text><line x1="60" y1="332.4" x2="1032" y2="332.4" stroke="#e3e5ef" stroke-width="1"/><text x="52" y="336.4" text-anchor="end" font-size="11" fill="#8a8fa3">100</text><line x1="60" y1="268.7" x2="1032" y2="268.7" stroke="#e3e5ef" stroke-width="1"/><text x="52" y="272.7" text-anchor="end" font-size="11" fill="#8a8fa3">200</text><line x1="60" y1="205.1" x2="1032" y2="205.1" stroke="#e3e5ef" stroke-width="1"/><text x="52" y="209.1" text-anchor="end" font-size="11" fill="#8a8fa3">300</text><line x1="60" y1="141.5" x2="1032" y2="141.5" stroke="#e3e5ef" stroke-width="1"/><text x="52" y="145.5" text-anchor="end" font-size="11" fill="#8a8fa3">400</text><line x1="60" y1="77.8" x2="1032" y2="77.8" stroke="#e3e5ef" stroke-width="1"/><text x="52" y="81.8" text-anchor="end" font-size="11" fill="#8a8fa3">500</text><line x1="91.7" y1="46" x2="91.7" y2="396" stroke="#e3e5ef" stroke-width="1"/><text x="91.7" y="414.0" text-anchor="middle" font-size="11" fill="#8a8fa3">Jun 10</text><line x1="137.0" y1="46" x2="137.0" y2="396" stroke="#e3e5ef" stroke-width="1"/><text x="137.0" y="414.0" text-anchor="middle" font-size="11" fill="#8a8fa3">Jun 12</text><line x1="182.2" y1="46" x2="182.2" y2="396" stroke="#e3e5ef" stroke-width="1"/><text x="182.2" y="414.0" text-anchor="middle" font-size="11" fill="#8a8fa3">Jun 14</text><line x1="227.4" y1="46" x2="227.4" y2="396" stroke="#e3e5ef" stroke-width="1"/><text x="227.4" y="414.0" text-anchor="middle" font-size="11" fill="#8a8fa3">Jun 16</text><line x1="272.7" y1="46" x2="272.7" y2="396" stroke="#e3e5ef" stroke-width="1"/><text x="272.7" y="414.0" text-anchor="middle" font-size="11" fill="#8a8fa3">Jun 18</text><line x1="317.9" y1="46" x2="317.9" y2="396" stroke="#e3e5ef" stroke-width="1"/><text x="317.9" y="414.0" text-anchor="middle" font-size="11" fill="#8a8fa3">Jun 20</text><line x1="363.2" y1="46" x2="363.2" y2="396" stroke="#e3e5ef" stroke-width="1"/><text x="363.2" y="414.0" text-anchor="middle" font-size="11" fill="#8a8fa3">Jun 22</text><line x1="408.4" y1="46" x2="408.4" y2="396" stroke="#e3e5ef" stroke-width="1"/><text x="408.4" y="414.0" text-anchor="middle" font-size="11" fill="#8a8fa3">Jun 24</text><line x1="453.6" y1="46" x2="453.6" y2="396" stroke="#e3e5ef" stroke-width="1"/><text x="453.6" y="414.0" text-anchor="middle" font-size="11" fill="#8a8fa3">Jun 26</text><line x1="498.9" y1="46" x2="498.9" y2="396" stroke="#e3e5ef" stroke-width="1"/><text x="498.9" y="414.0" text-anchor="middle" font-size="11" fill="#8a8fa3">Jun 28</text><line x1="544.1" y1="46" x2="544.1" y2="396" stroke="#e3e5ef" stroke-width="1"/><text x="544.1" y="414.0" text-anchor="middle" font-size="11" fill="#8a8fa3">Jun 30</text><line x1="589.4" y1="46" x2="589.4" y2="396" stroke="#e3e5ef" stroke-width="1"/><text x="589.4" y="414.0" text-anchor="middle" font-size="11" fill="#8a8fa3">Jul 2</text><line x1="634.6" y1="46" x2="634.6" y2="396" stroke="#e3e5ef" stroke-width="1"/><text x="634.6" y="414.0" text-anchor="middle" font-size="11" fill="#8a8fa3">Jul 4</text><line x1="679.8" y1="46" x2="679.8" y2="396" stroke="#e3e5ef" stroke-width="1"/><text x="679.8" y="414.0" text-anchor="middle" font-size="11" fill="#8a8fa3">Jul 6</text><line x1="725.1" y1="46" x2="725.1" y2="396" stroke="#e3e5ef" stroke-width="1"/><text x="725.1" y="414.0" text-anchor="middle" font-size="11" fill="#8a8fa3">Jul 8</text><line x1="770.3" y1="46" x2="770.3" y2="396" stroke="#e3e5ef" stroke-width="1"/><text x="770.3" y="414.0" text-anchor="middle" font-size="11" fill="#8a8fa3">Jul 10</text><line x1="815.6" y1="46" x2="815.6" y2="396" stroke="#e3e5ef" stroke-width="1"/><text x="815.6" y="414.0" text-anchor="middle" font-size="11" fill="#8a8fa3">Jul 12</text><line x1="860.8" y1="46" x2="860.8" y2="396" stroke="#e3e5ef" stroke-width="1"/><text x="860.8" y="414.0" text-anchor="middle" font-size="11" fill="#8a8fa3">Jul 14</text><line x1="906.0" y1="46" x2="906.0" y2="396" stroke="#e3e5ef" stroke-width="1"/><text x="906.0" y="414.0" text-anchor="middle" font-size="11" fill="#8a8fa3">Jul 16</text><line x1="951.3" y1="46" x2="951.3" y2="396" stroke="#e3e5ef" stroke-width="1"/><text x="951.3" y="414.0" text-anchor="middle" font-size="11" fill="#8a8fa3">Jul 18</text><line x1="996.5" y1="46" x2="996.5" y2="396" stroke="#e3e5ef" stroke-width="1"/><text x="996.5" y="414.0" text-anchor="middle" font-size="11" fill="#8a8fa3">Jul 20</text><circle cx="60.0" cy="335.3" r="2.3" fill="#b9bdca" opacity="0.5"/><circle cx="61.1" cy="335.1" r="2.3" fill="#b9bdca" opacity="0.5"/><circle cx="62.2" cy="368.0" r="2.3" fill="#b9bdca" opacity="0.5"/><circle cx="62.6" cy="320.7" r="2.3" fill="#b9bdca" opacity="0.5"/><circle cx="65.6" cy="319.9" r="2.3" fill="#b9bdca" opacity="0.5"/><circle cx="65.8" cy="320.6" r="2.3" fill="#b9bdca" opacity="0.5"/><circle cx="66.8" cy="315.3" r="2.3" fill="#b9bdca" opacity="0.5"/><circle cx="67.0" cy="319.7" r="2.3" fill="#b9bdca" opacity="0.5"/><circle cx="67.1" cy="314.9" r="2.3" fill="#b9bdca" opacity="0.5"/><circle cx="67.4" cy="315.5" r="2.3" fill="#b9bdca" opacity="0.5"/><circle cx="67.5" cy="314.9" r="2.3" fill="#b9bdca" opacity="0.5"/><circle cx="67.8" cy="315.4" r="2.3" fill="#b9bdca" opacity="0.5"/><circle cx="68.4" cy="315.0" r="2.3" fill="#b9bdca" opacity="0.5"/><circle cx="85.5" cy="238.7" r="2.3" fill="#b9bdca" opacity="0.5"/><circle cx="85.7" cy="315.0" r="2.3" fill="#b9bdca" opacity="0.5"/><circle cx="85.8" cy="229.0" r="2.3" fill="#b9bdca" opacity="0.5"/><circle cx="86.1" cy="222.3" r="2.3" fill="#b9bdca" opacity="0.5"/><circle cx="86.4" cy="228.0" r="2.3" fill="#b9bdca" opacity="0.5"/><circle cx="86.4" cy="223.3" r="2.3" fill="#b9bdca" opacity="0.5"/><circle cx="86.5" cy="220.6" r="2.3" fill="#b9bdca" opacity="0.5"/><circle cx="86.5" cy="220.5" r="2.3" fill="#b9bdca" opacity="0.5"/><circle cx="86.6" cy="223.2" r="2.3" fill="#b9bdca" opacity="0.5"/><circle cx="86.8" cy="214.2" r="2.3" fill="#b9bdca" opacity="0.5"/><circle cx="86.8" cy="222.1" r="2.3" fill="#b9bdca" opacity="0.5"/><circle cx="86.9" cy="220.7" r="2.3" fill="#b9bdca" opacity="0.5"/><circle cx="87.1" cy="218.5" r="2.3" fill="#b9bdca" opacity="0.5"/><circle cx="87.2" cy="215.2" r="2.3" fill="#b9bdca" opacity="0.5"/><circle cx="87.3" cy="214.3" r="2.3" fill="#b9bdca" opacity="0.5"/><circle cx="87.3" cy="219.2" r="2.3" fill="#b9bdca" opacity="0.5"/><circle cx="87.4" cy="214.1" r="2.3" fill="#b9bdca" opacity="0.5"/><circle cx="87.5" cy="215.2" r="2.3" fill="#b9bdca" opacity="0.5"/><circle cx="87.6" cy="213.7" r="2.3" fill="#b9bdca" opacity="0.5"/><circle cx="87.8" cy="213.5" r="2.3" fill="#b9bdca" opacity="0.5"/><circle cx="87.9" cy="214.8" r="2.3" fill="#b9bdca" opacity="0.5"/><circle cx="87.9" cy="217.7" r="2.3" fill="#b9bdca" opacity="0.5"/><circle cx="88.0" cy="212.7" r="2.3" fill="#b9bdca" opacity="0.5"/><circle cx="88.2" cy="213.3" r="2.3" fill="#b9bdca" opacity="0.5"/><circle cx="88.6" cy="212.7" r="2.3" fill="#b9bdca" opacity="0.5"/><circle cx="88.6" cy="213.6" r="2.3" fill="#b9bdca" opacity="0.5"/><circle cx="88.7" cy="213.0" r="2.3" fill="#b9bdca" opacity="0.5"/><circle cx="88.9" cy="212.1" r="2.3" fill="#b9bdca" opacity="0.5"/><circle cx="88.9" cy="213.3" r="2.3" fill="#b9bdca" opacity="0.5"/><circle cx="89.1" cy="212.0" r="2.3" fill="#b9bdca" opacity="0.5"/><circle cx="89.4" cy="212.1" r="2.3" fill="#b9bdca" opacity="0.5"/><circle cx="89.4" cy="212.8" r="2.3" fill="#b9bdca" opacity="0.5"/><circle cx="91.5" cy="206.7" r="2.3" fill="#b9bdca" opacity="0.5"/><circle cx="91.8" cy="206.8" r="2.3" fill="#b9bdca" opacity="0.5"/><circle cx="91.8" cy="212.5" r="2.3" fill="#b9bdca" opacity="0.5"/><circle cx="92.0" cy="207.2" r="2.3" fill="#b9bdca" opacity="0.5"/><circle cx="92.6" cy="207.0" r="2.3" fill="#b9bdca" opacity="0.5"/><circle cx="94.2" cy="204.9" r="2.3" fill="#b9bdca" opacity="0.5"/><circle cx="95.2" cy="204.6" r="2.3" fill="#b9bdca" opacity="0.5"/><circle cx="95.3" cy="212.3" r="2.3" fill="#b9bdca" opacity="0.5"/><circle cx="95.5" cy="204.6" r="2.3" fill="#b9bdca" opacity="0.5"/><circle cx="95.5" cy="204.6" r="2.3" fill="#b9bdca" opacity="0.5"/><circle cx="95.5" cy="204.9" r="2.3" fill="#b9bdca" opacity="0.5"/><circle cx="95.5" cy="204.9" r="2.3" fill="#b9bdca" opacity="0.5"/><circle cx="95.8" cy="201.9" r="2.3" fill="#b9bdca" opacity="0.5"/><circle cx="96.5" cy="206.5" r="2.3" fill="#b9bdca" opacity="0.5"/><circle cx="96.7" cy="205.8" r="2.3" fill="#b9bdca" opacity="0.5"/><circle cx="96.7" cy="335.1" r="2.3" fill="#b9bdca" opacity="0.5"/><circle cx="97.1" cy="201.8" r="2.3" fill="#b9bdca" opacity="0.5"/><circle cx="97.1" cy="202.2" r="2.3" fill="#b9bdca" opacity="0.5"/><circle cx="97.7" cy="201.0" r="2.3" fill="#b9bdca" opacity="0.5"/><circle cx="97.9" cy="203.1" r="2.3" fill="#b9bdca" opacity="0.5"/><circle cx="98.0" cy="200.0" r="2.3" fill="#b9bdca" opacity="0.5"/><circle cx="98.0" cy="204.6" r="2.3" fill="#b9bdca" opacity="0.5"/><circle cx="98.4" cy="202.3" r="2.3" fill="#b9bdca" opacity="0.5"/><circle cx="99.2" cy="200.4" r="2.3" fill="#b9bdca" opacity="0.5"/><circle cx="99.4" cy="200.7" r="2.3" fill="#b9bdca" opacity="0.5"/><circle cx="99.8" cy="200.0" r="2.3" fill="#b9bdca" opacity="0.5"/><circle cx="100.5" cy="199.7" r="2.3" fill="#b9bdca" opacity="0.5"/><circle cx="104.8" cy="200.6" r="2.3" fill="#b9bdca" opacity="0.5"/><circle cx="105.2" cy="201.8" r="2.3" fill="#b9bdca" opacity="0.5"/><circle cx="105.7" cy="208.4" r="2.3" fill="#b9bdca" opacity="0.5"/><circle cx="105.8" cy="200.8" r="2.3" fill="#b9bdca" opacity="0.5"/><circle cx="106.2" cy="200.7" r="2.3" fill="#b9bdca" opacity="0.5"/><circle cx="106.2" cy="201.9" r="2.3" fill="#b9bdca" opacity="0.5"/><circle cx="106.4" cy="195.5" r="2.3" fill="#b9bdca" opacity="0.5"/><circle cx="106.7" cy="196.9" r="2.3" fill="#b9bdca" opacity="0.5"/><circle cx="107.0" cy="197.9" r="2.3" fill="#b9bdca" opacity="0.5"/><circle cx="107.3" cy="196.1" r="2.3" fill="#b9bdca" opacity="0.5"/><circle cx="108.7" cy="197.3" r="2.3" fill="#b9bdca" opacity="0.5"/><circle cx="109.0" cy="195.9" r="2.3" fill="#b9bdca" opacity="0.5"/><circle cx="109.2" cy="201.0" r="2.3" fill="#b9bdca" opacity="0.5"/><circle cx="109.3" cy="197.5" r="2.3" fill="#b9bdca" opacity="0.5"/><circle cx="109.6" cy="196.9" r="2.3" fill="#b9bdca" opacity="0.5"/><circle cx="109.6" cy="197.1" r="2.3" fill="#b9bdca" opacity="0.5"/><circle cx="109.6" cy="197.0" r="2.3" fill="#b9bdca" opacity="0.5"/><circle cx="109.9" cy="196.0" r="2.3" fill="#b9bdca" opacity="0.5"/><circle cx="109.9" cy="196.0" r="2.3" fill="#b9bdca" opacity="0.5"/><circle cx="109.9" cy="197.9" r="2.3" fill="#b9bdca" opacity="0.5"/><circle cx="110.2" cy="197.8" r="2.3" fill="#b9bdca" opacity="0.5"/><circle cx="110.3" cy="196.2" r="2.3" fill="#b9bdca" opacity="0.5"/><circle cx="110.4" cy="197.5" r="2.3" fill="#b9bdca" opacity="0.5"/><circle cx="110.4" cy="196.9" r="2.3" fill="#b9bdca" opacity="0.5"/><circle cx="110.5" cy="195.5" r="2.3" fill="#b9bdca" opacity="0.5"/><circle cx="110.7" cy="198.1" r="2.3" fill="#b9bdca" opacity="0.5"/><circle cx="110.8" cy="187.4" r="2.3" fill="#b9bdca" opacity="0.5"/><circle cx="110.9" cy="186.2" r="2.3" fill="#b9bdca" opacity="0.5"/><circle cx="110.9" cy="196.3" r="2.3" fill="#b9bdca" opacity="0.5"/><circle cx="110.9" cy="197.2" r="2.3" fill="#b9bdca" opacity="0.5"/><circle cx="110.9" cy="197.8" r="2.3" fill="#b9bdca" opacity="0.5"/><circle cx="110.9" cy="368.0" r="2.3" fill="#b9bdca" opacity="0.5"/><circle cx="111.2" cy="184.5" r="2.3" fill="#b9bdca" opacity="0.5"/><circle cx="112.3" cy="184.6" r="2.3" fill="#b9bdca" opacity="0.5"/><circle cx="112.8" cy="185.6" r="2.3" fill="#b9bdca" opacity="0.5"/><circle cx="114.5" cy="188.7" r="2.3" fill="#b9bdca" opacity="0.5"/><circle cx="116.8" cy="185.4" r="2.3" fill="#b9bdca" opacity="0.5"/><circle cx="117.3" cy="185.2" r="2.3" fill="#b9bdca" opacity="0.5"/><circle cx="117.5" cy="186.6" r="2.3" fill="#b9bdca" opacity="0.5"/><circle cx="117.6" cy="185.3" r="2.3" fill="#b9bdca" opacity="0.5"/><circle cx="118.0" cy="185.3" r="2.3" fill="#b9bdca" opacity="0.5"/><circle cx="118.2" cy="185.0" r="2.3" fill="#b9bdca" opacity="0.5"/><circle cx="118.5" cy="184.9" r="2.3" fill="#b9bdca" opacity="0.5"/><circle cx="118.8" cy="185.1" r="2.3" fill="#b9bdca" opacity="0.5"/><circle cx="118.8" cy="185.2" r="2.3" fill="#b9bdca" opacity="0.5"/><circle cx="118.8" cy="186.4" r="2.3" fill="#b9bdca" opacity="0.5"/><circle cx="118.9" cy="183.9" r="2.3" fill="#b9bdca" opacity="0.5"/><circle cx="121.0" cy="184.4" r="2.3" fill="#b9bdca" opacity="0.5"/><circle cx="121.3" cy="184.2" r="2.3" fill="#b9bdca" opacity="0.5"/><circle cx="122.7" cy="169.3" r="2.3" fill="#b9bdca" opacity="0.5"/><circle cx="123.9" cy="168.8" r="2.3" fill="#b9bdca" opacity="0.5"/><circle cx="124.0" cy="167.7" r="2.3" fill="#b9bdca" opacity="0.5"/><circle cx="124.6" cy="201.4" r="2.3" fill="#b9bdca" opacity="0.5"/><circle cx="124.8" cy="165.0" r="2.3" fill="#b9bdca" opacity="0.5"/><circle cx="124.8" cy="198.2" r="2.3" fill="#b9bdca" opacity="0.5"/><circle cx="125.0" cy="163.7" r="2.3" fill="#b9bdca" opacity="0.5"/><circle cx="125.1" cy="163.6" r="2.3" fill="#b9bdca" opacity="0.5"/><circle cx="125.3" cy="165.9" r="2.3" fill="#b9bdca" opacity="0.5"/><circle cx="126.5" cy="165.1" r="2.3" fill="#b9bdca" opacity="0.5"/><circle cx="126.7" cy="155.9" r="2.3" fill="#b9bdca" opacity="0.5"/><circle cx="127.8" cy="196.5" r="2.3" fill="#b9bdca" opacity="0.5"/><circle cx="128.3" cy="157.4" r="2.3" fill="#b9bdca" opacity="0.5"/><circle cx="128.7" cy="155.8" r="2.3" fill="#b9bdca" opacity="0.5"/><circle cx="129.5" cy="141.9" r="2.3" fill="#b9bdca" opacity="0.5"/><circle cx="131.0" cy="156.1" r="2.3" fill="#b9bdca" opacity="0.5"/><circle cx="131.0" cy="156.4" r="2.3" fill="#b9bdca" opacity="0.5"/><circle cx="131.0" cy="141.8" r="2.3" fill="#b9bdca" opacity="0.5"/><circle cx="131.1" cy="196.0" r="2.3" fill="#b9bdca" opacity="0.5"/><circle cx="131.6" cy="131.7" r="2.3" fill="#b9bdca" opacity="0.5"/><circle cx="131.7" cy="134.1" r="2.3" fill="#b9bdca" opacity="0.5"/><circle cx="131.9" cy="141.1" r="2.3" fill="#b9bdca" opacity="0.5"/><circle cx="132.1" cy="134.0" r="2.3" fill="#b9bdca" opacity="0.5"/><circle cx="132.2" cy="130.9" r="2.3" fill="#b9bdca" opacity="0.5"/><circle cx="132.2" cy="154.2" r="2.3" fill="#b9bdca" opacity="0.5"/><circle cx="132.3" cy="133.6" r="2.3" fill="#b9bdca" opacity="0.5"/><circle cx="132.4" cy="129.5" r="2.3" fill="#b9bdca" opacity="0.5"/><circle cx="132.4" cy="130.9" r="2.3" fill="#b9bdca" opacity="0.5"/><circle cx="132.4" cy="133.4" r="2.3" fill="#b9bdca" opacity="0.5"/><circle cx="132.5" cy="131.2" r="2.3" fill="#b9bdca" opacity="0.5"/><circle cx="133.5" cy="189.8" r="2.3" fill="#b9bdca" opacity="0.5"/><circle cx="133.5" cy="133.2" r="2.3" fill="#b9bdca" opacity="0.5"/><circle cx="133.6" cy="133.5" r="2.3" fill="#b9bdca" opacity="0.5"/><circle cx="134.0" cy="130.1" r="2.3" fill="#b9bdca" opacity="0.5"/><circle cx="134.9" cy="130.3" r="2.3" fill="#b9bdca" opacity="0.5"/><circle cx="135.3" cy="303.1" r="2.3" fill="#b9bdca" opacity="0.5"/><circle cx="136.1" cy="133.2" r="2.3" fill="#b9bdca" opacity="0.5"/><circle cx="137.1" cy="144.2" r="2.3" fill="#b9bdca" opacity="0.5"/><circle cx="137.3" cy="135.3" r="2.3" fill="#b9bdca" opacity="0.5"/><circle cx="138.0" cy="133.4" r="2.3" fill="#b9bdca" opacity="0.5"/><circle cx="138.0" cy="159.9" r="2.3" fill="#b9bdca" opacity="0.5"/><circle cx="138.2" cy="130.8" r="2.3" fill="#b9bdca" opacity="0.5"/><circle cx="138.4" cy="133.2" r="2.3" fill="#b9bdca" opacity="0.5"/><circle cx="140.7" cy="130.9" r="2.3" fill="#b9bdca" opacity="0.5"/><circle cx="141.0" cy="130.9" r="2.3" fill="#b9bdca" opacity="0.5"/><circle cx="141.0" cy="133.8" r="2.3" fill="#b9bdca" opacity="0.5"/><circle cx="141.4" cy="130.4" r="2.3" fill="#b9bdca" opacity="0.5"/><circle cx="141.6" cy="153.7" r="2.3" fill="#b9bdca" opacity="0.5"/><circle cx="142.0" cy="133.3" r="2.3" fill="#b9bdca" opacity="0.5"/><circle cx="142.7" cy="156.5" r="2.3" fill="#b9bdca" opacity="0.5"/><circle cx="142.9" cy="132.3" r="2.3" fill="#b9bdca" opacity="0.5"/><circle cx="143.7" cy="147.2" r="2.3" fill="#b9bdca" opacity="0.5"/><circle cx="143.9" cy="133.6" r="2.3" fill="#b9bdca" opacity="0.5"/><circle cx="144.2" cy="129.5" r="2.3" fill="#b9bdca" opacity="0.5"/><circle cx="144.2" cy="133.3" r="2.3" fill="#b9bdca" opacity="0.5"/><circle cx="145.2" cy="133.3" r="2.3" fill="#b9bdca" opacity="0.5"/><circle cx="145.9" cy="129.5" r="2.3" fill="#b9bdca" opacity="0.5"/><circle cx="147.0" cy="130.6" r="2.3" fill="#b9bdca" opacity="0.5"/><circle cx="147.9" cy="128.9" r="2.3" fill="#b9bdca" opacity="0.5"/><circle cx="148.1" cy="132.7" r="2.3" fill="#b9bdca" opacity="0.5"/><circle cx="148.1" cy="133.1" r="2.3" fill="#b9bdca" opacity="0.5"/><circle cx="149.4" cy="129.8" r="2.3" fill="#b9bdca" opacity="0.5"/><circle cx="149.7" cy="333.8" r="2.3" fill="#b9bdca" opacity="0.5"/><circle cx="149.8" cy="128.4" r="2.3" fill="#b9bdca" opacity="0.5"/><circle cx="150.4" cy="129.8" r="2.3" fill="#b9bdca" opacity="0.5"/><circle cx="150.7" cy="128.9" r="2.3" fill="#b9bdca" opacity="0.5"/><circle cx="150.7" cy="128.9" r="2.3" fill="#b9bdca" opacity="0.5"/><circle cx="151.2" cy="128.2" r="2.3" fill="#b9bdca" opacity="0.5"/><circle cx="151.5" cy="129.7" r="2.3" fill="#b9bdca" opacity="0.5"/><circle cx="151.6" cy="142.3" r="2.3" fill="#b9bdca" opacity="0.5"/><circle cx="152.8" cy="128.8" r="2.3" fill="#b9bdca" opacity="0.5"/><circle cx="153.5" cy="161.1" r="2.3" fill="#b9bdca" opacity="0.5"/><circle cx="154.9" cy="164.4" r="2.3" fill="#b9bdca" opacity="0.5"/><circle cx="155.1" cy="248.3" r="2.3" fill="#b9bdca" opacity="0.5"/><circle cx="157.1" cy="135.4" r="2.3" fill="#b9bdca" opacity="0.5"/><circle cx="157.2" cy="128.0" r="2.3" fill="#b9bdca" opacity="0.5"/><circle cx="157.8" cy="229.0" r="2.3" fill="#b9bdca" opacity="0.5"/><circle cx="159.2" cy="128.1" r="2.3" fill="#b9bdca" opacity="0.5"/><circle cx="159.6" cy="128.6" r="2.3" fill="#b9bdca" opacity="0.5"/><circle cx="160.9" cy="128.8" r="2.3" fill="#b9bdca" opacity="0.5"/><circle cx="160.9" cy="129.6" r="2.3" fill="#b9bdca" opacity="0.5"/><circle cx="160.9" cy="130.9" r="2.3" fill="#b9bdca" opacity="0.5"/><circle cx="163.6" cy="112.8" r="2.3" fill="#b9bdca" opacity="0.5"/><circle cx="165.0" cy="110.2" r="2.3" fill="#b9bdca" opacity="0.5"/><circle cx="165.1" cy="111.6" r="2.3" fill="#b9bdca" opacity="0.5"/><circle cx="165.9" cy="111.0" r="2.3" fill="#b9bdca" opacity="0.5"/><circle cx="166.4" cy="335.1" r="2.3" fill="#b9bdca" opacity="0.5"/><circle cx="166.6" cy="111.6" r="2.3" fill="#b9bdca" opacity="0.5"/><circle cx="167.5" cy="105.5" r="2.3" fill="#b9bdca" opacity="0.5"/><circle cx="167.6" cy="108.5" r="2.3" fill="#b9bdca" opacity="0.5"/><circle cx="168.0" cy="105.1" r="2.3" fill="#b9bdca" opacity="0.5"/><circle cx="168.4" cy="103.8" r="2.3" fill="#b9bdca" opacity="0.5"/><circle cx="168.9" cy="125.8" r="2.3" fill="#b9bdca" opacity="0.5"/><circle cx="172.8" cy="103.5" r="2.3" fill="#b9bdca" opacity="0.5"/><circle cx="173.8" cy="127.8" r="2.3" fill="#b9bdca" opacity="0.5"/><circle cx="174.2" cy="334.3" r="2.3" fill="#b9bdca" opacity="0.5"/><circle cx="174.9" cy="128.6" r="2.3" fill="#b9bdca" opacity="0.5"/><circle cx="175.1" cy="128.6" r="2.3" fill="#b9bdca" opacity="0.5"/><circle cx="175.2" cy="128.6" r="2.3" fill="#b9bdca" opacity="0.5"/><circle cx="175.6" cy="256.6" r="2.3" fill="#b9bdca" opacity="0.5"/><circle cx="176.0" cy="254.6" r="2.3" fill="#b9bdca" opacity="0.5"/><circle cx="176.7" cy="128.6" r="2.3" fill="#b9bdca" opacity="0.5"/><circle cx="178.5" cy="250.1" r="2.3" fill="#b9bdca" opacity="0.5"/><circle cx="178.7" cy="161.4" r="2.3" fill="#b9bdca" opacity="0.5"/><circle cx="178.9" cy="206.6" r="2.3" fill="#b9bdca" opacity="0.5"/><circle cx="180.5" cy="113.5" r="2.3" fill="#b9bdca" opacity="0.5"/><circle cx="181.1" cy="89.6" r="2.3" fill="#b9bdca" opacity="0.5"/><circle cx="181.5" cy="90.2" r="2.3" fill="#b9bdca" opacity="0.5"/><circle cx="182.5" cy="89.3" r="2.3" fill="#b9bdca" opacity="0.5"/><circle cx="182.8" cy="87.6" r="2.3" fill="#b9bdca" opacity="0.5"/><circle cx="183.2" cy="185.0" r="2.3" fill="#b9bdca" opacity="0.5"/><circle cx="183.5" cy="131.6" r="2.3" fill="#b9bdca" opacity="0.5"/><circle cx="183.8" cy="87.8" r="2.3" fill="#b9bdca" opacity="0.5"/><circle cx="184.3" cy="85.4" r="2.3" fill="#b9bdca" opacity="0.5"/><circle cx="185.0" cy="86.8" r="2.3" fill="#b9bdca" opacity="0.5"/><circle cx="185.8" cy="88.4" r="2.3" fill="#b9bdca" opacity="0.5"/><circle cx="188.9" cy="89.5" r="2.3" fill="#b9bdca" opacity="0.5"/><circle cx="188.9" cy="155.6" r="2.3" fill="#b9bdca" opacity="0.5"/><circle cx="188.9" cy="84.4" r="2.3" fill="#b9bdca" opacity="0.5"/><circle cx="192.6" cy="89.2" r="2.3" fill="#b9bdca" opacity="0.5"/><circle cx="192.7" cy="90.5" r="2.3" fill="#b9bdca" opacity="0.5"/><circle cx="193.7" cy="87.7" r="2.3" fill="#b9bdca" opacity="0.5"/><circle cx="194.1" cy="367.9" r="2.3" fill="#b9bdca" opacity="0.5"/><circle cx="195.6" cy="164.3" r="2.3" fill="#b9bdca" opacity="0.5"/><circle cx="196.3" cy="94.6" r="2.3" fill="#b9bdca" opacity="0.5"/><circle cx="196.6" cy="89.6" r="2.3" fill="#b9bdca" opacity="0.5"/><circle cx="199.8" cy="124.6" r="2.3" fill="#b9bdca" opacity="0.5"/><circle cx="203.2" cy="146.2" r="2.3" fill="#b9bdca" opacity="0.5"/><circle cx="203.3" cy="90.5" r="2.3" fill="#b9bdca" opacity="0.5"/><circle cx="203.6" cy="87.7" r="2.3" fill="#b9bdca" opacity="0.5"/><circle cx="203.8" cy="87.7" r="2.3" fill="#b9bdca" opacity="0.5"/><circle cx="203.8" cy="89.6" r="2.3" fill="#b9bdca" opacity="0.5"/><circle cx="206.2" cy="93.0" r="2.3" fill="#b9bdca" opacity="0.5"/><circle cx="207.1" cy="85.5" r="2.3" fill="#b9bdca" opacity="0.5"/><circle cx="214.3" cy="334.8" r="2.3" fill="#b9bdca" opacity="0.5"/><circle cx="215.1" cy="86.3" r="2.3" fill="#b9bdca" opacity="0.5"/><circle cx="217.5" cy="85.5" r="2.3" fill="#b9bdca" opacity="0.5"/><circle cx="217.9" cy="84.6" r="2.3" fill="#b9bdca" opacity="0.5"/><circle cx="218.9" cy="87.8" r="2.3" fill="#b9bdca" opacity="0.5"/><circle cx="219.3" cy="84.4" r="2.3" fill="#b9bdca" opacity="0.5"/><circle cx="219.6" cy="84.8" r="2.3" fill="#b9bdca" opacity="0.5"/><circle cx="220.3" cy="87.4" r="2.3" fill="#b9bdca" opacity="0.5"/><circle cx="224.1" cy="84.4" r="2.3" fill="#b9bdca" opacity="0.5"/><circle cx="241.0" cy="89.3" r="2.3" fill="#b9bdca" opacity="0.5"/><circle cx="244.1" cy="88.6" r="2.3" fill="#b9bdca" opacity="0.5"/><circle cx="244.1" cy="92.1" r="2.3" fill="#b9bdca" opacity="0.5"/><circle cx="244.7" cy="156.8" r="2.3" fill="#b9bdca" opacity="0.5"/><circle cx="254.5" cy="201.6" r="2.3" fill="#b9bdca" opacity="0.5"/><circle cx="261.6" cy="315.6" r="2.3" fill="#b9bdca" opacity="0.5"/><circle cx="281.0" cy="87.7" r="2.3" fill="#b9bdca" opacity="0.5"/><circle cx="286.9" cy="87.6" r="2.3" fill="#b9bdca" opacity="0.5"/><circle cx="292.1" cy="87.2" r="2.3" fill="#b9bdca" opacity="0.5"/><circle cx="293.3" cy="88.8" r="2.3" fill="#b9bdca" opacity="0.5"/><circle cx="293.8" cy="89.2" r="2.3" fill="#b9bdca" opacity="0.5"/><circle cx="294.1" cy="90.9" r="2.3" fill="#b9bdca" opacity="0.5"/><circle cx="295.6" cy="87.7" r="2.3" fill="#b9bdca" opacity="0.5"/><circle cx="300.8" cy="88.6" r="2.3" fill="#b9bdca" opacity="0.5"/><circle cx="301.5" cy="89.7" r="2.3" fill="#b9bdca" opacity="0.5"/><circle cx="301.9" cy="88.2" r="2.3" fill="#b9bdca" opacity="0.5"/><circle cx="311.8" cy="75.8" r="2.3" fill="#b9bdca" opacity="0.5"/><circle cx="312.6" cy="75.7" r="2.3" fill="#b9bdca" opacity="0.5"/><circle cx="313.1" cy="76.7" r="2.3" fill="#b9bdca" opacity="0.5"/><circle cx="313.2" cy="75.8" r="2.3" fill="#b9bdca" opacity="0.5"/><circle cx="313.5" cy="75.3" r="2.3" fill="#b9bdca" opacity="0.5"/><circle cx="313.6" cy="74.7" r="2.3" fill="#b9bdca" opacity="0.5"/><circle cx="313.7" cy="83.4" r="2.3" fill="#b9bdca" opacity="0.5"/><circle cx="314.0" cy="76.2" r="2.3" fill="#b9bdca" opacity="0.5"/><circle cx="314.2" cy="78.1" r="2.3" fill="#b9bdca" opacity="0.5"/><circle cx="314.4" cy="74.7" r="2.3" fill="#b9bdca" opacity="0.5"/><circle cx="316.1" cy="89.3" r="2.3" fill="#b9bdca" opacity="0.5"/><circle cx="319.4" cy="74.4" r="2.3" fill="#b9bdca" opacity="0.5"/><circle cx="324.6" cy="74.4" r="2.3" fill="#b9bdca" opacity="0.5"/><circle cx="325.5" cy="335.1" r="2.3" fill="#b9bdca" opacity="0.5"/><circle cx="325.5" cy="81.7" r="2.3" fill="#b9bdca" opacity="0.5"/><circle cx="326.1" cy="74.6" r="2.3" fill="#b9bdca" opacity="0.5"/><circle cx="326.1" cy="82.1" r="2.3" fill="#b9bdca" opacity="0.5"/><circle cx="326.1" cy="73.9" r="2.3" fill="#b9bdca" opacity="0.5"/><circle cx="327.6" cy="76.2" r="2.3" fill="#b9bdca" opacity="0.5"/><circle cx="327.8" cy="82.1" r="2.3" fill="#b9bdca" opacity="0.5"/><circle cx="328.1" cy="74.2" r="2.3" fill="#b9bdca" opacity="0.5"/><circle cx="328.1" cy="75.0" r="2.3" fill="#b9bdca" opacity="0.5"/><circle cx="328.4" cy="73.6" r="2.3" fill="#b9bdca" opacity="0.5"/><circle cx="328.4" cy="83.3" r="2.3" fill="#b9bdca" opacity="0.5"/><circle cx="328.4" cy="83.8" r="2.3" fill="#b9bdca" opacity="0.5"/><circle cx="328.4" cy="78.1" r="2.3" fill="#b9bdca" opacity="0.5"/><circle cx="328.4" cy="81.5" r="2.3" fill="#b9bdca" opacity="0.5"/><circle cx="328.4" cy="83.0" r="2.3" fill="#b9bdca" opacity="0.5"/><circle cx="328.4" cy="83.7" r="2.3" fill="#b9bdca" opacity="0.5"/><circle cx="330.5" cy="82.7" r="2.3" fill="#b9bdca" opacity="0.5"/><circle cx="331.0" cy="77.8" r="2.3" fill="#b9bdca" opacity="0.5"/><circle cx="332.0" cy="69.8" r="2.3" fill="#b9bdca" opacity="0.5"/><circle cx="332.4" cy="75.9" r="2.3" fill="#b9bdca" opacity="0.5"/><circle cx="332.5" cy="74.3" r="2.3" fill="#b9bdca" opacity="0.5"/><circle cx="332.5" cy="77.4" r="2.3" fill="#b9bdca" opacity="0.5"/><circle cx="332.5" cy="80.6" r="2.3" fill="#b9bdca" opacity="0.5"/><circle cx="332.5" cy="81.8" r="2.3" fill="#b9bdca" opacity="0.5"/><circle cx="333.3" cy="76.9" r="2.3" fill="#b9bdca" opacity="0.5"/><circle cx="333.3" cy="82.8" r="2.3" fill="#b9bdca" opacity="0.5"/><circle cx="333.3" cy="83.0" r="2.3" fill="#b9bdca" opacity="0.5"/><circle cx="333.3" cy="83.1" r="2.3" fill="#b9bdca" opacity="0.5"/><circle cx="333.6" cy="69.1" r="2.3" fill="#b9bdca" opacity="0.5"/><circle cx="334.5" cy="75.5" r="2.3" fill="#b9bdca" opacity="0.5"/><circle cx="335.0" cy="74.3" r="2.3" fill="#b9bdca" opacity="0.5"/><circle cx="348.2" cy="74.0" r="2.3" fill="#b9bdca" opacity="0.5"/><circle cx="363.9" cy="73.4" r="2.3" fill="#b9bdca" opacity="0.5"/><circle cx="364.1" cy="75.9" r="2.3" fill="#b9bdca" opacity="0.5"/><circle cx="364.1" cy="76.3" r="2.3" fill="#b9bdca" opacity="0.5"/><circle cx="364.2" cy="76.0" r="2.3" fill="#b9bdca" opacity="0.5"/><circle cx="364.2" cy="76.8" r="2.3" fill="#b9bdca" opacity="0.5"/><circle cx="364.2" cy="81.2" r="2.3" fill="#b9bdca" opacity="0.5"/><circle cx="364.2" cy="83.4" r="2.3" fill="#b9bdca" opacity="0.5"/><circle cx="375.3" cy="76.6" r="2.3" fill="#b9bdca" opacity="0.5"/><circle cx="376.1" cy="76.7" r="2.3" fill="#b9bdca" opacity="0.5"/><circle cx="376.1" cy="82.8" r="2.3" fill="#b9bdca" opacity="0.5"/><circle cx="376.1" cy="82.8" r="2.3" fill="#b9bdca" opacity="0.5"/><circle cx="376.1" cy="83.3" r="2.3" fill="#b9bdca" opacity="0.5"/><circle cx="378.4" cy="233.4" r="2.3" fill="#b9bdca" opacity="0.5"/><circle cx="379.1" cy="228.9" r="2.3" fill="#b9bdca" opacity="0.5"/><circle cx="379.8" cy="198.3" r="2.3" fill="#b9bdca" opacity="0.5"/><circle cx="394.3" cy="73.4" r="2.3" fill="#b9bdca" opacity="0.5"/><circle cx="398.3" cy="192.4" r="2.3" fill="#b9bdca" opacity="0.5"/><circle cx="399.7" cy="75.3" r="2.3" fill="#b9bdca" opacity="0.5"/><circle cx="400.1" cy="74.0" r="2.3" fill="#b9bdca" opacity="0.5"/><circle cx="401.0" cy="194.4" r="2.3" fill="#b9bdca" opacity="0.5"/><circle cx="402.4" cy="168.6" r="2.3" fill="#b9bdca" opacity="0.5"/><circle cx="403.3" cy="77.1" r="2.3" fill="#b9bdca" opacity="0.5"/><circle cx="403.3" cy="99.5" r="2.3" fill="#b9bdca" opacity="0.5"/><circle cx="414.5" cy="71.4" r="2.3" fill="#b9bdca" opacity="0.5"/><circle cx="414.5" cy="73.5" r="2.3" fill="#b9bdca" opacity="0.5"/><circle cx="418.4" cy="72.4" r="2.3" fill="#b9bdca" opacity="0.5"/><circle cx="434.7" cy="83.0" r="2.3" fill="#b9bdca" opacity="0.5"/><circle cx="435.0" cy="72.1" r="2.3" fill="#b9bdca" opacity="0.5"/><circle cx="435.2" cy="71.6" r="2.3" fill="#b9bdca" opacity="0.5"/><circle cx="435.7" cy="75.5" r="2.3" fill="#b9bdca" opacity="0.5"/><circle cx="436.0" cy="73.7" r="2.3" fill="#b9bdca" opacity="0.5"/><circle cx="436.7" cy="72.9" r="2.3" fill="#b9bdca" opacity="0.5"/><circle cx="437.0" cy="73.4" r="2.3" fill="#b9bdca" opacity="0.5"/><circle cx="468.8" cy="85.2" r="2.3" fill="#b9bdca" opacity="0.5"/><circle cx="468.8" cy="256.6" r="2.3" fill="#b9bdca" opacity="0.5"/><circle cx="468.8" cy="335.3" r="2.3" fill="#b9bdca" opacity="0.5"/><circle cx="469.0" cy="86.8" r="2.3" fill="#b9bdca" opacity="0.5"/><circle cx="469.3" cy="71.5" r="2.3" fill="#b9bdca" opacity="0.5"/><circle cx="470.2" cy="71.0" r="2.3" fill="#b9bdca" opacity="0.5"/><circle cx="470.6" cy="71.5" r="2.3" fill="#b9bdca" opacity="0.5"/><circle cx="470.7" cy="55.0" r="2.3" fill="#b9bdca" opacity="0.5"/><circle cx="475.2" cy="83.1" r="2.3" fill="#b9bdca" opacity="0.5"/><circle cx="476.3" cy="74.7" r="2.3" fill="#b9bdca" opacity="0.5"/><circle cx="476.3" cy="59.3" r="2.3" fill="#b9bdca" opacity="0.5"/><circle cx="476.3" cy="79.9" r="2.3" fill="#b9bdca" opacity="0.5"/><circle cx="476.5" cy="74.1" r="2.3" fill="#b9bdca" opacity="0.5"/><circle cx="476.7" cy="72.7" r="2.3" fill="#b9bdca" opacity="0.5"/><circle cx="476.7" cy="73.8" r="2.3" fill="#b9bdca" opacity="0.5"/><circle cx="476.7" cy="75.9" r="2.3" fill="#b9bdca" opacity="0.5"/><circle cx="476.9" cy="74.1" r="2.3" fill="#b9bdca" opacity="0.5"/><circle cx="477.2" cy="73.5" r="2.3" fill="#b9bdca" opacity="0.5"/><circle cx="477.4" cy="74.2" r="2.3" fill="#b9bdca" opacity="0.5"/><circle cx="477.6" cy="71.5" r="2.3" fill="#b9bdca" opacity="0.5"/><circle cx="478.3" cy="74.3" r="2.3" fill="#b9bdca" opacity="0.5"/><circle cx="481.9" cy="73.2" r="2.3" fill="#b9bdca" opacity="0.5"/><circle cx="481.9" cy="73.6" r="2.3" fill="#b9bdca" opacity="0.5"/><circle cx="481.9" cy="73.8" r="2.3" fill="#b9bdca" opacity="0.5"/><circle cx="488.8" cy="73.3" r="2.3" fill="#b9bdca" opacity="0.5"/><circle cx="488.8" cy="73.4" r="2.3" fill="#b9bdca" opacity="0.5"/><circle cx="504.4" cy="96.1" r="2.3" fill="#b9bdca" opacity="0.5"/><circle cx="568.7" cy="95.6" r="2.3" fill="#b9bdca" opacity="0.5"/><circle cx="589.9" cy="74.8" r="2.3" fill="#b9bdca" opacity="0.5"/><circle cx="590.9" cy="72.3" r="2.3" fill="#b9bdca" opacity="0.5"/><circle cx="597.0" cy="79.9" r="2.3" fill="#b9bdca" opacity="0.5"/><circle cx="597.0" cy="80.6" r="2.3" fill="#b9bdca" opacity="0.5"/><circle cx="609.2" cy="73.3" r="2.3" fill="#b9bdca" opacity="0.5"/><circle cx="609.2" cy="72.8" r="2.3" fill="#b9bdca" opacity="0.5"/><circle cx="609.2" cy="73.0" r="2.3" fill="#b9bdca" opacity="0.5"/><circle cx="609.2" cy="73.2" r="2.3" fill="#b9bdca" opacity="0.5"/><circle cx="609.2" cy="73.5" r="2.3" fill="#b9bdca" opacity="0.5"/><circle cx="609.2" cy="73.6" r="2.3" fill="#b9bdca" opacity="0.5"/><circle cx="609.2" cy="73.7" r="2.3" fill="#b9bdca" opacity="0.5"/><circle cx="609.5" cy="73.1" r="2.3" fill="#b9bdca" opacity="0.5"/><circle cx="609.5" cy="73.2" r="2.3" fill="#b9bdca" opacity="0.5"/><circle cx="609.5" cy="74.3" r="2.3" fill="#b9bdca" opacity="0.5"/><circle cx="609.5" cy="74.5" r="2.3" fill="#b9bdca" opacity="0.5"/><circle cx="609.5" cy="72.8" r="2.3" fill="#b9bdca" opacity="0.5"/><circle cx="609.8" cy="74.7" r="2.3" fill="#b9bdca" opacity="0.5"/><circle cx="639.1" cy="332.5" r="2.3" fill="#b9bdca" opacity="0.5"/><circle cx="674.3" cy="117.5" r="2.3" fill="#b9bdca" opacity="0.5"/><circle cx="674.3" cy="211.0" r="2.3" fill="#b9bdca" opacity="0.5"/><circle cx="683.2" cy="93.9" r="2.3" fill="#b9bdca" opacity="0.5"/><circle cx="696.9" cy="74.9" r="2.3" fill="#b9bdca" opacity="0.5"/><circle cx="697.2" cy="73.4" r="2.3" fill="#b9bdca" opacity="0.5"/><circle cx="697.4" cy="72.9" r="2.3" fill="#b9bdca" opacity="0.5"/><circle cx="697.7" cy="74.2" r="2.3" fill="#b9bdca" opacity="0.5"/><circle cx="697.7" cy="74.9" r="2.3" fill="#b9bdca" opacity="0.5"/><circle cx="697.9" cy="74.9" r="2.3" fill="#b9bdca" opacity="0.5"/><circle cx="698.1" cy="73.6" r="2.3" fill="#b9bdca" opacity="0.5"/><circle cx="698.2" cy="74.5" r="2.3" fill="#b9bdca" opacity="0.5"/><circle cx="698.4" cy="73.6" r="2.3" fill="#b9bdca" opacity="0.5"/><circle cx="698.7" cy="74.2" r="2.3" fill="#b9bdca" opacity="0.5"/><circle cx="699.2" cy="72.3" r="2.3" fill="#b9bdca" opacity="0.5"/><circle cx="699.5" cy="70.5" r="2.3" fill="#b9bdca" opacity="0.5"/><circle cx="699.7" cy="73.5" r="2.3" fill="#b9bdca" opacity="0.5"/><circle cx="699.8" cy="72.7" r="2.3" fill="#b9bdca" opacity="0.5"/><circle cx="700.0" cy="74.4" r="2.3" fill="#b9bdca" opacity="0.5"/><circle cx="715.1" cy="172.8" r="2.3" fill="#b9bdca" opacity="0.5"/><circle cx="715.2" cy="172.8" r="2.3" fill="#b9bdca" opacity="0.5"/><circle cx="715.9" cy="94.2" r="2.3" fill="#b9bdca" opacity="0.5"/><circle cx="1032.0" cy="335.0" r="2.3" fill="#b9bdca" opacity="0.5"/><path d="M126.7 152.3L130.3 155.9L126.7 159.5L123.1 155.9Z" fill="#2b3a7a" opacity="0.8" stroke="none" stroke-width="0"/><path d="M131.0 138.2L134.6 141.8L131.0 145.4L127.4 141.8Z" fill="#2b3a7a" opacity="0.8" stroke="none" stroke-width="0"/><path d="M131.6 128.1L135.2 131.7L131.6 135.3L128.0 131.7Z" fill="#2b3a7a" opacity="0.8" stroke="none" stroke-width="0"/><path d="M131.7 130.5L135.3 134.1L131.7 137.7L128.1 134.1Z" fill="#2b3a7a" opacity="0.8" stroke="none" stroke-width="0"/><path d="M132.2 127.3L135.8 130.9L132.2 134.5L128.6 130.9Z" fill="#2b3a7a" opacity="0.8" stroke="none" stroke-width="0"/><path d="M132.4 125.9L136.0 129.5L132.4 133.1L128.8 129.5Z" fill="#2b3a7a" opacity="0.8" stroke="none" stroke-width="0"/><path d="M132.4 127.3L136.0 130.9L132.4 134.5L128.8 130.9Z" fill="#2b3a7a" opacity="0.8" stroke="none" stroke-width="0"/><path d="M145.9 125.9L149.5 129.5L145.9 133.1L142.3 129.5Z" fill="#2b3a7a" opacity="0.8" stroke="none" stroke-width="0"/><path d="M147.9 125.3L151.5 128.9L147.9 132.5L144.3 128.9Z" fill="#2b3a7a" opacity="0.8" stroke="none" stroke-width="0"/><path d="M149.8 124.8L153.4 128.4L149.8 132.0L146.2 128.4Z" fill="#2b3a7a" opacity="0.8" stroke="none" stroke-width="0"/><path d="M151.2 124.6L154.8 128.2L151.2 131.8L147.6 128.2Z" fill="#2b3a7a" opacity="0.8" stroke="none" stroke-width="0"/><path d="M157.2 124.4L160.8 128.0L157.2 131.6L153.6 128.0Z" fill="#2b3a7a" opacity="0.8" stroke="none" stroke-width="0"/><path d="M163.6 109.2L167.2 112.8L163.6 116.4L160.0 112.8Z" fill="#2b3a7a" opacity="0.8" stroke="none" stroke-width="0"/><path d="M166.6 108.0L170.2 111.6L166.6 115.2L163.0 111.6Z" fill="#2b3a7a" opacity="0.8" stroke="none" stroke-width="0"/><path d="M167.5 101.9L171.1 105.5L167.5 109.1L163.9 105.5Z" fill="#2b3a7a" opacity="0.8" stroke="none" stroke-width="0"/><path d="M167.6 104.9L171.2 108.5L167.6 112.1L164.0 108.5Z" fill="#2b3a7a" opacity="0.8" stroke="none" stroke-width="0"/><path d="M168.0 101.5L171.6 105.1L168.0 108.7L164.4 105.1Z" fill="#2b3a7a" opacity="0.8" stroke="none" stroke-width="0"/><path d="M168.4 100.2L172.0 103.8L168.4 107.4L164.8 103.8Z" fill="#2b3a7a" opacity="0.8" stroke="none" stroke-width="0"/><path d="M172.8 99.9L176.4 103.5L172.8 107.1L169.2 103.5Z" fill="#2b3a7a" opacity="0.8" stroke="none" stroke-width="0"/><path d="M181.1 86.0L184.7 89.6L181.1 93.2L177.5 89.6Z" fill="#2b3a7a" opacity="0.8" stroke="none" stroke-width="0"/><path d="M182.5 85.7L186.1 89.3L182.5 92.9L178.9 89.3Z" fill="#2b3a7a" opacity="0.8" stroke="none" stroke-width="0"/><path d="M182.8 84.0L186.4 87.6L182.8 91.2L179.2 87.6Z" fill="#2b3a7a" opacity="0.8" stroke="none" stroke-width="0"/><path d="M184.3 81.8L187.9 85.4L184.3 89.0L180.7 85.4Z" fill="#2b3a7a" opacity="0.8" stroke="none" stroke-width="0"/><path d="M188.9 80.8L192.5 84.4L188.9 88.0L185.3 84.4Z" fill="#2b3a7a" opacity="0.8" stroke="none" stroke-width="0"/><path d="M224.1 80.8L227.7 84.4L224.1 88.0L220.5 84.4Z" fill="#2b3a7a" opacity="0.8" stroke="none" stroke-width="0"/><path d="M311.8 72.2L315.4 75.8L311.8 79.4L308.2 75.8Z" fill="#2b3a7a" opacity="0.8" stroke="none" stroke-width="0"/><path d="M312.6 72.1L316.2 75.7L312.6 79.3L309.0 75.7Z" fill="#2b3a7a" opacity="0.8" stroke="none" stroke-width="0"/><path d="M313.5 71.7L317.1 75.3L313.5 78.9L309.9 75.3Z" fill="#2b3a7a" opacity="0.8" stroke="none" stroke-width="0"/><path d="M313.6 71.1L317.2 74.7L313.6 78.3L310.0 74.7Z" fill="#2b3a7a" opacity="0.8" stroke="none" stroke-width="0"/><path d="M314.4 71.1L318.0 74.7L314.4 78.3L310.8 74.7Z" fill="#2b3a7a" opacity="0.8" stroke="none" stroke-width="0"/><path d="M319.4 70.8L323.0 74.4L319.4 78.0L315.8 74.4Z" fill="#2b3a7a" opacity="0.8" stroke="none" stroke-width="0"/><path d="M326.1 70.3L329.7 73.9L326.1 77.5L322.5 73.9Z" fill="#2b3a7a" opacity="0.8" stroke="none" stroke-width="0"/><path d="M328.4 70.0L332.0 73.6L328.4 77.2L324.8 73.6Z" fill="#2b3a7a" opacity="0.8" stroke="none" stroke-width="0"/><path d="M363.9 69.8L367.5 73.4L363.9 77.0L360.3 73.4Z" fill="#2b3a7a" opacity="0.8" stroke="none" stroke-width="0"/><path d="M394.3 69.8L397.9 73.4L394.3 77.0L390.7 73.4Z" fill="#2b3a7a" opacity="0.8" stroke="none" stroke-width="0"/><path d="M414.5 67.8L418.1 71.4L414.5 75.0L410.9 71.4Z" fill="#2b3a7a" opacity="0.8" stroke="none" stroke-width="0"/><path d="M60.0 335.3L61.1 335.3L61.1 335.1L62.6 335.1L62.6 320.7L65.6 320.7L65.6 319.9L66.8 319.9L66.8 315.3L67.1 315.3L67.1 314.9L67.5 314.9L67.5 314.9L85.5 314.9L85.5 238.7L85.8 238.7L85.8 229.0L86.1 229.0L86.1 222.3L86.5 222.3L86.5 220.6L86.5 220.6L86.5 220.5L86.8 220.5L86.8 214.2L87.4 214.2L87.4 214.1L87.6 214.1L87.6 213.7L87.8 213.7L87.8 213.5L88.0 213.5L88.0 212.7L88.9 212.7L88.9 212.1L89.1 212.1L89.1 212.0L91.5 212.0L91.5 206.7L94.2 206.7L94.2 204.9L95.2 204.9L95.2 204.6L95.8 204.6L95.8 201.9L97.1 201.9L97.1 201.8L97.7 201.8L97.7 201.0L98.0 201.0L98.0 200.0L99.8 200.0L99.8 200.0L100.5 200.0L100.5 199.7L106.4 199.7L106.4 195.5L110.8 195.5L110.8 187.4L110.9 187.4L110.9 186.2L111.2 186.2L111.2 184.5L118.9 184.5L118.9 183.9L122.7 183.9L122.7 169.3L123.9 169.3L123.9 168.8L124.0 168.8L124.0 167.7L124.8 167.7L124.8 165.0L125.0 165.0L125.0 163.7L125.1 163.7L125.1 163.6L126.7 163.6L126.7 155.9L128.7 155.9L128.7 155.8L129.5 155.8L129.5 141.9L131.0 141.9L131.0 141.8L131.6 141.8L131.6 131.7L132.2 131.7L132.2 130.9L132.4 130.9L132.4 129.5L145.9 129.5L145.9 129.5L147.9 129.5L147.9 128.9L149.8 128.9L149.8 128.4L151.2 128.4L151.2 128.2L157.2 128.2L157.2 128.0L163.6 128.0L163.6 112.8L165.0 112.8L165.0 110.2L167.5 110.2L167.5 105.5L168.0 105.5L168.0 105.1L168.4 105.1L168.4 103.8L172.8 103.8L172.8 103.5L181.1 103.5L181.1 89.6L182.5 89.6L182.5 89.3L182.8 89.3L182.8 87.6L184.3 87.6L184.3 85.4L188.9 85.4L188.9 84.4L224.1 84.4L224.1 84.4L311.8 84.4L311.8 75.8L312.6 75.8L312.6 75.7L313.5 75.7L313.5 75.3L313.6 75.3L313.6 74.7L314.4 74.7L314.4 74.7L319.4 74.7L319.4 74.4L326.1 74.4L326.1 73.9L328.4 73.9L328.4 73.6L332.0 73.6L332.0 69.8L333.6 69.8L333.6 69.1L470.7 69.1L470.7 55.0L1032.0 55.0" fill="none" stroke="#6675b0" stroke-width="1.6" stroke-dasharray="5 3" opacity="0.75"/><path d="M126.7 155.9L131.0 155.9L131.0 141.8L131.6 141.8L131.6 131.7L132.2 131.7L132.2 130.9L132.4 130.9L132.4 129.5L145.9 129.5L145.9 129.5L147.9 129.5L147.9 128.9L149.8 128.9L149.8 128.4L151.2 128.4L151.2 128.2L157.2 128.2L157.2 128.0L163.6 128.0L163.6 112.8L166.6 112.8L166.6 111.6L167.5 111.6L167.5 105.5L168.0 105.5L168.0 105.1L168.4 105.1L168.4 103.8L172.8 103.8L172.8 103.5L181.1 103.5L181.1 89.6L182.5 89.6L182.5 89.3L182.8 89.3L182.8 87.6L184.3 87.6L184.3 85.4L188.9 85.4L188.9 84.4L224.1 84.4L224.1 84.4L311.8 84.4L311.8 75.8L312.6 75.8L312.6 75.7L313.5 75.7L313.5 75.3L313.6 75.3L313.6 74.7L314.4 74.7L314.4 74.7L319.4 74.7L319.4 74.4L326.1 74.4L326.1 73.9L328.4 73.9L328.4 73.6L332.1 73.6L332.1 73.5L363.9 73.5L363.9 73.4L394.3 73.4L394.3 73.4L414.5 73.4L414.5 71.4L1032.0 71.4" fill="none" stroke="#2b3a7a" stroke-width="2.6"/><path d="M283.4 246.9L289.9 253.4L283.4 259.9L276.9 253.4Z" fill="#c5961a" opacity="1.0" stroke="#ffffff" stroke-width="1.4"/><path d="M327.0 206.5L333.5 213.0L327.0 219.5L320.5 213.0Z" fill="#c5961a" opacity="1.0" stroke="#ffffff" stroke-width="1.4"/><path d="M332.1 67.0L338.6 73.5L332.1 80.0L325.6 73.5Z" fill="#c5961a" opacity="1.0" stroke="#ffffff" stroke-width="1.4"/><path d="M369.4 240.8L375.9 247.3L369.4 253.8L362.9 247.3Z" fill="#c5961a" opacity="1.0" stroke="#ffffff" stroke-width="1.4"/><path d="M369.7 238.0L376.2 244.5L369.7 251.0L363.2 244.5Z" fill="#c5961a" opacity="1.0" stroke="#ffffff" stroke-width="1.4"/><path d="M839.6 66.6L846.1 73.1L839.6 79.6L833.1 73.1Z" fill="#c5961a" opacity="1.0" stroke="#ffffff" stroke-width="1.4"/><text x="1042" y="53.0" font-size="11.5" fill="#6675b0">– – raw best 535.9</text><text x="1042" y="67.0" font-size="10" fill="#8a8fa3">unverified (pending)</text><path d="M414.5 64.9L421.0 71.4L414.5 77.9L408.0 71.4Z" fill="#2b3a7a" opacity="1.0" stroke="#ffffff" stroke-width="1.4"/><text x="1042" y="99.4" font-size="12.5" fill="#2b3a7a" font-weight="bold">◆ verified 510.1</text><text x="1042" y="115.4" font-size="10.5" fill="#3a3f55">top verified</text><text x="60" y="24" font-size="13" font-weight="bold" fill="#3a3f55" letter-spacing="1.2">SCORE EVOLUTION — gemma-challenge (tok/s)</text><circle cx="452" cy="20" r="3" fill="#b9bdca"/><text x="460" y="24" font-size="10.5" fill="#8a8fa3">all results</text><path d="M544.0 16.4L547.6 20.0L544.0 23.6L540.4 20.0Z" fill="#2b3a7a" opacity="1.0" stroke="none" stroke-width="0"/><text x="552" y="24" font-size="10.5" fill="#8a8fa3">verified</text><path d="M620.0 15.5L624.5 20.0L620.0 24.5L615.5 20.0Z" fill="#c5961a" opacity="1.0" stroke="#fff" stroke-width="1"/><text x="629" y="24" font-size="10.5" fill="#8a8fa3">mikasa-inbound (us)</text></svg>