<svg viewBox="0 0 1200 440" xmlns="http://www.w3.org/2000/svg" font-family="ui-sans-serif,system-ui,-apple-system,sans-serif"><rect x="0" y="0" width="1200" height="440" fill="#ffffff"/><rect x="60" y="46" width="972" height="350" fill="#f3f4fb"/><line x1="60" y1="396.0" x2="1032" y2="396.0" stroke="#e3e5ef" stroke-width="1"/><text x="52" y="400.0" text-anchor="end" font-size="11" fill="#8a8fa3">0</text><line x1="60" y1="332.4" x2="1032" y2="332.4" stroke="#e3e5ef" stroke-width="1"/><text x="52" y="336.4" text-anchor="end" font-size="11" fill="#8a8fa3">100</text><line x1="60" y1="268.7" x2="1032" y2="268.7" stroke="#e3e5ef" stroke-width="1"/><text x="52" y="272.7" text-anchor="end" font-size="11" fill="#8a8fa3">200</text><line x1="60" y1="205.1" x2="1032" y2="205.1" stroke="#e3e5ef" stroke-width="1"/><text x="52" y="209.1" text-anchor="end" font-size="11" fill="#8a8fa3">300</text><line x1="60" y1="141.5" x2="1032" y2="141.5" stroke="#e3e5ef" stroke-width="1"/><text x="52" y="145.5" text-anchor="end" font-size="11" fill="#8a8fa3">400</text><line x1="60" y1="77.8" x2="1032" y2="77.8" stroke="#e3e5ef" stroke-width="1"/><text x="52" y="81.8" text-anchor="end" font-size="11" fill="#8a8fa3">500</text><line x1="131.9" y1="46" x2="131.9" y2="396" stroke="#e3e5ef" stroke-width="1"/><text x="131.9" y="414.0" text-anchor="middle" font-size="11" fill="#8a8fa3">Jun 10</text><line x1="234.5" y1="46" x2="234.5" y2="396" stroke="#e3e5ef" stroke-width="1"/><text x="234.5" y="414.0" text-anchor="middle" font-size="11" fill="#8a8fa3">Jun 12</text><line x1="337.0" y1="46" x2="337.0" y2="396" stroke="#e3e5ef" stroke-width="1"/><text x="337.0" y="414.0" text-anchor="middle" font-size="11" fill="#8a8fa3">Jun 14</text><line x1="439.6" y1="46" x2="439.6" y2="396" stroke="#e3e5ef" stroke-width="1"/><text x="439.6" y="414.0" text-anchor="middle" font-size="11" fill="#8a8fa3">Jun 16</text><line x1="542.1" y1="46" x2="542.1" y2="396" stroke="#e3e5ef" stroke-width="1"/><text x="542.1" y="414.0" text-anchor="middle" font-size="11" fill="#8a8fa3">Jun 18</text><line x1="644.7" y1="46" x2="644.7" y2="396" stroke="#e3e5ef" stroke-width="1"/><text x="644.7" y="414.0" text-anchor="middle" font-size="11" fill="#8a8fa3">Jun 20</text><line x1="747.3" y1="46" x2="747.3" y2="396" stroke="#e3e5ef" stroke-width="1"/><text x="747.3" y="414.0" text-anchor="middle" font-size="11" fill="#8a8fa3">Jun 22</text><line x1="849.8" y1="46" x2="849.8" y2="396" stroke="#e3e5ef" stroke-width="1"/><text x="849.8" y="414.0" text-anchor="middle" font-size="11" fill="#8a8fa3">Jun 24</text><line x1="952.4" y1="46" x2="952.4" y2="396" stroke="#e3e5ef" stroke-width="1"/><text x="952.4" y="414.0" text-anchor="middle" font-size="11" fill="#8a8fa3">Jun 26</text><circle cx="60.0" cy="335.3" r="2.3" fill="#b9bdca" opacity="0.5"/><circle cx="62.5" cy="335.1" r="2.3" fill="#b9bdca" opacity="0.5"/><circle cx="64.9" cy="368.0" r="2.3" fill="#b9bdca" opacity="0.5"/><circle cx="65.9" cy="320.7" r="2.3" fill="#b9bdca" opacity="0.5"/><circle cx="72.7" cy="319.9" r="2.3" fill="#b9bdca" opacity="0.5"/><circle cx="73.1" cy="320.6" r="2.3" fill="#b9bdca" opacity="0.5"/><circle cx="75.3" cy="315.3" r="2.3" fill="#b9bdca" opacity="0.5"/><circle cx="75.8" cy="319.7" r="2.3" fill="#b9bdca" opacity="0.5"/><circle cx="76.0" cy="314.9" r="2.3" fill="#b9bdca" opacity="0.5"/><circle cx="76.8" cy="315.5" r="2.3" fill="#b9bdca" opacity="0.5"/><circle cx="77.1" cy="314.9" r="2.3" fill="#b9bdca" opacity="0.5"/><circle cx="77.8" cy="315.4" r="2.3" fill="#b9bdca" opacity="0.5"/><circle cx="79.1" cy="315.0" r="2.3" fill="#b9bdca" opacity="0.5"/><circle cx="117.9" cy="238.7" r="2.3" fill="#b9bdca" opacity="0.5"/><circle cx="118.2" cy="315.0" r="2.3" fill="#b9bdca" opacity="0.5"/><circle cx="118.6" cy="229.0" r="2.3" fill="#b9bdca" opacity="0.5"/><circle cx="119.2" cy="222.3" r="2.3" fill="#b9bdca" opacity="0.5"/><circle cx="119.8" cy="228.0" r="2.3" fill="#b9bdca" opacity="0.5"/><circle cx="119.9" cy="223.3" r="2.3" fill="#b9bdca" opacity="0.5"/><circle cx="120.0" cy="220.6" r="2.3" fill="#b9bdca" opacity="0.5"/><circle cx="120.2" cy="220.5" r="2.3" fill="#b9bdca" opacity="0.5"/><circle cx="120.3" cy="223.2" r="2.3" fill="#b9bdca" opacity="0.5"/><circle cx="120.6" cy="214.2" r="2.3" fill="#b9bdca" opacity="0.5"/><circle cx="120.7" cy="222.1" r="2.3" fill="#b9bdca" opacity="0.5"/><circle cx="121.0" cy="220.7" r="2.3" fill="#b9bdca" opacity="0.5"/><circle cx="121.4" cy="218.5" r="2.3" fill="#b9bdca" opacity="0.5"/><circle cx="121.6" cy="215.2" r="2.3" fill="#b9bdca" opacity="0.5"/><circle cx="121.9" cy="214.3" r="2.3" fill="#b9bdca" opacity="0.5"/><circle cx="121.9" cy="219.2" r="2.3" fill="#b9bdca" opacity="0.5"/><circle cx="122.2" cy="214.1" r="2.3" fill="#b9bdca" opacity="0.5"/><circle cx="122.4" cy="215.2" r="2.3" fill="#b9bdca" opacity="0.5"/><circle cx="122.6" cy="213.7" r="2.3" fill="#b9bdca" opacity="0.5"/><circle cx="123.0" cy="213.5" r="2.3" fill="#b9bdca" opacity="0.5"/><circle cx="123.2" cy="214.8" r="2.3" fill="#b9bdca" opacity="0.5"/><circle cx="123.2" cy="217.7" r="2.3" fill="#b9bdca" opacity="0.5"/><circle cx="123.4" cy="212.7" r="2.3" fill="#b9bdca" opacity="0.5"/><circle cx="124.0" cy="213.3" r="2.3" fill="#b9bdca" opacity="0.5"/><circle cx="124.7" cy="212.7" r="2.3" fill="#b9bdca" opacity="0.5"/><circle cx="124.7" cy="213.6" r="2.3" fill="#b9bdca" opacity="0.5"/><circle cx="125.0" cy="213.0" r="2.3" fill="#b9bdca" opacity="0.5"/><circle cx="125.4" cy="212.1" r="2.3" fill="#b9bdca" opacity="0.5"/><circle cx="125.5" cy="213.3" r="2.3" fill="#b9bdca" opacity="0.5"/><circle cx="126.0" cy="212.0" r="2.3" fill="#b9bdca" opacity="0.5"/><circle cx="126.7" cy="212.1" r="2.3" fill="#b9bdca" opacity="0.5"/><circle cx="126.7" cy="212.8" r="2.3" fill="#b9bdca" opacity="0.5"/><circle cx="131.4" cy="206.7" r="2.3" fill="#b9bdca" opacity="0.5"/><circle cx="132.0" cy="206.8" r="2.3" fill="#b9bdca" opacity="0.5"/><circle cx="132.0" cy="212.5" r="2.3" fill="#b9bdca" opacity="0.5"/><circle cx="132.4" cy="207.2" r="2.3" fill="#b9bdca" opacity="0.5"/><circle cx="133.9" cy="207.0" r="2.3" fill="#b9bdca" opacity="0.5"/><circle cx="137.5" cy="204.9" r="2.3" fill="#b9bdca" opacity="0.5"/><circle cx="139.8" cy="204.6" r="2.3" fill="#b9bdca" opacity="0.5"/><circle cx="140.0" cy="212.3" r="2.3" fill="#b9bdca" opacity="0.5"/><circle cx="140.4" cy="204.6" r="2.3" fill="#b9bdca" opacity="0.5"/><circle cx="140.4" cy="204.6" r="2.3" fill="#b9bdca" opacity="0.5"/><circle cx="140.4" cy="204.9" r="2.3" fill="#b9bdca" opacity="0.5"/><circle cx="140.4" cy="204.9" r="2.3" fill="#b9bdca" opacity="0.5"/><circle cx="141.3" cy="201.9" r="2.3" fill="#b9bdca" opacity="0.5"/><circle cx="142.7" cy="206.5" r="2.3" fill="#b9bdca" opacity="0.5"/><circle cx="143.3" cy="205.8" r="2.3" fill="#b9bdca" opacity="0.5"/><circle cx="143.3" cy="335.1" r="2.3" fill="#b9bdca" opacity="0.5"/><circle cx="144.0" cy="201.8" r="2.3" fill="#b9bdca" opacity="0.5"/><circle cx="144.0" cy="202.2" r="2.3" fill="#b9bdca" opacity="0.5"/><circle cx="145.4" cy="201.0" r="2.3" fill="#b9bdca" opacity="0.5"/><circle cx="145.9" cy="203.1" r="2.3" fill="#b9bdca" opacity="0.5"/><circle cx="146.2" cy="200.0" r="2.3" fill="#b9bdca" opacity="0.5"/><circle cx="146.2" cy="204.6" r="2.3" fill="#b9bdca" opacity="0.5"/><circle cx="147.0" cy="202.3" r="2.3" fill="#b9bdca" opacity="0.5"/><circle cx="148.8" cy="200.4" r="2.3" fill="#b9bdca" opacity="0.5"/><circle cx="149.4" cy="200.7" r="2.3" fill="#b9bdca" opacity="0.5"/><circle cx="150.1" cy="200.0" r="2.3" fill="#b9bdca" opacity="0.5"/><circle cx="151.7" cy="199.7" r="2.3" fill="#b9bdca" opacity="0.5"/><circle cx="161.5" cy="200.6" r="2.3" fill="#b9bdca" opacity="0.5"/><circle cx="162.4" cy="201.8" r="2.3" fill="#b9bdca" opacity="0.5"/><circle cx="163.7" cy="208.4" r="2.3" fill="#b9bdca" opacity="0.5"/><circle cx="163.8" cy="200.8" r="2.3" fill="#b9bdca" opacity="0.5"/><circle cx="164.7" cy="200.7" r="2.3" fill="#b9bdca" opacity="0.5"/><circle cx="164.7" cy="201.9" r="2.3" fill="#b9bdca" opacity="0.5"/><circle cx="165.1" cy="195.5" r="2.3" fill="#b9bdca" opacity="0.5"/><circle cx="166.0" cy="196.9" r="2.3" fill="#b9bdca" opacity="0.5"/><circle cx="166.4" cy="197.9" r="2.3" fill="#b9bdca" opacity="0.5"/><circle cx="167.3" cy="196.1" r="2.3" fill="#b9bdca" opacity="0.5"/><circle cx="170.3" cy="197.3" r="2.3" fill="#b9bdca" opacity="0.5"/><circle cx="171.1" cy="195.9" r="2.3" fill="#b9bdca" opacity="0.5"/><circle cx="171.4" cy="201.0" r="2.3" fill="#b9bdca" opacity="0.5"/><circle cx="171.7" cy="197.5" r="2.3" fill="#b9bdca" opacity="0.5"/><circle cx="172.4" cy="196.9" r="2.3" fill="#b9bdca" opacity="0.5"/><circle cx="172.4" cy="197.1" r="2.3" fill="#b9bdca" opacity="0.5"/><circle cx="172.5" cy="197.0" r="2.3" fill="#b9bdca" opacity="0.5"/><circle cx="173.1" cy="196.0" r="2.3" fill="#b9bdca" opacity="0.5"/><circle cx="173.1" cy="196.0" r="2.3" fill="#b9bdca" opacity="0.5"/><circle cx="173.2" cy="197.9" r="2.3" fill="#b9bdca" opacity="0.5"/><circle cx="173.7" cy="197.8" r="2.3" fill="#b9bdca" opacity="0.5"/><circle cx="174.1" cy="196.2" r="2.3" fill="#b9bdca" opacity="0.5"/><circle cx="174.2" cy="197.5" r="2.3" fill="#b9bdca" opacity="0.5"/><circle cx="174.3" cy="196.9" r="2.3" fill="#b9bdca" opacity="0.5"/><circle cx="174.4" cy="195.5" r="2.3" fill="#b9bdca" opacity="0.5"/><circle cx="175.0" cy="198.1" r="2.3" fill="#b9bdca" opacity="0.5"/><circle cx="175.1" cy="187.4" r="2.3" fill="#b9bdca" opacity="0.5"/><circle cx="175.3" cy="186.2" r="2.3" fill="#b9bdca" opacity="0.5"/><circle cx="175.3" cy="196.3" r="2.3" fill="#b9bdca" opacity="0.5"/><circle cx="175.3" cy="197.2" r="2.3" fill="#b9bdca" opacity="0.5"/><circle cx="175.3" cy="197.8" r="2.3" fill="#b9bdca" opacity="0.5"/><circle cx="175.3" cy="368.0" r="2.3" fill="#b9bdca" opacity="0.5"/><circle cx="176.0" cy="184.5" r="2.3" fill="#b9bdca" opacity="0.5"/><circle cx="178.7" cy="184.6" r="2.3" fill="#b9bdca" opacity="0.5"/><circle cx="179.8" cy="185.6" r="2.3" fill="#b9bdca" opacity="0.5"/><circle cx="183.6" cy="188.7" r="2.3" fill="#b9bdca" opacity="0.5"/><circle cx="188.8" cy="185.4" r="2.3" fill="#b9bdca" opacity="0.5"/><circle cx="190.0" cy="185.2" r="2.3" fill="#b9bdca" opacity="0.5"/><circle cx="190.4" cy="186.6" r="2.3" fill="#b9bdca" opacity="0.5"/><circle cx="190.5" cy="185.3" r="2.3" fill="#b9bdca" opacity="0.5"/><circle cx="191.4" cy="185.3" r="2.3" fill="#b9bdca" opacity="0.5"/><circle cx="191.8" cy="185.0" r="2.3" fill="#b9bdca" opacity="0.5"/><circle cx="192.7" cy="184.9" r="2.3" fill="#b9bdca" opacity="0.5"/><circle cx="193.3" cy="185.1" r="2.3" fill="#b9bdca" opacity="0.5"/><circle cx="193.3" cy="185.2" r="2.3" fill="#b9bdca" opacity="0.5"/><circle cx="193.3" cy="186.4" r="2.3" fill="#b9bdca" opacity="0.5"/><circle cx="193.4" cy="183.9" r="2.3" fill="#b9bdca" opacity="0.5"/><circle cx="198.2" cy="184.4" r="2.3" fill="#b9bdca" opacity="0.5"/><circle cx="199.0" cy="184.2" r="2.3" fill="#b9bdca" opacity="0.5"/><circle cx="202.1" cy="169.3" r="2.3" fill="#b9bdca" opacity="0.5"/><circle cx="204.9" cy="168.8" r="2.3" fill="#b9bdca" opacity="0.5"/><circle cx="205.2" cy="167.7" r="2.3" fill="#b9bdca" opacity="0.5"/><circle cx="206.4" cy="201.4" r="2.3" fill="#b9bdca" opacity="0.5"/><circle cx="206.8" cy="165.0" r="2.3" fill="#b9bdca" opacity="0.5"/><circle cx="207.0" cy="198.2" r="2.3" fill="#b9bdca" opacity="0.5"/><circle cx="207.4" cy="163.7" r="2.3" fill="#b9bdca" opacity="0.5"/><circle cx="207.6" cy="163.6" r="2.3" fill="#b9bdca" opacity="0.5"/><circle cx="208.1" cy="165.9" r="2.3" fill="#b9bdca" opacity="0.5"/><circle cx="210.7" cy="165.1" r="2.3" fill="#b9bdca" opacity="0.5"/><circle cx="211.3" cy="155.9" r="2.3" fill="#b9bdca" opacity="0.5"/><circle cx="213.8" cy="196.5" r="2.3" fill="#b9bdca" opacity="0.5"/><circle cx="214.8" cy="157.4" r="2.3" fill="#b9bdca" opacity="0.5"/><circle cx="215.8" cy="155.8" r="2.3" fill="#b9bdca" opacity="0.5"/><circle cx="217.5" cy="141.9" r="2.3" fill="#b9bdca" opacity="0.5"/><circle cx="220.9" cy="156.1" r="2.3" fill="#b9bdca" opacity="0.5"/><circle cx="220.9" cy="156.4" r="2.3" fill="#b9bdca" opacity="0.5"/><circle cx="221.1" cy="141.8" r="2.3" fill="#b9bdca" opacity="0.5"/><circle cx="221.2" cy="196.0" r="2.3" fill="#b9bdca" opacity="0.5"/><circle cx="222.4" cy="131.7" r="2.3" fill="#b9bdca" opacity="0.5"/><circle cx="222.5" cy="134.1" r="2.3" fill="#b9bdca" opacity="0.5"/><circle cx="222.9" cy="141.1" r="2.3" fill="#b9bdca" opacity="0.5"/><circle cx="223.5" cy="134.0" r="2.3" fill="#b9bdca" opacity="0.5"/><circle cx="223.6" cy="130.9" r="2.3" fill="#b9bdca" opacity="0.5"/><circle cx="223.6" cy="154.2" r="2.3" fill="#b9bdca" opacity="0.5"/><circle cx="223.8" cy="133.6" r="2.3" fill="#b9bdca" opacity="0.5"/><circle cx="224.1" cy="129.5" r="2.3" fill="#b9bdca" opacity="0.5"/><circle cx="224.1" cy="130.9" r="2.3" fill="#b9bdca" opacity="0.5"/><circle cx="224.1" cy="133.4" r="2.3" fill="#b9bdca" opacity="0.5"/><circle cx="224.4" cy="131.2" r="2.3" fill="#b9bdca" opacity="0.5"/><circle cx="226.5" cy="189.8" r="2.3" fill="#b9bdca" opacity="0.5"/><circle cx="226.6" cy="133.2" r="2.3" fill="#b9bdca" opacity="0.5"/><circle cx="226.9" cy="133.5" r="2.3" fill="#b9bdca" opacity="0.5"/><circle cx="227.7" cy="130.1" r="2.3" fill="#b9bdca" opacity="0.5"/><circle cx="229.8" cy="130.3" r="2.3" fill="#b9bdca" opacity="0.5"/><circle cx="230.8" cy="303.1" r="2.3" fill="#b9bdca" opacity="0.5"/><circle cx="232.5" cy="133.2" r="2.3" fill="#b9bdca" opacity="0.5"/><circle cx="234.8" cy="144.2" r="2.3" fill="#b9bdca" opacity="0.5"/><circle cx="235.3" cy="135.3" r="2.3" fill="#b9bdca" opacity="0.5"/><circle cx="236.7" cy="133.4" r="2.3" fill="#b9bdca" opacity="0.5"/><circle cx="236.9" cy="159.9" r="2.3" fill="#b9bdca" opacity="0.5"/><circle cx="237.2" cy="130.8" r="2.3" fill="#b9bdca" opacity="0.5"/><circle cx="237.8" cy="133.2" r="2.3" fill="#b9bdca" opacity="0.5"/><circle cx="243.0" cy="130.9" r="2.3" fill="#b9bdca" opacity="0.5"/><circle cx="243.6" cy="130.9" r="2.3" fill="#b9bdca" opacity="0.5"/><circle cx="243.6" cy="133.8" r="2.3" fill="#b9bdca" opacity="0.5"/><circle cx="244.4" cy="130.4" r="2.3" fill="#b9bdca" opacity="0.5"/><circle cx="245.0" cy="153.7" r="2.3" fill="#b9bdca" opacity="0.5"/><circle cx="246.0" cy="133.3" r="2.3" fill="#b9bdca" opacity="0.5"/><circle cx="247.6" cy="156.5" r="2.3" fill="#b9bdca" opacity="0.5"/><circle cx="247.9" cy="132.3" r="2.3" fill="#b9bdca" opacity="0.5"/><circle cx="249.8" cy="147.2" r="2.3" fill="#b9bdca" opacity="0.5"/><circle cx="250.1" cy="133.6" r="2.3" fill="#b9bdca" opacity="0.5"/><circle cx="250.8" cy="129.5" r="2.3" fill="#b9bdca" opacity="0.5"/><circle cx="250.8" cy="133.3" r="2.3" fill="#b9bdca" opacity="0.5"/><circle cx="253.1" cy="133.3" r="2.3" fill="#b9bdca" opacity="0.5"/><circle cx="254.6" cy="129.5" r="2.3" fill="#b9bdca" opacity="0.5"/><circle cx="257.3" cy="130.6" r="2.3" fill="#b9bdca" opacity="0.5"/><circle cx="259.2" cy="128.9" r="2.3" fill="#b9bdca" opacity="0.5"/><circle cx="259.6" cy="132.7" r="2.3" fill="#b9bdca" opacity="0.5"/><circle cx="259.6" cy="133.1" r="2.3" fill="#b9bdca" opacity="0.5"/><circle cx="262.6" cy="129.8" r="2.3" fill="#b9bdca" opacity="0.5"/><circle cx="263.4" cy="333.8" r="2.3" fill="#b9bdca" opacity="0.5"/><circle cx="263.6" cy="128.4" r="2.3" fill="#b9bdca" opacity="0.5"/><circle cx="265.0" cy="129.8" r="2.3" fill="#b9bdca" opacity="0.5"/><circle cx="265.5" cy="128.9" r="2.3" fill="#b9bdca" opacity="0.5"/><circle cx="265.7" cy="128.9" r="2.3" fill="#b9bdca" opacity="0.5"/><circle cx="266.7" cy="128.2" r="2.3" fill="#b9bdca" opacity="0.5"/><circle cx="267.4" cy="129.7" r="2.3" fill="#b9bdca" opacity="0.5"/><circle cx="267.6" cy="142.3" r="2.3" fill="#b9bdca" opacity="0.5"/><circle cx="270.4" cy="128.8" r="2.3" fill="#b9bdca" opacity="0.5"/><circle cx="272.1" cy="161.1" r="2.3" fill="#b9bdca" opacity="0.5"/><circle cx="275.2" cy="164.4" r="2.3" fill="#b9bdca" opacity="0.5"/><circle cx="275.5" cy="248.3" r="2.3" fill="#b9bdca" opacity="0.5"/><circle cx="280.0" cy="135.4" r="2.3" fill="#b9bdca" opacity="0.5"/><circle cx="280.4" cy="128.0" r="2.3" fill="#b9bdca" opacity="0.5"/><circle cx="281.8" cy="229.0" r="2.3" fill="#b9bdca" opacity="0.5"/><circle cx="285.0" cy="128.1" r="2.3" fill="#b9bdca" opacity="0.5"/><circle cx="285.8" cy="128.6" r="2.3" fill="#b9bdca" opacity="0.5"/><circle cx="288.7" cy="128.8" r="2.3" fill="#b9bdca" opacity="0.5"/><circle cx="288.7" cy="129.6" r="2.3" fill="#b9bdca" opacity="0.5"/><circle cx="288.7" cy="130.9" r="2.3" fill="#b9bdca" opacity="0.5"/><circle cx="294.9" cy="112.8" r="2.3" fill="#b9bdca" opacity="0.5"/><circle cx="298.1" cy="110.2" r="2.3" fill="#b9bdca" opacity="0.5"/><circle cx="298.2" cy="111.6" r="2.3" fill="#b9bdca" opacity="0.5"/><circle cx="300.2" cy="111.0" r="2.3" fill="#b9bdca" opacity="0.5"/><circle cx="301.2" cy="335.1" r="2.3" fill="#b9bdca" opacity="0.5"/><circle cx="301.7" cy="111.6" r="2.3" fill="#b9bdca" opacity="0.5"/><circle cx="303.7" cy="105.5" r="2.3" fill="#b9bdca" opacity="0.5"/><circle cx="304.0" cy="108.5" r="2.3" fill="#b9bdca" opacity="0.5"/><circle cx="304.9" cy="105.1" r="2.3" fill="#b9bdca" opacity="0.5"/><circle cx="305.8" cy="103.8" r="2.3" fill="#b9bdca" opacity="0.5"/><circle cx="306.9" cy="125.8" r="2.3" fill="#b9bdca" opacity="0.5"/><circle cx="315.7" cy="103.5" r="2.3" fill="#b9bdca" opacity="0.5"/><circle cx="318.0" cy="127.8" r="2.3" fill="#b9bdca" opacity="0.5"/><circle cx="319.0" cy="334.3" r="2.3" fill="#b9bdca" opacity="0.5"/><circle cx="320.4" cy="128.6" r="2.3" fill="#b9bdca" opacity="0.5"/><circle cx="321.0" cy="128.6" r="2.3" fill="#b9bdca" opacity="0.5"/><circle cx="321.2" cy="128.6" r="2.3" fill="#b9bdca" opacity="0.5"/><circle cx="322.0" cy="256.6" r="2.3" fill="#b9bdca" opacity="0.5"/><circle cx="323.0" cy="254.6" r="2.3" fill="#b9bdca" opacity="0.5"/><circle cx="324.6" cy="128.6" r="2.3" fill="#b9bdca" opacity="0.5"/><circle cx="328.7" cy="250.1" r="2.3" fill="#b9bdca" opacity="0.5"/><circle cx="329.0" cy="161.4" r="2.3" fill="#b9bdca" opacity="0.5"/><circle cx="329.5" cy="206.6" r="2.3" fill="#b9bdca" opacity="0.5"/><circle cx="333.2" cy="113.5" r="2.3" fill="#b9bdca" opacity="0.5"/><circle cx="334.5" cy="89.6" r="2.3" fill="#b9bdca" opacity="0.5"/><circle cx="335.4" cy="90.2" r="2.3" fill="#b9bdca" opacity="0.5"/><circle cx="337.8" cy="89.3" r="2.3" fill="#b9bdca" opacity="0.5"/><circle cx="338.4" cy="87.6" r="2.3" fill="#b9bdca" opacity="0.5"/><circle cx="339.2" cy="185.0" r="2.3" fill="#b9bdca" opacity="0.5"/><circle cx="340.0" cy="131.6" r="2.3" fill="#b9bdca" opacity="0.5"/><circle cx="340.7" cy="87.8" r="2.3" fill="#b9bdca" opacity="0.5"/><circle cx="341.8" cy="85.4" r="2.3" fill="#b9bdca" opacity="0.5"/><circle cx="343.4" cy="86.8" r="2.3" fill="#b9bdca" opacity="0.5"/><circle cx="345.1" cy="88.4" r="2.3" fill="#b9bdca" opacity="0.5"/><circle cx="352.2" cy="89.5" r="2.3" fill="#b9bdca" opacity="0.5"/><circle cx="352.2" cy="155.6" r="2.3" fill="#b9bdca" opacity="0.5"/><circle cx="352.3" cy="84.4" r="2.3" fill="#b9bdca" opacity="0.5"/><circle cx="360.6" cy="89.2" r="2.3" fill="#b9bdca" opacity="0.5"/><circle cx="360.8" cy="90.5" r="2.3" fill="#b9bdca" opacity="0.5"/><circle cx="363.2" cy="87.7" r="2.3" fill="#b9bdca" opacity="0.5"/><circle cx="363.9" cy="367.9" r="2.3" fill="#b9bdca" opacity="0.5"/><circle cx="367.4" cy="164.3" r="2.3" fill="#b9bdca" opacity="0.5"/><circle cx="369.0" cy="94.6" r="2.3" fill="#b9bdca" opacity="0.5"/><circle cx="369.7" cy="89.6" r="2.3" fill="#b9bdca" opacity="0.5"/><circle cx="376.9" cy="124.6" r="2.3" fill="#b9bdca" opacity="0.5"/><circle cx="384.7" cy="146.2" r="2.3" fill="#b9bdca" opacity="0.5"/><circle cx="384.9" cy="90.5" r="2.3" fill="#b9bdca" opacity="0.5"/><circle cx="385.6" cy="87.7" r="2.3" fill="#b9bdca" opacity="0.5"/><circle cx="386.0" cy="87.7" r="2.3" fill="#b9bdca" opacity="0.5"/><circle cx="386.0" cy="89.6" r="2.3" fill="#b9bdca" opacity="0.5"/><circle cx="391.5" cy="93.0" r="2.3" fill="#b9bdca" opacity="0.5"/><circle cx="393.5" cy="85.5" r="2.3" fill="#b9bdca" opacity="0.5"/><circle cx="409.7" cy="334.8" r="2.3" fill="#b9bdca" opacity="0.5"/><circle cx="411.6" cy="86.3" r="2.3" fill="#b9bdca" opacity="0.5"/><circle cx="417.0" cy="85.5" r="2.3" fill="#b9bdca" opacity="0.5"/><circle cx="418.0" cy="84.6" r="2.3" fill="#b9bdca" opacity="0.5"/><circle cx="420.3" cy="87.8" r="2.3" fill="#b9bdca" opacity="0.5"/><circle cx="421.2" cy="84.4" r="2.3" fill="#b9bdca" opacity="0.5"/><circle cx="421.7" cy="84.8" r="2.3" fill="#b9bdca" opacity="0.5"/><circle cx="423.3" cy="87.4" r="2.3" fill="#b9bdca" opacity="0.5"/><circle cx="432.1" cy="84.4" r="2.3" fill="#b9bdca" opacity="0.5"/><circle cx="470.3" cy="89.3" r="2.3" fill="#b9bdca" opacity="0.5"/><circle cx="477.3" cy="88.6" r="2.3" fill="#b9bdca" opacity="0.5"/><circle cx="477.3" cy="92.1" r="2.3" fill="#b9bdca" opacity="0.5"/><circle cx="478.7" cy="156.8" r="2.3" fill="#b9bdca" opacity="0.5"/><circle cx="500.8" cy="201.6" r="2.3" fill="#b9bdca" opacity="0.5"/><circle cx="516.9" cy="315.6" r="2.3" fill="#b9bdca" opacity="0.5"/><circle cx="561.0" cy="87.7" r="2.3" fill="#b9bdca" opacity="0.5"/><circle cx="574.4" cy="87.6" r="2.3" fill="#b9bdca" opacity="0.5"/><circle cx="586.3" cy="87.2" r="2.3" fill="#b9bdca" opacity="0.5"/><circle cx="589.0" cy="88.8" r="2.3" fill="#b9bdca" opacity="0.5"/><circle cx="590.0" cy="89.2" r="2.3" fill="#b9bdca" opacity="0.5"/><circle cx="590.6" cy="90.9" r="2.3" fill="#b9bdca" opacity="0.5"/><circle cx="594.0" cy="87.7" r="2.3" fill="#b9bdca" opacity="0.5"/><circle cx="605.9" cy="88.6" r="2.3" fill="#b9bdca" opacity="0.5"/><circle cx="607.4" cy="89.7" r="2.3" fill="#b9bdca" opacity="0.5"/><circle cx="608.5" cy="88.2" r="2.3" fill="#b9bdca" opacity="0.5"/><circle cx="630.8" cy="75.8" r="2.3" fill="#b9bdca" opacity="0.5"/><circle cx="632.6" cy="75.7" r="2.3" fill="#b9bdca" opacity="0.5"/><circle cx="633.9" cy="76.7" r="2.3" fill="#b9bdca" opacity="0.5"/><circle cx="634.0" cy="75.8" r="2.3" fill="#b9bdca" opacity="0.5"/><circle cx="634.7" cy="75.3" r="2.3" fill="#b9bdca" opacity="0.5"/><circle cx="635.0" cy="74.7" r="2.3" fill="#b9bdca" opacity="0.5"/><circle cx="635.2" cy="83.4" r="2.3" fill="#b9bdca" opacity="0.5"/><circle cx="635.8" cy="76.2" r="2.3" fill="#b9bdca" opacity="0.5"/><circle cx="636.3" cy="78.1" r="2.3" fill="#b9bdca" opacity="0.5"/><circle cx="636.8" cy="74.7" r="2.3" fill="#b9bdca" opacity="0.5"/><circle cx="640.5" cy="89.3" r="2.3" fill="#b9bdca" opacity="0.5"/><circle cx="648.0" cy="74.4" r="2.3" fill="#b9bdca" opacity="0.5"/><circle cx="659.9" cy="74.4" r="2.3" fill="#b9bdca" opacity="0.5"/><circle cx="661.8" cy="335.1" r="2.3" fill="#b9bdca" opacity="0.5"/><circle cx="661.8" cy="81.7" r="2.3" fill="#b9bdca" opacity="0.5"/><circle cx="663.2" cy="74.6" r="2.3" fill="#b9bdca" opacity="0.5"/><circle cx="663.2" cy="82.1" r="2.3" fill="#b9bdca" opacity="0.5"/><circle cx="663.3" cy="73.9" r="2.3" fill="#b9bdca" opacity="0.5"/><circle cx="666.7" cy="76.2" r="2.3" fill="#b9bdca" opacity="0.5"/><circle cx="667.2" cy="82.1" r="2.3" fill="#b9bdca" opacity="0.5"/><circle cx="667.7" cy="74.2" r="2.3" fill="#b9bdca" opacity="0.5"/><circle cx="667.7" cy="75.0" r="2.3" fill="#b9bdca" opacity="0.5"/><circle cx="668.4" cy="73.6" r="2.3" fill="#b9bdca" opacity="0.5"/><circle cx="668.5" cy="83.3" r="2.3" fill="#b9bdca" opacity="0.5"/><circle cx="668.5" cy="83.8" r="2.3" fill="#b9bdca" opacity="0.5"/><circle cx="668.5" cy="78.1" r="2.3" fill="#b9bdca" opacity="0.5"/><circle cx="668.5" cy="81.5" r="2.3" fill="#b9bdca" opacity="0.5"/><circle cx="668.5" cy="83.0" r="2.3" fill="#b9bdca" opacity="0.5"/><circle cx="668.5" cy="83.7" r="2.3" fill="#b9bdca" opacity="0.5"/><circle cx="673.2" cy="82.7" r="2.3" fill="#b9bdca" opacity="0.5"/><circle cx="674.3" cy="77.8" r="2.3" fill="#b9bdca" opacity="0.5"/><circle cx="676.7" cy="69.8" r="2.3" fill="#b9bdca" opacity="0.5"/><circle cx="677.5" cy="75.9" r="2.3" fill="#b9bdca" opacity="0.5"/><circle cx="677.8" cy="74.3" r="2.3" fill="#b9bdca" opacity="0.5"/><circle cx="677.8" cy="77.4" r="2.3" fill="#b9bdca" opacity="0.5"/><circle cx="677.8" cy="80.6" r="2.3" fill="#b9bdca" opacity="0.5"/><circle cx="677.8" cy="81.8" r="2.3" fill="#b9bdca" opacity="0.5"/><circle cx="679.6" cy="76.9" r="2.3" fill="#b9bdca" opacity="0.5"/><circle cx="679.6" cy="82.8" r="2.3" fill="#b9bdca" opacity="0.5"/><circle cx="679.6" cy="83.0" r="2.3" fill="#b9bdca" opacity="0.5"/><circle cx="679.6" cy="83.1" r="2.3" fill="#b9bdca" opacity="0.5"/><circle cx="680.3" cy="69.1" r="2.3" fill="#b9bdca" opacity="0.5"/><circle cx="682.3" cy="75.5" r="2.3" fill="#b9bdca" opacity="0.5"/><circle cx="683.3" cy="74.3" r="2.3" fill="#b9bdca" opacity="0.5"/><circle cx="713.4" cy="74.0" r="2.3" fill="#b9bdca" opacity="0.5"/><circle cx="749.0" cy="73.4" r="2.3" fill="#b9bdca" opacity="0.5"/><circle cx="749.4" cy="75.9" r="2.3" fill="#b9bdca" opacity="0.5"/><circle cx="749.4" cy="76.3" r="2.3" fill="#b9bdca" opacity="0.5"/><circle cx="749.6" cy="76.0" r="2.3" fill="#b9bdca" opacity="0.5"/><circle cx="749.6" cy="76.8" r="2.3" fill="#b9bdca" opacity="0.5"/><circle cx="749.6" cy="81.2" r="2.3" fill="#b9bdca" opacity="0.5"/><circle cx="749.6" cy="83.4" r="2.3" fill="#b9bdca" opacity="0.5"/><circle cx="774.9" cy="76.6" r="2.3" fill="#b9bdca" opacity="0.5"/><circle cx="776.6" cy="76.7" r="2.3" fill="#b9bdca" opacity="0.5"/><circle cx="776.6" cy="82.8" r="2.3" fill="#b9bdca" opacity="0.5"/><circle cx="776.6" cy="82.8" r="2.3" fill="#b9bdca" opacity="0.5"/><circle cx="776.6" cy="83.3" r="2.3" fill="#b9bdca" opacity="0.5"/><circle cx="781.8" cy="233.4" r="2.3" fill="#b9bdca" opacity="0.5"/><circle cx="783.4" cy="228.9" r="2.3" fill="#b9bdca" opacity="0.5"/><circle cx="785.0" cy="198.3" r="2.3" fill="#b9bdca" opacity="0.5"/><circle cx="817.8" cy="73.4" r="2.3" fill="#b9bdca" opacity="0.5"/><circle cx="827.0" cy="192.4" r="2.3" fill="#b9bdca" opacity="0.5"/><circle cx="830.2" cy="75.3" r="2.3" fill="#b9bdca" opacity="0.5"/><circle cx="831.0" cy="74.0" r="2.3" fill="#b9bdca" opacity="0.5"/><circle cx="833.0" cy="194.4" r="2.3" fill="#b9bdca" opacity="0.5"/><circle cx="836.2" cy="168.6" r="2.3" fill="#b9bdca" opacity="0.5"/><circle cx="838.2" cy="77.1" r="2.3" fill="#b9bdca" opacity="0.5"/><circle cx="838.2" cy="99.5" r="2.3" fill="#b9bdca" opacity="0.5"/><circle cx="863.6" cy="71.4" r="2.3" fill="#b9bdca" opacity="0.5"/><circle cx="863.6" cy="73.5" r="2.3" fill="#b9bdca" opacity="0.5"/><circle cx="872.6" cy="72.4" r="2.3" fill="#b9bdca" opacity="0.5"/><circle cx="909.5" cy="83.0" r="2.3" fill="#b9bdca" opacity="0.5"/><circle cx="910.0" cy="72.1" r="2.3" fill="#b9bdca" opacity="0.5"/><circle cx="910.6" cy="71.6" r="2.3" fill="#b9bdca" opacity="0.5"/><circle cx="911.7" cy="75.5" r="2.3" fill="#b9bdca" opacity="0.5"/><circle cx="912.3" cy="73.7" r="2.3" fill="#b9bdca" opacity="0.5"/><circle cx="913.9" cy="72.9" r="2.3" fill="#b9bdca" opacity="0.5"/><circle cx="914.6" cy="73.4" r="2.3" fill="#b9bdca" opacity="0.5"/><circle cx="986.8" cy="85.2" r="2.3" fill="#b9bdca" opacity="0.5"/><circle cx="986.8" cy="256.6" r="2.3" fill="#b9bdca" opacity="0.5"/><circle cx="986.8" cy="335.3" r="2.3" fill="#b9bdca" opacity="0.5"/><circle cx="987.3" cy="86.8" r="2.3" fill="#b9bdca" opacity="0.5"/><circle cx="987.9" cy="71.5" r="2.3" fill="#b9bdca" opacity="0.5"/><circle cx="989.9" cy="71.0" r="2.3" fill="#b9bdca" opacity="0.5"/><circle cx="990.9" cy="71.5" r="2.3" fill="#b9bdca" opacity="0.5"/><circle cx="991.1" cy="55.0" r="2.3" fill="#b9bdca" opacity="0.5"/><circle cx="1001.2" cy="83.1" r="2.3" fill="#b9bdca" opacity="0.5"/><circle cx="1003.7" cy="74.7" r="2.3" fill="#b9bdca" opacity="0.5"/><circle cx="1003.8" cy="59.3" r="2.3" fill="#b9bdca" opacity="0.5"/><circle cx="1003.8" cy="79.9" r="2.3" fill="#b9bdca" opacity="0.5"/><circle cx="1004.1" cy="74.1" r="2.3" fill="#b9bdca" opacity="0.5"/><circle cx="1004.6" cy="72.7" r="2.3" fill="#b9bdca" opacity="0.5"/><circle cx="1004.6" cy="73.8" r="2.3" fill="#b9bdca" opacity="0.5"/><circle cx="1004.6" cy="75.9" r="2.3" fill="#b9bdca" opacity="0.5"/><circle cx="1005.1" cy="74.1" r="2.3" fill="#b9bdca" opacity="0.5"/><circle cx="1005.7" cy="73.5" r="2.3" fill="#b9bdca" opacity="0.5"/><circle cx="1006.3" cy="74.2" r="2.3" fill="#b9bdca" opacity="0.5"/><circle cx="1006.8" cy="71.5" r="2.3" fill="#b9bdca" opacity="0.5"/><circle cx="1008.3" cy="74.3" r="2.3" fill="#b9bdca" opacity="0.5"/><circle cx="1016.4" cy="73.2" r="2.3" fill="#b9bdca" opacity="0.5"/><circle cx="1016.4" cy="73.6" r="2.3" fill="#b9bdca" opacity="0.5"/><circle cx="1016.4" cy="73.8" r="2.3" fill="#b9bdca" opacity="0.5"/><circle cx="1032.0" cy="73.3" r="2.3" fill="#b9bdca" opacity="0.5"/><circle cx="1032.0" cy="73.4" r="2.3" fill="#b9bdca" opacity="0.5"/><path d="M211.3 152.3L214.9 155.9L211.3 159.5L207.7 155.9Z" fill="#2b3a7a" opacity="0.8" stroke="none" stroke-width="0"/><path d="M221.1 138.2L224.7 141.8L221.1 145.4L217.5 141.8Z" fill="#2b3a7a" opacity="0.8" stroke="none" stroke-width="0"/><path d="M222.4 128.1L226.0 131.7L222.4 135.3L218.8 131.7Z" fill="#2b3a7a" opacity="0.8" stroke="none" stroke-width="0"/><path d="M222.5 130.5L226.1 134.1L222.5 137.7L218.9 134.1Z" fill="#2b3a7a" opacity="0.8" stroke="none" stroke-width="0"/><path d="M223.6 127.3L227.2 130.9L223.6 134.5L220.0 130.9Z" fill="#2b3a7a" opacity="0.8" stroke="none" stroke-width="0"/><path d="M224.1 125.9L227.7 129.5L224.1 133.1L220.5 129.5Z" fill="#2b3a7a" opacity="0.8" stroke="none" stroke-width="0"/><path d="M224.1 127.3L227.7 130.9L224.1 134.5L220.5 130.9Z" fill="#2b3a7a" opacity="0.8" stroke="none" stroke-width="0"/><path d="M254.6 125.9L258.2 129.5L254.6 133.1L251.0 129.5Z" fill="#2b3a7a" opacity="0.8" stroke="none" stroke-width="0"/><path d="M259.2 125.3L262.8 128.9L259.2 132.5L255.6 128.9Z" fill="#2b3a7a" opacity="0.8" stroke="none" stroke-width="0"/><path d="M263.6 124.8L267.2 128.4L263.6 132.0L260.0 128.4Z" fill="#2b3a7a" opacity="0.8" stroke="none" stroke-width="0"/><path d="M266.7 124.6L270.3 128.2L266.7 131.8L263.1 128.2Z" fill="#2b3a7a" opacity="0.8" stroke="none" stroke-width="0"/><path d="M280.4 124.4L284.0 128.0L280.4 131.6L276.8 128.0Z" fill="#2b3a7a" opacity="0.8" stroke="none" stroke-width="0"/><path d="M294.9 109.2L298.5 112.8L294.9 116.4L291.3 112.8Z" fill="#2b3a7a" opacity="0.8" stroke="none" stroke-width="0"/><path d="M301.7 108.0L305.3 111.6L301.7 115.2L298.1 111.6Z" fill="#2b3a7a" opacity="0.8" stroke="none" stroke-width="0"/><path d="M303.7 101.9L307.3 105.5L303.7 109.1L300.1 105.5Z" fill="#2b3a7a" opacity="0.8" stroke="none" stroke-width="0"/><path d="M304.0 104.9L307.6 108.5L304.0 112.1L300.4 108.5Z" fill="#2b3a7a" opacity="0.8" stroke="none" stroke-width="0"/><path d="M304.9 101.5L308.5 105.1L304.9 108.7L301.3 105.1Z" fill="#2b3a7a" opacity="0.8" stroke="none" stroke-width="0"/><path d="M305.8 100.2L309.4 103.8L305.8 107.4L302.2 103.8Z" fill="#2b3a7a" opacity="0.8" stroke="none" stroke-width="0"/><path d="M315.7 99.9L319.3 103.5L315.7 107.1L312.1 103.5Z" fill="#2b3a7a" opacity="0.8" stroke="none" stroke-width="0"/><path d="M334.5 86.0L338.1 89.6L334.5 93.2L330.9 89.6Z" fill="#2b3a7a" opacity="0.8" stroke="none" stroke-width="0"/><path d="M337.8 85.7L341.4 89.3L337.8 92.9L334.2 89.3Z" fill="#2b3a7a" opacity="0.8" stroke="none" stroke-width="0"/><path d="M338.4 84.0L342.0 87.6L338.4 91.2L334.8 87.6Z" fill="#2b3a7a" opacity="0.8" stroke="none" stroke-width="0"/><path d="M341.8 81.8L345.4 85.4L341.8 89.0L338.2 85.4Z" fill="#2b3a7a" opacity="0.8" stroke="none" stroke-width="0"/><path d="M352.3 80.8L355.9 84.4L352.3 88.0L348.7 84.4Z" fill="#2b3a7a" opacity="0.8" stroke="none" stroke-width="0"/><path d="M432.1 80.8L435.7 84.4L432.1 88.0L428.5 84.4Z" fill="#2b3a7a" opacity="0.8" stroke="none" stroke-width="0"/><path d="M630.8 72.2L634.4 75.8L630.8 79.4L627.2 75.8Z" fill="#2b3a7a" opacity="0.8" stroke="none" stroke-width="0"/><path d="M632.6 72.1L636.2 75.7L632.6 79.3L629.0 75.7Z" fill="#2b3a7a" opacity="0.8" stroke="none" stroke-width="0"/><path d="M634.7 71.7L638.3 75.3L634.7 78.9L631.1 75.3Z" fill="#2b3a7a" opacity="0.8" stroke="none" stroke-width="0"/><path d="M635.0 71.1L638.6 74.7L635.0 78.3L631.4 74.7Z" fill="#2b3a7a" opacity="0.8" stroke="none" stroke-width="0"/><path d="M636.8 71.1L640.4 74.7L636.8 78.3L633.2 74.7Z" fill="#2b3a7a" opacity="0.8" stroke="none" stroke-width="0"/><path d="M648.0 70.8L651.6 74.4L648.0 78.0L644.4 74.4Z" fill="#2b3a7a" opacity="0.8" stroke="none" stroke-width="0"/><path d="M663.3 70.3L666.9 73.9L663.3 77.5L659.7 73.9Z" fill="#2b3a7a" opacity="0.8" stroke="none" stroke-width="0"/><path d="M668.4 70.0L672.0 73.6L668.4 77.2L664.8 73.6Z" fill="#2b3a7a" opacity="0.8" stroke="none" stroke-width="0"/><path d="M749.0 69.8L752.6 73.4L749.0 77.0L745.4 73.4Z" fill="#2b3a7a" opacity="0.8" stroke="none" stroke-width="0"/><path d="M817.8 69.8L821.4 73.4L817.8 77.0L814.2 73.4Z" fill="#2b3a7a" opacity="0.8" stroke="none" stroke-width="0"/><path d="M863.6 67.8L867.2 71.4L863.6 75.0L860.0 71.4Z" fill="#2b3a7a" opacity="0.8" stroke="none" stroke-width="0"/><path d="M60.0 335.3L62.5 335.3L62.5 335.1L65.9 335.1L65.9 320.7L72.7 320.7L72.7 319.9L75.3 319.9L75.3 315.3L76.0 315.3L76.0 314.9L77.1 314.9L77.1 314.9L117.9 314.9L117.9 238.7L118.6 238.7L118.6 229.0L119.2 229.0L119.2 222.3L120.0 222.3L120.0 220.6L120.2 220.6L120.2 220.5L120.6 220.5L120.6 214.2L122.2 214.2L122.2 214.1L122.6 214.1L122.6 213.7L123.0 213.7L123.0 213.5L123.4 213.5L123.4 212.7L125.4 212.7L125.4 212.1L126.0 212.1L126.0 212.0L131.4 212.0L131.4 206.7L137.5 206.7L137.5 204.9L139.8 204.9L139.8 204.6L141.3 204.6L141.3 201.9L144.0 201.9L144.0 201.8L145.4 201.8L145.4 201.0L146.2 201.0L146.2 200.0L150.1 200.0L150.1 200.0L151.7 200.0L151.7 199.7L165.1 199.7L165.1 195.5L175.1 195.5L175.1 187.4L175.3 187.4L175.3 186.2L176.0 186.2L176.0 184.5L193.4 184.5L193.4 183.9L202.1 183.9L202.1 169.3L204.9 169.3L204.9 168.8L205.2 168.8L205.2 167.7L206.8 167.7L206.8 165.0L207.4 165.0L207.4 163.7L207.6 163.7L207.6 163.6L211.3 163.6L211.3 155.9L215.8 155.9L215.8 155.8L217.5 155.8L217.5 141.9L221.1 141.9L221.1 141.8L222.4 141.8L222.4 131.7L223.6 131.7L223.6 130.9L224.1 130.9L224.1 129.5L254.6 129.5L254.6 129.5L259.2 129.5L259.2 128.9L263.6 128.9L263.6 128.4L266.7 128.4L266.7 128.2L280.4 128.2L280.4 128.0L294.9 128.0L294.9 112.8L298.1 112.8L298.1 110.2L303.7 110.2L303.7 105.5L304.9 105.5L304.9 105.1L305.8 105.1L305.8 103.8L315.7 103.8L315.7 103.5L334.5 103.5L334.5 89.6L337.8 89.6L337.8 89.3L338.4 89.3L338.4 87.6L341.8 87.6L341.8 85.4L352.3 85.4L352.3 84.4L432.1 84.4L432.1 84.4L630.8 84.4L630.8 75.8L632.6 75.8L632.6 75.7L634.7 75.7L634.7 75.3L635.0 75.3L635.0 74.7L636.8 74.7L636.8 74.7L648.0 74.7L648.0 74.4L663.3 74.4L663.3 73.9L668.4 73.9L668.4 73.6L676.7 73.6L676.7 69.8L680.3 69.8L680.3 69.1L991.1 69.1L991.1 55.0L1032.0 55.0" fill="none" stroke="#6675b0" stroke-width="1.6" stroke-dasharray="5 3" opacity="0.75"/><path d="M211.3 155.9L221.1 155.9L221.1 141.8L222.4 141.8L222.4 131.7L223.6 131.7L223.6 130.9L224.1 130.9L224.1 129.5L254.6 129.5L254.6 129.5L259.2 129.5L259.2 128.9L263.6 128.9L263.6 128.4L266.7 128.4L266.7 128.2L280.4 128.2L280.4 128.0L294.9 128.0L294.9 112.8L301.7 112.8L301.7 111.6L303.7 111.6L303.7 105.5L304.9 105.5L304.9 105.1L305.8 105.1L305.8 103.8L315.7 103.8L315.7 103.5L334.5 103.5L334.5 89.6L337.8 89.6L337.8 89.3L338.4 89.3L338.4 87.6L341.8 87.6L341.8 85.4L352.3 85.4L352.3 84.4L432.1 84.4L432.1 84.4L630.8 84.4L630.8 75.8L632.6 75.8L632.6 75.7L634.7 75.7L634.7 75.3L635.0 75.3L635.0 74.7L636.8 74.7L636.8 74.7L648.0 74.7L648.0 74.4L663.3 74.4L663.3 73.9L668.4 73.9L668.4 73.6L676.7 73.6L676.7 73.5L749.0 73.5L749.0 73.4L817.8 73.4L817.8 73.4L863.6 73.4L863.6 71.4L1032.0 71.4" fill="none" stroke="#2b3a7a" stroke-width="2.6"/><path d="M566.4 246.9L572.9 253.4L566.4 259.9L559.9 253.4Z" fill="#c5961a" opacity="1.0" stroke="#ffffff" stroke-width="1.4"/><path d="M665.3 206.5L671.8 213.0L665.3 219.5L658.8 213.0Z" fill="#c5961a" opacity="1.0" stroke="#ffffff" stroke-width="1.4"/><path d="M676.7 67.0L683.2 73.5L676.7 80.0L670.2 73.5Z" fill="#c5961a" opacity="1.0" stroke="#ffffff" stroke-width="1.4"/><path d="M761.5 240.8L768.0 247.3L761.5 253.8L755.0 247.3Z" fill="#c5961a" opacity="1.0" stroke="#ffffff" stroke-width="1.4"/><path d="M762.1 238.0L768.6 244.5L762.1 251.0L755.6 244.5Z" fill="#c5961a" opacity="1.0" stroke="#ffffff" stroke-width="1.4"/><text x="1042" y="53.0" font-size="11.5" fill="#6675b0">– – raw best 535.9</text><text x="1042" y="67.0" font-size="10" fill="#8a8fa3">unverified (pending)</text><path d="M863.6 64.9L870.1 71.4L863.6 77.9L857.1 71.4Z" fill="#2b3a7a" opacity="1.0" stroke="#ffffff" stroke-width="1.4"/><text x="1042" y="99.4" font-size="12.5" fill="#2b3a7a" font-weight="bold">◆ verified 510.1</text><text x="1042" y="115.4" font-size="10.5" fill="#3a3f55">top verified</text><text x="60" y="24" font-size="13" font-weight="bold" fill="#3a3f55" letter-spacing="1.2">SCORE EVOLUTION — gemma-challenge (tok/s)</text><circle cx="452" cy="20" r="3" fill="#b9bdca"/><text x="460" y="24" font-size="10.5" fill="#8a8fa3">all results</text><path d="M544.0 16.4L547.6 20.0L544.0 23.6L540.4 20.0Z" fill="#2b3a7a" opacity="1.0" stroke="none" stroke-width="0"/><text x="552" y="24" font-size="10.5" fill="#8a8fa3">verified</text><path d="M620.0 15.5L624.5 20.0L620.0 24.5L615.5 20.0Z" fill="#c5961a" opacity="1.0" stroke="#fff" stroke-width="1"/><text x="629" y="24" font-size="10.5" fill="#8a8fa3">mikasa-inbound (us)</text></svg>