<svg viewBox="0 0 1200 440" xmlns="http://www.w3.org/2000/svg" font-family="ui-sans-serif,system-ui,-apple-system,sans-serif"><rect x="0" y="0" width="1200" height="440" fill="#ffffff"/><rect x="60" y="46" width="972" height="350" fill="#f3f4fb"/><line x1="60" y1="396.0" x2="1032" y2="396.0" stroke="#e3e5ef" stroke-width="1"/><text x="52" y="400.0" text-anchor="end" font-size="11" fill="#8a8fa3">0</text><line x1="60" y1="332.4" x2="1032" y2="332.4" stroke="#e3e5ef" stroke-width="1"/><text x="52" y="336.4" text-anchor="end" font-size="11" fill="#8a8fa3">100</text><line x1="60" y1="268.7" x2="1032" y2="268.7" stroke="#e3e5ef" stroke-width="1"/><text x="52" y="272.7" text-anchor="end" font-size="11" fill="#8a8fa3">200</text><line x1="60" y1="205.1" x2="1032" y2="205.1" stroke="#e3e5ef" stroke-width="1"/><text x="52" y="209.1" text-anchor="end" font-size="11" fill="#8a8fa3">300</text><line x1="60" y1="141.5" x2="1032" y2="141.5" stroke="#e3e5ef" stroke-width="1"/><text x="52" y="145.5" text-anchor="end" font-size="11" fill="#8a8fa3">400</text><line x1="60" y1="77.8" x2="1032" y2="77.8" stroke="#e3e5ef" stroke-width="1"/><text x="52" y="81.8" text-anchor="end" font-size="11" fill="#8a8fa3">500</text><line x1="108.2" y1="46" x2="108.2" y2="396" stroke="#e3e5ef" stroke-width="1"/><text x="108.2" y="414.0" text-anchor="middle" font-size="11" fill="#8a8fa3">Jun 10</text><line x1="177.0" y1="46" x2="177.0" y2="396" stroke="#e3e5ef" stroke-width="1"/><text x="177.0" y="414.0" text-anchor="middle" font-size="11" fill="#8a8fa3">Jun 12</text><line x1="245.8" y1="46" x2="245.8" y2="396" stroke="#e3e5ef" stroke-width="1"/><text x="245.8" y="414.0" text-anchor="middle" font-size="11" fill="#8a8fa3">Jun 14</text><line x1="314.6" y1="46" x2="314.6" y2="396" stroke="#e3e5ef" stroke-width="1"/><text x="314.6" y="414.0" text-anchor="middle" font-size="11" fill="#8a8fa3">Jun 16</text><line x1="383.4" y1="46" x2="383.4" y2="396" stroke="#e3e5ef" stroke-width="1"/><text x="383.4" y="414.0" text-anchor="middle" font-size="11" fill="#8a8fa3">Jun 18</text><line x1="452.2" y1="46" x2="452.2" y2="396" stroke="#e3e5ef" stroke-width="1"/><text x="452.2" y="414.0" text-anchor="middle" font-size="11" fill="#8a8fa3">Jun 20</text><line x1="521.0" y1="46" x2="521.0" y2="396" stroke="#e3e5ef" stroke-width="1"/><text x="521.0" y="414.0" text-anchor="middle" font-size="11" fill="#8a8fa3">Jun 22</text><line x1="589.8" y1="46" x2="589.8" y2="396" stroke="#e3e5ef" stroke-width="1"/><text x="589.8" y="414.0" text-anchor="middle" font-size="11" fill="#8a8fa3">Jun 24</text><line x1="658.6" y1="46" x2="658.6" y2="396" stroke="#e3e5ef" stroke-width="1"/><text x="658.6" y="414.0" text-anchor="middle" font-size="11" fill="#8a8fa3">Jun 26</text><line x1="727.4" y1="46" x2="727.4" y2="396" stroke="#e3e5ef" stroke-width="1"/><text x="727.4" y="414.0" text-anchor="middle" font-size="11" fill="#8a8fa3">Jun 28</text><line x1="796.1" y1="46" x2="796.1" y2="396" stroke="#e3e5ef" stroke-width="1"/><text x="796.1" y="414.0" text-anchor="middle" font-size="11" fill="#8a8fa3">Jun 30</text><line x1="864.9" y1="46" x2="864.9" y2="396" stroke="#e3e5ef" stroke-width="1"/><text x="864.9" y="414.0" text-anchor="middle" font-size="11" fill="#8a8fa3">Jul 2</text><line x1="933.7" y1="46" x2="933.7" y2="396" stroke="#e3e5ef" stroke-width="1"/><text x="933.7" y="414.0" text-anchor="middle" font-size="11" fill="#8a8fa3">Jul 4</text><line x1="1002.5" y1="46" x2="1002.5" y2="396" stroke="#e3e5ef" stroke-width="1"/><text x="1002.5" y="414.0" text-anchor="middle" font-size="11" fill="#8a8fa3">Jul 6</text><circle cx="60.0" cy="335.3" r="2.3" fill="#b9bdca" opacity="0.5"/><circle cx="61.6" cy="335.1" r="2.3" fill="#b9bdca" opacity="0.5"/><circle cx="63.3" cy="368.0" r="2.3" fill="#b9bdca" opacity="0.5"/><circle cx="64.0" cy="320.7" r="2.3" fill="#b9bdca" opacity="0.5"/><circle cx="68.6" cy="319.9" r="2.3" fill="#b9bdca" opacity="0.5"/><circle cx="68.8" cy="320.6" r="2.3" fill="#b9bdca" opacity="0.5"/><circle cx="70.3" cy="315.3" r="2.3" fill="#b9bdca" opacity="0.5"/><circle cx="70.6" cy="319.7" r="2.3" fill="#b9bdca" opacity="0.5"/><circle cx="70.7" cy="314.9" r="2.3" fill="#b9bdca" opacity="0.5"/><circle cx="71.3" cy="315.5" r="2.3" fill="#b9bdca" opacity="0.5"/><circle cx="71.5" cy="314.9" r="2.3" fill="#b9bdca" opacity="0.5"/><circle cx="71.9" cy="315.4" r="2.3" fill="#b9bdca" opacity="0.5"/><circle cx="72.8" cy="315.0" r="2.3" fill="#b9bdca" opacity="0.5"/><circle cx="98.8" cy="238.7" r="2.3" fill="#b9bdca" opacity="0.5"/><circle cx="99.1" cy="315.0" r="2.3" fill="#b9bdca" opacity="0.5"/><circle cx="99.3" cy="229.0" r="2.3" fill="#b9bdca" opacity="0.5"/><circle cx="99.7" cy="222.3" r="2.3" fill="#b9bdca" opacity="0.5"/><circle cx="100.1" cy="228.0" r="2.3" fill="#b9bdca" opacity="0.5"/><circle cx="100.2" cy="223.3" r="2.3" fill="#b9bdca" opacity="0.5"/><circle cx="100.3" cy="220.6" r="2.3" fill="#b9bdca" opacity="0.5"/><circle cx="100.4" cy="220.5" r="2.3" fill="#b9bdca" opacity="0.5"/><circle cx="100.5" cy="223.2" r="2.3" fill="#b9bdca" opacity="0.5"/><circle cx="100.7" cy="214.2" r="2.3" fill="#b9bdca" opacity="0.5"/><circle cx="100.7" cy="222.1" r="2.3" fill="#b9bdca" opacity="0.5"/><circle cx="100.9" cy="220.7" r="2.3" fill="#b9bdca" opacity="0.5"/><circle cx="101.2" cy="218.5" r="2.3" fill="#b9bdca" opacity="0.5"/><circle cx="101.3" cy="215.2" r="2.3" fill="#b9bdca" opacity="0.5"/><circle cx="101.5" cy="214.3" r="2.3" fill="#b9bdca" opacity="0.5"/><circle cx="101.5" cy="219.2" r="2.3" fill="#b9bdca" opacity="0.5"/><circle cx="101.7" cy="214.1" r="2.3" fill="#b9bdca" opacity="0.5"/><circle cx="101.9" cy="215.2" r="2.3" fill="#b9bdca" opacity="0.5"/><circle cx="102.0" cy="213.7" r="2.3" fill="#b9bdca" opacity="0.5"/><circle cx="102.2" cy="213.5" r="2.3" fill="#b9bdca" opacity="0.5"/><circle cx="102.4" cy="214.8" r="2.3" fill="#b9bdca" opacity="0.5"/><circle cx="102.4" cy="217.7" r="2.3" fill="#b9bdca" opacity="0.5"/><circle cx="102.5" cy="212.7" r="2.3" fill="#b9bdca" opacity="0.5"/><circle cx="102.9" cy="213.3" r="2.3" fill="#b9bdca" opacity="0.5"/><circle cx="103.4" cy="212.7" r="2.3" fill="#b9bdca" opacity="0.5"/><circle cx="103.4" cy="213.6" r="2.3" fill="#b9bdca" opacity="0.5"/><circle cx="103.6" cy="213.0" r="2.3" fill="#b9bdca" opacity="0.5"/><circle cx="103.9" cy="212.1" r="2.3" fill="#b9bdca" opacity="0.5"/><circle cx="104.0" cy="213.3" r="2.3" fill="#b9bdca" opacity="0.5"/><circle cx="104.2" cy="212.0" r="2.3" fill="#b9bdca" opacity="0.5"/><circle cx="104.7" cy="212.1" r="2.3" fill="#b9bdca" opacity="0.5"/><circle cx="104.7" cy="212.8" r="2.3" fill="#b9bdca" opacity="0.5"/><circle cx="107.9" cy="206.7" r="2.3" fill="#b9bdca" opacity="0.5"/><circle cx="108.3" cy="206.8" r="2.3" fill="#b9bdca" opacity="0.5"/><circle cx="108.3" cy="212.5" r="2.3" fill="#b9bdca" opacity="0.5"/><circle cx="108.6" cy="207.2" r="2.3" fill="#b9bdca" opacity="0.5"/><circle cx="109.6" cy="207.0" r="2.3" fill="#b9bdca" opacity="0.5"/><circle cx="112.0" cy="204.9" r="2.3" fill="#b9bdca" opacity="0.5"/><circle cx="113.5" cy="204.6" r="2.3" fill="#b9bdca" opacity="0.5"/><circle cx="113.6" cy="212.3" r="2.3" fill="#b9bdca" opacity="0.5"/><circle cx="113.9" cy="204.6" r="2.3" fill="#b9bdca" opacity="0.5"/><circle cx="113.9" cy="204.6" r="2.3" fill="#b9bdca" opacity="0.5"/><circle cx="113.9" cy="204.9" r="2.3" fill="#b9bdca" opacity="0.5"/><circle cx="113.9" cy="204.9" r="2.3" fill="#b9bdca" opacity="0.5"/><circle cx="114.5" cy="201.9" r="2.3" fill="#b9bdca" opacity="0.5"/><circle cx="115.5" cy="206.5" r="2.3" fill="#b9bdca" opacity="0.5"/><circle cx="115.8" cy="205.8" r="2.3" fill="#b9bdca" opacity="0.5"/><circle cx="115.8" cy="335.1" r="2.3" fill="#b9bdca" opacity="0.5"/><circle cx="116.3" cy="201.8" r="2.3" fill="#b9bdca" opacity="0.5"/><circle cx="116.4" cy="202.2" r="2.3" fill="#b9bdca" opacity="0.5"/><circle cx="117.3" cy="201.0" r="2.3" fill="#b9bdca" opacity="0.5"/><circle cx="117.6" cy="203.1" r="2.3" fill="#b9bdca" opacity="0.5"/><circle cx="117.8" cy="200.0" r="2.3" fill="#b9bdca" opacity="0.5"/><circle cx="117.8" cy="204.6" r="2.3" fill="#b9bdca" opacity="0.5"/><circle cx="118.4" cy="202.3" r="2.3" fill="#b9bdca" opacity="0.5"/><circle cx="119.5" cy="200.4" r="2.3" fill="#b9bdca" opacity="0.5"/><circle cx="120.0" cy="200.7" r="2.3" fill="#b9bdca" opacity="0.5"/><circle cx="120.5" cy="200.0" r="2.3" fill="#b9bdca" opacity="0.5"/><circle cx="121.5" cy="199.7" r="2.3" fill="#b9bdca" opacity="0.5"/><circle cx="128.1" cy="200.6" r="2.3" fill="#b9bdca" opacity="0.5"/><circle cx="128.7" cy="201.8" r="2.3" fill="#b9bdca" opacity="0.5"/><circle cx="129.6" cy="208.4" r="2.3" fill="#b9bdca" opacity="0.5"/><circle cx="129.6" cy="200.8" r="2.3" fill="#b9bdca" opacity="0.5"/><circle cx="130.2" cy="200.7" r="2.3" fill="#b9bdca" opacity="0.5"/><circle cx="130.2" cy="201.9" r="2.3" fill="#b9bdca" opacity="0.5"/><circle cx="130.5" cy="195.5" r="2.3" fill="#b9bdca" opacity="0.5"/><circle cx="131.1" cy="196.9" r="2.3" fill="#b9bdca" opacity="0.5"/><circle cx="131.4" cy="197.9" r="2.3" fill="#b9bdca" opacity="0.5"/><circle cx="132.0" cy="196.1" r="2.3" fill="#b9bdca" opacity="0.5"/><circle cx="134.0" cy="197.3" r="2.3" fill="#b9bdca" opacity="0.5"/><circle cx="134.5" cy="195.9" r="2.3" fill="#b9bdca" opacity="0.5"/><circle cx="134.7" cy="201.0" r="2.3" fill="#b9bdca" opacity="0.5"/><circle cx="134.9" cy="197.5" r="2.3" fill="#b9bdca" opacity="0.5"/><circle cx="135.4" cy="196.9" r="2.3" fill="#b9bdca" opacity="0.5"/><circle cx="135.4" cy="197.1" r="2.3" fill="#b9bdca" opacity="0.5"/><circle cx="135.4" cy="197.0" r="2.3" fill="#b9bdca" opacity="0.5"/><circle cx="135.9" cy="196.0" r="2.3" fill="#b9bdca" opacity="0.5"/><circle cx="135.9" cy="196.0" r="2.3" fill="#b9bdca" opacity="0.5"/><circle cx="135.9" cy="197.9" r="2.3" fill="#b9bdca" opacity="0.5"/><circle cx="136.3" cy="197.8" r="2.3" fill="#b9bdca" opacity="0.5"/><circle cx="136.6" cy="196.2" r="2.3" fill="#b9bdca" opacity="0.5"/><circle cx="136.6" cy="197.5" r="2.3" fill="#b9bdca" opacity="0.5"/><circle cx="136.7" cy="196.9" r="2.3" fill="#b9bdca" opacity="0.5"/><circle cx="136.7" cy="195.5" r="2.3" fill="#b9bdca" opacity="0.5"/><circle cx="137.1" cy="198.1" r="2.3" fill="#b9bdca" opacity="0.5"/><circle cx="137.2" cy="187.4" r="2.3" fill="#b9bdca" opacity="0.5"/><circle cx="137.4" cy="186.2" r="2.3" fill="#b9bdca" opacity="0.5"/><circle cx="137.4" cy="196.3" r="2.3" fill="#b9bdca" opacity="0.5"/><circle cx="137.4" cy="197.2" r="2.3" fill="#b9bdca" opacity="0.5"/><circle cx="137.4" cy="197.8" r="2.3" fill="#b9bdca" opacity="0.5"/><circle cx="137.4" cy="368.0" r="2.3" fill="#b9bdca" opacity="0.5"/><circle cx="137.8" cy="184.5" r="2.3" fill="#b9bdca" opacity="0.5"/><circle cx="139.6" cy="184.6" r="2.3" fill="#b9bdca" opacity="0.5"/><circle cx="140.4" cy="185.6" r="2.3" fill="#b9bdca" opacity="0.5"/><circle cx="142.9" cy="188.7" r="2.3" fill="#b9bdca" opacity="0.5"/><circle cx="146.4" cy="185.4" r="2.3" fill="#b9bdca" opacity="0.5"/><circle cx="147.2" cy="185.2" r="2.3" fill="#b9bdca" opacity="0.5"/><circle cx="147.4" cy="186.6" r="2.3" fill="#b9bdca" opacity="0.5"/><circle cx="147.5" cy="185.3" r="2.3" fill="#b9bdca" opacity="0.5"/><circle cx="148.1" cy="185.3" r="2.3" fill="#b9bdca" opacity="0.5"/><circle cx="148.4" cy="185.0" r="2.3" fill="#b9bdca" opacity="0.5"/><circle cx="149.0" cy="184.9" r="2.3" fill="#b9bdca" opacity="0.5"/><circle cx="149.4" cy="185.1" r="2.3" fill="#b9bdca" opacity="0.5"/><circle cx="149.4" cy="185.2" r="2.3" fill="#b9bdca" opacity="0.5"/><circle cx="149.4" cy="186.4" r="2.3" fill="#b9bdca" opacity="0.5"/><circle cx="149.5" cy="183.9" r="2.3" fill="#b9bdca" opacity="0.5"/><circle cx="152.7" cy="184.4" r="2.3" fill="#b9bdca" opacity="0.5"/><circle cx="153.3" cy="184.2" r="2.3" fill="#b9bdca" opacity="0.5"/><circle cx="155.3" cy="169.3" r="2.3" fill="#b9bdca" opacity="0.5"/><circle cx="157.2" cy="168.8" r="2.3" fill="#b9bdca" opacity="0.5"/><circle cx="157.4" cy="167.7" r="2.3" fill="#b9bdca" opacity="0.5"/><circle cx="158.2" cy="201.4" r="2.3" fill="#b9bdca" opacity="0.5"/><circle cx="158.5" cy="165.0" r="2.3" fill="#b9bdca" opacity="0.5"/><circle cx="158.6" cy="198.2" r="2.3" fill="#b9bdca" opacity="0.5"/><circle cx="158.9" cy="163.7" r="2.3" fill="#b9bdca" opacity="0.5"/><circle cx="159.0" cy="163.6" r="2.3" fill="#b9bdca" opacity="0.5"/><circle cx="159.3" cy="165.9" r="2.3" fill="#b9bdca" opacity="0.5"/><circle cx="161.1" cy="165.1" r="2.3" fill="#b9bdca" opacity="0.5"/><circle cx="161.5" cy="155.9" r="2.3" fill="#b9bdca" opacity="0.5"/><circle cx="163.2" cy="196.5" r="2.3" fill="#b9bdca" opacity="0.5"/><circle cx="163.9" cy="157.4" r="2.3" fill="#b9bdca" opacity="0.5"/><circle cx="164.5" cy="155.8" r="2.3" fill="#b9bdca" opacity="0.5"/><circle cx="165.6" cy="141.9" r="2.3" fill="#b9bdca" opacity="0.5"/><circle cx="167.9" cy="156.1" r="2.3" fill="#b9bdca" opacity="0.5"/><circle cx="167.9" cy="156.4" r="2.3" fill="#b9bdca" opacity="0.5"/><circle cx="168.0" cy="141.8" r="2.3" fill="#b9bdca" opacity="0.5"/><circle cx="168.1" cy="196.0" r="2.3" fill="#b9bdca" opacity="0.5"/><circle cx="168.9" cy="131.7" r="2.3" fill="#b9bdca" opacity="0.5"/><circle cx="169.0" cy="134.1" r="2.3" fill="#b9bdca" opacity="0.5"/><circle cx="169.3" cy="141.1" r="2.3" fill="#b9bdca" opacity="0.5"/><circle cx="169.7" cy="134.0" r="2.3" fill="#b9bdca" opacity="0.5"/><circle cx="169.7" cy="130.9" r="2.3" fill="#b9bdca" opacity="0.5"/><circle cx="169.7" cy="154.2" r="2.3" fill="#b9bdca" opacity="0.5"/><circle cx="169.9" cy="133.6" r="2.3" fill="#b9bdca" opacity="0.5"/><circle cx="170.1" cy="129.5" r="2.3" fill="#b9bdca" opacity="0.5"/><circle cx="170.1" cy="130.9" r="2.3" fill="#b9bdca" opacity="0.5"/><circle cx="170.1" cy="133.4" r="2.3" fill="#b9bdca" opacity="0.5"/><circle cx="170.3" cy="131.2" r="2.3" fill="#b9bdca" opacity="0.5"/><circle cx="171.7" cy="189.8" r="2.3" fill="#b9bdca" opacity="0.5"/><circle cx="171.8" cy="133.2" r="2.3" fill="#b9bdca" opacity="0.5"/><circle cx="172.0" cy="133.5" r="2.3" fill="#b9bdca" opacity="0.5"/><circle cx="172.5" cy="130.1" r="2.3" fill="#b9bdca" opacity="0.5"/><circle cx="173.9" cy="130.3" r="2.3" fill="#b9bdca" opacity="0.5"/><circle cx="174.6" cy="303.1" r="2.3" fill="#b9bdca" opacity="0.5"/><circle cx="175.7" cy="133.2" r="2.3" fill="#b9bdca" opacity="0.5"/><circle cx="177.2" cy="144.2" r="2.3" fill="#b9bdca" opacity="0.5"/><circle cx="177.6" cy="135.3" r="2.3" fill="#b9bdca" opacity="0.5"/><circle cx="178.5" cy="133.4" r="2.3" fill="#b9bdca" opacity="0.5"/><circle cx="178.6" cy="159.9" r="2.3" fill="#b9bdca" opacity="0.5"/><circle cx="178.9" cy="130.8" r="2.3" fill="#b9bdca" opacity="0.5"/><circle cx="179.2" cy="133.2" r="2.3" fill="#b9bdca" opacity="0.5"/><circle cx="182.7" cy="130.9" r="2.3" fill="#b9bdca" opacity="0.5"/><circle cx="183.1" cy="130.9" r="2.3" fill="#b9bdca" opacity="0.5"/><circle cx="183.1" cy="133.8" r="2.3" fill="#b9bdca" opacity="0.5"/><circle cx="183.7" cy="130.4" r="2.3" fill="#b9bdca" opacity="0.5"/><circle cx="184.1" cy="153.7" r="2.3" fill="#b9bdca" opacity="0.5"/><circle cx="184.7" cy="133.3" r="2.3" fill="#b9bdca" opacity="0.5"/><circle cx="185.8" cy="156.5" r="2.3" fill="#b9bdca" opacity="0.5"/><circle cx="186.0" cy="132.3" r="2.3" fill="#b9bdca" opacity="0.5"/><circle cx="187.3" cy="147.2" r="2.3" fill="#b9bdca" opacity="0.5"/><circle cx="187.5" cy="133.6" r="2.3" fill="#b9bdca" opacity="0.5"/><circle cx="188.0" cy="129.5" r="2.3" fill="#b9bdca" opacity="0.5"/><circle cx="188.0" cy="133.3" r="2.3" fill="#b9bdca" opacity="0.5"/><circle cx="189.5" cy="133.3" r="2.3" fill="#b9bdca" opacity="0.5"/><circle cx="190.6" cy="129.5" r="2.3" fill="#b9bdca" opacity="0.5"/><circle cx="192.3" cy="130.6" r="2.3" fill="#b9bdca" opacity="0.5"/><circle cx="193.6" cy="128.9" r="2.3" fill="#b9bdca" opacity="0.5"/><circle cx="193.9" cy="132.7" r="2.3" fill="#b9bdca" opacity="0.5"/><circle cx="193.9" cy="133.1" r="2.3" fill="#b9bdca" opacity="0.5"/><circle cx="195.9" cy="129.8" r="2.3" fill="#b9bdca" opacity="0.5"/><circle cx="196.4" cy="333.8" r="2.3" fill="#b9bdca" opacity="0.5"/><circle cx="196.6" cy="128.4" r="2.3" fill="#b9bdca" opacity="0.5"/><circle cx="197.5" cy="129.8" r="2.3" fill="#b9bdca" opacity="0.5"/><circle cx="197.8" cy="128.9" r="2.3" fill="#b9bdca" opacity="0.5"/><circle cx="197.9" cy="128.9" r="2.3" fill="#b9bdca" opacity="0.5"/><circle cx="198.6" cy="128.2" r="2.3" fill="#b9bdca" opacity="0.5"/><circle cx="199.1" cy="129.7" r="2.3" fill="#b9bdca" opacity="0.5"/><circle cx="199.3" cy="142.3" r="2.3" fill="#b9bdca" opacity="0.5"/><circle cx="201.1" cy="128.8" r="2.3" fill="#b9bdca" opacity="0.5"/><circle cx="202.2" cy="161.1" r="2.3" fill="#b9bdca" opacity="0.5"/><circle cx="204.3" cy="164.4" r="2.3" fill="#b9bdca" opacity="0.5"/><circle cx="204.6" cy="248.3" r="2.3" fill="#b9bdca" opacity="0.5"/><circle cx="207.6" cy="135.4" r="2.3" fill="#b9bdca" opacity="0.5"/><circle cx="207.9" cy="128.0" r="2.3" fill="#b9bdca" opacity="0.5"/><circle cx="208.8" cy="229.0" r="2.3" fill="#b9bdca" opacity="0.5"/><circle cx="210.9" cy="128.1" r="2.3" fill="#b9bdca" opacity="0.5"/><circle cx="211.4" cy="128.6" r="2.3" fill="#b9bdca" opacity="0.5"/><circle cx="213.4" cy="128.8" r="2.3" fill="#b9bdca" opacity="0.5"/><circle cx="213.4" cy="129.6" r="2.3" fill="#b9bdca" opacity="0.5"/><circle cx="213.4" cy="130.9" r="2.3" fill="#b9bdca" opacity="0.5"/><circle cx="217.5" cy="112.8" r="2.3" fill="#b9bdca" opacity="0.5"/><circle cx="219.7" cy="110.2" r="2.3" fill="#b9bdca" opacity="0.5"/><circle cx="219.8" cy="111.6" r="2.3" fill="#b9bdca" opacity="0.5"/><circle cx="221.1" cy="111.0" r="2.3" fill="#b9bdca" opacity="0.5"/><circle cx="221.8" cy="335.1" r="2.3" fill="#b9bdca" opacity="0.5"/><circle cx="222.1" cy="111.6" r="2.3" fill="#b9bdca" opacity="0.5"/><circle cx="223.5" cy="105.5" r="2.3" fill="#b9bdca" opacity="0.5"/><circle cx="223.7" cy="108.5" r="2.3" fill="#b9bdca" opacity="0.5"/><circle cx="224.2" cy="105.1" r="2.3" fill="#b9bdca" opacity="0.5"/><circle cx="224.9" cy="103.8" r="2.3" fill="#b9bdca" opacity="0.5"/><circle cx="225.6" cy="125.8" r="2.3" fill="#b9bdca" opacity="0.5"/><circle cx="231.5" cy="103.5" r="2.3" fill="#b9bdca" opacity="0.5"/><circle cx="233.1" cy="127.8" r="2.3" fill="#b9bdca" opacity="0.5"/><circle cx="233.7" cy="334.3" r="2.3" fill="#b9bdca" opacity="0.5"/><circle cx="234.7" cy="128.6" r="2.3" fill="#b9bdca" opacity="0.5"/><circle cx="235.1" cy="128.6" r="2.3" fill="#b9bdca" opacity="0.5"/><circle cx="235.2" cy="128.6" r="2.3" fill="#b9bdca" opacity="0.5"/><circle cx="235.7" cy="256.6" r="2.3" fill="#b9bdca" opacity="0.5"/><circle cx="236.4" cy="254.6" r="2.3" fill="#b9bdca" opacity="0.5"/><circle cx="237.5" cy="128.6" r="2.3" fill="#b9bdca" opacity="0.5"/><circle cx="240.2" cy="250.1" r="2.3" fill="#b9bdca" opacity="0.5"/><circle cx="240.5" cy="161.4" r="2.3" fill="#b9bdca" opacity="0.5"/><circle cx="240.7" cy="206.6" r="2.3" fill="#b9bdca" opacity="0.5"/><circle cx="243.3" cy="113.5" r="2.3" fill="#b9bdca" opacity="0.5"/><circle cx="244.1" cy="89.6" r="2.3" fill="#b9bdca" opacity="0.5"/><circle cx="244.7" cy="90.2" r="2.3" fill="#b9bdca" opacity="0.5"/><circle cx="246.3" cy="89.3" r="2.3" fill="#b9bdca" opacity="0.5"/><circle cx="246.7" cy="87.6" r="2.3" fill="#b9bdca" opacity="0.5"/><circle cx="247.3" cy="185.0" r="2.3" fill="#b9bdca" opacity="0.5"/><circle cx="247.8" cy="131.6" r="2.3" fill="#b9bdca" opacity="0.5"/><circle cx="248.3" cy="87.8" r="2.3" fill="#b9bdca" opacity="0.5"/><circle cx="249.0" cy="85.4" r="2.3" fill="#b9bdca" opacity="0.5"/><circle cx="250.1" cy="86.8" r="2.3" fill="#b9bdca" opacity="0.5"/><circle cx="251.3" cy="88.4" r="2.3" fill="#b9bdca" opacity="0.5"/><circle cx="256.0" cy="89.5" r="2.3" fill="#b9bdca" opacity="0.5"/><circle cx="256.0" cy="155.6" r="2.3" fill="#b9bdca" opacity="0.5"/><circle cx="256.0" cy="84.4" r="2.3" fill="#b9bdca" opacity="0.5"/><circle cx="261.6" cy="89.2" r="2.3" fill="#b9bdca" opacity="0.5"/><circle cx="261.7" cy="90.5" r="2.3" fill="#b9bdca" opacity="0.5"/><circle cx="263.3" cy="87.7" r="2.3" fill="#b9bdca" opacity="0.5"/><circle cx="263.9" cy="367.9" r="2.3" fill="#b9bdca" opacity="0.5"/><circle cx="266.2" cy="164.3" r="2.3" fill="#b9bdca" opacity="0.5"/><circle cx="267.3" cy="94.6" r="2.3" fill="#b9bdca" opacity="0.5"/><circle cx="267.7" cy="89.6" r="2.3" fill="#b9bdca" opacity="0.5"/><circle cx="272.6" cy="124.6" r="2.3" fill="#b9bdca" opacity="0.5"/><circle cx="277.8" cy="146.2" r="2.3" fill="#b9bdca" opacity="0.5"/><circle cx="277.9" cy="90.5" r="2.3" fill="#b9bdca" opacity="0.5"/><circle cx="278.4" cy="87.7" r="2.3" fill="#b9bdca" opacity="0.5"/><circle cx="278.7" cy="87.7" r="2.3" fill="#b9bdca" opacity="0.5"/><circle cx="278.7" cy="89.6" r="2.3" fill="#b9bdca" opacity="0.5"/><circle cx="282.4" cy="93.0" r="2.3" fill="#b9bdca" opacity="0.5"/><circle cx="283.7" cy="85.5" r="2.3" fill="#b9bdca" opacity="0.5"/><circle cx="294.6" cy="334.8" r="2.3" fill="#b9bdca" opacity="0.5"/><circle cx="295.8" cy="86.3" r="2.3" fill="#b9bdca" opacity="0.5"/><circle cx="299.5" cy="85.5" r="2.3" fill="#b9bdca" opacity="0.5"/><circle cx="300.1" cy="84.6" r="2.3" fill="#b9bdca" opacity="0.5"/><circle cx="301.7" cy="87.8" r="2.3" fill="#b9bdca" opacity="0.5"/><circle cx="302.3" cy="84.4" r="2.3" fill="#b9bdca" opacity="0.5"/><circle cx="302.6" cy="84.8" r="2.3" fill="#b9bdca" opacity="0.5"/><circle cx="303.7" cy="87.4" r="2.3" fill="#b9bdca" opacity="0.5"/><circle cx="309.6" cy="84.4" r="2.3" fill="#b9bdca" opacity="0.5"/><circle cx="335.2" cy="89.3" r="2.3" fill="#b9bdca" opacity="0.5"/><circle cx="339.9" cy="88.6" r="2.3" fill="#b9bdca" opacity="0.5"/><circle cx="339.9" cy="92.1" r="2.3" fill="#b9bdca" opacity="0.5"/><circle cx="340.9" cy="156.8" r="2.3" fill="#b9bdca" opacity="0.5"/><circle cx="355.7" cy="201.6" r="2.3" fill="#b9bdca" opacity="0.5"/><circle cx="366.5" cy="315.6" r="2.3" fill="#b9bdca" opacity="0.5"/><circle cx="396.1" cy="87.7" r="2.3" fill="#b9bdca" opacity="0.5"/><circle cx="405.0" cy="87.6" r="2.3" fill="#b9bdca" opacity="0.5"/><circle cx="413.0" cy="87.2" r="2.3" fill="#b9bdca" opacity="0.5"/><circle cx="414.8" cy="88.8" r="2.3" fill="#b9bdca" opacity="0.5"/><circle cx="415.5" cy="89.2" r="2.3" fill="#b9bdca" opacity="0.5"/><circle cx="415.9" cy="90.9" r="2.3" fill="#b9bdca" opacity="0.5"/><circle cx="418.2" cy="87.7" r="2.3" fill="#b9bdca" opacity="0.5"/><circle cx="426.2" cy="88.6" r="2.3" fill="#b9bdca" opacity="0.5"/><circle cx="427.2" cy="89.7" r="2.3" fill="#b9bdca" opacity="0.5"/><circle cx="427.9" cy="88.2" r="2.3" fill="#b9bdca" opacity="0.5"/><circle cx="442.9" cy="75.8" r="2.3" fill="#b9bdca" opacity="0.5"/><circle cx="444.1" cy="75.7" r="2.3" fill="#b9bdca" opacity="0.5"/><circle cx="444.9" cy="76.7" r="2.3" fill="#b9bdca" opacity="0.5"/><circle cx="445.0" cy="75.8" r="2.3" fill="#b9bdca" opacity="0.5"/><circle cx="445.5" cy="75.3" r="2.3" fill="#b9bdca" opacity="0.5"/><circle cx="445.7" cy="74.7" r="2.3" fill="#b9bdca" opacity="0.5"/><circle cx="445.8" cy="83.4" r="2.3" fill="#b9bdca" opacity="0.5"/><circle cx="446.2" cy="76.2" r="2.3" fill="#b9bdca" opacity="0.5"/><circle cx="446.5" cy="78.1" r="2.3" fill="#b9bdca" opacity="0.5"/><circle cx="446.9" cy="74.7" r="2.3" fill="#b9bdca" opacity="0.5"/><circle cx="449.4" cy="89.3" r="2.3" fill="#b9bdca" opacity="0.5"/><circle cx="454.4" cy="74.4" r="2.3" fill="#b9bdca" opacity="0.5"/><circle cx="462.4" cy="74.4" r="2.3" fill="#b9bdca" opacity="0.5"/><circle cx="463.7" cy="335.1" r="2.3" fill="#b9bdca" opacity="0.5"/><circle cx="463.7" cy="81.7" r="2.3" fill="#b9bdca" opacity="0.5"/><circle cx="464.6" cy="74.6" r="2.3" fill="#b9bdca" opacity="0.5"/><circle cx="464.6" cy="82.1" r="2.3" fill="#b9bdca" opacity="0.5"/><circle cx="464.7" cy="73.9" r="2.3" fill="#b9bdca" opacity="0.5"/><circle cx="466.9" cy="76.2" r="2.3" fill="#b9bdca" opacity="0.5"/><circle cx="467.3" cy="82.1" r="2.3" fill="#b9bdca" opacity="0.5"/><circle cx="467.6" cy="74.2" r="2.3" fill="#b9bdca" opacity="0.5"/><circle cx="467.6" cy="75.0" r="2.3" fill="#b9bdca" opacity="0.5"/><circle cx="468.1" cy="73.6" r="2.3" fill="#b9bdca" opacity="0.5"/><circle cx="468.1" cy="83.3" r="2.3" fill="#b9bdca" opacity="0.5"/><circle cx="468.1" cy="83.8" r="2.3" fill="#b9bdca" opacity="0.5"/><circle cx="468.2" cy="78.1" r="2.3" fill="#b9bdca" opacity="0.5"/><circle cx="468.2" cy="81.5" r="2.3" fill="#b9bdca" opacity="0.5"/><circle cx="468.2" cy="83.0" r="2.3" fill="#b9bdca" opacity="0.5"/><circle cx="468.2" cy="83.7" r="2.3" fill="#b9bdca" opacity="0.5"/><circle cx="471.3" cy="82.7" r="2.3" fill="#b9bdca" opacity="0.5"/><circle cx="472.0" cy="77.8" r="2.3" fill="#b9bdca" opacity="0.5"/><circle cx="473.7" cy="69.8" r="2.3" fill="#b9bdca" opacity="0.5"/><circle cx="474.2" cy="75.9" r="2.3" fill="#b9bdca" opacity="0.5"/><circle cx="474.4" cy="74.3" r="2.3" fill="#b9bdca" opacity="0.5"/><circle cx="474.4" cy="77.4" r="2.3" fill="#b9bdca" opacity="0.5"/><circle cx="474.4" cy="80.6" r="2.3" fill="#b9bdca" opacity="0.5"/><circle cx="474.4" cy="81.8" r="2.3" fill="#b9bdca" opacity="0.5"/><circle cx="475.6" cy="76.9" r="2.3" fill="#b9bdca" opacity="0.5"/><circle cx="475.6" cy="82.8" r="2.3" fill="#b9bdca" opacity="0.5"/><circle cx="475.6" cy="83.0" r="2.3" fill="#b9bdca" opacity="0.5"/><circle cx="475.6" cy="83.1" r="2.3" fill="#b9bdca" opacity="0.5"/><circle cx="476.1" cy="69.1" r="2.3" fill="#b9bdca" opacity="0.5"/><circle cx="477.4" cy="75.5" r="2.3" fill="#b9bdca" opacity="0.5"/><circle cx="478.1" cy="74.3" r="2.3" fill="#b9bdca" opacity="0.5"/><circle cx="498.3" cy="74.0" r="2.3" fill="#b9bdca" opacity="0.5"/><circle cx="522.2" cy="73.4" r="2.3" fill="#b9bdca" opacity="0.5"/><circle cx="522.4" cy="75.9" r="2.3" fill="#b9bdca" opacity="0.5"/><circle cx="522.4" cy="76.3" r="2.3" fill="#b9bdca" opacity="0.5"/><circle cx="522.6" cy="76.0" r="2.3" fill="#b9bdca" opacity="0.5"/><circle cx="522.6" cy="76.8" r="2.3" fill="#b9bdca" opacity="0.5"/><circle cx="522.6" cy="81.2" r="2.3" fill="#b9bdca" opacity="0.5"/><circle cx="522.6" cy="83.4" r="2.3" fill="#b9bdca" opacity="0.5"/><circle cx="539.5" cy="76.6" r="2.3" fill="#b9bdca" opacity="0.5"/><circle cx="540.6" cy="76.7" r="2.3" fill="#b9bdca" opacity="0.5"/><circle cx="540.6" cy="82.8" r="2.3" fill="#b9bdca" opacity="0.5"/><circle cx="540.6" cy="82.8" r="2.3" fill="#b9bdca" opacity="0.5"/><circle cx="540.6" cy="83.3" r="2.3" fill="#b9bdca" opacity="0.5"/><circle cx="544.2" cy="233.4" r="2.3" fill="#b9bdca" opacity="0.5"/><circle cx="545.2" cy="228.9" r="2.3" fill="#b9bdca" opacity="0.5"/><circle cx="546.3" cy="198.3" r="2.3" fill="#b9bdca" opacity="0.5"/><circle cx="568.3" cy="73.4" r="2.3" fill="#b9bdca" opacity="0.5"/><circle cx="574.4" cy="192.4" r="2.3" fill="#b9bdca" opacity="0.5"/><circle cx="576.6" cy="75.3" r="2.3" fill="#b9bdca" opacity="0.5"/><circle cx="577.2" cy="74.0" r="2.3" fill="#b9bdca" opacity="0.5"/><circle cx="578.5" cy="194.4" r="2.3" fill="#b9bdca" opacity="0.5"/><circle cx="580.7" cy="168.6" r="2.3" fill="#b9bdca" opacity="0.5"/><circle cx="582.0" cy="77.1" r="2.3" fill="#b9bdca" opacity="0.5"/><circle cx="582.0" cy="99.5" r="2.3" fill="#b9bdca" opacity="0.5"/><circle cx="599.0" cy="71.4" r="2.3" fill="#b9bdca" opacity="0.5"/><circle cx="599.0" cy="73.5" r="2.3" fill="#b9bdca" opacity="0.5"/><circle cx="605.0" cy="72.4" r="2.3" fill="#b9bdca" opacity="0.5"/><circle cx="629.8" cy="83.0" r="2.3" fill="#b9bdca" opacity="0.5"/><circle cx="630.2" cy="72.1" r="2.3" fill="#b9bdca" opacity="0.5"/><circle cx="630.5" cy="71.6" r="2.3" fill="#b9bdca" opacity="0.5"/><circle cx="631.3" cy="75.5" r="2.3" fill="#b9bdca" opacity="0.5"/><circle cx="631.7" cy="73.7" r="2.3" fill="#b9bdca" opacity="0.5"/><circle cx="632.7" cy="72.9" r="2.3" fill="#b9bdca" opacity="0.5"/><circle cx="633.2" cy="73.4" r="2.3" fill="#b9bdca" opacity="0.5"/><circle cx="681.6" cy="85.2" r="2.3" fill="#b9bdca" opacity="0.5"/><circle cx="681.6" cy="256.6" r="2.3" fill="#b9bdca" opacity="0.5"/><circle cx="681.7" cy="335.3" r="2.3" fill="#b9bdca" opacity="0.5"/><circle cx="682.0" cy="86.8" r="2.3" fill="#b9bdca" opacity="0.5"/><circle cx="682.4" cy="71.5" r="2.3" fill="#b9bdca" opacity="0.5"/><circle cx="683.7" cy="71.0" r="2.3" fill="#b9bdca" opacity="0.5"/><circle cx="684.4" cy="71.5" r="2.3" fill="#b9bdca" opacity="0.5"/><circle cx="684.6" cy="55.0" r="2.3" fill="#b9bdca" opacity="0.5"/><circle cx="691.3" cy="83.1" r="2.3" fill="#b9bdca" opacity="0.5"/><circle cx="693.0" cy="74.7" r="2.3" fill="#b9bdca" opacity="0.5"/><circle cx="693.1" cy="59.3" r="2.3" fill="#b9bdca" opacity="0.5"/><circle cx="693.1" cy="79.9" r="2.3" fill="#b9bdca" opacity="0.5"/><circle cx="693.2" cy="74.1" r="2.3" fill="#b9bdca" opacity="0.5"/><circle cx="693.6" cy="72.7" r="2.3" fill="#b9bdca" opacity="0.5"/><circle cx="693.6" cy="73.8" r="2.3" fill="#b9bdca" opacity="0.5"/><circle cx="693.6" cy="75.9" r="2.3" fill="#b9bdca" opacity="0.5"/><circle cx="694.0" cy="74.1" r="2.3" fill="#b9bdca" opacity="0.5"/><circle cx="694.3" cy="73.5" r="2.3" fill="#b9bdca" opacity="0.5"/><circle cx="694.7" cy="74.2" r="2.3" fill="#b9bdca" opacity="0.5"/><circle cx="695.1" cy="71.5" r="2.3" fill="#b9bdca" opacity="0.5"/><circle cx="696.1" cy="74.3" r="2.3" fill="#b9bdca" opacity="0.5"/><circle cx="701.5" cy="73.2" r="2.3" fill="#b9bdca" opacity="0.5"/><circle cx="701.5" cy="73.6" r="2.3" fill="#b9bdca" opacity="0.5"/><circle cx="701.5" cy="73.8" r="2.3" fill="#b9bdca" opacity="0.5"/><circle cx="712.0" cy="73.3" r="2.3" fill="#b9bdca" opacity="0.5"/><circle cx="712.0" cy="73.4" r="2.3" fill="#b9bdca" opacity="0.5"/><circle cx="735.8" cy="96.1" r="2.3" fill="#b9bdca" opacity="0.5"/><circle cx="833.5" cy="95.6" r="2.3" fill="#b9bdca" opacity="0.5"/><circle cx="865.7" cy="74.8" r="2.3" fill="#b9bdca" opacity="0.5"/><circle cx="867.3" cy="72.3" r="2.3" fill="#b9bdca" opacity="0.5"/><circle cx="876.6" cy="79.9" r="2.3" fill="#b9bdca" opacity="0.5"/><circle cx="876.6" cy="80.6" r="2.3" fill="#b9bdca" opacity="0.5"/><circle cx="895.0" cy="73.3" r="2.3" fill="#b9bdca" opacity="0.5"/><circle cx="895.1" cy="72.8" r="2.3" fill="#b9bdca" opacity="0.5"/><circle cx="895.1" cy="73.0" r="2.3" fill="#b9bdca" opacity="0.5"/><circle cx="895.1" cy="73.2" r="2.3" fill="#b9bdca" opacity="0.5"/><circle cx="895.1" cy="73.5" r="2.3" fill="#b9bdca" opacity="0.5"/><circle cx="895.1" cy="73.6" r="2.3" fill="#b9bdca" opacity="0.5"/><circle cx="895.1" cy="73.7" r="2.3" fill="#b9bdca" opacity="0.5"/><circle cx="895.6" cy="73.1" r="2.3" fill="#b9bdca" opacity="0.5"/><circle cx="895.6" cy="73.2" r="2.3" fill="#b9bdca" opacity="0.5"/><circle cx="895.6" cy="74.3" r="2.3" fill="#b9bdca" opacity="0.5"/><circle cx="895.6" cy="74.5" r="2.3" fill="#b9bdca" opacity="0.5"/><circle cx="895.6" cy="72.8" r="2.3" fill="#b9bdca" opacity="0.5"/><circle cx="896.0" cy="74.7" r="2.3" fill="#b9bdca" opacity="0.5"/><circle cx="940.6" cy="332.5" r="2.3" fill="#b9bdca" opacity="0.5"/><circle cx="994.1" cy="117.5" r="2.3" fill="#b9bdca" opacity="0.5"/><circle cx="994.1" cy="211.0" r="2.3" fill="#b9bdca" opacity="0.5"/><circle cx="1007.6" cy="93.9" r="2.3" fill="#b9bdca" opacity="0.5"/><circle cx="1028.5" cy="74.9" r="2.3" fill="#b9bdca" opacity="0.5"/><circle cx="1028.9" cy="73.4" r="2.3" fill="#b9bdca" opacity="0.5"/><circle cx="1029.2" cy="72.9" r="2.3" fill="#b9bdca" opacity="0.5"/><circle cx="1029.6" cy="74.2" r="2.3" fill="#b9bdca" opacity="0.5"/><circle cx="1029.7" cy="74.9" r="2.3" fill="#b9bdca" opacity="0.5"/><circle cx="1030.0" cy="74.9" r="2.3" fill="#b9bdca" opacity="0.5"/><circle cx="1030.4" cy="73.6" r="2.3" fill="#b9bdca" opacity="0.5"/><circle cx="1030.5" cy="74.5" r="2.3" fill="#b9bdca" opacity="0.5"/><circle cx="1030.7" cy="73.6" r="2.3" fill="#b9bdca" opacity="0.5"/><circle cx="1031.2" cy="74.2" r="2.3" fill="#b9bdca" opacity="0.5"/><circle cx="1032.0" cy="72.3" r="2.3" fill="#b9bdca" opacity="0.5"/><path d="M161.5 152.3L165.1 155.9L161.5 159.5L157.9 155.9Z" fill="#2b3a7a" opacity="0.8" stroke="none" stroke-width="0"/><path d="M168.0 138.2L171.6 141.8L168.0 145.4L164.4 141.8Z" fill="#2b3a7a" opacity="0.8" stroke="none" stroke-width="0"/><path d="M168.9 128.1L172.5 131.7L168.9 135.3L165.3 131.7Z" fill="#2b3a7a" opacity="0.8" stroke="none" stroke-width="0"/><path d="M169.0 130.5L172.6 134.1L169.0 137.7L165.4 134.1Z" fill="#2b3a7a" opacity="0.8" stroke="none" stroke-width="0"/><path d="M169.7 127.3L173.3 130.9L169.7 134.5L166.1 130.9Z" fill="#2b3a7a" opacity="0.8" stroke="none" stroke-width="0"/><path d="M170.1 125.9L173.7 129.5L170.1 133.1L166.5 129.5Z" fill="#2b3a7a" opacity="0.8" stroke="none" stroke-width="0"/><path d="M170.1 127.3L173.7 130.9L170.1 134.5L166.5 130.9Z" fill="#2b3a7a" opacity="0.8" stroke="none" stroke-width="0"/><path d="M190.6 125.9L194.2 129.5L190.6 133.1L187.0 129.5Z" fill="#2b3a7a" opacity="0.8" stroke="none" stroke-width="0"/><path d="M193.6 125.3L197.2 128.9L193.6 132.5L190.0 128.9Z" fill="#2b3a7a" opacity="0.8" stroke="none" stroke-width="0"/><path d="M196.6 124.8L200.2 128.4L196.6 132.0L193.0 128.4Z" fill="#2b3a7a" opacity="0.8" stroke="none" stroke-width="0"/><path d="M198.6 124.6L202.2 128.2L198.6 131.8L195.0 128.2Z" fill="#2b3a7a" opacity="0.8" stroke="none" stroke-width="0"/><path d="M207.9 124.4L211.5 128.0L207.9 131.6L204.3 128.0Z" fill="#2b3a7a" opacity="0.8" stroke="none" stroke-width="0"/><path d="M217.5 109.2L221.1 112.8L217.5 116.4L213.9 112.8Z" fill="#2b3a7a" opacity="0.8" stroke="none" stroke-width="0"/><path d="M222.1 108.0L225.7 111.6L222.1 115.2L218.5 111.6Z" fill="#2b3a7a" opacity="0.8" stroke="none" stroke-width="0"/><path d="M223.5 101.9L227.1 105.5L223.5 109.1L219.9 105.5Z" fill="#2b3a7a" opacity="0.8" stroke="none" stroke-width="0"/><path d="M223.7 104.9L227.3 108.5L223.7 112.1L220.1 108.5Z" fill="#2b3a7a" opacity="0.8" stroke="none" stroke-width="0"/><path d="M224.2 101.5L227.8 105.1L224.2 108.7L220.6 105.1Z" fill="#2b3a7a" opacity="0.8" stroke="none" stroke-width="0"/><path d="M224.9 100.2L228.5 103.8L224.9 107.4L221.3 103.8Z" fill="#2b3a7a" opacity="0.8" stroke="none" stroke-width="0"/><path d="M231.5 99.9L235.1 103.5L231.5 107.1L227.9 103.5Z" fill="#2b3a7a" opacity="0.8" stroke="none" stroke-width="0"/><path d="M244.1 86.0L247.7 89.6L244.1 93.2L240.5 89.6Z" fill="#2b3a7a" opacity="0.8" stroke="none" stroke-width="0"/><path d="M246.3 85.7L249.9 89.3L246.3 92.9L242.7 89.3Z" fill="#2b3a7a" opacity="0.8" stroke="none" stroke-width="0"/><path d="M246.7 84.0L250.3 87.6L246.7 91.2L243.1 87.6Z" fill="#2b3a7a" opacity="0.8" stroke="none" stroke-width="0"/><path d="M249.0 81.8L252.6 85.4L249.0 89.0L245.4 85.4Z" fill="#2b3a7a" opacity="0.8" stroke="none" stroke-width="0"/><path d="M256.0 80.8L259.6 84.4L256.0 88.0L252.4 84.4Z" fill="#2b3a7a" opacity="0.8" stroke="none" stroke-width="0"/><path d="M309.6 80.8L313.2 84.4L309.6 88.0L306.0 84.4Z" fill="#2b3a7a" opacity="0.8" stroke="none" stroke-width="0"/><path d="M442.9 72.2L446.5 75.8L442.9 79.4L439.3 75.8Z" fill="#2b3a7a" opacity="0.8" stroke="none" stroke-width="0"/><path d="M444.1 72.1L447.7 75.7L444.1 79.3L440.5 75.7Z" fill="#2b3a7a" opacity="0.8" stroke="none" stroke-width="0"/><path d="M445.5 71.7L449.1 75.3L445.5 78.9L441.9 75.3Z" fill="#2b3a7a" opacity="0.8" stroke="none" stroke-width="0"/><path d="M445.7 71.1L449.3 74.7L445.7 78.3L442.1 74.7Z" fill="#2b3a7a" opacity="0.8" stroke="none" stroke-width="0"/><path d="M446.9 71.1L450.5 74.7L446.9 78.3L443.3 74.7Z" fill="#2b3a7a" opacity="0.8" stroke="none" stroke-width="0"/><path d="M454.4 70.8L458.0 74.4L454.4 78.0L450.8 74.4Z" fill="#2b3a7a" opacity="0.8" stroke="none" stroke-width="0"/><path d="M464.7 70.3L468.3 73.9L464.7 77.5L461.1 73.9Z" fill="#2b3a7a" opacity="0.8" stroke="none" stroke-width="0"/><path d="M468.1 70.0L471.7 73.6L468.1 77.2L464.5 73.6Z" fill="#2b3a7a" opacity="0.8" stroke="none" stroke-width="0"/><path d="M522.2 69.8L525.8 73.4L522.2 77.0L518.6 73.4Z" fill="#2b3a7a" opacity="0.8" stroke="none" stroke-width="0"/><path d="M568.3 69.8L571.9 73.4L568.3 77.0L564.7 73.4Z" fill="#2b3a7a" opacity="0.8" stroke="none" stroke-width="0"/><path d="M599.0 67.8L602.6 71.4L599.0 75.0L595.4 71.4Z" fill="#2b3a7a" opacity="0.8" stroke="none" stroke-width="0"/><path d="M60.0 335.3L61.6 335.3L61.6 335.1L64.0 335.1L64.0 320.7L68.6 320.7L68.6 319.9L70.3 319.9L70.3 315.3L70.7 315.3L70.7 314.9L71.5 314.9L71.5 314.9L98.8 314.9L98.8 238.7L99.3 238.7L99.3 229.0L99.7 229.0L99.7 222.3L100.3 222.3L100.3 220.6L100.4 220.6L100.4 220.5L100.7 220.5L100.7 214.2L101.7 214.2L101.7 214.1L102.0 214.1L102.0 213.7L102.2 213.7L102.2 213.5L102.5 213.5L102.5 212.7L103.9 212.7L103.9 212.1L104.2 212.1L104.2 212.0L107.9 212.0L107.9 206.7L112.0 206.7L112.0 204.9L113.5 204.9L113.5 204.6L114.5 204.6L114.5 201.9L116.3 201.9L116.3 201.8L117.3 201.8L117.3 201.0L117.8 201.0L117.8 200.0L120.5 200.0L120.5 200.0L121.5 200.0L121.5 199.7L130.5 199.7L130.5 195.5L137.2 195.5L137.2 187.4L137.4 187.4L137.4 186.2L137.8 186.2L137.8 184.5L149.5 184.5L149.5 183.9L155.3 183.9L155.3 169.3L157.2 169.3L157.2 168.8L157.4 168.8L157.4 167.7L158.5 167.7L158.5 165.0L158.9 165.0L158.9 163.7L159.0 163.7L159.0 163.6L161.5 163.6L161.5 155.9L164.5 155.9L164.5 155.8L165.6 155.8L165.6 141.9L168.0 141.9L168.0 141.8L168.9 141.8L168.9 131.7L169.7 131.7L169.7 130.9L170.1 130.9L170.1 129.5L190.6 129.5L190.6 129.5L193.6 129.5L193.6 128.9L196.6 128.9L196.6 128.4L198.6 128.4L198.6 128.2L207.9 128.2L207.9 128.0L217.5 128.0L217.5 112.8L219.7 112.8L219.7 110.2L223.5 110.2L223.5 105.5L224.2 105.5L224.2 105.1L224.9 105.1L224.9 103.8L231.5 103.8L231.5 103.5L244.1 103.5L244.1 89.6L246.3 89.6L246.3 89.3L246.7 89.3L246.7 87.6L249.0 87.6L249.0 85.4L256.0 85.4L256.0 84.4L309.6 84.4L309.6 84.4L442.9 84.4L442.9 75.8L444.1 75.8L444.1 75.7L445.5 75.7L445.5 75.3L445.7 75.3L445.7 74.7L446.9 74.7L446.9 74.7L454.4 74.7L454.4 74.4L464.7 74.4L464.7 73.9L468.1 73.9L468.1 73.6L473.7 73.6L473.7 69.8L476.1 69.8L476.1 69.1L684.6 69.1L684.6 55.0L1032.0 55.0" fill="none" stroke="#6675b0" stroke-width="1.6" stroke-dasharray="5 3" opacity="0.75"/><path d="M161.5 155.9L168.0 155.9L168.0 141.8L168.9 141.8L168.9 131.7L169.7 131.7L169.7 130.9L170.1 130.9L170.1 129.5L190.6 129.5L190.6 129.5L193.6 129.5L193.6 128.9L196.6 128.9L196.6 128.4L198.6 128.4L198.6 128.2L207.9 128.2L207.9 128.0L217.5 128.0L217.5 112.8L222.1 112.8L222.1 111.6L223.5 111.6L223.5 105.5L224.2 105.5L224.2 105.1L224.9 105.1L224.9 103.8L231.5 103.8L231.5 103.5L244.1 103.5L244.1 89.6L246.3 89.6L246.3 89.3L246.7 89.3L246.7 87.6L249.0 87.6L249.0 85.4L256.0 85.4L256.0 84.4L309.6 84.4L309.6 84.4L442.9 84.4L442.9 75.8L444.1 75.8L444.1 75.7L445.5 75.7L445.5 75.3L445.7 75.3L445.7 74.7L446.9 74.7L446.9 74.7L454.4 74.7L454.4 74.4L464.7 74.4L464.7 73.9L468.1 73.9L468.1 73.6L473.7 73.6L473.7 73.5L522.2 73.5L522.2 73.4L568.3 73.4L568.3 73.4L599.0 73.4L599.0 71.4L1032.0 71.4" fill="none" stroke="#2b3a7a" stroke-width="2.6"/><path d="M399.7 246.9L406.2 253.4L399.7 259.9L393.2 253.4Z" fill="#c5961a" opacity="1.0" stroke="#ffffff" stroke-width="1.4"/><path d="M466.0 206.5L472.5 213.0L466.0 219.5L459.5 213.0Z" fill="#c5961a" opacity="1.0" stroke="#ffffff" stroke-width="1.4"/><path d="M473.7 67.0L480.2 73.5L473.7 80.0L467.2 73.5Z" fill="#c5961a" opacity="1.0" stroke="#ffffff" stroke-width="1.4"/><path d="M530.5 240.8L537.0 247.3L530.5 253.8L524.0 247.3Z" fill="#c5961a" opacity="1.0" stroke="#ffffff" stroke-width="1.4"/><path d="M530.9 238.0L537.4 244.5L530.9 251.0L524.4 244.5Z" fill="#c5961a" opacity="1.0" stroke="#ffffff" stroke-width="1.4"/><text x="1042" y="53.0" font-size="11.5" fill="#6675b0">– – raw best 535.9</text><text x="1042" y="67.0" font-size="10" fill="#8a8fa3">unverified (pending)</text><path d="M599.0 64.9L605.5 71.4L599.0 77.9L592.5 71.4Z" fill="#2b3a7a" opacity="1.0" stroke="#ffffff" stroke-width="1.4"/><text x="1042" y="99.4" font-size="12.5" fill="#2b3a7a" font-weight="bold">◆ verified 510.1</text><text x="1042" y="115.4" font-size="10.5" fill="#3a3f55">top verified</text><text x="60" y="24" font-size="13" font-weight="bold" fill="#3a3f55" letter-spacing="1.2">SCORE EVOLUTION — gemma-challenge (tok/s)</text><circle cx="452" cy="20" r="3" fill="#b9bdca"/><text x="460" y="24" font-size="10.5" fill="#8a8fa3">all results</text><path d="M544.0 16.4L547.6 20.0L544.0 23.6L540.4 20.0Z" fill="#2b3a7a" opacity="1.0" stroke="none" stroke-width="0"/><text x="552" y="24" font-size="10.5" fill="#8a8fa3">verified</text><path d="M620.0 15.5L624.5 20.0L620.0 24.5L615.5 20.0Z" fill="#c5961a" opacity="1.0" stroke="#fff" stroke-width="1"/><text x="629" y="24" font-size="10.5" fill="#8a8fa3">mikasa-inbound (us)</text></svg>