<svg viewBox="0 0 1200 440" xmlns="http://www.w3.org/2000/svg" font-family="ui-sans-serif,system-ui,-apple-system,sans-serif"><rect x="0" y="0" width="1200" height="440" fill="#ffffff"/><rect x="60" y="46" width="972" height="350" fill="#f3f4fb"/><line x1="60" y1="396.0" x2="1032" y2="396.0" stroke="#e3e5ef" stroke-width="1"/><text x="52" y="400.0" text-anchor="end" font-size="11" fill="#8a8fa3">0</text><line x1="60" y1="332.4" x2="1032" y2="332.4" stroke="#e3e5ef" stroke-width="1"/><text x="52" y="336.4" text-anchor="end" font-size="11" fill="#8a8fa3">100</text><line x1="60" y1="268.7" x2="1032" y2="268.7" stroke="#e3e5ef" stroke-width="1"/><text x="52" y="272.7" text-anchor="end" font-size="11" fill="#8a8fa3">200</text><line x1="60" y1="205.1" x2="1032" y2="205.1" stroke="#e3e5ef" stroke-width="1"/><text x="52" y="209.1" text-anchor="end" font-size="11" fill="#8a8fa3">300</text><line x1="60" y1="141.5" x2="1032" y2="141.5" stroke="#e3e5ef" stroke-width="1"/><text x="52" y="145.5" text-anchor="end" font-size="11" fill="#8a8fa3">400</text><line x1="60" y1="77.8" x2="1032" y2="77.8" stroke="#e3e5ef" stroke-width="1"/><text x="52" y="81.8" text-anchor="end" font-size="11" fill="#8a8fa3">500</text><line x1="172.1" y1="46" x2="172.1" y2="396" stroke="#e3e5ef" stroke-width="1"/><text x="172.1" y="414.0" text-anchor="middle" font-size="11" fill="#8a8fa3">Jun 10</text><line x1="332.0" y1="46" x2="332.0" y2="396" stroke="#e3e5ef" stroke-width="1"/><text x="332.0" y="414.0" text-anchor="middle" font-size="11" fill="#8a8fa3">Jun 12</text><line x1="492.0" y1="46" x2="492.0" y2="396" stroke="#e3e5ef" stroke-width="1"/><text x="492.0" y="414.0" text-anchor="middle" font-size="11" fill="#8a8fa3">Jun 14</text><line x1="651.9" y1="46" x2="651.9" y2="396" stroke="#e3e5ef" stroke-width="1"/><text x="651.9" y="414.0" text-anchor="middle" font-size="11" fill="#8a8fa3">Jun 16</text><line x1="811.8" y1="46" x2="811.8" y2="396" stroke="#e3e5ef" stroke-width="1"/><text x="811.8" y="414.0" text-anchor="middle" font-size="11" fill="#8a8fa3">Jun 18</text><line x1="971.7" y1="46" x2="971.7" y2="396" stroke="#e3e5ef" stroke-width="1"/><text x="971.7" y="414.0" text-anchor="middle" font-size="11" fill="#8a8fa3">Jun 20</text><circle cx="60.0" cy="335.3" r="2.3" fill="#b9bdca" opacity="0.5"/><circle cx="63.8" cy="335.1" r="2.3" fill="#b9bdca" opacity="0.5"/><circle cx="67.7" cy="368.0" r="2.3" fill="#b9bdca" opacity="0.5"/><circle cx="69.2" cy="320.7" r="2.3" fill="#b9bdca" opacity="0.5"/><circle cx="79.9" cy="319.9" r="2.3" fill="#b9bdca" opacity="0.5"/><circle cx="80.5" cy="320.6" r="2.3" fill="#b9bdca" opacity="0.5"/><circle cx="83.9" cy="315.3" r="2.3" fill="#b9bdca" opacity="0.5"/><circle cx="84.6" cy="319.7" r="2.3" fill="#b9bdca" opacity="0.5"/><circle cx="84.9" cy="314.9" r="2.3" fill="#b9bdca" opacity="0.5"/><circle cx="86.2" cy="315.5" r="2.3" fill="#b9bdca" opacity="0.5"/><circle cx="86.7" cy="314.9" r="2.3" fill="#b9bdca" opacity="0.5"/><circle cx="87.7" cy="315.4" r="2.3" fill="#b9bdca" opacity="0.5"/><circle cx="89.7" cy="315.0" r="2.3" fill="#b9bdca" opacity="0.5"/><circle cx="150.3" cy="238.7" r="2.3" fill="#b9bdca" opacity="0.5"/><circle cx="150.8" cy="315.0" r="2.3" fill="#b9bdca" opacity="0.5"/><circle cx="151.3" cy="229.0" r="2.3" fill="#b9bdca" opacity="0.5"/><circle cx="152.3" cy="222.3" r="2.3" fill="#b9bdca" opacity="0.5"/><circle cx="153.3" cy="228.0" r="2.3" fill="#b9bdca" opacity="0.5"/><circle cx="153.5" cy="223.3" r="2.3" fill="#b9bdca" opacity="0.5"/><circle cx="153.6" cy="220.6" r="2.3" fill="#b9bdca" opacity="0.5"/><circle cx="153.8" cy="220.5" r="2.3" fill="#b9bdca" opacity="0.5"/><circle cx="154.1" cy="223.2" r="2.3" fill="#b9bdca" opacity="0.5"/><circle cx="154.6" cy="214.2" r="2.3" fill="#b9bdca" opacity="0.5"/><circle cx="154.7" cy="222.1" r="2.3" fill="#b9bdca" opacity="0.5"/><circle cx="155.1" cy="220.7" r="2.3" fill="#b9bdca" opacity="0.5"/><circle cx="155.8" cy="218.5" r="2.3" fill="#b9bdca" opacity="0.5"/><circle cx="156.0" cy="215.2" r="2.3" fill="#b9bdca" opacity="0.5"/><circle cx="156.5" cy="214.3" r="2.3" fill="#b9bdca" opacity="0.5"/><circle cx="156.5" cy="219.2" r="2.3" fill="#b9bdca" opacity="0.5"/><circle cx="157.0" cy="214.1" r="2.3" fill="#b9bdca" opacity="0.5"/><circle cx="157.3" cy="215.2" r="2.3" fill="#b9bdca" opacity="0.5"/><circle cx="157.7" cy="213.7" r="2.3" fill="#b9bdca" opacity="0.5"/><circle cx="158.2" cy="213.5" r="2.3" fill="#b9bdca" opacity="0.5"/><circle cx="158.6" cy="214.8" r="2.3" fill="#b9bdca" opacity="0.5"/><circle cx="158.6" cy="217.7" r="2.3" fill="#b9bdca" opacity="0.5"/><circle cx="158.9" cy="212.7" r="2.3" fill="#b9bdca" opacity="0.5"/><circle cx="159.8" cy="213.3" r="2.3" fill="#b9bdca" opacity="0.5"/><circle cx="161.0" cy="212.7" r="2.3" fill="#b9bdca" opacity="0.5"/><circle cx="161.0" cy="213.6" r="2.3" fill="#b9bdca" opacity="0.5"/><circle cx="161.3" cy="213.0" r="2.3" fill="#b9bdca" opacity="0.5"/><circle cx="162.0" cy="212.1" r="2.3" fill="#b9bdca" opacity="0.5"/><circle cx="162.2" cy="213.3" r="2.3" fill="#b9bdca" opacity="0.5"/><circle cx="162.8" cy="212.0" r="2.3" fill="#b9bdca" opacity="0.5"/><circle cx="164.0" cy="212.1" r="2.3" fill="#b9bdca" opacity="0.5"/><circle cx="164.0" cy="212.8" r="2.3" fill="#b9bdca" opacity="0.5"/><circle cx="171.3" cy="206.7" r="2.3" fill="#b9bdca" opacity="0.5"/><circle cx="172.3" cy="206.8" r="2.3" fill="#b9bdca" opacity="0.5"/><circle cx="172.3" cy="212.5" r="2.3" fill="#b9bdca" opacity="0.5"/><circle cx="172.9" cy="207.2" r="2.3" fill="#b9bdca" opacity="0.5"/><circle cx="175.3" cy="207.0" r="2.3" fill="#b9bdca" opacity="0.5"/><circle cx="180.8" cy="204.9" r="2.3" fill="#b9bdca" opacity="0.5"/><circle cx="184.4" cy="204.6" r="2.3" fill="#b9bdca" opacity="0.5"/><circle cx="184.7" cy="212.3" r="2.3" fill="#b9bdca" opacity="0.5"/><circle cx="185.3" cy="204.6" r="2.3" fill="#b9bdca" opacity="0.5"/><circle cx="185.3" cy="204.6" r="2.3" fill="#b9bdca" opacity="0.5"/><circle cx="185.3" cy="204.9" r="2.3" fill="#b9bdca" opacity="0.5"/><circle cx="185.3" cy="204.9" r="2.3" fill="#b9bdca" opacity="0.5"/><circle cx="186.7" cy="201.9" r="2.3" fill="#b9bdca" opacity="0.5"/><circle cx="188.9" cy="206.5" r="2.3" fill="#b9bdca" opacity="0.5"/><circle cx="189.8" cy="205.8" r="2.3" fill="#b9bdca" opacity="0.5"/><circle cx="189.8" cy="335.1" r="2.3" fill="#b9bdca" opacity="0.5"/><circle cx="191.0" cy="201.8" r="2.3" fill="#b9bdca" opacity="0.5"/><circle cx="191.1" cy="202.2" r="2.3" fill="#b9bdca" opacity="0.5"/><circle cx="193.1" cy="201.0" r="2.3" fill="#b9bdca" opacity="0.5"/><circle cx="193.9" cy="203.1" r="2.3" fill="#b9bdca" opacity="0.5"/><circle cx="194.4" cy="200.0" r="2.3" fill="#b9bdca" opacity="0.5"/><circle cx="194.4" cy="204.6" r="2.3" fill="#b9bdca" opacity="0.5"/><circle cx="195.7" cy="202.3" r="2.3" fill="#b9bdca" opacity="0.5"/><circle cx="198.4" cy="200.4" r="2.3" fill="#b9bdca" opacity="0.5"/><circle cx="199.4" cy="200.7" r="2.3" fill="#b9bdca" opacity="0.5"/><circle cx="200.5" cy="200.0" r="2.3" fill="#b9bdca" opacity="0.5"/><circle cx="203.0" cy="199.7" r="2.3" fill="#b9bdca" opacity="0.5"/><circle cx="218.3" cy="200.6" r="2.3" fill="#b9bdca" opacity="0.5"/><circle cx="219.6" cy="201.8" r="2.3" fill="#b9bdca" opacity="0.5"/><circle cx="221.7" cy="208.4" r="2.3" fill="#b9bdca" opacity="0.5"/><circle cx="221.8" cy="200.8" r="2.3" fill="#b9bdca" opacity="0.5"/><circle cx="223.3" cy="200.7" r="2.3" fill="#b9bdca" opacity="0.5"/><circle cx="223.3" cy="201.9" r="2.3" fill="#b9bdca" opacity="0.5"/><circle cx="223.9" cy="195.5" r="2.3" fill="#b9bdca" opacity="0.5"/><circle cx="225.3" cy="196.9" r="2.3" fill="#b9bdca" opacity="0.5"/><circle cx="226.0" cy="197.9" r="2.3" fill="#b9bdca" opacity="0.5"/><circle cx="227.3" cy="196.1" r="2.3" fill="#b9bdca" opacity="0.5"/><circle cx="232.0" cy="197.3" r="2.3" fill="#b9bdca" opacity="0.5"/><circle cx="233.3" cy="195.9" r="2.3" fill="#b9bdca" opacity="0.5"/><circle cx="233.8" cy="201.0" r="2.3" fill="#b9bdca" opacity="0.5"/><circle cx="234.1" cy="197.5" r="2.3" fill="#b9bdca" opacity="0.5"/><circle cx="235.2" cy="196.9" r="2.3" fill="#b9bdca" opacity="0.5"/><circle cx="235.3" cy="197.1" r="2.3" fill="#b9bdca" opacity="0.5"/><circle cx="235.4" cy="197.0" r="2.3" fill="#b9bdca" opacity="0.5"/><circle cx="236.4" cy="196.0" r="2.3" fill="#b9bdca" opacity="0.5"/><circle cx="236.4" cy="196.0" r="2.3" fill="#b9bdca" opacity="0.5"/><circle cx="236.5" cy="197.9" r="2.3" fill="#b9bdca" opacity="0.5"/><circle cx="237.3" cy="197.8" r="2.3" fill="#b9bdca" opacity="0.5"/><circle cx="238.0" cy="196.2" r="2.3" fill="#b9bdca" opacity="0.5"/><circle cx="238.0" cy="197.5" r="2.3" fill="#b9bdca" opacity="0.5"/><circle cx="238.3" cy="196.9" r="2.3" fill="#b9bdca" opacity="0.5"/><circle cx="238.4" cy="195.5" r="2.3" fill="#b9bdca" opacity="0.5"/><circle cx="239.3" cy="198.1" r="2.3" fill="#b9bdca" opacity="0.5"/><circle cx="239.4" cy="187.4" r="2.3" fill="#b9bdca" opacity="0.5"/><circle cx="239.9" cy="186.2" r="2.3" fill="#b9bdca" opacity="0.5"/><circle cx="239.9" cy="196.3" r="2.3" fill="#b9bdca" opacity="0.5"/><circle cx="239.9" cy="197.2" r="2.3" fill="#b9bdca" opacity="0.5"/><circle cx="239.9" cy="197.8" r="2.3" fill="#b9bdca" opacity="0.5"/><circle cx="239.9" cy="368.0" r="2.3" fill="#b9bdca" opacity="0.5"/><circle cx="240.9" cy="184.5" r="2.3" fill="#b9bdca" opacity="0.5"/><circle cx="245.0" cy="184.6" r="2.3" fill="#b9bdca" opacity="0.5"/><circle cx="246.8" cy="185.6" r="2.3" fill="#b9bdca" opacity="0.5"/><circle cx="252.8" cy="188.7" r="2.3" fill="#b9bdca" opacity="0.5"/><circle cx="260.9" cy="185.4" r="2.3" fill="#b9bdca" opacity="0.5"/><circle cx="262.7" cy="185.2" r="2.3" fill="#b9bdca" opacity="0.5"/><circle cx="263.3" cy="186.6" r="2.3" fill="#b9bdca" opacity="0.5"/><circle cx="263.5" cy="185.3" r="2.3" fill="#b9bdca" opacity="0.5"/><circle cx="264.9" cy="185.3" r="2.3" fill="#b9bdca" opacity="0.5"/><circle cx="265.6" cy="185.0" r="2.3" fill="#b9bdca" opacity="0.5"/><circle cx="267.0" cy="184.9" r="2.3" fill="#b9bdca" opacity="0.5"/><circle cx="267.9" cy="185.1" r="2.3" fill="#b9bdca" opacity="0.5"/><circle cx="267.9" cy="185.2" r="2.3" fill="#b9bdca" opacity="0.5"/><circle cx="267.9" cy="186.4" r="2.3" fill="#b9bdca" opacity="0.5"/><circle cx="268.1" cy="183.9" r="2.3" fill="#b9bdca" opacity="0.5"/><circle cx="275.5" cy="184.4" r="2.3" fill="#b9bdca" opacity="0.5"/><circle cx="276.8" cy="184.2" r="2.3" fill="#b9bdca" opacity="0.5"/><circle cx="281.5" cy="169.3" r="2.3" fill="#b9bdca" opacity="0.5"/><circle cx="286.0" cy="168.8" r="2.3" fill="#b9bdca" opacity="0.5"/><circle cx="286.3" cy="167.7" r="2.3" fill="#b9bdca" opacity="0.5"/><circle cx="288.3" cy="201.4" r="2.3" fill="#b9bdca" opacity="0.5"/><circle cx="288.9" cy="165.0" r="2.3" fill="#b9bdca" opacity="0.5"/><circle cx="289.2" cy="198.2" r="2.3" fill="#b9bdca" opacity="0.5"/><circle cx="289.9" cy="163.7" r="2.3" fill="#b9bdca" opacity="0.5"/><circle cx="290.2" cy="163.6" r="2.3" fill="#b9bdca" opacity="0.5"/><circle cx="290.9" cy="165.9" r="2.3" fill="#b9bdca" opacity="0.5"/><circle cx="295.0" cy="165.1" r="2.3" fill="#b9bdca" opacity="0.5"/><circle cx="295.9" cy="155.9" r="2.3" fill="#b9bdca" opacity="0.5"/><circle cx="299.8" cy="196.5" r="2.3" fill="#b9bdca" opacity="0.5"/><circle cx="301.4" cy="157.4" r="2.3" fill="#b9bdca" opacity="0.5"/><circle cx="302.9" cy="155.8" r="2.3" fill="#b9bdca" opacity="0.5"/><circle cx="305.6" cy="141.9" r="2.3" fill="#b9bdca" opacity="0.5"/><circle cx="310.9" cy="156.1" r="2.3" fill="#b9bdca" opacity="0.5"/><circle cx="310.9" cy="156.4" r="2.3" fill="#b9bdca" opacity="0.5"/><circle cx="311.2" cy="141.8" r="2.3" fill="#b9bdca" opacity="0.5"/><circle cx="311.4" cy="196.0" r="2.3" fill="#b9bdca" opacity="0.5"/><circle cx="313.2" cy="131.7" r="2.3" fill="#b9bdca" opacity="0.5"/><circle cx="313.4" cy="134.1" r="2.3" fill="#b9bdca" opacity="0.5"/><circle cx="314.1" cy="141.1" r="2.3" fill="#b9bdca" opacity="0.5"/><circle cx="314.9" cy="134.0" r="2.3" fill="#b9bdca" opacity="0.5"/><circle cx="315.1" cy="130.9" r="2.3" fill="#b9bdca" opacity="0.5"/><circle cx="315.1" cy="154.2" r="2.3" fill="#b9bdca" opacity="0.5"/><circle cx="315.5" cy="133.6" r="2.3" fill="#b9bdca" opacity="0.5"/><circle cx="315.9" cy="129.5" r="2.3" fill="#b9bdca" opacity="0.5"/><circle cx="315.9" cy="130.9" r="2.3" fill="#b9bdca" opacity="0.5"/><circle cx="315.9" cy="133.4" r="2.3" fill="#b9bdca" opacity="0.5"/><circle cx="316.3" cy="131.2" r="2.3" fill="#b9bdca" opacity="0.5"/><circle cx="319.7" cy="189.8" r="2.3" fill="#b9bdca" opacity="0.5"/><circle cx="319.8" cy="133.2" r="2.3" fill="#b9bdca" opacity="0.5"/><circle cx="320.3" cy="133.5" r="2.3" fill="#b9bdca" opacity="0.5"/><circle cx="321.5" cy="130.1" r="2.3" fill="#b9bdca" opacity="0.5"/><circle cx="324.8" cy="130.3" r="2.3" fill="#b9bdca" opacity="0.5"/><circle cx="326.3" cy="303.1" r="2.3" fill="#b9bdca" opacity="0.5"/><circle cx="329.0" cy="133.2" r="2.3" fill="#b9bdca" opacity="0.5"/><circle cx="332.5" cy="144.2" r="2.3" fill="#b9bdca" opacity="0.5"/><circle cx="333.3" cy="135.3" r="2.3" fill="#b9bdca" opacity="0.5"/><circle cx="335.6" cy="133.4" r="2.3" fill="#b9bdca" opacity="0.5"/><circle cx="335.8" cy="159.9" r="2.3" fill="#b9bdca" opacity="0.5"/><circle cx="336.4" cy="130.8" r="2.3" fill="#b9bdca" opacity="0.5"/><circle cx="337.2" cy="133.2" r="2.3" fill="#b9bdca" opacity="0.5"/><circle cx="345.3" cy="130.9" r="2.3" fill="#b9bdca" opacity="0.5"/><circle cx="346.3" cy="130.9" r="2.3" fill="#b9bdca" opacity="0.5"/><circle cx="346.3" cy="133.8" r="2.3" fill="#b9bdca" opacity="0.5"/><circle cx="347.6" cy="130.4" r="2.3" fill="#b9bdca" opacity="0.5"/><circle cx="348.5" cy="153.7" r="2.3" fill="#b9bdca" opacity="0.5"/><circle cx="350.0" cy="133.3" r="2.3" fill="#b9bdca" opacity="0.5"/><circle cx="352.5" cy="156.5" r="2.3" fill="#b9bdca" opacity="0.5"/><circle cx="353.0" cy="132.3" r="2.3" fill="#b9bdca" opacity="0.5"/><circle cx="355.9" cy="147.2" r="2.3" fill="#b9bdca" opacity="0.5"/><circle cx="356.5" cy="133.6" r="2.3" fill="#b9bdca" opacity="0.5"/><circle cx="357.5" cy="129.5" r="2.3" fill="#b9bdca" opacity="0.5"/><circle cx="357.5" cy="133.3" r="2.3" fill="#b9bdca" opacity="0.5"/><circle cx="361.1" cy="133.3" r="2.3" fill="#b9bdca" opacity="0.5"/><circle cx="363.5" cy="129.5" r="2.3" fill="#b9bdca" opacity="0.5"/><circle cx="367.6" cy="130.6" r="2.3" fill="#b9bdca" opacity="0.5"/><circle cx="370.7" cy="128.9" r="2.3" fill="#b9bdca" opacity="0.5"/><circle cx="371.3" cy="132.7" r="2.3" fill="#b9bdca" opacity="0.5"/><circle cx="371.3" cy="133.1" r="2.3" fill="#b9bdca" opacity="0.5"/><circle cx="375.9" cy="129.8" r="2.3" fill="#b9bdca" opacity="0.5"/><circle cx="377.1" cy="333.8" r="2.3" fill="#b9bdca" opacity="0.5"/><circle cx="377.5" cy="128.4" r="2.3" fill="#b9bdca" opacity="0.5"/><circle cx="379.6" cy="129.8" r="2.3" fill="#b9bdca" opacity="0.5"/><circle cx="380.5" cy="128.9" r="2.3" fill="#b9bdca" opacity="0.5"/><circle cx="380.7" cy="128.9" r="2.3" fill="#b9bdca" opacity="0.5"/><circle cx="382.2" cy="128.2" r="2.3" fill="#b9bdca" opacity="0.5"/><circle cx="383.4" cy="129.7" r="2.3" fill="#b9bdca" opacity="0.5"/><circle cx="383.8" cy="142.3" r="2.3" fill="#b9bdca" opacity="0.5"/><circle cx="388.1" cy="128.8" r="2.3" fill="#b9bdca" opacity="0.5"/><circle cx="390.7" cy="161.1" r="2.3" fill="#b9bdca" opacity="0.5"/><circle cx="395.6" cy="164.4" r="2.3" fill="#b9bdca" opacity="0.5"/><circle cx="396.1" cy="248.3" r="2.3" fill="#b9bdca" opacity="0.5"/><circle cx="403.1" cy="135.4" r="2.3" fill="#b9bdca" opacity="0.5"/><circle cx="403.7" cy="128.0" r="2.3" fill="#b9bdca" opacity="0.5"/><circle cx="405.9" cy="229.0" r="2.3" fill="#b9bdca" opacity="0.5"/><circle cx="410.8" cy="128.1" r="2.3" fill="#b9bdca" opacity="0.5"/><circle cx="412.1" cy="128.6" r="2.3" fill="#b9bdca" opacity="0.5"/><circle cx="416.6" cy="128.8" r="2.3" fill="#b9bdca" opacity="0.5"/><circle cx="416.6" cy="129.6" r="2.3" fill="#b9bdca" opacity="0.5"/><circle cx="416.6" cy="130.9" r="2.3" fill="#b9bdca" opacity="0.5"/><circle cx="426.2" cy="112.8" r="2.3" fill="#b9bdca" opacity="0.5"/><circle cx="431.2" cy="110.2" r="2.3" fill="#b9bdca" opacity="0.5"/><circle cx="431.4" cy="111.6" r="2.3" fill="#b9bdca" opacity="0.5"/><circle cx="434.5" cy="111.0" r="2.3" fill="#b9bdca" opacity="0.5"/><circle cx="436.1" cy="335.1" r="2.3" fill="#b9bdca" opacity="0.5"/><circle cx="436.8" cy="111.6" r="2.3" fill="#b9bdca" opacity="0.5"/><circle cx="440.0" cy="105.5" r="2.3" fill="#b9bdca" opacity="0.5"/><circle cx="440.5" cy="108.5" r="2.3" fill="#b9bdca" opacity="0.5"/><circle cx="441.8" cy="105.1" r="2.3" fill="#b9bdca" opacity="0.5"/><circle cx="443.3" cy="103.8" r="2.3" fill="#b9bdca" opacity="0.5"/><circle cx="444.9" cy="125.8" r="2.3" fill="#b9bdca" opacity="0.5"/><circle cx="458.8" cy="103.5" r="2.3" fill="#b9bdca" opacity="0.5"/><circle cx="462.3" cy="127.8" r="2.3" fill="#b9bdca" opacity="0.5"/><circle cx="463.9" cy="334.3" r="2.3" fill="#b9bdca" opacity="0.5"/><circle cx="466.0" cy="128.6" r="2.3" fill="#b9bdca" opacity="0.5"/><circle cx="467.0" cy="128.6" r="2.3" fill="#b9bdca" opacity="0.5"/><circle cx="467.3" cy="128.6" r="2.3" fill="#b9bdca" opacity="0.5"/><circle cx="468.5" cy="256.6" r="2.3" fill="#b9bdca" opacity="0.5"/><circle cx="470.1" cy="254.6" r="2.3" fill="#b9bdca" opacity="0.5"/><circle cx="472.6" cy="128.6" r="2.3" fill="#b9bdca" opacity="0.5"/><circle cx="479.0" cy="250.1" r="2.3" fill="#b9bdca" opacity="0.5"/><circle cx="479.5" cy="161.4" r="2.3" fill="#b9bdca" opacity="0.5"/><circle cx="480.2" cy="206.6" r="2.3" fill="#b9bdca" opacity="0.5"/><circle cx="486.1" cy="113.5" r="2.3" fill="#b9bdca" opacity="0.5"/><circle cx="488.0" cy="89.6" r="2.3" fill="#b9bdca" opacity="0.5"/><circle cx="489.5" cy="90.2" r="2.3" fill="#b9bdca" opacity="0.5"/><circle cx="493.1" cy="89.3" r="2.3" fill="#b9bdca" opacity="0.5"/><circle cx="494.1" cy="87.6" r="2.3" fill="#b9bdca" opacity="0.5"/><circle cx="495.4" cy="185.0" r="2.3" fill="#b9bdca" opacity="0.5"/><circle cx="496.7" cy="131.6" r="2.3" fill="#b9bdca" opacity="0.5"/><circle cx="497.7" cy="87.8" r="2.3" fill="#b9bdca" opacity="0.5"/><circle cx="499.4" cy="85.4" r="2.3" fill="#b9bdca" opacity="0.5"/><circle cx="502.0" cy="86.8" r="2.3" fill="#b9bdca" opacity="0.5"/><circle cx="504.6" cy="88.4" r="2.3" fill="#b9bdca" opacity="0.5"/><circle cx="515.6" cy="89.5" r="2.3" fill="#b9bdca" opacity="0.5"/><circle cx="515.6" cy="155.6" r="2.3" fill="#b9bdca" opacity="0.5"/><circle cx="515.7" cy="84.4" r="2.3" fill="#b9bdca" opacity="0.5"/><circle cx="528.8" cy="89.2" r="2.3" fill="#b9bdca" opacity="0.5"/><circle cx="529.0" cy="90.5" r="2.3" fill="#b9bdca" opacity="0.5"/><circle cx="532.7" cy="87.7" r="2.3" fill="#b9bdca" opacity="0.5"/><circle cx="533.9" cy="367.9" r="2.3" fill="#b9bdca" opacity="0.5"/><circle cx="539.3" cy="164.3" r="2.3" fill="#b9bdca" opacity="0.5"/><circle cx="541.9" cy="94.6" r="2.3" fill="#b9bdca" opacity="0.5"/><circle cx="542.9" cy="89.6" r="2.3" fill="#b9bdca" opacity="0.5"/><circle cx="554.2" cy="124.6" r="2.3" fill="#b9bdca" opacity="0.5"/><circle cx="566.3" cy="146.2" r="2.3" fill="#b9bdca" opacity="0.5"/><circle cx="566.6" cy="90.5" r="2.3" fill="#b9bdca" opacity="0.5"/><circle cx="567.7" cy="87.7" r="2.3" fill="#b9bdca" opacity="0.5"/><circle cx="568.3" cy="87.7" r="2.3" fill="#b9bdca" opacity="0.5"/><circle cx="568.4" cy="89.6" r="2.3" fill="#b9bdca" opacity="0.5"/><circle cx="576.9" cy="93.0" r="2.3" fill="#b9bdca" opacity="0.5"/><circle cx="580.0" cy="85.5" r="2.3" fill="#b9bdca" opacity="0.5"/><circle cx="605.3" cy="334.8" r="2.3" fill="#b9bdca" opacity="0.5"/><circle cx="608.2" cy="86.3" r="2.3" fill="#b9bdca" opacity="0.5"/><circle cx="616.7" cy="85.5" r="2.3" fill="#b9bdca" opacity="0.5"/><circle cx="618.2" cy="84.6" r="2.3" fill="#b9bdca" opacity="0.5"/><circle cx="621.8" cy="87.8" r="2.3" fill="#b9bdca" opacity="0.5"/><circle cx="623.2" cy="84.4" r="2.3" fill="#b9bdca" opacity="0.5"/><circle cx="624.1" cy="84.8" r="2.3" fill="#b9bdca" opacity="0.5"/><circle cx="626.6" cy="87.4" r="2.3" fill="#b9bdca" opacity="0.5"/><circle cx="640.2" cy="84.4" r="2.3" fill="#b9bdca" opacity="0.5"/><circle cx="699.9" cy="89.3" r="2.3" fill="#b9bdca" opacity="0.5"/><circle cx="710.6" cy="88.6" r="2.3" fill="#b9bdca" opacity="0.5"/><circle cx="710.6" cy="92.1" r="2.3" fill="#b9bdca" opacity="0.5"/><circle cx="713.0" cy="156.8" r="2.3" fill="#b9bdca" opacity="0.5"/><circle cx="747.4" cy="201.6" r="2.3" fill="#b9bdca" opacity="0.5"/><circle cx="772.5" cy="315.6" r="2.3" fill="#b9bdca" opacity="0.5"/><circle cx="841.3" cy="87.7" r="2.3" fill="#b9bdca" opacity="0.5"/><circle cx="862.1" cy="87.6" r="2.3" fill="#b9bdca" opacity="0.5"/><circle cx="880.6" cy="87.2" r="2.3" fill="#b9bdca" opacity="0.5"/><circle cx="884.8" cy="88.8" r="2.3" fill="#b9bdca" opacity="0.5"/><circle cx="886.5" cy="89.2" r="2.3" fill="#b9bdca" opacity="0.5"/><circle cx="887.4" cy="90.9" r="2.3" fill="#b9bdca" opacity="0.5"/><circle cx="892.7" cy="87.7" r="2.3" fill="#b9bdca" opacity="0.5"/><circle cx="911.3" cy="88.6" r="2.3" fill="#b9bdca" opacity="0.5"/><circle cx="913.7" cy="89.7" r="2.3" fill="#b9bdca" opacity="0.5"/><circle cx="915.3" cy="88.2" r="2.3" fill="#b9bdca" opacity="0.5"/><circle cx="950.1" cy="75.8" r="2.3" fill="#b9bdca" opacity="0.5"/><circle cx="952.9" cy="75.7" r="2.3" fill="#b9bdca" opacity="0.5"/><circle cx="954.9" cy="76.7" r="2.3" fill="#b9bdca" opacity="0.5"/><circle cx="955.0" cy="75.8" r="2.3" fill="#b9bdca" opacity="0.5"/><circle cx="956.1" cy="75.3" r="2.3" fill="#b9bdca" opacity="0.5"/><circle cx="956.6" cy="74.7" r="2.3" fill="#b9bdca" opacity="0.5"/><circle cx="957.0" cy="83.4" r="2.3" fill="#b9bdca" opacity="0.5"/><circle cx="957.8" cy="76.2" r="2.3" fill="#b9bdca" opacity="0.5"/><circle cx="958.6" cy="78.1" r="2.3" fill="#b9bdca" opacity="0.5"/><circle cx="959.5" cy="74.7" r="2.3" fill="#b9bdca" opacity="0.5"/><circle cx="965.3" cy="89.3" r="2.3" fill="#b9bdca" opacity="0.5"/><circle cx="976.9" cy="74.4" r="2.3" fill="#b9bdca" opacity="0.5"/><circle cx="995.4" cy="74.4" r="2.3" fill="#b9bdca" opacity="0.5"/><circle cx="998.4" cy="335.1" r="2.3" fill="#b9bdca" opacity="0.5"/><circle cx="998.5" cy="81.7" r="2.3" fill="#b9bdca" opacity="0.5"/><circle cx="1000.7" cy="74.6" r="2.3" fill="#b9bdca" opacity="0.5"/><circle cx="1000.7" cy="82.1" r="2.3" fill="#b9bdca" opacity="0.5"/><circle cx="1000.7" cy="73.9" r="2.3" fill="#b9bdca" opacity="0.5"/><circle cx="1006.0" cy="76.2" r="2.3" fill="#b9bdca" opacity="0.5"/><circle cx="1006.8" cy="82.1" r="2.3" fill="#b9bdca" opacity="0.5"/><circle cx="1007.6" cy="74.2" r="2.3" fill="#b9bdca" opacity="0.5"/><circle cx="1007.7" cy="75.0" r="2.3" fill="#b9bdca" opacity="0.5"/><circle cx="1008.8" cy="73.6" r="2.3" fill="#b9bdca" opacity="0.5"/><circle cx="1008.8" cy="83.3" r="2.3" fill="#b9bdca" opacity="0.5"/><circle cx="1008.8" cy="83.8" r="2.3" fill="#b9bdca" opacity="0.5"/><circle cx="1008.9" cy="78.1" r="2.3" fill="#b9bdca" opacity="0.5"/><circle cx="1008.9" cy="81.5" r="2.3" fill="#b9bdca" opacity="0.5"/><circle cx="1008.9" cy="83.0" r="2.3" fill="#b9bdca" opacity="0.5"/><circle cx="1008.9" cy="83.7" r="2.3" fill="#b9bdca" opacity="0.5"/><circle cx="1016.2" cy="82.7" r="2.3" fill="#b9bdca" opacity="0.5"/><circle cx="1017.8" cy="77.8" r="2.3" fill="#b9bdca" opacity="0.5"/><circle cx="1021.7" cy="69.8" r="2.3" fill="#b9bdca" opacity="0.5"/><circle cx="1022.9" cy="75.9" r="2.3" fill="#b9bdca" opacity="0.5"/><circle cx="1023.4" cy="74.3" r="2.3" fill="#b9bdca" opacity="0.5"/><circle cx="1023.4" cy="77.4" r="2.3" fill="#b9bdca" opacity="0.5"/><circle cx="1023.4" cy="80.6" r="2.3" fill="#b9bdca" opacity="0.5"/><circle cx="1023.4" cy="81.8" r="2.3" fill="#b9bdca" opacity="0.5"/><circle cx="1026.1" cy="76.9" r="2.3" fill="#b9bdca" opacity="0.5"/><circle cx="1026.1" cy="82.8" r="2.3" fill="#b9bdca" opacity="0.5"/><circle cx="1026.1" cy="83.0" r="2.3" fill="#b9bdca" opacity="0.5"/><circle cx="1026.1" cy="83.1" r="2.3" fill="#b9bdca" opacity="0.5"/><circle cx="1027.3" cy="69.1" r="2.3" fill="#b9bdca" opacity="0.5"/><circle cx="1030.3" cy="75.5" r="2.3" fill="#b9bdca" opacity="0.5"/><circle cx="1032.0" cy="74.3" r="2.3" fill="#b9bdca" opacity="0.5"/><path d="M295.9 152.3L299.5 155.9L295.9 159.5L292.3 155.9Z" fill="#2b3a7a" opacity="0.8" stroke="none" stroke-width="0"/><path d="M311.2 138.2L314.8 141.8L311.2 145.4L307.6 141.8Z" fill="#2b3a7a" opacity="0.8" stroke="none" stroke-width="0"/><path d="M313.2 128.1L316.8 131.7L313.2 135.3L309.6 131.7Z" fill="#2b3a7a" opacity="0.8" stroke="none" stroke-width="0"/><path d="M313.4 130.5L317.0 134.1L313.4 137.7L309.8 134.1Z" fill="#2b3a7a" opacity="0.8" stroke="none" stroke-width="0"/><path d="M315.1 127.3L318.7 130.9L315.1 134.5L311.5 130.9Z" fill="#2b3a7a" opacity="0.8" stroke="none" stroke-width="0"/><path d="M315.9 125.9L319.5 129.5L315.9 133.1L312.3 129.5Z" fill="#2b3a7a" opacity="0.8" stroke="none" stroke-width="0"/><path d="M315.9 127.3L319.5 130.9L315.9 134.5L312.3 130.9Z" fill="#2b3a7a" opacity="0.8" stroke="none" stroke-width="0"/><path d="M363.5 125.9L367.1 129.5L363.5 133.1L359.9 129.5Z" fill="#2b3a7a" opacity="0.8" stroke="none" stroke-width="0"/><path d="M370.7 125.3L374.3 128.9L370.7 132.5L367.1 128.9Z" fill="#2b3a7a" opacity="0.8" stroke="none" stroke-width="0"/><path d="M377.5 124.8L381.1 128.4L377.5 132.0L373.9 128.4Z" fill="#2b3a7a" opacity="0.8" stroke="none" stroke-width="0"/><path d="M382.2 124.6L385.8 128.2L382.2 131.8L378.6 128.2Z" fill="#2b3a7a" opacity="0.8" stroke="none" stroke-width="0"/><path d="M403.7 124.4L407.3 128.0L403.7 131.6L400.1 128.0Z" fill="#2b3a7a" opacity="0.8" stroke="none" stroke-width="0"/><path d="M426.2 109.2L429.8 112.8L426.2 116.4L422.6 112.8Z" fill="#2b3a7a" opacity="0.8" stroke="none" stroke-width="0"/><path d="M436.8 108.0L440.4 111.6L436.8 115.2L433.2 111.6Z" fill="#2b3a7a" opacity="0.8" stroke="none" stroke-width="0"/><path d="M440.0 101.9L443.6 105.5L440.0 109.1L436.4 105.5Z" fill="#2b3a7a" opacity="0.8" stroke="none" stroke-width="0"/><path d="M440.5 104.9L444.1 108.5L440.5 112.1L436.9 108.5Z" fill="#2b3a7a" opacity="0.8" stroke="none" stroke-width="0"/><path d="M441.8 101.5L445.4 105.1L441.8 108.7L438.2 105.1Z" fill="#2b3a7a" opacity="0.8" stroke="none" stroke-width="0"/><path d="M443.3 100.2L446.9 103.8L443.3 107.4L439.7 103.8Z" fill="#2b3a7a" opacity="0.8" stroke="none" stroke-width="0"/><path d="M458.8 99.9L462.4 103.5L458.8 107.1L455.2 103.5Z" fill="#2b3a7a" opacity="0.8" stroke="none" stroke-width="0"/><path d="M488.0 86.0L491.6 89.6L488.0 93.2L484.4 89.6Z" fill="#2b3a7a" opacity="0.8" stroke="none" stroke-width="0"/><path d="M493.1 85.7L496.7 89.3L493.1 92.9L489.5 89.3Z" fill="#2b3a7a" opacity="0.8" stroke="none" stroke-width="0"/><path d="M494.1 84.0L497.7 87.6L494.1 91.2L490.5 87.6Z" fill="#2b3a7a" opacity="0.8" stroke="none" stroke-width="0"/><path d="M499.4 81.8L503.0 85.4L499.4 89.0L495.8 85.4Z" fill="#2b3a7a" opacity="0.8" stroke="none" stroke-width="0"/><path d="M515.7 80.8L519.3 84.4L515.7 88.0L512.1 84.4Z" fill="#2b3a7a" opacity="0.8" stroke="none" stroke-width="0"/><path d="M640.2 80.8L643.8 84.4L640.2 88.0L636.6 84.4Z" fill="#2b3a7a" opacity="0.8" stroke="none" stroke-width="0"/><path d="M950.1 72.2L953.7 75.8L950.1 79.4L946.5 75.8Z" fill="#2b3a7a" opacity="0.8" stroke="none" stroke-width="0"/><path d="M952.9 72.1L956.5 75.7L952.9 79.3L949.3 75.7Z" fill="#2b3a7a" opacity="0.8" stroke="none" stroke-width="0"/><path d="M956.1 71.7L959.7 75.3L956.1 78.9L952.5 75.3Z" fill="#2b3a7a" opacity="0.8" stroke="none" stroke-width="0"/><path d="M956.6 71.1L960.2 74.7L956.6 78.3L953.0 74.7Z" fill="#2b3a7a" opacity="0.8" stroke="none" stroke-width="0"/><path d="M959.5 71.1L963.1 74.7L959.5 78.3L955.9 74.7Z" fill="#2b3a7a" opacity="0.8" stroke="none" stroke-width="0"/><path d="M976.9 70.8L980.5 74.4L976.9 78.0L973.3 74.4Z" fill="#2b3a7a" opacity="0.8" stroke="none" stroke-width="0"/><path d="M1000.7 70.3L1004.3 73.9L1000.7 77.5L997.1 73.9Z" fill="#2b3a7a" opacity="0.8" stroke="none" stroke-width="0"/><path d="M1008.8 70.0L1012.4 73.6L1008.8 77.2L1005.2 73.6Z" fill="#2b3a7a" opacity="0.8" stroke="none" stroke-width="0"/><path d="M60.0 335.3L63.8 335.3L63.8 335.1L69.2 335.1L69.2 320.7L79.9 320.7L79.9 319.9L83.9 319.9L83.9 315.3L84.9 315.3L84.9 314.9L86.7 314.9L86.7 314.9L150.3 314.9L150.3 238.7L151.3 238.7L151.3 229.0L152.3 229.0L152.3 222.3L153.6 222.3L153.6 220.6L153.8 220.6L153.8 220.5L154.6 220.5L154.6 214.2L157.0 214.2L157.0 214.1L157.7 214.1L157.7 213.7L158.2 213.7L158.2 213.5L158.9 213.5L158.9 212.7L162.0 212.7L162.0 212.1L162.8 212.1L162.8 212.0L171.3 212.0L171.3 206.7L180.8 206.7L180.8 204.9L184.4 204.9L184.4 204.6L186.7 204.6L186.7 201.9L191.0 201.9L191.0 201.8L193.1 201.8L193.1 201.0L194.4 201.0L194.4 200.0L200.5 200.0L200.5 200.0L203.0 200.0L203.0 199.7L223.9 199.7L223.9 195.5L239.4 195.5L239.4 187.4L239.9 187.4L239.9 186.2L240.9 186.2L240.9 184.5L268.1 184.5L268.1 183.9L281.5 183.9L281.5 169.3L286.0 169.3L286.0 168.8L286.3 168.8L286.3 167.7L288.9 167.7L288.9 165.0L289.9 165.0L289.9 163.7L290.2 163.7L290.2 163.6L295.9 163.6L295.9 155.9L302.9 155.9L302.9 155.8L305.6 155.8L305.6 141.9L311.2 141.9L311.2 141.8L313.2 141.8L313.2 131.7L315.1 131.7L315.1 130.9L315.9 130.9L315.9 129.5L363.5 129.5L363.5 129.5L370.7 129.5L370.7 128.9L377.5 128.9L377.5 128.4L382.2 128.4L382.2 128.2L403.7 128.2L403.7 128.0L426.2 128.0L426.2 112.8L431.2 112.8L431.2 110.2L440.0 110.2L440.0 105.5L441.8 105.5L441.8 105.1L443.3 105.1L443.3 103.8L458.8 103.8L458.8 103.5L488.0 103.5L488.0 89.6L493.1 89.6L493.1 89.3L494.1 89.3L494.1 87.6L499.4 87.6L499.4 85.4L515.7 85.4L515.7 84.4L640.2 84.4L640.2 84.4L950.1 84.4L950.1 75.8L952.9 75.8L952.9 75.7L956.1 75.7L956.1 75.3L956.6 75.3L956.6 74.7L959.5 74.7L959.5 74.7L976.9 74.7L976.9 74.4L1000.7 74.4L1000.7 73.9L1008.8 73.9L1008.8 73.6L1021.7 73.6L1021.7 69.8L1027.3 69.8L1027.3 69.1L1032.0 69.1" fill="none" stroke="#6675b0" stroke-width="1.6" stroke-dasharray="5 3" opacity="0.75"/><path d="M295.9 155.9L311.2 155.9L311.2 141.8L313.2 141.8L313.2 131.7L315.1 131.7L315.1 130.9L315.9 130.9L315.9 129.5L363.5 129.5L363.5 129.5L370.7 129.5L370.7 128.9L377.5 128.9L377.5 128.4L382.2 128.4L382.2 128.2L403.7 128.2L403.7 128.0L426.2 128.0L426.2 112.8L436.8 112.8L436.8 111.6L440.0 111.6L440.0 105.5L441.8 105.5L441.8 105.1L443.3 105.1L443.3 103.8L458.8 103.8L458.8 103.5L488.0 103.5L488.0 89.6L493.1 89.6L493.1 89.3L494.1 89.3L494.1 87.6L499.4 87.6L499.4 85.4L515.7 85.4L515.7 84.4L640.2 84.4L640.2 84.4L950.1 84.4L950.1 75.8L952.9 75.8L952.9 75.7L956.1 75.7L956.1 75.3L956.6 75.3L956.6 74.7L959.5 74.7L959.5 74.7L976.9 74.7L976.9 74.4L1000.7 74.4L1000.7 73.9L1008.8 73.9L1008.8 73.6L1021.7 73.6L1021.7 73.5L1032.0 73.5" fill="none" stroke="#2b3a7a" stroke-width="2.6"/><path d="M849.6 246.9L856.1 253.4L849.6 259.9L843.1 253.4Z" fill="#c5961a" opacity="1.0" stroke="#ffffff" stroke-width="1.4"/><path d="M1003.9 206.5L1010.4 213.0L1003.9 219.5L997.4 213.0Z" fill="#c5961a" opacity="1.0" stroke="#ffffff" stroke-width="1.4"/><path d="M1021.7 67.0L1028.2 73.5L1021.7 80.0L1015.2 73.5Z" fill="#c5961a" opacity="1.0" stroke="#ffffff" stroke-width="1.4"/><text x="1042" y="67.1" font-size="11.5" fill="#6675b0">– – raw best 513.8</text><text x="1042" y="81.1" font-size="10" fill="#8a8fa3">unverified (pending)</text><path d="M1021.7 67.0L1028.2 73.5L1021.7 80.0L1015.2 73.5Z" fill="#c5961a" opacity="1.0" stroke="#ffffff" stroke-width="1.4"/><text x="1042" y="101.5" font-size="12.5" fill="#2b3a7a" font-weight="bold">◆ verified 506.7</text><text x="1042" y="117.5" font-size="10.5" fill="#3a3f55">mikasa-inbound · #1 verified</text><text x="60" y="24" font-size="13" font-weight="bold" fill="#3a3f55" letter-spacing="1.2">SCORE EVOLUTION — gemma-challenge (tok/s)</text><circle cx="452" cy="20" r="3" fill="#b9bdca"/><text x="460" y="24" font-size="10.5" fill="#8a8fa3">all results</text><path d="M544.0 16.4L547.6 20.0L544.0 23.6L540.4 20.0Z" fill="#2b3a7a" opacity="1.0" stroke="none" stroke-width="0"/><text x="552" y="24" font-size="10.5" fill="#8a8fa3">verified</text><path d="M620.0 15.5L624.5 20.0L620.0 24.5L615.5 20.0Z" fill="#c5961a" opacity="1.0" stroke="#fff" stroke-width="1"/><text x="629" y="24" font-size="10.5" fill="#8a8fa3">mikasa-inbound (us)</text></svg>