<svg viewBox="0 0 1200 440" xmlns="http://www.w3.org/2000/svg" font-family="ui-sans-serif,system-ui,-apple-system,sans-serif"><rect x="0" y="0" width="1200" height="440" fill="#ffffff"/><rect x="60" y="46" width="972" height="350" fill="#f3f4fb"/><line x1="60" y1="396.0" x2="1032" y2="396.0" stroke="#e3e5ef" stroke-width="1"/><text x="52" y="400.0" text-anchor="end" font-size="11" fill="#8a8fa3">0</text><line x1="60" y1="332.4" x2="1032" y2="332.4" stroke="#e3e5ef" stroke-width="1"/><text x="52" y="336.4" text-anchor="end" font-size="11" fill="#8a8fa3">100</text><line x1="60" y1="268.7" x2="1032" y2="268.7" stroke="#e3e5ef" stroke-width="1"/><text x="52" y="272.7" text-anchor="end" font-size="11" fill="#8a8fa3">200</text><line x1="60" y1="205.1" x2="1032" y2="205.1" stroke="#e3e5ef" stroke-width="1"/><text x="52" y="209.1" text-anchor="end" font-size="11" fill="#8a8fa3">300</text><line x1="60" y1="141.5" x2="1032" y2="141.5" stroke="#e3e5ef" stroke-width="1"/><text x="52" y="145.5" text-anchor="end" font-size="11" fill="#8a8fa3">400</text><line x1="60" y1="77.8" x2="1032" y2="77.8" stroke="#e3e5ef" stroke-width="1"/><text x="52" y="81.8" text-anchor="end" font-size="11" fill="#8a8fa3">500</text><line x1="90.4" y1="46" x2="90.4" y2="396" stroke="#e3e5ef" stroke-width="1"/><text x="90.4" y="414.0" text-anchor="middle" font-size="11" fill="#8a8fa3">Jun 10</text><line x1="133.8" y1="46" x2="133.8" y2="396" stroke="#e3e5ef" stroke-width="1"/><text x="133.8" y="414.0" text-anchor="middle" font-size="11" fill="#8a8fa3">Jun 12</text><line x1="177.1" y1="46" x2="177.1" y2="396" stroke="#e3e5ef" stroke-width="1"/><text x="177.1" y="414.0" text-anchor="middle" font-size="11" fill="#8a8fa3">Jun 14</text><line x1="220.5" y1="46" x2="220.5" y2="396" stroke="#e3e5ef" stroke-width="1"/><text x="220.5" y="414.0" text-anchor="middle" font-size="11" fill="#8a8fa3">Jun 16</text><line x1="263.8" y1="46" x2="263.8" y2="396" stroke="#e3e5ef" stroke-width="1"/><text x="263.8" y="414.0" text-anchor="middle" font-size="11" fill="#8a8fa3">Jun 18</text><line x1="307.2" y1="46" x2="307.2" y2="396" stroke="#e3e5ef" stroke-width="1"/><text x="307.2" y="414.0" text-anchor="middle" font-size="11" fill="#8a8fa3">Jun 20</text><line x1="350.5" y1="46" x2="350.5" y2="396" stroke="#e3e5ef" stroke-width="1"/><text x="350.5" y="414.0" text-anchor="middle" font-size="11" fill="#8a8fa3">Jun 22</text><line x1="393.9" y1="46" x2="393.9" y2="396" stroke="#e3e5ef" stroke-width="1"/><text x="393.9" y="414.0" text-anchor="middle" font-size="11" fill="#8a8fa3">Jun 24</text><line x1="437.3" y1="46" x2="437.3" y2="396" stroke="#e3e5ef" stroke-width="1"/><text x="437.3" y="414.0" text-anchor="middle" font-size="11" fill="#8a8fa3">Jun 26</text><line x1="480.6" y1="46" x2="480.6" y2="396" stroke="#e3e5ef" stroke-width="1"/><text x="480.6" y="414.0" text-anchor="middle" font-size="11" fill="#8a8fa3">Jun 28</text><line x1="524.0" y1="46" x2="524.0" y2="396" stroke="#e3e5ef" stroke-width="1"/><text x="524.0" y="414.0" text-anchor="middle" font-size="11" fill="#8a8fa3">Jun 30</text><line x1="567.3" y1="46" x2="567.3" y2="396" stroke="#e3e5ef" stroke-width="1"/><text x="567.3" y="414.0" text-anchor="middle" font-size="11" fill="#8a8fa3">Jul 2</text><line x1="610.7" y1="46" x2="610.7" y2="396" stroke="#e3e5ef" stroke-width="1"/><text x="610.7" y="414.0" text-anchor="middle" font-size="11" fill="#8a8fa3">Jul 4</text><line x1="654.1" y1="46" x2="654.1" y2="396" stroke="#e3e5ef" stroke-width="1"/><text x="654.1" y="414.0" text-anchor="middle" font-size="11" fill="#8a8fa3">Jul 6</text><line x1="697.4" y1="46" x2="697.4" y2="396" stroke="#e3e5ef" stroke-width="1"/><text x="697.4" y="414.0" text-anchor="middle" font-size="11" fill="#8a8fa3">Jul 8</text><line x1="740.8" y1="46" x2="740.8" y2="396" stroke="#e3e5ef" stroke-width="1"/><text x="740.8" y="414.0" text-anchor="middle" font-size="11" fill="#8a8fa3">Jul 10</text><line x1="784.1" y1="46" x2="784.1" y2="396" stroke="#e3e5ef" stroke-width="1"/><text x="784.1" y="414.0" text-anchor="middle" font-size="11" fill="#8a8fa3">Jul 12</text><line x1="827.5" y1="46" x2="827.5" y2="396" stroke="#e3e5ef" stroke-width="1"/><text x="827.5" y="414.0" text-anchor="middle" font-size="11" fill="#8a8fa3">Jul 14</text><line x1="870.9" y1="46" x2="870.9" y2="396" stroke="#e3e5ef" stroke-width="1"/><text x="870.9" y="414.0" text-anchor="middle" font-size="11" fill="#8a8fa3">Jul 16</text><line x1="914.2" y1="46" x2="914.2" y2="396" stroke="#e3e5ef" stroke-width="1"/><text x="914.2" y="414.0" text-anchor="middle" font-size="11" fill="#8a8fa3">Jul 18</text><line x1="957.6" y1="46" x2="957.6" y2="396" stroke="#e3e5ef" stroke-width="1"/><text x="957.6" y="414.0" text-anchor="middle" font-size="11" fill="#8a8fa3">Jul 20</text><line x1="1000.9" y1="46" x2="1000.9" y2="396" stroke="#e3e5ef" stroke-width="1"/><text x="1000.9" y="414.0" text-anchor="middle" font-size="11" fill="#8a8fa3">Jul 22</text><circle cx="60.0" cy="335.3" r="2.3" fill="#b9bdca" opacity="0.5"/><circle cx="61.0" cy="335.1" r="2.3" fill="#b9bdca" opacity="0.5"/><circle cx="62.1" cy="368.0" r="2.3" fill="#b9bdca" opacity="0.5"/><circle cx="62.5" cy="320.7" r="2.3" fill="#b9bdca" opacity="0.5"/><circle cx="65.4" cy="319.9" r="2.3" fill="#b9bdca" opacity="0.5"/><circle cx="65.6" cy="320.6" r="2.3" fill="#b9bdca" opacity="0.5"/><circle cx="66.5" cy="315.3" r="2.3" fill="#b9bdca" opacity="0.5"/><circle cx="66.7" cy="319.7" r="2.3" fill="#b9bdca" opacity="0.5"/><circle cx="66.8" cy="314.9" r="2.3" fill="#b9bdca" opacity="0.5"/><circle cx="67.1" cy="315.5" r="2.3" fill="#b9bdca" opacity="0.5"/><circle cx="67.2" cy="314.9" r="2.3" fill="#b9bdca" opacity="0.5"/><circle cx="67.5" cy="315.4" r="2.3" fill="#b9bdca" opacity="0.5"/><circle cx="68.1" cy="315.0" r="2.3" fill="#b9bdca" opacity="0.5"/><circle cx="84.5" cy="238.7" r="2.3" fill="#b9bdca" opacity="0.5"/><circle cx="84.6" cy="315.0" r="2.3" fill="#b9bdca" opacity="0.5"/><circle cx="84.8" cy="229.0" r="2.3" fill="#b9bdca" opacity="0.5"/><circle cx="85.0" cy="222.3" r="2.3" fill="#b9bdca" opacity="0.5"/><circle cx="85.3" cy="228.0" r="2.3" fill="#b9bdca" opacity="0.5"/><circle cx="85.3" cy="223.3" r="2.3" fill="#b9bdca" opacity="0.5"/><circle cx="85.4" cy="220.6" r="2.3" fill="#b9bdca" opacity="0.5"/><circle cx="85.4" cy="220.5" r="2.3" fill="#b9bdca" opacity="0.5"/><circle cx="85.5" cy="223.2" r="2.3" fill="#b9bdca" opacity="0.5"/><circle cx="85.6" cy="214.2" r="2.3" fill="#b9bdca" opacity="0.5"/><circle cx="85.7" cy="222.1" r="2.3" fill="#b9bdca" opacity="0.5"/><circle cx="85.8" cy="220.7" r="2.3" fill="#b9bdca" opacity="0.5"/><circle cx="86.0" cy="218.5" r="2.3" fill="#b9bdca" opacity="0.5"/><circle cx="86.0" cy="215.2" r="2.3" fill="#b9bdca" opacity="0.5"/><circle cx="86.2" cy="214.3" r="2.3" fill="#b9bdca" opacity="0.5"/><circle cx="86.2" cy="219.2" r="2.3" fill="#b9bdca" opacity="0.5"/><circle cx="86.3" cy="214.1" r="2.3" fill="#b9bdca" opacity="0.5"/><circle cx="86.4" cy="215.2" r="2.3" fill="#b9bdca" opacity="0.5"/><circle cx="86.5" cy="213.7" r="2.3" fill="#b9bdca" opacity="0.5"/><circle cx="86.6" cy="213.5" r="2.3" fill="#b9bdca" opacity="0.5"/><circle cx="86.7" cy="214.8" r="2.3" fill="#b9bdca" opacity="0.5"/><circle cx="86.7" cy="217.7" r="2.3" fill="#b9bdca" opacity="0.5"/><circle cx="86.8" cy="212.7" r="2.3" fill="#b9bdca" opacity="0.5"/><circle cx="87.1" cy="213.3" r="2.3" fill="#b9bdca" opacity="0.5"/><circle cx="87.4" cy="212.7" r="2.3" fill="#b9bdca" opacity="0.5"/><circle cx="87.4" cy="213.6" r="2.3" fill="#b9bdca" opacity="0.5"/><circle cx="87.5" cy="213.0" r="2.3" fill="#b9bdca" opacity="0.5"/><circle cx="87.7" cy="212.1" r="2.3" fill="#b9bdca" opacity="0.5"/><circle cx="87.7" cy="213.3" r="2.3" fill="#b9bdca" opacity="0.5"/><circle cx="87.9" cy="212.0" r="2.3" fill="#b9bdca" opacity="0.5"/><circle cx="88.2" cy="212.1" r="2.3" fill="#b9bdca" opacity="0.5"/><circle cx="88.2" cy="212.8" r="2.3" fill="#b9bdca" opacity="0.5"/><circle cx="90.2" cy="206.7" r="2.3" fill="#b9bdca" opacity="0.5"/><circle cx="90.5" cy="206.8" r="2.3" fill="#b9bdca" opacity="0.5"/><circle cx="90.5" cy="212.5" r="2.3" fill="#b9bdca" opacity="0.5"/><circle cx="90.6" cy="207.2" r="2.3" fill="#b9bdca" opacity="0.5"/><circle cx="91.3" cy="207.0" r="2.3" fill="#b9bdca" opacity="0.5"/><circle cx="92.8" cy="204.9" r="2.3" fill="#b9bdca" opacity="0.5"/><circle cx="93.7" cy="204.6" r="2.3" fill="#b9bdca" opacity="0.5"/><circle cx="93.8" cy="212.3" r="2.3" fill="#b9bdca" opacity="0.5"/><circle cx="94.0" cy="204.6" r="2.3" fill="#b9bdca" opacity="0.5"/><circle cx="94.0" cy="204.6" r="2.3" fill="#b9bdca" opacity="0.5"/><circle cx="94.0" cy="204.9" r="2.3" fill="#b9bdca" opacity="0.5"/><circle cx="94.0" cy="204.9" r="2.3" fill="#b9bdca" opacity="0.5"/><circle cx="94.4" cy="201.9" r="2.3" fill="#b9bdca" opacity="0.5"/><circle cx="95.0" cy="206.5" r="2.3" fill="#b9bdca" opacity="0.5"/><circle cx="95.2" cy="205.8" r="2.3" fill="#b9bdca" opacity="0.5"/><circle cx="95.2" cy="335.1" r="2.3" fill="#b9bdca" opacity="0.5"/><circle cx="95.5" cy="201.8" r="2.3" fill="#b9bdca" opacity="0.5"/><circle cx="95.5" cy="202.2" r="2.3" fill="#b9bdca" opacity="0.5"/><circle cx="96.1" cy="201.0" r="2.3" fill="#b9bdca" opacity="0.5"/><circle cx="96.3" cy="203.1" r="2.3" fill="#b9bdca" opacity="0.5"/><circle cx="96.4" cy="200.0" r="2.3" fill="#b9bdca" opacity="0.5"/><circle cx="96.4" cy="204.6" r="2.3" fill="#b9bdca" opacity="0.5"/><circle cx="96.8" cy="202.3" r="2.3" fill="#b9bdca" opacity="0.5"/><circle cx="97.5" cy="200.4" r="2.3" fill="#b9bdca" opacity="0.5"/><circle cx="97.8" cy="200.7" r="2.3" fill="#b9bdca" opacity="0.5"/><circle cx="98.1" cy="200.0" r="2.3" fill="#b9bdca" opacity="0.5"/><circle cx="98.8" cy="199.7" r="2.3" fill="#b9bdca" opacity="0.5"/><circle cx="102.9" cy="200.6" r="2.3" fill="#b9bdca" opacity="0.5"/><circle cx="103.3" cy="201.8" r="2.3" fill="#b9bdca" opacity="0.5"/><circle cx="103.8" cy="208.4" r="2.3" fill="#b9bdca" opacity="0.5"/><circle cx="103.9" cy="200.8" r="2.3" fill="#b9bdca" opacity="0.5"/><circle cx="104.3" cy="200.7" r="2.3" fill="#b9bdca" opacity="0.5"/><circle cx="104.3" cy="201.9" r="2.3" fill="#b9bdca" opacity="0.5"/><circle cx="104.4" cy="195.5" r="2.3" fill="#b9bdca" opacity="0.5"/><circle cx="104.8" cy="196.9" r="2.3" fill="#b9bdca" opacity="0.5"/><circle cx="105.0" cy="197.9" r="2.3" fill="#b9bdca" opacity="0.5"/><circle cx="105.4" cy="196.1" r="2.3" fill="#b9bdca" opacity="0.5"/><circle cx="106.6" cy="197.3" r="2.3" fill="#b9bdca" opacity="0.5"/><circle cx="107.0" cy="195.9" r="2.3" fill="#b9bdca" opacity="0.5"/><circle cx="107.1" cy="201.0" r="2.3" fill="#b9bdca" opacity="0.5"/><circle cx="107.2" cy="197.5" r="2.3" fill="#b9bdca" opacity="0.5"/><circle cx="107.5" cy="196.9" r="2.3" fill="#b9bdca" opacity="0.5"/><circle cx="107.5" cy="197.1" r="2.3" fill="#b9bdca" opacity="0.5"/><circle cx="107.5" cy="197.0" r="2.3" fill="#b9bdca" opacity="0.5"/><circle cx="107.8" cy="196.0" r="2.3" fill="#b9bdca" opacity="0.5"/><circle cx="107.8" cy="196.0" r="2.3" fill="#b9bdca" opacity="0.5"/><circle cx="107.9" cy="197.9" r="2.3" fill="#b9bdca" opacity="0.5"/><circle cx="108.1" cy="197.8" r="2.3" fill="#b9bdca" opacity="0.5"/><circle cx="108.3" cy="196.2" r="2.3" fill="#b9bdca" opacity="0.5"/><circle cx="108.3" cy="197.5" r="2.3" fill="#b9bdca" opacity="0.5"/><circle cx="108.3" cy="196.9" r="2.3" fill="#b9bdca" opacity="0.5"/><circle cx="108.4" cy="195.5" r="2.3" fill="#b9bdca" opacity="0.5"/><circle cx="108.6" cy="198.1" r="2.3" fill="#b9bdca" opacity="0.5"/><circle cx="108.6" cy="187.4" r="2.3" fill="#b9bdca" opacity="0.5"/><circle cx="108.8" cy="186.2" r="2.3" fill="#b9bdca" opacity="0.5"/><circle cx="108.8" cy="196.3" r="2.3" fill="#b9bdca" opacity="0.5"/><circle cx="108.8" cy="197.2" r="2.3" fill="#b9bdca" opacity="0.5"/><circle cx="108.8" cy="197.8" r="2.3" fill="#b9bdca" opacity="0.5"/><circle cx="108.8" cy="368.0" r="2.3" fill="#b9bdca" opacity="0.5"/><circle cx="109.0" cy="184.5" r="2.3" fill="#b9bdca" opacity="0.5"/><circle cx="110.2" cy="184.6" r="2.3" fill="#b9bdca" opacity="0.5"/><circle cx="110.6" cy="185.6" r="2.3" fill="#b9bdca" opacity="0.5"/><circle cx="112.3" cy="188.7" r="2.3" fill="#b9bdca" opacity="0.5"/><circle cx="114.5" cy="185.4" r="2.3" fill="#b9bdca" opacity="0.5"/><circle cx="115.0" cy="185.2" r="2.3" fill="#b9bdca" opacity="0.5"/><circle cx="115.1" cy="186.6" r="2.3" fill="#b9bdca" opacity="0.5"/><circle cx="115.2" cy="185.3" r="2.3" fill="#b9bdca" opacity="0.5"/><circle cx="115.6" cy="185.3" r="2.3" fill="#b9bdca" opacity="0.5"/><circle cx="115.7" cy="185.0" r="2.3" fill="#b9bdca" opacity="0.5"/><circle cx="116.1" cy="184.9" r="2.3" fill="#b9bdca" opacity="0.5"/><circle cx="116.4" cy="185.1" r="2.3" fill="#b9bdca" opacity="0.5"/><circle cx="116.4" cy="185.2" r="2.3" fill="#b9bdca" opacity="0.5"/><circle cx="116.4" cy="186.4" r="2.3" fill="#b9bdca" opacity="0.5"/><circle cx="116.4" cy="183.9" r="2.3" fill="#b9bdca" opacity="0.5"/><circle cx="118.4" cy="184.4" r="2.3" fill="#b9bdca" opacity="0.5"/><circle cx="118.8" cy="184.2" r="2.3" fill="#b9bdca" opacity="0.5"/><circle cx="120.1" cy="169.3" r="2.3" fill="#b9bdca" opacity="0.5"/><circle cx="121.3" cy="168.8" r="2.3" fill="#b9bdca" opacity="0.5"/><circle cx="121.4" cy="167.7" r="2.3" fill="#b9bdca" opacity="0.5"/><circle cx="121.9" cy="201.4" r="2.3" fill="#b9bdca" opacity="0.5"/><circle cx="122.1" cy="165.0" r="2.3" fill="#b9bdca" opacity="0.5"/><circle cx="122.1" cy="198.2" r="2.3" fill="#b9bdca" opacity="0.5"/><circle cx="122.3" cy="163.7" r="2.3" fill="#b9bdca" opacity="0.5"/><circle cx="122.4" cy="163.6" r="2.3" fill="#b9bdca" opacity="0.5"/><circle cx="122.6" cy="165.9" r="2.3" fill="#b9bdca" opacity="0.5"/><circle cx="123.7" cy="165.1" r="2.3" fill="#b9bdca" opacity="0.5"/><circle cx="124.0" cy="155.9" r="2.3" fill="#b9bdca" opacity="0.5"/><circle cx="125.0" cy="196.5" r="2.3" fill="#b9bdca" opacity="0.5"/><circle cx="125.5" cy="157.4" r="2.3" fill="#b9bdca" opacity="0.5"/><circle cx="125.9" cy="155.8" r="2.3" fill="#b9bdca" opacity="0.5"/><circle cx="126.6" cy="141.9" r="2.3" fill="#b9bdca" opacity="0.5"/><circle cx="128.0" cy="156.1" r="2.3" fill="#b9bdca" opacity="0.5"/><circle cx="128.0" cy="156.4" r="2.3" fill="#b9bdca" opacity="0.5"/><circle cx="128.1" cy="141.8" r="2.3" fill="#b9bdca" opacity="0.5"/><circle cx="128.2" cy="196.0" r="2.3" fill="#b9bdca" opacity="0.5"/><circle cx="128.7" cy="131.7" r="2.3" fill="#b9bdca" opacity="0.5"/><circle cx="128.7" cy="134.1" r="2.3" fill="#b9bdca" opacity="0.5"/><circle cx="128.9" cy="141.1" r="2.3" fill="#b9bdca" opacity="0.5"/><circle cx="129.1" cy="134.0" r="2.3" fill="#b9bdca" opacity="0.5"/><circle cx="129.2" cy="130.9" r="2.3" fill="#b9bdca" opacity="0.5"/><circle cx="129.2" cy="154.2" r="2.3" fill="#b9bdca" opacity="0.5"/><circle cx="129.3" cy="133.6" r="2.3" fill="#b9bdca" opacity="0.5"/><circle cx="129.4" cy="129.5" r="2.3" fill="#b9bdca" opacity="0.5"/><circle cx="129.4" cy="130.9" r="2.3" fill="#b9bdca" opacity="0.5"/><circle cx="129.4" cy="133.4" r="2.3" fill="#b9bdca" opacity="0.5"/><circle cx="129.5" cy="131.2" r="2.3" fill="#b9bdca" opacity="0.5"/><circle cx="130.4" cy="189.8" r="2.3" fill="#b9bdca" opacity="0.5"/><circle cx="130.4" cy="133.2" r="2.3" fill="#b9bdca" opacity="0.5"/><circle cx="130.6" cy="133.5" r="2.3" fill="#b9bdca" opacity="0.5"/><circle cx="130.9" cy="130.1" r="2.3" fill="#b9bdca" opacity="0.5"/><circle cx="131.8" cy="130.3" r="2.3" fill="#b9bdca" opacity="0.5"/><circle cx="132.2" cy="303.1" r="2.3" fill="#b9bdca" opacity="0.5"/><circle cx="132.9" cy="133.2" r="2.3" fill="#b9bdca" opacity="0.5"/><circle cx="133.9" cy="144.2" r="2.3" fill="#b9bdca" opacity="0.5"/><circle cx="134.1" cy="135.3" r="2.3" fill="#b9bdca" opacity="0.5"/><circle cx="134.7" cy="133.4" r="2.3" fill="#b9bdca" opacity="0.5"/><circle cx="134.8" cy="159.9" r="2.3" fill="#b9bdca" opacity="0.5"/><circle cx="134.9" cy="130.8" r="2.3" fill="#b9bdca" opacity="0.5"/><circle cx="135.2" cy="133.2" r="2.3" fill="#b9bdca" opacity="0.5"/><circle cx="137.4" cy="130.9" r="2.3" fill="#b9bdca" opacity="0.5"/><circle cx="137.6" cy="130.9" r="2.3" fill="#b9bdca" opacity="0.5"/><circle cx="137.6" cy="133.8" r="2.3" fill="#b9bdca" opacity="0.5"/><circle cx="138.0" cy="130.4" r="2.3" fill="#b9bdca" opacity="0.5"/><circle cx="138.2" cy="153.7" r="2.3" fill="#b9bdca" opacity="0.5"/><circle cx="138.6" cy="133.3" r="2.3" fill="#b9bdca" opacity="0.5"/><circle cx="139.3" cy="156.5" r="2.3" fill="#b9bdca" opacity="0.5"/><circle cx="139.4" cy="132.3" r="2.3" fill="#b9bdca" opacity="0.5"/><circle cx="140.2" cy="147.2" r="2.3" fill="#b9bdca" opacity="0.5"/><circle cx="140.4" cy="133.6" r="2.3" fill="#b9bdca" opacity="0.5"/><circle cx="140.7" cy="129.5" r="2.3" fill="#b9bdca" opacity="0.5"/><circle cx="140.7" cy="133.3" r="2.3" fill="#b9bdca" opacity="0.5"/><circle cx="141.6" cy="133.3" r="2.3" fill="#b9bdca" opacity="0.5"/><circle cx="142.3" cy="129.5" r="2.3" fill="#b9bdca" opacity="0.5"/><circle cx="143.4" cy="130.6" r="2.3" fill="#b9bdca" opacity="0.5"/><circle cx="144.2" cy="128.9" r="2.3" fill="#b9bdca" opacity="0.5"/><circle cx="144.4" cy="132.7" r="2.3" fill="#b9bdca" opacity="0.5"/><circle cx="144.4" cy="133.1" r="2.3" fill="#b9bdca" opacity="0.5"/><circle cx="145.6" cy="129.8" r="2.3" fill="#b9bdca" opacity="0.5"/><circle cx="146.0" cy="333.8" r="2.3" fill="#b9bdca" opacity="0.5"/><circle cx="146.1" cy="128.4" r="2.3" fill="#b9bdca" opacity="0.5"/><circle cx="146.7" cy="129.8" r="2.3" fill="#b9bdca" opacity="0.5"/><circle cx="146.9" cy="128.9" r="2.3" fill="#b9bdca" opacity="0.5"/><circle cx="146.9" cy="128.9" r="2.3" fill="#b9bdca" opacity="0.5"/><circle cx="147.4" cy="128.2" r="2.3" fill="#b9bdca" opacity="0.5"/><circle cx="147.7" cy="129.7" r="2.3" fill="#b9bdca" opacity="0.5"/><circle cx="147.8" cy="142.3" r="2.3" fill="#b9bdca" opacity="0.5"/><circle cx="149.0" cy="128.8" r="2.3" fill="#b9bdca" opacity="0.5"/><circle cx="149.7" cy="161.1" r="2.3" fill="#b9bdca" opacity="0.5"/><circle cx="151.0" cy="164.4" r="2.3" fill="#b9bdca" opacity="0.5"/><circle cx="151.1" cy="248.3" r="2.3" fill="#b9bdca" opacity="0.5"/><circle cx="153.0" cy="135.4" r="2.3" fill="#b9bdca" opacity="0.5"/><circle cx="153.2" cy="128.0" r="2.3" fill="#b9bdca" opacity="0.5"/><circle cx="153.8" cy="229.0" r="2.3" fill="#b9bdca" opacity="0.5"/><circle cx="155.1" cy="128.1" r="2.3" fill="#b9bdca" opacity="0.5"/><circle cx="155.4" cy="128.6" r="2.3" fill="#b9bdca" opacity="0.5"/><circle cx="156.7" cy="128.8" r="2.3" fill="#b9bdca" opacity="0.5"/><circle cx="156.7" cy="129.6" r="2.3" fill="#b9bdca" opacity="0.5"/><circle cx="156.7" cy="130.9" r="2.3" fill="#b9bdca" opacity="0.5"/><circle cx="159.3" cy="112.8" r="2.3" fill="#b9bdca" opacity="0.5"/><circle cx="160.6" cy="110.2" r="2.3" fill="#b9bdca" opacity="0.5"/><circle cx="160.7" cy="111.6" r="2.3" fill="#b9bdca" opacity="0.5"/><circle cx="161.5" cy="111.0" r="2.3" fill="#b9bdca" opacity="0.5"/><circle cx="162.0" cy="335.1" r="2.3" fill="#b9bdca" opacity="0.5"/><circle cx="162.2" cy="111.6" r="2.3" fill="#b9bdca" opacity="0.5"/><circle cx="163.0" cy="105.5" r="2.3" fill="#b9bdca" opacity="0.5"/><circle cx="163.2" cy="108.5" r="2.3" fill="#b9bdca" opacity="0.5"/><circle cx="163.5" cy="105.1" r="2.3" fill="#b9bdca" opacity="0.5"/><circle cx="163.9" cy="103.8" r="2.3" fill="#b9bdca" opacity="0.5"/><circle cx="164.4" cy="125.8" r="2.3" fill="#b9bdca" opacity="0.5"/><circle cx="168.1" cy="103.5" r="2.3" fill="#b9bdca" opacity="0.5"/><circle cx="169.1" cy="127.8" r="2.3" fill="#b9bdca" opacity="0.5"/><circle cx="169.5" cy="334.3" r="2.3" fill="#b9bdca" opacity="0.5"/><circle cx="170.1" cy="128.6" r="2.3" fill="#b9bdca" opacity="0.5"/><circle cx="170.4" cy="128.6" r="2.3" fill="#b9bdca" opacity="0.5"/><circle cx="170.4" cy="128.6" r="2.3" fill="#b9bdca" opacity="0.5"/><circle cx="170.7" cy="256.6" r="2.3" fill="#b9bdca" opacity="0.5"/><circle cx="171.2" cy="254.6" r="2.3" fill="#b9bdca" opacity="0.5"/><circle cx="171.9" cy="128.6" r="2.3" fill="#b9bdca" opacity="0.5"/><circle cx="173.6" cy="250.1" r="2.3" fill="#b9bdca" opacity="0.5"/><circle cx="173.7" cy="161.4" r="2.3" fill="#b9bdca" opacity="0.5"/><circle cx="173.9" cy="206.6" r="2.3" fill="#b9bdca" opacity="0.5"/><circle cx="175.5" cy="113.5" r="2.3" fill="#b9bdca" opacity="0.5"/><circle cx="176.0" cy="89.6" r="2.3" fill="#b9bdca" opacity="0.5"/><circle cx="176.4" cy="90.2" r="2.3" fill="#b9bdca" opacity="0.5"/><circle cx="177.4" cy="89.3" r="2.3" fill="#b9bdca" opacity="0.5"/><circle cx="177.7" cy="87.6" r="2.3" fill="#b9bdca" opacity="0.5"/><circle cx="178.0" cy="185.0" r="2.3" fill="#b9bdca" opacity="0.5"/><circle cx="178.4" cy="131.6" r="2.3" fill="#b9bdca" opacity="0.5"/><circle cx="178.7" cy="87.8" r="2.3" fill="#b9bdca" opacity="0.5"/><circle cx="179.1" cy="85.4" r="2.3" fill="#b9bdca" opacity="0.5"/><circle cx="179.8" cy="86.8" r="2.3" fill="#b9bdca" opacity="0.5"/><circle cx="180.5" cy="88.4" r="2.3" fill="#b9bdca" opacity="0.5"/><circle cx="183.5" cy="89.5" r="2.3" fill="#b9bdca" opacity="0.5"/><circle cx="183.5" cy="155.6" r="2.3" fill="#b9bdca" opacity="0.5"/><circle cx="183.6" cy="84.4" r="2.3" fill="#b9bdca" opacity="0.5"/><circle cx="187.1" cy="89.2" r="2.3" fill="#b9bdca" opacity="0.5"/><circle cx="187.2" cy="90.5" r="2.3" fill="#b9bdca" opacity="0.5"/><circle cx="188.2" cy="87.7" r="2.3" fill="#b9bdca" opacity="0.5"/><circle cx="188.5" cy="367.9" r="2.3" fill="#b9bdca" opacity="0.5"/><circle cx="189.9" cy="164.3" r="2.3" fill="#b9bdca" opacity="0.5"/><circle cx="190.6" cy="94.6" r="2.3" fill="#b9bdca" opacity="0.5"/><circle cx="190.9" cy="89.6" r="2.3" fill="#b9bdca" opacity="0.5"/><circle cx="194.0" cy="124.6" r="2.3" fill="#b9bdca" opacity="0.5"/><circle cx="197.3" cy="146.2" r="2.3" fill="#b9bdca" opacity="0.5"/><circle cx="197.3" cy="90.5" r="2.3" fill="#b9bdca" opacity="0.5"/><circle cx="197.6" cy="87.7" r="2.3" fill="#b9bdca" opacity="0.5"/><circle cx="197.8" cy="87.7" r="2.3" fill="#b9bdca" opacity="0.5"/><circle cx="197.8" cy="89.6" r="2.3" fill="#b9bdca" opacity="0.5"/><circle cx="200.1" cy="93.0" r="2.3" fill="#b9bdca" opacity="0.5"/><circle cx="201.0" cy="85.5" r="2.3" fill="#b9bdca" opacity="0.5"/><circle cx="207.8" cy="334.8" r="2.3" fill="#b9bdca" opacity="0.5"/><circle cx="208.6" cy="86.3" r="2.3" fill="#b9bdca" opacity="0.5"/><circle cx="210.9" cy="85.5" r="2.3" fill="#b9bdca" opacity="0.5"/><circle cx="211.3" cy="84.6" r="2.3" fill="#b9bdca" opacity="0.5"/><circle cx="212.3" cy="87.8" r="2.3" fill="#b9bdca" opacity="0.5"/><circle cx="212.7" cy="84.4" r="2.3" fill="#b9bdca" opacity="0.5"/><circle cx="212.9" cy="84.8" r="2.3" fill="#b9bdca" opacity="0.5"/><circle cx="213.6" cy="87.4" r="2.3" fill="#b9bdca" opacity="0.5"/><circle cx="217.3" cy="84.4" r="2.3" fill="#b9bdca" opacity="0.5"/><circle cx="233.5" cy="89.3" r="2.3" fill="#b9bdca" opacity="0.5"/><circle cx="236.4" cy="88.6" r="2.3" fill="#b9bdca" opacity="0.5"/><circle cx="236.4" cy="92.1" r="2.3" fill="#b9bdca" opacity="0.5"/><circle cx="237.0" cy="156.8" r="2.3" fill="#b9bdca" opacity="0.5"/><circle cx="246.4" cy="201.6" r="2.3" fill="#b9bdca" opacity="0.5"/><circle cx="253.2" cy="315.6" r="2.3" fill="#b9bdca" opacity="0.5"/><circle cx="271.8" cy="87.7" r="2.3" fill="#b9bdca" opacity="0.5"/><circle cx="277.5" cy="87.6" r="2.3" fill="#b9bdca" opacity="0.5"/><circle cx="282.5" cy="87.2" r="2.3" fill="#b9bdca" opacity="0.5"/><circle cx="283.6" cy="88.8" r="2.3" fill="#b9bdca" opacity="0.5"/><circle cx="284.1" cy="89.2" r="2.3" fill="#b9bdca" opacity="0.5"/><circle cx="284.3" cy="90.9" r="2.3" fill="#b9bdca" opacity="0.5"/><circle cx="285.8" cy="87.7" r="2.3" fill="#b9bdca" opacity="0.5"/><circle cx="290.8" cy="88.6" r="2.3" fill="#b9bdca" opacity="0.5"/><circle cx="291.4" cy="89.7" r="2.3" fill="#b9bdca" opacity="0.5"/><circle cx="291.9" cy="88.2" r="2.3" fill="#b9bdca" opacity="0.5"/><circle cx="301.3" cy="75.8" r="2.3" fill="#b9bdca" opacity="0.5"/><circle cx="302.1" cy="75.7" r="2.3" fill="#b9bdca" opacity="0.5"/><circle cx="302.6" cy="76.7" r="2.3" fill="#b9bdca" opacity="0.5"/><circle cx="302.7" cy="75.8" r="2.3" fill="#b9bdca" opacity="0.5"/><circle cx="302.9" cy="75.3" r="2.3" fill="#b9bdca" opacity="0.5"/><circle cx="303.1" cy="74.7" r="2.3" fill="#b9bdca" opacity="0.5"/><circle cx="303.2" cy="83.4" r="2.3" fill="#b9bdca" opacity="0.5"/><circle cx="303.4" cy="76.2" r="2.3" fill="#b9bdca" opacity="0.5"/><circle cx="303.6" cy="78.1" r="2.3" fill="#b9bdca" opacity="0.5"/><circle cx="303.9" cy="74.7" r="2.3" fill="#b9bdca" opacity="0.5"/><circle cx="305.4" cy="89.3" r="2.3" fill="#b9bdca" opacity="0.5"/><circle cx="308.6" cy="74.4" r="2.3" fill="#b9bdca" opacity="0.5"/><circle cx="313.6" cy="74.4" r="2.3" fill="#b9bdca" opacity="0.5"/><circle cx="314.4" cy="335.1" r="2.3" fill="#b9bdca" opacity="0.5"/><circle cx="314.4" cy="81.7" r="2.3" fill="#b9bdca" opacity="0.5"/><circle cx="315.0" cy="74.6" r="2.3" fill="#b9bdca" opacity="0.5"/><circle cx="315.0" cy="82.1" r="2.3" fill="#b9bdca" opacity="0.5"/><circle cx="315.0" cy="73.9" r="2.3" fill="#b9bdca" opacity="0.5"/><circle cx="316.5" cy="76.2" r="2.3" fill="#b9bdca" opacity="0.5"/><circle cx="316.7" cy="82.1" r="2.3" fill="#b9bdca" opacity="0.5"/><circle cx="316.9" cy="74.2" r="2.3" fill="#b9bdca" opacity="0.5"/><circle cx="316.9" cy="75.0" r="2.3" fill="#b9bdca" opacity="0.5"/><circle cx="317.2" cy="73.6" r="2.3" fill="#b9bdca" opacity="0.5"/><circle cx="317.2" cy="83.3" r="2.3" fill="#b9bdca" opacity="0.5"/><circle cx="317.2" cy="83.8" r="2.3" fill="#b9bdca" opacity="0.5"/><circle cx="317.3" cy="78.1" r="2.3" fill="#b9bdca" opacity="0.5"/><circle cx="317.3" cy="81.5" r="2.3" fill="#b9bdca" opacity="0.5"/><circle cx="317.3" cy="83.0" r="2.3" fill="#b9bdca" opacity="0.5"/><circle cx="317.3" cy="83.7" r="2.3" fill="#b9bdca" opacity="0.5"/><circle cx="319.2" cy="82.7" r="2.3" fill="#b9bdca" opacity="0.5"/><circle cx="319.7" cy="77.8" r="2.3" fill="#b9bdca" opacity="0.5"/><circle cx="320.7" cy="69.8" r="2.3" fill="#b9bdca" opacity="0.5"/><circle cx="321.1" cy="75.9" r="2.3" fill="#b9bdca" opacity="0.5"/><circle cx="321.2" cy="74.3" r="2.3" fill="#b9bdca" opacity="0.5"/><circle cx="321.2" cy="77.4" r="2.3" fill="#b9bdca" opacity="0.5"/><circle cx="321.2" cy="80.6" r="2.3" fill="#b9bdca" opacity="0.5"/><circle cx="321.2" cy="81.8" r="2.3" fill="#b9bdca" opacity="0.5"/><circle cx="321.9" cy="76.9" r="2.3" fill="#b9bdca" opacity="0.5"/><circle cx="321.9" cy="82.8" r="2.3" fill="#b9bdca" opacity="0.5"/><circle cx="321.9" cy="83.0" r="2.3" fill="#b9bdca" opacity="0.5"/><circle cx="321.9" cy="83.1" r="2.3" fill="#b9bdca" opacity="0.5"/><circle cx="322.2" cy="69.1" r="2.3" fill="#b9bdca" opacity="0.5"/><circle cx="323.1" cy="75.5" r="2.3" fill="#b9bdca" opacity="0.5"/><circle cx="323.5" cy="74.3" r="2.3" fill="#b9bdca" opacity="0.5"/><circle cx="336.2" cy="74.0" r="2.3" fill="#b9bdca" opacity="0.5"/><circle cx="351.3" cy="73.4" r="2.3" fill="#b9bdca" opacity="0.5"/><circle cx="351.4" cy="75.9" r="2.3" fill="#b9bdca" opacity="0.5"/><circle cx="351.4" cy="76.3" r="2.3" fill="#b9bdca" opacity="0.5"/><circle cx="351.6" cy="76.0" r="2.3" fill="#b9bdca" opacity="0.5"/><circle cx="351.6" cy="76.8" r="2.3" fill="#b9bdca" opacity="0.5"/><circle cx="351.6" cy="81.2" r="2.3" fill="#b9bdca" opacity="0.5"/><circle cx="351.6" cy="83.4" r="2.3" fill="#b9bdca" opacity="0.5"/><circle cx="362.2" cy="76.6" r="2.3" fill="#b9bdca" opacity="0.5"/><circle cx="362.9" cy="76.7" r="2.3" fill="#b9bdca" opacity="0.5"/><circle cx="362.9" cy="82.8" r="2.3" fill="#b9bdca" opacity="0.5"/><circle cx="362.9" cy="82.8" r="2.3" fill="#b9bdca" opacity="0.5"/><circle cx="362.9" cy="83.3" r="2.3" fill="#b9bdca" opacity="0.5"/><circle cx="365.2" cy="233.4" r="2.3" fill="#b9bdca" opacity="0.5"/><circle cx="365.8" cy="228.9" r="2.3" fill="#b9bdca" opacity="0.5"/><circle cx="366.5" cy="198.3" r="2.3" fill="#b9bdca" opacity="0.5"/><circle cx="380.4" cy="73.4" r="2.3" fill="#b9bdca" opacity="0.5"/><circle cx="384.2" cy="192.4" r="2.3" fill="#b9bdca" opacity="0.5"/><circle cx="385.6" cy="75.3" r="2.3" fill="#b9bdca" opacity="0.5"/><circle cx="386.0" cy="74.0" r="2.3" fill="#b9bdca" opacity="0.5"/><circle cx="386.8" cy="194.4" r="2.3" fill="#b9bdca" opacity="0.5"/><circle cx="388.2" cy="168.6" r="2.3" fill="#b9bdca" opacity="0.5"/><circle cx="389.0" cy="77.1" r="2.3" fill="#b9bdca" opacity="0.5"/><circle cx="389.0" cy="99.5" r="2.3" fill="#b9bdca" opacity="0.5"/><circle cx="399.7" cy="71.4" r="2.3" fill="#b9bdca" opacity="0.5"/><circle cx="399.7" cy="73.5" r="2.3" fill="#b9bdca" opacity="0.5"/><circle cx="403.5" cy="72.4" r="2.3" fill="#b9bdca" opacity="0.5"/><circle cx="419.2" cy="83.0" r="2.3" fill="#b9bdca" opacity="0.5"/><circle cx="419.4" cy="72.1" r="2.3" fill="#b9bdca" opacity="0.5"/><circle cx="419.6" cy="71.6" r="2.3" fill="#b9bdca" opacity="0.5"/><circle cx="420.1" cy="75.5" r="2.3" fill="#b9bdca" opacity="0.5"/><circle cx="420.3" cy="73.7" r="2.3" fill="#b9bdca" opacity="0.5"/><circle cx="421.0" cy="72.9" r="2.3" fill="#b9bdca" opacity="0.5"/><circle cx="421.3" cy="73.4" r="2.3" fill="#b9bdca" opacity="0.5"/><circle cx="451.8" cy="85.2" r="2.3" fill="#b9bdca" opacity="0.5"/><circle cx="451.8" cy="256.6" r="2.3" fill="#b9bdca" opacity="0.5"/><circle cx="451.8" cy="335.3" r="2.3" fill="#b9bdca" opacity="0.5"/><circle cx="452.0" cy="86.8" r="2.3" fill="#b9bdca" opacity="0.5"/><circle cx="452.3" cy="71.5" r="2.3" fill="#b9bdca" opacity="0.5"/><circle cx="453.1" cy="71.0" r="2.3" fill="#b9bdca" opacity="0.5"/><circle cx="453.6" cy="71.5" r="2.3" fill="#b9bdca" opacity="0.5"/><circle cx="453.6" cy="55.0" r="2.3" fill="#b9bdca" opacity="0.5"/><circle cx="457.9" cy="83.1" r="2.3" fill="#b9bdca" opacity="0.5"/><circle cx="458.9" cy="74.7" r="2.3" fill="#b9bdca" opacity="0.5"/><circle cx="459.0" cy="59.3" r="2.3" fill="#b9bdca" opacity="0.5"/><circle cx="459.0" cy="79.9" r="2.3" fill="#b9bdca" opacity="0.5"/><circle cx="459.1" cy="74.1" r="2.3" fill="#b9bdca" opacity="0.5"/><circle cx="459.3" cy="72.7" r="2.3" fill="#b9bdca" opacity="0.5"/><circle cx="459.4" cy="73.8" r="2.3" fill="#b9bdca" opacity="0.5"/><circle cx="459.4" cy="75.9" r="2.3" fill="#b9bdca" opacity="0.5"/><circle cx="459.6" cy="74.1" r="2.3" fill="#b9bdca" opacity="0.5"/><circle cx="459.8" cy="73.5" r="2.3" fill="#b9bdca" opacity="0.5"/><circle cx="460.0" cy="74.2" r="2.3" fill="#b9bdca" opacity="0.5"/><circle cx="460.3" cy="71.5" r="2.3" fill="#b9bdca" opacity="0.5"/><circle cx="460.9" cy="74.3" r="2.3" fill="#b9bdca" opacity="0.5"/><circle cx="464.3" cy="73.2" r="2.3" fill="#b9bdca" opacity="0.5"/><circle cx="464.3" cy="73.6" r="2.3" fill="#b9bdca" opacity="0.5"/><circle cx="464.3" cy="73.8" r="2.3" fill="#b9bdca" opacity="0.5"/><circle cx="470.9" cy="73.3" r="2.3" fill="#b9bdca" opacity="0.5"/><circle cx="470.9" cy="73.4" r="2.3" fill="#b9bdca" opacity="0.5"/><circle cx="486.0" cy="96.1" r="2.3" fill="#b9bdca" opacity="0.5"/><circle cx="547.5" cy="95.6" r="2.3" fill="#b9bdca" opacity="0.5"/><circle cx="567.8" cy="74.8" r="2.3" fill="#b9bdca" opacity="0.5"/><circle cx="568.8" cy="72.3" r="2.3" fill="#b9bdca" opacity="0.5"/><circle cx="574.7" cy="79.9" r="2.3" fill="#b9bdca" opacity="0.5"/><circle cx="574.7" cy="80.6" r="2.3" fill="#b9bdca" opacity="0.5"/><circle cx="586.3" cy="73.3" r="2.3" fill="#b9bdca" opacity="0.5"/><circle cx="586.3" cy="72.8" r="2.3" fill="#b9bdca" opacity="0.5"/><circle cx="586.3" cy="73.0" r="2.3" fill="#b9bdca" opacity="0.5"/><circle cx="586.3" cy="73.2" r="2.3" fill="#b9bdca" opacity="0.5"/><circle cx="586.3" cy="73.5" r="2.3" fill="#b9bdca" opacity="0.5"/><circle cx="586.3" cy="73.6" r="2.3" fill="#b9bdca" opacity="0.5"/><circle cx="586.3" cy="73.7" r="2.3" fill="#b9bdca" opacity="0.5"/><circle cx="586.6" cy="73.1" r="2.3" fill="#b9bdca" opacity="0.5"/><circle cx="586.6" cy="73.2" r="2.3" fill="#b9bdca" opacity="0.5"/><circle cx="586.6" cy="74.3" r="2.3" fill="#b9bdca" opacity="0.5"/><circle cx="586.6" cy="74.5" r="2.3" fill="#b9bdca" opacity="0.5"/><circle cx="586.7" cy="72.8" r="2.3" fill="#b9bdca" opacity="0.5"/><circle cx="586.9" cy="74.7" r="2.3" fill="#b9bdca" opacity="0.5"/><circle cx="615.1" cy="332.5" r="2.3" fill="#b9bdca" opacity="0.5"/><circle cx="648.8" cy="117.5" r="2.3" fill="#b9bdca" opacity="0.5"/><circle cx="648.8" cy="211.0" r="2.3" fill="#b9bdca" opacity="0.5"/><circle cx="657.3" cy="93.9" r="2.3" fill="#b9bdca" opacity="0.5"/><circle cx="670.4" cy="74.9" r="2.3" fill="#b9bdca" opacity="0.5"/><circle cx="670.7" cy="73.4" r="2.3" fill="#b9bdca" opacity="0.5"/><circle cx="670.9" cy="72.9" r="2.3" fill="#b9bdca" opacity="0.5"/><circle cx="671.1" cy="74.2" r="2.3" fill="#b9bdca" opacity="0.5"/><circle cx="671.2" cy="74.9" r="2.3" fill="#b9bdca" opacity="0.5"/><circle cx="671.4" cy="74.9" r="2.3" fill="#b9bdca" opacity="0.5"/><circle cx="671.6" cy="73.6" r="2.3" fill="#b9bdca" opacity="0.5"/><circle cx="671.7" cy="74.5" r="2.3" fill="#b9bdca" opacity="0.5"/><circle cx="671.8" cy="73.6" r="2.3" fill="#b9bdca" opacity="0.5"/><circle cx="672.1" cy="74.2" r="2.3" fill="#b9bdca" opacity="0.5"/><circle cx="672.6" cy="72.3" r="2.3" fill="#b9bdca" opacity="0.5"/><circle cx="672.9" cy="70.5" r="2.3" fill="#b9bdca" opacity="0.5"/><circle cx="673.1" cy="73.5" r="2.3" fill="#b9bdca" opacity="0.5"/><circle cx="673.2" cy="72.7" r="2.3" fill="#b9bdca" opacity="0.5"/><circle cx="673.4" cy="74.4" r="2.3" fill="#b9bdca" opacity="0.5"/><circle cx="687.9" cy="172.8" r="2.3" fill="#b9bdca" opacity="0.5"/><circle cx="688.0" cy="172.8" r="2.3" fill="#b9bdca" opacity="0.5"/><circle cx="688.6" cy="94.2" r="2.3" fill="#b9bdca" opacity="0.5"/><circle cx="991.6" cy="335.0" r="2.3" fill="#b9bdca" opacity="0.5"/><circle cx="1031.3" cy="75.0" r="2.3" fill="#b9bdca" opacity="0.5"/><circle cx="1032.0" cy="73.4" r="2.3" fill="#b9bdca" opacity="0.5"/><path d="M124.0 152.3L127.6 155.9L124.0 159.5L120.4 155.9Z" fill="#2b3a7a" opacity="0.8" stroke="none" stroke-width="0"/><path d="M128.1 138.2L131.7 141.8L128.1 145.4L124.5 141.8Z" fill="#2b3a7a" opacity="0.8" stroke="none" stroke-width="0"/><path d="M128.7 128.1L132.3 131.7L128.7 135.3L125.1 131.7Z" fill="#2b3a7a" opacity="0.8" stroke="none" stroke-width="0"/><path d="M128.7 130.5L132.3 134.1L128.7 137.7L125.1 134.1Z" fill="#2b3a7a" opacity="0.8" stroke="none" stroke-width="0"/><path d="M129.2 127.3L132.8 130.9L129.2 134.5L125.6 130.9Z" fill="#2b3a7a" opacity="0.8" stroke="none" stroke-width="0"/><path d="M129.4 125.9L133.0 129.5L129.4 133.1L125.8 129.5Z" fill="#2b3a7a" opacity="0.8" stroke="none" stroke-width="0"/><path d="M129.4 127.3L133.0 130.9L129.4 134.5L125.8 130.9Z" fill="#2b3a7a" opacity="0.8" stroke="none" stroke-width="0"/><path d="M142.3 125.9L145.9 129.5L142.3 133.1L138.7 129.5Z" fill="#2b3a7a" opacity="0.8" stroke="none" stroke-width="0"/><path d="M144.2 125.3L147.8 128.9L144.2 132.5L140.6 128.9Z" fill="#2b3a7a" opacity="0.8" stroke="none" stroke-width="0"/><path d="M146.1 124.8L149.7 128.4L146.1 132.0L142.5 128.4Z" fill="#2b3a7a" opacity="0.8" stroke="none" stroke-width="0"/><path d="M147.4 124.6L151.0 128.2L147.4 131.8L143.8 128.2Z" fill="#2b3a7a" opacity="0.8" stroke="none" stroke-width="0"/><path d="M153.2 124.4L156.8 128.0L153.2 131.6L149.6 128.0Z" fill="#2b3a7a" opacity="0.8" stroke="none" stroke-width="0"/><path d="M159.3 109.2L162.9 112.8L159.3 116.4L155.7 112.8Z" fill="#2b3a7a" opacity="0.8" stroke="none" stroke-width="0"/><path d="M162.2 108.0L165.8 111.6L162.2 115.2L158.6 111.6Z" fill="#2b3a7a" opacity="0.8" stroke="none" stroke-width="0"/><path d="M163.0 101.9L166.6 105.5L163.0 109.1L159.4 105.5Z" fill="#2b3a7a" opacity="0.8" stroke="none" stroke-width="0"/><path d="M163.2 104.9L166.8 108.5L163.2 112.1L159.6 108.5Z" fill="#2b3a7a" opacity="0.8" stroke="none" stroke-width="0"/><path d="M163.5 101.5L167.1 105.1L163.5 108.7L159.9 105.1Z" fill="#2b3a7a" opacity="0.8" stroke="none" stroke-width="0"/><path d="M163.9 100.2L167.5 103.8L163.9 107.4L160.3 103.8Z" fill="#2b3a7a" opacity="0.8" stroke="none" stroke-width="0"/><path d="M168.1 99.9L171.7 103.5L168.1 107.1L164.5 103.5Z" fill="#2b3a7a" opacity="0.8" stroke="none" stroke-width="0"/><path d="M176.0 86.0L179.6 89.6L176.0 93.2L172.4 89.6Z" fill="#2b3a7a" opacity="0.8" stroke="none" stroke-width="0"/><path d="M177.4 85.7L181.0 89.3L177.4 92.9L173.8 89.3Z" fill="#2b3a7a" opacity="0.8" stroke="none" stroke-width="0"/><path d="M177.7 84.0L181.3 87.6L177.7 91.2L174.1 87.6Z" fill="#2b3a7a" opacity="0.8" stroke="none" stroke-width="0"/><path d="M179.1 81.8L182.7 85.4L179.1 89.0L175.5 85.4Z" fill="#2b3a7a" opacity="0.8" stroke="none" stroke-width="0"/><path d="M183.6 80.8L187.2 84.4L183.6 88.0L180.0 84.4Z" fill="#2b3a7a" opacity="0.8" stroke="none" stroke-width="0"/><path d="M217.3 80.8L220.9 84.4L217.3 88.0L213.7 84.4Z" fill="#2b3a7a" opacity="0.8" stroke="none" stroke-width="0"/><path d="M301.3 72.2L304.9 75.8L301.3 79.4L297.7 75.8Z" fill="#2b3a7a" opacity="0.8" stroke="none" stroke-width="0"/><path d="M302.1 72.1L305.7 75.7L302.1 79.3L298.5 75.7Z" fill="#2b3a7a" opacity="0.8" stroke="none" stroke-width="0"/><path d="M302.9 71.7L306.5 75.3L302.9 78.9L299.3 75.3Z" fill="#2b3a7a" opacity="0.8" stroke="none" stroke-width="0"/><path d="M303.1 71.1L306.7 74.7L303.1 78.3L299.5 74.7Z" fill="#2b3a7a" opacity="0.8" stroke="none" stroke-width="0"/><path d="M303.9 71.1L307.5 74.7L303.9 78.3L300.3 74.7Z" fill="#2b3a7a" opacity="0.8" stroke="none" stroke-width="0"/><path d="M308.6 70.8L312.2 74.4L308.6 78.0L305.0 74.4Z" fill="#2b3a7a" opacity="0.8" stroke="none" stroke-width="0"/><path d="M315.0 70.3L318.6 73.9L315.0 77.5L311.4 73.9Z" fill="#2b3a7a" opacity="0.8" stroke="none" stroke-width="0"/><path d="M317.2 70.0L320.8 73.6L317.2 77.2L313.6 73.6Z" fill="#2b3a7a" opacity="0.8" stroke="none" stroke-width="0"/><path d="M351.3 69.8L354.9 73.4L351.3 77.0L347.7 73.4Z" fill="#2b3a7a" opacity="0.8" stroke="none" stroke-width="0"/><path d="M380.4 69.8L384.0 73.4L380.4 77.0L376.8 73.4Z" fill="#2b3a7a" opacity="0.8" stroke="none" stroke-width="0"/><path d="M399.7 67.8L403.3 71.4L399.7 75.0L396.1 71.4Z" fill="#2b3a7a" opacity="0.8" stroke="none" stroke-width="0"/><path d="M60.0 335.3L61.0 335.3L61.0 335.1L62.5 335.1L62.5 320.7L65.4 320.7L65.4 319.9L66.5 319.9L66.5 315.3L66.8 315.3L66.8 314.9L67.2 314.9L67.2 314.9L84.5 314.9L84.5 238.7L84.8 238.7L84.8 229.0L85.0 229.0L85.0 222.3L85.4 222.3L85.4 220.6L85.4 220.6L85.4 220.5L85.6 220.5L85.6 214.2L86.3 214.2L86.3 214.1L86.5 214.1L86.5 213.7L86.6 213.7L86.6 213.5L86.8 213.5L86.8 212.7L87.7 212.7L87.7 212.1L87.9 212.1L87.9 212.0L90.2 212.0L90.2 206.7L92.8 206.7L92.8 204.9L93.7 204.9L93.7 204.6L94.4 204.6L94.4 201.9L95.5 201.9L95.5 201.8L96.1 201.8L96.1 201.0L96.4 201.0L96.4 200.0L98.1 200.0L98.1 200.0L98.8 200.0L98.8 199.7L104.4 199.7L104.4 195.5L108.6 195.5L108.6 187.4L108.8 187.4L108.8 186.2L109.0 186.2L109.0 184.5L116.4 184.5L116.4 183.9L120.1 183.9L120.1 169.3L121.3 169.3L121.3 168.8L121.4 168.8L121.4 167.7L122.1 167.7L122.1 165.0L122.3 165.0L122.3 163.7L122.4 163.7L122.4 163.6L124.0 163.6L124.0 155.9L125.9 155.9L125.9 155.8L126.6 155.8L126.6 141.9L128.1 141.9L128.1 141.8L128.7 141.8L128.7 131.7L129.2 131.7L129.2 130.9L129.4 130.9L129.4 129.5L142.3 129.5L142.3 129.5L144.2 129.5L144.2 128.9L146.1 128.9L146.1 128.4L147.4 128.4L147.4 128.2L153.2 128.2L153.2 128.0L159.3 128.0L159.3 112.8L160.6 112.8L160.6 110.2L163.0 110.2L163.0 105.5L163.5 105.5L163.5 105.1L163.9 105.1L163.9 103.8L168.1 103.8L168.1 103.5L176.0 103.5L176.0 89.6L177.4 89.6L177.4 89.3L177.7 89.3L177.7 87.6L179.1 87.6L179.1 85.4L183.6 85.4L183.6 84.4L217.3 84.4L217.3 84.4L301.3 84.4L301.3 75.8L302.1 75.8L302.1 75.7L302.9 75.7L302.9 75.3L303.1 75.3L303.1 74.7L303.9 74.7L303.9 74.7L308.6 74.7L308.6 74.4L315.0 74.4L315.0 73.9L317.2 73.9L317.2 73.6L320.7 73.6L320.7 69.8L322.2 69.8L322.2 69.1L453.6 69.1L453.6 55.0L1032.0 55.0" fill="none" stroke="#6675b0" stroke-width="1.6" stroke-dasharray="5 3" opacity="0.75"/><path d="M124.0 155.9L128.1 155.9L128.1 141.8L128.7 141.8L128.7 131.7L129.2 131.7L129.2 130.9L129.4 130.9L129.4 129.5L142.3 129.5L142.3 129.5L144.2 129.5L144.2 128.9L146.1 128.9L146.1 128.4L147.4 128.4L147.4 128.2L153.2 128.2L153.2 128.0L159.3 128.0L159.3 112.8L162.2 112.8L162.2 111.6L163.0 111.6L163.0 105.5L163.5 105.5L163.5 105.1L163.9 105.1L163.9 103.8L168.1 103.8L168.1 103.5L176.0 103.5L176.0 89.6L177.4 89.6L177.4 89.3L177.7 89.3L177.7 87.6L179.1 87.6L179.1 85.4L183.6 85.4L183.6 84.4L217.3 84.4L217.3 84.4L301.3 84.4L301.3 75.8L302.1 75.8L302.1 75.7L302.9 75.7L302.9 75.3L303.1 75.3L303.1 74.7L303.9 74.7L303.9 74.7L308.6 74.7L308.6 74.4L315.0 74.4L315.0 73.9L317.2 73.9L317.2 73.6L320.7 73.6L320.7 73.5L351.3 73.5L351.3 73.4L380.4 73.4L380.4 73.4L399.7 73.4L399.7 71.4L1032.0 71.4" fill="none" stroke="#2b3a7a" stroke-width="2.6"/><path d="M274.1 246.9L280.6 253.4L274.1 259.9L267.6 253.4Z" fill="#c5961a" opacity="1.0" stroke="#ffffff" stroke-width="1.4"/><path d="M315.9 206.5L322.4 213.0L315.9 219.5L309.4 213.0Z" fill="#c5961a" opacity="1.0" stroke="#ffffff" stroke-width="1.4"/><path d="M320.7 67.0L327.2 73.5L320.7 80.0L314.2 73.5Z" fill="#c5961a" opacity="1.0" stroke="#ffffff" stroke-width="1.4"/><path d="M356.6 240.8L363.1 247.3L356.6 253.8L350.1 247.3Z" fill="#c5961a" opacity="1.0" stroke="#ffffff" stroke-width="1.4"/><path d="M356.8 238.0L363.3 244.5L356.8 251.0L350.3 244.5Z" fill="#c5961a" opacity="1.0" stroke="#ffffff" stroke-width="1.4"/><path d="M807.1 66.6L813.6 73.1L807.1 79.6L800.6 73.1Z" fill="#c5961a" opacity="1.0" stroke="#ffffff" stroke-width="1.4"/><text x="1042" y="53.0" font-size="11.5" fill="#6675b0">– – raw best 535.9</text><text x="1042" y="67.0" font-size="10" fill="#8a8fa3">unverified (pending)</text><path d="M399.7 64.9L406.2 71.4L399.7 77.9L393.2 71.4Z" fill="#2b3a7a" opacity="1.0" stroke="#ffffff" stroke-width="1.4"/><text x="1042" y="99.4" font-size="12.5" fill="#2b3a7a" font-weight="bold">◆ verified 510.1</text><text x="1042" y="115.4" font-size="10.5" fill="#3a3f55">top verified</text><text x="60" y="24" font-size="13" font-weight="bold" fill="#3a3f55" letter-spacing="1.2">SCORE EVOLUTION — gemma-challenge (tok/s)</text><circle cx="452" cy="20" r="3" fill="#b9bdca"/><text x="460" y="24" font-size="10.5" fill="#8a8fa3">all results</text><path d="M544.0 16.4L547.6 20.0L544.0 23.6L540.4 20.0Z" fill="#2b3a7a" opacity="1.0" stroke="none" stroke-width="0"/><text x="552" y="24" font-size="10.5" fill="#8a8fa3">verified</text><path d="M620.0 15.5L624.5 20.0L620.0 24.5L615.5 20.0Z" fill="#c5961a" opacity="1.0" stroke="#fff" stroke-width="1"/><text x="629" y="24" font-size="10.5" fill="#8a8fa3">mikasa-inbound (us)</text></svg>