<svg viewBox="0 0 1200 440" xmlns="http://www.w3.org/2000/svg" font-family="ui-sans-serif,system-ui,-apple-system,sans-serif"><rect x="0" y="0" width="1200" height="440" fill="#ffffff"/><rect x="60" y="46" width="972" height="350" fill="#f3f4fb"/><line x1="60" y1="396.0" x2="1032" y2="396.0" stroke="#e3e5ef" stroke-width="1"/><text x="52" y="400.0" text-anchor="end" font-size="11" fill="#8a8fa3">0</text><line x1="60" y1="332.4" x2="1032" y2="332.4" stroke="#e3e5ef" stroke-width="1"/><text x="52" y="336.4" text-anchor="end" font-size="11" fill="#8a8fa3">100</text><line x1="60" y1="268.7" x2="1032" y2="268.7" stroke="#e3e5ef" stroke-width="1"/><text x="52" y="272.7" text-anchor="end" font-size="11" fill="#8a8fa3">200</text><line x1="60" y1="205.1" x2="1032" y2="205.1" stroke="#e3e5ef" stroke-width="1"/><text x="52" y="209.1" text-anchor="end" font-size="11" fill="#8a8fa3">300</text><line x1="60" y1="141.5" x2="1032" y2="141.5" stroke="#e3e5ef" stroke-width="1"/><text x="52" y="145.5" text-anchor="end" font-size="11" fill="#8a8fa3">400</text><line x1="60" y1="77.8" x2="1032" y2="77.8" stroke="#e3e5ef" stroke-width="1"/><text x="52" y="81.8" text-anchor="end" font-size="11" fill="#8a8fa3">500</text><line x1="159.5" y1="46" x2="159.5" y2="396" stroke="#e3e5ef" stroke-width="1"/><text x="159.5" y="414.0" text-anchor="middle" font-size="11" fill="#8a8fa3">Jun 10</text><line x1="301.5" y1="46" x2="301.5" y2="396" stroke="#e3e5ef" stroke-width="1"/><text x="301.5" y="414.0" text-anchor="middle" font-size="11" fill="#8a8fa3">Jun 12</text><line x1="443.5" y1="46" x2="443.5" y2="396" stroke="#e3e5ef" stroke-width="1"/><text x="443.5" y="414.0" text-anchor="middle" font-size="11" fill="#8a8fa3">Jun 14</text><line x1="585.5" y1="46" x2="585.5" y2="396" stroke="#e3e5ef" stroke-width="1"/><text x="585.5" y="414.0" text-anchor="middle" font-size="11" fill="#8a8fa3">Jun 16</text><line x1="727.5" y1="46" x2="727.5" y2="396" stroke="#e3e5ef" stroke-width="1"/><text x="727.5" y="414.0" text-anchor="middle" font-size="11" fill="#8a8fa3">Jun 18</text><line x1="869.5" y1="46" x2="869.5" y2="396" stroke="#e3e5ef" stroke-width="1"/><text x="869.5" y="414.0" text-anchor="middle" font-size="11" fill="#8a8fa3">Jun 20</text><line x1="1011.4" y1="46" x2="1011.4" y2="396" stroke="#e3e5ef" stroke-width="1"/><text x="1011.4" y="414.0" text-anchor="middle" font-size="11" fill="#8a8fa3">Jun 22</text><circle cx="60.0" cy="335.3" r="2.3" fill="#b9bdca" opacity="0.5"/><circle cx="63.4" cy="335.1" r="2.3" fill="#b9bdca" opacity="0.5"/><circle cx="66.9" cy="368.0" r="2.3" fill="#b9bdca" opacity="0.5"/><circle cx="68.2" cy="320.7" r="2.3" fill="#b9bdca" opacity="0.5"/><circle cx="77.6" cy="319.9" r="2.3" fill="#b9bdca" opacity="0.5"/><circle cx="78.2" cy="320.6" r="2.3" fill="#b9bdca" opacity="0.5"/><circle cx="81.2" cy="315.3" r="2.3" fill="#b9bdca" opacity="0.5"/><circle cx="81.8" cy="319.7" r="2.3" fill="#b9bdca" opacity="0.5"/><circle cx="82.1" cy="314.9" r="2.3" fill="#b9bdca" opacity="0.5"/><circle cx="83.3" cy="315.5" r="2.3" fill="#b9bdca" opacity="0.5"/><circle cx="83.7" cy="314.9" r="2.3" fill="#b9bdca" opacity="0.5"/><circle cx="84.6" cy="315.4" r="2.3" fill="#b9bdca" opacity="0.5"/><circle cx="86.4" cy="315.0" r="2.3" fill="#b9bdca" opacity="0.5"/><circle cx="140.2" cy="238.7" r="2.3" fill="#b9bdca" opacity="0.5"/><circle cx="140.6" cy="315.0" r="2.3" fill="#b9bdca" opacity="0.5"/><circle cx="141.1" cy="229.0" r="2.3" fill="#b9bdca" opacity="0.5"/><circle cx="142.0" cy="222.3" r="2.3" fill="#b9bdca" opacity="0.5"/><circle cx="142.8" cy="228.0" r="2.3" fill="#b9bdca" opacity="0.5"/><circle cx="143.0" cy="223.3" r="2.3" fill="#b9bdca" opacity="0.5"/><circle cx="143.1" cy="220.6" r="2.3" fill="#b9bdca" opacity="0.5"/><circle cx="143.3" cy="220.5" r="2.3" fill="#b9bdca" opacity="0.5"/><circle cx="143.5" cy="223.2" r="2.3" fill="#b9bdca" opacity="0.5"/><circle cx="144.0" cy="214.2" r="2.3" fill="#b9bdca" opacity="0.5"/><circle cx="144.1" cy="222.1" r="2.3" fill="#b9bdca" opacity="0.5"/><circle cx="144.5" cy="220.7" r="2.3" fill="#b9bdca" opacity="0.5"/><circle cx="145.0" cy="218.5" r="2.3" fill="#b9bdca" opacity="0.5"/><circle cx="145.2" cy="215.2" r="2.3" fill="#b9bdca" opacity="0.5"/><circle cx="145.6" cy="214.3" r="2.3" fill="#b9bdca" opacity="0.5"/><circle cx="145.7" cy="219.2" r="2.3" fill="#b9bdca" opacity="0.5"/><circle cx="146.1" cy="214.1" r="2.3" fill="#b9bdca" opacity="0.5"/><circle cx="146.4" cy="215.2" r="2.3" fill="#b9bdca" opacity="0.5"/><circle cx="146.7" cy="213.7" r="2.3" fill="#b9bdca" opacity="0.5"/><circle cx="147.2" cy="213.5" r="2.3" fill="#b9bdca" opacity="0.5"/><circle cx="147.6" cy="214.8" r="2.3" fill="#b9bdca" opacity="0.5"/><circle cx="147.6" cy="217.7" r="2.3" fill="#b9bdca" opacity="0.5"/><circle cx="147.8" cy="212.7" r="2.3" fill="#b9bdca" opacity="0.5"/><circle cx="148.6" cy="213.3" r="2.3" fill="#b9bdca" opacity="0.5"/><circle cx="149.6" cy="212.7" r="2.3" fill="#b9bdca" opacity="0.5"/><circle cx="149.6" cy="213.6" r="2.3" fill="#b9bdca" opacity="0.5"/><circle cx="150.0" cy="213.0" r="2.3" fill="#b9bdca" opacity="0.5"/><circle cx="150.6" cy="212.1" r="2.3" fill="#b9bdca" opacity="0.5"/><circle cx="150.7" cy="213.3" r="2.3" fill="#b9bdca" opacity="0.5"/><circle cx="151.3" cy="212.0" r="2.3" fill="#b9bdca" opacity="0.5"/><circle cx="152.3" cy="212.1" r="2.3" fill="#b9bdca" opacity="0.5"/><circle cx="152.3" cy="212.8" r="2.3" fill="#b9bdca" opacity="0.5"/><circle cx="158.8" cy="206.7" r="2.3" fill="#b9bdca" opacity="0.5"/><circle cx="159.7" cy="206.8" r="2.3" fill="#b9bdca" opacity="0.5"/><circle cx="159.7" cy="212.5" r="2.3" fill="#b9bdca" opacity="0.5"/><circle cx="160.3" cy="207.2" r="2.3" fill="#b9bdca" opacity="0.5"/><circle cx="162.3" cy="207.0" r="2.3" fill="#b9bdca" opacity="0.5"/><circle cx="167.3" cy="204.9" r="2.3" fill="#b9bdca" opacity="0.5"/><circle cx="170.4" cy="204.6" r="2.3" fill="#b9bdca" opacity="0.5"/><circle cx="170.7" cy="212.3" r="2.3" fill="#b9bdca" opacity="0.5"/><circle cx="171.3" cy="204.6" r="2.3" fill="#b9bdca" opacity="0.5"/><circle cx="171.3" cy="204.6" r="2.3" fill="#b9bdca" opacity="0.5"/><circle cx="171.3" cy="204.9" r="2.3" fill="#b9bdca" opacity="0.5"/><circle cx="171.3" cy="204.9" r="2.3" fill="#b9bdca" opacity="0.5"/><circle cx="172.5" cy="201.9" r="2.3" fill="#b9bdca" opacity="0.5"/><circle cx="174.5" cy="206.5" r="2.3" fill="#b9bdca" opacity="0.5"/><circle cx="175.3" cy="205.8" r="2.3" fill="#b9bdca" opacity="0.5"/><circle cx="175.3" cy="335.1" r="2.3" fill="#b9bdca" opacity="0.5"/><circle cx="176.3" cy="201.8" r="2.3" fill="#b9bdca" opacity="0.5"/><circle cx="176.3" cy="202.2" r="2.3" fill="#b9bdca" opacity="0.5"/><circle cx="178.2" cy="201.0" r="2.3" fill="#b9bdca" opacity="0.5"/><circle cx="178.9" cy="203.1" r="2.3" fill="#b9bdca" opacity="0.5"/><circle cx="179.3" cy="200.0" r="2.3" fill="#b9bdca" opacity="0.5"/><circle cx="179.4" cy="204.6" r="2.3" fill="#b9bdca" opacity="0.5"/><circle cx="180.5" cy="202.3" r="2.3" fill="#b9bdca" opacity="0.5"/><circle cx="182.9" cy="200.4" r="2.3" fill="#b9bdca" opacity="0.5"/><circle cx="183.8" cy="200.7" r="2.3" fill="#b9bdca" opacity="0.5"/><circle cx="184.8" cy="200.0" r="2.3" fill="#b9bdca" opacity="0.5"/><circle cx="187.0" cy="199.7" r="2.3" fill="#b9bdca" opacity="0.5"/><circle cx="200.6" cy="200.6" r="2.3" fill="#b9bdca" opacity="0.5"/><circle cx="201.7" cy="201.8" r="2.3" fill="#b9bdca" opacity="0.5"/><circle cx="203.6" cy="208.4" r="2.3" fill="#b9bdca" opacity="0.5"/><circle cx="203.7" cy="200.8" r="2.3" fill="#b9bdca" opacity="0.5"/><circle cx="205.0" cy="200.7" r="2.3" fill="#b9bdca" opacity="0.5"/><circle cx="205.0" cy="201.9" r="2.3" fill="#b9bdca" opacity="0.5"/><circle cx="205.5" cy="195.5" r="2.3" fill="#b9bdca" opacity="0.5"/><circle cx="206.7" cy="196.9" r="2.3" fill="#b9bdca" opacity="0.5"/><circle cx="207.4" cy="197.9" r="2.3" fill="#b9bdca" opacity="0.5"/><circle cx="208.5" cy="196.1" r="2.3" fill="#b9bdca" opacity="0.5"/><circle cx="212.7" cy="197.3" r="2.3" fill="#b9bdca" opacity="0.5"/><circle cx="213.9" cy="195.9" r="2.3" fill="#b9bdca" opacity="0.5"/><circle cx="214.3" cy="201.0" r="2.3" fill="#b9bdca" opacity="0.5"/><circle cx="214.6" cy="197.5" r="2.3" fill="#b9bdca" opacity="0.5"/><circle cx="215.5" cy="196.9" r="2.3" fill="#b9bdca" opacity="0.5"/><circle cx="215.6" cy="197.1" r="2.3" fill="#b9bdca" opacity="0.5"/><circle cx="215.7" cy="197.0" r="2.3" fill="#b9bdca" opacity="0.5"/><circle cx="216.6" cy="196.0" r="2.3" fill="#b9bdca" opacity="0.5"/><circle cx="216.6" cy="196.0" r="2.3" fill="#b9bdca" opacity="0.5"/><circle cx="216.7" cy="197.9" r="2.3" fill="#b9bdca" opacity="0.5"/><circle cx="217.4" cy="197.8" r="2.3" fill="#b9bdca" opacity="0.5"/><circle cx="218.0" cy="196.2" r="2.3" fill="#b9bdca" opacity="0.5"/><circle cx="218.1" cy="197.5" r="2.3" fill="#b9bdca" opacity="0.5"/><circle cx="218.3" cy="196.9" r="2.3" fill="#b9bdca" opacity="0.5"/><circle cx="218.4" cy="195.5" r="2.3" fill="#b9bdca" opacity="0.5"/><circle cx="219.2" cy="198.1" r="2.3" fill="#b9bdca" opacity="0.5"/><circle cx="219.3" cy="187.4" r="2.3" fill="#b9bdca" opacity="0.5"/><circle cx="219.7" cy="186.2" r="2.3" fill="#b9bdca" opacity="0.5"/><circle cx="219.7" cy="196.3" r="2.3" fill="#b9bdca" opacity="0.5"/><circle cx="219.7" cy="197.2" r="2.3" fill="#b9bdca" opacity="0.5"/><circle cx="219.7" cy="197.8" r="2.3" fill="#b9bdca" opacity="0.5"/><circle cx="219.7" cy="368.0" r="2.3" fill="#b9bdca" opacity="0.5"/><circle cx="220.6" cy="184.5" r="2.3" fill="#b9bdca" opacity="0.5"/><circle cx="224.3" cy="184.6" r="2.3" fill="#b9bdca" opacity="0.5"/><circle cx="225.8" cy="185.6" r="2.3" fill="#b9bdca" opacity="0.5"/><circle cx="231.2" cy="188.7" r="2.3" fill="#b9bdca" opacity="0.5"/><circle cx="238.4" cy="185.4" r="2.3" fill="#b9bdca" opacity="0.5"/><circle cx="239.9" cy="185.2" r="2.3" fill="#b9bdca" opacity="0.5"/><circle cx="240.5" cy="186.6" r="2.3" fill="#b9bdca" opacity="0.5"/><circle cx="240.7" cy="185.3" r="2.3" fill="#b9bdca" opacity="0.5"/><circle cx="241.9" cy="185.3" r="2.3" fill="#b9bdca" opacity="0.5"/><circle cx="242.5" cy="185.0" r="2.3" fill="#b9bdca" opacity="0.5"/><circle cx="243.7" cy="184.9" r="2.3" fill="#b9bdca" opacity="0.5"/><circle cx="244.6" cy="185.1" r="2.3" fill="#b9bdca" opacity="0.5"/><circle cx="244.6" cy="185.2" r="2.3" fill="#b9bdca" opacity="0.5"/><circle cx="244.6" cy="186.4" r="2.3" fill="#b9bdca" opacity="0.5"/><circle cx="244.7" cy="183.9" r="2.3" fill="#b9bdca" opacity="0.5"/><circle cx="251.3" cy="184.4" r="2.3" fill="#b9bdca" opacity="0.5"/><circle cx="252.5" cy="184.2" r="2.3" fill="#b9bdca" opacity="0.5"/><circle cx="256.7" cy="169.3" r="2.3" fill="#b9bdca" opacity="0.5"/><circle cx="260.7" cy="168.8" r="2.3" fill="#b9bdca" opacity="0.5"/><circle cx="260.9" cy="167.7" r="2.3" fill="#b9bdca" opacity="0.5"/><circle cx="262.7" cy="201.4" r="2.3" fill="#b9bdca" opacity="0.5"/><circle cx="263.2" cy="165.0" r="2.3" fill="#b9bdca" opacity="0.5"/><circle cx="263.5" cy="198.2" r="2.3" fill="#b9bdca" opacity="0.5"/><circle cx="264.1" cy="163.7" r="2.3" fill="#b9bdca" opacity="0.5"/><circle cx="264.3" cy="163.6" r="2.3" fill="#b9bdca" opacity="0.5"/><circle cx="265.0" cy="165.9" r="2.3" fill="#b9bdca" opacity="0.5"/><circle cx="268.6" cy="165.1" r="2.3" fill="#b9bdca" opacity="0.5"/><circle cx="269.4" cy="155.9" r="2.3" fill="#b9bdca" opacity="0.5"/><circle cx="272.9" cy="196.5" r="2.3" fill="#b9bdca" opacity="0.5"/><circle cx="274.4" cy="157.4" r="2.3" fill="#b9bdca" opacity="0.5"/><circle cx="275.7" cy="155.8" r="2.3" fill="#b9bdca" opacity="0.5"/><circle cx="278.0" cy="141.9" r="2.3" fill="#b9bdca" opacity="0.5"/><circle cx="282.7" cy="156.1" r="2.3" fill="#b9bdca" opacity="0.5"/><circle cx="282.7" cy="156.4" r="2.3" fill="#b9bdca" opacity="0.5"/><circle cx="283.0" cy="141.8" r="2.3" fill="#b9bdca" opacity="0.5"/><circle cx="283.2" cy="196.0" r="2.3" fill="#b9bdca" opacity="0.5"/><circle cx="284.8" cy="131.7" r="2.3" fill="#b9bdca" opacity="0.5"/><circle cx="285.0" cy="134.1" r="2.3" fill="#b9bdca" opacity="0.5"/><circle cx="285.5" cy="141.1" r="2.3" fill="#b9bdca" opacity="0.5"/><circle cx="286.3" cy="134.0" r="2.3" fill="#b9bdca" opacity="0.5"/><circle cx="286.5" cy="130.9" r="2.3" fill="#b9bdca" opacity="0.5"/><circle cx="286.5" cy="154.2" r="2.3" fill="#b9bdca" opacity="0.5"/><circle cx="286.8" cy="133.6" r="2.3" fill="#b9bdca" opacity="0.5"/><circle cx="287.2" cy="129.5" r="2.3" fill="#b9bdca" opacity="0.5"/><circle cx="287.2" cy="130.9" r="2.3" fill="#b9bdca" opacity="0.5"/><circle cx="287.2" cy="133.4" r="2.3" fill="#b9bdca" opacity="0.5"/><circle cx="287.6" cy="131.2" r="2.3" fill="#b9bdca" opacity="0.5"/><circle cx="290.5" cy="189.8" r="2.3" fill="#b9bdca" opacity="0.5"/><circle cx="290.7" cy="133.2" r="2.3" fill="#b9bdca" opacity="0.5"/><circle cx="291.1" cy="133.5" r="2.3" fill="#b9bdca" opacity="0.5"/><circle cx="292.2" cy="130.1" r="2.3" fill="#b9bdca" opacity="0.5"/><circle cx="295.1" cy="130.3" r="2.3" fill="#b9bdca" opacity="0.5"/><circle cx="296.4" cy="303.1" r="2.3" fill="#b9bdca" opacity="0.5"/><circle cx="298.8" cy="133.2" r="2.3" fill="#b9bdca" opacity="0.5"/><circle cx="302.0" cy="144.2" r="2.3" fill="#b9bdca" opacity="0.5"/><circle cx="302.7" cy="135.3" r="2.3" fill="#b9bdca" opacity="0.5"/><circle cx="304.7" cy="133.4" r="2.3" fill="#b9bdca" opacity="0.5"/><circle cx="304.9" cy="159.9" r="2.3" fill="#b9bdca" opacity="0.5"/><circle cx="305.4" cy="130.8" r="2.3" fill="#b9bdca" opacity="0.5"/><circle cx="306.1" cy="133.2" r="2.3" fill="#b9bdca" opacity="0.5"/><circle cx="313.3" cy="130.9" r="2.3" fill="#b9bdca" opacity="0.5"/><circle cx="314.1" cy="130.9" r="2.3" fill="#b9bdca" opacity="0.5"/><circle cx="314.1" cy="133.8" r="2.3" fill="#b9bdca" opacity="0.5"/><circle cx="315.3" cy="130.4" r="2.3" fill="#b9bdca" opacity="0.5"/><circle cx="316.1" cy="153.7" r="2.3" fill="#b9bdca" opacity="0.5"/><circle cx="317.4" cy="133.3" r="2.3" fill="#b9bdca" opacity="0.5"/><circle cx="319.7" cy="156.5" r="2.3" fill="#b9bdca" opacity="0.5"/><circle cx="320.1" cy="132.3" r="2.3" fill="#b9bdca" opacity="0.5"/><circle cx="322.7" cy="147.2" r="2.3" fill="#b9bdca" opacity="0.5"/><circle cx="323.2" cy="133.6" r="2.3" fill="#b9bdca" opacity="0.5"/><circle cx="324.1" cy="129.5" r="2.3" fill="#b9bdca" opacity="0.5"/><circle cx="324.1" cy="133.3" r="2.3" fill="#b9bdca" opacity="0.5"/><circle cx="327.4" cy="133.3" r="2.3" fill="#b9bdca" opacity="0.5"/><circle cx="329.5" cy="129.5" r="2.3" fill="#b9bdca" opacity="0.5"/><circle cx="333.1" cy="130.6" r="2.3" fill="#b9bdca" opacity="0.5"/><circle cx="335.8" cy="128.9" r="2.3" fill="#b9bdca" opacity="0.5"/><circle cx="336.4" cy="132.7" r="2.3" fill="#b9bdca" opacity="0.5"/><circle cx="336.4" cy="133.1" r="2.3" fill="#b9bdca" opacity="0.5"/><circle cx="340.5" cy="129.8" r="2.3" fill="#b9bdca" opacity="0.5"/><circle cx="341.6" cy="333.8" r="2.3" fill="#b9bdca" opacity="0.5"/><circle cx="341.9" cy="128.4" r="2.3" fill="#b9bdca" opacity="0.5"/><circle cx="343.8" cy="129.8" r="2.3" fill="#b9bdca" opacity="0.5"/><circle cx="344.5" cy="128.9" r="2.3" fill="#b9bdca" opacity="0.5"/><circle cx="344.7" cy="128.9" r="2.3" fill="#b9bdca" opacity="0.5"/><circle cx="346.1" cy="128.2" r="2.3" fill="#b9bdca" opacity="0.5"/><circle cx="347.1" cy="129.7" r="2.3" fill="#b9bdca" opacity="0.5"/><circle cx="347.5" cy="142.3" r="2.3" fill="#b9bdca" opacity="0.5"/><circle cx="351.3" cy="128.8" r="2.3" fill="#b9bdca" opacity="0.5"/><circle cx="353.6" cy="161.1" r="2.3" fill="#b9bdca" opacity="0.5"/><circle cx="357.9" cy="164.4" r="2.3" fill="#b9bdca" opacity="0.5"/><circle cx="358.4" cy="248.3" r="2.3" fill="#b9bdca" opacity="0.5"/><circle cx="364.6" cy="135.4" r="2.3" fill="#b9bdca" opacity="0.5"/><circle cx="365.2" cy="128.0" r="2.3" fill="#b9bdca" opacity="0.5"/><circle cx="367.1" cy="229.0" r="2.3" fill="#b9bdca" opacity="0.5"/><circle cx="371.4" cy="128.1" r="2.3" fill="#b9bdca" opacity="0.5"/><circle cx="372.6" cy="128.6" r="2.3" fill="#b9bdca" opacity="0.5"/><circle cx="376.6" cy="128.8" r="2.3" fill="#b9bdca" opacity="0.5"/><circle cx="376.6" cy="129.6" r="2.3" fill="#b9bdca" opacity="0.5"/><circle cx="376.6" cy="130.9" r="2.3" fill="#b9bdca" opacity="0.5"/><circle cx="385.1" cy="112.8" r="2.3" fill="#b9bdca" opacity="0.5"/><circle cx="389.6" cy="110.2" r="2.3" fill="#b9bdca" opacity="0.5"/><circle cx="389.7" cy="111.6" r="2.3" fill="#b9bdca" opacity="0.5"/><circle cx="392.5" cy="111.0" r="2.3" fill="#b9bdca" opacity="0.5"/><circle cx="393.9" cy="335.1" r="2.3" fill="#b9bdca" opacity="0.5"/><circle cx="394.6" cy="111.6" r="2.3" fill="#b9bdca" opacity="0.5"/><circle cx="397.4" cy="105.5" r="2.3" fill="#b9bdca" opacity="0.5"/><circle cx="397.8" cy="108.5" r="2.3" fill="#b9bdca" opacity="0.5"/><circle cx="399.0" cy="105.1" r="2.3" fill="#b9bdca" opacity="0.5"/><circle cx="400.3" cy="103.8" r="2.3" fill="#b9bdca" opacity="0.5"/><circle cx="401.7" cy="125.8" r="2.3" fill="#b9bdca" opacity="0.5"/><circle cx="414.0" cy="103.5" r="2.3" fill="#b9bdca" opacity="0.5"/><circle cx="417.2" cy="127.8" r="2.3" fill="#b9bdca" opacity="0.5"/><circle cx="418.6" cy="334.3" r="2.3" fill="#b9bdca" opacity="0.5"/><circle cx="420.5" cy="128.6" r="2.3" fill="#b9bdca" opacity="0.5"/><circle cx="421.4" cy="128.6" r="2.3" fill="#b9bdca" opacity="0.5"/><circle cx="421.6" cy="128.6" r="2.3" fill="#b9bdca" opacity="0.5"/><circle cx="422.7" cy="256.6" r="2.3" fill="#b9bdca" opacity="0.5"/><circle cx="424.1" cy="254.6" r="2.3" fill="#b9bdca" opacity="0.5"/><circle cx="426.3" cy="128.6" r="2.3" fill="#b9bdca" opacity="0.5"/><circle cx="432.0" cy="250.1" r="2.3" fill="#b9bdca" opacity="0.5"/><circle cx="432.5" cy="161.4" r="2.3" fill="#b9bdca" opacity="0.5"/><circle cx="433.1" cy="206.6" r="2.3" fill="#b9bdca" opacity="0.5"/><circle cx="438.3" cy="113.5" r="2.3" fill="#b9bdca" opacity="0.5"/><circle cx="440.0" cy="89.6" r="2.3" fill="#b9bdca" opacity="0.5"/><circle cx="441.3" cy="90.2" r="2.3" fill="#b9bdca" opacity="0.5"/><circle cx="444.5" cy="89.3" r="2.3" fill="#b9bdca" opacity="0.5"/><circle cx="445.4" cy="87.6" r="2.3" fill="#b9bdca" opacity="0.5"/><circle cx="446.5" cy="185.0" r="2.3" fill="#b9bdca" opacity="0.5"/><circle cx="447.7" cy="131.6" r="2.3" fill="#b9bdca" opacity="0.5"/><circle cx="448.6" cy="87.8" r="2.3" fill="#b9bdca" opacity="0.5"/><circle cx="450.1" cy="85.4" r="2.3" fill="#b9bdca" opacity="0.5"/><circle cx="452.4" cy="86.8" r="2.3" fill="#b9bdca" opacity="0.5"/><circle cx="454.7" cy="88.4" r="2.3" fill="#b9bdca" opacity="0.5"/><circle cx="464.5" cy="89.5" r="2.3" fill="#b9bdca" opacity="0.5"/><circle cx="464.5" cy="155.6" r="2.3" fill="#b9bdca" opacity="0.5"/><circle cx="464.6" cy="84.4" r="2.3" fill="#b9bdca" opacity="0.5"/><circle cx="476.2" cy="89.2" r="2.3" fill="#b9bdca" opacity="0.5"/><circle cx="476.4" cy="90.5" r="2.3" fill="#b9bdca" opacity="0.5"/><circle cx="479.7" cy="87.7" r="2.3" fill="#b9bdca" opacity="0.5"/><circle cx="480.8" cy="367.9" r="2.3" fill="#b9bdca" opacity="0.5"/><circle cx="485.5" cy="164.3" r="2.3" fill="#b9bdca" opacity="0.5"/><circle cx="487.8" cy="94.6" r="2.3" fill="#b9bdca" opacity="0.5"/><circle cx="488.8" cy="89.6" r="2.3" fill="#b9bdca" opacity="0.5"/><circle cx="498.8" cy="124.6" r="2.3" fill="#b9bdca" opacity="0.5"/><circle cx="509.5" cy="146.2" r="2.3" fill="#b9bdca" opacity="0.5"/><circle cx="509.8" cy="90.5" r="2.3" fill="#b9bdca" opacity="0.5"/><circle cx="510.8" cy="87.7" r="2.3" fill="#b9bdca" opacity="0.5"/><circle cx="511.3" cy="87.7" r="2.3" fill="#b9bdca" opacity="0.5"/><circle cx="511.3" cy="89.6" r="2.3" fill="#b9bdca" opacity="0.5"/><circle cx="518.9" cy="93.0" r="2.3" fill="#b9bdca" opacity="0.5"/><circle cx="521.6" cy="85.5" r="2.3" fill="#b9bdca" opacity="0.5"/><circle cx="544.1" cy="334.8" r="2.3" fill="#b9bdca" opacity="0.5"/><circle cx="546.7" cy="86.3" r="2.3" fill="#b9bdca" opacity="0.5"/><circle cx="554.3" cy="85.5" r="2.3" fill="#b9bdca" opacity="0.5"/><circle cx="555.6" cy="84.6" r="2.3" fill="#b9bdca" opacity="0.5"/><circle cx="558.8" cy="87.8" r="2.3" fill="#b9bdca" opacity="0.5"/><circle cx="560.1" cy="84.4" r="2.3" fill="#b9bdca" opacity="0.5"/><circle cx="560.8" cy="84.8" r="2.3" fill="#b9bdca" opacity="0.5"/><circle cx="563.0" cy="87.4" r="2.3" fill="#b9bdca" opacity="0.5"/><circle cx="575.1" cy="84.4" r="2.3" fill="#b9bdca" opacity="0.5"/><circle cx="628.1" cy="89.3" r="2.3" fill="#b9bdca" opacity="0.5"/><circle cx="637.6" cy="88.6" r="2.3" fill="#b9bdca" opacity="0.5"/><circle cx="637.6" cy="92.1" r="2.3" fill="#b9bdca" opacity="0.5"/><circle cx="639.7" cy="156.8" r="2.3" fill="#b9bdca" opacity="0.5"/><circle cx="670.3" cy="201.6" r="2.3" fill="#b9bdca" opacity="0.5"/><circle cx="692.6" cy="315.6" r="2.3" fill="#b9bdca" opacity="0.5"/><circle cx="753.7" cy="87.7" r="2.3" fill="#b9bdca" opacity="0.5"/><circle cx="772.1" cy="87.6" r="2.3" fill="#b9bdca" opacity="0.5"/><circle cx="788.6" cy="87.2" r="2.3" fill="#b9bdca" opacity="0.5"/><circle cx="792.3" cy="88.8" r="2.3" fill="#b9bdca" opacity="0.5"/><circle cx="793.7" cy="89.2" r="2.3" fill="#b9bdca" opacity="0.5"/><circle cx="794.6" cy="90.9" r="2.3" fill="#b9bdca" opacity="0.5"/><circle cx="799.3" cy="87.7" r="2.3" fill="#b9bdca" opacity="0.5"/><circle cx="815.8" cy="88.6" r="2.3" fill="#b9bdca" opacity="0.5"/><circle cx="817.9" cy="89.7" r="2.3" fill="#b9bdca" opacity="0.5"/><circle cx="819.3" cy="88.2" r="2.3" fill="#b9bdca" opacity="0.5"/><circle cx="850.3" cy="75.8" r="2.3" fill="#b9bdca" opacity="0.5"/><circle cx="852.7" cy="75.7" r="2.3" fill="#b9bdca" opacity="0.5"/><circle cx="854.5" cy="76.7" r="2.3" fill="#b9bdca" opacity="0.5"/><circle cx="854.6" cy="75.8" r="2.3" fill="#b9bdca" opacity="0.5"/><circle cx="855.6" cy="75.3" r="2.3" fill="#b9bdca" opacity="0.5"/><circle cx="856.0" cy="74.7" r="2.3" fill="#b9bdca" opacity="0.5"/><circle cx="856.3" cy="83.4" r="2.3" fill="#b9bdca" opacity="0.5"/><circle cx="857.1" cy="76.2" r="2.3" fill="#b9bdca" opacity="0.5"/><circle cx="857.8" cy="78.1" r="2.3" fill="#b9bdca" opacity="0.5"/><circle cx="858.6" cy="74.7" r="2.3" fill="#b9bdca" opacity="0.5"/><circle cx="863.7" cy="89.3" r="2.3" fill="#b9bdca" opacity="0.5"/><circle cx="874.0" cy="74.4" r="2.3" fill="#b9bdca" opacity="0.5"/><circle cx="890.5" cy="74.4" r="2.3" fill="#b9bdca" opacity="0.5"/><circle cx="893.1" cy="335.1" r="2.3" fill="#b9bdca" opacity="0.5"/><circle cx="893.2" cy="81.7" r="2.3" fill="#b9bdca" opacity="0.5"/><circle cx="895.1" cy="74.6" r="2.3" fill="#b9bdca" opacity="0.5"/><circle cx="895.1" cy="82.1" r="2.3" fill="#b9bdca" opacity="0.5"/><circle cx="895.2" cy="73.9" r="2.3" fill="#b9bdca" opacity="0.5"/><circle cx="899.9" cy="76.2" r="2.3" fill="#b9bdca" opacity="0.5"/><circle cx="900.6" cy="82.1" r="2.3" fill="#b9bdca" opacity="0.5"/><circle cx="901.3" cy="74.2" r="2.3" fill="#b9bdca" opacity="0.5"/><circle cx="901.4" cy="75.0" r="2.3" fill="#b9bdca" opacity="0.5"/><circle cx="902.3" cy="73.6" r="2.3" fill="#b9bdca" opacity="0.5"/><circle cx="902.4" cy="83.3" r="2.3" fill="#b9bdca" opacity="0.5"/><circle cx="902.4" cy="83.8" r="2.3" fill="#b9bdca" opacity="0.5"/><circle cx="902.4" cy="78.1" r="2.3" fill="#b9bdca" opacity="0.5"/><circle cx="902.4" cy="81.5" r="2.3" fill="#b9bdca" opacity="0.5"/><circle cx="902.4" cy="83.0" r="2.3" fill="#b9bdca" opacity="0.5"/><circle cx="902.4" cy="83.7" r="2.3" fill="#b9bdca" opacity="0.5"/><circle cx="908.9" cy="82.7" r="2.3" fill="#b9bdca" opacity="0.5"/><circle cx="910.4" cy="77.8" r="2.3" fill="#b9bdca" opacity="0.5"/><circle cx="913.8" cy="69.8" r="2.3" fill="#b9bdca" opacity="0.5"/><circle cx="914.9" cy="75.9" r="2.3" fill="#b9bdca" opacity="0.5"/><circle cx="915.4" cy="74.3" r="2.3" fill="#b9bdca" opacity="0.5"/><circle cx="915.4" cy="77.4" r="2.3" fill="#b9bdca" opacity="0.5"/><circle cx="915.4" cy="80.6" r="2.3" fill="#b9bdca" opacity="0.5"/><circle cx="915.4" cy="81.8" r="2.3" fill="#b9bdca" opacity="0.5"/><circle cx="917.7" cy="76.9" r="2.3" fill="#b9bdca" opacity="0.5"/><circle cx="917.7" cy="82.8" r="2.3" fill="#b9bdca" opacity="0.5"/><circle cx="917.7" cy="83.0" r="2.3" fill="#b9bdca" opacity="0.5"/><circle cx="917.7" cy="83.1" r="2.3" fill="#b9bdca" opacity="0.5"/><circle cx="918.8" cy="69.1" r="2.3" fill="#b9bdca" opacity="0.5"/><circle cx="921.5" cy="75.5" r="2.3" fill="#b9bdca" opacity="0.5"/><circle cx="922.9" cy="74.3" r="2.3" fill="#b9bdca" opacity="0.5"/><circle cx="964.6" cy="74.0" r="2.3" fill="#b9bdca" opacity="0.5"/><circle cx="1013.9" cy="73.4" r="2.3" fill="#b9bdca" opacity="0.5"/><circle cx="1014.4" cy="75.9" r="2.3" fill="#b9bdca" opacity="0.5"/><circle cx="1014.4" cy="76.3" r="2.3" fill="#b9bdca" opacity="0.5"/><circle cx="1014.7" cy="76.0" r="2.3" fill="#b9bdca" opacity="0.5"/><circle cx="1014.7" cy="76.8" r="2.3" fill="#b9bdca" opacity="0.5"/><circle cx="1014.7" cy="81.2" r="2.3" fill="#b9bdca" opacity="0.5"/><circle cx="1014.7" cy="83.4" r="2.3" fill="#b9bdca" opacity="0.5"/><path d="M269.4 152.3L273.0 155.9L269.4 159.5L265.8 155.9Z" fill="#2b3a7a" opacity="0.8" stroke="none" stroke-width="0"/><path d="M283.0 138.2L286.6 141.8L283.0 145.4L279.4 141.8Z" fill="#2b3a7a" opacity="0.8" stroke="none" stroke-width="0"/><path d="M284.8 128.1L288.4 131.7L284.8 135.3L281.2 131.7Z" fill="#2b3a7a" opacity="0.8" stroke="none" stroke-width="0"/><path d="M285.0 130.5L288.6 134.1L285.0 137.7L281.4 134.1Z" fill="#2b3a7a" opacity="0.8" stroke="none" stroke-width="0"/><path d="M286.5 127.3L290.1 130.9L286.5 134.5L282.9 130.9Z" fill="#2b3a7a" opacity="0.8" stroke="none" stroke-width="0"/><path d="M287.2 125.9L290.8 129.5L287.2 133.1L283.6 129.5Z" fill="#2b3a7a" opacity="0.8" stroke="none" stroke-width="0"/><path d="M287.2 127.3L290.8 130.9L287.2 134.5L283.6 130.9Z" fill="#2b3a7a" opacity="0.8" stroke="none" stroke-width="0"/><path d="M329.5 125.9L333.1 129.5L329.5 133.1L325.9 129.5Z" fill="#2b3a7a" opacity="0.8" stroke="none" stroke-width="0"/><path d="M335.8 125.3L339.4 128.9L335.8 132.5L332.2 128.9Z" fill="#2b3a7a" opacity="0.8" stroke="none" stroke-width="0"/><path d="M341.9 124.8L345.5 128.4L341.9 132.0L338.3 128.4Z" fill="#2b3a7a" opacity="0.8" stroke="none" stroke-width="0"/><path d="M346.1 124.6L349.7 128.2L346.1 131.8L342.5 128.2Z" fill="#2b3a7a" opacity="0.8" stroke="none" stroke-width="0"/><path d="M365.2 124.4L368.8 128.0L365.2 131.6L361.6 128.0Z" fill="#2b3a7a" opacity="0.8" stroke="none" stroke-width="0"/><path d="M385.1 109.2L388.7 112.8L385.1 116.4L381.5 112.8Z" fill="#2b3a7a" opacity="0.8" stroke="none" stroke-width="0"/><path d="M394.6 108.0L398.2 111.6L394.6 115.2L391.0 111.6Z" fill="#2b3a7a" opacity="0.8" stroke="none" stroke-width="0"/><path d="M397.4 101.9L401.0 105.5L397.4 109.1L393.8 105.5Z" fill="#2b3a7a" opacity="0.8" stroke="none" stroke-width="0"/><path d="M397.8 104.9L401.4 108.5L397.8 112.1L394.2 108.5Z" fill="#2b3a7a" opacity="0.8" stroke="none" stroke-width="0"/><path d="M399.0 101.5L402.6 105.1L399.0 108.7L395.4 105.1Z" fill="#2b3a7a" opacity="0.8" stroke="none" stroke-width="0"/><path d="M400.3 100.2L403.9 103.8L400.3 107.4L396.7 103.8Z" fill="#2b3a7a" opacity="0.8" stroke="none" stroke-width="0"/><path d="M414.0 99.9L417.6 103.5L414.0 107.1L410.4 103.5Z" fill="#2b3a7a" opacity="0.8" stroke="none" stroke-width="0"/><path d="M440.0 86.0L443.6 89.6L440.0 93.2L436.4 89.6Z" fill="#2b3a7a" opacity="0.8" stroke="none" stroke-width="0"/><path d="M444.5 85.7L448.1 89.3L444.5 92.9L440.9 89.3Z" fill="#2b3a7a" opacity="0.8" stroke="none" stroke-width="0"/><path d="M445.4 84.0L449.0 87.6L445.4 91.2L441.8 87.6Z" fill="#2b3a7a" opacity="0.8" stroke="none" stroke-width="0"/><path d="M450.1 81.8L453.7 85.4L450.1 89.0L446.5 85.4Z" fill="#2b3a7a" opacity="0.8" stroke="none" stroke-width="0"/><path d="M464.6 80.8L468.2 84.4L464.6 88.0L461.0 84.4Z" fill="#2b3a7a" opacity="0.8" stroke="none" stroke-width="0"/><path d="M575.1 80.8L578.7 84.4L575.1 88.0L571.5 84.4Z" fill="#2b3a7a" opacity="0.8" stroke="none" stroke-width="0"/><path d="M850.3 72.2L853.9 75.8L850.3 79.4L846.7 75.8Z" fill="#2b3a7a" opacity="0.8" stroke="none" stroke-width="0"/><path d="M852.7 72.1L856.3 75.7L852.7 79.3L849.1 75.7Z" fill="#2b3a7a" opacity="0.8" stroke="none" stroke-width="0"/><path d="M855.6 71.7L859.2 75.3L855.6 78.9L852.0 75.3Z" fill="#2b3a7a" opacity="0.8" stroke="none" stroke-width="0"/><path d="M856.0 71.1L859.6 74.7L856.0 78.3L852.4 74.7Z" fill="#2b3a7a" opacity="0.8" stroke="none" stroke-width="0"/><path d="M858.6 71.1L862.2 74.7L858.6 78.3L855.0 74.7Z" fill="#2b3a7a" opacity="0.8" stroke="none" stroke-width="0"/><path d="M874.0 70.8L877.6 74.4L874.0 78.0L870.4 74.4Z" fill="#2b3a7a" opacity="0.8" stroke="none" stroke-width="0"/><path d="M895.2 70.3L898.8 73.9L895.2 77.5L891.6 73.9Z" fill="#2b3a7a" opacity="0.8" stroke="none" stroke-width="0"/><path d="M902.3 70.0L905.9 73.6L902.3 77.2L898.7 73.6Z" fill="#2b3a7a" opacity="0.8" stroke="none" stroke-width="0"/><path d="M1013.9 69.8L1017.5 73.4L1013.9 77.0L1010.3 73.4Z" fill="#2b3a7a" opacity="0.8" stroke="none" stroke-width="0"/><path d="M60.0 335.3L63.4 335.3L63.4 335.1L68.2 335.1L68.2 320.7L77.6 320.7L77.6 319.9L81.2 319.9L81.2 315.3L82.1 315.3L82.1 314.9L83.7 314.9L83.7 314.9L140.2 314.9L140.2 238.7L141.1 238.7L141.1 229.0L142.0 229.0L142.0 222.3L143.1 222.3L143.1 220.6L143.3 220.6L143.3 220.5L144.0 220.5L144.0 214.2L146.1 214.2L146.1 214.1L146.7 214.1L146.7 213.7L147.2 213.7L147.2 213.5L147.8 213.5L147.8 212.7L150.6 212.7L150.6 212.1L151.3 212.1L151.3 212.0L158.8 212.0L158.8 206.7L167.3 206.7L167.3 204.9L170.4 204.9L170.4 204.6L172.5 204.6L172.5 201.9L176.3 201.9L176.3 201.8L178.2 201.8L178.2 201.0L179.3 201.0L179.3 200.0L184.8 200.0L184.8 200.0L187.0 200.0L187.0 199.7L205.5 199.7L205.5 195.5L219.3 195.5L219.3 187.4L219.7 187.4L219.7 186.2L220.6 186.2L220.6 184.5L244.7 184.5L244.7 183.9L256.7 183.9L256.7 169.3L260.7 169.3L260.7 168.8L260.9 168.8L260.9 167.7L263.2 167.7L263.2 165.0L264.1 165.0L264.1 163.7L264.3 163.7L264.3 163.6L269.4 163.6L269.4 155.9L275.7 155.9L275.7 155.8L278.0 155.8L278.0 141.9L283.0 141.9L283.0 141.8L284.8 141.8L284.8 131.7L286.5 131.7L286.5 130.9L287.2 130.9L287.2 129.5L329.5 129.5L329.5 129.5L335.8 129.5L335.8 128.9L341.9 128.9L341.9 128.4L346.1 128.4L346.1 128.2L365.2 128.2L365.2 128.0L385.1 128.0L385.1 112.8L389.6 112.8L389.6 110.2L397.4 110.2L397.4 105.5L399.0 105.5L399.0 105.1L400.3 105.1L400.3 103.8L414.0 103.8L414.0 103.5L440.0 103.5L440.0 89.6L444.5 89.6L444.5 89.3L445.4 89.3L445.4 87.6L450.1 87.6L450.1 85.4L464.6 85.4L464.6 84.4L575.1 84.4L575.1 84.4L850.3 84.4L850.3 75.8L852.7 75.8L852.7 75.7L855.6 75.7L855.6 75.3L856.0 75.3L856.0 74.7L858.6 74.7L858.6 74.7L874.0 74.7L874.0 74.4L895.2 74.4L895.2 73.9L902.3 73.9L902.3 73.6L913.8 73.6L913.8 69.8L918.8 69.8L918.8 69.1L1032.0 69.1" fill="none" stroke="#6675b0" stroke-width="1.6" stroke-dasharray="5 3" opacity="0.75"/><path d="M269.4 155.9L283.0 155.9L283.0 141.8L284.8 141.8L284.8 131.7L286.5 131.7L286.5 130.9L287.2 130.9L287.2 129.5L329.5 129.5L329.5 129.5L335.8 129.5L335.8 128.9L341.9 128.9L341.9 128.4L346.1 128.4L346.1 128.2L365.2 128.2L365.2 128.0L385.1 128.0L385.1 112.8L394.6 112.8L394.6 111.6L397.4 111.6L397.4 105.5L399.0 105.5L399.0 105.1L400.3 105.1L400.3 103.8L414.0 103.8L414.0 103.5L440.0 103.5L440.0 89.6L444.5 89.6L444.5 89.3L445.4 89.3L445.4 87.6L450.1 87.6L450.1 85.4L464.6 85.4L464.6 84.4L575.1 84.4L575.1 84.4L850.3 84.4L850.3 75.8L852.7 75.8L852.7 75.7L855.6 75.7L855.6 75.3L856.0 75.3L856.0 74.7L858.6 74.7L858.6 74.7L874.0 74.7L874.0 74.4L895.2 74.4L895.2 73.9L902.3 73.9L902.3 73.6L913.8 73.6L913.8 73.5L1013.9 73.5L1013.9 73.4L1032.0 73.4" fill="none" stroke="#2b3a7a" stroke-width="2.6"/><path d="M761.0 246.9L767.5 253.4L761.0 259.9L754.5 253.4Z" fill="#c5961a" opacity="1.0" stroke="#ffffff" stroke-width="1.4"/><path d="M898.0 206.5L904.5 213.0L898.0 219.5L891.5 213.0Z" fill="#c5961a" opacity="1.0" stroke="#ffffff" stroke-width="1.4"/><path d="M913.8 67.0L920.3 73.5L913.8 80.0L907.3 73.5Z" fill="#c5961a" opacity="1.0" stroke="#ffffff" stroke-width="1.4"/><path d="M1031.2 240.8L1037.7 247.3L1031.2 253.8L1024.7 247.3Z" fill="#c5961a" opacity="1.0" stroke="#ffffff" stroke-width="1.4"/><path d="M1032.0 238.0L1038.5 244.5L1032.0 251.0L1025.5 244.5Z" fill="#c5961a" opacity="1.0" stroke="#ffffff" stroke-width="1.4"/><text x="1042" y="67.1" font-size="11.5" fill="#6675b0">– – raw best 513.8</text><text x="1042" y="81.1" font-size="10" fill="#8a8fa3">unverified (pending)</text><path d="M1013.9 66.9L1020.4 73.4L1013.9 79.9L1007.4 73.4Z" fill="#2b3a7a" opacity="1.0" stroke="#ffffff" stroke-width="1.4"/><text x="1042" y="101.4" font-size="12.5" fill="#2b3a7a" font-weight="bold">◆ verified 506.9</text><text x="1042" y="117.4" font-size="10.5" fill="#3a3f55">top verified</text><text x="60" y="24" font-size="13" font-weight="bold" fill="#3a3f55" letter-spacing="1.2">SCORE EVOLUTION — gemma-challenge (tok/s)</text><circle cx="452" cy="20" r="3" fill="#b9bdca"/><text x="460" y="24" font-size="10.5" fill="#8a8fa3">all results</text><path d="M544.0 16.4L547.6 20.0L544.0 23.6L540.4 20.0Z" fill="#2b3a7a" opacity="1.0" stroke="none" stroke-width="0"/><text x="552" y="24" font-size="10.5" fill="#8a8fa3">verified</text><path d="M620.0 15.5L624.5 20.0L620.0 24.5L615.5 20.0Z" fill="#c5961a" opacity="1.0" stroke="#fff" stroke-width="1"/><text x="629" y="24" font-size="10.5" fill="#8a8fa3">mikasa-inbound (us)</text></svg>