<svg viewBox="0 0 1200 440" xmlns="http://www.w3.org/2000/svg" font-family="ui-sans-serif,system-ui,-apple-system,sans-serif"><rect x="0" y="0" width="1200" height="440" fill="#ffffff"/><rect x="60" y="46" width="972" height="350" fill="#f3f4fb"/><line x1="60" y1="396.0" x2="1032" y2="396.0" stroke="#e3e5ef" stroke-width="1"/><text x="52" y="400.0" text-anchor="end" font-size="11" fill="#8a8fa3">0</text><line x1="60" y1="332.4" x2="1032" y2="332.4" stroke="#e3e5ef" stroke-width="1"/><text x="52" y="336.4" text-anchor="end" font-size="11" fill="#8a8fa3">100</text><line x1="60" y1="268.7" x2="1032" y2="268.7" stroke="#e3e5ef" stroke-width="1"/><text x="52" y="272.7" text-anchor="end" font-size="11" fill="#8a8fa3">200</text><line x1="60" y1="205.1" x2="1032" y2="205.1" stroke="#e3e5ef" stroke-width="1"/><text x="52" y="209.1" text-anchor="end" font-size="11" fill="#8a8fa3">300</text><line x1="60" y1="141.5" x2="1032" y2="141.5" stroke="#e3e5ef" stroke-width="1"/><text x="52" y="145.5" text-anchor="end" font-size="11" fill="#8a8fa3">400</text><line x1="60" y1="77.8" x2="1032" y2="77.8" stroke="#e3e5ef" stroke-width="1"/><text x="52" y="81.8" text-anchor="end" font-size="11" fill="#8a8fa3">500</text><line x1="156.8" y1="46" x2="156.8" y2="396" stroke="#e3e5ef" stroke-width="1"/><text x="156.8" y="414.0" text-anchor="middle" font-size="11" fill="#8a8fa3">Jun 10</text><line x1="294.9" y1="46" x2="294.9" y2="396" stroke="#e3e5ef" stroke-width="1"/><text x="294.9" y="414.0" text-anchor="middle" font-size="11" fill="#8a8fa3">Jun 12</text><line x1="433.0" y1="46" x2="433.0" y2="396" stroke="#e3e5ef" stroke-width="1"/><text x="433.0" y="414.0" text-anchor="middle" font-size="11" fill="#8a8fa3">Jun 14</text><line x1="571.1" y1="46" x2="571.1" y2="396" stroke="#e3e5ef" stroke-width="1"/><text x="571.1" y="414.0" text-anchor="middle" font-size="11" fill="#8a8fa3">Jun 16</text><line x1="709.2" y1="46" x2="709.2" y2="396" stroke="#e3e5ef" stroke-width="1"/><text x="709.2" y="414.0" text-anchor="middle" font-size="11" fill="#8a8fa3">Jun 18</text><line x1="847.3" y1="46" x2="847.3" y2="396" stroke="#e3e5ef" stroke-width="1"/><text x="847.3" y="414.0" text-anchor="middle" font-size="11" fill="#8a8fa3">Jun 20</text><line x1="985.4" y1="46" x2="985.4" y2="396" stroke="#e3e5ef" stroke-width="1"/><text x="985.4" y="414.0" text-anchor="middle" font-size="11" fill="#8a8fa3">Jun 22</text><circle cx="60.0" cy="335.3" r="2.3" fill="#b9bdca" opacity="0.5"/><circle cx="63.3" cy="335.1" r="2.3" fill="#b9bdca" opacity="0.5"/><circle cx="66.7" cy="368.0" r="2.3" fill="#b9bdca" opacity="0.5"/><circle cx="68.0" cy="320.7" r="2.3" fill="#b9bdca" opacity="0.5"/><circle cx="77.2" cy="319.9" r="2.3" fill="#b9bdca" opacity="0.5"/><circle cx="77.7" cy="320.6" r="2.3" fill="#b9bdca" opacity="0.5"/><circle cx="80.6" cy="315.3" r="2.3" fill="#b9bdca" opacity="0.5"/><circle cx="81.2" cy="319.7" r="2.3" fill="#b9bdca" opacity="0.5"/><circle cx="81.5" cy="314.9" r="2.3" fill="#b9bdca" opacity="0.5"/><circle cx="82.6" cy="315.5" r="2.3" fill="#b9bdca" opacity="0.5"/><circle cx="83.0" cy="314.9" r="2.3" fill="#b9bdca" opacity="0.5"/><circle cx="83.9" cy="315.4" r="2.3" fill="#b9bdca" opacity="0.5"/><circle cx="85.7" cy="315.0" r="2.3" fill="#b9bdca" opacity="0.5"/><circle cx="138.0" cy="238.7" r="2.3" fill="#b9bdca" opacity="0.5"/><circle cx="138.4" cy="315.0" r="2.3" fill="#b9bdca" opacity="0.5"/><circle cx="138.9" cy="229.0" r="2.3" fill="#b9bdca" opacity="0.5"/><circle cx="139.7" cy="222.3" r="2.3" fill="#b9bdca" opacity="0.5"/><circle cx="140.6" cy="228.0" r="2.3" fill="#b9bdca" opacity="0.5"/><circle cx="140.7" cy="223.3" r="2.3" fill="#b9bdca" opacity="0.5"/><circle cx="140.8" cy="220.6" r="2.3" fill="#b9bdca" opacity="0.5"/><circle cx="141.0" cy="220.5" r="2.3" fill="#b9bdca" opacity="0.5"/><circle cx="141.2" cy="223.2" r="2.3" fill="#b9bdca" opacity="0.5"/><circle cx="141.7" cy="214.2" r="2.3" fill="#b9bdca" opacity="0.5"/><circle cx="141.8" cy="222.1" r="2.3" fill="#b9bdca" opacity="0.5"/><circle cx="142.1" cy="220.7" r="2.3" fill="#b9bdca" opacity="0.5"/><circle cx="142.7" cy="218.5" r="2.3" fill="#b9bdca" opacity="0.5"/><circle cx="142.9" cy="215.2" r="2.3" fill="#b9bdca" opacity="0.5"/><circle cx="143.3" cy="214.3" r="2.3" fill="#b9bdca" opacity="0.5"/><circle cx="143.3" cy="219.2" r="2.3" fill="#b9bdca" opacity="0.5"/><circle cx="143.7" cy="214.1" r="2.3" fill="#b9bdca" opacity="0.5"/><circle cx="144.1" cy="215.2" r="2.3" fill="#b9bdca" opacity="0.5"/><circle cx="144.3" cy="213.7" r="2.3" fill="#b9bdca" opacity="0.5"/><circle cx="144.8" cy="213.5" r="2.3" fill="#b9bdca" opacity="0.5"/><circle cx="145.2" cy="214.8" r="2.3" fill="#b9bdca" opacity="0.5"/><circle cx="145.2" cy="217.7" r="2.3" fill="#b9bdca" opacity="0.5"/><circle cx="145.4" cy="212.7" r="2.3" fill="#b9bdca" opacity="0.5"/><circle cx="146.2" cy="213.3" r="2.3" fill="#b9bdca" opacity="0.5"/><circle cx="147.2" cy="212.7" r="2.3" fill="#b9bdca" opacity="0.5"/><circle cx="147.2" cy="213.6" r="2.3" fill="#b9bdca" opacity="0.5"/><circle cx="147.5" cy="213.0" r="2.3" fill="#b9bdca" opacity="0.5"/><circle cx="148.1" cy="212.1" r="2.3" fill="#b9bdca" opacity="0.5"/><circle cx="148.2" cy="213.3" r="2.3" fill="#b9bdca" opacity="0.5"/><circle cx="148.8" cy="212.0" r="2.3" fill="#b9bdca" opacity="0.5"/><circle cx="149.8" cy="212.1" r="2.3" fill="#b9bdca" opacity="0.5"/><circle cx="149.8" cy="212.8" r="2.3" fill="#b9bdca" opacity="0.5"/><circle cx="156.1" cy="206.7" r="2.3" fill="#b9bdca" opacity="0.5"/><circle cx="157.0" cy="206.8" r="2.3" fill="#b9bdca" opacity="0.5"/><circle cx="157.0" cy="212.5" r="2.3" fill="#b9bdca" opacity="0.5"/><circle cx="157.5" cy="207.2" r="2.3" fill="#b9bdca" opacity="0.5"/><circle cx="159.5" cy="207.0" r="2.3" fill="#b9bdca" opacity="0.5"/><circle cx="164.3" cy="204.9" r="2.3" fill="#b9bdca" opacity="0.5"/><circle cx="167.4" cy="204.6" r="2.3" fill="#b9bdca" opacity="0.5"/><circle cx="167.7" cy="212.3" r="2.3" fill="#b9bdca" opacity="0.5"/><circle cx="168.2" cy="204.6" r="2.3" fill="#b9bdca" opacity="0.5"/><circle cx="168.2" cy="204.6" r="2.3" fill="#b9bdca" opacity="0.5"/><circle cx="168.2" cy="204.9" r="2.3" fill="#b9bdca" opacity="0.5"/><circle cx="168.2" cy="204.9" r="2.3" fill="#b9bdca" opacity="0.5"/><circle cx="169.4" cy="201.9" r="2.3" fill="#b9bdca" opacity="0.5"/><circle cx="171.3" cy="206.5" r="2.3" fill="#b9bdca" opacity="0.5"/><circle cx="172.1" cy="205.8" r="2.3" fill="#b9bdca" opacity="0.5"/><circle cx="172.1" cy="335.1" r="2.3" fill="#b9bdca" opacity="0.5"/><circle cx="173.1" cy="201.8" r="2.3" fill="#b9bdca" opacity="0.5"/><circle cx="173.2" cy="202.2" r="2.3" fill="#b9bdca" opacity="0.5"/><circle cx="174.9" cy="201.0" r="2.3" fill="#b9bdca" opacity="0.5"/><circle cx="175.7" cy="203.1" r="2.3" fill="#b9bdca" opacity="0.5"/><circle cx="176.0" cy="200.0" r="2.3" fill="#b9bdca" opacity="0.5"/><circle cx="176.1" cy="204.6" r="2.3" fill="#b9bdca" opacity="0.5"/><circle cx="177.2" cy="202.3" r="2.3" fill="#b9bdca" opacity="0.5"/><circle cx="179.5" cy="200.4" r="2.3" fill="#b9bdca" opacity="0.5"/><circle cx="180.4" cy="200.7" r="2.3" fill="#b9bdca" opacity="0.5"/><circle cx="181.4" cy="200.0" r="2.3" fill="#b9bdca" opacity="0.5"/><circle cx="183.5" cy="199.7" r="2.3" fill="#b9bdca" opacity="0.5"/><circle cx="196.7" cy="200.6" r="2.3" fill="#b9bdca" opacity="0.5"/><circle cx="197.9" cy="201.8" r="2.3" fill="#b9bdca" opacity="0.5"/><circle cx="199.6" cy="208.4" r="2.3" fill="#b9bdca" opacity="0.5"/><circle cx="199.7" cy="200.8" r="2.3" fill="#b9bdca" opacity="0.5"/><circle cx="201.0" cy="200.7" r="2.3" fill="#b9bdca" opacity="0.5"/><circle cx="201.0" cy="201.9" r="2.3" fill="#b9bdca" opacity="0.5"/><circle cx="201.5" cy="195.5" r="2.3" fill="#b9bdca" opacity="0.5"/><circle cx="202.7" cy="196.9" r="2.3" fill="#b9bdca" opacity="0.5"/><circle cx="203.3" cy="197.9" r="2.3" fill="#b9bdca" opacity="0.5"/><circle cx="204.5" cy="196.1" r="2.3" fill="#b9bdca" opacity="0.5"/><circle cx="208.6" cy="197.3" r="2.3" fill="#b9bdca" opacity="0.5"/><circle cx="209.7" cy="195.9" r="2.3" fill="#b9bdca" opacity="0.5"/><circle cx="210.0" cy="201.0" r="2.3" fill="#b9bdca" opacity="0.5"/><circle cx="210.4" cy="197.5" r="2.3" fill="#b9bdca" opacity="0.5"/><circle cx="211.3" cy="196.9" r="2.3" fill="#b9bdca" opacity="0.5"/><circle cx="211.3" cy="197.1" r="2.3" fill="#b9bdca" opacity="0.5"/><circle cx="211.4" cy="197.0" r="2.3" fill="#b9bdca" opacity="0.5"/><circle cx="212.3" cy="196.0" r="2.3" fill="#b9bdca" opacity="0.5"/><circle cx="212.3" cy="196.0" r="2.3" fill="#b9bdca" opacity="0.5"/><circle cx="212.4" cy="197.9" r="2.3" fill="#b9bdca" opacity="0.5"/><circle cx="213.1" cy="197.8" r="2.3" fill="#b9bdca" opacity="0.5"/><circle cx="213.7" cy="196.2" r="2.3" fill="#b9bdca" opacity="0.5"/><circle cx="213.7" cy="197.5" r="2.3" fill="#b9bdca" opacity="0.5"/><circle cx="213.9" cy="196.9" r="2.3" fill="#b9bdca" opacity="0.5"/><circle cx="214.0" cy="195.5" r="2.3" fill="#b9bdca" opacity="0.5"/><circle cx="214.8" cy="198.1" r="2.3" fill="#b9bdca" opacity="0.5"/><circle cx="214.9" cy="187.4" r="2.3" fill="#b9bdca" opacity="0.5"/><circle cx="215.3" cy="186.2" r="2.3" fill="#b9bdca" opacity="0.5"/><circle cx="215.3" cy="196.3" r="2.3" fill="#b9bdca" opacity="0.5"/><circle cx="215.3" cy="197.2" r="2.3" fill="#b9bdca" opacity="0.5"/><circle cx="215.3" cy="197.8" r="2.3" fill="#b9bdca" opacity="0.5"/><circle cx="215.3" cy="368.0" r="2.3" fill="#b9bdca" opacity="0.5"/><circle cx="216.2" cy="184.5" r="2.3" fill="#b9bdca" opacity="0.5"/><circle cx="219.8" cy="184.6" r="2.3" fill="#b9bdca" opacity="0.5"/><circle cx="221.3" cy="185.6" r="2.3" fill="#b9bdca" opacity="0.5"/><circle cx="226.5" cy="188.7" r="2.3" fill="#b9bdca" opacity="0.5"/><circle cx="233.5" cy="185.4" r="2.3" fill="#b9bdca" opacity="0.5"/><circle cx="235.0" cy="185.2" r="2.3" fill="#b9bdca" opacity="0.5"/><circle cx="235.6" cy="186.6" r="2.3" fill="#b9bdca" opacity="0.5"/><circle cx="235.7" cy="185.3" r="2.3" fill="#b9bdca" opacity="0.5"/><circle cx="236.9" cy="185.3" r="2.3" fill="#b9bdca" opacity="0.5"/><circle cx="237.5" cy="185.0" r="2.3" fill="#b9bdca" opacity="0.5"/><circle cx="238.7" cy="184.9" r="2.3" fill="#b9bdca" opacity="0.5"/><circle cx="239.5" cy="185.1" r="2.3" fill="#b9bdca" opacity="0.5"/><circle cx="239.5" cy="185.2" r="2.3" fill="#b9bdca" opacity="0.5"/><circle cx="239.5" cy="186.4" r="2.3" fill="#b9bdca" opacity="0.5"/><circle cx="239.7" cy="183.9" r="2.3" fill="#b9bdca" opacity="0.5"/><circle cx="246.1" cy="184.4" r="2.3" fill="#b9bdca" opacity="0.5"/><circle cx="247.2" cy="184.2" r="2.3" fill="#b9bdca" opacity="0.5"/><circle cx="251.3" cy="169.3" r="2.3" fill="#b9bdca" opacity="0.5"/><circle cx="255.2" cy="168.8" r="2.3" fill="#b9bdca" opacity="0.5"/><circle cx="255.5" cy="167.7" r="2.3" fill="#b9bdca" opacity="0.5"/><circle cx="257.1" cy="201.4" r="2.3" fill="#b9bdca" opacity="0.5"/><circle cx="257.7" cy="165.0" r="2.3" fill="#b9bdca" opacity="0.5"/><circle cx="257.9" cy="198.2" r="2.3" fill="#b9bdca" opacity="0.5"/><circle cx="258.5" cy="163.7" r="2.3" fill="#b9bdca" opacity="0.5"/><circle cx="258.8" cy="163.6" r="2.3" fill="#b9bdca" opacity="0.5"/><circle cx="259.4" cy="165.9" r="2.3" fill="#b9bdca" opacity="0.5"/><circle cx="262.9" cy="165.1" r="2.3" fill="#b9bdca" opacity="0.5"/><circle cx="263.7" cy="155.9" r="2.3" fill="#b9bdca" opacity="0.5"/><circle cx="267.1" cy="196.5" r="2.3" fill="#b9bdca" opacity="0.5"/><circle cx="268.5" cy="157.4" r="2.3" fill="#b9bdca" opacity="0.5"/><circle cx="269.8" cy="155.8" r="2.3" fill="#b9bdca" opacity="0.5"/><circle cx="272.0" cy="141.9" r="2.3" fill="#b9bdca" opacity="0.5"/><circle cx="276.7" cy="156.1" r="2.3" fill="#b9bdca" opacity="0.5"/><circle cx="276.7" cy="156.4" r="2.3" fill="#b9bdca" opacity="0.5"/><circle cx="276.9" cy="141.8" r="2.3" fill="#b9bdca" opacity="0.5"/><circle cx="277.1" cy="196.0" r="2.3" fill="#b9bdca" opacity="0.5"/><circle cx="278.7" cy="131.7" r="2.3" fill="#b9bdca" opacity="0.5"/><circle cx="278.9" cy="134.1" r="2.3" fill="#b9bdca" opacity="0.5"/><circle cx="279.4" cy="141.1" r="2.3" fill="#b9bdca" opacity="0.5"/><circle cx="280.2" cy="134.0" r="2.3" fill="#b9bdca" opacity="0.5"/><circle cx="280.3" cy="130.9" r="2.3" fill="#b9bdca" opacity="0.5"/><circle cx="280.3" cy="154.2" r="2.3" fill="#b9bdca" opacity="0.5"/><circle cx="280.6" cy="133.6" r="2.3" fill="#b9bdca" opacity="0.5"/><circle cx="281.0" cy="129.5" r="2.3" fill="#b9bdca" opacity="0.5"/><circle cx="281.0" cy="130.9" r="2.3" fill="#b9bdca" opacity="0.5"/><circle cx="281.0" cy="133.4" r="2.3" fill="#b9bdca" opacity="0.5"/><circle cx="281.3" cy="131.2" r="2.3" fill="#b9bdca" opacity="0.5"/><circle cx="284.2" cy="189.8" r="2.3" fill="#b9bdca" opacity="0.5"/><circle cx="284.4" cy="133.2" r="2.3" fill="#b9bdca" opacity="0.5"/><circle cx="284.8" cy="133.5" r="2.3" fill="#b9bdca" opacity="0.5"/><circle cx="285.9" cy="130.1" r="2.3" fill="#b9bdca" opacity="0.5"/><circle cx="288.7" cy="130.3" r="2.3" fill="#b9bdca" opacity="0.5"/><circle cx="290.0" cy="303.1" r="2.3" fill="#b9bdca" opacity="0.5"/><circle cx="292.3" cy="133.2" r="2.3" fill="#b9bdca" opacity="0.5"/><circle cx="295.4" cy="144.2" r="2.3" fill="#b9bdca" opacity="0.5"/><circle cx="296.0" cy="135.3" r="2.3" fill="#b9bdca" opacity="0.5"/><circle cx="298.0" cy="133.4" r="2.3" fill="#b9bdca" opacity="0.5"/><circle cx="298.2" cy="159.9" r="2.3" fill="#b9bdca" opacity="0.5"/><circle cx="298.7" cy="130.8" r="2.3" fill="#b9bdca" opacity="0.5"/><circle cx="299.4" cy="133.2" r="2.3" fill="#b9bdca" opacity="0.5"/><circle cx="306.4" cy="130.9" r="2.3" fill="#b9bdca" opacity="0.5"/><circle cx="307.2" cy="130.9" r="2.3" fill="#b9bdca" opacity="0.5"/><circle cx="307.2" cy="133.8" r="2.3" fill="#b9bdca" opacity="0.5"/><circle cx="308.3" cy="130.4" r="2.3" fill="#b9bdca" opacity="0.5"/><circle cx="309.1" cy="153.7" r="2.3" fill="#b9bdca" opacity="0.5"/><circle cx="310.4" cy="133.3" r="2.3" fill="#b9bdca" opacity="0.5"/><circle cx="312.6" cy="156.5" r="2.3" fill="#b9bdca" opacity="0.5"/><circle cx="313.0" cy="132.3" r="2.3" fill="#b9bdca" opacity="0.5"/><circle cx="315.5" cy="147.2" r="2.3" fill="#b9bdca" opacity="0.5"/><circle cx="316.0" cy="133.6" r="2.3" fill="#b9bdca" opacity="0.5"/><circle cx="316.9" cy="129.5" r="2.3" fill="#b9bdca" opacity="0.5"/><circle cx="316.9" cy="133.3" r="2.3" fill="#b9bdca" opacity="0.5"/><circle cx="320.0" cy="133.3" r="2.3" fill="#b9bdca" opacity="0.5"/><circle cx="322.1" cy="129.5" r="2.3" fill="#b9bdca" opacity="0.5"/><circle cx="325.7" cy="130.6" r="2.3" fill="#b9bdca" opacity="0.5"/><circle cx="328.3" cy="128.9" r="2.3" fill="#b9bdca" opacity="0.5"/><circle cx="328.8" cy="132.7" r="2.3" fill="#b9bdca" opacity="0.5"/><circle cx="328.8" cy="133.1" r="2.3" fill="#b9bdca" opacity="0.5"/><circle cx="332.8" cy="129.8" r="2.3" fill="#b9bdca" opacity="0.5"/><circle cx="333.9" cy="333.8" r="2.3" fill="#b9bdca" opacity="0.5"/><circle cx="334.2" cy="128.4" r="2.3" fill="#b9bdca" opacity="0.5"/><circle cx="336.0" cy="129.8" r="2.3" fill="#b9bdca" opacity="0.5"/><circle cx="336.7" cy="128.9" r="2.3" fill="#b9bdca" opacity="0.5"/><circle cx="336.9" cy="128.9" r="2.3" fill="#b9bdca" opacity="0.5"/><circle cx="338.3" cy="128.2" r="2.3" fill="#b9bdca" opacity="0.5"/><circle cx="339.3" cy="129.7" r="2.3" fill="#b9bdca" opacity="0.5"/><circle cx="339.6" cy="142.3" r="2.3" fill="#b9bdca" opacity="0.5"/><circle cx="343.4" cy="128.8" r="2.3" fill="#b9bdca" opacity="0.5"/><circle cx="345.6" cy="161.1" r="2.3" fill="#b9bdca" opacity="0.5"/><circle cx="349.8" cy="164.4" r="2.3" fill="#b9bdca" opacity="0.5"/><circle cx="350.2" cy="248.3" r="2.3" fill="#b9bdca" opacity="0.5"/><circle cx="356.3" cy="135.4" r="2.3" fill="#b9bdca" opacity="0.5"/><circle cx="356.8" cy="128.0" r="2.3" fill="#b9bdca" opacity="0.5"/><circle cx="358.7" cy="229.0" r="2.3" fill="#b9bdca" opacity="0.5"/><circle cx="362.9" cy="128.1" r="2.3" fill="#b9bdca" opacity="0.5"/><circle cx="364.0" cy="128.6" r="2.3" fill="#b9bdca" opacity="0.5"/><circle cx="368.0" cy="128.8" r="2.3" fill="#b9bdca" opacity="0.5"/><circle cx="368.0" cy="129.6" r="2.3" fill="#b9bdca" opacity="0.5"/><circle cx="368.0" cy="130.9" r="2.3" fill="#b9bdca" opacity="0.5"/><circle cx="376.2" cy="112.8" r="2.3" fill="#b9bdca" opacity="0.5"/><circle cx="380.6" cy="110.2" r="2.3" fill="#b9bdca" opacity="0.5"/><circle cx="380.7" cy="111.6" r="2.3" fill="#b9bdca" opacity="0.5"/><circle cx="383.4" cy="111.0" r="2.3" fill="#b9bdca" opacity="0.5"/><circle cx="384.7" cy="335.1" r="2.3" fill="#b9bdca" opacity="0.5"/><circle cx="385.4" cy="111.6" r="2.3" fill="#b9bdca" opacity="0.5"/><circle cx="388.1" cy="105.5" r="2.3" fill="#b9bdca" opacity="0.5"/><circle cx="388.6" cy="108.5" r="2.3" fill="#b9bdca" opacity="0.5"/><circle cx="389.7" cy="105.1" r="2.3" fill="#b9bdca" opacity="0.5"/><circle cx="391.0" cy="103.8" r="2.3" fill="#b9bdca" opacity="0.5"/><circle cx="392.4" cy="125.8" r="2.3" fill="#b9bdca" opacity="0.5"/><circle cx="404.3" cy="103.5" r="2.3" fill="#b9bdca" opacity="0.5"/><circle cx="407.4" cy="127.8" r="2.3" fill="#b9bdca" opacity="0.5"/><circle cx="408.8" cy="334.3" r="2.3" fill="#b9bdca" opacity="0.5"/><circle cx="410.6" cy="128.6" r="2.3" fill="#b9bdca" opacity="0.5"/><circle cx="411.5" cy="128.6" r="2.3" fill="#b9bdca" opacity="0.5"/><circle cx="411.7" cy="128.6" r="2.3" fill="#b9bdca" opacity="0.5"/><circle cx="412.7" cy="256.6" r="2.3" fill="#b9bdca" opacity="0.5"/><circle cx="414.1" cy="254.6" r="2.3" fill="#b9bdca" opacity="0.5"/><circle cx="416.3" cy="128.6" r="2.3" fill="#b9bdca" opacity="0.5"/><circle cx="421.8" cy="250.1" r="2.3" fill="#b9bdca" opacity="0.5"/><circle cx="422.3" cy="161.4" r="2.3" fill="#b9bdca" opacity="0.5"/><circle cx="422.9" cy="206.6" r="2.3" fill="#b9bdca" opacity="0.5"/><circle cx="427.9" cy="113.5" r="2.3" fill="#b9bdca" opacity="0.5"/><circle cx="429.6" cy="89.6" r="2.3" fill="#b9bdca" opacity="0.5"/><circle cx="430.9" cy="90.2" r="2.3" fill="#b9bdca" opacity="0.5"/><circle cx="434.0" cy="89.3" r="2.3" fill="#b9bdca" opacity="0.5"/><circle cx="434.9" cy="87.6" r="2.3" fill="#b9bdca" opacity="0.5"/><circle cx="435.9" cy="185.0" r="2.3" fill="#b9bdca" opacity="0.5"/><circle cx="437.1" cy="131.6" r="2.3" fill="#b9bdca" opacity="0.5"/><circle cx="438.0" cy="87.8" r="2.3" fill="#b9bdca" opacity="0.5"/><circle cx="439.4" cy="85.4" r="2.3" fill="#b9bdca" opacity="0.5"/><circle cx="441.7" cy="86.8" r="2.3" fill="#b9bdca" opacity="0.5"/><circle cx="444.0" cy="88.4" r="2.3" fill="#b9bdca" opacity="0.5"/><circle cx="453.5" cy="89.5" r="2.3" fill="#b9bdca" opacity="0.5"/><circle cx="453.5" cy="155.6" r="2.3" fill="#b9bdca" opacity="0.5"/><circle cx="453.5" cy="84.4" r="2.3" fill="#b9bdca" opacity="0.5"/><circle cx="464.8" cy="89.2" r="2.3" fill="#b9bdca" opacity="0.5"/><circle cx="465.0" cy="90.5" r="2.3" fill="#b9bdca" opacity="0.5"/><circle cx="468.2" cy="87.7" r="2.3" fill="#b9bdca" opacity="0.5"/><circle cx="469.3" cy="367.9" r="2.3" fill="#b9bdca" opacity="0.5"/><circle cx="473.9" cy="164.3" r="2.3" fill="#b9bdca" opacity="0.5"/><circle cx="476.1" cy="94.6" r="2.3" fill="#b9bdca" opacity="0.5"/><circle cx="477.0" cy="89.6" r="2.3" fill="#b9bdca" opacity="0.5"/><circle cx="486.8" cy="124.6" r="2.3" fill="#b9bdca" opacity="0.5"/><circle cx="497.2" cy="146.2" r="2.3" fill="#b9bdca" opacity="0.5"/><circle cx="497.5" cy="90.5" r="2.3" fill="#b9bdca" opacity="0.5"/><circle cx="498.4" cy="87.7" r="2.3" fill="#b9bdca" opacity="0.5"/><circle cx="499.0" cy="87.7" r="2.3" fill="#b9bdca" opacity="0.5"/><circle cx="499.0" cy="89.6" r="2.3" fill="#b9bdca" opacity="0.5"/><circle cx="506.4" cy="93.0" r="2.3" fill="#b9bdca" opacity="0.5"/><circle cx="509.0" cy="85.5" r="2.3" fill="#b9bdca" opacity="0.5"/><circle cx="530.9" cy="334.8" r="2.3" fill="#b9bdca" opacity="0.5"/><circle cx="533.4" cy="86.3" r="2.3" fill="#b9bdca" opacity="0.5"/><circle cx="540.8" cy="85.5" r="2.3" fill="#b9bdca" opacity="0.5"/><circle cx="542.1" cy="84.6" r="2.3" fill="#b9bdca" opacity="0.5"/><circle cx="545.1" cy="87.8" r="2.3" fill="#b9bdca" opacity="0.5"/><circle cx="546.4" cy="84.4" r="2.3" fill="#b9bdca" opacity="0.5"/><circle cx="547.1" cy="84.8" r="2.3" fill="#b9bdca" opacity="0.5"/><circle cx="549.3" cy="87.4" r="2.3" fill="#b9bdca" opacity="0.5"/><circle cx="561.0" cy="84.4" r="2.3" fill="#b9bdca" opacity="0.5"/><circle cx="612.6" cy="89.3" r="2.3" fill="#b9bdca" opacity="0.5"/><circle cx="621.9" cy="88.6" r="2.3" fill="#b9bdca" opacity="0.5"/><circle cx="621.9" cy="92.1" r="2.3" fill="#b9bdca" opacity="0.5"/><circle cx="623.9" cy="156.8" r="2.3" fill="#b9bdca" opacity="0.5"/><circle cx="653.6" cy="201.6" r="2.3" fill="#b9bdca" opacity="0.5"/><circle cx="675.3" cy="315.6" r="2.3" fill="#b9bdca" opacity="0.5"/><circle cx="734.7" cy="87.7" r="2.3" fill="#b9bdca" opacity="0.5"/><circle cx="752.7" cy="87.6" r="2.3" fill="#b9bdca" opacity="0.5"/><circle cx="768.6" cy="87.2" r="2.3" fill="#b9bdca" opacity="0.5"/><circle cx="772.3" cy="88.8" r="2.3" fill="#b9bdca" opacity="0.5"/><circle cx="773.7" cy="89.2" r="2.3" fill="#b9bdca" opacity="0.5"/><circle cx="774.5" cy="90.9" r="2.3" fill="#b9bdca" opacity="0.5"/><circle cx="779.0" cy="87.7" r="2.3" fill="#b9bdca" opacity="0.5"/><circle cx="795.1" cy="88.6" r="2.3" fill="#b9bdca" opacity="0.5"/><circle cx="797.2" cy="89.7" r="2.3" fill="#b9bdca" opacity="0.5"/><circle cx="798.6" cy="88.2" r="2.3" fill="#b9bdca" opacity="0.5"/><circle cx="828.7" cy="75.8" r="2.3" fill="#b9bdca" opacity="0.5"/><circle cx="831.0" cy="75.7" r="2.3" fill="#b9bdca" opacity="0.5"/><circle cx="832.8" cy="76.7" r="2.3" fill="#b9bdca" opacity="0.5"/><circle cx="832.9" cy="75.8" r="2.3" fill="#b9bdca" opacity="0.5"/><circle cx="833.8" cy="75.3" r="2.3" fill="#b9bdca" opacity="0.5"/><circle cx="834.3" cy="74.7" r="2.3" fill="#b9bdca" opacity="0.5"/><circle cx="834.6" cy="83.4" r="2.3" fill="#b9bdca" opacity="0.5"/><circle cx="835.3" cy="76.2" r="2.3" fill="#b9bdca" opacity="0.5"/><circle cx="836.0" cy="78.1" r="2.3" fill="#b9bdca" opacity="0.5"/><circle cx="836.7" cy="74.7" r="2.3" fill="#b9bdca" opacity="0.5"/><circle cx="841.7" cy="89.3" r="2.3" fill="#b9bdca" opacity="0.5"/><circle cx="851.8" cy="74.4" r="2.3" fill="#b9bdca" opacity="0.5"/><circle cx="867.8" cy="74.4" r="2.3" fill="#b9bdca" opacity="0.5"/><circle cx="870.4" cy="335.1" r="2.3" fill="#b9bdca" opacity="0.5"/><circle cx="870.4" cy="81.7" r="2.3" fill="#b9bdca" opacity="0.5"/><circle cx="872.3" cy="74.6" r="2.3" fill="#b9bdca" opacity="0.5"/><circle cx="872.3" cy="82.1" r="2.3" fill="#b9bdca" opacity="0.5"/><circle cx="872.4" cy="73.9" r="2.3" fill="#b9bdca" opacity="0.5"/><circle cx="876.9" cy="76.2" r="2.3" fill="#b9bdca" opacity="0.5"/><circle cx="877.6" cy="82.1" r="2.3" fill="#b9bdca" opacity="0.5"/><circle cx="878.3" cy="74.2" r="2.3" fill="#b9bdca" opacity="0.5"/><circle cx="878.4" cy="75.0" r="2.3" fill="#b9bdca" opacity="0.5"/><circle cx="879.3" cy="73.6" r="2.3" fill="#b9bdca" opacity="0.5"/><circle cx="879.4" cy="83.3" r="2.3" fill="#b9bdca" opacity="0.5"/><circle cx="879.4" cy="83.8" r="2.3" fill="#b9bdca" opacity="0.5"/><circle cx="879.4" cy="78.1" r="2.3" fill="#b9bdca" opacity="0.5"/><circle cx="879.4" cy="81.5" r="2.3" fill="#b9bdca" opacity="0.5"/><circle cx="879.4" cy="83.0" r="2.3" fill="#b9bdca" opacity="0.5"/><circle cx="879.4" cy="83.7" r="2.3" fill="#b9bdca" opacity="0.5"/><circle cx="885.7" cy="82.7" r="2.3" fill="#b9bdca" opacity="0.5"/><circle cx="887.1" cy="77.8" r="2.3" fill="#b9bdca" opacity="0.5"/><circle cx="890.4" cy="69.8" r="2.3" fill="#b9bdca" opacity="0.5"/><circle cx="891.5" cy="75.9" r="2.3" fill="#b9bdca" opacity="0.5"/><circle cx="892.0" cy="74.3" r="2.3" fill="#b9bdca" opacity="0.5"/><circle cx="892.0" cy="77.4" r="2.3" fill="#b9bdca" opacity="0.5"/><circle cx="892.0" cy="80.6" r="2.3" fill="#b9bdca" opacity="0.5"/><circle cx="892.0" cy="81.8" r="2.3" fill="#b9bdca" opacity="0.5"/><circle cx="894.3" cy="76.9" r="2.3" fill="#b9bdca" opacity="0.5"/><circle cx="894.3" cy="82.8" r="2.3" fill="#b9bdca" opacity="0.5"/><circle cx="894.3" cy="83.0" r="2.3" fill="#b9bdca" opacity="0.5"/><circle cx="894.3" cy="83.1" r="2.3" fill="#b9bdca" opacity="0.5"/><circle cx="895.3" cy="69.1" r="2.3" fill="#b9bdca" opacity="0.5"/><circle cx="897.9" cy="75.5" r="2.3" fill="#b9bdca" opacity="0.5"/><circle cx="899.4" cy="74.3" r="2.3" fill="#b9bdca" opacity="0.5"/><circle cx="939.8" cy="74.0" r="2.3" fill="#b9bdca" opacity="0.5"/><circle cx="987.8" cy="73.4" r="2.3" fill="#b9bdca" opacity="0.5"/><circle cx="988.3" cy="75.9" r="2.3" fill="#b9bdca" opacity="0.5"/><circle cx="988.3" cy="76.3" r="2.3" fill="#b9bdca" opacity="0.5"/><circle cx="988.7" cy="76.0" r="2.3" fill="#b9bdca" opacity="0.5"/><circle cx="988.7" cy="76.8" r="2.3" fill="#b9bdca" opacity="0.5"/><circle cx="988.7" cy="81.2" r="2.3" fill="#b9bdca" opacity="0.5"/><circle cx="988.7" cy="83.4" r="2.3" fill="#b9bdca" opacity="0.5"/><circle cx="1022.6" cy="76.6" r="2.3" fill="#b9bdca" opacity="0.5"/><circle cx="1024.9" cy="76.7" r="2.3" fill="#b9bdca" opacity="0.5"/><circle cx="1024.9" cy="82.8" r="2.3" fill="#b9bdca" opacity="0.5"/><circle cx="1024.9" cy="82.8" r="2.3" fill="#b9bdca" opacity="0.5"/><circle cx="1024.9" cy="83.3" r="2.3" fill="#b9bdca" opacity="0.5"/><circle cx="1032.0" cy="233.4" r="2.3" fill="#b9bdca" opacity="0.5"/><path d="M263.7 152.3L267.3 155.9L263.7 159.5L260.1 155.9Z" fill="#2b3a7a" opacity="0.8" stroke="none" stroke-width="0"/><path d="M276.9 138.2L280.5 141.8L276.9 145.4L273.3 141.8Z" fill="#2b3a7a" opacity="0.8" stroke="none" stroke-width="0"/><path d="M278.7 128.1L282.3 131.7L278.7 135.3L275.1 131.7Z" fill="#2b3a7a" opacity="0.8" stroke="none" stroke-width="0"/><path d="M278.9 130.5L282.5 134.1L278.9 137.7L275.3 134.1Z" fill="#2b3a7a" opacity="0.8" stroke="none" stroke-width="0"/><path d="M280.3 127.3L283.9 130.9L280.3 134.5L276.7 130.9Z" fill="#2b3a7a" opacity="0.8" stroke="none" stroke-width="0"/><path d="M281.0 125.9L284.6 129.5L281.0 133.1L277.4 129.5Z" fill="#2b3a7a" opacity="0.8" stroke="none" stroke-width="0"/><path d="M281.0 127.3L284.6 130.9L281.0 134.5L277.4 130.9Z" fill="#2b3a7a" opacity="0.8" stroke="none" stroke-width="0"/><path d="M322.1 125.9L325.7 129.5L322.1 133.1L318.5 129.5Z" fill="#2b3a7a" opacity="0.8" stroke="none" stroke-width="0"/><path d="M328.3 125.3L331.9 128.9L328.3 132.5L324.7 128.9Z" fill="#2b3a7a" opacity="0.8" stroke="none" stroke-width="0"/><path d="M334.2 124.8L337.8 128.4L334.2 132.0L330.6 128.4Z" fill="#2b3a7a" opacity="0.8" stroke="none" stroke-width="0"/><path d="M338.3 124.6L341.9 128.2L338.3 131.8L334.7 128.2Z" fill="#2b3a7a" opacity="0.8" stroke="none" stroke-width="0"/><path d="M356.8 124.4L360.4 128.0L356.8 131.6L353.2 128.0Z" fill="#2b3a7a" opacity="0.8" stroke="none" stroke-width="0"/><path d="M376.2 109.2L379.8 112.8L376.2 116.4L372.6 112.8Z" fill="#2b3a7a" opacity="0.8" stroke="none" stroke-width="0"/><path d="M385.4 108.0L389.0 111.6L385.4 115.2L381.8 111.6Z" fill="#2b3a7a" opacity="0.8" stroke="none" stroke-width="0"/><path d="M388.1 101.9L391.7 105.5L388.1 109.1L384.5 105.5Z" fill="#2b3a7a" opacity="0.8" stroke="none" stroke-width="0"/><path d="M388.6 104.9L392.2 108.5L388.6 112.1L385.0 108.5Z" fill="#2b3a7a" opacity="0.8" stroke="none" stroke-width="0"/><path d="M389.7 101.5L393.3 105.1L389.7 108.7L386.1 105.1Z" fill="#2b3a7a" opacity="0.8" stroke="none" stroke-width="0"/><path d="M391.0 100.2L394.6 103.8L391.0 107.4L387.4 103.8Z" fill="#2b3a7a" opacity="0.8" stroke="none" stroke-width="0"/><path d="M404.3 99.9L407.9 103.5L404.3 107.1L400.7 103.5Z" fill="#2b3a7a" opacity="0.8" stroke="none" stroke-width="0"/><path d="M429.6 86.0L433.2 89.6L429.6 93.2L426.0 89.6Z" fill="#2b3a7a" opacity="0.8" stroke="none" stroke-width="0"/><path d="M434.0 85.7L437.6 89.3L434.0 92.9L430.4 89.3Z" fill="#2b3a7a" opacity="0.8" stroke="none" stroke-width="0"/><path d="M434.9 84.0L438.5 87.6L434.9 91.2L431.3 87.6Z" fill="#2b3a7a" opacity="0.8" stroke="none" stroke-width="0"/><path d="M439.4 81.8L443.0 85.4L439.4 89.0L435.8 85.4Z" fill="#2b3a7a" opacity="0.8" stroke="none" stroke-width="0"/><path d="M453.5 80.8L457.1 84.4L453.5 88.0L449.9 84.4Z" fill="#2b3a7a" opacity="0.8" stroke="none" stroke-width="0"/><path d="M561.0 80.8L564.6 84.4L561.0 88.0L557.4 84.4Z" fill="#2b3a7a" opacity="0.8" stroke="none" stroke-width="0"/><path d="M828.7 72.2L832.3 75.8L828.7 79.4L825.1 75.8Z" fill="#2b3a7a" opacity="0.8" stroke="none" stroke-width="0"/><path d="M831.0 72.1L834.6 75.7L831.0 79.3L827.4 75.7Z" fill="#2b3a7a" opacity="0.8" stroke="none" stroke-width="0"/><path d="M833.8 71.7L837.4 75.3L833.8 78.9L830.2 75.3Z" fill="#2b3a7a" opacity="0.8" stroke="none" stroke-width="0"/><path d="M834.3 71.1L837.9 74.7L834.3 78.3L830.7 74.7Z" fill="#2b3a7a" opacity="0.8" stroke="none" stroke-width="0"/><path d="M836.7 71.1L840.3 74.7L836.7 78.3L833.1 74.7Z" fill="#2b3a7a" opacity="0.8" stroke="none" stroke-width="0"/><path d="M851.8 70.8L855.4 74.4L851.8 78.0L848.2 74.4Z" fill="#2b3a7a" opacity="0.8" stroke="none" stroke-width="0"/><path d="M872.4 70.3L876.0 73.9L872.4 77.5L868.8 73.9Z" fill="#2b3a7a" opacity="0.8" stroke="none" stroke-width="0"/><path d="M879.3 70.0L882.9 73.6L879.3 77.2L875.7 73.6Z" fill="#2b3a7a" opacity="0.8" stroke="none" stroke-width="0"/><path d="M987.8 69.8L991.4 73.4L987.8 77.0L984.2 73.4Z" fill="#2b3a7a" opacity="0.8" stroke="none" stroke-width="0"/><path d="M60.0 335.3L63.3 335.3L63.3 335.1L68.0 335.1L68.0 320.7L77.2 320.7L77.2 319.9L80.6 319.9L80.6 315.3L81.5 315.3L81.5 314.9L83.0 314.9L83.0 314.9L138.0 314.9L138.0 238.7L138.9 238.7L138.9 229.0L139.7 229.0L139.7 222.3L140.8 222.3L140.8 220.6L141.0 220.6L141.0 220.5L141.7 220.5L141.7 214.2L143.7 214.2L143.7 214.1L144.3 214.1L144.3 213.7L144.8 213.7L144.8 213.5L145.4 213.5L145.4 212.7L148.1 212.7L148.1 212.1L148.8 212.1L148.8 212.0L156.1 212.0L156.1 206.7L164.3 206.7L164.3 204.9L167.4 204.9L167.4 204.6L169.4 204.6L169.4 201.9L173.1 201.9L173.1 201.8L174.9 201.8L174.9 201.0L176.0 201.0L176.0 200.0L181.4 200.0L181.4 200.0L183.5 200.0L183.5 199.7L201.5 199.7L201.5 195.5L214.9 195.5L214.9 187.4L215.3 187.4L215.3 186.2L216.2 186.2L216.2 184.5L239.7 184.5L239.7 183.9L251.3 183.9L251.3 169.3L255.2 169.3L255.2 168.8L255.5 168.8L255.5 167.7L257.7 167.7L257.7 165.0L258.5 165.0L258.5 163.7L258.8 163.7L258.8 163.6L263.7 163.6L263.7 155.9L269.8 155.9L269.8 155.8L272.0 155.8L272.0 141.9L276.9 141.9L276.9 141.8L278.7 141.8L278.7 131.7L280.3 131.7L280.3 130.9L281.0 130.9L281.0 129.5L322.1 129.5L322.1 129.5L328.3 129.5L328.3 128.9L334.2 128.9L334.2 128.4L338.3 128.4L338.3 128.2L356.8 128.2L356.8 128.0L376.2 128.0L376.2 112.8L380.6 112.8L380.6 110.2L388.1 110.2L388.1 105.5L389.7 105.5L389.7 105.1L391.0 105.1L391.0 103.8L404.3 103.8L404.3 103.5L429.6 103.5L429.6 89.6L434.0 89.6L434.0 89.3L434.9 89.3L434.9 87.6L439.4 87.6L439.4 85.4L453.5 85.4L453.5 84.4L561.0 84.4L561.0 84.4L828.7 84.4L828.7 75.8L831.0 75.8L831.0 75.7L833.8 75.7L833.8 75.3L834.3 75.3L834.3 74.7L836.7 74.7L836.7 74.7L851.8 74.7L851.8 74.4L872.4 74.4L872.4 73.9L879.3 73.9L879.3 73.6L890.4 73.6L890.4 69.8L895.3 69.8L895.3 69.1L1032.0 69.1" fill="none" stroke="#6675b0" stroke-width="1.6" stroke-dasharray="5 3" opacity="0.75"/><path d="M263.7 155.9L276.9 155.9L276.9 141.8L278.7 141.8L278.7 131.7L280.3 131.7L280.3 130.9L281.0 130.9L281.0 129.5L322.1 129.5L322.1 129.5L328.3 129.5L328.3 128.9L334.2 128.9L334.2 128.4L338.3 128.4L338.3 128.2L356.8 128.2L356.8 128.0L376.2 128.0L376.2 112.8L385.4 112.8L385.4 111.6L388.1 111.6L388.1 105.5L389.7 105.5L389.7 105.1L391.0 105.1L391.0 103.8L404.3 103.8L404.3 103.5L429.6 103.5L429.6 89.6L434.0 89.6L434.0 89.3L434.9 89.3L434.9 87.6L439.4 87.6L439.4 85.4L453.5 85.4L453.5 84.4L561.0 84.4L561.0 84.4L828.7 84.4L828.7 75.8L831.0 75.8L831.0 75.7L833.8 75.7L833.8 75.3L834.3 75.3L834.3 74.7L836.7 74.7L836.7 74.7L851.8 74.7L851.8 74.4L872.4 74.4L872.4 73.9L879.3 73.9L879.3 73.6L890.5 73.6L890.5 73.5L987.8 73.5L987.8 73.4L1032.0 73.4" fill="none" stroke="#2b3a7a" stroke-width="2.6"/><path d="M741.9 246.9L748.4 253.4L741.9 259.9L735.4 253.4Z" fill="#c5961a" opacity="1.0" stroke="#ffffff" stroke-width="1.4"/><path d="M875.1 206.5L881.6 213.0L875.1 219.5L868.6 213.0Z" fill="#c5961a" opacity="1.0" stroke="#ffffff" stroke-width="1.4"/><path d="M890.5 67.0L897.0 73.5L890.5 80.0L884.0 73.5Z" fill="#c5961a" opacity="1.0" stroke="#ffffff" stroke-width="1.4"/><path d="M1004.6 240.8L1011.1 247.3L1004.6 253.8L998.1 247.3Z" fill="#c5961a" opacity="1.0" stroke="#ffffff" stroke-width="1.4"/><path d="M1005.4 238.0L1011.9 244.5L1005.4 251.0L998.9 244.5Z" fill="#c5961a" opacity="1.0" stroke="#ffffff" stroke-width="1.4"/><text x="1042" y="67.1" font-size="11.5" fill="#6675b0">– – raw best 513.8</text><text x="1042" y="81.1" font-size="10" fill="#8a8fa3">unverified (pending)</text><path d="M987.8 66.9L994.3 73.4L987.8 79.9L981.3 73.4Z" fill="#2b3a7a" opacity="1.0" stroke="#ffffff" stroke-width="1.4"/><text x="1042" y="101.4" font-size="12.5" fill="#2b3a7a" font-weight="bold">◆ verified 506.9</text><text x="1042" y="117.4" font-size="10.5" fill="#3a3f55">top verified</text><text x="60" y="24" font-size="13" font-weight="bold" fill="#3a3f55" letter-spacing="1.2">SCORE EVOLUTION — gemma-challenge (tok/s)</text><circle cx="452" cy="20" r="3" fill="#b9bdca"/><text x="460" y="24" font-size="10.5" fill="#8a8fa3">all results</text><path d="M544.0 16.4L547.6 20.0L544.0 23.6L540.4 20.0Z" fill="#2b3a7a" opacity="1.0" stroke="none" stroke-width="0"/><text x="552" y="24" font-size="10.5" fill="#8a8fa3">verified</text><path d="M620.0 15.5L624.5 20.0L620.0 24.5L615.5 20.0Z" fill="#c5961a" opacity="1.0" stroke="#fff" stroke-width="1"/><text x="629" y="24" font-size="10.5" fill="#8a8fa3">mikasa-inbound (us)</text></svg>