<svg viewBox="0 0 1200 440" xmlns="http://www.w3.org/2000/svg" font-family="ui-sans-serif,system-ui,-apple-system,sans-serif"><rect x="0" y="0" width="1200" height="440" fill="#ffffff"/><rect x="60" y="46" width="972" height="350" fill="#f3f4fb"/><line x1="60" y1="396.0" x2="1032" y2="396.0" stroke="#e3e5ef" stroke-width="1"/><text x="52" y="400.0" text-anchor="end" font-size="11" fill="#8a8fa3">0</text><line x1="60" y1="332.4" x2="1032" y2="332.4" stroke="#e3e5ef" stroke-width="1"/><text x="52" y="336.4" text-anchor="end" font-size="11" fill="#8a8fa3">100</text><line x1="60" y1="268.7" x2="1032" y2="268.7" stroke="#e3e5ef" stroke-width="1"/><text x="52" y="272.7" text-anchor="end" font-size="11" fill="#8a8fa3">200</text><line x1="60" y1="205.1" x2="1032" y2="205.1" stroke="#e3e5ef" stroke-width="1"/><text x="52" y="209.1" text-anchor="end" font-size="11" fill="#8a8fa3">300</text><line x1="60" y1="141.5" x2="1032" y2="141.5" stroke="#e3e5ef" stroke-width="1"/><text x="52" y="145.5" text-anchor="end" font-size="11" fill="#8a8fa3">400</text><line x1="60" y1="77.8" x2="1032" y2="77.8" stroke="#e3e5ef" stroke-width="1"/><text x="52" y="81.8" text-anchor="end" font-size="11" fill="#8a8fa3">500</text><line x1="116.1" y1="46" x2="116.1" y2="396" stroke="#e3e5ef" stroke-width="1"/><text x="116.1" y="414.0" text-anchor="middle" font-size="11" fill="#8a8fa3">Jun 10</text><line x1="196.1" y1="46" x2="196.1" y2="396" stroke="#e3e5ef" stroke-width="1"/><text x="196.1" y="414.0" text-anchor="middle" font-size="11" fill="#8a8fa3">Jun 12</text><line x1="276.1" y1="46" x2="276.1" y2="396" stroke="#e3e5ef" stroke-width="1"/><text x="276.1" y="414.0" text-anchor="middle" font-size="11" fill="#8a8fa3">Jun 14</text><line x1="356.2" y1="46" x2="356.2" y2="396" stroke="#e3e5ef" stroke-width="1"/><text x="356.2" y="414.0" text-anchor="middle" font-size="11" fill="#8a8fa3">Jun 16</text><line x1="436.2" y1="46" x2="436.2" y2="396" stroke="#e3e5ef" stroke-width="1"/><text x="436.2" y="414.0" text-anchor="middle" font-size="11" fill="#8a8fa3">Jun 18</text><line x1="516.2" y1="46" x2="516.2" y2="396" stroke="#e3e5ef" stroke-width="1"/><text x="516.2" y="414.0" text-anchor="middle" font-size="11" fill="#8a8fa3">Jun 20</text><line x1="596.2" y1="46" x2="596.2" y2="396" stroke="#e3e5ef" stroke-width="1"/><text x="596.2" y="414.0" text-anchor="middle" font-size="11" fill="#8a8fa3">Jun 22</text><line x1="676.2" y1="46" x2="676.2" y2="396" stroke="#e3e5ef" stroke-width="1"/><text x="676.2" y="414.0" text-anchor="middle" font-size="11" fill="#8a8fa3">Jun 24</text><line x1="756.2" y1="46" x2="756.2" y2="396" stroke="#e3e5ef" stroke-width="1"/><text x="756.2" y="414.0" text-anchor="middle" font-size="11" fill="#8a8fa3">Jun 26</text><line x1="836.3" y1="46" x2="836.3" y2="396" stroke="#e3e5ef" stroke-width="1"/><text x="836.3" y="414.0" text-anchor="middle" font-size="11" fill="#8a8fa3">Jun 28</text><line x1="916.3" y1="46" x2="916.3" y2="396" stroke="#e3e5ef" stroke-width="1"/><text x="916.3" y="414.0" text-anchor="middle" font-size="11" fill="#8a8fa3">Jun 30</text><line x1="996.3" y1="46" x2="996.3" y2="396" stroke="#e3e5ef" stroke-width="1"/><text x="996.3" y="414.0" text-anchor="middle" font-size="11" fill="#8a8fa3">Jul 2</text><circle cx="60.0" cy="335.3" r="2.3" fill="#b9bdca" opacity="0.5"/><circle cx="61.9" cy="335.1" r="2.3" fill="#b9bdca" opacity="0.5"/><circle cx="63.9" cy="368.0" r="2.3" fill="#b9bdca" opacity="0.5"/><circle cx="64.6" cy="320.7" r="2.3" fill="#b9bdca" opacity="0.5"/><circle cx="69.9" cy="319.9" r="2.3" fill="#b9bdca" opacity="0.5"/><circle cx="70.3" cy="320.6" r="2.3" fill="#b9bdca" opacity="0.5"/><circle cx="71.9" cy="315.3" r="2.3" fill="#b9bdca" opacity="0.5"/><circle cx="72.3" cy="319.7" r="2.3" fill="#b9bdca" opacity="0.5"/><circle cx="72.5" cy="314.9" r="2.3" fill="#b9bdca" opacity="0.5"/><circle cx="73.1" cy="315.5" r="2.3" fill="#b9bdca" opacity="0.5"/><circle cx="73.3" cy="314.9" r="2.3" fill="#b9bdca" opacity="0.5"/><circle cx="73.9" cy="315.4" r="2.3" fill="#b9bdca" opacity="0.5"/><circle cx="74.9" cy="315.0" r="2.3" fill="#b9bdca" opacity="0.5"/><circle cx="105.2" cy="238.7" r="2.3" fill="#b9bdca" opacity="0.5"/><circle cx="105.4" cy="315.0" r="2.3" fill="#b9bdca" opacity="0.5"/><circle cx="105.7" cy="229.0" r="2.3" fill="#b9bdca" opacity="0.5"/><circle cx="106.2" cy="222.3" r="2.3" fill="#b9bdca" opacity="0.5"/><circle cx="106.7" cy="228.0" r="2.3" fill="#b9bdca" opacity="0.5"/><circle cx="106.8" cy="223.3" r="2.3" fill="#b9bdca" opacity="0.5"/><circle cx="106.8" cy="220.6" r="2.3" fill="#b9bdca" opacity="0.5"/><circle cx="107.0" cy="220.5" r="2.3" fill="#b9bdca" opacity="0.5"/><circle cx="107.1" cy="223.2" r="2.3" fill="#b9bdca" opacity="0.5"/><circle cx="107.3" cy="214.2" r="2.3" fill="#b9bdca" opacity="0.5"/><circle cx="107.4" cy="222.1" r="2.3" fill="#b9bdca" opacity="0.5"/><circle cx="107.6" cy="220.7" r="2.3" fill="#b9bdca" opacity="0.5"/><circle cx="107.9" cy="218.5" r="2.3" fill="#b9bdca" opacity="0.5"/><circle cx="108.0" cy="215.2" r="2.3" fill="#b9bdca" opacity="0.5"/><circle cx="108.3" cy="214.3" r="2.3" fill="#b9bdca" opacity="0.5"/><circle cx="108.3" cy="219.2" r="2.3" fill="#b9bdca" opacity="0.5"/><circle cx="108.5" cy="214.1" r="2.3" fill="#b9bdca" opacity="0.5"/><circle cx="108.7" cy="215.2" r="2.3" fill="#b9bdca" opacity="0.5"/><circle cx="108.9" cy="213.7" r="2.3" fill="#b9bdca" opacity="0.5"/><circle cx="109.1" cy="213.5" r="2.3" fill="#b9bdca" opacity="0.5"/><circle cx="109.3" cy="214.8" r="2.3" fill="#b9bdca" opacity="0.5"/><circle cx="109.3" cy="217.7" r="2.3" fill="#b9bdca" opacity="0.5"/><circle cx="109.5" cy="212.7" r="2.3" fill="#b9bdca" opacity="0.5"/><circle cx="110.0" cy="213.3" r="2.3" fill="#b9bdca" opacity="0.5"/><circle cx="110.5" cy="212.7" r="2.3" fill="#b9bdca" opacity="0.5"/><circle cx="110.5" cy="213.6" r="2.3" fill="#b9bdca" opacity="0.5"/><circle cx="110.7" cy="213.0" r="2.3" fill="#b9bdca" opacity="0.5"/><circle cx="111.0" cy="212.1" r="2.3" fill="#b9bdca" opacity="0.5"/><circle cx="111.1" cy="213.3" r="2.3" fill="#b9bdca" opacity="0.5"/><circle cx="111.5" cy="212.0" r="2.3" fill="#b9bdca" opacity="0.5"/><circle cx="112.0" cy="212.1" r="2.3" fill="#b9bdca" opacity="0.5"/><circle cx="112.0" cy="212.8" r="2.3" fill="#b9bdca" opacity="0.5"/><circle cx="115.7" cy="206.7" r="2.3" fill="#b9bdca" opacity="0.5"/><circle cx="116.2" cy="206.8" r="2.3" fill="#b9bdca" opacity="0.5"/><circle cx="116.2" cy="212.5" r="2.3" fill="#b9bdca" opacity="0.5"/><circle cx="116.5" cy="207.2" r="2.3" fill="#b9bdca" opacity="0.5"/><circle cx="117.7" cy="207.0" r="2.3" fill="#b9bdca" opacity="0.5"/><circle cx="120.5" cy="204.9" r="2.3" fill="#b9bdca" opacity="0.5"/><circle cx="122.2" cy="204.6" r="2.3" fill="#b9bdca" opacity="0.5"/><circle cx="122.4" cy="212.3" r="2.3" fill="#b9bdca" opacity="0.5"/><circle cx="122.7" cy="204.6" r="2.3" fill="#b9bdca" opacity="0.5"/><circle cx="122.7" cy="204.6" r="2.3" fill="#b9bdca" opacity="0.5"/><circle cx="122.7" cy="204.9" r="2.3" fill="#b9bdca" opacity="0.5"/><circle cx="122.7" cy="204.9" r="2.3" fill="#b9bdca" opacity="0.5"/><circle cx="123.4" cy="201.9" r="2.3" fill="#b9bdca" opacity="0.5"/><circle cx="124.5" cy="206.5" r="2.3" fill="#b9bdca" opacity="0.5"/><circle cx="125.0" cy="205.8" r="2.3" fill="#b9bdca" opacity="0.5"/><circle cx="125.0" cy="335.1" r="2.3" fill="#b9bdca" opacity="0.5"/><circle cx="125.5" cy="201.8" r="2.3" fill="#b9bdca" opacity="0.5"/><circle cx="125.6" cy="202.2" r="2.3" fill="#b9bdca" opacity="0.5"/><circle cx="126.6" cy="201.0" r="2.3" fill="#b9bdca" opacity="0.5"/><circle cx="127.0" cy="203.1" r="2.3" fill="#b9bdca" opacity="0.5"/><circle cx="127.2" cy="200.0" r="2.3" fill="#b9bdca" opacity="0.5"/><circle cx="127.3" cy="204.6" r="2.3" fill="#b9bdca" opacity="0.5"/><circle cx="127.9" cy="202.3" r="2.3" fill="#b9bdca" opacity="0.5"/><circle cx="129.3" cy="200.4" r="2.3" fill="#b9bdca" opacity="0.5"/><circle cx="129.8" cy="200.7" r="2.3" fill="#b9bdca" opacity="0.5"/><circle cx="130.3" cy="200.0" r="2.3" fill="#b9bdca" opacity="0.5"/><circle cx="131.6" cy="199.7" r="2.3" fill="#b9bdca" opacity="0.5"/><circle cx="139.2" cy="200.6" r="2.3" fill="#b9bdca" opacity="0.5"/><circle cx="139.9" cy="201.8" r="2.3" fill="#b9bdca" opacity="0.5"/><circle cx="140.9" cy="208.4" r="2.3" fill="#b9bdca" opacity="0.5"/><circle cx="141.0" cy="200.8" r="2.3" fill="#b9bdca" opacity="0.5"/><circle cx="141.7" cy="200.7" r="2.3" fill="#b9bdca" opacity="0.5"/><circle cx="141.7" cy="201.9" r="2.3" fill="#b9bdca" opacity="0.5"/><circle cx="142.0" cy="195.5" r="2.3" fill="#b9bdca" opacity="0.5"/><circle cx="142.7" cy="196.9" r="2.3" fill="#b9bdca" opacity="0.5"/><circle cx="143.0" cy="197.9" r="2.3" fill="#b9bdca" opacity="0.5"/><circle cx="143.7" cy="196.1" r="2.3" fill="#b9bdca" opacity="0.5"/><circle cx="146.1" cy="197.3" r="2.3" fill="#b9bdca" opacity="0.5"/><circle cx="146.7" cy="195.9" r="2.3" fill="#b9bdca" opacity="0.5"/><circle cx="146.9" cy="201.0" r="2.3" fill="#b9bdca" opacity="0.5"/><circle cx="147.1" cy="197.5" r="2.3" fill="#b9bdca" opacity="0.5"/><circle cx="147.7" cy="196.9" r="2.3" fill="#b9bdca" opacity="0.5"/><circle cx="147.7" cy="197.1" r="2.3" fill="#b9bdca" opacity="0.5"/><circle cx="147.7" cy="197.0" r="2.3" fill="#b9bdca" opacity="0.5"/><circle cx="148.3" cy="196.0" r="2.3" fill="#b9bdca" opacity="0.5"/><circle cx="148.3" cy="196.0" r="2.3" fill="#b9bdca" opacity="0.5"/><circle cx="148.3" cy="197.9" r="2.3" fill="#b9bdca" opacity="0.5"/><circle cx="148.7" cy="197.8" r="2.3" fill="#b9bdca" opacity="0.5"/><circle cx="149.0" cy="196.2" r="2.3" fill="#b9bdca" opacity="0.5"/><circle cx="149.1" cy="197.5" r="2.3" fill="#b9bdca" opacity="0.5"/><circle cx="149.2" cy="196.9" r="2.3" fill="#b9bdca" opacity="0.5"/><circle cx="149.2" cy="195.5" r="2.3" fill="#b9bdca" opacity="0.5"/><circle cx="149.7" cy="198.1" r="2.3" fill="#b9bdca" opacity="0.5"/><circle cx="149.8" cy="187.4" r="2.3" fill="#b9bdca" opacity="0.5"/><circle cx="150.0" cy="186.2" r="2.3" fill="#b9bdca" opacity="0.5"/><circle cx="150.0" cy="196.3" r="2.3" fill="#b9bdca" opacity="0.5"/><circle cx="150.0" cy="197.2" r="2.3" fill="#b9bdca" opacity="0.5"/><circle cx="150.0" cy="197.8" r="2.3" fill="#b9bdca" opacity="0.5"/><circle cx="150.0" cy="368.0" r="2.3" fill="#b9bdca" opacity="0.5"/><circle cx="150.5" cy="184.5" r="2.3" fill="#b9bdca" opacity="0.5"/><circle cx="152.6" cy="184.6" r="2.3" fill="#b9bdca" opacity="0.5"/><circle cx="153.5" cy="185.6" r="2.3" fill="#b9bdca" opacity="0.5"/><circle cx="156.5" cy="188.7" r="2.3" fill="#b9bdca" opacity="0.5"/><circle cx="160.5" cy="185.4" r="2.3" fill="#b9bdca" opacity="0.5"/><circle cx="161.4" cy="185.2" r="2.3" fill="#b9bdca" opacity="0.5"/><circle cx="161.7" cy="186.6" r="2.3" fill="#b9bdca" opacity="0.5"/><circle cx="161.8" cy="185.3" r="2.3" fill="#b9bdca" opacity="0.5"/><circle cx="162.5" cy="185.3" r="2.3" fill="#b9bdca" opacity="0.5"/><circle cx="162.9" cy="185.0" r="2.3" fill="#b9bdca" opacity="0.5"/><circle cx="163.6" cy="184.9" r="2.3" fill="#b9bdca" opacity="0.5"/><circle cx="164.0" cy="185.1" r="2.3" fill="#b9bdca" opacity="0.5"/><circle cx="164.0" cy="185.2" r="2.3" fill="#b9bdca" opacity="0.5"/><circle cx="164.0" cy="186.4" r="2.3" fill="#b9bdca" opacity="0.5"/><circle cx="164.1" cy="183.9" r="2.3" fill="#b9bdca" opacity="0.5"/><circle cx="167.8" cy="184.4" r="2.3" fill="#b9bdca" opacity="0.5"/><circle cx="168.5" cy="184.2" r="2.3" fill="#b9bdca" opacity="0.5"/><circle cx="170.8" cy="169.3" r="2.3" fill="#b9bdca" opacity="0.5"/><circle cx="173.1" cy="168.8" r="2.3" fill="#b9bdca" opacity="0.5"/><circle cx="173.2" cy="167.7" r="2.3" fill="#b9bdca" opacity="0.5"/><circle cx="174.2" cy="201.4" r="2.3" fill="#b9bdca" opacity="0.5"/><circle cx="174.5" cy="165.0" r="2.3" fill="#b9bdca" opacity="0.5"/><circle cx="174.7" cy="198.2" r="2.3" fill="#b9bdca" opacity="0.5"/><circle cx="175.0" cy="163.7" r="2.3" fill="#b9bdca" opacity="0.5"/><circle cx="175.2" cy="163.6" r="2.3" fill="#b9bdca" opacity="0.5"/><circle cx="175.6" cy="165.9" r="2.3" fill="#b9bdca" opacity="0.5"/><circle cx="177.6" cy="165.1" r="2.3" fill="#b9bdca" opacity="0.5"/><circle cx="178.0" cy="155.9" r="2.3" fill="#b9bdca" opacity="0.5"/><circle cx="180.0" cy="196.5" r="2.3" fill="#b9bdca" opacity="0.5"/><circle cx="180.8" cy="157.4" r="2.3" fill="#b9bdca" opacity="0.5"/><circle cx="181.6" cy="155.8" r="2.3" fill="#b9bdca" opacity="0.5"/><circle cx="182.9" cy="141.9" r="2.3" fill="#b9bdca" opacity="0.5"/><circle cx="185.5" cy="156.1" r="2.3" fill="#b9bdca" opacity="0.5"/><circle cx="185.5" cy="156.4" r="2.3" fill="#b9bdca" opacity="0.5"/><circle cx="185.7" cy="141.8" r="2.3" fill="#b9bdca" opacity="0.5"/><circle cx="185.8" cy="196.0" r="2.3" fill="#b9bdca" opacity="0.5"/><circle cx="186.7" cy="131.7" r="2.3" fill="#b9bdca" opacity="0.5"/><circle cx="186.8" cy="134.1" r="2.3" fill="#b9bdca" opacity="0.5"/><circle cx="187.1" cy="141.1" r="2.3" fill="#b9bdca" opacity="0.5"/><circle cx="187.6" cy="134.0" r="2.3" fill="#b9bdca" opacity="0.5"/><circle cx="187.6" cy="130.9" r="2.3" fill="#b9bdca" opacity="0.5"/><circle cx="187.6" cy="154.2" r="2.3" fill="#b9bdca" opacity="0.5"/><circle cx="187.8" cy="133.6" r="2.3" fill="#b9bdca" opacity="0.5"/><circle cx="188.0" cy="129.5" r="2.3" fill="#b9bdca" opacity="0.5"/><circle cx="188.1" cy="130.9" r="2.3" fill="#b9bdca" opacity="0.5"/><circle cx="188.1" cy="133.4" r="2.3" fill="#b9bdca" opacity="0.5"/><circle cx="188.3" cy="131.2" r="2.3" fill="#b9bdca" opacity="0.5"/><circle cx="189.9" cy="189.8" r="2.3" fill="#b9bdca" opacity="0.5"/><circle cx="190.0" cy="133.2" r="2.3" fill="#b9bdca" opacity="0.5"/><circle cx="190.3" cy="133.5" r="2.3" fill="#b9bdca" opacity="0.5"/><circle cx="190.9" cy="130.1" r="2.3" fill="#b9bdca" opacity="0.5"/><circle cx="192.5" cy="130.3" r="2.3" fill="#b9bdca" opacity="0.5"/><circle cx="193.3" cy="303.1" r="2.3" fill="#b9bdca" opacity="0.5"/><circle cx="194.6" cy="133.2" r="2.3" fill="#b9bdca" opacity="0.5"/><circle cx="196.4" cy="144.2" r="2.3" fill="#b9bdca" opacity="0.5"/><circle cx="196.8" cy="135.3" r="2.3" fill="#b9bdca" opacity="0.5"/><circle cx="197.9" cy="133.4" r="2.3" fill="#b9bdca" opacity="0.5"/><circle cx="198.0" cy="159.9" r="2.3" fill="#b9bdca" opacity="0.5"/><circle cx="198.3" cy="130.8" r="2.3" fill="#b9bdca" opacity="0.5"/><circle cx="198.7" cy="133.2" r="2.3" fill="#b9bdca" opacity="0.5"/><circle cx="202.8" cy="130.9" r="2.3" fill="#b9bdca" opacity="0.5"/><circle cx="203.2" cy="130.9" r="2.3" fill="#b9bdca" opacity="0.5"/><circle cx="203.2" cy="133.8" r="2.3" fill="#b9bdca" opacity="0.5"/><circle cx="203.9" cy="130.4" r="2.3" fill="#b9bdca" opacity="0.5"/><circle cx="204.3" cy="153.7" r="2.3" fill="#b9bdca" opacity="0.5"/><circle cx="205.1" cy="133.3" r="2.3" fill="#b9bdca" opacity="0.5"/><circle cx="206.3" cy="156.5" r="2.3" fill="#b9bdca" opacity="0.5"/><circle cx="206.6" cy="132.3" r="2.3" fill="#b9bdca" opacity="0.5"/><circle cx="208.1" cy="147.2" r="2.3" fill="#b9bdca" opacity="0.5"/><circle cx="208.3" cy="133.6" r="2.3" fill="#b9bdca" opacity="0.5"/><circle cx="208.9" cy="129.5" r="2.3" fill="#b9bdca" opacity="0.5"/><circle cx="208.9" cy="133.3" r="2.3" fill="#b9bdca" opacity="0.5"/><circle cx="210.7" cy="133.3" r="2.3" fill="#b9bdca" opacity="0.5"/><circle cx="211.9" cy="129.5" r="2.3" fill="#b9bdca" opacity="0.5"/><circle cx="213.9" cy="130.6" r="2.3" fill="#b9bdca" opacity="0.5"/><circle cx="215.5" cy="128.9" r="2.3" fill="#b9bdca" opacity="0.5"/><circle cx="215.8" cy="132.7" r="2.3" fill="#b9bdca" opacity="0.5"/><circle cx="215.8" cy="133.1" r="2.3" fill="#b9bdca" opacity="0.5"/><circle cx="218.1" cy="129.8" r="2.3" fill="#b9bdca" opacity="0.5"/><circle cx="218.7" cy="333.8" r="2.3" fill="#b9bdca" opacity="0.5"/><circle cx="218.9" cy="128.4" r="2.3" fill="#b9bdca" opacity="0.5"/><circle cx="219.9" cy="129.8" r="2.3" fill="#b9bdca" opacity="0.5"/><circle cx="220.3" cy="128.9" r="2.3" fill="#b9bdca" opacity="0.5"/><circle cx="220.5" cy="128.9" r="2.3" fill="#b9bdca" opacity="0.5"/><circle cx="221.2" cy="128.2" r="2.3" fill="#b9bdca" opacity="0.5"/><circle cx="221.8" cy="129.7" r="2.3" fill="#b9bdca" opacity="0.5"/><circle cx="222.0" cy="142.3" r="2.3" fill="#b9bdca" opacity="0.5"/><circle cx="224.2" cy="128.8" r="2.3" fill="#b9bdca" opacity="0.5"/><circle cx="225.5" cy="161.1" r="2.3" fill="#b9bdca" opacity="0.5"/><circle cx="227.9" cy="164.4" r="2.3" fill="#b9bdca" opacity="0.5"/><circle cx="228.1" cy="248.3" r="2.3" fill="#b9bdca" opacity="0.5"/><circle cx="231.7" cy="135.4" r="2.3" fill="#b9bdca" opacity="0.5"/><circle cx="232.0" cy="128.0" r="2.3" fill="#b9bdca" opacity="0.5"/><circle cx="233.1" cy="229.0" r="2.3" fill="#b9bdca" opacity="0.5"/><circle cx="235.5" cy="128.1" r="2.3" fill="#b9bdca" opacity="0.5"/><circle cx="236.2" cy="128.6" r="2.3" fill="#b9bdca" opacity="0.5"/><circle cx="238.4" cy="128.8" r="2.3" fill="#b9bdca" opacity="0.5"/><circle cx="238.4" cy="129.6" r="2.3" fill="#b9bdca" opacity="0.5"/><circle cx="238.4" cy="130.9" r="2.3" fill="#b9bdca" opacity="0.5"/><circle cx="243.2" cy="112.8" r="2.3" fill="#b9bdca" opacity="0.5"/><circle cx="245.7" cy="110.2" r="2.3" fill="#b9bdca" opacity="0.5"/><circle cx="245.8" cy="111.6" r="2.3" fill="#b9bdca" opacity="0.5"/><circle cx="247.4" cy="111.0" r="2.3" fill="#b9bdca" opacity="0.5"/><circle cx="248.2" cy="335.1" r="2.3" fill="#b9bdca" opacity="0.5"/><circle cx="248.5" cy="111.6" r="2.3" fill="#b9bdca" opacity="0.5"/><circle cx="250.1" cy="105.5" r="2.3" fill="#b9bdca" opacity="0.5"/><circle cx="250.4" cy="108.5" r="2.3" fill="#b9bdca" opacity="0.5"/><circle cx="251.0" cy="105.1" r="2.3" fill="#b9bdca" opacity="0.5"/><circle cx="251.8" cy="103.8" r="2.3" fill="#b9bdca" opacity="0.5"/><circle cx="252.6" cy="125.8" r="2.3" fill="#b9bdca" opacity="0.5"/><circle cx="259.5" cy="103.5" r="2.3" fill="#b9bdca" opacity="0.5"/><circle cx="261.3" cy="127.8" r="2.3" fill="#b9bdca" opacity="0.5"/><circle cx="262.1" cy="334.3" r="2.3" fill="#b9bdca" opacity="0.5"/><circle cx="263.2" cy="128.6" r="2.3" fill="#b9bdca" opacity="0.5"/><circle cx="263.7" cy="128.6" r="2.3" fill="#b9bdca" opacity="0.5"/><circle cx="263.8" cy="128.6" r="2.3" fill="#b9bdca" opacity="0.5"/><circle cx="264.4" cy="256.6" r="2.3" fill="#b9bdca" opacity="0.5"/><circle cx="265.2" cy="254.6" r="2.3" fill="#b9bdca" opacity="0.5"/><circle cx="266.5" cy="128.6" r="2.3" fill="#b9bdca" opacity="0.5"/><circle cx="269.6" cy="250.1" r="2.3" fill="#b9bdca" opacity="0.5"/><circle cx="269.9" cy="161.4" r="2.3" fill="#b9bdca" opacity="0.5"/><circle cx="270.2" cy="206.6" r="2.3" fill="#b9bdca" opacity="0.5"/><circle cx="273.2" cy="113.5" r="2.3" fill="#b9bdca" opacity="0.5"/><circle cx="274.2" cy="89.6" r="2.3" fill="#b9bdca" opacity="0.5"/><circle cx="274.9" cy="90.2" r="2.3" fill="#b9bdca" opacity="0.5"/><circle cx="276.7" cy="89.3" r="2.3" fill="#b9bdca" opacity="0.5"/><circle cx="277.2" cy="87.6" r="2.3" fill="#b9bdca" opacity="0.5"/><circle cx="277.8" cy="185.0" r="2.3" fill="#b9bdca" opacity="0.5"/><circle cx="278.5" cy="131.6" r="2.3" fill="#b9bdca" opacity="0.5"/><circle cx="279.0" cy="87.8" r="2.3" fill="#b9bdca" opacity="0.5"/><circle cx="279.8" cy="85.4" r="2.3" fill="#b9bdca" opacity="0.5"/><circle cx="281.1" cy="86.8" r="2.3" fill="#b9bdca" opacity="0.5"/><circle cx="282.5" cy="88.4" r="2.3" fill="#b9bdca" opacity="0.5"/><circle cx="288.0" cy="89.5" r="2.3" fill="#b9bdca" opacity="0.5"/><circle cx="288.0" cy="155.6" r="2.3" fill="#b9bdca" opacity="0.5"/><circle cx="288.0" cy="84.4" r="2.3" fill="#b9bdca" opacity="0.5"/><circle cx="294.6" cy="89.2" r="2.3" fill="#b9bdca" opacity="0.5"/><circle cx="294.7" cy="90.5" r="2.3" fill="#b9bdca" opacity="0.5"/><circle cx="296.5" cy="87.7" r="2.3" fill="#b9bdca" opacity="0.5"/><circle cx="297.1" cy="367.9" r="2.3" fill="#b9bdca" opacity="0.5"/><circle cx="299.8" cy="164.3" r="2.3" fill="#b9bdca" opacity="0.5"/><circle cx="301.1" cy="94.6" r="2.3" fill="#b9bdca" opacity="0.5"/><circle cx="301.6" cy="89.6" r="2.3" fill="#b9bdca" opacity="0.5"/><circle cx="307.3" cy="124.6" r="2.3" fill="#b9bdca" opacity="0.5"/><circle cx="313.3" cy="146.2" r="2.3" fill="#b9bdca" opacity="0.5"/><circle cx="313.5" cy="90.5" r="2.3" fill="#b9bdca" opacity="0.5"/><circle cx="314.0" cy="87.7" r="2.3" fill="#b9bdca" opacity="0.5"/><circle cx="314.3" cy="87.7" r="2.3" fill="#b9bdca" opacity="0.5"/><circle cx="314.4" cy="89.6" r="2.3" fill="#b9bdca" opacity="0.5"/><circle cx="318.6" cy="93.0" r="2.3" fill="#b9bdca" opacity="0.5"/><circle cx="320.2" cy="85.5" r="2.3" fill="#b9bdca" opacity="0.5"/><circle cx="332.8" cy="334.8" r="2.3" fill="#b9bdca" opacity="0.5"/><circle cx="334.3" cy="86.3" r="2.3" fill="#b9bdca" opacity="0.5"/><circle cx="338.6" cy="85.5" r="2.3" fill="#b9bdca" opacity="0.5"/><circle cx="339.3" cy="84.6" r="2.3" fill="#b9bdca" opacity="0.5"/><circle cx="341.1" cy="87.8" r="2.3" fill="#b9bdca" opacity="0.5"/><circle cx="341.8" cy="84.4" r="2.3" fill="#b9bdca" opacity="0.5"/><circle cx="342.2" cy="84.8" r="2.3" fill="#b9bdca" opacity="0.5"/><circle cx="343.5" cy="87.4" r="2.3" fill="#b9bdca" opacity="0.5"/><circle cx="350.3" cy="84.4" r="2.3" fill="#b9bdca" opacity="0.5"/><circle cx="380.2" cy="89.3" r="2.3" fill="#b9bdca" opacity="0.5"/><circle cx="385.5" cy="88.6" r="2.3" fill="#b9bdca" opacity="0.5"/><circle cx="385.5" cy="92.1" r="2.3" fill="#b9bdca" opacity="0.5"/><circle cx="386.7" cy="156.8" r="2.3" fill="#b9bdca" opacity="0.5"/><circle cx="403.9" cy="201.6" r="2.3" fill="#b9bdca" opacity="0.5"/><circle cx="416.5" cy="315.6" r="2.3" fill="#b9bdca" opacity="0.5"/><circle cx="450.9" cy="87.7" r="2.3" fill="#b9bdca" opacity="0.5"/><circle cx="461.3" cy="87.6" r="2.3" fill="#b9bdca" opacity="0.5"/><circle cx="470.6" cy="87.2" r="2.3" fill="#b9bdca" opacity="0.5"/><circle cx="472.7" cy="88.8" r="2.3" fill="#b9bdca" opacity="0.5"/><circle cx="473.5" cy="89.2" r="2.3" fill="#b9bdca" opacity="0.5"/><circle cx="474.0" cy="90.9" r="2.3" fill="#b9bdca" opacity="0.5"/><circle cx="476.6" cy="87.7" r="2.3" fill="#b9bdca" opacity="0.5"/><circle cx="485.9" cy="88.6" r="2.3" fill="#b9bdca" opacity="0.5"/><circle cx="487.1" cy="89.7" r="2.3" fill="#b9bdca" opacity="0.5"/><circle cx="487.9" cy="88.2" r="2.3" fill="#b9bdca" opacity="0.5"/><circle cx="505.4" cy="75.8" r="2.3" fill="#b9bdca" opacity="0.5"/><circle cx="506.7" cy="75.7" r="2.3" fill="#b9bdca" opacity="0.5"/><circle cx="507.7" cy="76.7" r="2.3" fill="#b9bdca" opacity="0.5"/><circle cx="507.8" cy="75.8" r="2.3" fill="#b9bdca" opacity="0.5"/><circle cx="508.4" cy="75.3" r="2.3" fill="#b9bdca" opacity="0.5"/><circle cx="508.6" cy="74.7" r="2.3" fill="#b9bdca" opacity="0.5"/><circle cx="508.8" cy="83.4" r="2.3" fill="#b9bdca" opacity="0.5"/><circle cx="509.2" cy="76.2" r="2.3" fill="#b9bdca" opacity="0.5"/><circle cx="509.6" cy="78.1" r="2.3" fill="#b9bdca" opacity="0.5"/><circle cx="510.0" cy="74.7" r="2.3" fill="#b9bdca" opacity="0.5"/><circle cx="512.9" cy="89.3" r="2.3" fill="#b9bdca" opacity="0.5"/><circle cx="518.8" cy="74.4" r="2.3" fill="#b9bdca" opacity="0.5"/><circle cx="528.0" cy="74.4" r="2.3" fill="#b9bdca" opacity="0.5"/><circle cx="529.5" cy="335.1" r="2.3" fill="#b9bdca" opacity="0.5"/><circle cx="529.6" cy="81.7" r="2.3" fill="#b9bdca" opacity="0.5"/><circle cx="530.7" cy="74.6" r="2.3" fill="#b9bdca" opacity="0.5"/><circle cx="530.7" cy="82.1" r="2.3" fill="#b9bdca" opacity="0.5"/><circle cx="530.7" cy="73.9" r="2.3" fill="#b9bdca" opacity="0.5"/><circle cx="533.3" cy="76.2" r="2.3" fill="#b9bdca" opacity="0.5"/><circle cx="533.7" cy="82.1" r="2.3" fill="#b9bdca" opacity="0.5"/><circle cx="534.1" cy="74.2" r="2.3" fill="#b9bdca" opacity="0.5"/><circle cx="534.2" cy="75.0" r="2.3" fill="#b9bdca" opacity="0.5"/><circle cx="534.7" cy="73.6" r="2.3" fill="#b9bdca" opacity="0.5"/><circle cx="534.7" cy="83.3" r="2.3" fill="#b9bdca" opacity="0.5"/><circle cx="534.7" cy="83.8" r="2.3" fill="#b9bdca" opacity="0.5"/><circle cx="534.8" cy="78.1" r="2.3" fill="#b9bdca" opacity="0.5"/><circle cx="534.8" cy="81.5" r="2.3" fill="#b9bdca" opacity="0.5"/><circle cx="534.8" cy="83.0" r="2.3" fill="#b9bdca" opacity="0.5"/><circle cx="534.8" cy="83.7" r="2.3" fill="#b9bdca" opacity="0.5"/><circle cx="538.4" cy="82.7" r="2.3" fill="#b9bdca" opacity="0.5"/><circle cx="539.2" cy="77.8" r="2.3" fill="#b9bdca" opacity="0.5"/><circle cx="541.2" cy="69.8" r="2.3" fill="#b9bdca" opacity="0.5"/><circle cx="541.8" cy="75.9" r="2.3" fill="#b9bdca" opacity="0.5"/><circle cx="542.1" cy="74.3" r="2.3" fill="#b9bdca" opacity="0.5"/><circle cx="542.1" cy="77.4" r="2.3" fill="#b9bdca" opacity="0.5"/><circle cx="542.1" cy="80.6" r="2.3" fill="#b9bdca" opacity="0.5"/><circle cx="542.1" cy="81.8" r="2.3" fill="#b9bdca" opacity="0.5"/><circle cx="543.4" cy="76.9" r="2.3" fill="#b9bdca" opacity="0.5"/><circle cx="543.4" cy="82.8" r="2.3" fill="#b9bdca" opacity="0.5"/><circle cx="543.4" cy="83.0" r="2.3" fill="#b9bdca" opacity="0.5"/><circle cx="543.4" cy="83.1" r="2.3" fill="#b9bdca" opacity="0.5"/><circle cx="544.0" cy="69.1" r="2.3" fill="#b9bdca" opacity="0.5"/><circle cx="545.5" cy="75.5" r="2.3" fill="#b9bdca" opacity="0.5"/><circle cx="546.3" cy="74.3" r="2.3" fill="#b9bdca" opacity="0.5"/><circle cx="569.8" cy="74.0" r="2.3" fill="#b9bdca" opacity="0.5"/><circle cx="597.6" cy="73.4" r="2.3" fill="#b9bdca" opacity="0.5"/><circle cx="597.8" cy="75.9" r="2.3" fill="#b9bdca" opacity="0.5"/><circle cx="597.8" cy="76.3" r="2.3" fill="#b9bdca" opacity="0.5"/><circle cx="598.1" cy="76.0" r="2.3" fill="#b9bdca" opacity="0.5"/><circle cx="598.1" cy="76.8" r="2.3" fill="#b9bdca" opacity="0.5"/><circle cx="598.1" cy="81.2" r="2.3" fill="#b9bdca" opacity="0.5"/><circle cx="598.1" cy="83.4" r="2.3" fill="#b9bdca" opacity="0.5"/><circle cx="617.7" cy="76.6" r="2.3" fill="#b9bdca" opacity="0.5"/><circle cx="619.1" cy="76.7" r="2.3" fill="#b9bdca" opacity="0.5"/><circle cx="619.1" cy="82.8" r="2.3" fill="#b9bdca" opacity="0.5"/><circle cx="619.1" cy="82.8" r="2.3" fill="#b9bdca" opacity="0.5"/><circle cx="619.1" cy="83.3" r="2.3" fill="#b9bdca" opacity="0.5"/><circle cx="623.2" cy="233.4" r="2.3" fill="#b9bdca" opacity="0.5"/><circle cx="624.4" cy="228.9" r="2.3" fill="#b9bdca" opacity="0.5"/><circle cx="625.6" cy="198.3" r="2.3" fill="#b9bdca" opacity="0.5"/><circle cx="651.2" cy="73.4" r="2.3" fill="#b9bdca" opacity="0.5"/><circle cx="658.4" cy="192.4" r="2.3" fill="#b9bdca" opacity="0.5"/><circle cx="660.9" cy="75.3" r="2.3" fill="#b9bdca" opacity="0.5"/><circle cx="661.6" cy="74.0" r="2.3" fill="#b9bdca" opacity="0.5"/><circle cx="663.1" cy="194.4" r="2.3" fill="#b9bdca" opacity="0.5"/><circle cx="665.6" cy="168.6" r="2.3" fill="#b9bdca" opacity="0.5"/><circle cx="667.2" cy="77.1" r="2.3" fill="#b9bdca" opacity="0.5"/><circle cx="667.2" cy="99.5" r="2.3" fill="#b9bdca" opacity="0.5"/><circle cx="686.9" cy="71.4" r="2.3" fill="#b9bdca" opacity="0.5"/><circle cx="686.9" cy="73.5" r="2.3" fill="#b9bdca" opacity="0.5"/><circle cx="694.0" cy="72.4" r="2.3" fill="#b9bdca" opacity="0.5"/><circle cx="722.8" cy="83.0" r="2.3" fill="#b9bdca" opacity="0.5"/><circle cx="723.2" cy="72.1" r="2.3" fill="#b9bdca" opacity="0.5"/><circle cx="723.6" cy="71.6" r="2.3" fill="#b9bdca" opacity="0.5"/><circle cx="724.5" cy="75.5" r="2.3" fill="#b9bdca" opacity="0.5"/><circle cx="725.0" cy="73.7" r="2.3" fill="#b9bdca" opacity="0.5"/><circle cx="726.2" cy="72.9" r="2.3" fill="#b9bdca" opacity="0.5"/><circle cx="726.7" cy="73.4" r="2.3" fill="#b9bdca" opacity="0.5"/><circle cx="783.1" cy="85.2" r="2.3" fill="#b9bdca" opacity="0.5"/><circle cx="783.1" cy="256.6" r="2.3" fill="#b9bdca" opacity="0.5"/><circle cx="783.1" cy="335.3" r="2.3" fill="#b9bdca" opacity="0.5"/><circle cx="783.5" cy="86.8" r="2.3" fill="#b9bdca" opacity="0.5"/><circle cx="784.0" cy="71.5" r="2.3" fill="#b9bdca" opacity="0.5"/><circle cx="785.5" cy="71.0" r="2.3" fill="#b9bdca" opacity="0.5"/><circle cx="786.3" cy="71.5" r="2.3" fill="#b9bdca" opacity="0.5"/><circle cx="786.5" cy="55.0" r="2.3" fill="#b9bdca" opacity="0.5"/><circle cx="794.3" cy="83.1" r="2.3" fill="#b9bdca" opacity="0.5"/><circle cx="796.3" cy="74.7" r="2.3" fill="#b9bdca" opacity="0.5"/><circle cx="796.4" cy="59.3" r="2.3" fill="#b9bdca" opacity="0.5"/><circle cx="796.4" cy="79.9" r="2.3" fill="#b9bdca" opacity="0.5"/><circle cx="796.6" cy="74.1" r="2.3" fill="#b9bdca" opacity="0.5"/><circle cx="797.0" cy="72.7" r="2.3" fill="#b9bdca" opacity="0.5"/><circle cx="797.0" cy="73.8" r="2.3" fill="#b9bdca" opacity="0.5"/><circle cx="797.0" cy="75.9" r="2.3" fill="#b9bdca" opacity="0.5"/><circle cx="797.4" cy="74.1" r="2.3" fill="#b9bdca" opacity="0.5"/><circle cx="797.8" cy="73.5" r="2.3" fill="#b9bdca" opacity="0.5"/><circle cx="798.3" cy="74.2" r="2.3" fill="#b9bdca" opacity="0.5"/><circle cx="798.7" cy="71.5" r="2.3" fill="#b9bdca" opacity="0.5"/><circle cx="799.9" cy="74.3" r="2.3" fill="#b9bdca" opacity="0.5"/><circle cx="806.2" cy="73.2" r="2.3" fill="#b9bdca" opacity="0.5"/><circle cx="806.2" cy="73.6" r="2.3" fill="#b9bdca" opacity="0.5"/><circle cx="806.2" cy="73.8" r="2.3" fill="#b9bdca" opacity="0.5"/><circle cx="818.4" cy="73.3" r="2.3" fill="#b9bdca" opacity="0.5"/><circle cx="818.4" cy="73.4" r="2.3" fill="#b9bdca" opacity="0.5"/><circle cx="846.1" cy="96.1" r="2.3" fill="#b9bdca" opacity="0.5"/><circle cx="959.7" cy="95.6" r="2.3" fill="#b9bdca" opacity="0.5"/><circle cx="997.2" cy="74.8" r="2.3" fill="#b9bdca" opacity="0.5"/><circle cx="999.0" cy="72.3" r="2.3" fill="#b9bdca" opacity="0.5"/><circle cx="1009.8" cy="79.9" r="2.3" fill="#b9bdca" opacity="0.5"/><circle cx="1009.8" cy="80.6" r="2.3" fill="#b9bdca" opacity="0.5"/><circle cx="1031.3" cy="73.3" r="2.3" fill="#b9bdca" opacity="0.5"/><circle cx="1031.3" cy="72.8" r="2.3" fill="#b9bdca" opacity="0.5"/><circle cx="1031.3" cy="73.0" r="2.3" fill="#b9bdca" opacity="0.5"/><circle cx="1031.3" cy="73.2" r="2.3" fill="#b9bdca" opacity="0.5"/><circle cx="1031.3" cy="73.5" r="2.3" fill="#b9bdca" opacity="0.5"/><circle cx="1031.3" cy="73.6" r="2.3" fill="#b9bdca" opacity="0.5"/><circle cx="1031.3" cy="73.7" r="2.3" fill="#b9bdca" opacity="0.5"/><circle cx="1031.9" cy="73.1" r="2.3" fill="#b9bdca" opacity="0.5"/><circle cx="1031.9" cy="73.2" r="2.3" fill="#b9bdca" opacity="0.5"/><circle cx="1031.9" cy="74.3" r="2.3" fill="#b9bdca" opacity="0.5"/><circle cx="1031.9" cy="74.5" r="2.3" fill="#b9bdca" opacity="0.5"/><circle cx="1032.0" cy="72.8" r="2.3" fill="#b9bdca" opacity="0.5"/><path d="M178.0 152.3L181.6 155.9L178.0 159.5L174.4 155.9Z" fill="#2b3a7a" opacity="0.8" stroke="none" stroke-width="0"/><path d="M185.7 138.2L189.3 141.8L185.7 145.4L182.1 141.8Z" fill="#2b3a7a" opacity="0.8" stroke="none" stroke-width="0"/><path d="M186.7 128.1L190.3 131.7L186.7 135.3L183.1 131.7Z" fill="#2b3a7a" opacity="0.8" stroke="none" stroke-width="0"/><path d="M186.8 130.5L190.4 134.1L186.8 137.7L183.2 134.1Z" fill="#2b3a7a" opacity="0.8" stroke="none" stroke-width="0"/><path d="M187.6 127.3L191.2 130.9L187.6 134.5L184.0 130.9Z" fill="#2b3a7a" opacity="0.8" stroke="none" stroke-width="0"/><path d="M188.0 125.9L191.6 129.5L188.0 133.1L184.4 129.5Z" fill="#2b3a7a" opacity="0.8" stroke="none" stroke-width="0"/><path d="M188.1 127.3L191.7 130.9L188.1 134.5L184.5 130.9Z" fill="#2b3a7a" opacity="0.8" stroke="none" stroke-width="0"/><path d="M211.9 125.9L215.5 129.5L211.9 133.1L208.3 129.5Z" fill="#2b3a7a" opacity="0.8" stroke="none" stroke-width="0"/><path d="M215.5 125.3L219.1 128.9L215.5 132.5L211.9 128.9Z" fill="#2b3a7a" opacity="0.8" stroke="none" stroke-width="0"/><path d="M218.9 124.8L222.5 128.4L218.9 132.0L215.3 128.4Z" fill="#2b3a7a" opacity="0.8" stroke="none" stroke-width="0"/><path d="M221.2 124.6L224.8 128.2L221.2 131.8L217.6 128.2Z" fill="#2b3a7a" opacity="0.8" stroke="none" stroke-width="0"/><path d="M232.0 124.4L235.6 128.0L232.0 131.6L228.4 128.0Z" fill="#2b3a7a" opacity="0.8" stroke="none" stroke-width="0"/><path d="M243.2 109.2L246.8 112.8L243.2 116.4L239.6 112.8Z" fill="#2b3a7a" opacity="0.8" stroke="none" stroke-width="0"/><path d="M248.5 108.0L252.1 111.6L248.5 115.2L244.9 111.6Z" fill="#2b3a7a" opacity="0.8" stroke="none" stroke-width="0"/><path d="M250.1 101.9L253.7 105.5L250.1 109.1L246.5 105.5Z" fill="#2b3a7a" opacity="0.8" stroke="none" stroke-width="0"/><path d="M250.4 104.9L254.0 108.5L250.4 112.1L246.8 108.5Z" fill="#2b3a7a" opacity="0.8" stroke="none" stroke-width="0"/><path d="M251.0 101.5L254.6 105.1L251.0 108.7L247.4 105.1Z" fill="#2b3a7a" opacity="0.8" stroke="none" stroke-width="0"/><path d="M251.8 100.2L255.4 103.8L251.8 107.4L248.2 103.8Z" fill="#2b3a7a" opacity="0.8" stroke="none" stroke-width="0"/><path d="M259.5 99.9L263.1 103.5L259.5 107.1L255.9 103.5Z" fill="#2b3a7a" opacity="0.8" stroke="none" stroke-width="0"/><path d="M274.2 86.0L277.8 89.6L274.2 93.2L270.6 89.6Z" fill="#2b3a7a" opacity="0.8" stroke="none" stroke-width="0"/><path d="M276.7 85.7L280.3 89.3L276.7 92.9L273.1 89.3Z" fill="#2b3a7a" opacity="0.8" stroke="none" stroke-width="0"/><path d="M277.2 84.0L280.8 87.6L277.2 91.2L273.6 87.6Z" fill="#2b3a7a" opacity="0.8" stroke="none" stroke-width="0"/><path d="M279.8 81.8L283.4 85.4L279.8 89.0L276.2 85.4Z" fill="#2b3a7a" opacity="0.8" stroke="none" stroke-width="0"/><path d="M288.0 80.8L291.6 84.4L288.0 88.0L284.4 84.4Z" fill="#2b3a7a" opacity="0.8" stroke="none" stroke-width="0"/><path d="M350.3 80.8L353.9 84.4L350.3 88.0L346.7 84.4Z" fill="#2b3a7a" opacity="0.8" stroke="none" stroke-width="0"/><path d="M505.4 72.2L509.0 75.8L505.4 79.4L501.8 75.8Z" fill="#2b3a7a" opacity="0.8" stroke="none" stroke-width="0"/><path d="M506.7 72.1L510.3 75.7L506.7 79.3L503.1 75.7Z" fill="#2b3a7a" opacity="0.8" stroke="none" stroke-width="0"/><path d="M508.4 71.7L512.0 75.3L508.4 78.9L504.8 75.3Z" fill="#2b3a7a" opacity="0.8" stroke="none" stroke-width="0"/><path d="M508.6 71.1L512.2 74.7L508.6 78.3L505.0 74.7Z" fill="#2b3a7a" opacity="0.8" stroke="none" stroke-width="0"/><path d="M510.0 71.1L513.6 74.7L510.0 78.3L506.4 74.7Z" fill="#2b3a7a" opacity="0.8" stroke="none" stroke-width="0"/><path d="M518.8 70.8L522.4 74.4L518.8 78.0L515.2 74.4Z" fill="#2b3a7a" opacity="0.8" stroke="none" stroke-width="0"/><path d="M530.7 70.3L534.3 73.9L530.7 77.5L527.1 73.9Z" fill="#2b3a7a" opacity="0.8" stroke="none" stroke-width="0"/><path d="M534.7 70.0L538.3 73.6L534.7 77.2L531.1 73.6Z" fill="#2b3a7a" opacity="0.8" stroke="none" stroke-width="0"/><path d="M597.6 69.8L601.2 73.4L597.6 77.0L594.0 73.4Z" fill="#2b3a7a" opacity="0.8" stroke="none" stroke-width="0"/><path d="M651.2 69.8L654.8 73.4L651.2 77.0L647.6 73.4Z" fill="#2b3a7a" opacity="0.8" stroke="none" stroke-width="0"/><path d="M686.9 67.8L690.5 71.4L686.9 75.0L683.3 71.4Z" fill="#2b3a7a" opacity="0.8" stroke="none" stroke-width="0"/><path d="M60.0 335.3L61.9 335.3L61.9 335.1L64.6 335.1L64.6 320.7L69.9 320.7L69.9 319.9L71.9 319.9L71.9 315.3L72.5 315.3L72.5 314.9L73.3 314.9L73.3 314.9L105.2 314.9L105.2 238.7L105.7 238.7L105.7 229.0L106.2 229.0L106.2 222.3L106.8 222.3L106.8 220.6L107.0 220.6L107.0 220.5L107.3 220.5L107.3 214.2L108.5 214.2L108.5 214.1L108.9 214.1L108.9 213.7L109.1 213.7L109.1 213.5L109.5 213.5L109.5 212.7L111.0 212.7L111.0 212.1L111.5 212.1L111.5 212.0L115.7 212.0L115.7 206.7L120.5 206.7L120.5 204.9L122.2 204.9L122.2 204.6L123.4 204.6L123.4 201.9L125.5 201.9L125.5 201.8L126.6 201.8L126.6 201.0L127.2 201.0L127.2 200.0L130.3 200.0L130.3 200.0L131.6 200.0L131.6 199.7L142.0 199.7L142.0 195.5L149.8 195.5L149.8 187.4L150.0 187.4L150.0 186.2L150.5 186.2L150.5 184.5L164.1 184.5L164.1 183.9L170.8 183.9L170.8 169.3L173.1 169.3L173.1 168.8L173.2 168.8L173.2 167.7L174.5 167.7L174.5 165.0L175.0 165.0L175.0 163.7L175.2 163.7L175.2 163.6L178.0 163.6L178.0 155.9L181.6 155.9L181.6 155.8L182.9 155.8L182.9 141.9L185.7 141.9L185.7 141.8L186.7 141.8L186.7 131.7L187.6 131.7L187.6 130.9L188.0 130.9L188.0 129.5L211.9 129.5L211.9 129.5L215.5 129.5L215.5 128.9L218.9 128.9L218.9 128.4L221.2 128.4L221.2 128.2L232.0 128.2L232.0 128.0L243.2 128.0L243.2 112.8L245.7 112.8L245.7 110.2L250.1 110.2L250.1 105.5L251.0 105.5L251.0 105.1L251.8 105.1L251.8 103.8L259.5 103.8L259.5 103.5L274.2 103.5L274.2 89.6L276.7 89.6L276.7 89.3L277.2 89.3L277.2 87.6L279.8 87.6L279.8 85.4L288.0 85.4L288.0 84.4L350.3 84.4L350.3 84.4L505.4 84.4L505.4 75.8L506.7 75.8L506.7 75.7L508.4 75.7L508.4 75.3L508.6 75.3L508.6 74.7L510.0 74.7L510.0 74.7L518.8 74.7L518.8 74.4L530.7 74.4L530.7 73.9L534.7 73.9L534.7 73.6L541.2 73.6L541.2 69.8L544.0 69.8L544.0 69.1L786.5 69.1L786.5 55.0L1032.0 55.0" fill="none" stroke="#6675b0" stroke-width="1.6" stroke-dasharray="5 3" opacity="0.75"/><path d="M178.0 155.9L185.7 155.9L185.7 141.8L186.7 141.8L186.7 131.7L187.6 131.7L187.6 130.9L188.0 130.9L188.0 129.5L211.9 129.5L211.9 129.5L215.5 129.5L215.5 128.9L218.9 128.9L218.9 128.4L221.2 128.4L221.2 128.2L232.0 128.2L232.0 128.0L243.2 128.0L243.2 112.8L248.5 112.8L248.5 111.6L250.1 111.6L250.1 105.5L251.0 105.5L251.0 105.1L251.8 105.1L251.8 103.8L259.5 103.8L259.5 103.5L274.2 103.5L274.2 89.6L276.7 89.6L276.7 89.3L277.2 89.3L277.2 87.6L279.8 87.6L279.8 85.4L288.0 85.4L288.0 84.4L350.3 84.4L350.3 84.4L505.4 84.4L505.4 75.8L506.7 75.8L506.7 75.7L508.4 75.7L508.4 75.3L508.6 75.3L508.6 74.7L510.0 74.7L510.0 74.7L518.8 74.7L518.8 74.4L530.7 74.4L530.7 73.9L534.7 73.9L534.7 73.6L541.2 73.6L541.2 73.5L597.6 73.5L597.6 73.4L651.2 73.4L651.2 73.4L686.9 73.4L686.9 71.4L1032.0 71.4" fill="none" stroke="#2b3a7a" stroke-width="2.6"/><path d="M455.1 246.9L461.6 253.4L455.1 259.9L448.6 253.4Z" fill="#c5961a" opacity="1.0" stroke="#ffffff" stroke-width="1.4"/><path d="M532.3 206.5L538.8 213.0L532.3 219.5L525.8 213.0Z" fill="#c5961a" opacity="1.0" stroke="#ffffff" stroke-width="1.4"/><path d="M541.2 67.0L547.7 73.5L541.2 80.0L534.7 73.5Z" fill="#c5961a" opacity="1.0" stroke="#ffffff" stroke-width="1.4"/><path d="M607.3 240.8L613.8 247.3L607.3 253.8L600.8 247.3Z" fill="#c5961a" opacity="1.0" stroke="#ffffff" stroke-width="1.4"/><path d="M607.8 238.0L614.3 244.5L607.8 251.0L601.3 244.5Z" fill="#c5961a" opacity="1.0" stroke="#ffffff" stroke-width="1.4"/><text x="1042" y="53.0" font-size="11.5" fill="#6675b0">– – raw best 535.9</text><text x="1042" y="67.0" font-size="10" fill="#8a8fa3">unverified (pending)</text><path d="M686.9 64.9L693.4 71.4L686.9 77.9L680.4 71.4Z" fill="#2b3a7a" opacity="1.0" stroke="#ffffff" stroke-width="1.4"/><text x="1042" y="99.4" font-size="12.5" fill="#2b3a7a" font-weight="bold">◆ verified 510.1</text><text x="1042" y="115.4" font-size="10.5" fill="#3a3f55">top verified</text><text x="60" y="24" font-size="13" font-weight="bold" fill="#3a3f55" letter-spacing="1.2">SCORE EVOLUTION — gemma-challenge (tok/s)</text><circle cx="452" cy="20" r="3" fill="#b9bdca"/><text x="460" y="24" font-size="10.5" fill="#8a8fa3">all results</text><path d="M544.0 16.4L547.6 20.0L544.0 23.6L540.4 20.0Z" fill="#2b3a7a" opacity="1.0" stroke="none" stroke-width="0"/><text x="552" y="24" font-size="10.5" fill="#8a8fa3">verified</text><path d="M620.0 15.5L624.5 20.0L620.0 24.5L615.5 20.0Z" fill="#c5961a" opacity="1.0" stroke="#fff" stroke-width="1"/><text x="629" y="24" font-size="10.5" fill="#8a8fa3">mikasa-inbound (us)</text></svg>