<svg viewBox="0 0 1200 440" xmlns="http://www.w3.org/2000/svg" font-family="ui-sans-serif,system-ui,-apple-system,sans-serif"><rect x="0" y="0" width="1200" height="440" fill="#ffffff"/><rect x="60" y="46" width="972" height="350" fill="#f3f4fb"/><line x1="60" y1="396.0" x2="1032" y2="396.0" stroke="#e3e5ef" stroke-width="1"/><text x="52" y="400.0" text-anchor="end" font-size="11" fill="#8a8fa3">0</text><line x1="60" y1="332.4" x2="1032" y2="332.4" stroke="#e3e5ef" stroke-width="1"/><text x="52" y="336.4" text-anchor="end" font-size="11" fill="#8a8fa3">100</text><line x1="60" y1="268.7" x2="1032" y2="268.7" stroke="#e3e5ef" stroke-width="1"/><text x="52" y="272.7" text-anchor="end" font-size="11" fill="#8a8fa3">200</text><line x1="60" y1="205.1" x2="1032" y2="205.1" stroke="#e3e5ef" stroke-width="1"/><text x="52" y="209.1" text-anchor="end" font-size="11" fill="#8a8fa3">300</text><line x1="60" y1="141.5" x2="1032" y2="141.5" stroke="#e3e5ef" stroke-width="1"/><text x="52" y="145.5" text-anchor="end" font-size="11" fill="#8a8fa3">400</text><line x1="60" y1="77.8" x2="1032" y2="77.8" stroke="#e3e5ef" stroke-width="1"/><text x="52" y="81.8" text-anchor="end" font-size="11" fill="#8a8fa3">500</text><line x1="149.8" y1="46" x2="149.8" y2="396" stroke="#e3e5ef" stroke-width="1"/><text x="149.8" y="414.0" text-anchor="middle" font-size="11" fill="#8a8fa3">Jun 10</text><line x1="277.9" y1="46" x2="277.9" y2="396" stroke="#e3e5ef" stroke-width="1"/><text x="277.9" y="414.0" text-anchor="middle" font-size="11" fill="#8a8fa3">Jun 12</text><line x1="406.0" y1="46" x2="406.0" y2="396" stroke="#e3e5ef" stroke-width="1"/><text x="406.0" y="414.0" text-anchor="middle" font-size="11" fill="#8a8fa3">Jun 14</text><line x1="534.1" y1="46" x2="534.1" y2="396" stroke="#e3e5ef" stroke-width="1"/><text x="534.1" y="414.0" text-anchor="middle" font-size="11" fill="#8a8fa3">Jun 16</text><line x1="662.2" y1="46" x2="662.2" y2="396" stroke="#e3e5ef" stroke-width="1"/><text x="662.2" y="414.0" text-anchor="middle" font-size="11" fill="#8a8fa3">Jun 18</text><line x1="790.3" y1="46" x2="790.3" y2="396" stroke="#e3e5ef" stroke-width="1"/><text x="790.3" y="414.0" text-anchor="middle" font-size="11" fill="#8a8fa3">Jun 20</text><line x1="918.4" y1="46" x2="918.4" y2="396" stroke="#e3e5ef" stroke-width="1"/><text x="918.4" y="414.0" text-anchor="middle" font-size="11" fill="#8a8fa3">Jun 22</text><circle cx="60.0" cy="335.3" r="2.3" fill="#b9bdca" opacity="0.5"/><circle cx="63.1" cy="335.1" r="2.3" fill="#b9bdca" opacity="0.5"/><circle cx="66.2" cy="368.0" r="2.3" fill="#b9bdca" opacity="0.5"/><circle cx="67.4" cy="320.7" r="2.3" fill="#b9bdca" opacity="0.5"/><circle cx="75.9" cy="319.9" r="2.3" fill="#b9bdca" opacity="0.5"/><circle cx="76.4" cy="320.6" r="2.3" fill="#b9bdca" opacity="0.5"/><circle cx="79.1" cy="315.3" r="2.3" fill="#b9bdca" opacity="0.5"/><circle cx="79.7" cy="319.7" r="2.3" fill="#b9bdca" opacity="0.5"/><circle cx="80.0" cy="314.9" r="2.3" fill="#b9bdca" opacity="0.5"/><circle cx="81.0" cy="315.5" r="2.3" fill="#b9bdca" opacity="0.5"/><circle cx="81.3" cy="314.9" r="2.3" fill="#b9bdca" opacity="0.5"/><circle cx="82.2" cy="315.4" r="2.3" fill="#b9bdca" opacity="0.5"/><circle cx="83.8" cy="315.0" r="2.3" fill="#b9bdca" opacity="0.5"/><circle cx="132.3" cy="238.7" r="2.3" fill="#b9bdca" opacity="0.5"/><circle cx="132.7" cy="315.0" r="2.3" fill="#b9bdca" opacity="0.5"/><circle cx="133.2" cy="229.0" r="2.3" fill="#b9bdca" opacity="0.5"/><circle cx="134.0" cy="222.3" r="2.3" fill="#b9bdca" opacity="0.5"/><circle cx="134.7" cy="228.0" r="2.3" fill="#b9bdca" opacity="0.5"/><circle cx="134.9" cy="223.3" r="2.3" fill="#b9bdca" opacity="0.5"/><circle cx="135.0" cy="220.6" r="2.3" fill="#b9bdca" opacity="0.5"/><circle cx="135.2" cy="220.5" r="2.3" fill="#b9bdca" opacity="0.5"/><circle cx="135.3" cy="223.2" r="2.3" fill="#b9bdca" opacity="0.5"/><circle cx="135.7" cy="214.2" r="2.3" fill="#b9bdca" opacity="0.5"/><circle cx="135.8" cy="222.1" r="2.3" fill="#b9bdca" opacity="0.5"/><circle cx="136.2" cy="220.7" r="2.3" fill="#b9bdca" opacity="0.5"/><circle cx="136.7" cy="218.5" r="2.3" fill="#b9bdca" opacity="0.5"/><circle cx="136.9" cy="215.2" r="2.3" fill="#b9bdca" opacity="0.5"/><circle cx="137.3" cy="214.3" r="2.3" fill="#b9bdca" opacity="0.5"/><circle cx="137.3" cy="219.2" r="2.3" fill="#b9bdca" opacity="0.5"/><circle cx="137.7" cy="214.1" r="2.3" fill="#b9bdca" opacity="0.5"/><circle cx="138.0" cy="215.2" r="2.3" fill="#b9bdca" opacity="0.5"/><circle cx="138.2" cy="213.7" r="2.3" fill="#b9bdca" opacity="0.5"/><circle cx="138.6" cy="213.5" r="2.3" fill="#b9bdca" opacity="0.5"/><circle cx="139.0" cy="214.8" r="2.3" fill="#b9bdca" opacity="0.5"/><circle cx="139.0" cy="217.7" r="2.3" fill="#b9bdca" opacity="0.5"/><circle cx="139.2" cy="212.7" r="2.3" fill="#b9bdca" opacity="0.5"/><circle cx="140.0" cy="213.3" r="2.3" fill="#b9bdca" opacity="0.5"/><circle cx="140.9" cy="212.7" r="2.3" fill="#b9bdca" opacity="0.5"/><circle cx="140.9" cy="213.6" r="2.3" fill="#b9bdca" opacity="0.5"/><circle cx="141.2" cy="213.0" r="2.3" fill="#b9bdca" opacity="0.5"/><circle cx="141.7" cy="212.1" r="2.3" fill="#b9bdca" opacity="0.5"/><circle cx="141.8" cy="213.3" r="2.3" fill="#b9bdca" opacity="0.5"/><circle cx="142.4" cy="212.0" r="2.3" fill="#b9bdca" opacity="0.5"/><circle cx="143.3" cy="212.1" r="2.3" fill="#b9bdca" opacity="0.5"/><circle cx="143.3" cy="212.8" r="2.3" fill="#b9bdca" opacity="0.5"/><circle cx="149.2" cy="206.7" r="2.3" fill="#b9bdca" opacity="0.5"/><circle cx="150.0" cy="206.8" r="2.3" fill="#b9bdca" opacity="0.5"/><circle cx="150.0" cy="212.5" r="2.3" fill="#b9bdca" opacity="0.5"/><circle cx="150.5" cy="207.2" r="2.3" fill="#b9bdca" opacity="0.5"/><circle cx="152.3" cy="207.0" r="2.3" fill="#b9bdca" opacity="0.5"/><circle cx="156.8" cy="204.9" r="2.3" fill="#b9bdca" opacity="0.5"/><circle cx="159.6" cy="204.6" r="2.3" fill="#b9bdca" opacity="0.5"/><circle cx="159.9" cy="212.3" r="2.3" fill="#b9bdca" opacity="0.5"/><circle cx="160.4" cy="204.6" r="2.3" fill="#b9bdca" opacity="0.5"/><circle cx="160.4" cy="204.6" r="2.3" fill="#b9bdca" opacity="0.5"/><circle cx="160.4" cy="204.9" r="2.3" fill="#b9bdca" opacity="0.5"/><circle cx="160.4" cy="204.9" r="2.3" fill="#b9bdca" opacity="0.5"/><circle cx="161.5" cy="201.9" r="2.3" fill="#b9bdca" opacity="0.5"/><circle cx="163.3" cy="206.5" r="2.3" fill="#b9bdca" opacity="0.5"/><circle cx="164.0" cy="205.8" r="2.3" fill="#b9bdca" opacity="0.5"/><circle cx="164.0" cy="335.1" r="2.3" fill="#b9bdca" opacity="0.5"/><circle cx="164.9" cy="201.8" r="2.3" fill="#b9bdca" opacity="0.5"/><circle cx="165.0" cy="202.2" r="2.3" fill="#b9bdca" opacity="0.5"/><circle cx="166.6" cy="201.0" r="2.3" fill="#b9bdca" opacity="0.5"/><circle cx="167.3" cy="203.1" r="2.3" fill="#b9bdca" opacity="0.5"/><circle cx="167.6" cy="200.0" r="2.3" fill="#b9bdca" opacity="0.5"/><circle cx="167.7" cy="204.6" r="2.3" fill="#b9bdca" opacity="0.5"/><circle cx="168.7" cy="202.3" r="2.3" fill="#b9bdca" opacity="0.5"/><circle cx="170.9" cy="200.4" r="2.3" fill="#b9bdca" opacity="0.5"/><circle cx="171.7" cy="200.7" r="2.3" fill="#b9bdca" opacity="0.5"/><circle cx="172.6" cy="200.0" r="2.3" fill="#b9bdca" opacity="0.5"/><circle cx="174.6" cy="199.7" r="2.3" fill="#b9bdca" opacity="0.5"/><circle cx="186.8" cy="200.6" r="2.3" fill="#b9bdca" opacity="0.5"/><circle cx="187.9" cy="201.8" r="2.3" fill="#b9bdca" opacity="0.5"/><circle cx="189.5" cy="208.4" r="2.3" fill="#b9bdca" opacity="0.5"/><circle cx="189.6" cy="200.8" r="2.3" fill="#b9bdca" opacity="0.5"/><circle cx="190.8" cy="200.7" r="2.3" fill="#b9bdca" opacity="0.5"/><circle cx="190.8" cy="201.9" r="2.3" fill="#b9bdca" opacity="0.5"/><circle cx="191.3" cy="195.5" r="2.3" fill="#b9bdca" opacity="0.5"/><circle cx="192.4" cy="196.9" r="2.3" fill="#b9bdca" opacity="0.5"/><circle cx="192.9" cy="197.9" r="2.3" fill="#b9bdca" opacity="0.5"/><circle cx="194.0" cy="196.1" r="2.3" fill="#b9bdca" opacity="0.5"/><circle cx="197.8" cy="197.3" r="2.3" fill="#b9bdca" opacity="0.5"/><circle cx="198.8" cy="195.9" r="2.3" fill="#b9bdca" opacity="0.5"/><circle cx="199.2" cy="201.0" r="2.3" fill="#b9bdca" opacity="0.5"/><circle cx="199.5" cy="197.5" r="2.3" fill="#b9bdca" opacity="0.5"/><circle cx="200.3" cy="196.9" r="2.3" fill="#b9bdca" opacity="0.5"/><circle cx="200.4" cy="197.1" r="2.3" fill="#b9bdca" opacity="0.5"/><circle cx="200.5" cy="197.0" r="2.3" fill="#b9bdca" opacity="0.5"/><circle cx="201.3" cy="196.0" r="2.3" fill="#b9bdca" opacity="0.5"/><circle cx="201.3" cy="196.0" r="2.3" fill="#b9bdca" opacity="0.5"/><circle cx="201.4" cy="197.9" r="2.3" fill="#b9bdca" opacity="0.5"/><circle cx="202.0" cy="197.8" r="2.3" fill="#b9bdca" opacity="0.5"/><circle cx="202.6" cy="196.2" r="2.3" fill="#b9bdca" opacity="0.5"/><circle cx="202.6" cy="197.5" r="2.3" fill="#b9bdca" opacity="0.5"/><circle cx="202.8" cy="196.9" r="2.3" fill="#b9bdca" opacity="0.5"/><circle cx="202.9" cy="195.5" r="2.3" fill="#b9bdca" opacity="0.5"/><circle cx="203.6" cy="198.1" r="2.3" fill="#b9bdca" opacity="0.5"/><circle cx="203.7" cy="187.4" r="2.3" fill="#b9bdca" opacity="0.5"/><circle cx="204.1" cy="186.2" r="2.3" fill="#b9bdca" opacity="0.5"/><circle cx="204.1" cy="196.3" r="2.3" fill="#b9bdca" opacity="0.5"/><circle cx="204.1" cy="197.2" r="2.3" fill="#b9bdca" opacity="0.5"/><circle cx="204.1" cy="197.8" r="2.3" fill="#b9bdca" opacity="0.5"/><circle cx="204.1" cy="368.0" r="2.3" fill="#b9bdca" opacity="0.5"/><circle cx="204.9" cy="184.5" r="2.3" fill="#b9bdca" opacity="0.5"/><circle cx="208.2" cy="184.6" r="2.3" fill="#b9bdca" opacity="0.5"/><circle cx="209.6" cy="185.6" r="2.3" fill="#b9bdca" opacity="0.5"/><circle cx="214.4" cy="188.7" r="2.3" fill="#b9bdca" opacity="0.5"/><circle cx="220.9" cy="185.4" r="2.3" fill="#b9bdca" opacity="0.5"/><circle cx="222.3" cy="185.2" r="2.3" fill="#b9bdca" opacity="0.5"/><circle cx="222.8" cy="186.6" r="2.3" fill="#b9bdca" opacity="0.5"/><circle cx="223.0" cy="185.3" r="2.3" fill="#b9bdca" opacity="0.5"/><circle cx="224.1" cy="185.3" r="2.3" fill="#b9bdca" opacity="0.5"/><circle cx="224.7" cy="185.0" r="2.3" fill="#b9bdca" opacity="0.5"/><circle cx="225.8" cy="184.9" r="2.3" fill="#b9bdca" opacity="0.5"/><circle cx="226.5" cy="185.1" r="2.3" fill="#b9bdca" opacity="0.5"/><circle cx="226.5" cy="185.2" r="2.3" fill="#b9bdca" opacity="0.5"/><circle cx="226.5" cy="186.4" r="2.3" fill="#b9bdca" opacity="0.5"/><circle cx="226.7" cy="183.9" r="2.3" fill="#b9bdca" opacity="0.5"/><circle cx="232.6" cy="184.4" r="2.3" fill="#b9bdca" opacity="0.5"/><circle cx="233.6" cy="184.2" r="2.3" fill="#b9bdca" opacity="0.5"/><circle cx="237.4" cy="169.3" r="2.3" fill="#b9bdca" opacity="0.5"/><circle cx="241.0" cy="168.8" r="2.3" fill="#b9bdca" opacity="0.5"/><circle cx="241.3" cy="167.7" r="2.3" fill="#b9bdca" opacity="0.5"/><circle cx="242.9" cy="201.4" r="2.3" fill="#b9bdca" opacity="0.5"/><circle cx="243.3" cy="165.0" r="2.3" fill="#b9bdca" opacity="0.5"/><circle cx="243.6" cy="198.2" r="2.3" fill="#b9bdca" opacity="0.5"/><circle cx="244.1" cy="163.7" r="2.3" fill="#b9bdca" opacity="0.5"/><circle cx="244.4" cy="163.6" r="2.3" fill="#b9bdca" opacity="0.5"/><circle cx="245.0" cy="165.9" r="2.3" fill="#b9bdca" opacity="0.5"/><circle cx="248.2" cy="165.1" r="2.3" fill="#b9bdca" opacity="0.5"/><circle cx="248.9" cy="155.9" r="2.3" fill="#b9bdca" opacity="0.5"/><circle cx="252.1" cy="196.5" r="2.3" fill="#b9bdca" opacity="0.5"/><circle cx="253.4" cy="157.4" r="2.3" fill="#b9bdca" opacity="0.5"/><circle cx="254.6" cy="155.8" r="2.3" fill="#b9bdca" opacity="0.5"/><circle cx="256.7" cy="141.9" r="2.3" fill="#b9bdca" opacity="0.5"/><circle cx="261.0" cy="156.1" r="2.3" fill="#b9bdca" opacity="0.5"/><circle cx="261.0" cy="156.4" r="2.3" fill="#b9bdca" opacity="0.5"/><circle cx="261.2" cy="141.8" r="2.3" fill="#b9bdca" opacity="0.5"/><circle cx="261.4" cy="196.0" r="2.3" fill="#b9bdca" opacity="0.5"/><circle cx="262.8" cy="131.7" r="2.3" fill="#b9bdca" opacity="0.5"/><circle cx="263.0" cy="134.1" r="2.3" fill="#b9bdca" opacity="0.5"/><circle cx="263.5" cy="141.1" r="2.3" fill="#b9bdca" opacity="0.5"/><circle cx="264.2" cy="134.0" r="2.3" fill="#b9bdca" opacity="0.5"/><circle cx="264.3" cy="130.9" r="2.3" fill="#b9bdca" opacity="0.5"/><circle cx="264.3" cy="154.2" r="2.3" fill="#b9bdca" opacity="0.5"/><circle cx="264.6" cy="133.6" r="2.3" fill="#b9bdca" opacity="0.5"/><circle cx="265.0" cy="129.5" r="2.3" fill="#b9bdca" opacity="0.5"/><circle cx="265.0" cy="130.9" r="2.3" fill="#b9bdca" opacity="0.5"/><circle cx="265.0" cy="133.4" r="2.3" fill="#b9bdca" opacity="0.5"/><circle cx="265.3" cy="131.2" r="2.3" fill="#b9bdca" opacity="0.5"/><circle cx="268.0" cy="189.8" r="2.3" fill="#b9bdca" opacity="0.5"/><circle cx="268.1" cy="133.2" r="2.3" fill="#b9bdca" opacity="0.5"/><circle cx="268.5" cy="133.5" r="2.3" fill="#b9bdca" opacity="0.5"/><circle cx="269.5" cy="130.1" r="2.3" fill="#b9bdca" opacity="0.5"/><circle cx="272.1" cy="130.3" r="2.3" fill="#b9bdca" opacity="0.5"/><circle cx="273.3" cy="303.1" r="2.3" fill="#b9bdca" opacity="0.5"/><circle cx="275.5" cy="133.2" r="2.3" fill="#b9bdca" opacity="0.5"/><circle cx="278.3" cy="144.2" r="2.3" fill="#b9bdca" opacity="0.5"/><circle cx="278.9" cy="135.3" r="2.3" fill="#b9bdca" opacity="0.5"/><circle cx="280.7" cy="133.4" r="2.3" fill="#b9bdca" opacity="0.5"/><circle cx="280.9" cy="159.9" r="2.3" fill="#b9bdca" opacity="0.5"/><circle cx="281.4" cy="130.8" r="2.3" fill="#b9bdca" opacity="0.5"/><circle cx="282.0" cy="133.2" r="2.3" fill="#b9bdca" opacity="0.5"/><circle cx="288.5" cy="130.9" r="2.3" fill="#b9bdca" opacity="0.5"/><circle cx="289.3" cy="130.9" r="2.3" fill="#b9bdca" opacity="0.5"/><circle cx="289.3" cy="133.8" r="2.3" fill="#b9bdca" opacity="0.5"/><circle cx="290.4" cy="130.4" r="2.3" fill="#b9bdca" opacity="0.5"/><circle cx="291.1" cy="153.7" r="2.3" fill="#b9bdca" opacity="0.5"/><circle cx="292.3" cy="133.3" r="2.3" fill="#b9bdca" opacity="0.5"/><circle cx="294.3" cy="156.5" r="2.3" fill="#b9bdca" opacity="0.5"/><circle cx="294.7" cy="132.3" r="2.3" fill="#b9bdca" opacity="0.5"/><circle cx="297.0" cy="147.2" r="2.3" fill="#b9bdca" opacity="0.5"/><circle cx="297.5" cy="133.6" r="2.3" fill="#b9bdca" opacity="0.5"/><circle cx="298.3" cy="129.5" r="2.3" fill="#b9bdca" opacity="0.5"/><circle cx="298.3" cy="133.3" r="2.3" fill="#b9bdca" opacity="0.5"/><circle cx="301.2" cy="133.3" r="2.3" fill="#b9bdca" opacity="0.5"/><circle cx="303.1" cy="129.5" r="2.3" fill="#b9bdca" opacity="0.5"/><circle cx="306.4" cy="130.6" r="2.3" fill="#b9bdca" opacity="0.5"/><circle cx="308.9" cy="128.9" r="2.3" fill="#b9bdca" opacity="0.5"/><circle cx="309.3" cy="132.7" r="2.3" fill="#b9bdca" opacity="0.5"/><circle cx="309.3" cy="133.1" r="2.3" fill="#b9bdca" opacity="0.5"/><circle cx="313.0" cy="129.8" r="2.3" fill="#b9bdca" opacity="0.5"/><circle cx="314.0" cy="333.8" r="2.3" fill="#b9bdca" opacity="0.5"/><circle cx="314.3" cy="128.4" r="2.3" fill="#b9bdca" opacity="0.5"/><circle cx="316.0" cy="129.8" r="2.3" fill="#b9bdca" opacity="0.5"/><circle cx="316.7" cy="128.9" r="2.3" fill="#b9bdca" opacity="0.5"/><circle cx="316.9" cy="128.9" r="2.3" fill="#b9bdca" opacity="0.5"/><circle cx="318.1" cy="128.2" r="2.3" fill="#b9bdca" opacity="0.5"/><circle cx="319.0" cy="129.7" r="2.3" fill="#b9bdca" opacity="0.5"/><circle cx="319.4" cy="142.3" r="2.3" fill="#b9bdca" opacity="0.5"/><circle cx="322.8" cy="128.8" r="2.3" fill="#b9bdca" opacity="0.5"/><circle cx="324.9" cy="161.1" r="2.3" fill="#b9bdca" opacity="0.5"/><circle cx="328.8" cy="164.4" r="2.3" fill="#b9bdca" opacity="0.5"/><circle cx="329.2" cy="248.3" r="2.3" fill="#b9bdca" opacity="0.5"/><circle cx="334.8" cy="135.4" r="2.3" fill="#b9bdca" opacity="0.5"/><circle cx="335.3" cy="128.0" r="2.3" fill="#b9bdca" opacity="0.5"/><circle cx="337.1" cy="229.0" r="2.3" fill="#b9bdca" opacity="0.5"/><circle cx="341.0" cy="128.1" r="2.3" fill="#b9bdca" opacity="0.5"/><circle cx="342.0" cy="128.6" r="2.3" fill="#b9bdca" opacity="0.5"/><circle cx="345.6" cy="128.8" r="2.3" fill="#b9bdca" opacity="0.5"/><circle cx="345.6" cy="129.6" r="2.3" fill="#b9bdca" opacity="0.5"/><circle cx="345.6" cy="130.9" r="2.3" fill="#b9bdca" opacity="0.5"/><circle cx="353.3" cy="112.8" r="2.3" fill="#b9bdca" opacity="0.5"/><circle cx="357.3" cy="110.2" r="2.3" fill="#b9bdca" opacity="0.5"/><circle cx="357.5" cy="111.6" r="2.3" fill="#b9bdca" opacity="0.5"/><circle cx="360.0" cy="111.0" r="2.3" fill="#b9bdca" opacity="0.5"/><circle cx="361.2" cy="335.1" r="2.3" fill="#b9bdca" opacity="0.5"/><circle cx="361.8" cy="111.6" r="2.3" fill="#b9bdca" opacity="0.5"/><circle cx="364.4" cy="105.5" r="2.3" fill="#b9bdca" opacity="0.5"/><circle cx="364.8" cy="108.5" r="2.3" fill="#b9bdca" opacity="0.5"/><circle cx="365.8" cy="105.1" r="2.3" fill="#b9bdca" opacity="0.5"/><circle cx="367.0" cy="103.8" r="2.3" fill="#b9bdca" opacity="0.5"/><circle cx="368.3" cy="125.8" r="2.3" fill="#b9bdca" opacity="0.5"/><circle cx="379.4" cy="103.5" r="2.3" fill="#b9bdca" opacity="0.5"/><circle cx="382.3" cy="127.8" r="2.3" fill="#b9bdca" opacity="0.5"/><circle cx="383.5" cy="334.3" r="2.3" fill="#b9bdca" opacity="0.5"/><circle cx="385.2" cy="128.6" r="2.3" fill="#b9bdca" opacity="0.5"/><circle cx="386.0" cy="128.6" r="2.3" fill="#b9bdca" opacity="0.5"/><circle cx="386.2" cy="128.6" r="2.3" fill="#b9bdca" opacity="0.5"/><circle cx="387.2" cy="256.6" r="2.3" fill="#b9bdca" opacity="0.5"/><circle cx="388.5" cy="254.6" r="2.3" fill="#b9bdca" opacity="0.5"/><circle cx="390.5" cy="128.6" r="2.3" fill="#b9bdca" opacity="0.5"/><circle cx="395.6" cy="250.1" r="2.3" fill="#b9bdca" opacity="0.5"/><circle cx="396.0" cy="161.4" r="2.3" fill="#b9bdca" opacity="0.5"/><circle cx="396.6" cy="206.6" r="2.3" fill="#b9bdca" opacity="0.5"/><circle cx="401.3" cy="113.5" r="2.3" fill="#b9bdca" opacity="0.5"/><circle cx="402.8" cy="89.6" r="2.3" fill="#b9bdca" opacity="0.5"/><circle cx="404.0" cy="90.2" r="2.3" fill="#b9bdca" opacity="0.5"/><circle cx="406.9" cy="89.3" r="2.3" fill="#b9bdca" opacity="0.5"/><circle cx="407.7" cy="87.6" r="2.3" fill="#b9bdca" opacity="0.5"/><circle cx="408.7" cy="185.0" r="2.3" fill="#b9bdca" opacity="0.5"/><circle cx="409.8" cy="131.6" r="2.3" fill="#b9bdca" opacity="0.5"/><circle cx="410.6" cy="87.8" r="2.3" fill="#b9bdca" opacity="0.5"/><circle cx="411.9" cy="85.4" r="2.3" fill="#b9bdca" opacity="0.5"/><circle cx="414.0" cy="86.8" r="2.3" fill="#b9bdca" opacity="0.5"/><circle cx="416.1" cy="88.4" r="2.3" fill="#b9bdca" opacity="0.5"/><circle cx="425.0" cy="89.5" r="2.3" fill="#b9bdca" opacity="0.5"/><circle cx="425.0" cy="155.6" r="2.3" fill="#b9bdca" opacity="0.5"/><circle cx="425.0" cy="84.4" r="2.3" fill="#b9bdca" opacity="0.5"/><circle cx="435.5" cy="89.2" r="2.3" fill="#b9bdca" opacity="0.5"/><circle cx="435.7" cy="90.5" r="2.3" fill="#b9bdca" opacity="0.5"/><circle cx="438.6" cy="87.7" r="2.3" fill="#b9bdca" opacity="0.5"/><circle cx="439.6" cy="367.9" r="2.3" fill="#b9bdca" opacity="0.5"/><circle cx="443.9" cy="164.3" r="2.3" fill="#b9bdca" opacity="0.5"/><circle cx="446.0" cy="94.6" r="2.3" fill="#b9bdca" opacity="0.5"/><circle cx="446.8" cy="89.6" r="2.3" fill="#b9bdca" opacity="0.5"/><circle cx="455.9" cy="124.6" r="2.3" fill="#b9bdca" opacity="0.5"/><circle cx="465.5" cy="146.2" r="2.3" fill="#b9bdca" opacity="0.5"/><circle cx="465.8" cy="90.5" r="2.3" fill="#b9bdca" opacity="0.5"/><circle cx="466.7" cy="87.7" r="2.3" fill="#b9bdca" opacity="0.5"/><circle cx="467.2" cy="87.7" r="2.3" fill="#b9bdca" opacity="0.5"/><circle cx="467.2" cy="89.6" r="2.3" fill="#b9bdca" opacity="0.5"/><circle cx="474.1" cy="93.0" r="2.3" fill="#b9bdca" opacity="0.5"/><circle cx="476.5" cy="85.5" r="2.3" fill="#b9bdca" opacity="0.5"/><circle cx="496.8" cy="334.8" r="2.3" fill="#b9bdca" opacity="0.5"/><circle cx="499.1" cy="86.3" r="2.3" fill="#b9bdca" opacity="0.5"/><circle cx="505.9" cy="85.5" r="2.3" fill="#b9bdca" opacity="0.5"/><circle cx="507.1" cy="84.6" r="2.3" fill="#b9bdca" opacity="0.5"/><circle cx="510.0" cy="87.8" r="2.3" fill="#b9bdca" opacity="0.5"/><circle cx="511.2" cy="84.4" r="2.3" fill="#b9bdca" opacity="0.5"/><circle cx="511.8" cy="84.8" r="2.3" fill="#b9bdca" opacity="0.5"/><circle cx="513.8" cy="87.4" r="2.3" fill="#b9bdca" opacity="0.5"/><circle cx="524.7" cy="84.4" r="2.3" fill="#b9bdca" opacity="0.5"/><circle cx="572.5" cy="89.3" r="2.3" fill="#b9bdca" opacity="0.5"/><circle cx="581.2" cy="88.6" r="2.3" fill="#b9bdca" opacity="0.5"/><circle cx="581.2" cy="92.1" r="2.3" fill="#b9bdca" opacity="0.5"/><circle cx="583.0" cy="156.8" r="2.3" fill="#b9bdca" opacity="0.5"/><circle cx="610.6" cy="201.6" r="2.3" fill="#b9bdca" opacity="0.5"/><circle cx="630.7" cy="315.6" r="2.3" fill="#b9bdca" opacity="0.5"/><circle cx="685.8" cy="87.7" r="2.3" fill="#b9bdca" opacity="0.5"/><circle cx="702.5" cy="87.6" r="2.3" fill="#b9bdca" opacity="0.5"/><circle cx="717.3" cy="87.2" r="2.3" fill="#b9bdca" opacity="0.5"/><circle cx="720.7" cy="88.8" r="2.3" fill="#b9bdca" opacity="0.5"/><circle cx="722.0" cy="89.2" r="2.3" fill="#b9bdca" opacity="0.5"/><circle cx="722.7" cy="90.9" r="2.3" fill="#b9bdca" opacity="0.5"/><circle cx="727.0" cy="87.7" r="2.3" fill="#b9bdca" opacity="0.5"/><circle cx="741.9" cy="88.6" r="2.3" fill="#b9bdca" opacity="0.5"/><circle cx="743.8" cy="89.7" r="2.3" fill="#b9bdca" opacity="0.5"/><circle cx="745.1" cy="88.2" r="2.3" fill="#b9bdca" opacity="0.5"/><circle cx="773.0" cy="75.8" r="2.3" fill="#b9bdca" opacity="0.5"/><circle cx="775.2" cy="75.7" r="2.3" fill="#b9bdca" opacity="0.5"/><circle cx="776.8" cy="76.7" r="2.3" fill="#b9bdca" opacity="0.5"/><circle cx="776.9" cy="75.8" r="2.3" fill="#b9bdca" opacity="0.5"/><circle cx="777.8" cy="75.3" r="2.3" fill="#b9bdca" opacity="0.5"/><circle cx="778.2" cy="74.7" r="2.3" fill="#b9bdca" opacity="0.5"/><circle cx="778.5" cy="83.4" r="2.3" fill="#b9bdca" opacity="0.5"/><circle cx="779.1" cy="76.2" r="2.3" fill="#b9bdca" opacity="0.5"/><circle cx="779.8" cy="78.1" r="2.3" fill="#b9bdca" opacity="0.5"/><circle cx="780.5" cy="74.7" r="2.3" fill="#b9bdca" opacity="0.5"/><circle cx="785.1" cy="89.3" r="2.3" fill="#b9bdca" opacity="0.5"/><circle cx="794.4" cy="74.4" r="2.3" fill="#b9bdca" opacity="0.5"/><circle cx="809.2" cy="74.4" r="2.3" fill="#b9bdca" opacity="0.5"/><circle cx="811.7" cy="335.1" r="2.3" fill="#b9bdca" opacity="0.5"/><circle cx="811.7" cy="81.7" r="2.3" fill="#b9bdca" opacity="0.5"/><circle cx="813.5" cy="74.6" r="2.3" fill="#b9bdca" opacity="0.5"/><circle cx="813.5" cy="82.1" r="2.3" fill="#b9bdca" opacity="0.5"/><circle cx="813.5" cy="73.9" r="2.3" fill="#b9bdca" opacity="0.5"/><circle cx="817.7" cy="76.2" r="2.3" fill="#b9bdca" opacity="0.5"/><circle cx="818.4" cy="82.1" r="2.3" fill="#b9bdca" opacity="0.5"/><circle cx="819.0" cy="74.2" r="2.3" fill="#b9bdca" opacity="0.5"/><circle cx="819.1" cy="75.0" r="2.3" fill="#b9bdca" opacity="0.5"/><circle cx="820.0" cy="73.6" r="2.3" fill="#b9bdca" opacity="0.5"/><circle cx="820.0" cy="83.3" r="2.3" fill="#b9bdca" opacity="0.5"/><circle cx="820.0" cy="83.8" r="2.3" fill="#b9bdca" opacity="0.5"/><circle cx="820.1" cy="78.1" r="2.3" fill="#b9bdca" opacity="0.5"/><circle cx="820.1" cy="81.5" r="2.3" fill="#b9bdca" opacity="0.5"/><circle cx="820.1" cy="83.0" r="2.3" fill="#b9bdca" opacity="0.5"/><circle cx="820.1" cy="83.7" r="2.3" fill="#b9bdca" opacity="0.5"/><circle cx="825.9" cy="82.7" r="2.3" fill="#b9bdca" opacity="0.5"/><circle cx="827.2" cy="77.8" r="2.3" fill="#b9bdca" opacity="0.5"/><circle cx="830.3" cy="69.8" r="2.3" fill="#b9bdca" opacity="0.5"/><circle cx="831.3" cy="75.9" r="2.3" fill="#b9bdca" opacity="0.5"/><circle cx="831.7" cy="74.3" r="2.3" fill="#b9bdca" opacity="0.5"/><circle cx="831.7" cy="77.4" r="2.3" fill="#b9bdca" opacity="0.5"/><circle cx="831.7" cy="80.6" r="2.3" fill="#b9bdca" opacity="0.5"/><circle cx="831.7" cy="81.8" r="2.3" fill="#b9bdca" opacity="0.5"/><circle cx="833.8" cy="76.9" r="2.3" fill="#b9bdca" opacity="0.5"/><circle cx="833.8" cy="82.8" r="2.3" fill="#b9bdca" opacity="0.5"/><circle cx="833.8" cy="83.0" r="2.3" fill="#b9bdca" opacity="0.5"/><circle cx="833.8" cy="83.1" r="2.3" fill="#b9bdca" opacity="0.5"/><circle cx="834.8" cy="69.1" r="2.3" fill="#b9bdca" opacity="0.5"/><circle cx="837.2" cy="75.5" r="2.3" fill="#b9bdca" opacity="0.5"/><circle cx="838.6" cy="74.3" r="2.3" fill="#b9bdca" opacity="0.5"/><circle cx="876.1" cy="74.0" r="2.3" fill="#b9bdca" opacity="0.5"/><circle cx="920.6" cy="73.4" r="2.3" fill="#b9bdca" opacity="0.5"/><circle cx="921.0" cy="75.9" r="2.3" fill="#b9bdca" opacity="0.5"/><circle cx="921.0" cy="76.3" r="2.3" fill="#b9bdca" opacity="0.5"/><circle cx="921.4" cy="76.0" r="2.3" fill="#b9bdca" opacity="0.5"/><circle cx="921.4" cy="76.8" r="2.3" fill="#b9bdca" opacity="0.5"/><circle cx="921.4" cy="81.2" r="2.3" fill="#b9bdca" opacity="0.5"/><circle cx="921.4" cy="83.4" r="2.3" fill="#b9bdca" opacity="0.5"/><circle cx="952.9" cy="76.6" r="2.3" fill="#b9bdca" opacity="0.5"/><circle cx="955.0" cy="76.7" r="2.3" fill="#b9bdca" opacity="0.5"/><circle cx="955.0" cy="82.8" r="2.3" fill="#b9bdca" opacity="0.5"/><circle cx="955.0" cy="82.8" r="2.3" fill="#b9bdca" opacity="0.5"/><circle cx="955.0" cy="83.3" r="2.3" fill="#b9bdca" opacity="0.5"/><circle cx="961.6" cy="233.4" r="2.3" fill="#b9bdca" opacity="0.5"/><circle cx="963.5" cy="228.9" r="2.3" fill="#b9bdca" opacity="0.5"/><circle cx="965.5" cy="198.3" r="2.3" fill="#b9bdca" opacity="0.5"/><circle cx="1006.5" cy="73.4" r="2.3" fill="#b9bdca" opacity="0.5"/><circle cx="1017.9" cy="192.4" r="2.3" fill="#b9bdca" opacity="0.5"/><circle cx="1022.0" cy="75.3" r="2.3" fill="#b9bdca" opacity="0.5"/><circle cx="1023.0" cy="74.0" r="2.3" fill="#b9bdca" opacity="0.5"/><circle cx="1025.6" cy="194.4" r="2.3" fill="#b9bdca" opacity="0.5"/><circle cx="1029.6" cy="168.6" r="2.3" fill="#b9bdca" opacity="0.5"/><circle cx="1032.0" cy="77.1" r="2.3" fill="#b9bdca" opacity="0.5"/><circle cx="1032.0" cy="99.5" r="2.3" fill="#b9bdca" opacity="0.5"/><path d="M248.9 152.3L252.5 155.9L248.9 159.5L245.3 155.9Z" fill="#2b3a7a" opacity="0.8" stroke="none" stroke-width="0"/><path d="M261.2 138.2L264.8 141.8L261.2 145.4L257.6 141.8Z" fill="#2b3a7a" opacity="0.8" stroke="none" stroke-width="0"/><path d="M262.8 128.1L266.4 131.7L262.8 135.3L259.2 131.7Z" fill="#2b3a7a" opacity="0.8" stroke="none" stroke-width="0"/><path d="M263.0 130.5L266.6 134.1L263.0 137.7L259.4 134.1Z" fill="#2b3a7a" opacity="0.8" stroke="none" stroke-width="0"/><path d="M264.3 127.3L267.9 130.9L264.3 134.5L260.7 130.9Z" fill="#2b3a7a" opacity="0.8" stroke="none" stroke-width="0"/><path d="M265.0 125.9L268.6 129.5L265.0 133.1L261.4 129.5Z" fill="#2b3a7a" opacity="0.8" stroke="none" stroke-width="0"/><path d="M265.0 127.3L268.6 130.9L265.0 134.5L261.4 130.9Z" fill="#2b3a7a" opacity="0.8" stroke="none" stroke-width="0"/><path d="M303.1 125.9L306.7 129.5L303.1 133.1L299.5 129.5Z" fill="#2b3a7a" opacity="0.8" stroke="none" stroke-width="0"/><path d="M308.9 125.3L312.5 128.9L308.9 132.5L305.3 128.9Z" fill="#2b3a7a" opacity="0.8" stroke="none" stroke-width="0"/><path d="M314.3 124.8L317.9 128.4L314.3 132.0L310.7 128.4Z" fill="#2b3a7a" opacity="0.8" stroke="none" stroke-width="0"/><path d="M318.1 124.6L321.7 128.2L318.1 131.8L314.5 128.2Z" fill="#2b3a7a" opacity="0.8" stroke="none" stroke-width="0"/><path d="M335.3 124.4L338.9 128.0L335.3 131.6L331.7 128.0Z" fill="#2b3a7a" opacity="0.8" stroke="none" stroke-width="0"/><path d="M353.3 109.2L356.9 112.8L353.3 116.4L349.7 112.8Z" fill="#2b3a7a" opacity="0.8" stroke="none" stroke-width="0"/><path d="M361.8 108.0L365.4 111.6L361.8 115.2L358.2 111.6Z" fill="#2b3a7a" opacity="0.8" stroke="none" stroke-width="0"/><path d="M364.4 101.9L368.0 105.5L364.4 109.1L360.8 105.5Z" fill="#2b3a7a" opacity="0.8" stroke="none" stroke-width="0"/><path d="M364.8 104.9L368.4 108.5L364.8 112.1L361.2 108.5Z" fill="#2b3a7a" opacity="0.8" stroke="none" stroke-width="0"/><path d="M365.8 101.5L369.4 105.1L365.8 108.7L362.2 105.1Z" fill="#2b3a7a" opacity="0.8" stroke="none" stroke-width="0"/><path d="M367.0 100.2L370.6 103.8L367.0 107.4L363.4 103.8Z" fill="#2b3a7a" opacity="0.8" stroke="none" stroke-width="0"/><path d="M379.4 99.9L383.0 103.5L379.4 107.1L375.8 103.5Z" fill="#2b3a7a" opacity="0.8" stroke="none" stroke-width="0"/><path d="M402.8 86.0L406.4 89.6L402.8 93.2L399.2 89.6Z" fill="#2b3a7a" opacity="0.8" stroke="none" stroke-width="0"/><path d="M406.9 85.7L410.5 89.3L406.9 92.9L403.3 89.3Z" fill="#2b3a7a" opacity="0.8" stroke="none" stroke-width="0"/><path d="M407.7 84.0L411.3 87.6L407.7 91.2L404.1 87.6Z" fill="#2b3a7a" opacity="0.8" stroke="none" stroke-width="0"/><path d="M411.9 81.8L415.5 85.4L411.9 89.0L408.3 85.4Z" fill="#2b3a7a" opacity="0.8" stroke="none" stroke-width="0"/><path d="M425.0 80.8L428.6 84.4L425.0 88.0L421.4 84.4Z" fill="#2b3a7a" opacity="0.8" stroke="none" stroke-width="0"/><path d="M524.7 80.8L528.3 84.4L524.7 88.0L521.1 84.4Z" fill="#2b3a7a" opacity="0.8" stroke="none" stroke-width="0"/><path d="M773.0 72.2L776.6 75.8L773.0 79.4L769.4 75.8Z" fill="#2b3a7a" opacity="0.8" stroke="none" stroke-width="0"/><path d="M775.2 72.1L778.8 75.7L775.2 79.3L771.6 75.7Z" fill="#2b3a7a" opacity="0.8" stroke="none" stroke-width="0"/><path d="M777.8 71.7L781.4 75.3L777.8 78.9L774.2 75.3Z" fill="#2b3a7a" opacity="0.8" stroke="none" stroke-width="0"/><path d="M778.2 71.1L781.8 74.7L778.2 78.3L774.6 74.7Z" fill="#2b3a7a" opacity="0.8" stroke="none" stroke-width="0"/><path d="M780.5 71.1L784.1 74.7L780.5 78.3L776.9 74.7Z" fill="#2b3a7a" opacity="0.8" stroke="none" stroke-width="0"/><path d="M794.4 70.8L798.0 74.4L794.4 78.0L790.8 74.4Z" fill="#2b3a7a" opacity="0.8" stroke="none" stroke-width="0"/><path d="M813.5 70.3L817.1 73.9L813.5 77.5L809.9 73.9Z" fill="#2b3a7a" opacity="0.8" stroke="none" stroke-width="0"/><path d="M820.0 70.0L823.6 73.6L820.0 77.2L816.4 73.6Z" fill="#2b3a7a" opacity="0.8" stroke="none" stroke-width="0"/><path d="M920.6 69.8L924.2 73.4L920.6 77.0L917.0 73.4Z" fill="#2b3a7a" opacity="0.8" stroke="none" stroke-width="0"/><path d="M1006.5 69.8L1010.1 73.4L1006.5 77.0L1002.9 73.4Z" fill="#2b3a7a" opacity="0.8" stroke="none" stroke-width="0"/><path d="M60.0 335.3L63.1 335.3L63.1 335.1L67.4 335.1L67.4 320.7L75.9 320.7L75.9 319.9L79.1 319.9L79.1 315.3L80.0 315.3L80.0 314.9L81.3 314.9L81.3 314.9L132.3 314.9L132.3 238.7L133.2 238.7L133.2 229.0L134.0 229.0L134.0 222.3L135.0 222.3L135.0 220.6L135.2 220.6L135.2 220.5L135.7 220.5L135.7 214.2L137.7 214.2L137.7 214.1L138.2 214.1L138.2 213.7L138.6 213.7L138.6 213.5L139.2 213.5L139.2 212.7L141.7 212.7L141.7 212.1L142.4 212.1L142.4 212.0L149.2 212.0L149.2 206.7L156.8 206.7L156.8 204.9L159.6 204.9L159.6 204.6L161.5 204.6L161.5 201.9L164.9 201.9L164.9 201.8L166.6 201.8L166.6 201.0L167.6 201.0L167.6 200.0L172.6 200.0L172.6 200.0L174.6 200.0L174.6 199.7L191.3 199.7L191.3 195.5L203.7 195.5L203.7 187.4L204.1 187.4L204.1 186.2L204.9 186.2L204.9 184.5L226.7 184.5L226.7 183.9L237.4 183.9L237.4 169.3L241.0 169.3L241.0 168.8L241.3 168.8L241.3 167.7L243.3 167.7L243.3 165.0L244.1 165.0L244.1 163.7L244.4 163.7L244.4 163.6L248.9 163.6L248.9 155.9L254.6 155.9L254.6 155.8L256.7 155.8L256.7 141.9L261.2 141.9L261.2 141.8L262.8 141.8L262.8 131.7L264.3 131.7L264.3 130.9L265.0 130.9L265.0 129.5L303.1 129.5L303.1 129.5L308.9 129.5L308.9 128.9L314.3 128.9L314.3 128.4L318.1 128.4L318.1 128.2L335.3 128.2L335.3 128.0L353.3 128.0L353.3 112.8L357.3 112.8L357.3 110.2L364.4 110.2L364.4 105.5L365.8 105.5L365.8 105.1L367.0 105.1L367.0 103.8L379.4 103.8L379.4 103.5L402.8 103.5L402.8 89.6L406.9 89.6L406.9 89.3L407.7 89.3L407.7 87.6L411.9 87.6L411.9 85.4L425.0 85.4L425.0 84.4L524.7 84.4L524.7 84.4L773.0 84.4L773.0 75.8L775.2 75.8L775.2 75.7L777.8 75.7L777.8 75.3L778.2 75.3L778.2 74.7L780.5 74.7L780.5 74.7L794.4 74.7L794.4 74.4L813.5 74.4L813.5 73.9L820.0 73.9L820.0 73.6L830.3 73.6L830.3 69.8L834.8 69.8L834.8 69.1L1032.0 69.1" fill="none" stroke="#6675b0" stroke-width="1.6" stroke-dasharray="5 3" opacity="0.75"/><path d="M248.9 155.9L261.2 155.9L261.2 141.8L262.8 141.8L262.8 131.7L264.3 131.7L264.3 130.9L265.0 130.9L265.0 129.5L303.1 129.5L303.1 129.5L308.9 129.5L308.9 128.9L314.3 128.9L314.3 128.4L318.1 128.4L318.1 128.2L335.3 128.2L335.3 128.0L353.3 128.0L353.3 112.8L361.8 112.8L361.8 111.6L364.4 111.6L364.4 105.5L365.8 105.5L365.8 105.1L367.0 105.1L367.0 103.8L379.4 103.8L379.4 103.5L402.8 103.5L402.8 89.6L406.9 89.6L406.9 89.3L407.7 89.3L407.7 87.6L411.9 87.6L411.9 85.4L425.0 85.4L425.0 84.4L524.7 84.4L524.7 84.4L773.0 84.4L773.0 75.8L775.2 75.8L775.2 75.7L777.8 75.7L777.8 75.3L778.2 75.3L778.2 74.7L780.5 74.7L780.5 74.7L794.4 74.7L794.4 74.4L813.5 74.4L813.5 73.9L820.0 73.9L820.0 73.6L830.3 73.6L830.3 73.5L920.6 73.5L920.6 73.4L1006.5 73.4L1006.5 73.4L1032.0 73.4" fill="none" stroke="#2b3a7a" stroke-width="2.6"/><path d="M692.5 246.9L699.0 253.4L692.5 259.9L686.0 253.4Z" fill="#c5961a" opacity="1.0" stroke="#ffffff" stroke-width="1.4"/><path d="M816.1 206.5L822.6 213.0L816.1 219.5L809.6 213.0Z" fill="#c5961a" opacity="1.0" stroke="#ffffff" stroke-width="1.4"/><path d="M830.3 67.0L836.8 73.5L830.3 80.0L823.8 73.5Z" fill="#c5961a" opacity="1.0" stroke="#ffffff" stroke-width="1.4"/><path d="M936.2 240.8L942.7 247.3L936.2 253.8L929.7 247.3Z" fill="#c5961a" opacity="1.0" stroke="#ffffff" stroke-width="1.4"/><path d="M936.9 238.0L943.4 244.5L936.9 251.0L930.4 244.5Z" fill="#c5961a" opacity="1.0" stroke="#ffffff" stroke-width="1.4"/><text x="1042" y="67.1" font-size="11.5" fill="#6675b0">– – raw best 513.8</text><text x="1042" y="81.1" font-size="10" fill="#8a8fa3">unverified (pending)</text><path d="M1006.5 66.9L1013.0 73.4L1006.5 79.9L1000.0 73.4Z" fill="#2b3a7a" opacity="1.0" stroke="#ffffff" stroke-width="1.4"/><text x="1042" y="101.4" font-size="12.5" fill="#2b3a7a" font-weight="bold">◆ verified 507.0</text><text x="1042" y="117.4" font-size="10.5" fill="#3a3f55">top verified</text><text x="60" y="24" font-size="13" font-weight="bold" fill="#3a3f55" letter-spacing="1.2">SCORE EVOLUTION — gemma-challenge (tok/s)</text><circle cx="452" cy="20" r="3" fill="#b9bdca"/><text x="460" y="24" font-size="10.5" fill="#8a8fa3">all results</text><path d="M544.0 16.4L547.6 20.0L544.0 23.6L540.4 20.0Z" fill="#2b3a7a" opacity="1.0" stroke="none" stroke-width="0"/><text x="552" y="24" font-size="10.5" fill="#8a8fa3">verified</text><path d="M620.0 15.5L624.5 20.0L620.0 24.5L615.5 20.0Z" fill="#c5961a" opacity="1.0" stroke="#fff" stroke-width="1"/><text x="629" y="24" font-size="10.5" fill="#8a8fa3">mikasa-inbound (us)</text></svg>