<svg viewBox="0 0 1200 440" xmlns="http://www.w3.org/2000/svg" font-family="ui-sans-serif,system-ui,-apple-system,sans-serif"><rect x="0" y="0" width="1200" height="440" fill="#ffffff"/><rect x="60" y="46" width="972" height="350" fill="#f3f4fb"/><line x1="60" y1="396.0" x2="1032" y2="396.0" stroke="#e3e5ef" stroke-width="1"/><text x="52" y="400.0" text-anchor="end" font-size="11" fill="#8a8fa3">0</text><line x1="60" y1="332.4" x2="1032" y2="332.4" stroke="#e3e5ef" stroke-width="1"/><text x="52" y="336.4" text-anchor="end" font-size="11" fill="#8a8fa3">100</text><line x1="60" y1="268.7" x2="1032" y2="268.7" stroke="#e3e5ef" stroke-width="1"/><text x="52" y="272.7" text-anchor="end" font-size="11" fill="#8a8fa3">200</text><line x1="60" y1="205.1" x2="1032" y2="205.1" stroke="#e3e5ef" stroke-width="1"/><text x="52" y="209.1" text-anchor="end" font-size="11" fill="#8a8fa3">300</text><line x1="60" y1="141.5" x2="1032" y2="141.5" stroke="#e3e5ef" stroke-width="1"/><text x="52" y="145.5" text-anchor="end" font-size="11" fill="#8a8fa3">400</text><line x1="60" y1="77.8" x2="1032" y2="77.8" stroke="#e3e5ef" stroke-width="1"/><text x="52" y="81.8" text-anchor="end" font-size="11" fill="#8a8fa3">500</text><line x1="141.8" y1="46" x2="141.8" y2="396" stroke="#e3e5ef" stroke-width="1"/><text x="141.8" y="414.0" text-anchor="middle" font-size="11" fill="#8a8fa3">Jun 10</text><line x1="258.4" y1="46" x2="258.4" y2="396" stroke="#e3e5ef" stroke-width="1"/><text x="258.4" y="414.0" text-anchor="middle" font-size="11" fill="#8a8fa3">Jun 12</text><line x1="375.1" y1="46" x2="375.1" y2="396" stroke="#e3e5ef" stroke-width="1"/><text x="375.1" y="414.0" text-anchor="middle" font-size="11" fill="#8a8fa3">Jun 14</text><line x1="491.7" y1="46" x2="491.7" y2="396" stroke="#e3e5ef" stroke-width="1"/><text x="491.7" y="414.0" text-anchor="middle" font-size="11" fill="#8a8fa3">Jun 16</text><line x1="608.4" y1="46" x2="608.4" y2="396" stroke="#e3e5ef" stroke-width="1"/><text x="608.4" y="414.0" text-anchor="middle" font-size="11" fill="#8a8fa3">Jun 18</text><line x1="725.1" y1="46" x2="725.1" y2="396" stroke="#e3e5ef" stroke-width="1"/><text x="725.1" y="414.0" text-anchor="middle" font-size="11" fill="#8a8fa3">Jun 20</text><line x1="841.7" y1="46" x2="841.7" y2="396" stroke="#e3e5ef" stroke-width="1"/><text x="841.7" y="414.0" text-anchor="middle" font-size="11" fill="#8a8fa3">Jun 22</text><line x1="958.4" y1="46" x2="958.4" y2="396" stroke="#e3e5ef" stroke-width="1"/><text x="958.4" y="414.0" text-anchor="middle" font-size="11" fill="#8a8fa3">Jun 24</text><circle cx="60.0" cy="335.3" r="2.3" fill="#b9bdca" opacity="0.5"/><circle cx="62.8" cy="335.1" r="2.3" fill="#b9bdca" opacity="0.5"/><circle cx="65.6" cy="368.0" r="2.3" fill="#b9bdca" opacity="0.5"/><circle cx="66.7" cy="320.7" r="2.3" fill="#b9bdca" opacity="0.5"/><circle cx="74.5" cy="319.9" r="2.3" fill="#b9bdca" opacity="0.5"/><circle cx="74.9" cy="320.6" r="2.3" fill="#b9bdca" opacity="0.5"/><circle cx="77.4" cy="315.3" r="2.3" fill="#b9bdca" opacity="0.5"/><circle cx="77.9" cy="319.7" r="2.3" fill="#b9bdca" opacity="0.5"/><circle cx="78.2" cy="314.9" r="2.3" fill="#b9bdca" opacity="0.5"/><circle cx="79.1" cy="315.5" r="2.3" fill="#b9bdca" opacity="0.5"/><circle cx="79.4" cy="314.9" r="2.3" fill="#b9bdca" opacity="0.5"/><circle cx="80.2" cy="315.4" r="2.3" fill="#b9bdca" opacity="0.5"/><circle cx="81.7" cy="315.0" r="2.3" fill="#b9bdca" opacity="0.5"/><circle cx="125.9" cy="238.7" r="2.3" fill="#b9bdca" opacity="0.5"/><circle cx="126.2" cy="315.0" r="2.3" fill="#b9bdca" opacity="0.5"/><circle cx="126.6" cy="229.0" r="2.3" fill="#b9bdca" opacity="0.5"/><circle cx="127.4" cy="222.3" r="2.3" fill="#b9bdca" opacity="0.5"/><circle cx="128.0" cy="228.0" r="2.3" fill="#b9bdca" opacity="0.5"/><circle cx="128.2" cy="223.3" r="2.3" fill="#b9bdca" opacity="0.5"/><circle cx="128.3" cy="220.6" r="2.3" fill="#b9bdca" opacity="0.5"/><circle cx="128.5" cy="220.5" r="2.3" fill="#b9bdca" opacity="0.5"/><circle cx="128.6" cy="223.2" r="2.3" fill="#b9bdca" opacity="0.5"/><circle cx="129.0" cy="214.2" r="2.3" fill="#b9bdca" opacity="0.5"/><circle cx="129.1" cy="222.1" r="2.3" fill="#b9bdca" opacity="0.5"/><circle cx="129.4" cy="220.7" r="2.3" fill="#b9bdca" opacity="0.5"/><circle cx="129.9" cy="218.5" r="2.3" fill="#b9bdca" opacity="0.5"/><circle cx="130.0" cy="215.2" r="2.3" fill="#b9bdca" opacity="0.5"/><circle cx="130.4" cy="214.3" r="2.3" fill="#b9bdca" opacity="0.5"/><circle cx="130.4" cy="219.2" r="2.3" fill="#b9bdca" opacity="0.5"/><circle cx="130.7" cy="214.1" r="2.3" fill="#b9bdca" opacity="0.5"/><circle cx="131.0" cy="215.2" r="2.3" fill="#b9bdca" opacity="0.5"/><circle cx="131.2" cy="213.7" r="2.3" fill="#b9bdca" opacity="0.5"/><circle cx="131.6" cy="213.5" r="2.3" fill="#b9bdca" opacity="0.5"/><circle cx="131.9" cy="214.8" r="2.3" fill="#b9bdca" opacity="0.5"/><circle cx="131.9" cy="217.7" r="2.3" fill="#b9bdca" opacity="0.5"/><circle cx="132.1" cy="212.7" r="2.3" fill="#b9bdca" opacity="0.5"/><circle cx="132.8" cy="213.3" r="2.3" fill="#b9bdca" opacity="0.5"/><circle cx="133.6" cy="212.7" r="2.3" fill="#b9bdca" opacity="0.5"/><circle cx="133.6" cy="213.6" r="2.3" fill="#b9bdca" opacity="0.5"/><circle cx="133.9" cy="213.0" r="2.3" fill="#b9bdca" opacity="0.5"/><circle cx="134.4" cy="212.1" r="2.3" fill="#b9bdca" opacity="0.5"/><circle cx="134.5" cy="213.3" r="2.3" fill="#b9bdca" opacity="0.5"/><circle cx="135.0" cy="212.0" r="2.3" fill="#b9bdca" opacity="0.5"/><circle cx="135.9" cy="212.1" r="2.3" fill="#b9bdca" opacity="0.5"/><circle cx="135.9" cy="212.8" r="2.3" fill="#b9bdca" opacity="0.5"/><circle cx="141.2" cy="206.7" r="2.3" fill="#b9bdca" opacity="0.5"/><circle cx="141.9" cy="206.8" r="2.3" fill="#b9bdca" opacity="0.5"/><circle cx="141.9" cy="212.5" r="2.3" fill="#b9bdca" opacity="0.5"/><circle cx="142.4" cy="207.2" r="2.3" fill="#b9bdca" opacity="0.5"/><circle cx="144.1" cy="207.0" r="2.3" fill="#b9bdca" opacity="0.5"/><circle cx="148.1" cy="204.9" r="2.3" fill="#b9bdca" opacity="0.5"/><circle cx="150.7" cy="204.6" r="2.3" fill="#b9bdca" opacity="0.5"/><circle cx="151.0" cy="212.3" r="2.3" fill="#b9bdca" opacity="0.5"/><circle cx="151.4" cy="204.6" r="2.3" fill="#b9bdca" opacity="0.5"/><circle cx="151.4" cy="204.6" r="2.3" fill="#b9bdca" opacity="0.5"/><circle cx="151.4" cy="204.9" r="2.3" fill="#b9bdca" opacity="0.5"/><circle cx="151.4" cy="204.9" r="2.3" fill="#b9bdca" opacity="0.5"/><circle cx="152.4" cy="201.9" r="2.3" fill="#b9bdca" opacity="0.5"/><circle cx="154.1" cy="206.5" r="2.3" fill="#b9bdca" opacity="0.5"/><circle cx="154.7" cy="205.8" r="2.3" fill="#b9bdca" opacity="0.5"/><circle cx="154.7" cy="335.1" r="2.3" fill="#b9bdca" opacity="0.5"/><circle cx="155.6" cy="201.8" r="2.3" fill="#b9bdca" opacity="0.5"/><circle cx="155.6" cy="202.2" r="2.3" fill="#b9bdca" opacity="0.5"/><circle cx="157.1" cy="201.0" r="2.3" fill="#b9bdca" opacity="0.5"/><circle cx="157.7" cy="203.1" r="2.3" fill="#b9bdca" opacity="0.5"/><circle cx="158.0" cy="200.0" r="2.3" fill="#b9bdca" opacity="0.5"/><circle cx="158.1" cy="204.6" r="2.3" fill="#b9bdca" opacity="0.5"/><circle cx="159.0" cy="202.3" r="2.3" fill="#b9bdca" opacity="0.5"/><circle cx="161.0" cy="200.4" r="2.3" fill="#b9bdca" opacity="0.5"/><circle cx="161.7" cy="200.7" r="2.3" fill="#b9bdca" opacity="0.5"/><circle cx="162.5" cy="200.0" r="2.3" fill="#b9bdca" opacity="0.5"/><circle cx="164.3" cy="199.7" r="2.3" fill="#b9bdca" opacity="0.5"/><circle cx="175.5" cy="200.6" r="2.3" fill="#b9bdca" opacity="0.5"/><circle cx="176.5" cy="201.8" r="2.3" fill="#b9bdca" opacity="0.5"/><circle cx="178.0" cy="208.4" r="2.3" fill="#b9bdca" opacity="0.5"/><circle cx="178.0" cy="200.8" r="2.3" fill="#b9bdca" opacity="0.5"/><circle cx="179.1" cy="200.7" r="2.3" fill="#b9bdca" opacity="0.5"/><circle cx="179.1" cy="201.9" r="2.3" fill="#b9bdca" opacity="0.5"/><circle cx="179.5" cy="195.5" r="2.3" fill="#b9bdca" opacity="0.5"/><circle cx="180.5" cy="196.9" r="2.3" fill="#b9bdca" opacity="0.5"/><circle cx="181.1" cy="197.9" r="2.3" fill="#b9bdca" opacity="0.5"/><circle cx="182.0" cy="196.1" r="2.3" fill="#b9bdca" opacity="0.5"/><circle cx="185.5" cy="197.3" r="2.3" fill="#b9bdca" opacity="0.5"/><circle cx="186.4" cy="195.9" r="2.3" fill="#b9bdca" opacity="0.5"/><circle cx="186.7" cy="201.0" r="2.3" fill="#b9bdca" opacity="0.5"/><circle cx="187.0" cy="197.5" r="2.3" fill="#b9bdca" opacity="0.5"/><circle cx="187.8" cy="196.9" r="2.3" fill="#b9bdca" opacity="0.5"/><circle cx="187.8" cy="197.1" r="2.3" fill="#b9bdca" opacity="0.5"/><circle cx="187.9" cy="197.0" r="2.3" fill="#b9bdca" opacity="0.5"/><circle cx="188.7" cy="196.0" r="2.3" fill="#b9bdca" opacity="0.5"/><circle cx="188.7" cy="196.0" r="2.3" fill="#b9bdca" opacity="0.5"/><circle cx="188.8" cy="197.9" r="2.3" fill="#b9bdca" opacity="0.5"/><circle cx="189.3" cy="197.8" r="2.3" fill="#b9bdca" opacity="0.5"/><circle cx="189.8" cy="196.2" r="2.3" fill="#b9bdca" opacity="0.5"/><circle cx="189.9" cy="197.5" r="2.3" fill="#b9bdca" opacity="0.5"/><circle cx="190.0" cy="196.9" r="2.3" fill="#b9bdca" opacity="0.5"/><circle cx="190.1" cy="195.5" r="2.3" fill="#b9bdca" opacity="0.5"/><circle cx="190.8" cy="198.1" r="2.3" fill="#b9bdca" opacity="0.5"/><circle cx="190.9" cy="187.4" r="2.3" fill="#b9bdca" opacity="0.5"/><circle cx="191.2" cy="186.2" r="2.3" fill="#b9bdca" opacity="0.5"/><circle cx="191.2" cy="196.3" r="2.3" fill="#b9bdca" opacity="0.5"/><circle cx="191.2" cy="197.2" r="2.3" fill="#b9bdca" opacity="0.5"/><circle cx="191.2" cy="197.8" r="2.3" fill="#b9bdca" opacity="0.5"/><circle cx="191.2" cy="368.0" r="2.3" fill="#b9bdca" opacity="0.5"/><circle cx="192.0" cy="184.5" r="2.3" fill="#b9bdca" opacity="0.5"/><circle cx="195.0" cy="184.6" r="2.3" fill="#b9bdca" opacity="0.5"/><circle cx="196.3" cy="185.6" r="2.3" fill="#b9bdca" opacity="0.5"/><circle cx="200.6" cy="188.7" r="2.3" fill="#b9bdca" opacity="0.5"/><circle cx="206.5" cy="185.4" r="2.3" fill="#b9bdca" opacity="0.5"/><circle cx="207.8" cy="185.2" r="2.3" fill="#b9bdca" opacity="0.5"/><circle cx="208.3" cy="186.6" r="2.3" fill="#b9bdca" opacity="0.5"/><circle cx="208.5" cy="185.3" r="2.3" fill="#b9bdca" opacity="0.5"/><circle cx="209.5" cy="185.3" r="2.3" fill="#b9bdca" opacity="0.5"/><circle cx="209.9" cy="185.0" r="2.3" fill="#b9bdca" opacity="0.5"/><circle cx="211.0" cy="184.9" r="2.3" fill="#b9bdca" opacity="0.5"/><circle cx="211.7" cy="185.1" r="2.3" fill="#b9bdca" opacity="0.5"/><circle cx="211.7" cy="185.2" r="2.3" fill="#b9bdca" opacity="0.5"/><circle cx="211.7" cy="186.4" r="2.3" fill="#b9bdca" opacity="0.5"/><circle cx="211.8" cy="183.9" r="2.3" fill="#b9bdca" opacity="0.5"/><circle cx="217.2" cy="184.4" r="2.3" fill="#b9bdca" opacity="0.5"/><circle cx="218.1" cy="184.2" r="2.3" fill="#b9bdca" opacity="0.5"/><circle cx="221.6" cy="169.3" r="2.3" fill="#b9bdca" opacity="0.5"/><circle cx="224.9" cy="168.8" r="2.3" fill="#b9bdca" opacity="0.5"/><circle cx="225.1" cy="167.7" r="2.3" fill="#b9bdca" opacity="0.5"/><circle cx="226.5" cy="201.4" r="2.3" fill="#b9bdca" opacity="0.5"/><circle cx="227.0" cy="165.0" r="2.3" fill="#b9bdca" opacity="0.5"/><circle cx="227.2" cy="198.2" r="2.3" fill="#b9bdca" opacity="0.5"/><circle cx="227.7" cy="163.7" r="2.3" fill="#b9bdca" opacity="0.5"/><circle cx="227.9" cy="163.6" r="2.3" fill="#b9bdca" opacity="0.5"/><circle cx="228.5" cy="165.9" r="2.3" fill="#b9bdca" opacity="0.5"/><circle cx="231.4" cy="165.1" r="2.3" fill="#b9bdca" opacity="0.5"/><circle cx="232.1" cy="155.9" r="2.3" fill="#b9bdca" opacity="0.5"/><circle cx="234.9" cy="196.5" r="2.3" fill="#b9bdca" opacity="0.5"/><circle cx="236.1" cy="157.4" r="2.3" fill="#b9bdca" opacity="0.5"/><circle cx="237.2" cy="155.8" r="2.3" fill="#b9bdca" opacity="0.5"/><circle cx="239.1" cy="141.9" r="2.3" fill="#b9bdca" opacity="0.5"/><circle cx="243.0" cy="156.1" r="2.3" fill="#b9bdca" opacity="0.5"/><circle cx="243.0" cy="156.4" r="2.3" fill="#b9bdca" opacity="0.5"/><circle cx="243.2" cy="141.8" r="2.3" fill="#b9bdca" opacity="0.5"/><circle cx="243.4" cy="196.0" r="2.3" fill="#b9bdca" opacity="0.5"/><circle cx="244.7" cy="131.7" r="2.3" fill="#b9bdca" opacity="0.5"/><circle cx="244.9" cy="134.1" r="2.3" fill="#b9bdca" opacity="0.5"/><circle cx="245.3" cy="141.1" r="2.3" fill="#b9bdca" opacity="0.5"/><circle cx="246.0" cy="134.0" r="2.3" fill="#b9bdca" opacity="0.5"/><circle cx="246.1" cy="130.9" r="2.3" fill="#b9bdca" opacity="0.5"/><circle cx="246.1" cy="154.2" r="2.3" fill="#b9bdca" opacity="0.5"/><circle cx="246.4" cy="133.6" r="2.3" fill="#b9bdca" opacity="0.5"/><circle cx="246.6" cy="129.5" r="2.3" fill="#b9bdca" opacity="0.5"/><circle cx="246.7" cy="130.9" r="2.3" fill="#b9bdca" opacity="0.5"/><circle cx="246.7" cy="133.4" r="2.3" fill="#b9bdca" opacity="0.5"/><circle cx="247.0" cy="131.2" r="2.3" fill="#b9bdca" opacity="0.5"/><circle cx="249.4" cy="189.8" r="2.3" fill="#b9bdca" opacity="0.5"/><circle cx="249.5" cy="133.2" r="2.3" fill="#b9bdca" opacity="0.5"/><circle cx="249.9" cy="133.5" r="2.3" fill="#b9bdca" opacity="0.5"/><circle cx="250.8" cy="130.1" r="2.3" fill="#b9bdca" opacity="0.5"/><circle cx="253.2" cy="130.3" r="2.3" fill="#b9bdca" opacity="0.5"/><circle cx="254.3" cy="303.1" r="2.3" fill="#b9bdca" opacity="0.5"/><circle cx="256.2" cy="133.2" r="2.3" fill="#b9bdca" opacity="0.5"/><circle cx="258.8" cy="144.2" r="2.3" fill="#b9bdca" opacity="0.5"/><circle cx="259.4" cy="135.3" r="2.3" fill="#b9bdca" opacity="0.5"/><circle cx="261.0" cy="133.4" r="2.3" fill="#b9bdca" opacity="0.5"/><circle cx="261.2" cy="159.9" r="2.3" fill="#b9bdca" opacity="0.5"/><circle cx="261.6" cy="130.8" r="2.3" fill="#b9bdca" opacity="0.5"/><circle cx="262.2" cy="133.2" r="2.3" fill="#b9bdca" opacity="0.5"/><circle cx="268.1" cy="130.9" r="2.3" fill="#b9bdca" opacity="0.5"/><circle cx="268.8" cy="130.9" r="2.3" fill="#b9bdca" opacity="0.5"/><circle cx="268.8" cy="133.8" r="2.3" fill="#b9bdca" opacity="0.5"/><circle cx="269.8" cy="130.4" r="2.3" fill="#b9bdca" opacity="0.5"/><circle cx="270.4" cy="153.7" r="2.3" fill="#b9bdca" opacity="0.5"/><circle cx="271.5" cy="133.3" r="2.3" fill="#b9bdca" opacity="0.5"/><circle cx="273.3" cy="156.5" r="2.3" fill="#b9bdca" opacity="0.5"/><circle cx="273.7" cy="132.3" r="2.3" fill="#b9bdca" opacity="0.5"/><circle cx="275.9" cy="147.2" r="2.3" fill="#b9bdca" opacity="0.5"/><circle cx="276.3" cy="133.6" r="2.3" fill="#b9bdca" opacity="0.5"/><circle cx="277.0" cy="129.5" r="2.3" fill="#b9bdca" opacity="0.5"/><circle cx="277.0" cy="133.3" r="2.3" fill="#b9bdca" opacity="0.5"/><circle cx="279.7" cy="133.3" r="2.3" fill="#b9bdca" opacity="0.5"/><circle cx="281.4" cy="129.5" r="2.3" fill="#b9bdca" opacity="0.5"/><circle cx="284.4" cy="130.6" r="2.3" fill="#b9bdca" opacity="0.5"/><circle cx="286.6" cy="128.9" r="2.3" fill="#b9bdca" opacity="0.5"/><circle cx="287.1" cy="132.7" r="2.3" fill="#b9bdca" opacity="0.5"/><circle cx="287.1" cy="133.1" r="2.3" fill="#b9bdca" opacity="0.5"/><circle cx="290.4" cy="129.8" r="2.3" fill="#b9bdca" opacity="0.5"/><circle cx="291.3" cy="333.8" r="2.3" fill="#b9bdca" opacity="0.5"/><circle cx="291.6" cy="128.4" r="2.3" fill="#b9bdca" opacity="0.5"/><circle cx="293.1" cy="129.8" r="2.3" fill="#b9bdca" opacity="0.5"/><circle cx="293.8" cy="128.9" r="2.3" fill="#b9bdca" opacity="0.5"/><circle cx="293.9" cy="128.9" r="2.3" fill="#b9bdca" opacity="0.5"/><circle cx="295.1" cy="128.2" r="2.3" fill="#b9bdca" opacity="0.5"/><circle cx="295.9" cy="129.7" r="2.3" fill="#b9bdca" opacity="0.5"/><circle cx="296.2" cy="142.3" r="2.3" fill="#b9bdca" opacity="0.5"/><circle cx="299.3" cy="128.8" r="2.3" fill="#b9bdca" opacity="0.5"/><circle cx="301.2" cy="161.1" r="2.3" fill="#b9bdca" opacity="0.5"/><circle cx="304.8" cy="164.4" r="2.3" fill="#b9bdca" opacity="0.5"/><circle cx="305.1" cy="248.3" r="2.3" fill="#b9bdca" opacity="0.5"/><circle cx="310.3" cy="135.4" r="2.3" fill="#b9bdca" opacity="0.5"/><circle cx="310.7" cy="128.0" r="2.3" fill="#b9bdca" opacity="0.5"/><circle cx="312.3" cy="229.0" r="2.3" fill="#b9bdca" opacity="0.5"/><circle cx="315.9" cy="128.1" r="2.3" fill="#b9bdca" opacity="0.5"/><circle cx="316.8" cy="128.6" r="2.3" fill="#b9bdca" opacity="0.5"/><circle cx="320.1" cy="128.8" r="2.3" fill="#b9bdca" opacity="0.5"/><circle cx="320.1" cy="129.6" r="2.3" fill="#b9bdca" opacity="0.5"/><circle cx="320.1" cy="130.9" r="2.3" fill="#b9bdca" opacity="0.5"/><circle cx="327.1" cy="112.8" r="2.3" fill="#b9bdca" opacity="0.5"/><circle cx="330.8" cy="110.2" r="2.3" fill="#b9bdca" opacity="0.5"/><circle cx="330.9" cy="111.6" r="2.3" fill="#b9bdca" opacity="0.5"/><circle cx="333.2" cy="111.0" r="2.3" fill="#b9bdca" opacity="0.5"/><circle cx="334.3" cy="335.1" r="2.3" fill="#b9bdca" opacity="0.5"/><circle cx="334.9" cy="111.6" r="2.3" fill="#b9bdca" opacity="0.5"/><circle cx="337.2" cy="105.5" r="2.3" fill="#b9bdca" opacity="0.5"/><circle cx="337.5" cy="108.5" r="2.3" fill="#b9bdca" opacity="0.5"/><circle cx="338.5" cy="105.1" r="2.3" fill="#b9bdca" opacity="0.5"/><circle cx="339.6" cy="103.8" r="2.3" fill="#b9bdca" opacity="0.5"/><circle cx="340.8" cy="125.8" r="2.3" fill="#b9bdca" opacity="0.5"/><circle cx="350.9" cy="103.5" r="2.3" fill="#b9bdca" opacity="0.5"/><circle cx="353.5" cy="127.8" r="2.3" fill="#b9bdca" opacity="0.5"/><circle cx="354.6" cy="334.3" r="2.3" fill="#b9bdca" opacity="0.5"/><circle cx="356.2" cy="128.6" r="2.3" fill="#b9bdca" opacity="0.5"/><circle cx="356.9" cy="128.6" r="2.3" fill="#b9bdca" opacity="0.5"/><circle cx="357.1" cy="128.6" r="2.3" fill="#b9bdca" opacity="0.5"/><circle cx="358.0" cy="256.6" r="2.3" fill="#b9bdca" opacity="0.5"/><circle cx="359.1" cy="254.6" r="2.3" fill="#b9bdca" opacity="0.5"/><circle cx="361.0" cy="128.6" r="2.3" fill="#b9bdca" opacity="0.5"/><circle cx="365.6" cy="250.1" r="2.3" fill="#b9bdca" opacity="0.5"/><circle cx="366.0" cy="161.4" r="2.3" fill="#b9bdca" opacity="0.5"/><circle cx="366.5" cy="206.6" r="2.3" fill="#b9bdca" opacity="0.5"/><circle cx="370.8" cy="113.5" r="2.3" fill="#b9bdca" opacity="0.5"/><circle cx="372.2" cy="89.6" r="2.3" fill="#b9bdca" opacity="0.5"/><circle cx="373.3" cy="90.2" r="2.3" fill="#b9bdca" opacity="0.5"/><circle cx="375.9" cy="89.3" r="2.3" fill="#b9bdca" opacity="0.5"/><circle cx="376.7" cy="87.6" r="2.3" fill="#b9bdca" opacity="0.5"/><circle cx="377.6" cy="185.0" r="2.3" fill="#b9bdca" opacity="0.5"/><circle cx="378.5" cy="131.6" r="2.3" fill="#b9bdca" opacity="0.5"/><circle cx="379.3" cy="87.8" r="2.3" fill="#b9bdca" opacity="0.5"/><circle cx="380.5" cy="85.4" r="2.3" fill="#b9bdca" opacity="0.5"/><circle cx="382.4" cy="86.8" r="2.3" fill="#b9bdca" opacity="0.5"/><circle cx="384.3" cy="88.4" r="2.3" fill="#b9bdca" opacity="0.5"/><circle cx="392.3" cy="89.5" r="2.3" fill="#b9bdca" opacity="0.5"/><circle cx="392.3" cy="155.6" r="2.3" fill="#b9bdca" opacity="0.5"/><circle cx="392.4" cy="84.4" r="2.3" fill="#b9bdca" opacity="0.5"/><circle cx="401.9" cy="89.2" r="2.3" fill="#b9bdca" opacity="0.5"/><circle cx="402.1" cy="90.5" r="2.3" fill="#b9bdca" opacity="0.5"/><circle cx="404.8" cy="87.7" r="2.3" fill="#b9bdca" opacity="0.5"/><circle cx="405.7" cy="367.9" r="2.3" fill="#b9bdca" opacity="0.5"/><circle cx="409.6" cy="164.3" r="2.3" fill="#b9bdca" opacity="0.5"/><circle cx="411.5" cy="94.6" r="2.3" fill="#b9bdca" opacity="0.5"/><circle cx="412.3" cy="89.6" r="2.3" fill="#b9bdca" opacity="0.5"/><circle cx="420.5" cy="124.6" r="2.3" fill="#b9bdca" opacity="0.5"/><circle cx="429.3" cy="146.2" r="2.3" fill="#b9bdca" opacity="0.5"/><circle cx="429.5" cy="90.5" r="2.3" fill="#b9bdca" opacity="0.5"/><circle cx="430.3" cy="87.7" r="2.3" fill="#b9bdca" opacity="0.5"/><circle cx="430.8" cy="87.7" r="2.3" fill="#b9bdca" opacity="0.5"/><circle cx="430.8" cy="89.6" r="2.3" fill="#b9bdca" opacity="0.5"/><circle cx="437.1" cy="93.0" r="2.3" fill="#b9bdca" opacity="0.5"/><circle cx="439.3" cy="85.5" r="2.3" fill="#b9bdca" opacity="0.5"/><circle cx="457.8" cy="334.8" r="2.3" fill="#b9bdca" opacity="0.5"/><circle cx="459.9" cy="86.3" r="2.3" fill="#b9bdca" opacity="0.5"/><circle cx="466.1" cy="85.5" r="2.3" fill="#b9bdca" opacity="0.5"/><circle cx="467.2" cy="84.6" r="2.3" fill="#b9bdca" opacity="0.5"/><circle cx="469.8" cy="87.8" r="2.3" fill="#b9bdca" opacity="0.5"/><circle cx="470.8" cy="84.4" r="2.3" fill="#b9bdca" opacity="0.5"/><circle cx="471.5" cy="84.8" r="2.3" fill="#b9bdca" opacity="0.5"/><circle cx="473.3" cy="87.4" r="2.3" fill="#b9bdca" opacity="0.5"/><circle cx="483.2" cy="84.4" r="2.3" fill="#b9bdca" opacity="0.5"/><circle cx="526.7" cy="89.3" r="2.3" fill="#b9bdca" opacity="0.5"/><circle cx="534.6" cy="88.6" r="2.3" fill="#b9bdca" opacity="0.5"/><circle cx="534.6" cy="92.1" r="2.3" fill="#b9bdca" opacity="0.5"/><circle cx="536.3" cy="156.8" r="2.3" fill="#b9bdca" opacity="0.5"/><circle cx="561.4" cy="201.6" r="2.3" fill="#b9bdca" opacity="0.5"/><circle cx="579.7" cy="315.6" r="2.3" fill="#b9bdca" opacity="0.5"/><circle cx="629.9" cy="87.7" r="2.3" fill="#b9bdca" opacity="0.5"/><circle cx="645.1" cy="87.6" r="2.3" fill="#b9bdca" opacity="0.5"/><circle cx="658.6" cy="87.2" r="2.3" fill="#b9bdca" opacity="0.5"/><circle cx="661.7" cy="88.8" r="2.3" fill="#b9bdca" opacity="0.5"/><circle cx="662.8" cy="89.2" r="2.3" fill="#b9bdca" opacity="0.5"/><circle cx="663.5" cy="90.9" r="2.3" fill="#b9bdca" opacity="0.5"/><circle cx="667.4" cy="87.7" r="2.3" fill="#b9bdca" opacity="0.5"/><circle cx="680.9" cy="88.6" r="2.3" fill="#b9bdca" opacity="0.5"/><circle cx="682.7" cy="89.7" r="2.3" fill="#b9bdca" opacity="0.5"/><circle cx="683.9" cy="88.2" r="2.3" fill="#b9bdca" opacity="0.5"/><circle cx="709.3" cy="75.8" r="2.3" fill="#b9bdca" opacity="0.5"/><circle cx="711.3" cy="75.7" r="2.3" fill="#b9bdca" opacity="0.5"/><circle cx="712.7" cy="76.7" r="2.3" fill="#b9bdca" opacity="0.5"/><circle cx="712.9" cy="75.8" r="2.3" fill="#b9bdca" opacity="0.5"/><circle cx="713.6" cy="75.3" r="2.3" fill="#b9bdca" opacity="0.5"/><circle cx="714.0" cy="74.7" r="2.3" fill="#b9bdca" opacity="0.5"/><circle cx="714.3" cy="83.4" r="2.3" fill="#b9bdca" opacity="0.5"/><circle cx="714.9" cy="76.2" r="2.3" fill="#b9bdca" opacity="0.5"/><circle cx="715.5" cy="78.1" r="2.3" fill="#b9bdca" opacity="0.5"/><circle cx="716.1" cy="74.7" r="2.3" fill="#b9bdca" opacity="0.5"/><circle cx="720.3" cy="89.3" r="2.3" fill="#b9bdca" opacity="0.5"/><circle cx="728.8" cy="74.4" r="2.3" fill="#b9bdca" opacity="0.5"/><circle cx="742.3" cy="74.4" r="2.3" fill="#b9bdca" opacity="0.5"/><circle cx="744.5" cy="335.1" r="2.3" fill="#b9bdca" opacity="0.5"/><circle cx="744.5" cy="81.7" r="2.3" fill="#b9bdca" opacity="0.5"/><circle cx="746.2" cy="74.6" r="2.3" fill="#b9bdca" opacity="0.5"/><circle cx="746.2" cy="82.1" r="2.3" fill="#b9bdca" opacity="0.5"/><circle cx="746.2" cy="73.9" r="2.3" fill="#b9bdca" opacity="0.5"/><circle cx="750.0" cy="76.2" r="2.3" fill="#b9bdca" opacity="0.5"/><circle cx="750.7" cy="82.1" r="2.3" fill="#b9bdca" opacity="0.5"/><circle cx="751.2" cy="74.2" r="2.3" fill="#b9bdca" opacity="0.5"/><circle cx="751.3" cy="75.0" r="2.3" fill="#b9bdca" opacity="0.5"/><circle cx="752.1" cy="73.6" r="2.3" fill="#b9bdca" opacity="0.5"/><circle cx="752.1" cy="83.3" r="2.3" fill="#b9bdca" opacity="0.5"/><circle cx="752.1" cy="83.8" r="2.3" fill="#b9bdca" opacity="0.5"/><circle cx="752.2" cy="78.1" r="2.3" fill="#b9bdca" opacity="0.5"/><circle cx="752.2" cy="81.5" r="2.3" fill="#b9bdca" opacity="0.5"/><circle cx="752.2" cy="83.0" r="2.3" fill="#b9bdca" opacity="0.5"/><circle cx="752.2" cy="83.7" r="2.3" fill="#b9bdca" opacity="0.5"/><circle cx="757.5" cy="82.7" r="2.3" fill="#b9bdca" opacity="0.5"/><circle cx="758.7" cy="77.8" r="2.3" fill="#b9bdca" opacity="0.5"/><circle cx="761.5" cy="69.8" r="2.3" fill="#b9bdca" opacity="0.5"/><circle cx="762.4" cy="75.9" r="2.3" fill="#b9bdca" opacity="0.5"/><circle cx="762.8" cy="74.3" r="2.3" fill="#b9bdca" opacity="0.5"/><circle cx="762.8" cy="77.4" r="2.3" fill="#b9bdca" opacity="0.5"/><circle cx="762.8" cy="80.6" r="2.3" fill="#b9bdca" opacity="0.5"/><circle cx="762.8" cy="81.8" r="2.3" fill="#b9bdca" opacity="0.5"/><circle cx="764.7" cy="76.9" r="2.3" fill="#b9bdca" opacity="0.5"/><circle cx="764.7" cy="82.8" r="2.3" fill="#b9bdca" opacity="0.5"/><circle cx="764.7" cy="83.0" r="2.3" fill="#b9bdca" opacity="0.5"/><circle cx="764.7" cy="83.1" r="2.3" fill="#b9bdca" opacity="0.5"/><circle cx="765.6" cy="69.1" r="2.3" fill="#b9bdca" opacity="0.5"/><circle cx="767.8" cy="75.5" r="2.3" fill="#b9bdca" opacity="0.5"/><circle cx="769.0" cy="74.3" r="2.3" fill="#b9bdca" opacity="0.5"/><circle cx="803.2" cy="74.0" r="2.3" fill="#b9bdca" opacity="0.5"/><circle cx="843.7" cy="73.4" r="2.3" fill="#b9bdca" opacity="0.5"/><circle cx="844.1" cy="75.9" r="2.3" fill="#b9bdca" opacity="0.5"/><circle cx="844.1" cy="76.3" r="2.3" fill="#b9bdca" opacity="0.5"/><circle cx="844.4" cy="76.0" r="2.3" fill="#b9bdca" opacity="0.5"/><circle cx="844.4" cy="76.8" r="2.3" fill="#b9bdca" opacity="0.5"/><circle cx="844.4" cy="81.2" r="2.3" fill="#b9bdca" opacity="0.5"/><circle cx="844.4" cy="83.4" r="2.3" fill="#b9bdca" opacity="0.5"/><circle cx="873.1" cy="76.6" r="2.3" fill="#b9bdca" opacity="0.5"/><circle cx="875.0" cy="76.7" r="2.3" fill="#b9bdca" opacity="0.5"/><circle cx="875.0" cy="82.8" r="2.3" fill="#b9bdca" opacity="0.5"/><circle cx="875.0" cy="82.8" r="2.3" fill="#b9bdca" opacity="0.5"/><circle cx="875.0" cy="83.3" r="2.3" fill="#b9bdca" opacity="0.5"/><circle cx="881.0" cy="233.4" r="2.3" fill="#b9bdca" opacity="0.5"/><circle cx="882.8" cy="228.9" r="2.3" fill="#b9bdca" opacity="0.5"/><circle cx="884.6" cy="198.3" r="2.3" fill="#b9bdca" opacity="0.5"/><circle cx="921.9" cy="73.4" r="2.3" fill="#b9bdca" opacity="0.5"/><circle cx="932.4" cy="192.4" r="2.3" fill="#b9bdca" opacity="0.5"/><circle cx="936.0" cy="75.3" r="2.3" fill="#b9bdca" opacity="0.5"/><circle cx="937.0" cy="74.0" r="2.3" fill="#b9bdca" opacity="0.5"/><circle cx="939.3" cy="194.4" r="2.3" fill="#b9bdca" opacity="0.5"/><circle cx="942.9" cy="168.6" r="2.3" fill="#b9bdca" opacity="0.5"/><circle cx="945.2" cy="77.1" r="2.3" fill="#b9bdca" opacity="0.5"/><circle cx="945.2" cy="99.5" r="2.3" fill="#b9bdca" opacity="0.5"/><circle cx="974.0" cy="71.4" r="2.3" fill="#b9bdca" opacity="0.5"/><circle cx="974.0" cy="73.5" r="2.3" fill="#b9bdca" opacity="0.5"/><circle cx="984.2" cy="72.4" r="2.3" fill="#b9bdca" opacity="0.5"/><circle cx="1026.3" cy="83.0" r="2.3" fill="#b9bdca" opacity="0.5"/><circle cx="1026.9" cy="72.1" r="2.3" fill="#b9bdca" opacity="0.5"/><circle cx="1027.5" cy="71.6" r="2.3" fill="#b9bdca" opacity="0.5"/><circle cx="1028.7" cy="75.5" r="2.3" fill="#b9bdca" opacity="0.5"/><circle cx="1029.5" cy="73.7" r="2.3" fill="#b9bdca" opacity="0.5"/><circle cx="1031.2" cy="72.9" r="2.3" fill="#b9bdca" opacity="0.5"/><circle cx="1032.0" cy="73.4" r="2.3" fill="#b9bdca" opacity="0.5"/><path d="M232.1 152.3L235.7 155.9L232.1 159.5L228.5 155.9Z" fill="#2b3a7a" opacity="0.8" stroke="none" stroke-width="0"/><path d="M243.2 138.2L246.8 141.8L243.2 145.4L239.6 141.8Z" fill="#2b3a7a" opacity="0.8" stroke="none" stroke-width="0"/><path d="M244.7 128.1L248.3 131.7L244.7 135.3L241.1 131.7Z" fill="#2b3a7a" opacity="0.8" stroke="none" stroke-width="0"/><path d="M244.9 130.5L248.5 134.1L244.9 137.7L241.3 134.1Z" fill="#2b3a7a" opacity="0.8" stroke="none" stroke-width="0"/><path d="M246.1 127.3L249.7 130.9L246.1 134.5L242.5 130.9Z" fill="#2b3a7a" opacity="0.8" stroke="none" stroke-width="0"/><path d="M246.6 125.9L250.2 129.5L246.6 133.1L243.0 129.5Z" fill="#2b3a7a" opacity="0.8" stroke="none" stroke-width="0"/><path d="M246.7 127.3L250.3 130.9L246.7 134.5L243.1 130.9Z" fill="#2b3a7a" opacity="0.8" stroke="none" stroke-width="0"/><path d="M281.4 125.9L285.0 129.5L281.4 133.1L277.8 129.5Z" fill="#2b3a7a" opacity="0.8" stroke="none" stroke-width="0"/><path d="M286.6 125.3L290.2 128.9L286.6 132.5L283.0 128.9Z" fill="#2b3a7a" opacity="0.8" stroke="none" stroke-width="0"/><path d="M291.6 124.8L295.2 128.4L291.6 132.0L288.0 128.4Z" fill="#2b3a7a" opacity="0.8" stroke="none" stroke-width="0"/><path d="M295.1 124.6L298.7 128.2L295.1 131.8L291.5 128.2Z" fill="#2b3a7a" opacity="0.8" stroke="none" stroke-width="0"/><path d="M310.7 124.4L314.3 128.0L310.7 131.6L307.1 128.0Z" fill="#2b3a7a" opacity="0.8" stroke="none" stroke-width="0"/><path d="M327.1 109.2L330.7 112.8L327.1 116.4L323.5 112.8Z" fill="#2b3a7a" opacity="0.8" stroke="none" stroke-width="0"/><path d="M334.9 108.0L338.5 111.6L334.9 115.2L331.3 111.6Z" fill="#2b3a7a" opacity="0.8" stroke="none" stroke-width="0"/><path d="M337.2 101.9L340.8 105.5L337.2 109.1L333.6 105.5Z" fill="#2b3a7a" opacity="0.8" stroke="none" stroke-width="0"/><path d="M337.5 104.9L341.1 108.5L337.5 112.1L333.9 108.5Z" fill="#2b3a7a" opacity="0.8" stroke="none" stroke-width="0"/><path d="M338.5 101.5L342.1 105.1L338.5 108.7L334.9 105.1Z" fill="#2b3a7a" opacity="0.8" stroke="none" stroke-width="0"/><path d="M339.6 100.2L343.2 103.8L339.6 107.4L336.0 103.8Z" fill="#2b3a7a" opacity="0.8" stroke="none" stroke-width="0"/><path d="M350.9 99.9L354.5 103.5L350.9 107.1L347.3 103.5Z" fill="#2b3a7a" opacity="0.8" stroke="none" stroke-width="0"/><path d="M372.2 86.0L375.8 89.6L372.2 93.2L368.6 89.6Z" fill="#2b3a7a" opacity="0.8" stroke="none" stroke-width="0"/><path d="M375.9 85.7L379.5 89.3L375.9 92.9L372.3 89.3Z" fill="#2b3a7a" opacity="0.8" stroke="none" stroke-width="0"/><path d="M376.7 84.0L380.3 87.6L376.7 91.2L373.1 87.6Z" fill="#2b3a7a" opacity="0.8" stroke="none" stroke-width="0"/><path d="M380.5 81.8L384.1 85.4L380.5 89.0L376.9 85.4Z" fill="#2b3a7a" opacity="0.8" stroke="none" stroke-width="0"/><path d="M392.4 80.8L396.0 84.4L392.4 88.0L388.8 84.4Z" fill="#2b3a7a" opacity="0.8" stroke="none" stroke-width="0"/><path d="M483.2 80.8L486.8 84.4L483.2 88.0L479.6 84.4Z" fill="#2b3a7a" opacity="0.8" stroke="none" stroke-width="0"/><path d="M709.3 72.2L712.9 75.8L709.3 79.4L705.7 75.8Z" fill="#2b3a7a" opacity="0.8" stroke="none" stroke-width="0"/><path d="M711.3 72.1L714.9 75.7L711.3 79.3L707.7 75.7Z" fill="#2b3a7a" opacity="0.8" stroke="none" stroke-width="0"/><path d="M713.6 71.7L717.2 75.3L713.6 78.9L710.0 75.3Z" fill="#2b3a7a" opacity="0.8" stroke="none" stroke-width="0"/><path d="M714.0 71.1L717.6 74.7L714.0 78.3L710.4 74.7Z" fill="#2b3a7a" opacity="0.8" stroke="none" stroke-width="0"/><path d="M716.1 71.1L719.7 74.7L716.1 78.3L712.5 74.7Z" fill="#2b3a7a" opacity="0.8" stroke="none" stroke-width="0"/><path d="M728.8 70.8L732.4 74.4L728.8 78.0L725.2 74.4Z" fill="#2b3a7a" opacity="0.8" stroke="none" stroke-width="0"/><path d="M746.2 70.3L749.8 73.9L746.2 77.5L742.6 73.9Z" fill="#2b3a7a" opacity="0.8" stroke="none" stroke-width="0"/><path d="M752.1 70.0L755.7 73.6L752.1 77.2L748.5 73.6Z" fill="#2b3a7a" opacity="0.8" stroke="none" stroke-width="0"/><path d="M843.7 69.8L847.3 73.4L843.7 77.0L840.1 73.4Z" fill="#2b3a7a" opacity="0.8" stroke="none" stroke-width="0"/><path d="M921.9 69.8L925.5 73.4L921.9 77.0L918.3 73.4Z" fill="#2b3a7a" opacity="0.8" stroke="none" stroke-width="0"/><path d="M974.0 67.8L977.6 71.4L974.0 75.0L970.4 71.4Z" fill="#2b3a7a" opacity="0.8" stroke="none" stroke-width="0"/><path d="M60.0 335.3L62.8 335.3L62.8 335.1L66.7 335.1L66.7 320.7L74.5 320.7L74.5 319.9L77.4 319.9L77.4 315.3L78.2 315.3L78.2 314.9L79.4 314.9L79.4 314.9L125.9 314.9L125.9 238.7L126.6 238.7L126.6 229.0L127.4 229.0L127.4 222.3L128.3 222.3L128.3 220.6L128.5 220.6L128.5 220.5L129.0 220.5L129.0 214.2L130.7 214.2L130.7 214.1L131.2 214.1L131.2 213.7L131.6 213.7L131.6 213.5L132.1 213.5L132.1 212.7L134.4 212.7L134.4 212.1L135.0 212.1L135.0 212.0L141.2 212.0L141.2 206.7L148.1 206.7L148.1 204.9L150.7 204.9L150.7 204.6L152.4 204.6L152.4 201.9L155.6 201.9L155.6 201.8L157.1 201.8L157.1 201.0L158.0 201.0L158.0 200.0L162.5 200.0L162.5 200.0L164.3 200.0L164.3 199.7L179.5 199.7L179.5 195.5L190.9 195.5L190.9 187.4L191.2 187.4L191.2 186.2L192.0 186.2L192.0 184.5L211.8 184.5L211.8 183.9L221.6 183.9L221.6 169.3L224.9 169.3L224.9 168.8L225.1 168.8L225.1 167.7L227.0 167.7L227.0 165.0L227.7 165.0L227.7 163.7L227.9 163.7L227.9 163.6L232.1 163.6L232.1 155.9L237.2 155.9L237.2 155.8L239.1 155.8L239.1 141.9L243.2 141.9L243.2 141.8L244.7 141.8L244.7 131.7L246.1 131.7L246.1 130.9L246.6 130.9L246.6 129.5L281.4 129.5L281.4 129.5L286.6 129.5L286.6 128.9L291.6 128.9L291.6 128.4L295.1 128.4L295.1 128.2L310.7 128.2L310.7 128.0L327.1 128.0L327.1 112.8L330.8 112.8L330.8 110.2L337.2 110.2L337.2 105.5L338.5 105.5L338.5 105.1L339.6 105.1L339.6 103.8L350.9 103.8L350.9 103.5L372.2 103.5L372.2 89.6L375.9 89.6L375.9 89.3L376.7 89.3L376.7 87.6L380.5 87.6L380.5 85.4L392.4 85.4L392.4 84.4L483.2 84.4L483.2 84.4L709.3 84.4L709.3 75.8L711.3 75.8L711.3 75.7L713.6 75.7L713.6 75.3L714.0 75.3L714.0 74.7L716.1 74.7L716.1 74.7L728.8 74.7L728.8 74.4L746.2 74.4L746.2 73.9L752.1 73.9L752.1 73.6L761.5 73.6L761.5 69.8L765.6 69.8L765.6 69.1L1032.0 69.1" fill="none" stroke="#6675b0" stroke-width="1.6" stroke-dasharray="5 3" opacity="0.75"/><path d="M232.1 155.9L243.2 155.9L243.2 141.8L244.7 141.8L244.7 131.7L246.1 131.7L246.1 130.9L246.6 130.9L246.6 129.5L281.4 129.5L281.4 129.5L286.6 129.5L286.6 128.9L291.6 128.9L291.6 128.4L295.1 128.4L295.1 128.2L310.7 128.2L310.7 128.0L327.1 128.0L327.1 112.8L334.9 112.8L334.9 111.6L337.2 111.6L337.2 105.5L338.5 105.5L338.5 105.1L339.6 105.1L339.6 103.8L350.9 103.8L350.9 103.5L372.2 103.5L372.2 89.6L375.9 89.6L375.9 89.3L376.7 89.3L376.7 87.6L380.5 87.6L380.5 85.4L392.4 85.4L392.4 84.4L483.2 84.4L483.2 84.4L709.3 84.4L709.3 75.8L711.3 75.8L711.3 75.7L713.6 75.7L713.6 75.3L714.0 75.3L714.0 74.7L716.1 74.7L716.1 74.7L728.8 74.7L728.8 74.4L746.2 74.4L746.2 73.9L752.1 73.9L752.1 73.6L761.5 73.6L761.5 73.5L843.7 73.5L843.7 73.4L921.9 73.4L921.9 73.4L974.0 73.4L974.0 71.4L1032.0 71.4" fill="none" stroke="#2b3a7a" stroke-width="2.6"/><path d="M636.0 246.9L642.5 253.4L636.0 259.9L629.5 253.4Z" fill="#c5961a" opacity="1.0" stroke="#ffffff" stroke-width="1.4"/><path d="M748.5 206.5L755.0 213.0L748.5 219.5L742.0 213.0Z" fill="#c5961a" opacity="1.0" stroke="#ffffff" stroke-width="1.4"/><path d="M761.5 67.0L768.0 73.5L761.5 80.0L755.0 73.5Z" fill="#c5961a" opacity="1.0" stroke="#ffffff" stroke-width="1.4"/><path d="M857.9 240.8L864.4 247.3L857.9 253.8L851.4 247.3Z" fill="#c5961a" opacity="1.0" stroke="#ffffff" stroke-width="1.4"/><path d="M858.6 238.0L865.1 244.5L858.6 251.0L852.1 244.5Z" fill="#c5961a" opacity="1.0" stroke="#ffffff" stroke-width="1.4"/><text x="1042" y="67.1" font-size="11.5" fill="#6675b0">– – raw best 513.8</text><text x="1042" y="81.1" font-size="10" fill="#8a8fa3">unverified (pending)</text><path d="M974.0 64.9L980.5 71.4L974.0 77.9L967.5 71.4Z" fill="#2b3a7a" opacity="1.0" stroke="#ffffff" stroke-width="1.4"/><text x="1042" y="99.4" font-size="12.5" fill="#2b3a7a" font-weight="bold">◆ verified 510.1</text><text x="1042" y="115.4" font-size="10.5" fill="#3a3f55">top verified</text><text x="60" y="24" font-size="13" font-weight="bold" fill="#3a3f55" letter-spacing="1.2">SCORE EVOLUTION — gemma-challenge (tok/s)</text><circle cx="452" cy="20" r="3" fill="#b9bdca"/><text x="460" y="24" font-size="10.5" fill="#8a8fa3">all results</text><path d="M544.0 16.4L547.6 20.0L544.0 23.6L540.4 20.0Z" fill="#2b3a7a" opacity="1.0" stroke="none" stroke-width="0"/><text x="552" y="24" font-size="10.5" fill="#8a8fa3">verified</text><path d="M620.0 15.5L624.5 20.0L620.0 24.5L615.5 20.0Z" fill="#c5961a" opacity="1.0" stroke="#fff" stroke-width="1"/><text x="629" y="24" font-size="10.5" fill="#8a8fa3">mikasa-inbound (us)</text></svg>