<svg viewBox="0 0 1200 440" xmlns="http://www.w3.org/2000/svg" font-family="ui-sans-serif,system-ui,-apple-system,sans-serif"><rect x="0" y="0" width="1200" height="440" fill="#ffffff"/><rect x="60" y="46" width="972" height="350" fill="#f3f4fb"/><line x1="60" y1="396.0" x2="1032" y2="396.0" stroke="#e3e5ef" stroke-width="1"/><text x="52" y="400.0" text-anchor="end" font-size="11" fill="#8a8fa3">0</text><line x1="60" y1="332.4" x2="1032" y2="332.4" stroke="#e3e5ef" stroke-width="1"/><text x="52" y="336.4" text-anchor="end" font-size="11" fill="#8a8fa3">100</text><line x1="60" y1="268.7" x2="1032" y2="268.7" stroke="#e3e5ef" stroke-width="1"/><text x="52" y="272.7" text-anchor="end" font-size="11" fill="#8a8fa3">200</text><line x1="60" y1="205.1" x2="1032" y2="205.1" stroke="#e3e5ef" stroke-width="1"/><text x="52" y="209.1" text-anchor="end" font-size="11" fill="#8a8fa3">300</text><line x1="60" y1="141.5" x2="1032" y2="141.5" stroke="#e3e5ef" stroke-width="1"/><text x="52" y="145.5" text-anchor="end" font-size="11" fill="#8a8fa3">400</text><line x1="60" y1="77.8" x2="1032" y2="77.8" stroke="#e3e5ef" stroke-width="1"/><text x="52" y="81.8" text-anchor="end" font-size="11" fill="#8a8fa3">500</text><line x1="147.0" y1="46" x2="147.0" y2="396" stroke="#e3e5ef" stroke-width="1"/><text x="147.0" y="414.0" text-anchor="middle" font-size="11" fill="#8a8fa3">Jun 10</text><line x1="271.0" y1="46" x2="271.0" y2="396" stroke="#e3e5ef" stroke-width="1"/><text x="271.0" y="414.0" text-anchor="middle" font-size="11" fill="#8a8fa3">Jun 12</text><line x1="395.1" y1="46" x2="395.1" y2="396" stroke="#e3e5ef" stroke-width="1"/><text x="395.1" y="414.0" text-anchor="middle" font-size="11" fill="#8a8fa3">Jun 14</text><line x1="519.1" y1="46" x2="519.1" y2="396" stroke="#e3e5ef" stroke-width="1"/><text x="519.1" y="414.0" text-anchor="middle" font-size="11" fill="#8a8fa3">Jun 16</text><line x1="643.2" y1="46" x2="643.2" y2="396" stroke="#e3e5ef" stroke-width="1"/><text x="643.2" y="414.0" text-anchor="middle" font-size="11" fill="#8a8fa3">Jun 18</text><line x1="767.3" y1="46" x2="767.3" y2="396" stroke="#e3e5ef" stroke-width="1"/><text x="767.3" y="414.0" text-anchor="middle" font-size="11" fill="#8a8fa3">Jun 20</text><line x1="891.3" y1="46" x2="891.3" y2="396" stroke="#e3e5ef" stroke-width="1"/><text x="891.3" y="414.0" text-anchor="middle" font-size="11" fill="#8a8fa3">Jun 22</text><line x1="1015.4" y1="46" x2="1015.4" y2="396" stroke="#e3e5ef" stroke-width="1"/><text x="1015.4" y="414.0" text-anchor="middle" font-size="11" fill="#8a8fa3">Jun 24</text><circle cx="60.0" cy="335.3" r="2.3" fill="#b9bdca" opacity="0.5"/><circle cx="63.0" cy="335.1" r="2.3" fill="#b9bdca" opacity="0.5"/><circle cx="66.0" cy="368.0" r="2.3" fill="#b9bdca" opacity="0.5"/><circle cx="67.2" cy="320.7" r="2.3" fill="#b9bdca" opacity="0.5"/><circle cx="75.4" cy="319.9" r="2.3" fill="#b9bdca" opacity="0.5"/><circle cx="75.9" cy="320.6" r="2.3" fill="#b9bdca" opacity="0.5"/><circle cx="78.5" cy="315.3" r="2.3" fill="#b9bdca" opacity="0.5"/><circle cx="79.1" cy="319.7" r="2.3" fill="#b9bdca" opacity="0.5"/><circle cx="79.3" cy="314.9" r="2.3" fill="#b9bdca" opacity="0.5"/><circle cx="80.3" cy="315.5" r="2.3" fill="#b9bdca" opacity="0.5"/><circle cx="80.7" cy="314.9" r="2.3" fill="#b9bdca" opacity="0.5"/><circle cx="81.5" cy="315.4" r="2.3" fill="#b9bdca" opacity="0.5"/><circle cx="83.0" cy="315.0" r="2.3" fill="#b9bdca" opacity="0.5"/><circle cx="130.0" cy="238.7" r="2.3" fill="#b9bdca" opacity="0.5"/><circle cx="130.4" cy="315.0" r="2.3" fill="#b9bdca" opacity="0.5"/><circle cx="130.9" cy="229.0" r="2.3" fill="#b9bdca" opacity="0.5"/><circle cx="131.6" cy="222.3" r="2.3" fill="#b9bdca" opacity="0.5"/><circle cx="132.4" cy="228.0" r="2.3" fill="#b9bdca" opacity="0.5"/><circle cx="132.5" cy="223.3" r="2.3" fill="#b9bdca" opacity="0.5"/><circle cx="132.6" cy="220.6" r="2.3" fill="#b9bdca" opacity="0.5"/><circle cx="132.8" cy="220.5" r="2.3" fill="#b9bdca" opacity="0.5"/><circle cx="133.0" cy="223.2" r="2.3" fill="#b9bdca" opacity="0.5"/><circle cx="133.4" cy="214.2" r="2.3" fill="#b9bdca" opacity="0.5"/><circle cx="133.4" cy="222.1" r="2.3" fill="#b9bdca" opacity="0.5"/><circle cx="133.8" cy="220.7" r="2.3" fill="#b9bdca" opacity="0.5"/><circle cx="134.3" cy="218.5" r="2.3" fill="#b9bdca" opacity="0.5"/><circle cx="134.5" cy="215.2" r="2.3" fill="#b9bdca" opacity="0.5"/><circle cx="134.8" cy="214.3" r="2.3" fill="#b9bdca" opacity="0.5"/><circle cx="134.9" cy="219.2" r="2.3" fill="#b9bdca" opacity="0.5"/><circle cx="135.2" cy="214.1" r="2.3" fill="#b9bdca" opacity="0.5"/><circle cx="135.5" cy="215.2" r="2.3" fill="#b9bdca" opacity="0.5"/><circle cx="135.8" cy="213.7" r="2.3" fill="#b9bdca" opacity="0.5"/><circle cx="136.2" cy="213.5" r="2.3" fill="#b9bdca" opacity="0.5"/><circle cx="136.5" cy="214.8" r="2.3" fill="#b9bdca" opacity="0.5"/><circle cx="136.5" cy="217.7" r="2.3" fill="#b9bdca" opacity="0.5"/><circle cx="136.7" cy="212.7" r="2.3" fill="#b9bdca" opacity="0.5"/><circle cx="137.4" cy="213.3" r="2.3" fill="#b9bdca" opacity="0.5"/><circle cx="138.3" cy="212.7" r="2.3" fill="#b9bdca" opacity="0.5"/><circle cx="138.3" cy="213.6" r="2.3" fill="#b9bdca" opacity="0.5"/><circle cx="138.6" cy="213.0" r="2.3" fill="#b9bdca" opacity="0.5"/><circle cx="139.1" cy="212.1" r="2.3" fill="#b9bdca" opacity="0.5"/><circle cx="139.3" cy="213.3" r="2.3" fill="#b9bdca" opacity="0.5"/><circle cx="139.8" cy="212.0" r="2.3" fill="#b9bdca" opacity="0.5"/><circle cx="140.7" cy="212.1" r="2.3" fill="#b9bdca" opacity="0.5"/><circle cx="140.7" cy="212.8" r="2.3" fill="#b9bdca" opacity="0.5"/><circle cx="146.4" cy="206.7" r="2.3" fill="#b9bdca" opacity="0.5"/><circle cx="147.1" cy="206.8" r="2.3" fill="#b9bdca" opacity="0.5"/><circle cx="147.1" cy="212.5" r="2.3" fill="#b9bdca" opacity="0.5"/><circle cx="147.6" cy="207.2" r="2.3" fill="#b9bdca" opacity="0.5"/><circle cx="149.4" cy="207.0" r="2.3" fill="#b9bdca" opacity="0.5"/><circle cx="153.7" cy="204.9" r="2.3" fill="#b9bdca" opacity="0.5"/><circle cx="156.5" cy="204.6" r="2.3" fill="#b9bdca" opacity="0.5"/><circle cx="156.7" cy="212.3" r="2.3" fill="#b9bdca" opacity="0.5"/><circle cx="157.2" cy="204.6" r="2.3" fill="#b9bdca" opacity="0.5"/><circle cx="157.2" cy="204.6" r="2.3" fill="#b9bdca" opacity="0.5"/><circle cx="157.2" cy="204.9" r="2.3" fill="#b9bdca" opacity="0.5"/><circle cx="157.2" cy="204.9" r="2.3" fill="#b9bdca" opacity="0.5"/><circle cx="158.3" cy="201.9" r="2.3" fill="#b9bdca" opacity="0.5"/><circle cx="160.0" cy="206.5" r="2.3" fill="#b9bdca" opacity="0.5"/><circle cx="160.7" cy="205.8" r="2.3" fill="#b9bdca" opacity="0.5"/><circle cx="160.7" cy="335.1" r="2.3" fill="#b9bdca" opacity="0.5"/><circle cx="161.6" cy="201.8" r="2.3" fill="#b9bdca" opacity="0.5"/><circle cx="161.7" cy="202.2" r="2.3" fill="#b9bdca" opacity="0.5"/><circle cx="163.3" cy="201.0" r="2.3" fill="#b9bdca" opacity="0.5"/><circle cx="163.9" cy="203.1" r="2.3" fill="#b9bdca" opacity="0.5"/><circle cx="164.2" cy="200.0" r="2.3" fill="#b9bdca" opacity="0.5"/><circle cx="164.3" cy="204.6" r="2.3" fill="#b9bdca" opacity="0.5"/><circle cx="165.3" cy="202.3" r="2.3" fill="#b9bdca" opacity="0.5"/><circle cx="167.4" cy="200.4" r="2.3" fill="#b9bdca" opacity="0.5"/><circle cx="168.2" cy="200.7" r="2.3" fill="#b9bdca" opacity="0.5"/><circle cx="169.0" cy="200.0" r="2.3" fill="#b9bdca" opacity="0.5"/><circle cx="171.0" cy="199.7" r="2.3" fill="#b9bdca" opacity="0.5"/><circle cx="182.8" cy="200.6" r="2.3" fill="#b9bdca" opacity="0.5"/><circle cx="183.8" cy="201.8" r="2.3" fill="#b9bdca" opacity="0.5"/><circle cx="185.4" cy="208.4" r="2.3" fill="#b9bdca" opacity="0.5"/><circle cx="185.5" cy="200.8" r="2.3" fill="#b9bdca" opacity="0.5"/><circle cx="186.7" cy="200.7" r="2.3" fill="#b9bdca" opacity="0.5"/><circle cx="186.7" cy="201.9" r="2.3" fill="#b9bdca" opacity="0.5"/><circle cx="187.1" cy="195.5" r="2.3" fill="#b9bdca" opacity="0.5"/><circle cx="188.2" cy="196.9" r="2.3" fill="#b9bdca" opacity="0.5"/><circle cx="188.8" cy="197.9" r="2.3" fill="#b9bdca" opacity="0.5"/><circle cx="189.8" cy="196.1" r="2.3" fill="#b9bdca" opacity="0.5"/><circle cx="193.4" cy="197.3" r="2.3" fill="#b9bdca" opacity="0.5"/><circle cx="194.4" cy="195.9" r="2.3" fill="#b9bdca" opacity="0.5"/><circle cx="194.8" cy="201.0" r="2.3" fill="#b9bdca" opacity="0.5"/><circle cx="195.1" cy="197.5" r="2.3" fill="#b9bdca" opacity="0.5"/><circle cx="195.9" cy="196.9" r="2.3" fill="#b9bdca" opacity="0.5"/><circle cx="195.9" cy="197.1" r="2.3" fill="#b9bdca" opacity="0.5"/><circle cx="196.0" cy="197.0" r="2.3" fill="#b9bdca" opacity="0.5"/><circle cx="196.9" cy="196.0" r="2.3" fill="#b9bdca" opacity="0.5"/><circle cx="196.9" cy="196.0" r="2.3" fill="#b9bdca" opacity="0.5"/><circle cx="196.9" cy="197.9" r="2.3" fill="#b9bdca" opacity="0.5"/><circle cx="197.5" cy="197.8" r="2.3" fill="#b9bdca" opacity="0.5"/><circle cx="198.1" cy="196.2" r="2.3" fill="#b9bdca" opacity="0.5"/><circle cx="198.1" cy="197.5" r="2.3" fill="#b9bdca" opacity="0.5"/><circle cx="198.3" cy="196.9" r="2.3" fill="#b9bdca" opacity="0.5"/><circle cx="198.4" cy="195.5" r="2.3" fill="#b9bdca" opacity="0.5"/><circle cx="199.1" cy="198.1" r="2.3" fill="#b9bdca" opacity="0.5"/><circle cx="199.2" cy="187.4" r="2.3" fill="#b9bdca" opacity="0.5"/><circle cx="199.5" cy="186.2" r="2.3" fill="#b9bdca" opacity="0.5"/><circle cx="199.5" cy="196.3" r="2.3" fill="#b9bdca" opacity="0.5"/><circle cx="199.5" cy="197.2" r="2.3" fill="#b9bdca" opacity="0.5"/><circle cx="199.5" cy="197.8" r="2.3" fill="#b9bdca" opacity="0.5"/><circle cx="199.5" cy="368.0" r="2.3" fill="#b9bdca" opacity="0.5"/><circle cx="200.3" cy="184.5" r="2.3" fill="#b9bdca" opacity="0.5"/><circle cx="203.5" cy="184.6" r="2.3" fill="#b9bdca" opacity="0.5"/><circle cx="204.9" cy="185.6" r="2.3" fill="#b9bdca" opacity="0.5"/><circle cx="209.6" cy="188.7" r="2.3" fill="#b9bdca" opacity="0.5"/><circle cx="215.8" cy="185.4" r="2.3" fill="#b9bdca" opacity="0.5"/><circle cx="217.2" cy="185.2" r="2.3" fill="#b9bdca" opacity="0.5"/><circle cx="217.7" cy="186.6" r="2.3" fill="#b9bdca" opacity="0.5"/><circle cx="217.9" cy="185.3" r="2.3" fill="#b9bdca" opacity="0.5"/><circle cx="218.9" cy="185.3" r="2.3" fill="#b9bdca" opacity="0.5"/><circle cx="219.5" cy="185.0" r="2.3" fill="#b9bdca" opacity="0.5"/><circle cx="220.5" cy="184.9" r="2.3" fill="#b9bdca" opacity="0.5"/><circle cx="221.3" cy="185.1" r="2.3" fill="#b9bdca" opacity="0.5"/><circle cx="221.3" cy="185.2" r="2.3" fill="#b9bdca" opacity="0.5"/><circle cx="221.3" cy="186.4" r="2.3" fill="#b9bdca" opacity="0.5"/><circle cx="221.4" cy="183.9" r="2.3" fill="#b9bdca" opacity="0.5"/><circle cx="227.2" cy="184.4" r="2.3" fill="#b9bdca" opacity="0.5"/><circle cx="228.2" cy="184.2" r="2.3" fill="#b9bdca" opacity="0.5"/><circle cx="231.8" cy="169.3" r="2.3" fill="#b9bdca" opacity="0.5"/><circle cx="235.3" cy="168.8" r="2.3" fill="#b9bdca" opacity="0.5"/><circle cx="235.6" cy="167.7" r="2.3" fill="#b9bdca" opacity="0.5"/><circle cx="237.1" cy="201.4" r="2.3" fill="#b9bdca" opacity="0.5"/><circle cx="237.6" cy="165.0" r="2.3" fill="#b9bdca" opacity="0.5"/><circle cx="237.8" cy="198.2" r="2.3" fill="#b9bdca" opacity="0.5"/><circle cx="238.3" cy="163.7" r="2.3" fill="#b9bdca" opacity="0.5"/><circle cx="238.5" cy="163.6" r="2.3" fill="#b9bdca" opacity="0.5"/><circle cx="239.2" cy="165.9" r="2.3" fill="#b9bdca" opacity="0.5"/><circle cx="242.3" cy="165.1" r="2.3" fill="#b9bdca" opacity="0.5"/><circle cx="243.0" cy="155.9" r="2.3" fill="#b9bdca" opacity="0.5"/><circle cx="246.0" cy="196.5" r="2.3" fill="#b9bdca" opacity="0.5"/><circle cx="247.3" cy="157.4" r="2.3" fill="#b9bdca" opacity="0.5"/><circle cx="248.5" cy="155.8" r="2.3" fill="#b9bdca" opacity="0.5"/><circle cx="250.5" cy="141.9" r="2.3" fill="#b9bdca" opacity="0.5"/><circle cx="254.6" cy="156.1" r="2.3" fill="#b9bdca" opacity="0.5"/><circle cx="254.6" cy="156.4" r="2.3" fill="#b9bdca" opacity="0.5"/><circle cx="254.8" cy="141.8" r="2.3" fill="#b9bdca" opacity="0.5"/><circle cx="255.0" cy="196.0" r="2.3" fill="#b9bdca" opacity="0.5"/><circle cx="256.4" cy="131.7" r="2.3" fill="#b9bdca" opacity="0.5"/><circle cx="256.6" cy="134.1" r="2.3" fill="#b9bdca" opacity="0.5"/><circle cx="257.1" cy="141.1" r="2.3" fill="#b9bdca" opacity="0.5"/><circle cx="257.8" cy="134.0" r="2.3" fill="#b9bdca" opacity="0.5"/><circle cx="257.9" cy="130.9" r="2.3" fill="#b9bdca" opacity="0.5"/><circle cx="257.9" cy="154.2" r="2.3" fill="#b9bdca" opacity="0.5"/><circle cx="258.2" cy="133.6" r="2.3" fill="#b9bdca" opacity="0.5"/><circle cx="258.5" cy="129.5" r="2.3" fill="#b9bdca" opacity="0.5"/><circle cx="258.5" cy="130.9" r="2.3" fill="#b9bdca" opacity="0.5"/><circle cx="258.5" cy="133.4" r="2.3" fill="#b9bdca" opacity="0.5"/><circle cx="258.8" cy="131.2" r="2.3" fill="#b9bdca" opacity="0.5"/><circle cx="261.4" cy="189.8" r="2.3" fill="#b9bdca" opacity="0.5"/><circle cx="261.6" cy="133.2" r="2.3" fill="#b9bdca" opacity="0.5"/><circle cx="261.9" cy="133.5" r="2.3" fill="#b9bdca" opacity="0.5"/><circle cx="262.9" cy="130.1" r="2.3" fill="#b9bdca" opacity="0.5"/><circle cx="265.4" cy="130.3" r="2.3" fill="#b9bdca" opacity="0.5"/><circle cx="266.6" cy="303.1" r="2.3" fill="#b9bdca" opacity="0.5"/><circle cx="268.7" cy="133.2" r="2.3" fill="#b9bdca" opacity="0.5"/><circle cx="271.4" cy="144.2" r="2.3" fill="#b9bdca" opacity="0.5"/><circle cx="272.0" cy="135.3" r="2.3" fill="#b9bdca" opacity="0.5"/><circle cx="273.8" cy="133.4" r="2.3" fill="#b9bdca" opacity="0.5"/><circle cx="274.0" cy="159.9" r="2.3" fill="#b9bdca" opacity="0.5"/><circle cx="274.4" cy="130.8" r="2.3" fill="#b9bdca" opacity="0.5"/><circle cx="275.0" cy="133.2" r="2.3" fill="#b9bdca" opacity="0.5"/><circle cx="281.3" cy="130.9" r="2.3" fill="#b9bdca" opacity="0.5"/><circle cx="282.1" cy="130.9" r="2.3" fill="#b9bdca" opacity="0.5"/><circle cx="282.1" cy="133.8" r="2.3" fill="#b9bdca" opacity="0.5"/><circle cx="283.1" cy="130.4" r="2.3" fill="#b9bdca" opacity="0.5"/><circle cx="283.8" cy="153.7" r="2.3" fill="#b9bdca" opacity="0.5"/><circle cx="284.9" cy="133.3" r="2.3" fill="#b9bdca" opacity="0.5"/><circle cx="286.9" cy="156.5" r="2.3" fill="#b9bdca" opacity="0.5"/><circle cx="287.3" cy="132.3" r="2.3" fill="#b9bdca" opacity="0.5"/><circle cx="289.5" cy="147.2" r="2.3" fill="#b9bdca" opacity="0.5"/><circle cx="290.0" cy="133.6" r="2.3" fill="#b9bdca" opacity="0.5"/><circle cx="290.8" cy="129.5" r="2.3" fill="#b9bdca" opacity="0.5"/><circle cx="290.8" cy="133.3" r="2.3" fill="#b9bdca" opacity="0.5"/><circle cx="293.6" cy="133.3" r="2.3" fill="#b9bdca" opacity="0.5"/><circle cx="295.5" cy="129.5" r="2.3" fill="#b9bdca" opacity="0.5"/><circle cx="298.6" cy="130.6" r="2.3" fill="#b9bdca" opacity="0.5"/><circle cx="301.0" cy="128.9" r="2.3" fill="#b9bdca" opacity="0.5"/><circle cx="301.5" cy="132.7" r="2.3" fill="#b9bdca" opacity="0.5"/><circle cx="301.5" cy="133.1" r="2.3" fill="#b9bdca" opacity="0.5"/><circle cx="305.1" cy="129.8" r="2.3" fill="#b9bdca" opacity="0.5"/><circle cx="306.0" cy="333.8" r="2.3" fill="#b9bdca" opacity="0.5"/><circle cx="306.3" cy="128.4" r="2.3" fill="#b9bdca" opacity="0.5"/><circle cx="307.9" cy="129.8" r="2.3" fill="#b9bdca" opacity="0.5"/><circle cx="308.6" cy="128.9" r="2.3" fill="#b9bdca" opacity="0.5"/><circle cx="308.8" cy="128.9" r="2.3" fill="#b9bdca" opacity="0.5"/><circle cx="310.0" cy="128.2" r="2.3" fill="#b9bdca" opacity="0.5"/><circle cx="310.9" cy="129.7" r="2.3" fill="#b9bdca" opacity="0.5"/><circle cx="311.2" cy="142.3" r="2.3" fill="#b9bdca" opacity="0.5"/><circle cx="314.5" cy="128.8" r="2.3" fill="#b9bdca" opacity="0.5"/><circle cx="316.5" cy="161.1" r="2.3" fill="#b9bdca" opacity="0.5"/><circle cx="320.3" cy="164.4" r="2.3" fill="#b9bdca" opacity="0.5"/><circle cx="320.7" cy="248.3" r="2.3" fill="#b9bdca" opacity="0.5"/><circle cx="326.2" cy="135.4" r="2.3" fill="#b9bdca" opacity="0.5"/><circle cx="326.6" cy="128.0" r="2.3" fill="#b9bdca" opacity="0.5"/><circle cx="328.3" cy="229.0" r="2.3" fill="#b9bdca" opacity="0.5"/><circle cx="332.1" cy="128.1" r="2.3" fill="#b9bdca" opacity="0.5"/><circle cx="333.1" cy="128.6" r="2.3" fill="#b9bdca" opacity="0.5"/><circle cx="336.6" cy="128.8" r="2.3" fill="#b9bdca" opacity="0.5"/><circle cx="336.6" cy="129.6" r="2.3" fill="#b9bdca" opacity="0.5"/><circle cx="336.6" cy="130.9" r="2.3" fill="#b9bdca" opacity="0.5"/><circle cx="344.1" cy="112.8" r="2.3" fill="#b9bdca" opacity="0.5"/><circle cx="348.0" cy="110.2" r="2.3" fill="#b9bdca" opacity="0.5"/><circle cx="348.1" cy="111.6" r="2.3" fill="#b9bdca" opacity="0.5"/><circle cx="350.5" cy="111.0" r="2.3" fill="#b9bdca" opacity="0.5"/><circle cx="351.7" cy="335.1" r="2.3" fill="#b9bdca" opacity="0.5"/><circle cx="352.3" cy="111.6" r="2.3" fill="#b9bdca" opacity="0.5"/><circle cx="354.8" cy="105.5" r="2.3" fill="#b9bdca" opacity="0.5"/><circle cx="355.2" cy="108.5" r="2.3" fill="#b9bdca" opacity="0.5"/><circle cx="356.2" cy="105.1" r="2.3" fill="#b9bdca" opacity="0.5"/><circle cx="357.3" cy="103.8" r="2.3" fill="#b9bdca" opacity="0.5"/><circle cx="358.6" cy="125.8" r="2.3" fill="#b9bdca" opacity="0.5"/><circle cx="369.3" cy="103.5" r="2.3" fill="#b9bdca" opacity="0.5"/><circle cx="372.1" cy="127.8" r="2.3" fill="#b9bdca" opacity="0.5"/><circle cx="373.3" cy="334.3" r="2.3" fill="#b9bdca" opacity="0.5"/><circle cx="375.0" cy="128.6" r="2.3" fill="#b9bdca" opacity="0.5"/><circle cx="375.7" cy="128.6" r="2.3" fill="#b9bdca" opacity="0.5"/><circle cx="375.9" cy="128.6" r="2.3" fill="#b9bdca" opacity="0.5"/><circle cx="376.9" cy="256.6" r="2.3" fill="#b9bdca" opacity="0.5"/><circle cx="378.1" cy="254.6" r="2.3" fill="#b9bdca" opacity="0.5"/><circle cx="380.1" cy="128.6" r="2.3" fill="#b9bdca" opacity="0.5"/><circle cx="385.0" cy="250.1" r="2.3" fill="#b9bdca" opacity="0.5"/><circle cx="385.4" cy="161.4" r="2.3" fill="#b9bdca" opacity="0.5"/><circle cx="386.0" cy="206.6" r="2.3" fill="#b9bdca" opacity="0.5"/><circle cx="390.5" cy="113.5" r="2.3" fill="#b9bdca" opacity="0.5"/><circle cx="392.0" cy="89.6" r="2.3" fill="#b9bdca" opacity="0.5"/><circle cx="393.1" cy="90.2" r="2.3" fill="#b9bdca" opacity="0.5"/><circle cx="396.0" cy="89.3" r="2.3" fill="#b9bdca" opacity="0.5"/><circle cx="396.8" cy="87.6" r="2.3" fill="#b9bdca" opacity="0.5"/><circle cx="397.7" cy="185.0" r="2.3" fill="#b9bdca" opacity="0.5"/><circle cx="398.7" cy="131.6" r="2.3" fill="#b9bdca" opacity="0.5"/><circle cx="399.5" cy="87.8" r="2.3" fill="#b9bdca" opacity="0.5"/><circle cx="400.8" cy="85.4" r="2.3" fill="#b9bdca" opacity="0.5"/><circle cx="402.8" cy="86.8" r="2.3" fill="#b9bdca" opacity="0.5"/><circle cx="404.9" cy="88.4" r="2.3" fill="#b9bdca" opacity="0.5"/><circle cx="413.4" cy="89.5" r="2.3" fill="#b9bdca" opacity="0.5"/><circle cx="413.4" cy="155.6" r="2.3" fill="#b9bdca" opacity="0.5"/><circle cx="413.5" cy="84.4" r="2.3" fill="#b9bdca" opacity="0.5"/><circle cx="423.6" cy="89.2" r="2.3" fill="#b9bdca" opacity="0.5"/><circle cx="423.8" cy="90.5" r="2.3" fill="#b9bdca" opacity="0.5"/><circle cx="426.7" cy="87.7" r="2.3" fill="#b9bdca" opacity="0.5"/><circle cx="427.6" cy="367.9" r="2.3" fill="#b9bdca" opacity="0.5"/><circle cx="431.8" cy="164.3" r="2.3" fill="#b9bdca" opacity="0.5"/><circle cx="433.8" cy="94.6" r="2.3" fill="#b9bdca" opacity="0.5"/><circle cx="434.6" cy="89.6" r="2.3" fill="#b9bdca" opacity="0.5"/><circle cx="443.4" cy="124.6" r="2.3" fill="#b9bdca" opacity="0.5"/><circle cx="452.7" cy="146.2" r="2.3" fill="#b9bdca" opacity="0.5"/><circle cx="453.0" cy="90.5" r="2.3" fill="#b9bdca" opacity="0.5"/><circle cx="453.8" cy="87.7" r="2.3" fill="#b9bdca" opacity="0.5"/><circle cx="454.3" cy="87.7" r="2.3" fill="#b9bdca" opacity="0.5"/><circle cx="454.4" cy="89.6" r="2.3" fill="#b9bdca" opacity="0.5"/><circle cx="461.0" cy="93.0" r="2.3" fill="#b9bdca" opacity="0.5"/><circle cx="463.4" cy="85.5" r="2.3" fill="#b9bdca" opacity="0.5"/><circle cx="483.0" cy="334.8" r="2.3" fill="#b9bdca" opacity="0.5"/><circle cx="485.2" cy="86.3" r="2.3" fill="#b9bdca" opacity="0.5"/><circle cx="491.9" cy="85.5" r="2.3" fill="#b9bdca" opacity="0.5"/><circle cx="493.0" cy="84.6" r="2.3" fill="#b9bdca" opacity="0.5"/><circle cx="495.8" cy="87.8" r="2.3" fill="#b9bdca" opacity="0.5"/><circle cx="496.9" cy="84.4" r="2.3" fill="#b9bdca" opacity="0.5"/><circle cx="497.6" cy="84.8" r="2.3" fill="#b9bdca" opacity="0.5"/><circle cx="499.5" cy="87.4" r="2.3" fill="#b9bdca" opacity="0.5"/><circle cx="510.1" cy="84.4" r="2.3" fill="#b9bdca" opacity="0.5"/><circle cx="556.4" cy="89.3" r="2.3" fill="#b9bdca" opacity="0.5"/><circle cx="564.7" cy="88.6" r="2.3" fill="#b9bdca" opacity="0.5"/><circle cx="564.7" cy="92.1" r="2.3" fill="#b9bdca" opacity="0.5"/><circle cx="566.5" cy="156.8" r="2.3" fill="#b9bdca" opacity="0.5"/><circle cx="593.2" cy="201.6" r="2.3" fill="#b9bdca" opacity="0.5"/><circle cx="612.7" cy="315.6" r="2.3" fill="#b9bdca" opacity="0.5"/><circle cx="666.1" cy="87.7" r="2.3" fill="#b9bdca" opacity="0.5"/><circle cx="682.2" cy="87.6" r="2.3" fill="#b9bdca" opacity="0.5"/><circle cx="696.6" cy="87.2" r="2.3" fill="#b9bdca" opacity="0.5"/><circle cx="699.8" cy="88.8" r="2.3" fill="#b9bdca" opacity="0.5"/><circle cx="701.1" cy="89.2" r="2.3" fill="#b9bdca" opacity="0.5"/><circle cx="701.8" cy="90.9" r="2.3" fill="#b9bdca" opacity="0.5"/><circle cx="705.9" cy="87.7" r="2.3" fill="#b9bdca" opacity="0.5"/><circle cx="720.3" cy="88.6" r="2.3" fill="#b9bdca" opacity="0.5"/><circle cx="722.2" cy="89.7" r="2.3" fill="#b9bdca" opacity="0.5"/><circle cx="723.4" cy="88.2" r="2.3" fill="#b9bdca" opacity="0.5"/><circle cx="750.5" cy="75.8" r="2.3" fill="#b9bdca" opacity="0.5"/><circle cx="752.6" cy="75.7" r="2.3" fill="#b9bdca" opacity="0.5"/><circle cx="754.2" cy="76.7" r="2.3" fill="#b9bdca" opacity="0.5"/><circle cx="754.3" cy="75.8" r="2.3" fill="#b9bdca" opacity="0.5"/><circle cx="755.1" cy="75.3" r="2.3" fill="#b9bdca" opacity="0.5"/><circle cx="755.5" cy="74.7" r="2.3" fill="#b9bdca" opacity="0.5"/><circle cx="755.8" cy="83.4" r="2.3" fill="#b9bdca" opacity="0.5"/><circle cx="756.4" cy="76.2" r="2.3" fill="#b9bdca" opacity="0.5"/><circle cx="757.1" cy="78.1" r="2.3" fill="#b9bdca" opacity="0.5"/><circle cx="757.7" cy="74.7" r="2.3" fill="#b9bdca" opacity="0.5"/><circle cx="762.2" cy="89.3" r="2.3" fill="#b9bdca" opacity="0.5"/><circle cx="771.3" cy="74.4" r="2.3" fill="#b9bdca" opacity="0.5"/><circle cx="785.6" cy="74.4" r="2.3" fill="#b9bdca" opacity="0.5"/><circle cx="787.9" cy="335.1" r="2.3" fill="#b9bdca" opacity="0.5"/><circle cx="788.0" cy="81.7" r="2.3" fill="#b9bdca" opacity="0.5"/><circle cx="789.7" cy="74.6" r="2.3" fill="#b9bdca" opacity="0.5"/><circle cx="789.7" cy="82.1" r="2.3" fill="#b9bdca" opacity="0.5"/><circle cx="789.7" cy="73.9" r="2.3" fill="#b9bdca" opacity="0.5"/><circle cx="793.8" cy="76.2" r="2.3" fill="#b9bdca" opacity="0.5"/><circle cx="794.5" cy="82.1" r="2.3" fill="#b9bdca" opacity="0.5"/><circle cx="795.1" cy="74.2" r="2.3" fill="#b9bdca" opacity="0.5"/><circle cx="795.1" cy="75.0" r="2.3" fill="#b9bdca" opacity="0.5"/><circle cx="796.0" cy="73.6" r="2.3" fill="#b9bdca" opacity="0.5"/><circle cx="796.0" cy="83.3" r="2.3" fill="#b9bdca" opacity="0.5"/><circle cx="796.0" cy="83.8" r="2.3" fill="#b9bdca" opacity="0.5"/><circle cx="796.1" cy="78.1" r="2.3" fill="#b9bdca" opacity="0.5"/><circle cx="796.1" cy="81.5" r="2.3" fill="#b9bdca" opacity="0.5"/><circle cx="796.1" cy="83.0" r="2.3" fill="#b9bdca" opacity="0.5"/><circle cx="796.1" cy="83.7" r="2.3" fill="#b9bdca" opacity="0.5"/><circle cx="801.8" cy="82.7" r="2.3" fill="#b9bdca" opacity="0.5"/><circle cx="803.0" cy="77.8" r="2.3" fill="#b9bdca" opacity="0.5"/><circle cx="806.0" cy="69.8" r="2.3" fill="#b9bdca" opacity="0.5"/><circle cx="807.0" cy="75.9" r="2.3" fill="#b9bdca" opacity="0.5"/><circle cx="807.4" cy="74.3" r="2.3" fill="#b9bdca" opacity="0.5"/><circle cx="807.4" cy="77.4" r="2.3" fill="#b9bdca" opacity="0.5"/><circle cx="807.4" cy="80.6" r="2.3" fill="#b9bdca" opacity="0.5"/><circle cx="807.4" cy="81.8" r="2.3" fill="#b9bdca" opacity="0.5"/><circle cx="809.4" cy="76.9" r="2.3" fill="#b9bdca" opacity="0.5"/><circle cx="809.4" cy="82.8" r="2.3" fill="#b9bdca" opacity="0.5"/><circle cx="809.4" cy="83.0" r="2.3" fill="#b9bdca" opacity="0.5"/><circle cx="809.4" cy="83.1" r="2.3" fill="#b9bdca" opacity="0.5"/><circle cx="810.3" cy="69.1" r="2.3" fill="#b9bdca" opacity="0.5"/><circle cx="812.7" cy="75.5" r="2.3" fill="#b9bdca" opacity="0.5"/><circle cx="814.0" cy="74.3" r="2.3" fill="#b9bdca" opacity="0.5"/><circle cx="850.4" cy="74.0" r="2.3" fill="#b9bdca" opacity="0.5"/><circle cx="893.5" cy="73.4" r="2.3" fill="#b9bdca" opacity="0.5"/><circle cx="893.9" cy="75.9" r="2.3" fill="#b9bdca" opacity="0.5"/><circle cx="893.9" cy="76.3" r="2.3" fill="#b9bdca" opacity="0.5"/><circle cx="894.2" cy="76.0" r="2.3" fill="#b9bdca" opacity="0.5"/><circle cx="894.2" cy="76.8" r="2.3" fill="#b9bdca" opacity="0.5"/><circle cx="894.2" cy="81.2" r="2.3" fill="#b9bdca" opacity="0.5"/><circle cx="894.2" cy="83.4" r="2.3" fill="#b9bdca" opacity="0.5"/><circle cx="924.7" cy="76.6" r="2.3" fill="#b9bdca" opacity="0.5"/><circle cx="926.8" cy="76.7" r="2.3" fill="#b9bdca" opacity="0.5"/><circle cx="926.8" cy="82.8" r="2.3" fill="#b9bdca" opacity="0.5"/><circle cx="926.8" cy="82.8" r="2.3" fill="#b9bdca" opacity="0.5"/><circle cx="926.8" cy="83.3" r="2.3" fill="#b9bdca" opacity="0.5"/><circle cx="933.1" cy="233.4" r="2.3" fill="#b9bdca" opacity="0.5"/><circle cx="935.0" cy="228.9" r="2.3" fill="#b9bdca" opacity="0.5"/><circle cx="936.9" cy="198.3" r="2.3" fill="#b9bdca" opacity="0.5"/><circle cx="976.6" cy="73.4" r="2.3" fill="#b9bdca" opacity="0.5"/><circle cx="987.7" cy="192.4" r="2.3" fill="#b9bdca" opacity="0.5"/><circle cx="991.6" cy="75.3" r="2.3" fill="#b9bdca" opacity="0.5"/><circle cx="992.6" cy="74.0" r="2.3" fill="#b9bdca" opacity="0.5"/><circle cx="995.1" cy="194.4" r="2.3" fill="#b9bdca" opacity="0.5"/><circle cx="999.0" cy="168.6" r="2.3" fill="#b9bdca" opacity="0.5"/><circle cx="1001.3" cy="77.1" r="2.3" fill="#b9bdca" opacity="0.5"/><circle cx="1001.3" cy="99.5" r="2.3" fill="#b9bdca" opacity="0.5"/><circle cx="1032.0" cy="71.4" r="2.3" fill="#b9bdca" opacity="0.5"/><circle cx="1032.0" cy="73.5" r="2.3" fill="#b9bdca" opacity="0.5"/><path d="M243.0 152.3L246.6 155.9L243.0 159.5L239.4 155.9Z" fill="#2b3a7a" opacity="0.8" stroke="none" stroke-width="0"/><path d="M254.8 138.2L258.4 141.8L254.8 145.4L251.2 141.8Z" fill="#2b3a7a" opacity="0.8" stroke="none" stroke-width="0"/><path d="M256.4 128.1L260.0 131.7L256.4 135.3L252.8 131.7Z" fill="#2b3a7a" opacity="0.8" stroke="none" stroke-width="0"/><path d="M256.6 130.5L260.2 134.1L256.6 137.7L253.0 134.1Z" fill="#2b3a7a" opacity="0.8" stroke="none" stroke-width="0"/><path d="M257.9 127.3L261.5 130.9L257.9 134.5L254.3 130.9Z" fill="#2b3a7a" opacity="0.8" stroke="none" stroke-width="0"/><path d="M258.5 125.9L262.1 129.5L258.5 133.1L254.9 129.5Z" fill="#2b3a7a" opacity="0.8" stroke="none" stroke-width="0"/><path d="M258.5 127.3L262.1 130.9L258.5 134.5L254.9 130.9Z" fill="#2b3a7a" opacity="0.8" stroke="none" stroke-width="0"/><path d="M295.5 125.9L299.1 129.5L295.5 133.1L291.9 129.5Z" fill="#2b3a7a" opacity="0.8" stroke="none" stroke-width="0"/><path d="M301.0 125.3L304.6 128.9L301.0 132.5L297.4 128.9Z" fill="#2b3a7a" opacity="0.8" stroke="none" stroke-width="0"/><path d="M306.3 124.8L309.9 128.4L306.3 132.0L302.7 128.4Z" fill="#2b3a7a" opacity="0.8" stroke="none" stroke-width="0"/><path d="M310.0 124.6L313.6 128.2L310.0 131.8L306.4 128.2Z" fill="#2b3a7a" opacity="0.8" stroke="none" stroke-width="0"/><path d="M326.6 124.4L330.2 128.0L326.6 131.6L323.0 128.0Z" fill="#2b3a7a" opacity="0.8" stroke="none" stroke-width="0"/><path d="M344.1 109.2L347.7 112.8L344.1 116.4L340.5 112.8Z" fill="#2b3a7a" opacity="0.8" stroke="none" stroke-width="0"/><path d="M352.3 108.0L355.9 111.6L352.3 115.2L348.7 111.6Z" fill="#2b3a7a" opacity="0.8" stroke="none" stroke-width="0"/><path d="M354.8 101.9L358.4 105.5L354.8 109.1L351.2 105.5Z" fill="#2b3a7a" opacity="0.8" stroke="none" stroke-width="0"/><path d="M355.2 104.9L358.8 108.5L355.2 112.1L351.6 108.5Z" fill="#2b3a7a" opacity="0.8" stroke="none" stroke-width="0"/><path d="M356.2 101.5L359.8 105.1L356.2 108.7L352.6 105.1Z" fill="#2b3a7a" opacity="0.8" stroke="none" stroke-width="0"/><path d="M357.3 100.2L360.9 103.8L357.3 107.4L353.7 103.8Z" fill="#2b3a7a" opacity="0.8" stroke="none" stroke-width="0"/><path d="M369.3 99.9L372.9 103.5L369.3 107.1L365.7 103.5Z" fill="#2b3a7a" opacity="0.8" stroke="none" stroke-width="0"/><path d="M392.0 86.0L395.6 89.6L392.0 93.2L388.4 89.6Z" fill="#2b3a7a" opacity="0.8" stroke="none" stroke-width="0"/><path d="M396.0 85.7L399.6 89.3L396.0 92.9L392.4 89.3Z" fill="#2b3a7a" opacity="0.8" stroke="none" stroke-width="0"/><path d="M396.8 84.0L400.4 87.6L396.8 91.2L393.2 87.6Z" fill="#2b3a7a" opacity="0.8" stroke="none" stroke-width="0"/><path d="M400.8 81.8L404.4 85.4L400.8 89.0L397.2 85.4Z" fill="#2b3a7a" opacity="0.8" stroke="none" stroke-width="0"/><path d="M413.5 80.8L417.1 84.4L413.5 88.0L409.9 84.4Z" fill="#2b3a7a" opacity="0.8" stroke="none" stroke-width="0"/><path d="M510.1 80.8L513.7 84.4L510.1 88.0L506.5 84.4Z" fill="#2b3a7a" opacity="0.8" stroke="none" stroke-width="0"/><path d="M750.5 72.2L754.1 75.8L750.5 79.4L746.9 75.8Z" fill="#2b3a7a" opacity="0.8" stroke="none" stroke-width="0"/><path d="M752.6 72.1L756.2 75.7L752.6 79.3L749.0 75.7Z" fill="#2b3a7a" opacity="0.8" stroke="none" stroke-width="0"/><path d="M755.1 71.7L758.7 75.3L755.1 78.9L751.5 75.3Z" fill="#2b3a7a" opacity="0.8" stroke="none" stroke-width="0"/><path d="M755.5 71.1L759.1 74.7L755.5 78.3L751.9 74.7Z" fill="#2b3a7a" opacity="0.8" stroke="none" stroke-width="0"/><path d="M757.7 71.1L761.3 74.7L757.7 78.3L754.1 74.7Z" fill="#2b3a7a" opacity="0.8" stroke="none" stroke-width="0"/><path d="M771.3 70.8L774.9 74.4L771.3 78.0L767.7 74.4Z" fill="#2b3a7a" opacity="0.8" stroke="none" stroke-width="0"/><path d="M789.7 70.3L793.3 73.9L789.7 77.5L786.1 73.9Z" fill="#2b3a7a" opacity="0.8" stroke="none" stroke-width="0"/><path d="M796.0 70.0L799.6 73.6L796.0 77.2L792.4 73.6Z" fill="#2b3a7a" opacity="0.8" stroke="none" stroke-width="0"/><path d="M893.5 69.8L897.1 73.4L893.5 77.0L889.9 73.4Z" fill="#2b3a7a" opacity="0.8" stroke="none" stroke-width="0"/><path d="M976.6 69.8L980.2 73.4L976.6 77.0L973.0 73.4Z" fill="#2b3a7a" opacity="0.8" stroke="none" stroke-width="0"/><path d="M1032.0 67.8L1035.6 71.4L1032.0 75.0L1028.4 71.4Z" fill="#2b3a7a" opacity="0.8" stroke="none" stroke-width="0"/><path d="M60.0 335.3L63.0 335.3L63.0 335.1L67.2 335.1L67.2 320.7L75.4 320.7L75.4 319.9L78.5 319.9L78.5 315.3L79.3 315.3L79.3 314.9L80.7 314.9L80.7 314.9L130.0 314.9L130.0 238.7L130.9 238.7L130.9 229.0L131.6 229.0L131.6 222.3L132.6 222.3L132.6 220.6L132.8 220.6L132.8 220.5L133.4 220.5L133.4 214.2L135.2 214.2L135.2 214.1L135.8 214.1L135.8 213.7L136.2 213.7L136.2 213.5L136.7 213.5L136.7 212.7L139.1 212.7L139.1 212.1L139.8 212.1L139.8 212.0L146.4 212.0L146.4 206.7L153.7 206.7L153.7 204.9L156.5 204.9L156.5 204.6L158.3 204.6L158.3 201.9L161.6 201.9L161.6 201.8L163.3 201.8L163.3 201.0L164.2 201.0L164.2 200.0L169.0 200.0L169.0 200.0L171.0 200.0L171.0 199.7L187.1 199.7L187.1 195.5L199.2 195.5L199.2 187.4L199.5 187.4L199.5 186.2L200.3 186.2L200.3 184.5L221.4 184.5L221.4 183.9L231.8 183.9L231.8 169.3L235.3 169.3L235.3 168.8L235.6 168.8L235.6 167.7L237.6 167.7L237.6 165.0L238.3 165.0L238.3 163.7L238.5 163.7L238.5 163.6L243.0 163.6L243.0 155.9L248.5 155.9L248.5 155.8L250.5 155.8L250.5 141.9L254.8 141.9L254.8 141.8L256.4 141.8L256.4 131.7L257.9 131.7L257.9 130.9L258.5 130.9L258.5 129.5L295.5 129.5L295.5 129.5L301.0 129.5L301.0 128.9L306.3 128.9L306.3 128.4L310.0 128.4L310.0 128.2L326.6 128.2L326.6 128.0L344.1 128.0L344.1 112.8L348.0 112.8L348.0 110.2L354.8 110.2L354.8 105.5L356.2 105.5L356.2 105.1L357.3 105.1L357.3 103.8L369.3 103.8L369.3 103.5L392.0 103.5L392.0 89.6L396.0 89.6L396.0 89.3L396.8 89.3L396.8 87.6L400.8 87.6L400.8 85.4L413.5 85.4L413.5 84.4L510.1 84.4L510.1 84.4L750.5 84.4L750.5 75.8L752.6 75.8L752.6 75.7L755.1 75.7L755.1 75.3L755.5 75.3L755.5 74.7L757.7 74.7L757.7 74.7L771.3 74.7L771.3 74.4L789.7 74.4L789.7 73.9L796.0 73.9L796.0 73.6L806.0 73.6L806.0 69.8L810.3 69.8L810.3 69.1L1032.0 69.1" fill="none" stroke="#6675b0" stroke-width="1.6" stroke-dasharray="5 3" opacity="0.75"/><path d="M243.0 155.9L254.8 155.9L254.8 141.8L256.4 141.8L256.4 131.7L257.9 131.7L257.9 130.9L258.5 130.9L258.5 129.5L295.5 129.5L295.5 129.5L301.0 129.5L301.0 128.9L306.3 128.9L306.3 128.4L310.0 128.4L310.0 128.2L326.6 128.2L326.6 128.0L344.1 128.0L344.1 112.8L352.3 112.8L352.3 111.6L354.8 111.6L354.8 105.5L356.2 105.5L356.2 105.1L357.3 105.1L357.3 103.8L369.3 103.8L369.3 103.5L392.0 103.5L392.0 89.6L396.0 89.6L396.0 89.3L396.8 89.3L396.8 87.6L400.8 87.6L400.8 85.4L413.5 85.4L413.5 84.4L510.1 84.4L510.1 84.4L750.5 84.4L750.5 75.8L752.6 75.8L752.6 75.7L755.1 75.7L755.1 75.3L755.5 75.3L755.5 74.7L757.7 74.7L757.7 74.7L771.3 74.7L771.3 74.4L789.7 74.4L789.7 73.9L796.0 73.9L796.0 73.6L806.0 73.6L806.0 73.5L893.5 73.5L893.5 73.4L976.6 73.4L976.6 73.4L1032.0 73.4L1032.0 71.4L1032.0 71.4" fill="none" stroke="#2b3a7a" stroke-width="2.6"/><path d="M672.5 246.9L679.0 253.4L672.5 259.9L666.0 253.4Z" fill="#c5961a" opacity="1.0" stroke="#ffffff" stroke-width="1.4"/><path d="M792.2 206.5L798.7 213.0L792.2 219.5L785.7 213.0Z" fill="#c5961a" opacity="1.0" stroke="#ffffff" stroke-width="1.4"/><path d="M806.0 67.0L812.5 73.5L806.0 80.0L799.5 73.5Z" fill="#c5961a" opacity="1.0" stroke="#ffffff" stroke-width="1.4"/><path d="M908.5 240.8L915.0 247.3L908.5 253.8L902.0 247.3Z" fill="#c5961a" opacity="1.0" stroke="#ffffff" stroke-width="1.4"/><path d="M909.3 238.0L915.8 244.5L909.3 251.0L902.8 244.5Z" fill="#c5961a" opacity="1.0" stroke="#ffffff" stroke-width="1.4"/><text x="1042" y="67.1" font-size="11.5" fill="#6675b0">– – raw best 513.8</text><text x="1042" y="81.1" font-size="10" fill="#8a8fa3">unverified (pending)</text><path d="M1032.0 64.9L1038.5 71.4L1032.0 77.9L1025.5 71.4Z" fill="#2b3a7a" opacity="1.0" stroke="#ffffff" stroke-width="1.4"/><text x="1042" y="99.4" font-size="12.5" fill="#2b3a7a" font-weight="bold">◆ verified 510.1</text><text x="1042" y="115.4" font-size="10.5" fill="#3a3f55">top verified</text><text x="60" y="24" font-size="13" font-weight="bold" fill="#3a3f55" letter-spacing="1.2">SCORE EVOLUTION — gemma-challenge (tok/s)</text><circle cx="452" cy="20" r="3" fill="#b9bdca"/><text x="460" y="24" font-size="10.5" fill="#8a8fa3">all results</text><path d="M544.0 16.4L547.6 20.0L544.0 23.6L540.4 20.0Z" fill="#2b3a7a" opacity="1.0" stroke="none" stroke-width="0"/><text x="552" y="24" font-size="10.5" fill="#8a8fa3">verified</text><path d="M620.0 15.5L624.5 20.0L620.0 24.5L615.5 20.0Z" fill="#c5961a" opacity="1.0" stroke="#fff" stroke-width="1"/><text x="629" y="24" font-size="10.5" fill="#8a8fa3">mikasa-inbound (us)</text></svg>