<svg viewBox="0 0 1200 440" xmlns="http://www.w3.org/2000/svg" font-family="ui-sans-serif,system-ui,-apple-system,sans-serif"><rect x="0" y="0" width="1200" height="440" fill="#ffffff"/><rect x="60" y="46" width="972" height="350" fill="#f3f4fb"/><line x1="60" y1="396.0" x2="1032" y2="396.0" stroke="#e3e5ef" stroke-width="1"/><text x="52" y="400.0" text-anchor="end" font-size="11" fill="#8a8fa3">0</text><line x1="60" y1="332.4" x2="1032" y2="332.4" stroke="#e3e5ef" stroke-width="1"/><text x="52" y="336.4" text-anchor="end" font-size="11" fill="#8a8fa3">100</text><line x1="60" y1="268.7" x2="1032" y2="268.7" stroke="#e3e5ef" stroke-width="1"/><text x="52" y="272.7" text-anchor="end" font-size="11" fill="#8a8fa3">200</text><line x1="60" y1="205.1" x2="1032" y2="205.1" stroke="#e3e5ef" stroke-width="1"/><text x="52" y="209.1" text-anchor="end" font-size="11" fill="#8a8fa3">300</text><line x1="60" y1="141.5" x2="1032" y2="141.5" stroke="#e3e5ef" stroke-width="1"/><text x="52" y="145.5" text-anchor="end" font-size="11" fill="#8a8fa3">400</text><line x1="60" y1="77.8" x2="1032" y2="77.8" stroke="#e3e5ef" stroke-width="1"/><text x="52" y="81.8" text-anchor="end" font-size="11" fill="#8a8fa3">500</text><line x1="161.3" y1="46" x2="161.3" y2="396" stroke="#e3e5ef" stroke-width="1"/><text x="161.3" y="414.0" text-anchor="middle" font-size="11" fill="#8a8fa3">Jun 10</text><line x1="305.9" y1="46" x2="305.9" y2="396" stroke="#e3e5ef" stroke-width="1"/><text x="305.9" y="414.0" text-anchor="middle" font-size="11" fill="#8a8fa3">Jun 12</text><line x1="450.4" y1="46" x2="450.4" y2="396" stroke="#e3e5ef" stroke-width="1"/><text x="450.4" y="414.0" text-anchor="middle" font-size="11" fill="#8a8fa3">Jun 14</text><line x1="595.0" y1="46" x2="595.0" y2="396" stroke="#e3e5ef" stroke-width="1"/><text x="595.0" y="414.0" text-anchor="middle" font-size="11" fill="#8a8fa3">Jun 16</text><line x1="739.5" y1="46" x2="739.5" y2="396" stroke="#e3e5ef" stroke-width="1"/><text x="739.5" y="414.0" text-anchor="middle" font-size="11" fill="#8a8fa3">Jun 18</text><line x1="884.1" y1="46" x2="884.1" y2="396" stroke="#e3e5ef" stroke-width="1"/><text x="884.1" y="414.0" text-anchor="middle" font-size="11" fill="#8a8fa3">Jun 20</text><line x1="1028.6" y1="46" x2="1028.6" y2="396" stroke="#e3e5ef" stroke-width="1"/><text x="1028.6" y="414.0" text-anchor="middle" font-size="11" fill="#8a8fa3">Jun 22</text><circle cx="60.0" cy="335.3" r="2.3" fill="#b9bdca" opacity="0.5"/><circle cx="63.5" cy="335.1" r="2.3" fill="#b9bdca" opacity="0.5"/><circle cx="67.0" cy="368.0" r="2.3" fill="#b9bdca" opacity="0.5"/><circle cx="68.3" cy="320.7" r="2.3" fill="#b9bdca" opacity="0.5"/><circle cx="78.0" cy="319.9" r="2.3" fill="#b9bdca" opacity="0.5"/><circle cx="78.5" cy="320.6" r="2.3" fill="#b9bdca" opacity="0.5"/><circle cx="81.6" cy="315.3" r="2.3" fill="#b9bdca" opacity="0.5"/><circle cx="82.2" cy="319.7" r="2.3" fill="#b9bdca" opacity="0.5"/><circle cx="82.5" cy="314.9" r="2.3" fill="#b9bdca" opacity="0.5"/><circle cx="83.7" cy="315.5" r="2.3" fill="#b9bdca" opacity="0.5"/><circle cx="84.1" cy="314.9" r="2.3" fill="#b9bdca" opacity="0.5"/><circle cx="85.0" cy="315.4" r="2.3" fill="#b9bdca" opacity="0.5"/><circle cx="86.9" cy="315.0" r="2.3" fill="#b9bdca" opacity="0.5"/><circle cx="141.6" cy="238.7" r="2.3" fill="#b9bdca" opacity="0.5"/><circle cx="142.1" cy="315.0" r="2.3" fill="#b9bdca" opacity="0.5"/><circle cx="142.6" cy="229.0" r="2.3" fill="#b9bdca" opacity="0.5"/><circle cx="143.5" cy="222.3" r="2.3" fill="#b9bdca" opacity="0.5"/><circle cx="144.3" cy="228.0" r="2.3" fill="#b9bdca" opacity="0.5"/><circle cx="144.5" cy="223.3" r="2.3" fill="#b9bdca" opacity="0.5"/><circle cx="144.6" cy="220.6" r="2.3" fill="#b9bdca" opacity="0.5"/><circle cx="144.8" cy="220.5" r="2.3" fill="#b9bdca" opacity="0.5"/><circle cx="145.0" cy="223.2" r="2.3" fill="#b9bdca" opacity="0.5"/><circle cx="145.5" cy="214.2" r="2.3" fill="#b9bdca" opacity="0.5"/><circle cx="145.6" cy="222.1" r="2.3" fill="#b9bdca" opacity="0.5"/><circle cx="146.0" cy="220.7" r="2.3" fill="#b9bdca" opacity="0.5"/><circle cx="146.6" cy="218.5" r="2.3" fill="#b9bdca" opacity="0.5"/><circle cx="146.8" cy="215.2" r="2.3" fill="#b9bdca" opacity="0.5"/><circle cx="147.2" cy="214.3" r="2.3" fill="#b9bdca" opacity="0.5"/><circle cx="147.2" cy="219.2" r="2.3" fill="#b9bdca" opacity="0.5"/><circle cx="147.6" cy="214.1" r="2.3" fill="#b9bdca" opacity="0.5"/><circle cx="148.0" cy="215.2" r="2.3" fill="#b9bdca" opacity="0.5"/><circle cx="148.3" cy="213.7" r="2.3" fill="#b9bdca" opacity="0.5"/><circle cx="148.7" cy="213.5" r="2.3" fill="#b9bdca" opacity="0.5"/><circle cx="149.1" cy="214.8" r="2.3" fill="#b9bdca" opacity="0.5"/><circle cx="149.1" cy="217.7" r="2.3" fill="#b9bdca" opacity="0.5"/><circle cx="149.4" cy="212.7" r="2.3" fill="#b9bdca" opacity="0.5"/><circle cx="150.2" cy="213.3" r="2.3" fill="#b9bdca" opacity="0.5"/><circle cx="151.2" cy="212.7" r="2.3" fill="#b9bdca" opacity="0.5"/><circle cx="151.2" cy="213.6" r="2.3" fill="#b9bdca" opacity="0.5"/><circle cx="151.6" cy="213.0" r="2.3" fill="#b9bdca" opacity="0.5"/><circle cx="152.2" cy="212.1" r="2.3" fill="#b9bdca" opacity="0.5"/><circle cx="152.4" cy="213.3" r="2.3" fill="#b9bdca" opacity="0.5"/><circle cx="153.0" cy="212.0" r="2.3" fill="#b9bdca" opacity="0.5"/><circle cx="154.0" cy="212.1" r="2.3" fill="#b9bdca" opacity="0.5"/><circle cx="154.0" cy="212.8" r="2.3" fill="#b9bdca" opacity="0.5"/><circle cx="160.6" cy="206.7" r="2.3" fill="#b9bdca" opacity="0.5"/><circle cx="161.5" cy="206.8" r="2.3" fill="#b9bdca" opacity="0.5"/><circle cx="161.5" cy="212.5" r="2.3" fill="#b9bdca" opacity="0.5"/><circle cx="162.1" cy="207.2" r="2.3" fill="#b9bdca" opacity="0.5"/><circle cx="164.2" cy="207.0" r="2.3" fill="#b9bdca" opacity="0.5"/><circle cx="169.2" cy="204.9" r="2.3" fill="#b9bdca" opacity="0.5"/><circle cx="172.4" cy="204.6" r="2.3" fill="#b9bdca" opacity="0.5"/><circle cx="172.7" cy="212.3" r="2.3" fill="#b9bdca" opacity="0.5"/><circle cx="173.3" cy="204.6" r="2.3" fill="#b9bdca" opacity="0.5"/><circle cx="173.3" cy="204.6" r="2.3" fill="#b9bdca" opacity="0.5"/><circle cx="173.3" cy="204.9" r="2.3" fill="#b9bdca" opacity="0.5"/><circle cx="173.3" cy="204.9" r="2.3" fill="#b9bdca" opacity="0.5"/><circle cx="174.5" cy="201.9" r="2.3" fill="#b9bdca" opacity="0.5"/><circle cx="176.5" cy="206.5" r="2.3" fill="#b9bdca" opacity="0.5"/><circle cx="177.3" cy="205.8" r="2.3" fill="#b9bdca" opacity="0.5"/><circle cx="177.3" cy="335.1" r="2.3" fill="#b9bdca" opacity="0.5"/><circle cx="178.4" cy="201.8" r="2.3" fill="#b9bdca" opacity="0.5"/><circle cx="178.5" cy="202.2" r="2.3" fill="#b9bdca" opacity="0.5"/><circle cx="180.3" cy="201.0" r="2.3" fill="#b9bdca" opacity="0.5"/><circle cx="181.1" cy="203.1" r="2.3" fill="#b9bdca" opacity="0.5"/><circle cx="181.5" cy="200.0" r="2.3" fill="#b9bdca" opacity="0.5"/><circle cx="181.5" cy="204.6" r="2.3" fill="#b9bdca" opacity="0.5"/><circle cx="182.7" cy="202.3" r="2.3" fill="#b9bdca" opacity="0.5"/><circle cx="185.1" cy="200.4" r="2.3" fill="#b9bdca" opacity="0.5"/><circle cx="186.0" cy="200.7" r="2.3" fill="#b9bdca" opacity="0.5"/><circle cx="187.0" cy="200.0" r="2.3" fill="#b9bdca" opacity="0.5"/><circle cx="189.3" cy="199.7" r="2.3" fill="#b9bdca" opacity="0.5"/><circle cx="203.1" cy="200.6" r="2.3" fill="#b9bdca" opacity="0.5"/><circle cx="204.3" cy="201.8" r="2.3" fill="#b9bdca" opacity="0.5"/><circle cx="206.2" cy="208.4" r="2.3" fill="#b9bdca" opacity="0.5"/><circle cx="206.3" cy="200.8" r="2.3" fill="#b9bdca" opacity="0.5"/><circle cx="207.6" cy="200.7" r="2.3" fill="#b9bdca" opacity="0.5"/><circle cx="207.6" cy="201.9" r="2.3" fill="#b9bdca" opacity="0.5"/><circle cx="208.1" cy="195.5" r="2.3" fill="#b9bdca" opacity="0.5"/><circle cx="209.4" cy="196.9" r="2.3" fill="#b9bdca" opacity="0.5"/><circle cx="210.0" cy="197.9" r="2.3" fill="#b9bdca" opacity="0.5"/><circle cx="211.2" cy="196.1" r="2.3" fill="#b9bdca" opacity="0.5"/><circle cx="215.5" cy="197.3" r="2.3" fill="#b9bdca" opacity="0.5"/><circle cx="216.6" cy="195.9" r="2.3" fill="#b9bdca" opacity="0.5"/><circle cx="217.0" cy="201.0" r="2.3" fill="#b9bdca" opacity="0.5"/><circle cx="217.4" cy="197.5" r="2.3" fill="#b9bdca" opacity="0.5"/><circle cx="218.4" cy="196.9" r="2.3" fill="#b9bdca" opacity="0.5"/><circle cx="218.4" cy="197.1" r="2.3" fill="#b9bdca" opacity="0.5"/><circle cx="218.5" cy="197.0" r="2.3" fill="#b9bdca" opacity="0.5"/><circle cx="219.5" cy="196.0" r="2.3" fill="#b9bdca" opacity="0.5"/><circle cx="219.5" cy="196.0" r="2.3" fill="#b9bdca" opacity="0.5"/><circle cx="219.6" cy="197.9" r="2.3" fill="#b9bdca" opacity="0.5"/><circle cx="220.3" cy="197.8" r="2.3" fill="#b9bdca" opacity="0.5"/><circle cx="220.9" cy="196.2" r="2.3" fill="#b9bdca" opacity="0.5"/><circle cx="220.9" cy="197.5" r="2.3" fill="#b9bdca" opacity="0.5"/><circle cx="221.1" cy="196.9" r="2.3" fill="#b9bdca" opacity="0.5"/><circle cx="221.2" cy="195.5" r="2.3" fill="#b9bdca" opacity="0.5"/><circle cx="222.1" cy="198.1" r="2.3" fill="#b9bdca" opacity="0.5"/><circle cx="222.2" cy="187.4" r="2.3" fill="#b9bdca" opacity="0.5"/><circle cx="222.6" cy="186.2" r="2.3" fill="#b9bdca" opacity="0.5"/><circle cx="222.6" cy="196.3" r="2.3" fill="#b9bdca" opacity="0.5"/><circle cx="222.6" cy="197.2" r="2.3" fill="#b9bdca" opacity="0.5"/><circle cx="222.6" cy="197.8" r="2.3" fill="#b9bdca" opacity="0.5"/><circle cx="222.6" cy="368.0" r="2.3" fill="#b9bdca" opacity="0.5"/><circle cx="223.5" cy="184.5" r="2.3" fill="#b9bdca" opacity="0.5"/><circle cx="227.2" cy="184.6" r="2.3" fill="#b9bdca" opacity="0.5"/><circle cx="228.8" cy="185.6" r="2.3" fill="#b9bdca" opacity="0.5"/><circle cx="234.3" cy="188.7" r="2.3" fill="#b9bdca" opacity="0.5"/><circle cx="241.6" cy="185.4" r="2.3" fill="#b9bdca" opacity="0.5"/><circle cx="243.2" cy="185.2" r="2.3" fill="#b9bdca" opacity="0.5"/><circle cx="243.7" cy="186.6" r="2.3" fill="#b9bdca" opacity="0.5"/><circle cx="244.0" cy="185.3" r="2.3" fill="#b9bdca" opacity="0.5"/><circle cx="245.2" cy="185.3" r="2.3" fill="#b9bdca" opacity="0.5"/><circle cx="245.8" cy="185.0" r="2.3" fill="#b9bdca" opacity="0.5"/><circle cx="247.1" cy="184.9" r="2.3" fill="#b9bdca" opacity="0.5"/><circle cx="247.9" cy="185.1" r="2.3" fill="#b9bdca" opacity="0.5"/><circle cx="247.9" cy="185.2" r="2.3" fill="#b9bdca" opacity="0.5"/><circle cx="247.9" cy="186.4" r="2.3" fill="#b9bdca" opacity="0.5"/><circle cx="248.1" cy="183.9" r="2.3" fill="#b9bdca" opacity="0.5"/><circle cx="254.8" cy="184.4" r="2.3" fill="#b9bdca" opacity="0.5"/><circle cx="255.9" cy="184.2" r="2.3" fill="#b9bdca" opacity="0.5"/><circle cx="260.2" cy="169.3" r="2.3" fill="#b9bdca" opacity="0.5"/><circle cx="264.3" cy="168.8" r="2.3" fill="#b9bdca" opacity="0.5"/><circle cx="264.6" cy="167.7" r="2.3" fill="#b9bdca" opacity="0.5"/><circle cx="266.3" cy="201.4" r="2.3" fill="#b9bdca" opacity="0.5"/><circle cx="266.9" cy="165.0" r="2.3" fill="#b9bdca" opacity="0.5"/><circle cx="267.2" cy="198.2" r="2.3" fill="#b9bdca" opacity="0.5"/><circle cx="267.8" cy="163.7" r="2.3" fill="#b9bdca" opacity="0.5"/><circle cx="268.0" cy="163.6" r="2.3" fill="#b9bdca" opacity="0.5"/><circle cx="268.7" cy="165.9" r="2.3" fill="#b9bdca" opacity="0.5"/><circle cx="272.4" cy="165.1" r="2.3" fill="#b9bdca" opacity="0.5"/><circle cx="273.2" cy="155.9" r="2.3" fill="#b9bdca" opacity="0.5"/><circle cx="276.8" cy="196.5" r="2.3" fill="#b9bdca" opacity="0.5"/><circle cx="278.2" cy="157.4" r="2.3" fill="#b9bdca" opacity="0.5"/><circle cx="279.6" cy="155.8" r="2.3" fill="#b9bdca" opacity="0.5"/><circle cx="281.9" cy="141.9" r="2.3" fill="#b9bdca" opacity="0.5"/><circle cx="286.8" cy="156.1" r="2.3" fill="#b9bdca" opacity="0.5"/><circle cx="286.8" cy="156.4" r="2.3" fill="#b9bdca" opacity="0.5"/><circle cx="287.0" cy="141.8" r="2.3" fill="#b9bdca" opacity="0.5"/><circle cx="287.2" cy="196.0" r="2.3" fill="#b9bdca" opacity="0.5"/><circle cx="288.9" cy="131.7" r="2.3" fill="#b9bdca" opacity="0.5"/><circle cx="289.1" cy="134.1" r="2.3" fill="#b9bdca" opacity="0.5"/><circle cx="289.6" cy="141.1" r="2.3" fill="#b9bdca" opacity="0.5"/><circle cx="290.4" cy="134.0" r="2.3" fill="#b9bdca" opacity="0.5"/><circle cx="290.6" cy="130.9" r="2.3" fill="#b9bdca" opacity="0.5"/><circle cx="290.6" cy="154.2" r="2.3" fill="#b9bdca" opacity="0.5"/><circle cx="290.9" cy="133.6" r="2.3" fill="#b9bdca" opacity="0.5"/><circle cx="291.3" cy="129.5" r="2.3" fill="#b9bdca" opacity="0.5"/><circle cx="291.3" cy="130.9" r="2.3" fill="#b9bdca" opacity="0.5"/><circle cx="291.3" cy="133.4" r="2.3" fill="#b9bdca" opacity="0.5"/><circle cx="291.7" cy="131.2" r="2.3" fill="#b9bdca" opacity="0.5"/><circle cx="294.7" cy="189.8" r="2.3" fill="#b9bdca" opacity="0.5"/><circle cx="294.8" cy="133.2" r="2.3" fill="#b9bdca" opacity="0.5"/><circle cx="295.3" cy="133.5" r="2.3" fill="#b9bdca" opacity="0.5"/><circle cx="296.4" cy="130.1" r="2.3" fill="#b9bdca" opacity="0.5"/><circle cx="299.4" cy="130.3" r="2.3" fill="#b9bdca" opacity="0.5"/><circle cx="300.7" cy="303.1" r="2.3" fill="#b9bdca" opacity="0.5"/><circle cx="303.1" cy="133.2" r="2.3" fill="#b9bdca" opacity="0.5"/><circle cx="306.3" cy="144.2" r="2.3" fill="#b9bdca" opacity="0.5"/><circle cx="307.0" cy="135.3" r="2.3" fill="#b9bdca" opacity="0.5"/><circle cx="309.1" cy="133.4" r="2.3" fill="#b9bdca" opacity="0.5"/><circle cx="309.3" cy="159.9" r="2.3" fill="#b9bdca" opacity="0.5"/><circle cx="309.8" cy="130.8" r="2.3" fill="#b9bdca" opacity="0.5"/><circle cx="310.6" cy="133.2" r="2.3" fill="#b9bdca" opacity="0.5"/><circle cx="317.9" cy="130.9" r="2.3" fill="#b9bdca" opacity="0.5"/><circle cx="318.7" cy="130.9" r="2.3" fill="#b9bdca" opacity="0.5"/><circle cx="318.7" cy="133.8" r="2.3" fill="#b9bdca" opacity="0.5"/><circle cx="319.9" cy="130.4" r="2.3" fill="#b9bdca" opacity="0.5"/><circle cx="320.7" cy="153.7" r="2.3" fill="#b9bdca" opacity="0.5"/><circle cx="322.1" cy="133.3" r="2.3" fill="#b9bdca" opacity="0.5"/><circle cx="324.4" cy="156.5" r="2.3" fill="#b9bdca" opacity="0.5"/><circle cx="324.8" cy="132.3" r="2.3" fill="#b9bdca" opacity="0.5"/><circle cx="327.5" cy="147.2" r="2.3" fill="#b9bdca" opacity="0.5"/><circle cx="328.0" cy="133.6" r="2.3" fill="#b9bdca" opacity="0.5"/><circle cx="328.9" cy="129.5" r="2.3" fill="#b9bdca" opacity="0.5"/><circle cx="328.9" cy="133.3" r="2.3" fill="#b9bdca" opacity="0.5"/><circle cx="332.2" cy="133.3" r="2.3" fill="#b9bdca" opacity="0.5"/><circle cx="334.3" cy="129.5" r="2.3" fill="#b9bdca" opacity="0.5"/><circle cx="338.1" cy="130.6" r="2.3" fill="#b9bdca" opacity="0.5"/><circle cx="340.8" cy="128.9" r="2.3" fill="#b9bdca" opacity="0.5"/><circle cx="341.4" cy="132.7" r="2.3" fill="#b9bdca" opacity="0.5"/><circle cx="341.4" cy="133.1" r="2.3" fill="#b9bdca" opacity="0.5"/><circle cx="345.5" cy="129.8" r="2.3" fill="#b9bdca" opacity="0.5"/><circle cx="346.6" cy="333.8" r="2.3" fill="#b9bdca" opacity="0.5"/><circle cx="347.0" cy="128.4" r="2.3" fill="#b9bdca" opacity="0.5"/><circle cx="348.9" cy="129.8" r="2.3" fill="#b9bdca" opacity="0.5"/><circle cx="349.7" cy="128.9" r="2.3" fill="#b9bdca" opacity="0.5"/><circle cx="349.9" cy="128.9" r="2.3" fill="#b9bdca" opacity="0.5"/><circle cx="351.3" cy="128.2" r="2.3" fill="#b9bdca" opacity="0.5"/><circle cx="352.3" cy="129.7" r="2.3" fill="#b9bdca" opacity="0.5"/><circle cx="352.7" cy="142.3" r="2.3" fill="#b9bdca" opacity="0.5"/><circle cx="356.6" cy="128.8" r="2.3" fill="#b9bdca" opacity="0.5"/><circle cx="358.9" cy="161.1" r="2.3" fill="#b9bdca" opacity="0.5"/><circle cx="363.3" cy="164.4" r="2.3" fill="#b9bdca" opacity="0.5"/><circle cx="363.8" cy="248.3" r="2.3" fill="#b9bdca" opacity="0.5"/><circle cx="370.1" cy="135.4" r="2.3" fill="#b9bdca" opacity="0.5"/><circle cx="370.7" cy="128.0" r="2.3" fill="#b9bdca" opacity="0.5"/><circle cx="372.6" cy="229.0" r="2.3" fill="#b9bdca" opacity="0.5"/><circle cx="377.1" cy="128.1" r="2.3" fill="#b9bdca" opacity="0.5"/><circle cx="378.2" cy="128.6" r="2.3" fill="#b9bdca" opacity="0.5"/><circle cx="382.3" cy="128.8" r="2.3" fill="#b9bdca" opacity="0.5"/><circle cx="382.3" cy="129.6" r="2.3" fill="#b9bdca" opacity="0.5"/><circle cx="382.3" cy="130.9" r="2.3" fill="#b9bdca" opacity="0.5"/><circle cx="391.0" cy="112.8" r="2.3" fill="#b9bdca" opacity="0.5"/><circle cx="395.5" cy="110.2" r="2.3" fill="#b9bdca" opacity="0.5"/><circle cx="395.7" cy="111.6" r="2.3" fill="#b9bdca" opacity="0.5"/><circle cx="398.5" cy="111.0" r="2.3" fill="#b9bdca" opacity="0.5"/><circle cx="399.9" cy="335.1" r="2.3" fill="#b9bdca" opacity="0.5"/><circle cx="400.6" cy="111.6" r="2.3" fill="#b9bdca" opacity="0.5"/><circle cx="403.5" cy="105.5" r="2.3" fill="#b9bdca" opacity="0.5"/><circle cx="403.9" cy="108.5" r="2.3" fill="#b9bdca" opacity="0.5"/><circle cx="405.1" cy="105.1" r="2.3" fill="#b9bdca" opacity="0.5"/><circle cx="406.4" cy="103.8" r="2.3" fill="#b9bdca" opacity="0.5"/><circle cx="407.9" cy="125.8" r="2.3" fill="#b9bdca" opacity="0.5"/><circle cx="420.4" cy="103.5" r="2.3" fill="#b9bdca" opacity="0.5"/><circle cx="423.6" cy="127.8" r="2.3" fill="#b9bdca" opacity="0.5"/><circle cx="425.0" cy="334.3" r="2.3" fill="#b9bdca" opacity="0.5"/><circle cx="427.0" cy="128.6" r="2.3" fill="#b9bdca" opacity="0.5"/><circle cx="427.9" cy="128.6" r="2.3" fill="#b9bdca" opacity="0.5"/><circle cx="428.1" cy="128.6" r="2.3" fill="#b9bdca" opacity="0.5"/><circle cx="429.2" cy="256.6" r="2.3" fill="#b9bdca" opacity="0.5"/><circle cx="430.7" cy="254.6" r="2.3" fill="#b9bdca" opacity="0.5"/><circle cx="433.0" cy="128.6" r="2.3" fill="#b9bdca" opacity="0.5"/><circle cx="438.7" cy="250.1" r="2.3" fill="#b9bdca" opacity="0.5"/><circle cx="439.2" cy="161.4" r="2.3" fill="#b9bdca" opacity="0.5"/><circle cx="439.8" cy="206.6" r="2.3" fill="#b9bdca" opacity="0.5"/><circle cx="445.1" cy="113.5" r="2.3" fill="#b9bdca" opacity="0.5"/><circle cx="446.9" cy="89.6" r="2.3" fill="#b9bdca" opacity="0.5"/><circle cx="448.2" cy="90.2" r="2.3" fill="#b9bdca" opacity="0.5"/><circle cx="451.5" cy="89.3" r="2.3" fill="#b9bdca" opacity="0.5"/><circle cx="452.4" cy="87.6" r="2.3" fill="#b9bdca" opacity="0.5"/><circle cx="453.5" cy="185.0" r="2.3" fill="#b9bdca" opacity="0.5"/><circle cx="454.7" cy="131.6" r="2.3" fill="#b9bdca" opacity="0.5"/><circle cx="455.6" cy="87.8" r="2.3" fill="#b9bdca" opacity="0.5"/><circle cx="457.1" cy="85.4" r="2.3" fill="#b9bdca" opacity="0.5"/><circle cx="459.5" cy="86.8" r="2.3" fill="#b9bdca" opacity="0.5"/><circle cx="461.9" cy="88.4" r="2.3" fill="#b9bdca" opacity="0.5"/><circle cx="471.8" cy="89.5" r="2.3" fill="#b9bdca" opacity="0.5"/><circle cx="471.8" cy="155.6" r="2.3" fill="#b9bdca" opacity="0.5"/><circle cx="471.9" cy="84.4" r="2.3" fill="#b9bdca" opacity="0.5"/><circle cx="483.7" cy="89.2" r="2.3" fill="#b9bdca" opacity="0.5"/><circle cx="483.9" cy="90.5" r="2.3" fill="#b9bdca" opacity="0.5"/><circle cx="487.3" cy="87.7" r="2.3" fill="#b9bdca" opacity="0.5"/><circle cx="488.4" cy="367.9" r="2.3" fill="#b9bdca" opacity="0.5"/><circle cx="493.2" cy="164.3" r="2.3" fill="#b9bdca" opacity="0.5"/><circle cx="495.6" cy="94.6" r="2.3" fill="#b9bdca" opacity="0.5"/><circle cx="496.5" cy="89.6" r="2.3" fill="#b9bdca" opacity="0.5"/><circle cx="506.7" cy="124.6" r="2.3" fill="#b9bdca" opacity="0.5"/><circle cx="517.6" cy="146.2" r="2.3" fill="#b9bdca" opacity="0.5"/><circle cx="517.9" cy="90.5" r="2.3" fill="#b9bdca" opacity="0.5"/><circle cx="518.9" cy="87.7" r="2.3" fill="#b9bdca" opacity="0.5"/><circle cx="519.4" cy="87.7" r="2.3" fill="#b9bdca" opacity="0.5"/><circle cx="519.5" cy="89.6" r="2.3" fill="#b9bdca" opacity="0.5"/><circle cx="527.2" cy="93.0" r="2.3" fill="#b9bdca" opacity="0.5"/><circle cx="530.0" cy="85.5" r="2.3" fill="#b9bdca" opacity="0.5"/><circle cx="552.9" cy="334.8" r="2.3" fill="#b9bdca" opacity="0.5"/><circle cx="555.5" cy="86.3" r="2.3" fill="#b9bdca" opacity="0.5"/><circle cx="563.2" cy="85.5" r="2.3" fill="#b9bdca" opacity="0.5"/><circle cx="564.6" cy="84.6" r="2.3" fill="#b9bdca" opacity="0.5"/><circle cx="567.8" cy="87.8" r="2.3" fill="#b9bdca" opacity="0.5"/><circle cx="569.1" cy="84.4" r="2.3" fill="#b9bdca" opacity="0.5"/><circle cx="569.8" cy="84.8" r="2.3" fill="#b9bdca" opacity="0.5"/><circle cx="572.1" cy="87.4" r="2.3" fill="#b9bdca" opacity="0.5"/><circle cx="584.4" cy="84.4" r="2.3" fill="#b9bdca" opacity="0.5"/><circle cx="638.4" cy="89.3" r="2.3" fill="#b9bdca" opacity="0.5"/><circle cx="648.1" cy="88.6" r="2.3" fill="#b9bdca" opacity="0.5"/><circle cx="648.1" cy="92.1" r="2.3" fill="#b9bdca" opacity="0.5"/><circle cx="650.2" cy="156.8" r="2.3" fill="#b9bdca" opacity="0.5"/><circle cx="681.3" cy="201.6" r="2.3" fill="#b9bdca" opacity="0.5"/><circle cx="704.0" cy="315.6" r="2.3" fill="#b9bdca" opacity="0.5"/><circle cx="766.2" cy="87.7" r="2.3" fill="#b9bdca" opacity="0.5"/><circle cx="785.0" cy="87.6" r="2.3" fill="#b9bdca" opacity="0.5"/><circle cx="801.7" cy="87.2" r="2.3" fill="#b9bdca" opacity="0.5"/><circle cx="805.5" cy="88.8" r="2.3" fill="#b9bdca" opacity="0.5"/><circle cx="807.0" cy="89.2" r="2.3" fill="#b9bdca" opacity="0.5"/><circle cx="807.8" cy="90.9" r="2.3" fill="#b9bdca" opacity="0.5"/><circle cx="812.6" cy="87.7" r="2.3" fill="#b9bdca" opacity="0.5"/><circle cx="829.4" cy="88.6" r="2.3" fill="#b9bdca" opacity="0.5"/><circle cx="831.6" cy="89.7" r="2.3" fill="#b9bdca" opacity="0.5"/><circle cx="833.0" cy="88.2" r="2.3" fill="#b9bdca" opacity="0.5"/><circle cx="864.6" cy="75.8" r="2.3" fill="#b9bdca" opacity="0.5"/><circle cx="867.0" cy="75.7" r="2.3" fill="#b9bdca" opacity="0.5"/><circle cx="868.8" cy="76.7" r="2.3" fill="#b9bdca" opacity="0.5"/><circle cx="869.0" cy="75.8" r="2.3" fill="#b9bdca" opacity="0.5"/><circle cx="869.9" cy="75.3" r="2.3" fill="#b9bdca" opacity="0.5"/><circle cx="870.4" cy="74.7" r="2.3" fill="#b9bdca" opacity="0.5"/><circle cx="870.7" cy="83.4" r="2.3" fill="#b9bdca" opacity="0.5"/><circle cx="871.5" cy="76.2" r="2.3" fill="#b9bdca" opacity="0.5"/><circle cx="872.2" cy="78.1" r="2.3" fill="#b9bdca" opacity="0.5"/><circle cx="873.0" cy="74.7" r="2.3" fill="#b9bdca" opacity="0.5"/><circle cx="878.2" cy="89.3" r="2.3" fill="#b9bdca" opacity="0.5"/><circle cx="888.8" cy="74.4" r="2.3" fill="#b9bdca" opacity="0.5"/><circle cx="905.5" cy="74.4" r="2.3" fill="#b9bdca" opacity="0.5"/><circle cx="908.2" cy="335.1" r="2.3" fill="#b9bdca" opacity="0.5"/><circle cx="908.2" cy="81.7" r="2.3" fill="#b9bdca" opacity="0.5"/><circle cx="910.2" cy="74.6" r="2.3" fill="#b9bdca" opacity="0.5"/><circle cx="910.2" cy="82.1" r="2.3" fill="#b9bdca" opacity="0.5"/><circle cx="910.3" cy="73.9" r="2.3" fill="#b9bdca" opacity="0.5"/><circle cx="915.1" cy="76.2" r="2.3" fill="#b9bdca" opacity="0.5"/><circle cx="915.8" cy="82.1" r="2.3" fill="#b9bdca" opacity="0.5"/><circle cx="916.5" cy="74.2" r="2.3" fill="#b9bdca" opacity="0.5"/><circle cx="916.6" cy="75.0" r="2.3" fill="#b9bdca" opacity="0.5"/><circle cx="917.6" cy="73.6" r="2.3" fill="#b9bdca" opacity="0.5"/><circle cx="917.6" cy="83.3" r="2.3" fill="#b9bdca" opacity="0.5"/><circle cx="917.6" cy="83.8" r="2.3" fill="#b9bdca" opacity="0.5"/><circle cx="917.7" cy="78.1" r="2.3" fill="#b9bdca" opacity="0.5"/><circle cx="917.7" cy="81.5" r="2.3" fill="#b9bdca" opacity="0.5"/><circle cx="917.7" cy="83.0" r="2.3" fill="#b9bdca" opacity="0.5"/><circle cx="917.7" cy="83.7" r="2.3" fill="#b9bdca" opacity="0.5"/><circle cx="924.3" cy="82.7" r="2.3" fill="#b9bdca" opacity="0.5"/><circle cx="925.7" cy="77.8" r="2.3" fill="#b9bdca" opacity="0.5"/><circle cx="929.2" cy="69.8" r="2.3" fill="#b9bdca" opacity="0.5"/><circle cx="930.4" cy="75.9" r="2.3" fill="#b9bdca" opacity="0.5"/><circle cx="930.8" cy="74.3" r="2.3" fill="#b9bdca" opacity="0.5"/><circle cx="930.8" cy="77.4" r="2.3" fill="#b9bdca" opacity="0.5"/><circle cx="930.8" cy="80.6" r="2.3" fill="#b9bdca" opacity="0.5"/><circle cx="930.8" cy="81.8" r="2.3" fill="#b9bdca" opacity="0.5"/><circle cx="933.2" cy="76.9" r="2.3" fill="#b9bdca" opacity="0.5"/><circle cx="933.2" cy="82.8" r="2.3" fill="#b9bdca" opacity="0.5"/><circle cx="933.2" cy="83.0" r="2.3" fill="#b9bdca" opacity="0.5"/><circle cx="933.2" cy="83.1" r="2.3" fill="#b9bdca" opacity="0.5"/><circle cx="934.3" cy="69.1" r="2.3" fill="#b9bdca" opacity="0.5"/><circle cx="937.0" cy="75.5" r="2.3" fill="#b9bdca" opacity="0.5"/><circle cx="938.5" cy="74.3" r="2.3" fill="#b9bdca" opacity="0.5"/><circle cx="980.9" cy="74.0" r="2.3" fill="#b9bdca" opacity="0.5"/><circle cx="1031.1" cy="73.4" r="2.3" fill="#b9bdca" opacity="0.5"/><circle cx="1031.6" cy="75.9" r="2.3" fill="#b9bdca" opacity="0.5"/><circle cx="1031.6" cy="76.3" r="2.3" fill="#b9bdca" opacity="0.5"/><circle cx="1032.0" cy="76.0" r="2.3" fill="#b9bdca" opacity="0.5"/><circle cx="1032.0" cy="76.8" r="2.3" fill="#b9bdca" opacity="0.5"/><circle cx="1032.0" cy="81.2" r="2.3" fill="#b9bdca" opacity="0.5"/><circle cx="1032.0" cy="83.4" r="2.3" fill="#b9bdca" opacity="0.5"/><path d="M273.2 152.3L276.8 155.9L273.2 159.5L269.6 155.9Z" fill="#2b3a7a" opacity="0.8" stroke="none" stroke-width="0"/><path d="M287.0 138.2L290.6 141.8L287.0 145.4L283.4 141.8Z" fill="#2b3a7a" opacity="0.8" stroke="none" stroke-width="0"/><path d="M288.9 128.1L292.5 131.7L288.9 135.3L285.3 131.7Z" fill="#2b3a7a" opacity="0.8" stroke="none" stroke-width="0"/><path d="M289.1 130.5L292.7 134.1L289.1 137.7L285.5 134.1Z" fill="#2b3a7a" opacity="0.8" stroke="none" stroke-width="0"/><path d="M290.6 127.3L294.2 130.9L290.6 134.5L287.0 130.9Z" fill="#2b3a7a" opacity="0.8" stroke="none" stroke-width="0"/><path d="M291.3 125.9L294.9 129.5L291.3 133.1L287.7 129.5Z" fill="#2b3a7a" opacity="0.8" stroke="none" stroke-width="0"/><path d="M291.3 127.3L294.9 130.9L291.3 134.5L287.7 130.9Z" fill="#2b3a7a" opacity="0.8" stroke="none" stroke-width="0"/><path d="M334.3 125.9L337.9 129.5L334.3 133.1L330.7 129.5Z" fill="#2b3a7a" opacity="0.8" stroke="none" stroke-width="0"/><path d="M340.8 125.3L344.4 128.9L340.8 132.5L337.2 128.9Z" fill="#2b3a7a" opacity="0.8" stroke="none" stroke-width="0"/><path d="M347.0 124.8L350.6 128.4L347.0 132.0L343.4 128.4Z" fill="#2b3a7a" opacity="0.8" stroke="none" stroke-width="0"/><path d="M351.3 124.6L354.9 128.2L351.3 131.8L347.7 128.2Z" fill="#2b3a7a" opacity="0.8" stroke="none" stroke-width="0"/><path d="M370.7 124.4L374.3 128.0L370.7 131.6L367.1 128.0Z" fill="#2b3a7a" opacity="0.8" stroke="none" stroke-width="0"/><path d="M391.0 109.2L394.6 112.8L391.0 116.4L387.4 112.8Z" fill="#2b3a7a" opacity="0.8" stroke="none" stroke-width="0"/><path d="M400.6 108.0L404.2 111.6L400.6 115.2L397.0 111.6Z" fill="#2b3a7a" opacity="0.8" stroke="none" stroke-width="0"/><path d="M403.5 101.9L407.1 105.5L403.5 109.1L399.9 105.5Z" fill="#2b3a7a" opacity="0.8" stroke="none" stroke-width="0"/><path d="M403.9 104.9L407.5 108.5L403.9 112.1L400.3 108.5Z" fill="#2b3a7a" opacity="0.8" stroke="none" stroke-width="0"/><path d="M405.1 101.5L408.7 105.1L405.1 108.7L401.5 105.1Z" fill="#2b3a7a" opacity="0.8" stroke="none" stroke-width="0"/><path d="M406.4 100.2L410.0 103.8L406.4 107.4L402.8 103.8Z" fill="#2b3a7a" opacity="0.8" stroke="none" stroke-width="0"/><path d="M420.4 99.9L424.0 103.5L420.4 107.1L416.8 103.5Z" fill="#2b3a7a" opacity="0.8" stroke="none" stroke-width="0"/><path d="M446.9 86.0L450.5 89.6L446.9 93.2L443.3 89.6Z" fill="#2b3a7a" opacity="0.8" stroke="none" stroke-width="0"/><path d="M451.5 85.7L455.1 89.3L451.5 92.9L447.9 89.3Z" fill="#2b3a7a" opacity="0.8" stroke="none" stroke-width="0"/><path d="M452.4 84.0L456.0 87.6L452.4 91.2L448.8 87.6Z" fill="#2b3a7a" opacity="0.8" stroke="none" stroke-width="0"/><path d="M457.1 81.8L460.7 85.4L457.1 89.0L453.5 85.4Z" fill="#2b3a7a" opacity="0.8" stroke="none" stroke-width="0"/><path d="M471.9 80.8L475.5 84.4L471.9 88.0L468.3 84.4Z" fill="#2b3a7a" opacity="0.8" stroke="none" stroke-width="0"/><path d="M584.4 80.8L588.0 84.4L584.4 88.0L580.8 84.4Z" fill="#2b3a7a" opacity="0.8" stroke="none" stroke-width="0"/><path d="M864.6 72.2L868.2 75.8L864.6 79.4L861.0 75.8Z" fill="#2b3a7a" opacity="0.8" stroke="none" stroke-width="0"/><path d="M867.0 72.1L870.6 75.7L867.0 79.3L863.4 75.7Z" fill="#2b3a7a" opacity="0.8" stroke="none" stroke-width="0"/><path d="M869.9 71.7L873.5 75.3L869.9 78.9L866.3 75.3Z" fill="#2b3a7a" opacity="0.8" stroke="none" stroke-width="0"/><path d="M870.4 71.1L874.0 74.7L870.4 78.3L866.8 74.7Z" fill="#2b3a7a" opacity="0.8" stroke="none" stroke-width="0"/><path d="M873.0 71.1L876.6 74.7L873.0 78.3L869.4 74.7Z" fill="#2b3a7a" opacity="0.8" stroke="none" stroke-width="0"/><path d="M888.8 70.8L892.4 74.4L888.8 78.0L885.2 74.4Z" fill="#2b3a7a" opacity="0.8" stroke="none" stroke-width="0"/><path d="M910.3 70.3L913.9 73.9L910.3 77.5L906.7 73.9Z" fill="#2b3a7a" opacity="0.8" stroke="none" stroke-width="0"/><path d="M917.6 70.0L921.2 73.6L917.6 77.2L914.0 73.6Z" fill="#2b3a7a" opacity="0.8" stroke="none" stroke-width="0"/><path d="M1031.1 69.8L1034.7 73.4L1031.1 77.0L1027.5 73.4Z" fill="#2b3a7a" opacity="0.8" stroke="none" stroke-width="0"/><path d="M60.0 335.3L63.5 335.3L63.5 335.1L68.3 335.1L68.3 320.7L78.0 320.7L78.0 319.9L81.6 319.9L81.6 315.3L82.5 315.3L82.5 314.9L84.1 314.9L84.1 314.9L141.6 314.9L141.6 238.7L142.6 238.7L142.6 229.0L143.5 229.0L143.5 222.3L144.6 222.3L144.6 220.6L144.8 220.6L144.8 220.5L145.5 220.5L145.5 214.2L147.6 214.2L147.6 214.1L148.3 214.1L148.3 213.7L148.7 213.7L148.7 213.5L149.4 213.5L149.4 212.7L152.2 212.7L152.2 212.1L153.0 212.1L153.0 212.0L160.6 212.0L160.6 206.7L169.2 206.7L169.2 204.9L172.4 204.9L172.4 204.6L174.5 204.6L174.5 201.9L178.4 201.9L178.4 201.8L180.3 201.8L180.3 201.0L181.5 201.0L181.5 200.0L187.0 200.0L187.0 200.0L189.3 200.0L189.3 199.7L208.1 199.7L208.1 195.5L222.2 195.5L222.2 187.4L222.6 187.4L222.6 186.2L223.5 186.2L223.5 184.5L248.1 184.5L248.1 183.9L260.2 183.9L260.2 169.3L264.3 169.3L264.3 168.8L264.6 168.8L264.6 167.7L266.9 167.7L266.9 165.0L267.8 165.0L267.8 163.7L268.0 163.7L268.0 163.6L273.2 163.6L273.2 155.9L279.6 155.9L279.6 155.8L281.9 155.8L281.9 141.9L287.0 141.9L287.0 141.8L288.9 141.8L288.9 131.7L290.6 131.7L290.6 130.9L291.3 130.9L291.3 129.5L334.3 129.5L334.3 129.5L340.8 129.5L340.8 128.9L347.0 128.9L347.0 128.4L351.3 128.4L351.3 128.2L370.7 128.2L370.7 128.0L391.0 128.0L391.0 112.8L395.5 112.8L395.5 110.2L403.5 110.2L403.5 105.5L405.1 105.5L405.1 105.1L406.4 105.1L406.4 103.8L420.4 103.8L420.4 103.5L446.9 103.5L446.9 89.6L451.5 89.6L451.5 89.3L452.4 89.3L452.4 87.6L457.1 87.6L457.1 85.4L471.9 85.4L471.9 84.4L584.4 84.4L584.4 84.4L864.6 84.4L864.6 75.8L867.0 75.8L867.0 75.7L869.9 75.7L869.9 75.3L870.4 75.3L870.4 74.7L873.0 74.7L873.0 74.7L888.8 74.7L888.8 74.4L910.3 74.4L910.3 73.9L917.6 73.9L917.6 73.6L929.2 73.6L929.2 69.8L934.3 69.8L934.3 69.1L1032.0 69.1" fill="none" stroke="#6675b0" stroke-width="1.6" stroke-dasharray="5 3" opacity="0.75"/><path d="M273.2 155.9L287.0 155.9L287.0 141.8L288.9 141.8L288.9 131.7L290.6 131.7L290.6 130.9L291.3 130.9L291.3 129.5L334.3 129.5L334.3 129.5L340.8 129.5L340.8 128.9L347.0 128.9L347.0 128.4L351.3 128.4L351.3 128.2L370.7 128.2L370.7 128.0L391.0 128.0L391.0 112.8L400.6 112.8L400.6 111.6L403.5 111.6L403.5 105.5L405.1 105.5L405.1 105.1L406.4 105.1L406.4 103.8L420.4 103.8L420.4 103.5L446.9 103.5L446.9 89.6L451.5 89.6L451.5 89.3L452.4 89.3L452.4 87.6L457.1 87.6L457.1 85.4L471.9 85.4L471.9 84.4L584.4 84.4L584.4 84.4L864.6 84.4L864.6 75.8L867.0 75.8L867.0 75.7L869.9 75.7L869.9 75.3L870.4 75.3L870.4 74.7L873.0 74.7L873.0 74.7L888.8 74.7L888.8 74.4L910.3 74.4L910.3 73.9L917.6 73.9L917.6 73.6L929.3 73.6L929.3 73.5L1031.1 73.5L1031.1 73.4L1032.0 73.4" fill="none" stroke="#2b3a7a" stroke-width="2.6"/><path d="M773.7 246.9L780.2 253.4L773.7 259.9L767.2 253.4Z" fill="#c5961a" opacity="1.0" stroke="#ffffff" stroke-width="1.4"/><path d="M913.1 206.5L919.6 213.0L913.1 219.5L906.6 213.0Z" fill="#c5961a" opacity="1.0" stroke="#ffffff" stroke-width="1.4"/><path d="M929.3 67.0L935.8 73.5L929.3 80.0L922.8 73.5Z" fill="#c5961a" opacity="1.0" stroke="#ffffff" stroke-width="1.4"/><text x="1042" y="67.1" font-size="11.5" fill="#6675b0">– – raw best 513.8</text><text x="1042" y="81.1" font-size="10" fill="#8a8fa3">unverified (pending)</text><path d="M1031.1 66.9L1037.6 73.4L1031.1 79.9L1024.6 73.4Z" fill="#2b3a7a" opacity="1.0" stroke="#ffffff" stroke-width="1.4"/><text x="1042" y="101.4" font-size="12.5" fill="#2b3a7a" font-weight="bold">◆ verified 506.9</text><text x="1042" y="117.4" font-size="10.5" fill="#3a3f55">top verified</text><text x="60" y="24" font-size="13" font-weight="bold" fill="#3a3f55" letter-spacing="1.2">SCORE EVOLUTION — gemma-challenge (tok/s)</text><circle cx="452" cy="20" r="3" fill="#b9bdca"/><text x="460" y="24" font-size="10.5" fill="#8a8fa3">all results</text><path d="M544.0 16.4L547.6 20.0L544.0 23.6L540.4 20.0Z" fill="#2b3a7a" opacity="1.0" stroke="none" stroke-width="0"/><text x="552" y="24" font-size="10.5" fill="#8a8fa3">verified</text><path d="M620.0 15.5L624.5 20.0L620.0 24.5L615.5 20.0Z" fill="#c5961a" opacity="1.0" stroke="#fff" stroke-width="1"/><text x="629" y="24" font-size="10.5" fill="#8a8fa3">mikasa-inbound (us)</text></svg>