<svg viewBox="0 0 1200 440" xmlns="http://www.w3.org/2000/svg" font-family="ui-sans-serif,system-ui,-apple-system,sans-serif"><rect x="0" y="0" width="1200" height="440" fill="#ffffff"/><rect x="60" y="46" width="972" height="350" fill="#f3f4fb"/><line x1="60" y1="396.0" x2="1032" y2="396.0" stroke="#e3e5ef" stroke-width="1"/><text x="52" y="400.0" text-anchor="end" font-size="11" fill="#8a8fa3">0</text><line x1="60" y1="332.4" x2="1032" y2="332.4" stroke="#e3e5ef" stroke-width="1"/><text x="52" y="336.4" text-anchor="end" font-size="11" fill="#8a8fa3">100</text><line x1="60" y1="268.7" x2="1032" y2="268.7" stroke="#e3e5ef" stroke-width="1"/><text x="52" y="272.7" text-anchor="end" font-size="11" fill="#8a8fa3">200</text><line x1="60" y1="205.1" x2="1032" y2="205.1" stroke="#e3e5ef" stroke-width="1"/><text x="52" y="209.1" text-anchor="end" font-size="11" fill="#8a8fa3">300</text><line x1="60" y1="141.5" x2="1032" y2="141.5" stroke="#e3e5ef" stroke-width="1"/><text x="52" y="145.5" text-anchor="end" font-size="11" fill="#8a8fa3">400</text><line x1="60" y1="77.8" x2="1032" y2="77.8" stroke="#e3e5ef" stroke-width="1"/><text x="52" y="81.8" text-anchor="end" font-size="11" fill="#8a8fa3">500</text><line x1="110.2" y1="46" x2="110.2" y2="396" stroke="#e3e5ef" stroke-width="1"/><text x="110.2" y="414.0" text-anchor="middle" font-size="11" fill="#8a8fa3">Jun 10</text><line x1="181.8" y1="46" x2="181.8" y2="396" stroke="#e3e5ef" stroke-width="1"/><text x="181.8" y="414.0" text-anchor="middle" font-size="11" fill="#8a8fa3">Jun 12</text><line x1="253.3" y1="46" x2="253.3" y2="396" stroke="#e3e5ef" stroke-width="1"/><text x="253.3" y="414.0" text-anchor="middle" font-size="11" fill="#8a8fa3">Jun 14</text><line x1="324.9" y1="46" x2="324.9" y2="396" stroke="#e3e5ef" stroke-width="1"/><text x="324.9" y="414.0" text-anchor="middle" font-size="11" fill="#8a8fa3">Jun 16</text><line x1="396.5" y1="46" x2="396.5" y2="396" stroke="#e3e5ef" stroke-width="1"/><text x="396.5" y="414.0" text-anchor="middle" font-size="11" fill="#8a8fa3">Jun 18</text><line x1="468.1" y1="46" x2="468.1" y2="396" stroke="#e3e5ef" stroke-width="1"/><text x="468.1" y="414.0" text-anchor="middle" font-size="11" fill="#8a8fa3">Jun 20</text><line x1="539.7" y1="46" x2="539.7" y2="396" stroke="#e3e5ef" stroke-width="1"/><text x="539.7" y="414.0" text-anchor="middle" font-size="11" fill="#8a8fa3">Jun 22</text><line x1="611.3" y1="46" x2="611.3" y2="396" stroke="#e3e5ef" stroke-width="1"/><text x="611.3" y="414.0" text-anchor="middle" font-size="11" fill="#8a8fa3">Jun 24</text><line x1="682.8" y1="46" x2="682.8" y2="396" stroke="#e3e5ef" stroke-width="1"/><text x="682.8" y="414.0" text-anchor="middle" font-size="11" fill="#8a8fa3">Jun 26</text><line x1="754.4" y1="46" x2="754.4" y2="396" stroke="#e3e5ef" stroke-width="1"/><text x="754.4" y="414.0" text-anchor="middle" font-size="11" fill="#8a8fa3">Jun 28</text><line x1="826.0" y1="46" x2="826.0" y2="396" stroke="#e3e5ef" stroke-width="1"/><text x="826.0" y="414.0" text-anchor="middle" font-size="11" fill="#8a8fa3">Jun 30</text><line x1="897.6" y1="46" x2="897.6" y2="396" stroke="#e3e5ef" stroke-width="1"/><text x="897.6" y="414.0" text-anchor="middle" font-size="11" fill="#8a8fa3">Jul 2</text><line x1="969.2" y1="46" x2="969.2" y2="396" stroke="#e3e5ef" stroke-width="1"/><text x="969.2" y="414.0" text-anchor="middle" font-size="11" fill="#8a8fa3">Jul 4</text><circle cx="60.0" cy="335.3" r="2.3" fill="#b9bdca" opacity="0.5"/><circle cx="61.7" cy="335.1" r="2.3" fill="#b9bdca" opacity="0.5"/><circle cx="63.5" cy="368.0" r="2.3" fill="#b9bdca" opacity="0.5"/><circle cx="64.1" cy="320.7" r="2.3" fill="#b9bdca" opacity="0.5"/><circle cx="68.9" cy="319.9" r="2.3" fill="#b9bdca" opacity="0.5"/><circle cx="69.2" cy="320.6" r="2.3" fill="#b9bdca" opacity="0.5"/><circle cx="70.7" cy="315.3" r="2.3" fill="#b9bdca" opacity="0.5"/><circle cx="71.0" cy="319.7" r="2.3" fill="#b9bdca" opacity="0.5"/><circle cx="71.2" cy="314.9" r="2.3" fill="#b9bdca" opacity="0.5"/><circle cx="71.7" cy="315.5" r="2.3" fill="#b9bdca" opacity="0.5"/><circle cx="71.9" cy="314.9" r="2.3" fill="#b9bdca" opacity="0.5"/><circle cx="72.4" cy="315.4" r="2.3" fill="#b9bdca" opacity="0.5"/><circle cx="73.3" cy="315.0" r="2.3" fill="#b9bdca" opacity="0.5"/><circle cx="100.4" cy="238.7" r="2.3" fill="#b9bdca" opacity="0.5"/><circle cx="100.6" cy="315.0" r="2.3" fill="#b9bdca" opacity="0.5"/><circle cx="100.9" cy="229.0" r="2.3" fill="#b9bdca" opacity="0.5"/><circle cx="101.3" cy="222.3" r="2.3" fill="#b9bdca" opacity="0.5"/><circle cx="101.8" cy="228.0" r="2.3" fill="#b9bdca" opacity="0.5"/><circle cx="101.8" cy="223.3" r="2.3" fill="#b9bdca" opacity="0.5"/><circle cx="101.9" cy="220.6" r="2.3" fill="#b9bdca" opacity="0.5"/><circle cx="102.0" cy="220.5" r="2.3" fill="#b9bdca" opacity="0.5"/><circle cx="102.1" cy="223.2" r="2.3" fill="#b9bdca" opacity="0.5"/><circle cx="102.3" cy="214.2" r="2.3" fill="#b9bdca" opacity="0.5"/><circle cx="102.4" cy="222.1" r="2.3" fill="#b9bdca" opacity="0.5"/><circle cx="102.6" cy="220.7" r="2.3" fill="#b9bdca" opacity="0.5"/><circle cx="102.9" cy="218.5" r="2.3" fill="#b9bdca" opacity="0.5"/><circle cx="103.0" cy="215.2" r="2.3" fill="#b9bdca" opacity="0.5"/><circle cx="103.2" cy="214.3" r="2.3" fill="#b9bdca" opacity="0.5"/><circle cx="103.2" cy="219.2" r="2.3" fill="#b9bdca" opacity="0.5"/><circle cx="103.4" cy="214.1" r="2.3" fill="#b9bdca" opacity="0.5"/><circle cx="103.6" cy="215.2" r="2.3" fill="#b9bdca" opacity="0.5"/><circle cx="103.7" cy="213.7" r="2.3" fill="#b9bdca" opacity="0.5"/><circle cx="103.9" cy="213.5" r="2.3" fill="#b9bdca" opacity="0.5"/><circle cx="104.1" cy="214.8" r="2.3" fill="#b9bdca" opacity="0.5"/><circle cx="104.1" cy="217.7" r="2.3" fill="#b9bdca" opacity="0.5"/><circle cx="104.3" cy="212.7" r="2.3" fill="#b9bdca" opacity="0.5"/><circle cx="104.7" cy="213.3" r="2.3" fill="#b9bdca" opacity="0.5"/><circle cx="105.2" cy="212.7" r="2.3" fill="#b9bdca" opacity="0.5"/><circle cx="105.2" cy="213.6" r="2.3" fill="#b9bdca" opacity="0.5"/><circle cx="105.4" cy="213.0" r="2.3" fill="#b9bdca" opacity="0.5"/><circle cx="105.7" cy="212.1" r="2.3" fill="#b9bdca" opacity="0.5"/><circle cx="105.7" cy="213.3" r="2.3" fill="#b9bdca" opacity="0.5"/><circle cx="106.0" cy="212.0" r="2.3" fill="#b9bdca" opacity="0.5"/><circle cx="106.6" cy="212.1" r="2.3" fill="#b9bdca" opacity="0.5"/><circle cx="106.6" cy="212.8" r="2.3" fill="#b9bdca" opacity="0.5"/><circle cx="109.8" cy="206.7" r="2.3" fill="#b9bdca" opacity="0.5"/><circle cx="110.3" cy="206.8" r="2.3" fill="#b9bdca" opacity="0.5"/><circle cx="110.3" cy="212.5" r="2.3" fill="#b9bdca" opacity="0.5"/><circle cx="110.6" cy="207.2" r="2.3" fill="#b9bdca" opacity="0.5"/><circle cx="111.6" cy="207.0" r="2.3" fill="#b9bdca" opacity="0.5"/><circle cx="114.1" cy="204.9" r="2.3" fill="#b9bdca" opacity="0.5"/><circle cx="115.7" cy="204.6" r="2.3" fill="#b9bdca" opacity="0.5"/><circle cx="115.8" cy="212.3" r="2.3" fill="#b9bdca" opacity="0.5"/><circle cx="116.1" cy="204.6" r="2.3" fill="#b9bdca" opacity="0.5"/><circle cx="116.1" cy="204.6" r="2.3" fill="#b9bdca" opacity="0.5"/><circle cx="116.1" cy="204.9" r="2.3" fill="#b9bdca" opacity="0.5"/><circle cx="116.1" cy="204.9" r="2.3" fill="#b9bdca" opacity="0.5"/><circle cx="116.7" cy="201.9" r="2.3" fill="#b9bdca" opacity="0.5"/><circle cx="117.7" cy="206.5" r="2.3" fill="#b9bdca" opacity="0.5"/><circle cx="118.1" cy="205.8" r="2.3" fill="#b9bdca" opacity="0.5"/><circle cx="118.1" cy="335.1" r="2.3" fill="#b9bdca" opacity="0.5"/><circle cx="118.6" cy="201.8" r="2.3" fill="#b9bdca" opacity="0.5"/><circle cx="118.7" cy="202.2" r="2.3" fill="#b9bdca" opacity="0.5"/><circle cx="119.6" cy="201.0" r="2.3" fill="#b9bdca" opacity="0.5"/><circle cx="119.9" cy="203.1" r="2.3" fill="#b9bdca" opacity="0.5"/><circle cx="120.1" cy="200.0" r="2.3" fill="#b9bdca" opacity="0.5"/><circle cx="120.2" cy="204.6" r="2.3" fill="#b9bdca" opacity="0.5"/><circle cx="120.7" cy="202.3" r="2.3" fill="#b9bdca" opacity="0.5"/><circle cx="122.0" cy="200.4" r="2.3" fill="#b9bdca" opacity="0.5"/><circle cx="122.4" cy="200.7" r="2.3" fill="#b9bdca" opacity="0.5"/><circle cx="122.9" cy="200.0" r="2.3" fill="#b9bdca" opacity="0.5"/><circle cx="124.0" cy="199.7" r="2.3" fill="#b9bdca" opacity="0.5"/><circle cx="130.9" cy="200.6" r="2.3" fill="#b9bdca" opacity="0.5"/><circle cx="131.5" cy="201.8" r="2.3" fill="#b9bdca" opacity="0.5"/><circle cx="132.4" cy="208.4" r="2.3" fill="#b9bdca" opacity="0.5"/><circle cx="132.4" cy="200.8" r="2.3" fill="#b9bdca" opacity="0.5"/><circle cx="133.1" cy="200.7" r="2.3" fill="#b9bdca" opacity="0.5"/><circle cx="133.1" cy="201.9" r="2.3" fill="#b9bdca" opacity="0.5"/><circle cx="133.3" cy="195.5" r="2.3" fill="#b9bdca" opacity="0.5"/><circle cx="134.0" cy="196.9" r="2.3" fill="#b9bdca" opacity="0.5"/><circle cx="134.3" cy="197.9" r="2.3" fill="#b9bdca" opacity="0.5"/><circle cx="134.9" cy="196.1" r="2.3" fill="#b9bdca" opacity="0.5"/><circle cx="137.0" cy="197.3" r="2.3" fill="#b9bdca" opacity="0.5"/><circle cx="137.6" cy="195.9" r="2.3" fill="#b9bdca" opacity="0.5"/><circle cx="137.8" cy="201.0" r="2.3" fill="#b9bdca" opacity="0.5"/><circle cx="137.9" cy="197.5" r="2.3" fill="#b9bdca" opacity="0.5"/><circle cx="138.4" cy="196.9" r="2.3" fill="#b9bdca" opacity="0.5"/><circle cx="138.4" cy="197.1" r="2.3" fill="#b9bdca" opacity="0.5"/><circle cx="138.5" cy="197.0" r="2.3" fill="#b9bdca" opacity="0.5"/><circle cx="139.0" cy="196.0" r="2.3" fill="#b9bdca" opacity="0.5"/><circle cx="139.0" cy="196.0" r="2.3" fill="#b9bdca" opacity="0.5"/><circle cx="139.0" cy="197.9" r="2.3" fill="#b9bdca" opacity="0.5"/><circle cx="139.4" cy="197.8" r="2.3" fill="#b9bdca" opacity="0.5"/><circle cx="139.7" cy="196.2" r="2.3" fill="#b9bdca" opacity="0.5"/><circle cx="139.7" cy="197.5" r="2.3" fill="#b9bdca" opacity="0.5"/><circle cx="139.8" cy="196.9" r="2.3" fill="#b9bdca" opacity="0.5"/><circle cx="139.8" cy="195.5" r="2.3" fill="#b9bdca" opacity="0.5"/><circle cx="140.3" cy="198.1" r="2.3" fill="#b9bdca" opacity="0.5"/><circle cx="140.3" cy="187.4" r="2.3" fill="#b9bdca" opacity="0.5"/><circle cx="140.5" cy="186.2" r="2.3" fill="#b9bdca" opacity="0.5"/><circle cx="140.5" cy="196.3" r="2.3" fill="#b9bdca" opacity="0.5"/><circle cx="140.5" cy="197.2" r="2.3" fill="#b9bdca" opacity="0.5"/><circle cx="140.5" cy="197.8" r="2.3" fill="#b9bdca" opacity="0.5"/><circle cx="140.5" cy="368.0" r="2.3" fill="#b9bdca" opacity="0.5"/><circle cx="141.0" cy="184.5" r="2.3" fill="#b9bdca" opacity="0.5"/><circle cx="142.8" cy="184.6" r="2.3" fill="#b9bdca" opacity="0.5"/><circle cx="143.6" cy="185.6" r="2.3" fill="#b9bdca" opacity="0.5"/><circle cx="146.3" cy="188.7" r="2.3" fill="#b9bdca" opacity="0.5"/><circle cx="149.9" cy="185.4" r="2.3" fill="#b9bdca" opacity="0.5"/><circle cx="150.7" cy="185.2" r="2.3" fill="#b9bdca" opacity="0.5"/><circle cx="151.0" cy="186.6" r="2.3" fill="#b9bdca" opacity="0.5"/><circle cx="151.1" cy="185.3" r="2.3" fill="#b9bdca" opacity="0.5"/><circle cx="151.7" cy="185.3" r="2.3" fill="#b9bdca" opacity="0.5"/><circle cx="152.0" cy="185.0" r="2.3" fill="#b9bdca" opacity="0.5"/><circle cx="152.6" cy="184.9" r="2.3" fill="#b9bdca" opacity="0.5"/><circle cx="153.1" cy="185.1" r="2.3" fill="#b9bdca" opacity="0.5"/><circle cx="153.1" cy="185.2" r="2.3" fill="#b9bdca" opacity="0.5"/><circle cx="153.1" cy="186.4" r="2.3" fill="#b9bdca" opacity="0.5"/><circle cx="153.1" cy="183.9" r="2.3" fill="#b9bdca" opacity="0.5"/><circle cx="156.5" cy="184.4" r="2.3" fill="#b9bdca" opacity="0.5"/><circle cx="157.0" cy="184.2" r="2.3" fill="#b9bdca" opacity="0.5"/><circle cx="159.1" cy="169.3" r="2.3" fill="#b9bdca" opacity="0.5"/><circle cx="161.2" cy="168.8" r="2.3" fill="#b9bdca" opacity="0.5"/><circle cx="161.3" cy="167.7" r="2.3" fill="#b9bdca" opacity="0.5"/><circle cx="162.2" cy="201.4" r="2.3" fill="#b9bdca" opacity="0.5"/><circle cx="162.5" cy="165.0" r="2.3" fill="#b9bdca" opacity="0.5"/><circle cx="162.6" cy="198.2" r="2.3" fill="#b9bdca" opacity="0.5"/><circle cx="162.9" cy="163.7" r="2.3" fill="#b9bdca" opacity="0.5"/><circle cx="163.0" cy="163.6" r="2.3" fill="#b9bdca" opacity="0.5"/><circle cx="163.4" cy="165.9" r="2.3" fill="#b9bdca" opacity="0.5"/><circle cx="165.2" cy="165.1" r="2.3" fill="#b9bdca" opacity="0.5"/><circle cx="165.6" cy="155.9" r="2.3" fill="#b9bdca" opacity="0.5"/><circle cx="167.3" cy="196.5" r="2.3" fill="#b9bdca" opacity="0.5"/><circle cx="168.1" cy="157.4" r="2.3" fill="#b9bdca" opacity="0.5"/><circle cx="168.7" cy="155.8" r="2.3" fill="#b9bdca" opacity="0.5"/><circle cx="169.9" cy="141.9" r="2.3" fill="#b9bdca" opacity="0.5"/><circle cx="172.3" cy="156.1" r="2.3" fill="#b9bdca" opacity="0.5"/><circle cx="172.3" cy="156.4" r="2.3" fill="#b9bdca" opacity="0.5"/><circle cx="172.4" cy="141.8" r="2.3" fill="#b9bdca" opacity="0.5"/><circle cx="172.5" cy="196.0" r="2.3" fill="#b9bdca" opacity="0.5"/><circle cx="173.3" cy="131.7" r="2.3" fill="#b9bdca" opacity="0.5"/><circle cx="173.4" cy="134.1" r="2.3" fill="#b9bdca" opacity="0.5"/><circle cx="173.7" cy="141.1" r="2.3" fill="#b9bdca" opacity="0.5"/><circle cx="174.1" cy="134.0" r="2.3" fill="#b9bdca" opacity="0.5"/><circle cx="174.2" cy="130.9" r="2.3" fill="#b9bdca" opacity="0.5"/><circle cx="174.2" cy="154.2" r="2.3" fill="#b9bdca" opacity="0.5"/><circle cx="174.4" cy="133.6" r="2.3" fill="#b9bdca" opacity="0.5"/><circle cx="174.5" cy="129.5" r="2.3" fill="#b9bdca" opacity="0.5"/><circle cx="174.6" cy="130.9" r="2.3" fill="#b9bdca" opacity="0.5"/><circle cx="174.6" cy="133.4" r="2.3" fill="#b9bdca" opacity="0.5"/><circle cx="174.7" cy="131.2" r="2.3" fill="#b9bdca" opacity="0.5"/><circle cx="176.2" cy="189.8" r="2.3" fill="#b9bdca" opacity="0.5"/><circle cx="176.3" cy="133.2" r="2.3" fill="#b9bdca" opacity="0.5"/><circle cx="176.5" cy="133.5" r="2.3" fill="#b9bdca" opacity="0.5"/><circle cx="177.1" cy="130.1" r="2.3" fill="#b9bdca" opacity="0.5"/><circle cx="178.5" cy="130.3" r="2.3" fill="#b9bdca" opacity="0.5"/><circle cx="179.2" cy="303.1" r="2.3" fill="#b9bdca" opacity="0.5"/><circle cx="180.4" cy="133.2" r="2.3" fill="#b9bdca" opacity="0.5"/><circle cx="182.0" cy="144.2" r="2.3" fill="#b9bdca" opacity="0.5"/><circle cx="182.3" cy="135.3" r="2.3" fill="#b9bdca" opacity="0.5"/><circle cx="183.4" cy="133.4" r="2.3" fill="#b9bdca" opacity="0.5"/><circle cx="183.5" cy="159.9" r="2.3" fill="#b9bdca" opacity="0.5"/><circle cx="183.7" cy="130.8" r="2.3" fill="#b9bdca" opacity="0.5"/><circle cx="184.1" cy="133.2" r="2.3" fill="#b9bdca" opacity="0.5"/><circle cx="187.7" cy="130.9" r="2.3" fill="#b9bdca" opacity="0.5"/><circle cx="188.1" cy="130.9" r="2.3" fill="#b9bdca" opacity="0.5"/><circle cx="188.1" cy="133.8" r="2.3" fill="#b9bdca" opacity="0.5"/><circle cx="188.7" cy="130.4" r="2.3" fill="#b9bdca" opacity="0.5"/><circle cx="189.1" cy="153.7" r="2.3" fill="#b9bdca" opacity="0.5"/><circle cx="189.8" cy="133.3" r="2.3" fill="#b9bdca" opacity="0.5"/><circle cx="190.9" cy="156.5" r="2.3" fill="#b9bdca" opacity="0.5"/><circle cx="191.1" cy="132.3" r="2.3" fill="#b9bdca" opacity="0.5"/><circle cx="192.5" cy="147.2" r="2.3" fill="#b9bdca" opacity="0.5"/><circle cx="192.7" cy="133.6" r="2.3" fill="#b9bdca" opacity="0.5"/><circle cx="193.2" cy="129.5" r="2.3" fill="#b9bdca" opacity="0.5"/><circle cx="193.2" cy="133.3" r="2.3" fill="#b9bdca" opacity="0.5"/><circle cx="194.8" cy="133.3" r="2.3" fill="#b9bdca" opacity="0.5"/><circle cx="195.9" cy="129.5" r="2.3" fill="#b9bdca" opacity="0.5"/><circle cx="197.7" cy="130.6" r="2.3" fill="#b9bdca" opacity="0.5"/><circle cx="199.1" cy="128.9" r="2.3" fill="#b9bdca" opacity="0.5"/><circle cx="199.3" cy="132.7" r="2.3" fill="#b9bdca" opacity="0.5"/><circle cx="199.3" cy="133.1" r="2.3" fill="#b9bdca" opacity="0.5"/><circle cx="201.4" cy="129.8" r="2.3" fill="#b9bdca" opacity="0.5"/><circle cx="201.9" cy="333.8" r="2.3" fill="#b9bdca" opacity="0.5"/><circle cx="202.1" cy="128.4" r="2.3" fill="#b9bdca" opacity="0.5"/><circle cx="203.1" cy="129.8" r="2.3" fill="#b9bdca" opacity="0.5"/><circle cx="203.4" cy="128.9" r="2.3" fill="#b9bdca" opacity="0.5"/><circle cx="203.5" cy="128.9" r="2.3" fill="#b9bdca" opacity="0.5"/><circle cx="204.2" cy="128.2" r="2.3" fill="#b9bdca" opacity="0.5"/><circle cx="204.8" cy="129.7" r="2.3" fill="#b9bdca" opacity="0.5"/><circle cx="204.9" cy="142.3" r="2.3" fill="#b9bdca" opacity="0.5"/><circle cx="206.9" cy="128.8" r="2.3" fill="#b9bdca" opacity="0.5"/><circle cx="208.0" cy="161.1" r="2.3" fill="#b9bdca" opacity="0.5"/><circle cx="210.2" cy="164.4" r="2.3" fill="#b9bdca" opacity="0.5"/><circle cx="210.4" cy="248.3" r="2.3" fill="#b9bdca" opacity="0.5"/><circle cx="213.6" cy="135.4" r="2.3" fill="#b9bdca" opacity="0.5"/><circle cx="213.9" cy="128.0" r="2.3" fill="#b9bdca" opacity="0.5"/><circle cx="214.8" cy="229.0" r="2.3" fill="#b9bdca" opacity="0.5"/><circle cx="217.0" cy="128.1" r="2.3" fill="#b9bdca" opacity="0.5"/><circle cx="217.6" cy="128.6" r="2.3" fill="#b9bdca" opacity="0.5"/><circle cx="219.6" cy="128.8" r="2.3" fill="#b9bdca" opacity="0.5"/><circle cx="219.6" cy="129.6" r="2.3" fill="#b9bdca" opacity="0.5"/><circle cx="219.6" cy="130.9" r="2.3" fill="#b9bdca" opacity="0.5"/><circle cx="223.9" cy="112.8" r="2.3" fill="#b9bdca" opacity="0.5"/><circle cx="226.2" cy="110.2" r="2.3" fill="#b9bdca" opacity="0.5"/><circle cx="226.2" cy="111.6" r="2.3" fill="#b9bdca" opacity="0.5"/><circle cx="227.6" cy="111.0" r="2.3" fill="#b9bdca" opacity="0.5"/><circle cx="228.3" cy="335.1" r="2.3" fill="#b9bdca" opacity="0.5"/><circle cx="228.7" cy="111.6" r="2.3" fill="#b9bdca" opacity="0.5"/><circle cx="230.1" cy="105.5" r="2.3" fill="#b9bdca" opacity="0.5"/><circle cx="230.3" cy="108.5" r="2.3" fill="#b9bdca" opacity="0.5"/><circle cx="230.9" cy="105.1" r="2.3" fill="#b9bdca" opacity="0.5"/><circle cx="231.5" cy="103.8" r="2.3" fill="#b9bdca" opacity="0.5"/><circle cx="232.3" cy="125.8" r="2.3" fill="#b9bdca" opacity="0.5"/><circle cx="238.5" cy="103.5" r="2.3" fill="#b9bdca" opacity="0.5"/><circle cx="240.1" cy="127.8" r="2.3" fill="#b9bdca" opacity="0.5"/><circle cx="240.8" cy="334.3" r="2.3" fill="#b9bdca" opacity="0.5"/><circle cx="241.7" cy="128.6" r="2.3" fill="#b9bdca" opacity="0.5"/><circle cx="242.2" cy="128.6" r="2.3" fill="#b9bdca" opacity="0.5"/><circle cx="242.3" cy="128.6" r="2.3" fill="#b9bdca" opacity="0.5"/><circle cx="242.8" cy="256.6" r="2.3" fill="#b9bdca" opacity="0.5"/><circle cx="243.6" cy="254.6" r="2.3" fill="#b9bdca" opacity="0.5"/><circle cx="244.7" cy="128.6" r="2.3" fill="#b9bdca" opacity="0.5"/><circle cx="247.5" cy="250.1" r="2.3" fill="#b9bdca" opacity="0.5"/><circle cx="247.8" cy="161.4" r="2.3" fill="#b9bdca" opacity="0.5"/><circle cx="248.1" cy="206.6" r="2.3" fill="#b9bdca" opacity="0.5"/><circle cx="250.7" cy="113.5" r="2.3" fill="#b9bdca" opacity="0.5"/><circle cx="251.6" cy="89.6" r="2.3" fill="#b9bdca" opacity="0.5"/><circle cx="252.2" cy="90.2" r="2.3" fill="#b9bdca" opacity="0.5"/><circle cx="253.9" cy="89.3" r="2.3" fill="#b9bdca" opacity="0.5"/><circle cx="254.3" cy="87.6" r="2.3" fill="#b9bdca" opacity="0.5"/><circle cx="254.9" cy="185.0" r="2.3" fill="#b9bdca" opacity="0.5"/><circle cx="255.5" cy="131.6" r="2.3" fill="#b9bdca" opacity="0.5"/><circle cx="255.9" cy="87.8" r="2.3" fill="#b9bdca" opacity="0.5"/><circle cx="256.7" cy="85.4" r="2.3" fill="#b9bdca" opacity="0.5"/><circle cx="257.8" cy="86.8" r="2.3" fill="#b9bdca" opacity="0.5"/><circle cx="259.0" cy="88.4" r="2.3" fill="#b9bdca" opacity="0.5"/><circle cx="263.9" cy="89.5" r="2.3" fill="#b9bdca" opacity="0.5"/><circle cx="263.9" cy="155.6" r="2.3" fill="#b9bdca" opacity="0.5"/><circle cx="264.0" cy="84.4" r="2.3" fill="#b9bdca" opacity="0.5"/><circle cx="269.8" cy="89.2" r="2.3" fill="#b9bdca" opacity="0.5"/><circle cx="269.9" cy="90.5" r="2.3" fill="#b9bdca" opacity="0.5"/><circle cx="271.6" cy="87.7" r="2.3" fill="#b9bdca" opacity="0.5"/><circle cx="272.1" cy="367.9" r="2.3" fill="#b9bdca" opacity="0.5"/><circle cx="274.5" cy="164.3" r="2.3" fill="#b9bdca" opacity="0.5"/><circle cx="275.7" cy="94.6" r="2.3" fill="#b9bdca" opacity="0.5"/><circle cx="276.2" cy="89.6" r="2.3" fill="#b9bdca" opacity="0.5"/><circle cx="281.2" cy="124.6" r="2.3" fill="#b9bdca" opacity="0.5"/><circle cx="286.6" cy="146.2" r="2.3" fill="#b9bdca" opacity="0.5"/><circle cx="286.8" cy="90.5" r="2.3" fill="#b9bdca" opacity="0.5"/><circle cx="287.2" cy="87.7" r="2.3" fill="#b9bdca" opacity="0.5"/><circle cx="287.5" cy="87.7" r="2.3" fill="#b9bdca" opacity="0.5"/><circle cx="287.5" cy="89.6" r="2.3" fill="#b9bdca" opacity="0.5"/><circle cx="291.4" cy="93.0" r="2.3" fill="#b9bdca" opacity="0.5"/><circle cx="292.7" cy="85.5" r="2.3" fill="#b9bdca" opacity="0.5"/><circle cx="304.1" cy="334.8" r="2.3" fill="#b9bdca" opacity="0.5"/><circle cx="305.4" cy="86.3" r="2.3" fill="#b9bdca" opacity="0.5"/><circle cx="309.2" cy="85.5" r="2.3" fill="#b9bdca" opacity="0.5"/><circle cx="309.9" cy="84.6" r="2.3" fill="#b9bdca" opacity="0.5"/><circle cx="311.5" cy="87.8" r="2.3" fill="#b9bdca" opacity="0.5"/><circle cx="312.1" cy="84.4" r="2.3" fill="#b9bdca" opacity="0.5"/><circle cx="312.5" cy="84.8" r="2.3" fill="#b9bdca" opacity="0.5"/><circle cx="313.6" cy="87.4" r="2.3" fill="#b9bdca" opacity="0.5"/><circle cx="319.7" cy="84.4" r="2.3" fill="#b9bdca" opacity="0.5"/><circle cx="346.4" cy="89.3" r="2.3" fill="#b9bdca" opacity="0.5"/><circle cx="351.2" cy="88.6" r="2.3" fill="#b9bdca" opacity="0.5"/><circle cx="351.2" cy="92.1" r="2.3" fill="#b9bdca" opacity="0.5"/><circle cx="352.3" cy="156.8" r="2.3" fill="#b9bdca" opacity="0.5"/><circle cx="367.7" cy="201.6" r="2.3" fill="#b9bdca" opacity="0.5"/><circle cx="378.9" cy="315.6" r="2.3" fill="#b9bdca" opacity="0.5"/><circle cx="409.7" cy="87.7" r="2.3" fill="#b9bdca" opacity="0.5"/><circle cx="419.0" cy="87.6" r="2.3" fill="#b9bdca" opacity="0.5"/><circle cx="427.3" cy="87.2" r="2.3" fill="#b9bdca" opacity="0.5"/><circle cx="429.2" cy="88.8" r="2.3" fill="#b9bdca" opacity="0.5"/><circle cx="429.9" cy="89.2" r="2.3" fill="#b9bdca" opacity="0.5"/><circle cx="430.3" cy="90.9" r="2.3" fill="#b9bdca" opacity="0.5"/><circle cx="432.7" cy="87.7" r="2.3" fill="#b9bdca" opacity="0.5"/><circle cx="441.0" cy="88.6" r="2.3" fill="#b9bdca" opacity="0.5"/><circle cx="442.1" cy="89.7" r="2.3" fill="#b9bdca" opacity="0.5"/><circle cx="442.8" cy="88.2" r="2.3" fill="#b9bdca" opacity="0.5"/><circle cx="458.4" cy="75.8" r="2.3" fill="#b9bdca" opacity="0.5"/><circle cx="459.6" cy="75.7" r="2.3" fill="#b9bdca" opacity="0.5"/><circle cx="460.5" cy="76.7" r="2.3" fill="#b9bdca" opacity="0.5"/><circle cx="460.6" cy="75.8" r="2.3" fill="#b9bdca" opacity="0.5"/><circle cx="461.1" cy="75.3" r="2.3" fill="#b9bdca" opacity="0.5"/><circle cx="461.3" cy="74.7" r="2.3" fill="#b9bdca" opacity="0.5"/><circle cx="461.5" cy="83.4" r="2.3" fill="#b9bdca" opacity="0.5"/><circle cx="461.9" cy="76.2" r="2.3" fill="#b9bdca" opacity="0.5"/><circle cx="462.2" cy="78.1" r="2.3" fill="#b9bdca" opacity="0.5"/><circle cx="462.6" cy="74.7" r="2.3" fill="#b9bdca" opacity="0.5"/><circle cx="465.2" cy="89.3" r="2.3" fill="#b9bdca" opacity="0.5"/><circle cx="470.4" cy="74.4" r="2.3" fill="#b9bdca" opacity="0.5"/><circle cx="478.7" cy="74.4" r="2.3" fill="#b9bdca" opacity="0.5"/><circle cx="480.0" cy="335.1" r="2.3" fill="#b9bdca" opacity="0.5"/><circle cx="480.0" cy="81.7" r="2.3" fill="#b9bdca" opacity="0.5"/><circle cx="481.0" cy="74.6" r="2.3" fill="#b9bdca" opacity="0.5"/><circle cx="481.0" cy="82.1" r="2.3" fill="#b9bdca" opacity="0.5"/><circle cx="481.1" cy="73.9" r="2.3" fill="#b9bdca" opacity="0.5"/><circle cx="483.4" cy="76.2" r="2.3" fill="#b9bdca" opacity="0.5"/><circle cx="483.8" cy="82.1" r="2.3" fill="#b9bdca" opacity="0.5"/><circle cx="484.1" cy="74.2" r="2.3" fill="#b9bdca" opacity="0.5"/><circle cx="484.2" cy="75.0" r="2.3" fill="#b9bdca" opacity="0.5"/><circle cx="484.7" cy="73.6" r="2.3" fill="#b9bdca" opacity="0.5"/><circle cx="484.7" cy="83.3" r="2.3" fill="#b9bdca" opacity="0.5"/><circle cx="484.7" cy="83.8" r="2.3" fill="#b9bdca" opacity="0.5"/><circle cx="484.7" cy="78.1" r="2.3" fill="#b9bdca" opacity="0.5"/><circle cx="484.7" cy="81.5" r="2.3" fill="#b9bdca" opacity="0.5"/><circle cx="484.7" cy="83.0" r="2.3" fill="#b9bdca" opacity="0.5"/><circle cx="484.7" cy="83.7" r="2.3" fill="#b9bdca" opacity="0.5"/><circle cx="488.0" cy="82.7" r="2.3" fill="#b9bdca" opacity="0.5"/><circle cx="488.7" cy="77.8" r="2.3" fill="#b9bdca" opacity="0.5"/><circle cx="490.4" cy="69.8" r="2.3" fill="#b9bdca" opacity="0.5"/><circle cx="491.0" cy="75.9" r="2.3" fill="#b9bdca" opacity="0.5"/><circle cx="491.2" cy="74.3" r="2.3" fill="#b9bdca" opacity="0.5"/><circle cx="491.2" cy="77.4" r="2.3" fill="#b9bdca" opacity="0.5"/><circle cx="491.2" cy="80.6" r="2.3" fill="#b9bdca" opacity="0.5"/><circle cx="491.2" cy="81.8" r="2.3" fill="#b9bdca" opacity="0.5"/><circle cx="492.4" cy="76.9" r="2.3" fill="#b9bdca" opacity="0.5"/><circle cx="492.4" cy="82.8" r="2.3" fill="#b9bdca" opacity="0.5"/><circle cx="492.4" cy="83.0" r="2.3" fill="#b9bdca" opacity="0.5"/><circle cx="492.4" cy="83.1" r="2.3" fill="#b9bdca" opacity="0.5"/><circle cx="492.9" cy="69.1" r="2.3" fill="#b9bdca" opacity="0.5"/><circle cx="494.3" cy="75.5" r="2.3" fill="#b9bdca" opacity="0.5"/><circle cx="495.1" cy="74.3" r="2.3" fill="#b9bdca" opacity="0.5"/><circle cx="516.0" cy="74.0" r="2.3" fill="#b9bdca" opacity="0.5"/><circle cx="540.9" cy="73.4" r="2.3" fill="#b9bdca" opacity="0.5"/><circle cx="541.1" cy="75.9" r="2.3" fill="#b9bdca" opacity="0.5"/><circle cx="541.1" cy="76.3" r="2.3" fill="#b9bdca" opacity="0.5"/><circle cx="541.3" cy="76.0" r="2.3" fill="#b9bdca" opacity="0.5"/><circle cx="541.3" cy="76.8" r="2.3" fill="#b9bdca" opacity="0.5"/><circle cx="541.3" cy="81.2" r="2.3" fill="#b9bdca" opacity="0.5"/><circle cx="541.3" cy="83.4" r="2.3" fill="#b9bdca" opacity="0.5"/><circle cx="558.9" cy="76.6" r="2.3" fill="#b9bdca" opacity="0.5"/><circle cx="560.1" cy="76.7" r="2.3" fill="#b9bdca" opacity="0.5"/><circle cx="560.1" cy="82.8" r="2.3" fill="#b9bdca" opacity="0.5"/><circle cx="560.1" cy="82.8" r="2.3" fill="#b9bdca" opacity="0.5"/><circle cx="560.1" cy="83.3" r="2.3" fill="#b9bdca" opacity="0.5"/><circle cx="563.8" cy="233.4" r="2.3" fill="#b9bdca" opacity="0.5"/><circle cx="564.9" cy="228.9" r="2.3" fill="#b9bdca" opacity="0.5"/><circle cx="566.0" cy="198.3" r="2.3" fill="#b9bdca" opacity="0.5"/><circle cx="588.9" cy="73.4" r="2.3" fill="#b9bdca" opacity="0.5"/><circle cx="595.3" cy="192.4" r="2.3" fill="#b9bdca" opacity="0.5"/><circle cx="597.6" cy="75.3" r="2.3" fill="#b9bdca" opacity="0.5"/><circle cx="598.1" cy="74.0" r="2.3" fill="#b9bdca" opacity="0.5"/><circle cx="599.5" cy="194.4" r="2.3" fill="#b9bdca" opacity="0.5"/><circle cx="601.8" cy="168.6" r="2.3" fill="#b9bdca" opacity="0.5"/><circle cx="603.2" cy="77.1" r="2.3" fill="#b9bdca" opacity="0.5"/><circle cx="603.2" cy="99.5" r="2.3" fill="#b9bdca" opacity="0.5"/><circle cx="620.9" cy="71.4" r="2.3" fill="#b9bdca" opacity="0.5"/><circle cx="620.9" cy="73.5" r="2.3" fill="#b9bdca" opacity="0.5"/><circle cx="627.1" cy="72.4" r="2.3" fill="#b9bdca" opacity="0.5"/><circle cx="652.9" cy="83.0" r="2.3" fill="#b9bdca" opacity="0.5"/><circle cx="653.3" cy="72.1" r="2.3" fill="#b9bdca" opacity="0.5"/><circle cx="653.7" cy="71.6" r="2.3" fill="#b9bdca" opacity="0.5"/><circle cx="654.4" cy="75.5" r="2.3" fill="#b9bdca" opacity="0.5"/><circle cx="654.9" cy="73.7" r="2.3" fill="#b9bdca" opacity="0.5"/><circle cx="656.0" cy="72.9" r="2.3" fill="#b9bdca" opacity="0.5"/><circle cx="656.4" cy="73.4" r="2.3" fill="#b9bdca" opacity="0.5"/><circle cx="706.8" cy="85.2" r="2.3" fill="#b9bdca" opacity="0.5"/><circle cx="706.8" cy="256.6" r="2.3" fill="#b9bdca" opacity="0.5"/><circle cx="706.9" cy="335.3" r="2.3" fill="#b9bdca" opacity="0.5"/><circle cx="707.2" cy="86.8" r="2.3" fill="#b9bdca" opacity="0.5"/><circle cx="707.6" cy="71.5" r="2.3" fill="#b9bdca" opacity="0.5"/><circle cx="709.0" cy="71.0" r="2.3" fill="#b9bdca" opacity="0.5"/><circle cx="709.7" cy="71.5" r="2.3" fill="#b9bdca" opacity="0.5"/><circle cx="709.9" cy="55.0" r="2.3" fill="#b9bdca" opacity="0.5"/><circle cx="716.9" cy="83.1" r="2.3" fill="#b9bdca" opacity="0.5"/><circle cx="718.6" cy="74.7" r="2.3" fill="#b9bdca" opacity="0.5"/><circle cx="718.8" cy="59.3" r="2.3" fill="#b9bdca" opacity="0.5"/><circle cx="718.8" cy="79.9" r="2.3" fill="#b9bdca" opacity="0.5"/><circle cx="718.9" cy="74.1" r="2.3" fill="#b9bdca" opacity="0.5"/><circle cx="719.3" cy="72.7" r="2.3" fill="#b9bdca" opacity="0.5"/><circle cx="719.3" cy="73.8" r="2.3" fill="#b9bdca" opacity="0.5"/><circle cx="719.3" cy="75.9" r="2.3" fill="#b9bdca" opacity="0.5"/><circle cx="719.7" cy="74.1" r="2.3" fill="#b9bdca" opacity="0.5"/><circle cx="720.0" cy="73.5" r="2.3" fill="#b9bdca" opacity="0.5"/><circle cx="720.4" cy="74.2" r="2.3" fill="#b9bdca" opacity="0.5"/><circle cx="720.8" cy="71.5" r="2.3" fill="#b9bdca" opacity="0.5"/><circle cx="721.9" cy="74.3" r="2.3" fill="#b9bdca" opacity="0.5"/><circle cx="727.5" cy="73.2" r="2.3" fill="#b9bdca" opacity="0.5"/><circle cx="727.5" cy="73.6" r="2.3" fill="#b9bdca" opacity="0.5"/><circle cx="727.5" cy="73.8" r="2.3" fill="#b9bdca" opacity="0.5"/><circle cx="738.4" cy="73.3" r="2.3" fill="#b9bdca" opacity="0.5"/><circle cx="738.4" cy="73.4" r="2.3" fill="#b9bdca" opacity="0.5"/><circle cx="763.2" cy="96.1" r="2.3" fill="#b9bdca" opacity="0.5"/><circle cx="864.8" cy="95.6" r="2.3" fill="#b9bdca" opacity="0.5"/><circle cx="898.4" cy="74.8" r="2.3" fill="#b9bdca" opacity="0.5"/><circle cx="900.0" cy="72.3" r="2.3" fill="#b9bdca" opacity="0.5"/><circle cx="909.7" cy="79.9" r="2.3" fill="#b9bdca" opacity="0.5"/><circle cx="909.7" cy="80.6" r="2.3" fill="#b9bdca" opacity="0.5"/><circle cx="928.9" cy="73.3" r="2.3" fill="#b9bdca" opacity="0.5"/><circle cx="928.9" cy="72.8" r="2.3" fill="#b9bdca" opacity="0.5"/><circle cx="928.9" cy="73.0" r="2.3" fill="#b9bdca" opacity="0.5"/><circle cx="928.9" cy="73.2" r="2.3" fill="#b9bdca" opacity="0.5"/><circle cx="928.9" cy="73.5" r="2.3" fill="#b9bdca" opacity="0.5"/><circle cx="928.9" cy="73.6" r="2.3" fill="#b9bdca" opacity="0.5"/><circle cx="928.9" cy="73.7" r="2.3" fill="#b9bdca" opacity="0.5"/><circle cx="929.4" cy="73.1" r="2.3" fill="#b9bdca" opacity="0.5"/><circle cx="929.4" cy="73.2" r="2.3" fill="#b9bdca" opacity="0.5"/><circle cx="929.4" cy="74.3" r="2.3" fill="#b9bdca" opacity="0.5"/><circle cx="929.4" cy="74.5" r="2.3" fill="#b9bdca" opacity="0.5"/><circle cx="929.5" cy="72.8" r="2.3" fill="#b9bdca" opacity="0.5"/><circle cx="929.9" cy="74.7" r="2.3" fill="#b9bdca" opacity="0.5"/><circle cx="976.3" cy="332.5" r="2.3" fill="#b9bdca" opacity="0.5"/><circle cx="1032.0" cy="117.5" r="2.3" fill="#b9bdca" opacity="0.5"/><circle cx="1032.0" cy="211.0" r="2.3" fill="#b9bdca" opacity="0.5"/><path d="M165.6 152.3L169.2 155.9L165.6 159.5L162.0 155.9Z" fill="#2b3a7a" opacity="0.8" stroke="none" stroke-width="0"/><path d="M172.4 138.2L176.0 141.8L172.4 145.4L168.8 141.8Z" fill="#2b3a7a" opacity="0.8" stroke="none" stroke-width="0"/><path d="M173.3 128.1L176.9 131.7L173.3 135.3L169.7 131.7Z" fill="#2b3a7a" opacity="0.8" stroke="none" stroke-width="0"/><path d="M173.4 130.5L177.0 134.1L173.4 137.7L169.8 134.1Z" fill="#2b3a7a" opacity="0.8" stroke="none" stroke-width="0"/><path d="M174.2 127.3L177.8 130.9L174.2 134.5L170.6 130.9Z" fill="#2b3a7a" opacity="0.8" stroke="none" stroke-width="0"/><path d="M174.5 125.9L178.1 129.5L174.5 133.1L170.9 129.5Z" fill="#2b3a7a" opacity="0.8" stroke="none" stroke-width="0"/><path d="M174.6 127.3L178.2 130.9L174.6 134.5L171.0 130.9Z" fill="#2b3a7a" opacity="0.8" stroke="none" stroke-width="0"/><path d="M195.9 125.9L199.5 129.5L195.9 133.1L192.3 129.5Z" fill="#2b3a7a" opacity="0.8" stroke="none" stroke-width="0"/><path d="M199.1 125.3L202.7 128.9L199.1 132.5L195.5 128.9Z" fill="#2b3a7a" opacity="0.8" stroke="none" stroke-width="0"/><path d="M202.1 124.8L205.7 128.4L202.1 132.0L198.5 128.4Z" fill="#2b3a7a" opacity="0.8" stroke="none" stroke-width="0"/><path d="M204.2 124.6L207.8 128.2L204.2 131.8L200.6 128.2Z" fill="#2b3a7a" opacity="0.8" stroke="none" stroke-width="0"/><path d="M213.9 124.4L217.5 128.0L213.9 131.6L210.3 128.0Z" fill="#2b3a7a" opacity="0.8" stroke="none" stroke-width="0"/><path d="M223.9 109.2L227.5 112.8L223.9 116.4L220.3 112.8Z" fill="#2b3a7a" opacity="0.8" stroke="none" stroke-width="0"/><path d="M228.7 108.0L232.3 111.6L228.7 115.2L225.1 111.6Z" fill="#2b3a7a" opacity="0.8" stroke="none" stroke-width="0"/><path d="M230.1 101.9L233.7 105.5L230.1 109.1L226.5 105.5Z" fill="#2b3a7a" opacity="0.8" stroke="none" stroke-width="0"/><path d="M230.3 104.9L233.9 108.5L230.3 112.1L226.7 108.5Z" fill="#2b3a7a" opacity="0.8" stroke="none" stroke-width="0"/><path d="M230.9 101.5L234.5 105.1L230.9 108.7L227.3 105.1Z" fill="#2b3a7a" opacity="0.8" stroke="none" stroke-width="0"/><path d="M231.5 100.2L235.1 103.8L231.5 107.4L227.9 103.8Z" fill="#2b3a7a" opacity="0.8" stroke="none" stroke-width="0"/><path d="M238.5 99.9L242.1 103.5L238.5 107.1L234.9 103.5Z" fill="#2b3a7a" opacity="0.8" stroke="none" stroke-width="0"/><path d="M251.6 86.0L255.2 89.6L251.6 93.2L248.0 89.6Z" fill="#2b3a7a" opacity="0.8" stroke="none" stroke-width="0"/><path d="M253.9 85.7L257.5 89.3L253.9 92.9L250.3 89.3Z" fill="#2b3a7a" opacity="0.8" stroke="none" stroke-width="0"/><path d="M254.3 84.0L257.9 87.6L254.3 91.2L250.7 87.6Z" fill="#2b3a7a" opacity="0.8" stroke="none" stroke-width="0"/><path d="M256.7 81.8L260.3 85.4L256.7 89.0L253.1 85.4Z" fill="#2b3a7a" opacity="0.8" stroke="none" stroke-width="0"/><path d="M264.0 80.8L267.6 84.4L264.0 88.0L260.4 84.4Z" fill="#2b3a7a" opacity="0.8" stroke="none" stroke-width="0"/><path d="M319.7 80.8L323.3 84.4L319.7 88.0L316.1 84.4Z" fill="#2b3a7a" opacity="0.8" stroke="none" stroke-width="0"/><path d="M458.4 72.2L462.0 75.8L458.4 79.4L454.8 75.8Z" fill="#2b3a7a" opacity="0.8" stroke="none" stroke-width="0"/><path d="M459.6 72.1L463.2 75.7L459.6 79.3L456.0 75.7Z" fill="#2b3a7a" opacity="0.8" stroke="none" stroke-width="0"/><path d="M461.1 71.7L464.7 75.3L461.1 78.9L457.5 75.3Z" fill="#2b3a7a" opacity="0.8" stroke="none" stroke-width="0"/><path d="M461.3 71.1L464.9 74.7L461.3 78.3L457.7 74.7Z" fill="#2b3a7a" opacity="0.8" stroke="none" stroke-width="0"/><path d="M462.6 71.1L466.2 74.7L462.6 78.3L459.0 74.7Z" fill="#2b3a7a" opacity="0.8" stroke="none" stroke-width="0"/><path d="M470.4 70.8L474.0 74.4L470.4 78.0L466.8 74.4Z" fill="#2b3a7a" opacity="0.8" stroke="none" stroke-width="0"/><path d="M481.1 70.3L484.7 73.9L481.1 77.5L477.5 73.9Z" fill="#2b3a7a" opacity="0.8" stroke="none" stroke-width="0"/><path d="M484.7 70.0L488.3 73.6L484.7 77.2L481.1 73.6Z" fill="#2b3a7a" opacity="0.8" stroke="none" stroke-width="0"/><path d="M540.9 69.8L544.5 73.4L540.9 77.0L537.3 73.4Z" fill="#2b3a7a" opacity="0.8" stroke="none" stroke-width="0"/><path d="M588.9 69.8L592.5 73.4L588.9 77.0L585.3 73.4Z" fill="#2b3a7a" opacity="0.8" stroke="none" stroke-width="0"/><path d="M620.9 67.8L624.5 71.4L620.9 75.0L617.3 71.4Z" fill="#2b3a7a" opacity="0.8" stroke="none" stroke-width="0"/><path d="M60.0 335.3L61.7 335.3L61.7 335.1L64.1 335.1L64.1 320.7L68.9 320.7L68.9 319.9L70.7 319.9L70.7 315.3L71.2 315.3L71.2 314.9L71.9 314.9L71.9 314.9L100.4 314.9L100.4 238.7L100.9 238.7L100.9 229.0L101.3 229.0L101.3 222.3L101.9 222.3L101.9 220.6L102.0 220.6L102.0 220.5L102.3 220.5L102.3 214.2L103.4 214.2L103.4 214.1L103.7 214.1L103.7 213.7L103.9 213.7L103.9 213.5L104.3 213.5L104.3 212.7L105.7 212.7L105.7 212.1L106.0 212.1L106.0 212.0L109.8 212.0L109.8 206.7L114.1 206.7L114.1 204.9L115.7 204.9L115.7 204.6L116.7 204.6L116.7 201.9L118.6 201.9L118.6 201.8L119.6 201.8L119.6 201.0L120.1 201.0L120.1 200.0L122.9 200.0L122.9 200.0L124.0 200.0L124.0 199.7L133.3 199.7L133.3 195.5L140.3 195.5L140.3 187.4L140.5 187.4L140.5 186.2L141.0 186.2L141.0 184.5L153.1 184.5L153.1 183.9L159.1 183.9L159.1 169.3L161.2 169.3L161.2 168.8L161.3 168.8L161.3 167.7L162.5 167.7L162.5 165.0L162.9 165.0L162.9 163.7L163.0 163.7L163.0 163.6L165.6 163.6L165.6 155.9L168.7 155.9L168.7 155.8L169.9 155.8L169.9 141.9L172.4 141.9L172.4 141.8L173.3 141.8L173.3 131.7L174.2 131.7L174.2 130.9L174.5 130.9L174.5 129.5L195.9 129.5L195.9 129.5L199.1 129.5L199.1 128.9L202.1 128.9L202.1 128.4L204.2 128.4L204.2 128.2L213.9 128.2L213.9 128.0L223.9 128.0L223.9 112.8L226.2 112.8L226.2 110.2L230.1 110.2L230.1 105.5L230.9 105.5L230.9 105.1L231.5 105.1L231.5 103.8L238.5 103.8L238.5 103.5L251.6 103.5L251.6 89.6L253.9 89.6L253.9 89.3L254.3 89.3L254.3 87.6L256.7 87.6L256.7 85.4L264.0 85.4L264.0 84.4L319.7 84.4L319.7 84.4L458.4 84.4L458.4 75.8L459.6 75.8L459.6 75.7L461.1 75.7L461.1 75.3L461.3 75.3L461.3 74.7L462.6 74.7L462.6 74.7L470.4 74.7L470.4 74.4L481.1 74.4L481.1 73.9L484.7 73.9L484.7 73.6L490.4 73.6L490.4 69.8L492.9 69.8L492.9 69.1L709.9 69.1L709.9 55.0L1032.0 55.0" fill="none" stroke="#6675b0" stroke-width="1.6" stroke-dasharray="5 3" opacity="0.75"/><path d="M165.6 155.9L172.4 155.9L172.4 141.8L173.3 141.8L173.3 131.7L174.2 131.7L174.2 130.9L174.5 130.9L174.5 129.5L195.9 129.5L195.9 129.5L199.1 129.5L199.1 128.9L202.1 128.9L202.1 128.4L204.2 128.4L204.2 128.2L213.9 128.2L213.9 128.0L223.9 128.0L223.9 112.8L228.7 112.8L228.7 111.6L230.1 111.6L230.1 105.5L230.9 105.5L230.9 105.1L231.5 105.1L231.5 103.8L238.5 103.8L238.5 103.5L251.6 103.5L251.6 89.6L253.9 89.6L253.9 89.3L254.3 89.3L254.3 87.6L256.7 87.6L256.7 85.4L264.0 85.4L264.0 84.4L319.7 84.4L319.7 84.4L458.4 84.4L458.4 75.8L459.6 75.8L459.6 75.7L461.1 75.7L461.1 75.3L461.3 75.3L461.3 74.7L462.6 74.7L462.6 74.7L470.4 74.7L470.4 74.4L481.1 74.4L481.1 73.9L484.7 73.9L484.7 73.6L490.5 73.6L490.5 73.5L540.9 73.5L540.9 73.4L588.9 73.4L588.9 73.4L620.9 73.4L620.9 71.4L1032.0 71.4" fill="none" stroke="#2b3a7a" stroke-width="2.6"/><path d="M413.4 246.9L419.9 253.4L413.4 259.9L406.9 253.4Z" fill="#c5961a" opacity="1.0" stroke="#ffffff" stroke-width="1.4"/><path d="M482.5 206.5L489.0 213.0L482.5 219.5L476.0 213.0Z" fill="#c5961a" opacity="1.0" stroke="#ffffff" stroke-width="1.4"/><path d="M490.5 67.0L497.0 73.5L490.5 80.0L484.0 73.5Z" fill="#c5961a" opacity="1.0" stroke="#ffffff" stroke-width="1.4"/><path d="M549.6 240.8L556.1 247.3L549.6 253.8L543.1 247.3Z" fill="#c5961a" opacity="1.0" stroke="#ffffff" stroke-width="1.4"/><path d="M550.0 238.0L556.5 244.5L550.0 251.0L543.5 244.5Z" fill="#c5961a" opacity="1.0" stroke="#ffffff" stroke-width="1.4"/><text x="1042" y="53.0" font-size="11.5" fill="#6675b0">– – raw best 535.9</text><text x="1042" y="67.0" font-size="10" fill="#8a8fa3">unverified (pending)</text><path d="M620.9 64.9L627.4 71.4L620.9 77.9L614.4 71.4Z" fill="#2b3a7a" opacity="1.0" stroke="#ffffff" stroke-width="1.4"/><text x="1042" y="99.4" font-size="12.5" fill="#2b3a7a" font-weight="bold">◆ verified 510.1</text><text x="1042" y="115.4" font-size="10.5" fill="#3a3f55">top verified</text><text x="60" y="24" font-size="13" font-weight="bold" fill="#3a3f55" letter-spacing="1.2">SCORE EVOLUTION — gemma-challenge (tok/s)</text><circle cx="452" cy="20" r="3" fill="#b9bdca"/><text x="460" y="24" font-size="10.5" fill="#8a8fa3">all results</text><path d="M544.0 16.4L547.6 20.0L544.0 23.6L540.4 20.0Z" fill="#2b3a7a" opacity="1.0" stroke="none" stroke-width="0"/><text x="552" y="24" font-size="10.5" fill="#8a8fa3">verified</text><path d="M620.0 15.5L624.5 20.0L620.0 24.5L615.5 20.0Z" fill="#c5961a" opacity="1.0" stroke="#fff" stroke-width="1"/><text x="629" y="24" font-size="10.5" fill="#8a8fa3">mikasa-inbound (us)</text></svg>